<svg viewBox="0 0 179 107" fill="none" xmlns="http://www.w3.org/2000/svg">
<g filter="url(#filter0_d_1236_205980)">
<rect width="175" height="103" rx="3" fill="#AB1B1B" shape-rendering="crispEdges"/>
<rect x="0.5" y="0.5" width="174" height="102" rx="2.5" stroke="#563E3E" shape-rendering="crispEdges"/>
<g filter="url(#filter1_d_1236_205980)">
<path d="M43.0263 41.2C42.0876 42.0107 41.0529 42.288 39.9223 42.032C38.8556 41.7973 37.8529 41.232 36.9143 40.336C36.6583 39.824 36.6583 39.44 36.9143 39.184C37.1489 39.0133 37.4476 38.928 37.8103 38.928C38.2583 39.3333 38.8663 39.7067 39.6343 40.048H39.6663C40.4556 40.5173 41.1169 40.4747 41.6503 39.92L41.8103 39.76C43.7729 37.8613 44.8716 35.984 45.1063 34.128C45.1489 33.5093 45.2556 33.1253 45.4263 32.976C45.4263 32.976 45.4049 32.944 45.3623 32.88C45.3196 32.816 45.2449 32.7093 45.1383 32.56C45.1169 32.496 45.1063 32.432 45.1063 32.368C44.7863 32.5813 44.0503 32.9333 42.8983 33.424C42.8129 33.4453 42.7489 33.4773 42.7063 33.52C41.4476 34.1387 40.2209 34.1387 39.0263 33.52C36.4236 32.4107 35.1009 30.5227 35.0583 27.856C35.0796 24.656 36.4023 22.1173 39.0263 20.24C40.9889 18.64 42.8343 18.48 44.5623 19.76C44.6689 19.8453 44.7649 19.9307 44.8503 20.016C44.9356 20.08 45.0209 20.1547 45.1063 20.24C47.5169 22.4587 48.5409 25.104 48.1783 28.176C48.0289 29.84 47.5169 32.1973 46.6423 35.248C46.3436 37.232 45.1383 39.216 43.0263 41.2ZM38.8343 32.08C39.8583 32.8053 40.9996 32.848 42.2583 32.208C42.3436 32.1653 42.3969 32.1333 42.4183 32.112C44.3596 31.344 45.5223 30.064 45.9063 28.272C45.9916 27.9093 46.0343 27.504 46.0343 27.056C46.3116 25.2427 45.8103 23.44 44.5303 21.648C44.4876 21.6053 44.4343 21.552 44.3703 21.488C44.3276 21.424 44.2636 21.3493 44.1783 21.264C43.9223 20.944 43.7303 20.784 43.6023 20.784C42.1303 20.08 40.9143 20.2613 39.9543 21.328C39.7409 21.584 39.5489 21.872 39.3783 22.192C38.9089 23.3653 38.5143 24.528 38.1943 25.68C37.8956 26.8107 37.6716 27.9093 37.5223 28.976C37.3516 30.3627 37.7889 31.3973 38.8343 32.08ZM50.0663 44.176C49.6609 44.6453 49.1169 44.8373 48.4343 44.752C47.9009 44.6453 47.6769 44.3573 47.7623 43.888C47.7836 43.8453 47.7943 43.8027 47.7943 43.76C47.8156 43.7173 47.8369 43.6747 47.8583 43.632V43.056C49.5009 39.1947 51.2076 35.3653 52.9783 31.568C54.7489 27.7493 56.5729 23.9627 58.4503 20.208C58.4929 19.7813 58.8663 19.2373 59.5703 18.576C59.9116 18.4267 60.4023 18.5013 61.0423 18.8C61.4903 19.0347 61.7356 19.3227 61.7783 19.664C61.7783 19.8347 61.6609 20.0373 61.4263 20.272C61.2769 20.4213 61.2023 20.592 61.2023 20.784C60.2849 22.1067 59.3249 23.7387 58.3223 25.68C57.3196 27.6213 56.2743 29.872 55.1863 32.432C54.3969 34.3093 53.7569 35.8133 53.2663 36.944C52.7969 38.0747 52.4769 38.8213 52.3063 39.184C52.2209 39.3973 52.0503 39.792 51.7943 40.368C51.5383 40.9227 51.1863 41.6587 50.7383 42.576C50.5889 42.896 50.4609 43.184 50.3543 43.44C50.2476 43.7173 50.1516 43.9627 50.0663 44.176ZM68.4983 42.032C67.8796 42.0533 67.3356 42.096 66.8663 42.16C66.3969 42.2453 66.0129 42.3413 65.7143 42.448C65.1169 42.4267 64.7969 42.128 64.7543 41.552C64.7543 41.232 64.9676 41.0187 65.3943 40.912C65.4583 40.8907 65.5543 40.88 65.6823 40.88C65.8956 40.6667 66.3969 40.5493 67.1863 40.528C67.7409 40.5067 68.0396 40.1867 68.0823 39.568C68.0183 38.288 68.0183 35.184 68.0823 30.256C68.1036 29.2107 68.1036 28.2507 68.0823 27.376C68.0823 26.5013 68.0609 25.712 68.0183 25.008C68.0183 24.944 68.0183 24.8693 68.0183 24.784C68.0183 24.6773 68.0289 24.5493 68.0503 24.4C68.0929 23.8453 68.0503 23.4293 67.9223 23.152C67.8796 22.4053 67.6663 22.0747 67.2823 22.16C67.2396 22.1813 67.1863 22.2027 67.1223 22.224C67.0583 22.224 67.0049 22.2453 66.9623 22.288C66.7489 22.3947 66.4823 22.4907 66.1623 22.576C65.7143 22.6827 65.3729 22.8107 65.1383 22.96C64.7329 22.9173 64.4129 22.7253 64.1783 22.384C64.1783 22.128 64.3596 21.7973 64.7223 21.392C64.8716 21.3493 65.0529 21.2853 65.2663 21.2C65.4796 21.1147 65.7249 21.0187 66.0023 20.912C67.6449 20.336 68.8289 19.728 69.5543 19.088C69.7676 18.8747 70.0769 18.9173 70.4823 19.216C70.8236 19.4293 70.9409 19.6853 70.8343 19.984C70.7916 20.3253 70.7276 21.008 70.6423 22.032C70.5783 23.056 70.4929 24.4107 70.3863 26.096C70.3436 26.8 70.2903 27.4507 70.2263 28.048C70.1836 28.624 70.1196 29.1467 70.0343 29.616C70.0129 30.0853 69.9916 30.6613 69.9703 31.344C69.9703 32.0267 69.9703 32.8267 69.9703 33.744C69.9703 35.9627 69.9383 37.584 69.8743 38.608C69.9169 39.3973 70.1409 39.8987 70.5463 40.112C70.7596 40.1973 71.0689 40.2933 71.4743 40.4C71.9649 40.3787 72.4236 40.3893 72.8503 40.432C73.2769 40.4747 73.6609 40.5387 74.0023 40.624C74.2796 40.6027 74.4823 40.7413 74.6103 41.04C74.6316 41.104 74.6423 41.168 74.6423 41.232C74.2796 41.616 73.9809 41.8293 73.7463 41.872C73.5329 41.68 72.9143 41.6053 71.8903 41.648C70.4396 41.712 69.3089 41.84 68.4983 42.032ZM83.7943 41.776C83.2396 42.1387 82.3223 42.32 81.0423 42.32H80.6583C79.1863 42.32 77.9383 41.7013 76.9143 40.464C76.8076 40.3147 76.7009 40.176 76.5943 40.048C76.5089 39.92 76.4236 39.7813 76.3383 39.632C75.5489 38.2667 75.8476 37.2 77.2343 36.432C77.8316 36.4747 78.1943 36.56 78.3223 36.688C78.3223 36.688 78.3436 36.72 78.3863 36.784C78.4503 36.848 78.5249 36.9333 78.6103 37.04C78.6316 37.104 78.6423 37.168 78.6423 37.232C78.5996 37.616 78.4929 37.8827 78.3223 38.032C78.0023 38.7787 77.9169 39.312 78.0663 39.632C79.0263 40.4853 79.7836 40.9973 80.3383 41.168C80.5729 41.232 80.7756 41.264 80.9463 41.264C82.5463 41.264 83.9543 40.656 85.1703 39.44C86.1303 38.48 86.6316 37.3813 86.6743 36.144C86.6743 34.8213 86.3756 33.488 85.7783 32.144C85.5223 31.312 85.1703 30.8 84.7223 30.608C84.5089 30.544 84.2849 30.512 84.0503 30.512C82.7276 30.2133 81.7356 30.224 81.0743 30.544C80.9889 30.5867 80.9143 30.6293 80.8503 30.672C80.7863 30.7147 80.7223 30.7573 80.6583 30.8C80.4023 30.864 79.9756 31.0987 79.3783 31.504C79.1436 31.6533 78.8983 31.7813 78.6423 31.888C78.6423 32.016 78.5249 32.0267 78.2903 31.92C78.2263 31.8987 78.1516 31.888 78.0663 31.888C77.8103 31.5893 77.8103 31.3013 78.0663 31.024C78.4289 30.4693 79.2716 29.4667 80.5943 28.016C80.7009 27.8667 80.8076 27.7387 80.9143 27.632C81.0209 27.504 81.1169 27.3973 81.2023 27.312L81.3943 27.12H81.4263L81.8103 26.736H81.8423L82.0663 26.512C82.4716 26.1493 82.8129 25.84 83.0903 25.584C83.3889 25.3067 83.6236 25.0827 83.7943 24.912C84.2849 24.4 84.6689 23.76 84.9463 22.992C85.1383 21.9893 84.8503 21.2213 84.0823 20.688C83.5489 20.368 82.9729 20.2507 82.3543 20.336C81.8209 20.4427 81.2876 20.592 80.7543 20.784C80.2423 20.976 79.7303 21.1893 79.2183 21.424C78.7276 21.6587 78.6316 22.1813 78.9303 22.992C78.9303 23.0347 78.9303 23.088 78.9303 23.152C78.9303 23.216 78.9409 23.2907 78.9623 23.376C79.0049 23.7813 78.8983 24.112 78.6423 24.368C78.1943 24.56 77.8103 24.5387 77.4903 24.304C77.3836 24.1973 77.2983 24.1227 77.2343 24.08C76.3383 23.504 76.1463 22.8853 76.6583 22.224C77.2769 20.7733 78.4396 19.824 80.1463 19.376C81.9383 18.928 83.5169 19.1627 84.8823 20.08C84.9889 20.1653 85.0956 20.2507 85.2023 20.336C85.3303 20.4213 85.4369 20.5067 85.5223 20.592C86.7383 21.744 86.9196 23.0027 86.0663 24.368C85.4476 25.5627 84.5943 26.544 83.5063 27.312C83.0156 27.9307 82.8556 28.3573 83.0263 28.592C83.1116 28.6773 83.2289 28.7733 83.3783 28.88C83.5489 28.9867 83.7729 29.0933 84.0503 29.2C85.9703 29.8613 87.3143 31.1307 88.0823 33.008C88.7649 34.6933 88.7649 36.4533 88.0823 38.288C87.7196 39.248 87.1436 39.9627 86.3543 40.432C86.2689 40.4533 86.0876 40.5387 85.8103 40.688C85.5329 40.8373 85.1809 41.0507 84.7543 41.328C84.3489 41.5627 84.0289 41.712 83.7943 41.776ZM99.0858 42.576C98.4778 42.752 97.8458 42.352 97.1898 41.376V41.136L97.4058 40.896C97.5818 40.928 97.8938 40.952 98.3418 40.968C98.8058 40.984 99.4058 41 100.142 41.016C100.446 41.032 100.718 41.048 100.958 41.064C101.214 41.08 101.446 41.104 101.654 41.136C101.75 41.136 101.99 41.12 102.374 41.088C102.774 41.04 103.318 40.976 104.006 40.896C104.694 40.832 105.238 40.832 105.638 40.896C106.246 40.88 106.566 40.576 106.598 39.984V39.744C106.678 39.04 106.734 38.136 106.766 37.032C106.814 35.912 106.838 34.6 106.838 33.096C106.838 32.376 106.686 31.944 106.382 31.8C106.238 31.736 105.99 31.704 105.638 31.704H102.254C101.614 31.672 101.062 31.432 100.598 30.984V30.72C100.598 30.56 100.662 30.432 100.79 30.336L100.838 30.264C101.062 30.264 101.342 30.28 101.678 30.312C102.03 30.328 102.43 30.352 102.878 30.384C103.422 30.416 103.902 30.448 104.318 30.48C104.75 30.496 105.118 30.504 105.422 30.504C106.494 30.456 107.038 29.992 107.054 29.112C107.054 28.904 107.038 28.656 107.006 28.368C106.99 28.08 106.966 27.736 106.934 27.336C106.902 26.936 106.878 26.592 106.862 26.304C106.846 26.016 106.838 25.768 106.838 25.56C106.838 25.16 107.054 24.936 107.486 24.888C107.534 24.872 107.582 24.864 107.63 24.864C107.678 24.864 107.726 24.864 107.774 24.864C107.998 24.864 108.334 25 108.782 25.272C108.862 25.288 108.91 25.312 108.926 25.344C109.15 25.344 109.27 25.424 109.286 25.584C109.254 25.68 109.222 25.752 109.19 25.8C108.806 26.296 108.63 27.008 108.662 27.936C108.678 28.224 108.686 28.448 108.686 28.608C108.686 28.752 108.686 28.84 108.686 28.872C108.686 28.952 108.662 29.08 108.614 29.256C108.486 29.672 108.55 29.976 108.806 30.168C108.838 30.184 108.878 30.216 108.926 30.264C109.342 30.472 109.942 30.52 110.726 30.408C110.95 30.36 111.126 30.312 111.254 30.264L111.614 29.904C111.694 29.824 111.766 29.76 111.83 29.712C111.894 29.648 111.942 29.6 111.974 29.568C112.278 29.136 112.67 29.04 113.15 29.28C113.214 29.312 113.286 29.352 113.366 29.4C113.446 29.448 113.526 29.504 113.606 29.568C113.686 29.584 113.782 29.632 113.894 29.712C114.598 30 115.03 30.36 115.19 30.792C115.206 30.824 115.214 30.856 115.214 30.888C115.23 30.92 115.246 30.952 115.262 30.984C114.686 31.464 113.982 31.704 113.15 31.704H109.646C109.038 31.704 108.67 31.768 108.542 31.896C108.462 31.992 108.358 32.312 108.23 32.856V36.192C108.374 36.96 108.318 37.944 108.062 39.144C108.046 39.336 108.022 39.456 107.99 39.504C108.006 40.4 108.478 40.864 109.406 40.896C110.43 40.896 111.326 40.92 112.094 40.968C112.878 41 113.542 41.056 114.086 41.136C114.454 41.104 114.854 40.872 115.286 40.44C115.942 40.024 116.63 40.024 117.35 40.44C117.91 40.776 118.238 41.248 118.334 41.856C118.334 42.096 118.214 42.24 117.974 42.288C117.942 42.304 117.902 42.312 117.854 42.312C117.758 42.424 117.502 42.432 117.086 42.336C117.038 42.32 116.982 42.312 116.918 42.312C116.694 42.312 116.302 42.312 115.742 42.312C115.182 42.312 114.454 42.304 113.558 42.288C110.23 42.24 107.574 42.216 105.59 42.216C103.606 42.216 102.294 42.248 101.654 42.312C101.574 42.312 101.478 42.312 101.366 42.312C101.254 42.312 101.134 42.304 101.006 42.288C100.174 42.24 99.5338 42.336 99.0858 42.576ZM133.07 31.2C132.878 31.36 132.63 31.408 132.326 31.344C132.246 31.296 132.19 31.248 132.158 31.2C131.886 30.48 131.438 30.104 130.814 30.072H127.478L127.262 29.856C127.31 29.808 127.366 29.728 127.43 29.616C127.542 29.504 127.63 29.44 127.694 29.424C128.126 29.264 129.318 29.184 131.27 29.184C131.846 29.344 132.142 29.2 132.158 28.752C132.158 28.24 131.974 27.944 131.606 27.864C131.542 27.848 131.486 27.84 131.438 27.84C131.39 27.84 131.334 27.84 131.27 27.84C130.822 27.696 130.15 27.624 129.254 27.624C128.998 27.592 128.854 27.52 128.822 27.408C128.662 27.344 128.582 27.272 128.582 27.192C128.406 27.016 128.43 26.88 128.654 26.784C128.75 26.752 128.806 26.736 128.822 26.736C129.878 26.736 130.694 26.808 131.27 26.952C131.286 26.952 131.31 26.952 131.342 26.952C131.374 26.952 131.406 26.96 131.438 26.976C131.806 27.024 132.046 26.944 132.158 26.736C132.126 26.048 131.902 25.6 131.486 25.392C131.326 25.248 130.958 25.176 130.382 25.176C129.502 25.176 128.83 25.248 128.366 25.392C128.142 25.392 127.886 25.216 127.598 24.864C127.566 24.816 127.526 24.768 127.478 24.72V24.288L127.694 24.048C127.758 24.048 127.934 24.064 128.222 24.096C128.51 24.128 128.91 24.176 129.422 24.24C129.55 24.256 129.678 24.272 129.806 24.288C129.934 24.288 130.054 24.288 130.166 24.288C131.206 24.256 131.95 24.032 132.398 23.616C132.574 23.408 132.814 23.368 133.118 23.496C133.166 23.512 133.222 23.552 133.286 23.616C133.67 24.16 134.27 24.304 135.086 24.048H137.294C137.726 24.032 138.03 23.96 138.206 23.832C138.654 23.432 139.022 23.36 139.31 23.616C139.614 23.872 139.782 24.2 139.814 24.6C139.83 24.712 139.814 24.824 139.766 24.936C139.526 25.432 139.462 26.192 139.574 27.216C139.638 27.712 139.662 28.144 139.646 28.512C139.646 28.88 139.614 29.184 139.55 29.424C139.518 30.032 139.438 30.48 139.31 30.768C139.31 30.928 139.198 31.024 138.974 31.056C138.83 31.088 138.718 31.064 138.638 30.984C138.142 30.616 137.294 30.456 136.094 30.504C135.886 30.52 135.718 30.528 135.59 30.528C135.462 30.528 135.366 30.528 135.302 30.528H134.63C134.47 30.368 134.39 30.144 134.39 29.856C134.294 29.856 134.278 29.824 134.342 29.76C134.422 29.68 134.518 29.64 134.63 29.64H137.534C137.95 29.624 138.174 29.4 138.206 28.968C138.414 28.52 138.278 28.152 137.798 27.864C137.782 27.848 137.766 27.84 137.75 27.84C137.638 27.84 137.494 27.832 137.318 27.816C137.158 27.8 136.966 27.776 136.742 27.744C136.518 27.712 136.318 27.688 136.142 27.672C135.982 27.64 135.846 27.624 135.734 27.624C135.702 27.624 135.59 27.584 135.398 27.504C135.27 27.44 135.166 27.408 135.086 27.408L134.846 27.192C134.846 27.128 134.862 27.056 134.894 26.976C134.942 26.896 134.982 26.832 135.014 26.784L135.086 26.736C135.262 26.704 135.502 26.688 135.806 26.688C136.126 26.672 136.51 26.68 136.958 26.712C137.07 26.728 137.174 26.736 137.27 26.736C137.366 26.736 137.454 26.736 137.534 26.736C137.918 26.864 138.134 26.824 138.182 26.616C138.198 26.552 138.206 26.48 138.206 26.4C138.206 26.304 138.206 26.192 138.206 26.064C138.206 25.584 138.15 25.312 138.038 25.248C137.926 25.2 137.678 25.176 137.294 25.176C136.862 25.016 136.046 24.936 134.846 24.936C134.158 25.128 133.75 25.368 133.622 25.656C133.542 25.848 133.502 26.056 133.502 26.28C133.534 26.536 133.542 26.896 133.526 27.36C133.51 27.824 133.462 28.384 133.382 29.04C133.35 29.296 133.326 29.536 133.31 29.76C133.294 29.968 133.286 30.152 133.286 30.312C133.27 30.76 133.198 31.056 133.07 31.2ZM128.822 44.376C128.534 44.664 128.262 44.76 128.006 44.664C127.99 44.648 127.974 44.64 127.958 44.64C127.942 44.64 127.926 44.632 127.91 44.616C127.766 44.44 127.694 44.216 127.694 43.944C127.774 43.56 127.846 43.064 127.91 42.456C127.942 42.088 127.982 41.768 128.03 41.496C128.078 41.224 128.118 40.992 128.15 40.8V37.464C128.134 37.176 128.054 37.024 127.91 37.008C127.622 37.024 127.406 37.096 127.262 37.224C127.182 37.304 126.982 37.608 126.662 38.136C126.406 38.488 126.158 38.712 125.918 38.808C125.598 39.128 125.318 39.2 125.078 39.024C125.03 38.992 124.982 38.96 124.934 38.928C124.886 38.88 124.846 38.84 124.814 38.808C124.462 38.264 124.158 37.968 123.902 37.92C123.822 37.92 123.726 37.92 123.614 37.92C123.502 37.92 123.374 37.912 123.23 37.896C122.494 37.848 121.974 37.928 121.67 38.136C121.59 38.136 121.486 38.224 121.358 38.4C121.326 38.432 121.294 38.464 121.262 38.496C121.246 38.528 121.23 38.552 121.214 38.568C121.15 38.632 121.046 38.896 120.902 39.36C120.886 39.472 120.846 39.584 120.782 39.696L120.326 39.912C120.294 39.88 120.254 39.848 120.206 39.816C120.174 39.784 120.134 39.752 120.086 39.72C119.958 39.624 119.886 39.544 119.87 39.48C119.678 39.24 119.678 39.016 119.87 38.808C119.87 38.328 119.902 37.696 119.966 36.912C120.046 36.128 120.166 35.192 120.326 34.104C120.662 32.088 120.614 29.408 120.182 26.064C120.166 25.984 120.15 25.904 120.134 25.824C120.134 25.744 120.126 25.672 120.11 25.608C121.806 26.744 123.142 27.136 124.118 26.784C124.598 26.624 125.046 26.312 125.462 25.848C125.782 25.944 126.126 26.2 126.494 26.616C126.558 26.68 126.614 26.744 126.662 26.808C126.726 26.872 126.774 26.92 126.806 26.952C127.046 27.224 127.142 27.456 127.094 27.648C127.078 27.68 127.062 27.712 127.046 27.744C127.046 27.776 127.038 27.808 127.022 27.84C126.734 28.032 126.59 28.408 126.59 28.968C126.59 30.536 126.55 31.896 126.47 33.048C126.406 34.2 126.294 35.152 126.134 35.904V36.576C127.078 36.096 127.678 35.664 127.934 35.28C128.046 35.088 128.118 34.928 128.15 34.8C128.518 34.192 128.798 33.712 128.99 33.36C129.198 33.008 129.318 32.792 129.35 32.712C129.526 32.328 129.646 31.968 129.71 31.632C129.71 31.264 129.878 31.08 130.214 31.08C130.358 31.08 130.486 31.12 130.598 31.2C130.678 31.28 130.79 31.352 130.934 31.416C131.078 31.48 131.19 31.552 131.27 31.632C131.654 32.016 131.686 32.304 131.366 32.496C131.35 32.512 131.334 32.52 131.318 32.52C131.302 32.52 131.286 32.528 131.27 32.544C130.902 32.72 130.702 32.832 130.67 32.88C130.622 32.976 130.598 33.08 130.598 33.192C130.39 33.432 130.366 33.584 130.526 33.648C130.542 33.664 130.566 33.672 130.598 33.672C131.478 34.008 132.23 33.896 132.854 33.336C133.03 33.16 133.174 32.968 133.286 32.76C133.414 32.504 133.51 32.304 133.574 32.16C133.638 32.016 133.678 31.936 133.694 31.92C133.71 31.872 133.718 31.824 133.718 31.776C133.718 31.728 133.718 31.68 133.718 31.632C133.782 31.568 133.846 31.472 133.91 31.344C134.086 31.12 134.246 31 134.39 30.984C134.534 31 134.766 31.144 135.086 31.416C135.326 31.672 135.302 31.928 135.014 32.184C134.966 32.216 134.926 32.248 134.894 32.28C134.878 32.296 134.862 32.312 134.846 32.328C134.766 32.408 134.686 32.488 134.606 32.568C134.542 32.632 134.47 32.696 134.39 32.76C134.214 33.096 134.254 33.312 134.51 33.408C134.542 33.424 134.582 33.432 134.63 33.432C135.558 33.64 136.198 33.664 136.55 33.504C136.838 33.344 137.086 33.096 137.294 32.76C137.294 32.76 137.318 32.744 137.366 32.712C137.414 32.68 137.494 32.632 137.606 32.568C137.638 32.552 137.686 32.544 137.75 32.544C137.766 32.544 137.822 32.528 137.918 32.496C138.046 32.464 138.142 32.48 138.206 32.544C138.462 32.544 138.742 32.808 139.046 33.336C139.318 33.8 139.406 34.128 139.31 34.32C139.31 34.544 139.198 34.696 138.974 34.776C138.942 34.792 138.91 34.8 138.878 34.8C138.43 34.624 137.742 34.56 136.814 34.608C136.542 34.624 136.294 34.632 136.07 34.632C135.862 34.616 135.678 34.592 135.518 34.56C134.83 34.56 134.358 34.856 134.102 35.448C134.006 35.656 133.958 35.88 133.958 36.12C133.958 36.376 134.118 36.592 134.438 36.768C134.63 36.848 134.766 36.856 134.846 36.792C135.15 36.776 135.374 36.704 135.518 36.576C135.534 36.56 135.558 36.536 135.59 36.504C135.622 36.472 135.654 36.432 135.686 36.384C135.958 36.064 136.198 35.904 136.406 35.904C136.838 36.032 137.182 36.344 137.438 36.84C137.454 36.856 137.462 36.872 137.462 36.888C137.462 36.904 137.47 36.92 137.486 36.936C137.518 36.968 137.534 36.992 137.534 37.008C137.678 37.168 137.75 37.392 137.75 37.68C137.622 37.904 137.438 37.992 137.198 37.944C137.118 37.928 137.046 37.92 136.982 37.92C136.934 37.92 136.894 37.92 136.862 37.92H134.846C134.318 37.92 134.03 38.024 133.982 38.232C133.966 38.264 133.958 38.304 133.958 38.352C133.718 38.848 133.718 39.224 133.958 39.48C134.134 39.624 134.358 39.696 134.63 39.696C134.806 39.696 135.142 39.536 135.638 39.216C135.766 39.152 135.878 39.088 135.974 39.024C136.118 38.88 136.334 38.944 136.622 39.216L136.646 39.24C136.79 39.544 136.918 39.808 137.03 40.032C137.142 40.256 137.23 40.44 137.294 40.584C137.422 40.584 137.446 40.656 137.366 40.8L137.294 41.04C137.134 41.184 136.918 41.256 136.646 41.256C136.086 40.952 135.334 40.8 134.39 40.8C133.99 40.704 133.766 40.856 133.718 41.256C133.734 41.992 133.886 42.368 134.174 42.384C134.798 42.528 135.766 42.6 137.078 42.6C137.27 42.584 137.494 42.432 137.75 42.144C138.342 41.792 138.726 41.64 138.902 41.688C139.062 41.736 139.35 41.968 139.766 42.384C139.766 42.384 139.87 42.552 140.078 42.888C140.11 42.92 140.134 42.944 140.15 42.96C140.166 42.992 140.182 43.024 140.198 43.056V43.488C140.134 43.488 140.046 43.544 139.934 43.656C139.87 43.688 139.814 43.704 139.766 43.704C138.294 43.384 136.078 43.288 133.118 43.416C131.614 43.464 130.55 43.488 129.926 43.488C129.526 43.488 129.262 43.576 129.134 43.752C129.118 43.784 129.102 43.816 129.086 43.848C129.07 43.88 129.054 43.912 129.038 43.944C128.894 44.104 128.822 44.248 128.822 44.376ZM123.23 31.632C124.014 31.872 124.518 31.88 124.742 31.656C124.918 31.4 125.006 30.8 125.006 29.856V28.296C124.99 28.008 124.926 27.856 124.814 27.84C124.75 27.84 124.662 27.84 124.55 27.84C124.438 27.84 124.302 27.832 124.142 27.816C123.294 27.768 122.694 27.856 122.342 28.08C122.054 28.24 121.926 28.576 121.958 29.088C121.958 29.424 121.934 29.68 121.886 29.856V30.312C121.902 31.16 122.35 31.6 123.23 31.632ZM123.854 37.056C124.126 37.104 124.366 37.088 124.574 37.008C124.734 36.704 124.814 36.256 124.814 35.664C124.814 35.568 124.814 35.448 124.814 35.304C124.83 35.16 124.846 34.984 124.862 34.776C124.894 34.312 124.902 33.912 124.886 33.576C124.87 33.24 124.846 32.968 124.814 32.76C124.206 32.76 123.302 32.616 122.102 32.328C122.102 32.392 122.046 32.48 121.934 32.592C121.902 32.688 121.886 32.744 121.886 32.76C121.886 32.872 121.878 33.016 121.862 33.192C121.846 33.352 121.822 33.544 121.79 33.768C121.758 33.992 121.726 34.192 121.694 34.368C121.678 34.544 121.67 34.688 121.67 34.8C121.558 35.856 121.558 36.48 121.67 36.672C121.782 36.864 122.214 36.976 122.966 37.008H123.446C123.51 37.008 123.574 37.016 123.638 37.032C123.702 37.032 123.774 37.04 123.854 37.056ZM131.054 37.008H131.726C132.206 37.008 132.494 36.848 132.59 36.528C132.606 36.48 132.614 36.424 132.614 36.36C132.854 35.864 132.91 35.448 132.782 35.112C132.734 34.984 132.678 34.88 132.614 34.8C132.55 34.8 132.462 34.744 132.35 34.632C132.286 34.584 132.222 34.56 132.158 34.56C132.126 34.56 132.038 34.576 131.894 34.608C131.766 34.624 131.59 34.648 131.366 34.68C131.158 34.712 130.982 34.744 130.838 34.776C130.71 34.792 130.63 34.8 130.598 34.8C130.342 34.864 130.198 35.008 130.166 35.232C130.31 35.392 130.382 35.616 130.382 35.904C130.382 36.432 130.438 36.728 130.55 36.792C130.646 36.856 130.814 36.928 131.054 37.008ZM130.598 39.696H131.726C132.126 39.696 132.406 39.448 132.566 38.952C132.582 38.92 132.59 38.896 132.59 38.88C132.59 38.848 132.598 38.824 132.614 38.808C132.55 38.28 132.326 37.984 131.942 37.92H130.598C130.134 37.92 129.814 38.088 129.638 38.424C129.622 38.488 129.598 38.552 129.566 38.616C129.55 38.664 129.526 38.728 129.494 38.808C129.494 39.144 129.726 39.4 130.19 39.576C130.334 39.64 130.47 39.68 130.598 39.696ZM130.598 42.6H131.726C131.742 42.584 131.766 42.56 131.798 42.528C131.83 42.512 131.862 42.488 131.894 42.456C132.07 42.312 132.158 42.136 132.158 41.928C132.318 41.768 132.398 41.472 132.398 41.04C131.95 40.592 131.206 40.368 130.166 40.368C129.974 40.4 129.75 40.544 129.494 40.8C129.19 41.424 129.246 41.92 129.662 42.288C129.918 42.496 130.23 42.6 130.598 42.6ZM43.0263 87.2C42.0876 88.0107 41.0529 88.288 39.9223 88.032C38.8556 87.7973 37.8529 87.232 36.9143 86.336C36.6583 85.824 36.6583 85.44 36.9143 85.184C37.1489 85.0133 37.4476 84.928 37.8103 84.928C38.2583 85.3333 38.8663 85.7067 39.6343 86.048H39.6663C40.4556 86.5173 41.1169 86.4747 41.6503 85.92L41.8103 85.76C43.7729 83.8613 44.8716 81.984 45.1063 80.128C45.1489 79.5093 45.2556 79.1253 45.4263 78.976C45.4263 78.976 45.4049 78.944 45.3623 78.88C45.3196 78.816 45.2449 78.7093 45.1383 78.56C45.1169 78.496 45.1063 78.432 45.1063 78.368C44.7863 78.5813 44.0503 78.9333 42.8983 79.424C42.8129 79.4453 42.7489 79.4773 42.7063 79.52C41.4476 80.1387 40.2209 80.1387 39.0263 79.52C36.4236 78.4107 35.1009 76.5227 35.0583 73.856C35.0796 70.656 36.4023 68.1173 39.0263 66.24C40.9889 64.64 42.8343 64.48 44.5623 65.76C44.6689 65.8453 44.7649 65.9307 44.8503 66.016C44.9356 66.08 45.0209 66.1547 45.1063 66.24C47.5169 68.4587 48.5409 71.104 48.1783 74.176C48.0289 75.84 47.5169 78.1973 46.6423 81.248C46.3436 83.232 45.1383 85.216 43.0263 87.2ZM38.8343 78.08C39.8583 78.8053 40.9996 78.848 42.2583 78.208C42.3436 78.1653 42.3969 78.1333 42.4183 78.112C44.3596 77.344 45.5223 76.064 45.9063 74.272C45.9916 73.9093 46.0343 73.504 46.0343 73.056C46.3116 71.2427 45.8103 69.44 44.5303 67.648C44.4876 67.6053 44.4343 67.552 44.3703 67.488C44.3276 67.424 44.2636 67.3493 44.1783 67.264C43.9223 66.944 43.7303 66.784 43.6023 66.784C42.1303 66.08 40.9143 66.2613 39.9543 67.328C39.7409 67.584 39.5489 67.872 39.3783 68.192C38.9089 69.3653 38.5143 70.528 38.1943 71.68C37.8956 72.8107 37.6716 73.9093 37.5223 74.976C37.3516 76.3627 37.7889 77.3973 38.8343 78.08ZM50.0663 90.176C49.6609 90.6453 49.1169 90.8373 48.4343 90.752C47.9009 90.6453 47.6769 90.3573 47.7623 89.888C47.7836 89.8453 47.7943 89.8027 47.7943 89.76C47.8156 89.7173 47.8369 89.6747 47.8583 89.632V89.056C49.5009 85.1947 51.2076 81.3653 52.9783 77.568C54.7489 73.7493 56.5729 69.9627 58.4503 66.208C58.4929 65.7813 58.8663 65.2373 59.5703 64.576C59.9116 64.4267 60.4023 64.5013 61.0423 64.8C61.4903 65.0347 61.7356 65.3227 61.7783 65.664C61.7783 65.8347 61.6609 66.0373 61.4263 66.272C61.2769 66.4213 61.2023 66.592 61.2023 66.784C60.2849 68.1067 59.3249 69.7387 58.3223 71.68C57.3196 73.6213 56.2743 75.872 55.1863 78.432C54.3969 80.3093 53.7569 81.8133 53.2663 82.944C52.7969 84.0747 52.4769 84.8213 52.3063 85.184C52.2209 85.3973 52.0503 85.792 51.7943 86.368C51.5383 86.9227 51.1863 87.6587 50.7383 88.576C50.5889 88.896 50.4609 89.184 50.3543 89.44C50.2476 89.7173 50.1516 89.9627 50.0663 90.176ZM68.4983 88.032C67.8796 88.0533 67.3356 88.096 66.8663 88.16C66.3969 88.2453 66.0129 88.3413 65.7143 88.448C65.1169 88.4267 64.7969 88.128 64.7543 87.552C64.7543 87.232 64.9676 87.0187 65.3943 86.912C65.4583 86.8907 65.5543 86.88 65.6823 86.88C65.8956 86.6667 66.3969 86.5493 67.1863 86.528C67.7409 86.5067 68.0396 86.1867 68.0823 85.568C68.0183 84.288 68.0183 81.184 68.0823 76.256C68.1036 75.2107 68.1036 74.2507 68.0823 73.376C68.0823 72.5013 68.0609 71.712 68.0183 71.008C68.0183 70.944 68.0183 70.8693 68.0183 70.784C68.0183 70.6773 68.0289 70.5493 68.0503 70.4C68.0929 69.8453 68.0503 69.4293 67.9223 69.152C67.8796 68.4053 67.6663 68.0747 67.2823 68.16C67.2396 68.1813 67.1863 68.2027 67.1223 68.224C67.0583 68.224 67.0049 68.2453 66.9623 68.288C66.7489 68.3947 66.4823 68.4907 66.1623 68.576C65.7143 68.6827 65.3729 68.8107 65.1383 68.96C64.7329 68.9173 64.4129 68.7253 64.1783 68.384C64.1783 68.128 64.3596 67.7973 64.7223 67.392C64.8716 67.3493 65.0529 67.2853 65.2663 67.2C65.4796 67.1147 65.7249 67.0187 66.0023 66.912C67.6449 66.336 68.8289 65.728 69.5543 65.088C69.7676 64.8747 70.0769 64.9173 70.4823 65.216C70.8236 65.4293 70.9409 65.6853 70.8343 65.984C70.7916 66.3253 70.7276 67.008 70.6423 68.032C70.5783 69.056 70.4929 70.4107 70.3863 72.096C70.3436 72.8 70.2903 73.4507 70.2263 74.048C70.1836 74.624 70.1196 75.1467 70.0343 75.616C70.0129 76.0853 69.9916 76.6613 69.9703 77.344C69.9703 78.0267 69.9703 78.8267 69.9703 79.744C69.9703 81.9627 69.9383 83.584 69.8743 84.608C69.9169 85.3973 70.1409 85.8987 70.5463 86.112C70.7596 86.1973 71.0689 86.2933 71.4743 86.4C71.9649 86.3787 72.4236 86.3893 72.8503 86.432C73.2769 86.4747 73.6609 86.5387 74.0023 86.624C74.2796 86.6027 74.4823 86.7413 74.6103 87.04C74.6316 87.104 74.6423 87.168 74.6423 87.232C74.2796 87.616 73.9809 87.8293 73.7463 87.872C73.5329 87.68 72.9143 87.6053 71.8903 87.648C70.4396 87.712 69.3089 87.84 68.4983 88.032ZM86.2903 87.584C84.2423 87.9893 82.5996 87.9893 81.3623 87.584L81.0743 87.296C81.0743 87.232 81.1383 87.1253 81.2663 86.976C81.3303 86.8693 81.3623 86.7733 81.3623 86.688H82.2583C82.7703 86.4107 83.0476 86.016 83.0903 85.504V83.744C83.0903 83.0827 82.8663 82.7093 82.4183 82.624C82.3756 82.6027 82.3223 82.592 82.2583 82.592C80.3596 82.336 79.3783 82.1973 79.3143 82.176C78.0556 82.1333 76.9996 82.368 76.1463 82.88C75.7196 82.88 75.4209 82.688 75.2503 82.304C75.1863 82.0693 75.1969 81.8667 75.2823 81.696C75.3889 81.3333 75.7516 80.352 76.3703 78.752C76.4129 78.624 76.4449 78.5387 76.4663 78.496C76.9356 77.4293 77.3303 76.48 77.6503 75.648C77.9916 74.816 78.2583 74.0907 78.4503 73.472C78.5783 73.152 78.7703 72.704 79.0263 72.128C79.2609 71.5733 79.4529 71.0933 79.6023 70.688C79.7516 70.2613 79.8583 69.9093 79.9223 69.632C80.6903 67.6693 81.0743 66.208 81.0743 65.248C81.0743 65.0347 81.2129 64.896 81.4903 64.832C81.6609 64.7893 81.7996 64.8213 81.9063 64.928C82.7596 65.5253 83.1543 66.1333 83.0903 66.752C83.0476 67.0293 82.9516 67.3067 82.8023 67.584C82.8023 67.712 82.7596 67.904 82.6743 68.16C82.5676 68.48 82.5143 68.672 82.5143 68.736C82.1303 69.3547 81.7036 70.208 81.2343 71.296C80.7649 72.384 80.2529 73.696 79.6983 75.232C79.3356 76.2133 79.0049 77.0773 78.7063 77.824C78.4076 78.5493 78.1409 79.1573 77.9063 79.648C77.6076 80.288 77.8103 80.7467 78.5143 81.024C78.5569 81.0453 78.5996 81.056 78.6423 81.056C78.6849 81.056 78.7169 81.0667 78.7383 81.088H80.2103C81.7463 81.216 82.6103 81.216 82.8023 81.088C83.0156 81.0027 83.1436 80.5973 83.1863 79.872C83.2289 79.0827 83.2929 78.4213 83.3783 77.888C83.6129 77.1413 83.6769 75.6373 83.5703 73.376C83.5489 72.6293 83.4849 72.0853 83.3783 71.744C83.3783 71.3387 83.4423 71.072 83.5703 70.944C83.5916 70.9227 83.6023 70.9013 83.6023 70.88C83.6236 70.8587 83.6449 70.8373 83.6663 70.816C84.4769 70.816 85.1276 71.1573 85.6183 71.84C85.8529 72.2027 85.9703 72.5547 85.9703 72.896C85.8636 73.344 85.7783 73.9733 85.7143 74.784C85.6503 75.5733 85.5969 76.544 85.5543 77.696C85.5329 78.1653 85.5116 78.5813 85.4903 78.944C85.4689 79.3067 85.4369 79.6373 85.3943 79.936C85.2023 80.3627 85.3089 80.6507 85.7143 80.8C86.0129 80.9067 86.2903 80.9173 86.5463 80.832C86.6529 80.832 86.7596 80.832 86.8663 80.832C86.9729 80.832 87.0796 80.8213 87.1863 80.8C87.6343 80.7573 88.0823 80.8 88.5303 80.928C88.8929 81.0133 89.0849 81.2053 89.1063 81.504C89.0849 81.7173 88.9889 81.92 88.8183 82.112C88.2423 82.2613 87.6023 82.3253 86.8983 82.304H86.5463C85.8423 82.0907 85.4049 82.208 85.2343 82.656C85.1489 82.8907 85.1063 83.2533 85.1063 83.744C84.9143 84 84.8183 84.4053 84.8183 84.96C84.8396 85.6213 85.1276 86.112 85.6823 86.432C85.9809 86.4747 86.2689 86.6773 86.5463 87.04C86.7809 87.2107 86.7703 87.3707 86.5143 87.52C86.3863 87.5627 86.3116 87.584 86.2903 87.584ZM102.206 88.888C102.158 89.288 102.006 89.52 101.75 89.584C101.286 89.584 100.942 89.448 100.718 89.176C100.654 89.096 100.622 89 100.622 88.888C100.654 88.52 100.662 87.984 100.646 87.28C100.63 86.576 100.59 85.704 100.526 84.664C100.478 83.912 100.462 83.224 100.478 82.6C100.494 81.976 100.542 81.432 100.622 80.968V78.472C100.622 78.248 100.622 77.976 100.622 77.656C100.622 77.336 100.63 76.968 100.646 76.552C100.678 75.416 100.67 74.424 100.622 73.576C100.59 72.712 100.518 72 100.406 71.44C100.47 71.168 100.622 71.016 100.862 70.984C100.894 70.984 100.926 70.984 100.958 70.984C100.99 70.968 101.038 70.952 101.102 70.936C101.23 70.904 101.302 70.92 101.318 70.984C102.022 71.352 103.126 71.512 104.63 71.464C104.95 71.448 105.206 71.44 105.398 71.44C105.606 71.44 105.75 71.44 105.83 71.44C106.582 71.44 107.246 71.464 107.822 71.512C108.398 71.544 108.87 71.6 109.238 71.68C110.646 71.888 111.782 71.584 112.646 70.768C113.046 70.608 113.342 70.608 113.534 70.768C114.094 71.04 114.55 71.344 114.902 71.68C115.222 71.968 115.262 72.288 115.022 72.64C114.958 72.704 114.918 72.752 114.902 72.784C114.598 72.976 114.446 73.36 114.446 73.936C114.446 77.104 114.518 79.448 114.662 80.968V84.592C114.518 85.216 114.446 86.28 114.446 87.784C114.414 88.136 114.334 88.432 114.206 88.672C114.206 88.928 114.078 89.128 113.822 89.272C113.726 89.32 113.63 89.344 113.534 89.344C113.214 89.344 112.958 89.224 112.766 88.984C112.686 88.872 112.646 88.768 112.646 88.672C112.774 88.16 112.646 87.872 112.262 87.808C112.198 87.792 112.118 87.784 112.022 87.784C111.942 87.784 111.838 87.784 111.71 87.784H103.79C103.07 87.784 102.598 88 102.374 88.432C102.31 88.544 102.254 88.696 102.206 88.888ZM112.046 78.472H112.19C112.702 78.472 113.014 78.296 113.126 77.944C113.158 77.8 113.15 77.672 113.102 77.56C113.086 77.448 113.046 77.128 112.982 76.6C112.934 76.072 112.87 75.336 112.79 74.392C112.774 74.168 112.75 73.968 112.718 73.792C112.702 73.6 112.678 73.424 112.646 73.264C112.646 72.848 112.414 72.616 111.95 72.568H103.334C102.966 72.568 102.694 72.784 102.518 73.216C102.454 73.36 102.422 73.528 102.422 73.72C102.758 75 102.758 75.976 102.422 76.648C102.582 76.952 102.662 77.256 102.662 77.56C102.678 78.136 103.054 78.44 103.79 78.472C104.686 78.312 105.782 78.232 107.078 78.232C108.39 78.232 109.91 78.296 111.638 78.424H111.734L111.758 78.448H112.022L112.046 78.472ZM107.318 86.752C108.15 86.784 108.87 86.808 109.478 86.824C110.102 86.84 110.622 86.848 111.038 86.848C111.134 86.816 111.318 86.76 111.59 86.68C112.102 86.536 112.454 86.368 112.646 86.176C112.71 85.616 112.782 84.76 112.862 83.608C112.894 82.968 112.934 82.408 112.982 81.928C113.03 81.448 113.07 81.056 113.102 80.752V80.296C112.926 79.768 112.686 79.472 112.382 79.408C112.318 79.392 112.246 79.384 112.166 79.384C112.102 79.368 112.03 79.36 111.95 79.36H107.87C107.598 79.312 107.174 79.288 106.598 79.288C106.022 79.288 105.294 79.304 104.414 79.336C104.254 79.352 104.102 79.36 103.958 79.36C103.814 79.36 103.686 79.36 103.574 79.36C102.95 79.568 102.582 79.824 102.47 80.128C102.454 80.192 102.438 80.256 102.422 80.32C102.422 80.384 102.422 80.448 102.422 80.512C102.422 80.688 102.414 80.912 102.398 81.184C102.398 81.44 102.39 81.752 102.374 82.12C102.342 82.888 102.326 83.552 102.326 84.112C102.342 84.672 102.374 85.136 102.422 85.504C102.422 86.08 102.59 86.432 102.926 86.56C103.102 86.608 103.318 86.632 103.574 86.632C103.99 86.632 104.51 86.648 105.134 86.68C105.758 86.696 106.486 86.72 107.318 86.752ZM133.07 77.2C132.878 77.36 132.63 77.408 132.326 77.344C132.246 77.296 132.19 77.248 132.158 77.2C131.886 76.48 131.438 76.104 130.814 76.072H127.478L127.262 75.856C127.31 75.808 127.366 75.728 127.43 75.616C127.542 75.504 127.63 75.44 127.694 75.424C128.126 75.264 129.318 75.184 131.27 75.184C131.846 75.344 132.142 75.2 132.158 74.752C132.158 74.24 131.974 73.944 131.606 73.864C131.542 73.848 131.486 73.84 131.438 73.84C131.39 73.84 131.334 73.84 131.27 73.84C130.822 73.696 130.15 73.624 129.254 73.624C128.998 73.592 128.854 73.52 128.822 73.408C128.662 73.344 128.582 73.272 128.582 73.192C128.406 73.016 128.43 72.88 128.654 72.784C128.75 72.752 128.806 72.736 128.822 72.736C129.878 72.736 130.694 72.808 131.27 72.952C131.286 72.952 131.31 72.952 131.342 72.952C131.374 72.952 131.406 72.96 131.438 72.976C131.806 73.024 132.046 72.944 132.158 72.736C132.126 72.048 131.902 71.6 131.486 71.392C131.326 71.248 130.958 71.176 130.382 71.176C129.502 71.176 128.83 71.248 128.366 71.392C128.142 71.392 127.886 71.216 127.598 70.864C127.566 70.816 127.526 70.768 127.478 70.72V70.288L127.694 70.048C127.758 70.048 127.934 70.064 128.222 70.096C128.51 70.128 128.91 70.176 129.422 70.24C129.55 70.256 129.678 70.272 129.806 70.288C129.934 70.288 130.054 70.288 130.166 70.288C131.206 70.256 131.95 70.032 132.398 69.616C132.574 69.408 132.814 69.368 133.118 69.496C133.166 69.512 133.222 69.552 133.286 69.616C133.67 70.16 134.27 70.304 135.086 70.048H137.294C137.726 70.032 138.03 69.96 138.206 69.832C138.654 69.432 139.022 69.36 139.31 69.616C139.614 69.872 139.782 70.2 139.814 70.6C139.83 70.712 139.814 70.824 139.766 70.936C139.526 71.432 139.462 72.192 139.574 73.216C139.638 73.712 139.662 74.144 139.646 74.512C139.646 74.88 139.614 75.184 139.55 75.424C139.518 76.032 139.438 76.48 139.31 76.768C139.31 76.928 139.198 77.024 138.974 77.056C138.83 77.088 138.718 77.064 138.638 76.984C138.142 76.616 137.294 76.456 136.094 76.504C135.886 76.52 135.718 76.528 135.59 76.528C135.462 76.528 135.366 76.528 135.302 76.528H134.63C134.47 76.368 134.39 76.144 134.39 75.856C134.294 75.856 134.278 75.824 134.342 75.76C134.422 75.68 134.518 75.64 134.63 75.64H137.534C137.95 75.624 138.174 75.4 138.206 74.968C138.414 74.52 138.278 74.152 137.798 73.864C137.782 73.848 137.766 73.84 137.75 73.84C137.638 73.84 137.494 73.832 137.318 73.816C137.158 73.8 136.966 73.776 136.742 73.744C136.518 73.712 136.318 73.688 136.142 73.672C135.982 73.64 135.846 73.624 135.734 73.624C135.702 73.624 135.59 73.584 135.398 73.504C135.27 73.44 135.166 73.408 135.086 73.408L134.846 73.192C134.846 73.128 134.862 73.056 134.894 72.976C134.942 72.896 134.982 72.832 135.014 72.784L135.086 72.736C135.262 72.704 135.502 72.688 135.806 72.688C136.126 72.672 136.51 72.68 136.958 72.712C137.07 72.728 137.174 72.736 137.27 72.736C137.366 72.736 137.454 72.736 137.534 72.736C137.918 72.864 138.134 72.824 138.182 72.616C138.198 72.552 138.206 72.48 138.206 72.4C138.206 72.304 138.206 72.192 138.206 72.064C138.206 71.584 138.15 71.312 138.038 71.248C137.926 71.2 137.678 71.176 137.294 71.176C136.862 71.016 136.046 70.936 134.846 70.936C134.158 71.128 133.75 71.368 133.622 71.656C133.542 71.848 133.502 72.056 133.502 72.28C133.534 72.536 133.542 72.896 133.526 73.36C133.51 73.824 133.462 74.384 133.382 75.04C133.35 75.296 133.326 75.536 133.31 75.76C133.294 75.968 133.286 76.152 133.286 76.312C133.27 76.76 133.198 77.056 133.07 77.2ZM128.822 90.376C128.534 90.664 128.262 90.76 128.006 90.664C127.99 90.648 127.974 90.64 127.958 90.64C127.942 90.64 127.926 90.632 127.91 90.616C127.766 90.44 127.694 90.216 127.694 89.944C127.774 89.56 127.846 89.064 127.91 88.456C127.942 88.088 127.982 87.768 128.03 87.496C128.078 87.224 128.118 86.992 128.15 86.8V83.464C128.134 83.176 128.054 83.024 127.91 83.008C127.622 83.024 127.406 83.096 127.262 83.224C127.182 83.304 126.982 83.608 126.662 84.136C126.406 84.488 126.158 84.712 125.918 84.808C125.598 85.128 125.318 85.2 125.078 85.024C125.03 84.992 124.982 84.96 124.934 84.928C124.886 84.88 124.846 84.84 124.814 84.808C124.462 84.264 124.158 83.968 123.902 83.92C123.822 83.92 123.726 83.92 123.614 83.92C123.502 83.92 123.374 83.912 123.23 83.896C122.494 83.848 121.974 83.928 121.67 84.136C121.59 84.136 121.486 84.224 121.358 84.4C121.326 84.432 121.294 84.464 121.262 84.496C121.246 84.528 121.23 84.552 121.214 84.568C121.15 84.632 121.046 84.896 120.902 85.36C120.886 85.472 120.846 85.584 120.782 85.696L120.326 85.912C120.294 85.88 120.254 85.848 120.206 85.816C120.174 85.784 120.134 85.752 120.086 85.72C119.958 85.624 119.886 85.544 119.87 85.48C119.678 85.24 119.678 85.016 119.87 84.808C119.87 84.328 119.902 83.696 119.966 82.912C120.046 82.128 120.166 81.192 120.326 80.104C120.662 78.088 120.614 75.408 120.182 72.064C120.166 71.984 120.15 71.904 120.134 71.824C120.134 71.744 120.126 71.672 120.11 71.608C121.806 72.744 123.142 73.136 124.118 72.784C124.598 72.624 125.046 72.312 125.462 71.848C125.782 71.944 126.126 72.2 126.494 72.616C126.558 72.68 126.614 72.744 126.662 72.808C126.726 72.872 126.774 72.92 126.806 72.952C127.046 73.224 127.142 73.456 127.094 73.648C127.078 73.68 127.062 73.712 127.046 73.744C127.046 73.776 127.038 73.808 127.022 73.84C126.734 74.032 126.59 74.408 126.59 74.968C126.59 76.536 126.55 77.896 126.47 79.048C126.406 80.2 126.294 81.152 126.134 81.904V82.576C127.078 82.096 127.678 81.664 127.934 81.28C128.046 81.088 128.118 80.928 128.15 80.8C128.518 80.192 128.798 79.712 128.99 79.36C129.198 79.008 129.318 78.792 129.35 78.712C129.526 78.328 129.646 77.968 129.71 77.632C129.71 77.264 129.878 77.08 130.214 77.08C130.358 77.08 130.486 77.12 130.598 77.2C130.678 77.28 130.79 77.352 130.934 77.416C131.078 77.48 131.19 77.552 131.27 77.632C131.654 78.016 131.686 78.304 131.366 78.496C131.35 78.512 131.334 78.52 131.318 78.52C131.302 78.52 131.286 78.528 131.27 78.544C130.902 78.72 130.702 78.832 130.67 78.88C130.622 78.976 130.598 79.08 130.598 79.192C130.39 79.432 130.366 79.584 130.526 79.648C130.542 79.664 130.566 79.672 130.598 79.672C131.478 80.008 132.23 79.896 132.854 79.336C133.03 79.16 133.174 78.968 133.286 78.76C133.414 78.504 133.51 78.304 133.574 78.16C133.638 78.016 133.678 77.936 133.694 77.92C133.71 77.872 133.718 77.824 133.718 77.776C133.718 77.728 133.718 77.68 133.718 77.632C133.782 77.568 133.846 77.472 133.91 77.344C134.086 77.12 134.246 77 134.39 76.984C134.534 77 134.766 77.144 135.086 77.416C135.326 77.672 135.302 77.928 135.014 78.184C134.966 78.216 134.926 78.248 134.894 78.28C134.878 78.296 134.862 78.312 134.846 78.328C134.766 78.408 134.686 78.488 134.606 78.568C134.542 78.632 134.47 78.696 134.39 78.76C134.214 79.096 134.254 79.312 134.51 79.408C134.542 79.424 134.582 79.432 134.63 79.432C135.558 79.64 136.198 79.664 136.55 79.504C136.838 79.344 137.086 79.096 137.294 78.76C137.294 78.76 137.318 78.744 137.366 78.712C137.414 78.68 137.494 78.632 137.606 78.568C137.638 78.552 137.686 78.544 137.75 78.544C137.766 78.544 137.822 78.528 137.918 78.496C138.046 78.464 138.142 78.48 138.206 78.544C138.462 78.544 138.742 78.808 139.046 79.336C139.318 79.8 139.406 80.128 139.31 80.32C139.31 80.544 139.198 80.696 138.974 80.776C138.942 80.792 138.91 80.8 138.878 80.8C138.43 80.624 137.742 80.56 136.814 80.608C136.542 80.624 136.294 80.632 136.07 80.632C135.862 80.616 135.678 80.592 135.518 80.56C134.83 80.56 134.358 80.856 134.102 81.448C134.006 81.656 133.958 81.88 133.958 82.12C133.958 82.376 134.118 82.592 134.438 82.768C134.63 82.848 134.766 82.856 134.846 82.792C135.15 82.776 135.374 82.704 135.518 82.576C135.534 82.56 135.558 82.536 135.59 82.504C135.622 82.472 135.654 82.432 135.686 82.384C135.958 82.064 136.198 81.904 136.406 81.904C136.838 82.032 137.182 82.344 137.438 82.84C137.454 82.856 137.462 82.872 137.462 82.888C137.462 82.904 137.47 82.92 137.486 82.936C137.518 82.968 137.534 82.992 137.534 83.008C137.678 83.168 137.75 83.392 137.75 83.68C137.622 83.904 137.438 83.992 137.198 83.944C137.118 83.928 137.046 83.92 136.982 83.92C136.934 83.92 136.894 83.92 136.862 83.92H134.846C134.318 83.92 134.03 84.024 133.982 84.232C133.966 84.264 133.958 84.304 133.958 84.352C133.718 84.848 133.718 85.224 133.958 85.48C134.134 85.624 134.358 85.696 134.63 85.696C134.806 85.696 135.142 85.536 135.638 85.216C135.766 85.152 135.878 85.088 135.974 85.024C136.118 84.88 136.334 84.944 136.622 85.216L136.646 85.24C136.79 85.544 136.918 85.808 137.03 86.032C137.142 86.256 137.23 86.44 137.294 86.584C137.422 86.584 137.446 86.656 137.366 86.8L137.294 87.04C137.134 87.184 136.918 87.256 136.646 87.256C136.086 86.952 135.334 86.8 134.39 86.8C133.99 86.704 133.766 86.856 133.718 87.256C133.734 87.992 133.886 88.368 134.174 88.384C134.798 88.528 135.766 88.6 137.078 88.6C137.27 88.584 137.494 88.432 137.75 88.144C138.342 87.792 138.726 87.64 138.902 87.688C139.062 87.736 139.35 87.968 139.766 88.384C139.766 88.384 139.87 88.552 140.078 88.888C140.11 88.92 140.134 88.944 140.15 88.96C140.166 88.992 140.182 89.024 140.198 89.056V89.488C140.134 89.488 140.046 89.544 139.934 89.656C139.87 89.688 139.814 89.704 139.766 89.704C138.294 89.384 136.078 89.288 133.118 89.416C131.614 89.464 130.55 89.488 129.926 89.488C129.526 89.488 129.262 89.576 129.134 89.752C129.118 89.784 129.102 89.816 129.086 89.848C129.07 89.88 129.054 89.912 129.038 89.944C128.894 90.104 128.822 90.248 128.822 90.376ZM123.23 77.632C124.014 77.872 124.518 77.88 124.742 77.656C124.918 77.4 125.006 76.8 125.006 75.856V74.296C124.99 74.008 124.926 73.856 124.814 73.84C124.75 73.84 124.662 73.84 124.55 73.84C124.438 73.84 124.302 73.832 124.142 73.816C123.294 73.768 122.694 73.856 122.342 74.08C122.054 74.24 121.926 74.576 121.958 75.088C121.958 75.424 121.934 75.68 121.886 75.856V76.312C121.902 77.16 122.35 77.6 123.23 77.632ZM123.854 83.056C124.126 83.104 124.366 83.088 124.574 83.008C124.734 82.704 124.814 82.256 124.814 81.664C124.814 81.568 124.814 81.448 124.814 81.304C124.83 81.16 124.846 80.984 124.862 80.776C124.894 80.312 124.902 79.912 124.886 79.576C124.87 79.24 124.846 78.968 124.814 78.76C124.206 78.76 123.302 78.616 122.102 78.328C122.102 78.392 122.046 78.48 121.934 78.592C121.902 78.688 121.886 78.744 121.886 78.76C121.886 78.872 121.878 79.016 121.862 79.192C121.846 79.352 121.822 79.544 121.79 79.768C121.758 79.992 121.726 80.192 121.694 80.368C121.678 80.544 121.67 80.688 121.67 80.8C121.558 81.856 121.558 82.48 121.67 82.672C121.782 82.864 122.214 82.976 122.966 83.008H123.446C123.51 83.008 123.574 83.016 123.638 83.032C123.702 83.032 123.774 83.04 123.854 83.056ZM131.054 83.008H131.726C132.206 83.008 132.494 82.848 132.59 82.528C132.606 82.48 132.614 82.424 132.614 82.36C132.854 81.864 132.91 81.448 132.782 81.112C132.734 80.984 132.678 80.88 132.614 80.8C132.55 80.8 132.462 80.744 132.35 80.632C132.286 80.584 132.222 80.56 132.158 80.56C132.126 80.56 132.038 80.576 131.894 80.608C131.766 80.624 131.59 80.648 131.366 80.68C131.158 80.712 130.982 80.744 130.838 80.776C130.71 80.792 130.63 80.8 130.598 80.8C130.342 80.864 130.198 81.008 130.166 81.232C130.31 81.392 130.382 81.616 130.382 81.904C130.382 82.432 130.438 82.728 130.55 82.792C130.646 82.856 130.814 82.928 131.054 83.008ZM130.598 85.696H131.726C132.126 85.696 132.406 85.448 132.566 84.952C132.582 84.92 132.59 84.896 132.59 84.88C132.59 84.848 132.598 84.824 132.614 84.808C132.55 84.28 132.326 83.984 131.942 83.92H130.598C130.134 83.92 129.814 84.088 129.638 84.424C129.622 84.488 129.598 84.552 129.566 84.616C129.55 84.664 129.526 84.728 129.494 84.808C129.494 85.144 129.726 85.4 130.19 85.576C130.334 85.64 130.47 85.68 130.598 85.696ZM130.598 88.6H131.726C131.742 88.584 131.766 88.56 131.798 88.528C131.83 88.512 131.862 88.488 131.894 88.456C132.07 88.312 132.158 88.136 132.158 87.928C132.318 87.768 132.398 87.472 132.398 87.04C131.95 86.592 131.206 86.368 130.166 86.368C129.974 86.4 129.75 86.544 129.494 86.8C129.19 87.424 129.246 87.92 129.662 88.288C129.918 88.496 130.23 88.6 130.598 88.6Z" fill="#FFF9E5"/>
</g>
</g>
<defs>
<filter id="filter0_d_1236_205980" x="0" y="0" width="179" height="107" filterUnits="userSpaceOnUse" color-interpolation-filters="sRGB">
<feFlood flood-opacity="0" result="BackgroundImageFix"/>
<feColorMatrix in="SourceAlpha" type="matrix" values="0 0 0 0 0 0 0 0 0 0 0 0 0 0 0 0 0 0 127 0" result="hardAlpha"/>
<feOffset dx="2" dy="2"/>
<feGaussianBlur stdDeviation="1"/>
<feComposite in2="hardAlpha" operator="out"/>
<feColorMatrix type="matrix" values="0 0 0 0 0.345098 0 0 0 0 0.235294 0 0 0 0 0.137255 0 0 0 0.25 0"/>
<feBlend mode="normal" in2="BackgroundImageFix" result="effect1_dropShadow_1236_205980"/>
<feBlend mode="normal" in="SourceGraphic" in2="effect1_dropShadow_1236_205980" result="shape"/>
</filter>
<filter id="filter1_d_1236_205980" x="35.0581" y="17.84" width="109.14" height="77.04" filterUnits="userSpaceOnUse" color-interpolation-filters="sRGB">
<feFlood flood-opacity="0" result="BackgroundImageFix"/>
<feColorMatrix in="SourceAlpha" type="matrix" values="0 0 0 0 0 0 0 0 0 0 0 0 0 0 0 0 0 0 127 0" result="hardAlpha"/>
<feOffset dx="2" dy="2"/>
<feGaussianBlur stdDeviation="1"/>
<feComposite in2="hardAlpha" operator="out"/>
<feColorMatrix type="matrix" values="0 0 0 0 0.345098 0 0 0 0 0.235294 0 0 0 0 0.137255 0 0 0 0.25 0"/>
<feBlend mode="normal" in2="BackgroundImageFix" result="effect1_dropShadow_1236_205980"/>
<feBlend mode="normal" in="SourceGraphic" in2="effect1_dropShadow_1236_205980" result="shape"/>
</filter>
</defs>
</svg>
