<svg width="119" height="137" viewBox="0 0 119 137" fill="none" xmlns="http://www.w3.org/2000/svg">
<path d="M82.6626 133.415L86.355 130.371L87.8066 134.507L82.2116 133.937" fill="#B98CA9"/>
<path d="M2.66171 61.6796L2.10503 63.0114C2.28824 64.0614 3.84553 65.1818 4.83206 65.8301L5.76926 66.4713L7.51682 69.1631L7.93961 69.2618C8.41174 68.1555 9.79287 65.8442 10.6455 65.8442H9.10935L7.07288 63.9063L6.66418 63.0255C5.7904 61.9756 6.43165 60.9468 5.79745 59.5304C5.15621 58.114 2.59124 55.535 2.59124 55.535C2.59124 55.535 2.32348 55.2179 2.13322 56.0142C1.94296 56.8175 3.88077 58.7482 3.88077 58.7482L2.12617 58.9667L2.10503 59.5163L1.95 60.3408L1.12555 60.1857V61.0313L2.66876 61.6726L2.66171 61.6796Z" fill="#B98CA9"/>
<path d="M37.1485 91.0072L39.1638 92.2967C39.1638 92.2967 39.4316 91.1481 39.7698 89.6049C40.1997 87.6389 40.7564 85.0105 41.01 83.2982C41.0946 82.7345 41.1439 82.2764 41.151 81.9593C41.1651 81.3956 40.8057 80.7966 40.249 80.1906C38.8608 78.6615 36.2606 77.1254 35.3587 76.1952C34.0973 74.8916 32.7726 74.2715 30.9898 73.75L30.877 73.3977C29.2211 73.9544 27.4453 74.5111 26.3883 74.3913C25.43 74.2856 23.0623 73.5457 21.6107 72.9185C20.3423 72.4605 18.7216 71.6361 17.5378 70.6989C17.1432 70.3888 16.7908 70.0647 16.516 69.7405C15.4168 68.4299 11.6468 65.8438 10.6462 65.8438C9.79357 65.8438 8.41244 68.155 7.94032 69.2614C7.85575 69.4657 7.79234 69.6207 7.78529 69.7194C7.70073 70.3395 7.20747 78.8095 7.75711 79.7256C8.30674 80.6416 16.5372 81.1913 17.8901 81.5718L19.0528 81.7057C18.933 82.5301 18.8626 83.1995 19.236 84.637C19.8773 87.0963 20.6947 90.9578 21.5614 90.9649C22.4281 90.9719 29.51 90.1616 30.1583 90.2532C30.6868 90.3237 34.9922 91.2186 36.5707 91.1763C36.916 91.1763 37.1274 91.1199 37.1485 91.0072Z" fill="#B98CA9"/>
<path d="M13.8866 123.297V124.241L26.2041 127.659V126.552L25.5629 125.728L18.6642 124.178L14.7675 123.304L13.8866 123.297Z" fill="#B98CA9"/>
<path d="M14.7684 123.302L18.6652 124.176L18.8555 123.309L17.2207 121.533C16.8401 121.568 16.5371 121.632 16.368 121.738C15.5295 122.28 14.7614 123.302 14.7614 123.302H14.7684Z" fill="#B98CA9"/>
<path d="M20.1584 99.5917C19.2001 99.3239 16.2264 108.365 16.4096 110.916C16.5928 113.466 17.5019 113.875 17.5019 113.875L18.1501 113.932L23.6958 114.432L34.9915 115.44L40.0792 115.898L41.4814 116.024C41.4814 116.024 38.3175 105.807 37.1266 102.262C35.9851 98.8729 37.0421 97.7525 37.1266 97.668C33.8077 98.1471 20.4121 98.3374 20.4121 98.3374L20.1584 99.5917Z" fill="#B98CA9"/>
<path d="M19.5588 58.6649C19.4743 58.7071 19.3827 58.7494 19.2981 58.7917C18.0086 59.4329 15.9721 64.1894 16.6627 64.7038C16.867 64.8588 17.311 65.1477 17.924 65.4719C18.6428 65.8665 19.5941 66.3034 20.6581 66.6346C21.6376 66.9446 22.7157 67.1631 23.7868 67.1701C24.3787 67.1701 24.9777 67.1278 25.5484 67.0574C27.5779 66.8107 29.2761 66.2188 29.2761 65.9863C29.2761 65.9299 29.1704 65.8947 28.9379 65.8947C28.353 65.8947 28.8322 65.3591 29.262 64.2881L28.3037 63.9639C28.1627 63.675 28.0289 63.4072 27.9161 63.1465L26.9225 63.3227C26.7182 63.0831 25.7739 62.7026 24.6606 62.2868L24.7733 61.9274C24.7733 61.9274 25.0975 60.0953 26.4293 60.2644L26.9507 60.2363C26.8591 59.4682 27.0282 59.137 27.0282 58.8058C27.0282 58.1857 28.9167 57.6783 29.5791 58.1646C29.3395 57.925 29.0436 57.6361 28.7265 57.326C27.5426 56.1563 25.9994 54.6765 25.4498 54.296C24.5126 53.6547 20.5947 56.2126 19.2981 58.1364L19.5588 58.6578V58.6649Z" fill="#B98CA9"/>
<path d="M17.2271 121.534L18.8619 123.309L18.6716 124.176L25.5773 125.726C25.5773 125.726 25.5773 124.507 25.7676 123.775L25.6266 120.766L23.6747 114.783L23.7029 114.438L18.1572 113.938L18.0797 114.769L21.5678 121.752C21.5678 121.752 18.7703 121.4 17.2341 121.534H17.2271Z" fill="#B98CA9"/>
<path d="M17.9109 70.087L17.5374 70.7071C18.7212 71.6443 20.3349 72.4687 21.6104 72.9268C21.0537 72.6801 20.6309 72.4547 20.4758 72.2855C19.9121 71.6654 20.4899 67.1627 20.4899 67.1627L20.6591 66.6412C19.595 66.31 18.6437 65.8731 17.925 65.4785C17.9954 66.5144 17.2062 68.5156 17.9109 70.094V70.087Z" fill="#B98CA9"/>
<path d="M37.1273 97.6662C37.5924 97.5957 37.8672 97.5252 37.8672 97.4407C37.8672 96.7924 37.1484 92.9027 37.1484 92.9027L36.3874 92.5433C36.1971 93.0788 35.9435 93.5791 35.9435 93.5791L21.5684 90.9648C21.5684 90.9648 19.4685 92.2473 19.6658 93.5369C19.8561 94.8193 20.4127 98.3356 20.4127 98.3356C20.4127 98.3356 33.8083 98.1453 37.1273 97.6662Z" fill="#B98CA9"/>
<path d="M20.4896 67.1633C20.4896 67.1633 19.9118 71.666 20.4756 72.2861C20.6306 72.4623 21.0534 72.6878 21.6101 72.9274C23.0617 73.5616 25.4223 74.2944 26.3877 74.4001C27.4446 74.5199 29.2204 73.9562 30.8763 73.4066C31.3062 73.2656 31.729 73.1176 32.1306 72.9838C34.0614 72.3496 35.3721 72.3214 35.3721 72.3214C35.3721 72.3214 34.0685 69.7705 34.3574 69.235L33.8923 68.7981C33.7795 68.9179 33.6245 69.0306 33.4343 69.1222C32.1447 69.7635 25.5773 67.2971 25.5773 67.2971L25.5491 67.0576C24.9783 67.128 24.3794 67.1703 23.7875 67.1703C22.7164 67.1703 21.6382 66.9448 20.6588 66.6348L20.4896 67.1562V67.1633Z" fill="#B98CA9"/>
<path d="M21.5606 90.9651L35.9357 93.5794C35.9357 93.5794 36.1894 93.0791 36.3796 92.5435C36.4924 92.2194 36.584 91.8952 36.584 91.6486L36.5699 91.1765C34.9915 91.2188 30.686 90.3238 30.1575 90.2534C29.5092 90.1618 22.4344 90.9651 21.5606 90.9651Z" fill="#B98CA9"/>
<path d="M24.7674 61.9263L24.6546 62.2857C25.768 62.7015 26.7122 63.082 26.9166 63.3216L27.9102 63.1454C27.2689 61.7431 27.0223 60.8482 26.9518 60.2422L26.4304 60.2704C25.0986 60.1013 24.7744 61.9334 24.7744 61.9334L24.7674 61.9263Z" fill="#B98CA9"/>
<path d="M25.549 67.056L25.5771 67.2955C25.5771 67.2955 32.1446 69.7619 33.4341 69.1206C33.6244 69.029 33.7723 68.9163 33.8921 68.7965C34.5475 68.0989 34.1247 66.9503 34.3643 65.5198L34.2233 65.2168C33.272 65.6748 32.2714 65.9003 31.5104 65.9003H30.3759L29.2766 65.9849C29.2766 66.2174 27.5784 66.8023 25.549 67.056Z" fill="#B98CA9"/>
<path d="M29.2561 64.295C28.8333 65.3661 28.3471 65.9016 28.932 65.9016C29.1716 65.9016 29.2702 65.9368 29.2702 65.9932L30.3695 65.9016C30.8628 65.2604 31.0107 63.3366 31.0107 63.3366L29.6367 62.8857C29.693 62.4488 30.2215 58.9043 29.6648 58.2631C29.6507 58.249 29.6296 58.2349 29.6155 58.2138C29.6014 58.1926 29.5873 58.1856 29.5662 58.1715C28.8968 57.6923 27.0153 58.1926 27.0153 58.8127C27.0153 59.1439 26.8462 59.4751 26.9378 60.2432C27.0083 60.8562 27.2549 61.7441 27.8961 63.1464C28.0089 63.4071 28.1428 63.6749 28.2837 63.9638L29.242 64.2879L29.2561 64.295Z" fill="#B98CA9"/>
<path d="M29.6714 58.2556C30.228 58.9039 29.6925 62.4413 29.6432 62.8782L31.0173 63.3292L31.5176 62.6809C32.1588 61.3984 31.0666 60.8699 33.8641 60.4964C34.0543 60.4753 34.2305 60.4471 34.3926 60.426L34.3714 60.2709C34.3714 60.2709 34.1741 59.2703 33.0255 58.1147C31.8769 56.959 28.8469 57.2057 28.8469 57.2057L28.7271 57.3255C29.0442 57.6285 29.3331 57.9174 29.5797 58.164C29.5938 58.1781 29.615 58.1851 29.6291 58.2063C29.6432 58.2063 29.6502 58.2204 29.6573 58.2274C29.6643 58.2345 29.6714 58.2415 29.6714 58.2486V58.2556Z" fill="#B98CA9"/>
<path d="M30.3763 65.9005H31.5108C32.2789 65.9005 33.2724 65.675 34.2237 65.217C34.872 64.9069 35.4921 64.4982 36.0136 63.9838C37.3101 62.6943 37.3101 62.0601 37.1481 61.13C37.0071 60.2703 36.7041 60.1434 34.3999 60.4323C34.2308 60.4464 34.0617 60.4746 33.8714 60.5028C31.0739 60.8763 32.1661 61.4048 31.5249 62.6873L31.0246 63.3356C31.0246 63.3356 30.8766 65.2593 30.3833 65.9005H30.3763Z" fill="#B98CA9"/>
<path d="M38.8742 122.323C38.1554 123.309 35.8582 125.304 35.8582 126.389L35.8935 126.487C36.4783 127.326 46.1322 122.069 46.4141 121.921L43.5884 119.976L39.9594 117.01L40.058 115.903L34.9704 115.445L34.914 116.009C35.1395 117.01 37.6904 119.293 39.0715 120.47L38.4021 122.147L38.8531 122.33L38.8742 122.323Z" fill="#B98CA9"/>
<path d="M35.8938 126.487L36.4998 128.319L47.4502 123.845L46.809 122.555L46.4214 121.914C46.1395 122.062 36.4857 127.319 35.9008 126.48L35.8938 126.487Z" fill="#B98CA9"/>
<path d="M39.7697 89.6063L40.2418 89.705C40.4391 89.8177 41.6793 91.6428 43.6453 91.0297C45.3929 90.4801 45.1533 85.9139 45.0758 84.8639L43.448 84.9344C43.448 84.9344 41.6089 83.4899 41.1508 83.3066H41.0099C40.7492 85.0119 40.1995 87.6333 39.7697 89.6063Z" fill="#B98CA9"/>
<path d="M40.4815 80.0779L40.256 80.1906C40.8056 80.7966 41.172 81.3956 41.1579 81.9593C41.1579 82.2694 41.1016 82.7344 41.017 83.2982H41.1579C41.616 83.4814 43.4551 84.9259 43.4551 84.9259L45.0829 84.8555C45.0688 84.7145 45.0688 84.6441 45.0688 84.6441L46.6543 79.4578L46.2104 77.5129L42.9126 80.0779L45.0124 76.7871L41.9824 80.7191L42.0951 80.4725L41.172 80.0708H40.4956L40.4815 80.0779Z" fill="#B98CA9"/>
<path d="M42.0802 80.4797L41.9675 80.7263L44.9975 76.7943L42.8976 80.0851L46.1954 77.5201L46.9424 76.8014C46.0052 75.1102 45.1385 73.4542 44.4479 72.0449L43.6939 72.3409C41.7843 73.0033 40.0931 74.772 40.2904 76.7873C40.4806 78.7956 40.4806 80.0851 40.4806 80.0851H41.1571L42.0802 80.4868V80.4797Z" fill="#B98CA9"/>
<path d="M84.7409 33.2389L83.6558 30.998L83.0709 31.287C83.0709 31.287 81.1331 34.5002 77.9128 36.4239C74.6854 38.3477 73.403 38.9889 70.8309 38.3336C68.2589 37.6853 62.065 33.718 62.065 33.718L60.4161 33.1754L59.5071 35.9166C56.9844 39.2426 51.2907 49.6363 50.2055 51.7996C48.909 54.3716 47.7604 55.8867 48.007 58.0288C48.2536 60.171 45.6675 65.1247 44.6951 66.4988C43.7297 67.8729 42.7996 66.0831 42.9405 68.2605C42.9828 68.8101 43.5606 70.2194 44.4485 72.0516C45.139 73.4679 46.0058 75.1168 46.943 76.808C49.6418 81.6843 52.8973 86.8424 53.9755 87.2018C55.9062 87.843 57.1324 87.2088 57.1324 87.2088L63.7773 70.1208L64.1155 63.4618L63.3122 63.4195C63.3122 63.4195 61.7549 63.4124 61.9875 62.5316C62.22 61.6437 61.1348 55.6894 62.0086 54.2096C62.8894 52.7227 63.7139 51.1936 65.0034 51.2007L66.0886 51.2641C66.2436 48.5089 66.448 46.2258 66.448 46.2258C67.5966 45.4084 85.6077 45.4577 86.8902 46.7472C87.2918 47.1489 87.8133 50.2846 88.2924 54.4703L90.7306 55.1186C90.7306 55.1186 90.942 54.8156 91.1393 54.2166C91.4493 53.3217 91.7594 51.7855 91.3789 49.6786L94.4512 49.6081C94.268 49.0162 94.0988 48.4736 93.9579 48.0438C93.373 46.2821 91.7312 42.3783 89.8004 39.454C89.6102 39.1721 89.4199 38.8973 89.2296 38.6295C87.5596 36.3323 85.953 34.3734 84.748 33.253L84.7409 33.2389Z" fill="#B98CA9"/>
<path d="M67.3076 15.6163L68.4633 12.8822C67.519 12.8822 66.3916 12.5862 66.3916 12.5862L65.7503 11.2967C65.7503 11.2967 61.2616 7.42106 58.6826 8.70354L58.5346 8.68944L58.4148 9.90146C57.4283 10.6202 56.4418 11.7195 55.4482 13.1922C54.1587 15.1159 52.2208 19.6187 52.855 21.5495C53.4892 23.4803 56.0612 23.4873 57.3508 23.4873C57.4917 23.4873 57.682 23.5155 57.9286 23.5719C59.8664 24.0299 64.7074 26.1439 66.9976 26.7217C68.5408 27.1093 70.3165 27.5039 71.6272 27.6096C72.501 27.6941 73.1704 27.6448 73.4311 27.3841C74.0794 26.7428 76.6796 20.9576 76.0313 20.3093C75.383 19.6681 81.1401 19.9499 80.1959 18.5195C79.2516 17.1031 80.5341 15.8136 79.2587 14.524C78.3567 13.615 76.8135 12.4241 75.982 11.79L74.6995 10.2749L74.5022 10.3102C74.8898 12.6355 74.8475 15.9404 72.8251 16.4407C70.7675 16.9481 68.7169 16.2293 67.3217 15.5881L67.3076 15.6163Z" fill="#B98CA9"/>
<path d="M60.5075 128.723C59.676 128.095 58.4569 127.165 57.8439 126.637H56.6671C56.6671 126.637 56.7094 126.806 56.801 127.067C57.0053 127.651 57.4845 128.673 58.3794 129.343C59.683 130.308 69.2946 131.626 69.4637 131.626C69.5553 131.626 71.5284 130.66 73.29 129.801L73.1491 129.519C71.4861 130.28 61.7336 129.66 61.346 129.357C61.2474 129.279 60.9233 129.04 60.5075 128.73V128.723Z" fill="#B98CA9"/>
<path d="M56.8077 127.066L56.6668 127.088C56.6668 127.088 57.0755 129.667 57.0684 130.301C57.0684 130.59 59.4924 131.266 62.1843 131.929C62.4168 131.985 62.6493 132.048 62.8889 132.105C63.8261 132.323 64.7704 132.549 65.6371 132.746C66.0599 132.845 66.4686 132.929 66.8491 133.021C68.2796 133.338 69.2943 133.556 69.2943 133.556L73.3461 131.64L76.0449 130.357V129.166L75.7701 128.567C75.3121 128.8 74.3326 129.286 73.2897 129.808C71.528 130.674 69.555 131.633 69.4634 131.633C69.2943 131.633 59.6827 130.315 58.3791 129.35C57.4842 128.68 57.005 127.651 56.8006 127.073L56.8077 127.066Z" fill="#B98CA9"/>
<path d="M57.5759 126.219C57.3574 126.156 57.5054 126.332 57.8436 126.635C58.4496 127.164 59.6687 128.094 60.5073 128.721C60.8103 128.39 61.1626 127.77 61.3528 126.642C61.4374 126.135 61.4656 125.796 61.4444 125.578C61.219 125.578 60.9935 125.585 60.7821 125.578C60.4791 125.564 60.2042 125.543 59.9506 125.486C58.3158 125.162 58.3721 126.445 57.5688 126.219H57.5759Z" fill="#B98CA9"/>
<path d="M58.8163 5.77388L58.5274 8.69822L58.6754 8.71232C61.2544 7.42983 65.7431 11.3055 65.7431 11.3055L66.9622 10.6783C66.9622 10.6783 68.5054 8.27543 69.8936 6.95066C69.8936 6.95066 66.4125 3.58239 63.1993 2.92705C60.5427 2.39151 59.1968 4.92829 58.8233 5.77388H58.8163Z" fill="#B98CA9"/>
<path d="M57.9285 23.5938C57.9285 23.5938 59.2744 28.012 61.1136 28.6603C61.473 28.7871 61.8676 28.8646 62.2622 28.9069C63.9182 29.0901 65.701 28.6744 65.701 28.6744L66.7368 29.7172C67.0609 30.0414 67.3921 30.3726 67.6317 30.6122V31.5212C69.2102 31.493 70.7886 31.3732 71.6131 31.338C72.3529 31.3027 73.7764 30.6967 75.2139 29.985H72.7757L71.6271 27.6667V27.6315C70.3165 27.5258 68.5407 27.1311 66.9975 26.7436C64.7074 26.1658 59.8664 24.0518 57.9285 23.5938Z" fill="#B98CA9"/>
<path d="M76.7149 121.463L80.1113 121.308L80.0902 120.886C75.7283 120.118 75.3478 117.313 75.3478 117.313L72.346 121.027C72.346 121.027 66.1661 101.374 65.8138 99.1186C65.4544 96.8637 64.2847 84.6379 65.7363 83.4188L66.448 80.7975L63.4884 79.9941L63.2699 80.7763C61.7056 84.6308 59.1054 95.7856 59.7396 99.8585C60.3738 103.931 62.8542 110.689 62.5723 112.465C62.2764 114.234 61.7831 121.527 61.3744 123.028C61.1912 123.697 64.3974 123.422 68.0123 122.915C69.781 122.668 71.6484 122.358 73.2691 122.084C74.6854 121.837 75.9116 121.611 76.7078 121.463H76.7219H76.7149Z" fill="#B98CA9"/>
<path d="M75.2139 29.9839C73.7764 30.6956 72.3529 31.3016 71.613 31.3369C70.7886 31.3721 69.2031 31.4919 67.6317 31.5201C65.7785 31.5412 63.9463 31.4496 63.3967 30.9211C63.3403 30.8648 63.284 30.8084 63.2276 30.7591C62.5863 30.1671 62.2552 30.0121 62.1283 29.9698C62.079 29.9557 62.0578 29.9557 62.0578 29.9557L61.0431 31.2382L60.4019 33.176L62.0508 33.7186C62.0508 33.7186 68.2448 37.6859 70.8168 38.3342C73.3888 38.9824 74.6783 38.3412 77.8986 36.4245C81.1189 34.5008 83.0567 31.2875 83.0567 31.2875L83.6416 30.9986L83.0638 29.8078L83.1413 29.6668L79.3995 27.6797C79.3995 27.6797 77.2997 28.934 75.2139 29.9769V29.9839Z" fill="#B98CA9"/>
<path d="M61.3522 126.642C61.162 127.77 60.8096 128.383 60.5066 128.721C60.9294 129.031 61.2465 129.271 61.3452 129.348C61.7328 129.651 71.4853 130.271 73.1483 129.51C73.2328 129.468 73.2962 129.426 73.3385 129.376C73.6486 129.01 73.7965 128.122 73.8247 127.093C73.8811 125.437 73.6415 123.415 73.3526 122.619L73.254 122.076C71.6332 122.351 69.7659 122.661 67.9972 122.901C67.8563 123.07 65.4322 125.804 64.9178 125.494C64.5303 125.254 62.9166 125.536 61.4438 125.571C61.4579 125.79 61.4368 126.128 61.3522 126.635V126.642Z" fill="#B98CA9"/>
<path d="M61.3396 131.928V134.528L62.4741 135.352L62.8828 132.104C62.6503 132.048 62.4107 131.984 62.1782 131.928H61.3326H61.3396Z" fill="#B98CA9"/>
<path d="M62.0089 54.2042C61.1351 55.691 62.2203 61.6384 61.9877 62.5262C61.7552 63.4071 63.3125 63.4141 63.3125 63.4141L64.1158 63.4564L64.3413 59.1298L65.9902 58.9395C65.8422 56.9806 65.9409 53.9012 66.0889 51.2587L65.0037 51.1953C63.7142 51.1953 62.8827 52.7244 62.0089 54.2042Z" fill="#B98CA9"/>
<path d="M62.2619 28.9076L62.1351 29.9716C62.2619 30.0139 62.5931 30.1689 63.2344 30.7608L63.3894 30.5987L66.4829 29.7743L66.7295 29.7109L65.6936 28.668C65.6936 28.668 63.9038 29.0837 62.2549 28.9005L62.2619 28.9076Z" fill="#B98CA9"/>
<path d="M62.8895 132.104L62.4808 135.352L65.6377 133.548V132.745C64.778 132.547 63.8338 132.322 62.8966 132.104H62.8895Z" fill="#B98CA9"/>
<path d="M63.3896 30.5976L63.2345 30.7597C63.2839 30.809 63.3402 30.8654 63.4037 30.9218C63.9462 31.4503 65.7784 31.5419 67.6387 31.5207V30.6117C67.392 30.3721 67.0609 30.0409 66.7367 29.7168L66.4901 29.7802L63.3966 30.6047L63.3896 30.5976Z" fill="#B98CA9"/>
<path d="M63.7777 70.1154L63.2703 79.9383L63.4817 79.9947L66.4413 80.798L68.21 81.2772C68.1747 78.374 67.5476 63.4281 67.5476 63.4281C67.5476 63.4281 67.5476 62.1386 66.406 60.7857C66.1946 60.532 66.0607 59.8626 65.9832 58.9395L64.3343 59.1297L64.1088 63.4563L63.7706 70.1154H63.7777Z" fill="#B98CA9"/>
<path d="M68.4635 12.8818L67.3079 15.6159C68.7031 16.2501 70.7537 16.9759 72.8113 16.4685C74.8407 15.9682 74.876 12.6633 74.4884 10.338C74.3897 9.71786 74.2559 9.16118 74.1149 8.75248C73.4737 6.82171 72.8324 6.82171 71.55 6.17342C71.1413 5.96907 70.5282 6.34254 69.887 6.9556C68.4988 8.28036 66.9556 10.6832 66.9556 10.6832L65.7365 11.3104L66.3777 12.5999C66.3777 12.5999 67.5052 12.8888 68.4495 12.8959L68.4635 12.8818Z" fill="#B98CA9"/>
<path d="M85.6919 85.1658L85.8258 84.0524L85.8399 83.8974C80.5902 83.5098 68.1459 82.5092 68.2022 81.7129C68.2022 81.6425 68.2022 81.4945 68.2022 81.276L66.4336 80.7969L65.7218 83.4182C64.2702 84.6373 65.4329 96.8631 65.7994 99.1181C66.1587 101.373 72.3316 121.026 72.3316 121.026L75.3334 117.312C75.3334 117.312 75.7139 120.117 80.0758 120.885C80.5268 120.963 81.02 121.019 81.5626 121.047C81.9572 121.068 82.38 121.089 82.824 121.111C85.2057 121.209 88.2217 121.28 91.0262 121.301C95.3246 121.343 99.1439 121.273 99.5244 121.089C100.208 120.758 92.3439 114.621 90.8218 112.528C89.2927 110.435 83.5427 95.63 82.9015 94.9817C82.3025 94.3686 85.8469 87.2375 85.6919 85.1658Z" fill="#B98CA9"/>
<path d="M65.6374 133.542V135.768L66.8353 136.177L66.8564 133.013C66.4759 132.929 66.0672 132.837 65.6444 132.738V133.542H65.6374Z" fill="#B98CA9"/>
<path d="M66.0882 51.2584C65.9403 53.9009 65.8346 56.9802 65.9896 58.9392C66.0671 59.8623 66.201 60.5317 66.4124 60.7854C67.5539 62.1383 67.5539 63.4279 67.5539 63.4279C67.5539 63.4279 68.1811 78.3737 68.2163 81.2769C68.2163 81.4954 68.2163 81.6433 68.2163 81.7138C68.1599 82.5101 80.6042 83.5107 85.854 83.8983C87.2562 83.9969 88.1371 84.0603 88.1371 84.0603L88.6162 82.4114V82.3973L89.5957 78.3103V78.2892C89.8212 76.0977 89.6873 71.5808 89.3702 66.627C89.1095 62.5048 88.7149 58.0936 88.2991 54.4646C87.82 50.2789 87.2985 47.1502 86.8969 46.7415C85.6144 45.4449 67.6033 45.4027 66.4547 46.2201C66.4547 46.2201 66.2503 48.5032 66.0953 51.2584H66.0882Z" fill="#B98CA9"/>
<path d="M66.8497 133.02L66.8286 136.184L73.1635 132.759V132.28L73.3467 131.639L69.2949 133.555C69.2949 133.555 68.2802 133.337 66.8497 133.02Z" fill="#B98CA9"/>
<path d="M73.1488 129.519L73.2897 129.8C74.3326 129.279 75.3121 128.793 75.7701 128.56C75.9463 128.476 76.0449 128.419 76.0449 128.419C76.0449 128.419 75.1007 127.13 74.6567 127.13L73.8252 127.102C73.7971 128.123 73.6491 129.011 73.339 129.385C73.2967 129.434 73.2333 129.476 73.1488 129.519Z" fill="#B98CA9"/>
<path d="M80.7802 133.851L80.4772 134.231H82.1684L82.4714 134.027L86.3541 131.412L87.8197 130.426L93.8516 126.36L96.6773 124.457C96.6773 124.457 100.842 126.557 101.11 126.748L101.885 126.487L101.483 125.268L96.2686 122.682L92.9849 124.965L81.5201 132.934L80.7731 133.843L80.7802 133.851Z" fill="#B98CA9"/>
<path d="M81.5555 129.991C80.9636 131.767 80.4774 133.599 80.4774 133.599L80.7804 133.845L81.5274 132.936L92.9922 124.967L92.9006 124.826C92.6751 125.051 93.1331 122.028 91.0332 121.922V121.309C88.2357 121.288 85.2198 121.211 82.838 121.119L82.8098 121.908C83.4863 123.297 84.0641 126.242 83.1269 126.7C82.6901 126.911 82.084 128.434 81.5626 129.991H81.5555Z" fill="#B98CA9"/>
<path d="M86.2707 131.668L86.7637 132.322C86.7285 132.231 86.4045 131.421 86.2707 131.668Z" fill="#B98CA9"/>
<path d="M86.3544 131.406L86.9675 132.315L86.9604 134.246H88.109L88.4473 131.35L87.8201 130.42L86.3544 131.406Z" fill="#B98CA9"/>
<path d="M86.3477 134.415L86.7631 134.915C86.9744 134.288 86.3477 134.415 86.3477 134.415Z" fill="#B98CA9"/>
<path d="M86.9609 134.592L94.381 136.248L95.0293 135.55L94.9447 135.536L88.4337 134.592H88.1095H86.9609Z" fill="#B98CA9"/>
<path d="M94.8171 132.831L95.0355 132.816L96.2898 132.013L96.311 131.9L98.2417 132.337L99.5312 131.696L94.3943 130.251V127.172L93.8446 126.348L87.8127 130.414L88.4399 131.344L88.1017 134.24V134.585H88.4258L94.9298 135.529L95.0144 134.93C95.0144 134.93 94.8805 133.57 94.803 132.823L94.8171 132.831Z" fill="#B98CA9"/>
<path d="M90.731 55.1195L88.2929 54.4712C88.7086 58.1002 89.1032 62.5114 89.3639 66.6337L89.7304 66.6125L90.6957 66.8239C90.6957 66.8239 90.8155 66.683 91.0058 66.3025C91.2524 65.8163 91.5907 64.9425 91.9148 63.4979C92.4715 60.933 92.0205 56.4161 91.9359 54.4853L91.1467 54.2246C90.9424 54.8236 90.738 55.1266 90.738 55.1266L90.731 55.1195Z" fill="#B98CA9"/>
<path d="M91.971 39.6231L90.0966 39.2567L89.7936 39.454C91.7244 42.3854 93.3733 46.2892 93.9511 48.0438C94.085 48.4736 94.2612 49.0092 94.4444 49.6081L91.372 49.6786C91.7526 51.7855 91.4425 53.3217 91.1325 54.2166L91.9217 54.4773C92.0062 56.4081 92.4572 60.932 91.9005 63.4899C91.5834 64.9345 91.2382 65.8012 90.9915 66.2945L92.1049 66.823C93.5213 68.2323 98.3834 75.0887 100.187 74.5602C101.984 74.0317 102.252 70.5929 102.907 67.887C103.563 65.1882 103.591 51.9335 102.957 49.3615C102.696 48.2975 102.005 46.4935 101.188 44.6755C100.018 42.0612 98.5948 39.4399 97.8338 39.0594C96.7063 38.4886 93.5776 39.4047 91.964 39.6301L91.971 39.6231Z" fill="#B98CA9"/>
<path d="M99.5459 128.481H99.8701L102.125 127.206L101.885 126.494L101.11 126.755C100.843 126.565 96.678 124.465 96.678 124.465L93.8523 126.367L94.409 127.192V130.271L99.5389 131.716V128.495L99.5459 128.481Z" fill="#B98CA9"/>
<path d="M103.675 34.3958L104.612 34.1633L104.386 33.2754H102.364C101.716 33.2754 99.1438 35.8333 98.4955 37.7641L97.8472 39.0536C98.6083 39.4341 100.032 42.0625 101.201 44.6698C101.201 44.6698 102.336 43.5634 103.47 41.4072C104.598 39.258 104.689 40.5052 104.689 40.5052L105.57 39.5257L104.372 38.666L105.57 37.7852L104.281 36.4886C104.281 36.4886 104.281 35.8474 103.816 35.0018L103.668 34.3958H103.675Z" fill="#B98CA9"/>
<path d="M108.883 1.11473C104.922 2.02374 102.928 8.18952 104.352 12.6853C105.31 15.7153 108.178 19.1188 111.44 19.1752C111.645 19.1752 111.856 19.1681 112.061 19.1399C112.159 19.1259 112.251 19.1188 112.342 19.0977C116.141 18.4141 118.614 13.1433 117.867 8.866C117.092 4.36322 112.638 0.255045 108.883 1.11473Z" fill="#F5CF24"/>
<path d="M111.405 19.789L110.912 21.2265L113.329 21.0785L112.343 19.183L112.328 19.1055C112.237 19.1266 112.145 19.1407 112.047 19.1477C111.842 19.1689 111.631 19.183 111.427 19.183L111.405 19.796V19.789Z" fill="#F5CF24"/>
<path d="M58.6754 8.71135C61.2544 7.42887 65.7431 11.3045 65.7431 11.3045L66.3844 12.594C66.3844 12.594 67.5118 12.8829 68.4561 12.89C68.9282 12.89 69.358 12.8195 69.5835 12.6081C70.2459 11.9669 69.5835 10.2052 69.5835 10.2052" stroke="#4F4131" stroke-linecap="round" stroke-linejoin="round"/>
<path d="M66.9618 10.6762C66.9618 10.6762 68.505 8.27327 69.8931 6.9485C70.5344 6.3425 71.1474 5.96903 71.5561 6.16633C72.8386 6.81462 73.4869 6.81462 74.1211 8.74539C74.255 9.15409 74.3889 9.71077 74.4946 10.3309C74.8821 12.6563 74.8399 15.9611 72.8175 16.4614C70.7599 16.9688 68.7093 16.25 67.3141 15.6088C66.9618 15.4467 66.6447 15.2846 66.391 15.1578C65.1085 14.5095 64.4673 13.22 64.4673 13.22" stroke="#4F4131" stroke-linecap="round" stroke-linejoin="round"/>
<path d="M58.6826 6.08275C58.6826 6.08275 58.7319 5.97 58.8165 5.77974C59.19 4.93415 60.5429 2.39737 63.1924 2.93291C66.4057 3.58825 69.8867 6.95652 69.8867 6.95652" stroke="#4F4131" stroke-linecap="round" stroke-linejoin="round"/>
<path d="M64.2637 15.6602L59.9371 20.2968" stroke="#4F4131" stroke-linecap="round" stroke-linejoin="round"/>
<path d="M75.9678 11.8182C75.6157 11.5506 75.3903 11.3887 75.3903 11.3887" stroke="#4F4131" stroke-linecap="round" stroke-linejoin="round"/>
<path d="M59.3238 9.35156C59.0208 9.49954 58.7178 9.6898 58.4148 9.91529C57.4283 10.634 56.4418 11.7333 55.4482 13.2061C54.1587 15.1298 52.2208 19.6326 52.855 21.5633C53.4892 23.4941 56.0612 23.5011 57.3508 23.5011C57.4917 23.5011 57.682 23.5293 57.9286 23.5857C59.8664 24.0437 64.7074 26.1577 66.9976 26.7355C68.5408 27.1231 70.3165 27.5177 71.6272 27.6234C72.501 27.708 73.1704 27.6586 73.4311 27.3979C74.0794 26.7567 76.6796 20.9714 76.0313 20.3231C75.383 19.6819 81.1401 19.9637 80.1959 18.5333C79.2516 17.1169 80.5341 15.8274 79.2587 14.5379C78.3567 13.6289 76.8135 12.438 75.982 11.8038" stroke="#4F4131" stroke-linecap="round" stroke-linejoin="round"/>
<path d="M67.6318 30.6044C67.3923 30.3648 67.054 30.0336 66.7369 29.7094L65.7011 28.6665C65.7011 28.6665 63.9112 29.0823 62.2623 28.8991C61.8677 28.8568 61.4661 28.7793 61.1137 28.6524C59.2746 28.0112 57.9287 23.5859 57.9287 23.5859" stroke="#4F4131" stroke-linecap="round" stroke-linejoin="round"/>
<path d="M71.6274 27.666L72.776 29.9773L75.2141 29.9843H75.5664" stroke="#4F4131" stroke-linecap="round" stroke-linejoin="round"/>
<path d="M60.5494 31.8802L61.0567 31.239L62.0714 29.9565C62.0714 29.9565 62.0926 29.9565 62.1419 29.9706C62.2687 30.0129 62.5999 30.1679 63.2412 30.7598C63.2905 30.8091 63.3469 30.8655 63.4103 30.9219C63.9529 31.4504 65.785 31.542 67.6453 31.5209C69.2167 31.4927 70.8022 31.3729 71.6266 31.3376C72.3665 31.3024 73.7899 30.6964 75.2274 29.9847C77.3132 28.9418 79.4131 27.6875 79.4131 27.6875L83.1549 29.6746L83.7891 30.0129" stroke="#4F4131" stroke-linecap="round" stroke-linejoin="round"/>
<path d="M83.0645 31.2871C83.0645 31.2871 81.1266 34.5004 77.9063 36.4241C74.679 38.3478 73.3965 38.989 70.8245 38.3337C68.2525 37.6854 62.0585 33.7182 62.0585 33.7182" stroke="#4F4131" stroke-linecap="round" stroke-linejoin="round"/>
<path d="M60.5432 34.8887C60.3388 34.9169 59.9794 35.2903 59.5073 35.9104C56.9846 39.2364 51.291 49.6302 50.2058 51.7935C48.9092 54.3655 47.7606 55.8805 48.0072 58.0227C48.2539 60.1648 45.6678 65.1186 44.6953 66.4927C43.73 67.8668 42.7998 66.0769 42.9407 68.2543C42.983 68.804 43.5608 70.2133 44.4487 72.0454C45.1393 73.4618 46.006 75.1107 46.9432 76.8019C49.6421 81.6781 52.8976 86.8362 53.9757 87.1956C55.9065 87.8369 57.1326 87.2027 57.1326 87.2027L63.7776 70.1147L64.1299 69.1986" stroke="#4F4131" stroke-linecap="round" stroke-linejoin="round"/>
<path d="M88.6028 82.4033L88.793 81.7695" stroke="#4F4131" stroke-linecap="round" stroke-linejoin="round"/>
<path d="M89.582 78.2892C89.8075 76.0977 89.6736 71.5808 89.3565 66.627C89.0958 62.5048 88.7012 58.0936 88.2855 54.4646C87.8063 50.2789 87.2848 47.1502 86.8832 46.7415C85.6007 45.4449 67.5896 45.4027 66.441 46.2201C66.441 46.2201 66.2366 48.5032 66.0816 51.2584C65.9336 53.9009 65.8279 56.9802 65.983 58.9392C66.0605 59.8623 66.1944 60.5317 66.4058 60.7854C67.5473 62.1383 67.5473 63.4279 67.5473 63.4279C67.5473 63.4279 68.1745 78.3737 68.2097 81.2769C68.2097 81.4954 68.2097 81.6433 68.2097 81.7138C68.1533 82.5101 80.5976 83.5107 85.8473 83.8982C87.2496 83.9969 88.1304 84.0603 88.1304 84.0603L88.6096 82.4114" stroke="#4F4131" stroke-linecap="round" stroke-linejoin="round"/>
<path d="M89.3424 79.474C89.4481 79.2556 89.5257 78.8609 89.582 78.3184" stroke="#4F4131" stroke-linecap="round" stroke-linejoin="round"/>
<path d="M65.0029 51.1953C63.7134 51.1953 62.8819 52.7244 62.0081 54.2042C61.1343 55.691 62.2195 61.6384 61.987 62.5262C61.7544 63.4071 63.3117 63.4141 63.3117 63.4141" stroke="#4F4131" stroke-linecap="round" stroke-linejoin="round"/>
<path d="M64.3406 59.1367L64.1151 63.4563L63.7769 70.1153L63.2695 79.9453L63.4809 80.0017L66.4405 80.805L68.2021 81.2771" stroke="#4F4131" stroke-linecap="round" stroke-linejoin="round"/>
<path d="M84.7406 33.248C85.9456 34.3755 87.5522 36.3345 89.2222 38.6246C89.4195 38.8924 89.6098 39.1672 89.793 39.4491C91.7238 42.3804 93.3727 46.2843 93.9505 48.0389C94.0844 48.4687 94.2606 49.0043 94.4438 49.6032C95.0921 51.7313 95.8672 54.4795 95.8672 54.4795" stroke="#4F4131" stroke-linecap="round" stroke-linejoin="round"/>
<path d="M83.7758 32.4648C84.0577 32.641 84.3818 32.9017 84.7412 33.247" stroke="#4F4131" stroke-linecap="round" stroke-linejoin="round"/>
<path d="M91.4073 39.6726C91.5623 39.6726 91.7526 39.6585 91.971 39.6233C93.5847 39.3978 96.7134 38.4747 97.8408 39.0525C98.6019 39.433 100.025 42.0614 101.195 44.6686C102.005 46.4937 102.703 48.2976 102.964 49.3546C103.605 51.9266 103.57 65.1813 102.914 67.8802C102.259 70.5861 101.991 74.0318 100.194 74.5533C98.3905 75.0818 93.5213 68.2254 92.1119 66.8161" stroke="#4F4131" stroke-linecap="round" stroke-linejoin="round"/>
<path d="M91.3856 49.6738C91.7661 51.7808 91.4561 53.3169 91.146 54.2118C90.9417 54.8108 90.7373 55.1138 90.7373 55.1138L88.2992 54.4655" stroke="#4F4131" stroke-linecap="round" stroke-linejoin="round"/>
<path d="M91.9281 54.4727C92.0127 56.4034 92.4637 60.9273 91.907 63.4853C91.5899 64.9298 91.2446 65.7966 90.998 66.2898C90.8077 66.6703 90.6879 66.8113 90.6879 66.8113L89.7225 66.5999" stroke="#4F4131" stroke-linecap="round" stroke-linejoin="round"/>
<path d="M111.433 19.1752C108.171 19.1188 105.31 15.7223 104.345 12.6853C102.928 8.18952 104.922 2.02374 108.875 1.11473C112.638 0.255045 117.092 4.36322 117.867 8.866C118.614 13.1433 116.141 18.4141 112.335 19.0977C112.244 19.1188 112.152 19.1329 112.054 19.1399C111.849 19.1611 111.638 19.1752 111.433 19.1752Z" stroke="#4F4131" stroke-linecap="round" stroke-linejoin="round"/>
<path d="M111.405 19.7888L110.912 21.2263L113.336 21.0784L112.349 19.1758" stroke="#4F4131" stroke-linecap="round" stroke-linejoin="round"/>
<path d="M98.4958 37.7633C99.144 35.8325 101.723 33.2676 102.364 33.2676H104.387" stroke="#4F4131" stroke-linecap="round" stroke-linejoin="round"/>
<path d="M103.006 34.5651L103.675 34.3959L104.605 34.1634L105.585 33.9238" stroke="#4F4131" stroke-linecap="round" stroke-linejoin="round"/>
<path d="M103.823 35.002C104.288 35.8475 104.288 36.4888 104.288 36.4888L105.577 37.7854L104.379 38.6662L105.577 39.5259L104.696 40.5054C104.696 40.5054 104.605 39.2581 103.477 41.4073C102.343 43.5565 101.208 44.6699 101.208 44.6699" stroke="#4F4131" stroke-linecap="round" stroke-linejoin="round"/>
<path d="M109.475 19.7812C107.882 21.4372 107.015 23.1495 106.889 24.9182C106.733 26.9899 107.671 27.9976 107.523 30.0693C107.389 31.838 106.529 33.5503 104.937 35.2063" stroke="#4F4131" stroke-linecap="round" stroke-linejoin="round"/>
<path d="M85.6924 85.1676C85.6783 85.0335 85.65 84.9206 85.6077 84.8359" stroke="#4F4131" stroke-linecap="round" stroke-linejoin="round"/>
<path d="M65.7287 83.4258C64.2771 84.6448 65.4398 96.8707 65.8062 99.1256C66.1656 101.381 72.3384 121.034 72.3384 121.034L75.3403 117.32C75.3403 117.32 75.7208 120.124 80.0826 120.893C80.5336 120.97 81.0269 121.026 81.5694 121.055C81.9641 121.076 82.3869 121.097 82.8308 121.118C85.2125 121.217 88.2285 121.287 91.033 121.308C95.3315 121.351 99.1507 121.28 99.5312 121.097C100.215 120.766 92.3508 114.628 90.8287 112.535C89.2996 110.442 83.5495 95.6375 82.9083 94.9893C82.3093 94.3762 85.8538 87.245 85.6988 85.1733" stroke="#4F4131" stroke-linecap="round" stroke-linejoin="round"/>
<path d="M76.7147 121.464C77.3137 121.352 77.666 121.281 77.666 121.281" stroke="#4F4131" stroke-linecap="round" stroke-linejoin="round"/>
<path d="M68.0047 122.915C69.7734 122.669 71.6407 122.366 73.2615 122.091C74.6778 121.844 75.9039 121.619 76.7002 121.471" stroke="#4F4131" stroke-linecap="round" stroke-linejoin="round"/>
<path d="M63.2625 80.7832C61.6982 84.6377 59.098 95.7925 59.7322 99.8654C60.3664 103.938 62.8468 110.696 62.5649 112.472C62.2689 114.24 61.7757 121.534 61.367 123.035C61.1838 123.704 64.39 123.429 68.0049 122.922" stroke="#4F4131" stroke-linecap="round" stroke-linejoin="round"/>
<path d="M43.6943 72.3418C41.7847 73.0042 40.0935 74.7729 40.2908 76.7882C40.4811 78.7965 40.4811 80.086 40.4811 80.086" stroke="#4F4131" stroke-linecap="round" stroke-linejoin="round"/>
<path d="M41.9814 76.7871L41.157 80.0779" stroke="#4F4131" stroke-linecap="round" stroke-linejoin="round"/>
<path d="M43.6868 76.7949L42.0802 80.4803L41.9675 80.7269L44.9975 76.7949L42.8976 80.0857L46.2025 77.5207L46.9424 76.802" stroke="#4F4131" stroke-linecap="round" stroke-linejoin="round"/>
<path d="M29.6225 58.207C29.6225 58.207 29.6507 58.2352 29.6718 58.2563C30.0239 58.6014 30.2422 58.8197 30.2422 58.8197" stroke="#4F4131" stroke-linecap="round" stroke-linejoin="round"/>
<path d="M19.3059 58.1499C20.6025 56.2262 24.5204 53.6612 25.4576 54.3095C26.0072 54.683 27.5504 56.1627 28.7343 57.3395C29.0514 57.6425 29.3403 57.9314 29.5869 58.1781" stroke="#4F4131" stroke-linecap="round" stroke-linejoin="round"/>
<path d="M29.376 63.971C29.3407 64.0838 29.2985 64.1895 29.2632 64.2951C28.8404 65.3662 28.3542 65.9018 28.9391 65.9018C29.1787 65.9018 29.2773 65.937 29.2773 65.9934C29.2773 66.2259 27.5791 66.8108 25.5497 67.0645C24.9789 67.1349 24.3799 67.1772 23.788 67.1772C22.7169 67.1772 21.6388 66.9517 20.6593 66.6417C19.5953 66.3105 18.644 65.8736 17.9252 65.479C17.3122 65.1548 16.8753 64.8659 16.6639 64.7109C15.9733 64.1965 18.0168 59.4471 19.2993 58.7988C19.3839 58.7565 19.4755 58.7142 19.5601 58.672C20.765 58.073 21.97 57.4952 23.2595 57.1992" stroke="#4F4131" stroke-linecap="round" stroke-linejoin="round"/>
<path d="M30.3763 65.9004C30.8696 65.2592 31.0176 63.3354 31.0176 63.3354L29.6435 62.8845C29.6999 62.4476 30.2284 58.9031 29.6717 58.2619C29.6717 58.2478 29.6576 58.2478 29.6576 58.2408C29.6576 58.2337 29.6435 58.2267 29.6294 58.2196C29.6153 58.2055 29.6012 58.1914 29.5801 58.1773C28.9106 57.6982 27.0292 58.1985 27.0292 58.8186C27.0292 59.1498 26.8601 59.481 26.9517 60.249C27.0222 60.8621 27.2688 61.75 27.91 63.1522C28.0228 63.413 28.1567 63.6807 28.2976 63.9696" stroke="#4F4131" stroke-linecap="round" stroke-linejoin="round"/>
<path d="M31.5171 62.6814C32.1584 61.3989 31.0662 60.8704 33.8637 60.497C34.0539 60.4758 34.2301 60.4476 34.3922 60.4265C36.7034 60.1376 36.9994 60.2644 37.1403 61.1241C37.3024 62.0543 37.2954 62.6885 36.0058 63.978C35.4844 64.4924 34.8643 64.9011 34.216 65.2111C33.2647 65.6692 32.2641 65.8947 31.5031 65.8947" stroke="#4F4131" stroke-linecap="round" stroke-linejoin="round"/>
<path d="M26.9092 63.3211C26.7048 63.0816 25.7606 62.701 24.6472 62.2853C22.7799 61.5806 20.4615 60.7632 20.5109 60.2559" stroke="#4F4131" stroke-linecap="round" stroke-linejoin="round"/>
<path d="M26.4229 60.2708C25.091 60.1017 24.7669 61.9338 24.7669 61.9338" stroke="#4F4131" stroke-linecap="round" stroke-linejoin="round"/>
<path d="M34.3643 65.5215C34.1176 66.9519 34.5475 68.0935 33.8921 68.7982C33.7794 68.9179 33.6244 69.0307 33.4341 69.1223C32.1446 69.7635 25.5771 67.2972 25.5771 67.2972" stroke="#4F4131" stroke-linecap="round" stroke-linejoin="round"/>
<path d="M34.3574 69.2338C34.0755 69.7694 35.3721 72.3202 35.3721 72.3202C35.3721 72.3202 34.0614 72.3484 32.1306 72.9826C31.729 73.1165 31.3062 73.2645 30.8763 73.4054C29.2204 73.9621 27.4446 74.5188 26.3877 74.399C25.4293 74.2933 23.0617 73.5534 21.6101 72.9262C21.0534 72.6796 20.6306 72.4541 20.4756 72.285C19.9118 71.6649 20.4896 67.1621 20.4896 67.1621" stroke="#4F4131" stroke-linecap="round" stroke-linejoin="round"/>
<path d="M17.9252 65.4785C17.9956 66.5073 17.2064 68.5086 17.9111 70.087" stroke="#4F4131" stroke-linecap="round" stroke-linejoin="round"/>
<path d="M21.6104 72.9264C20.342 72.4683 18.7212 71.6439 17.5374 70.7067C17.1428 70.3966 16.7905 70.0725 16.5156 69.7483C15.4164 68.4377 11.6464 65.8516 10.6458 65.8516C9.79319 65.8516 8.41206 68.1628 7.93993 69.2692C7.85537 69.4735 7.79195 69.6285 7.78491 69.7272C7.70035 70.3473 7.20709 78.8173 7.75673 79.7334C8.30636 80.6494 16.5368 81.1991 17.8897 81.5796" stroke="#4F4131" stroke-linecap="round" stroke-linejoin="round"/>
<path d="M19.2492 79.3887C19.2492 80.4598 19.1365 81.1221 19.0519 81.707C18.9321 82.5315 18.8617 83.2009 19.2351 84.6384C19.8764 87.0977 20.6938 90.9592 21.5605 90.9662C22.4273 90.9733 29.5091 90.1629 30.1574 90.2545C30.6859 90.325 34.9914 91.2199 36.5698 91.1776C36.9151 91.1776 37.1265 91.1213 37.1476 91.0085C37.2322 90.3602 35.3507 80.7134 35.3507 80.7134" stroke="#4F4131" stroke-linecap="round" stroke-linejoin="round"/>
<path d="M36.5918 91.6484C36.5918 91.8879 36.5001 92.2191 36.3874 92.5433C36.1971 93.0788 35.9435 93.5791 35.9435 93.5791L21.5684 90.9648C21.5684 90.9648 19.4685 92.2473 19.6658 93.5369C19.8561 94.8193 20.4127 98.3356 20.4127 98.3356C20.4127 98.3356 33.8083 98.1453 37.1273 97.6662C37.5924 97.5957 37.8672 97.5252 37.8672 97.4407C37.8672 96.7924 37.1484 92.9027 37.1484 92.9027" stroke="#4F4131" stroke-linecap="round" stroke-linejoin="round"/>
<path d="M30.9898 73.752C32.7726 74.2664 34.0973 74.8865 35.3587 76.1971C36.2606 77.1273 38.8608 78.6634 40.249 80.1925C40.7986 80.7986 41.1651 81.3975 41.151 81.9612C41.151 82.2713 41.0946 82.7364 41.01 83.3001C40.7493 85.0124 40.1997 87.6338 39.7698 89.6068C39.4316 91.1571 39.1638 92.2986 39.1638 92.2986L37.1485 91.0091" stroke="#4F4131" stroke-linecap="round" stroke-linejoin="round"/>
<path d="M9.10254 65.8448L7.06607 63.9141" stroke="#4F4131" stroke-linecap="round" stroke-linejoin="round"/>
<path d="M7.5166 69.1633L5.77609 66.4785" stroke="#4F4131" stroke-linecap="round" stroke-linejoin="round"/>
<path d="M4.83887 65.8382C3.85234 65.1899 2.29504 64.0695 2.11182 63.0195" stroke="#4F4131" stroke-linecap="round" stroke-linejoin="round"/>
<path d="M6.65723 63.0333C5.78345 61.9834 6.42468 60.9546 5.79049 59.5382C5.14925 58.1219 2.58429 55.5428 2.58429 55.5428C2.58429 55.5428 2.31651 55.2257 2.12625 56.022C1.936 56.8253 3.87381 58.756 3.87381 58.756L2.11921 58.9745" stroke="#4F4131" stroke-linecap="round" stroke-linejoin="round"/>
<path d="M3.47949 59.6362L2.09836 59.5234" stroke="#4F4131" stroke-linecap="round" stroke-linejoin="round"/>
<path d="M3.47949 60.6232L1.95038 60.3484L1.12593 60.1934" stroke="#4F4131" stroke-linecap="round" stroke-linejoin="round"/>
<path d="M2.78809 61.7367L2.66125 61.6803L1.12509 61.0391" stroke="#4F4131" stroke-linecap="round" stroke-linejoin="round"/>
<path d="M20.1584 99.5917C19.2001 99.3239 16.2264 108.365 16.4096 110.916C16.5928 113.466 17.5019 113.875 17.5019 113.875L18.1501 113.932L23.6958 114.432L34.9915 115.44L40.0792 115.898L41.4814 116.024C41.4814 116.024 38.3175 105.807 37.1266 102.262C35.9851 98.8729 37.0421 97.7525 37.1266 97.668" stroke="#4F4131" stroke-linecap="round" stroke-linejoin="round"/>
<path d="M34.9348 116.01C35.1602 117.01 37.7111 119.293 39.0922 120.47C39.6067 120.907 39.959 121.189 39.959 121.189" stroke="#4F4131" stroke-linecap="round" stroke-linejoin="round"/>
<path d="M39.0856 121.893C39.0856 121.992 39.001 122.14 38.8742 122.323C38.1554 123.309 35.8582 125.304 35.8582 126.389C35.8582 126.431 35.8723 126.459 35.8935 126.487C36.4784 127.326 46.1322 122.069 46.4141 121.921L43.5884 119.976L39.9594 117.01" stroke="#4F4131" stroke-linecap="round" stroke-linejoin="round"/>
<path d="M46.8021 122.557L47.4434 123.846L36.5 128.321L35.894 126.489L35.8587 126.39" stroke="#4F4131" stroke-linecap="round" stroke-linejoin="round"/>
<path d="M36.486 125.072C37.7966 123.818 39.0791 124.466 39.0791 124.466" stroke="#4F4131" stroke-linecap="round" stroke-linejoin="round"/>
<path d="M25.6124 120.766L25.9365 121.759" stroke="#4F4131" stroke-linecap="round" stroke-linejoin="round"/>
<path d="M23.6614 114.783L25.6133 120.759" stroke="#4F4131" stroke-linecap="round" stroke-linejoin="round"/>
<path d="M25.9365 123.331C25.859 123.423 25.8026 123.585 25.7533 123.775C25.5701 124.508 25.5631 125.727 25.5631 125.727L18.6574 124.177L14.7606 123.303C14.7606 123.303 15.5287 122.281 16.3672 121.739C16.5364 121.633 16.8394 121.57 17.2199 121.534C18.756 121.4 21.5535 121.753 21.5535 121.753L18.0655 114.77" stroke="#4F4131" stroke-linecap="round" stroke-linejoin="round"/>
<path d="M25.5629 125.728L26.2041 126.552V127.659L13.8866 124.241V123.297L14.7675 123.304" stroke="#4F4131" stroke-linecap="round" stroke-linejoin="round"/>
<path d="M16.8542 121.125L17.2277 121.534L18.8555 123.309" stroke="#4F4131" stroke-linecap="round" stroke-linejoin="round"/>
<path d="M99.8701 128.482L102.125 127.206L101.885 126.495L101.484 125.276L96.2693 122.689L92.9856 124.973L81.5207 132.942L80.7738 133.851L80.4708 134.232H82.162L82.465 134.027L86.3477 131.413L87.8133 130.427L93.8452 126.361L96.6709 124.458C96.6709 124.458 100.835 126.558 101.103 126.748" stroke="#4F4131" stroke-linecap="round" stroke-linejoin="round"/>
<path d="M94.4089 127.186L94.3948 130.258L99.5389 131.702L99.5459 128.482V128.137" stroke="#4F4131" stroke-linecap="round" stroke-linejoin="round"/>
<path d="M93.7538 130.398L92.4643 131.04L96.3188 131.906L98.2495 132.343L99.5391 131.702" stroke="#4F4131" stroke-linecap="round" stroke-linejoin="round"/>
<path d="M92.471 130.392L92.8867 128.469" stroke="#4F4131" stroke-linecap="round" stroke-linejoin="round"/>
<path d="M86.9675 132.315L86.9604 134.246H88.109L88.4473 131.35" stroke="#4F4131" stroke-linecap="round" stroke-linejoin="round"/>
<path d="M94.9447 135.536L95.0293 135.55L94.381 136.248L86.9609 134.592H88.1095H88.4337L94.9447 135.536Z" stroke="#4F4131" stroke-linecap="round" stroke-linejoin="round"/>
<path d="M95.0293 134.936C95.0293 134.936 94.8954 133.576 94.8179 132.829C94.7897 132.533 94.7686 132.336 94.7686 132.336" stroke="#4F4131" stroke-linecap="round" stroke-linejoin="round"/>
<path d="M82.7684 134.232C82.7684 134.232 84.967 134.289 86.1367 134.585" stroke="#4F4131" stroke-linecap="round" stroke-linejoin="round"/>
<path d="M82.8034 121.908C83.4798 123.296 84.0577 126.242 83.1205 126.7C82.6836 126.911 82.0776 128.433 81.5561 129.991C80.9642 131.766 80.478 133.599 80.478 133.599" stroke="#4F4131" stroke-linecap="round" stroke-linejoin="round"/>
<path d="M91.0262 121.93C93.1261 122.035 92.6681 125.058 92.8936 124.833" stroke="#4F4131" stroke-linecap="round" stroke-linejoin="round"/>
<path d="M73.3604 122.627C73.6493 123.423 73.8889 125.446 73.8325 127.102C73.8044 128.123 73.6564 129.011 73.3463 129.385C73.304 129.434 73.2406 129.476 73.1561 129.519C71.4931 130.28 61.7406 129.659 61.353 129.356C61.2544 129.279 60.9302 129.039 60.5145 128.729C59.683 128.102 58.4639 127.172 57.8508 126.644C57.5126 126.341 57.3646 126.164 57.5831 126.228C58.3864 126.453 58.33 125.171 59.9648 125.495C60.2185 125.544 60.4933 125.572 60.7963 125.587C61.0077 125.601 61.2332 125.587 61.4587 125.587C62.9314 125.551 64.5381 125.269 64.9327 125.509C65.4471 125.819 67.8641 123.092 68.012 122.923" stroke="#4F4131" stroke-linecap="round" stroke-linejoin="round"/>
<path d="M74.6577 127.136C75.1017 127.136 76.0459 128.425 76.0459 128.425C76.0459 128.425 75.9472 128.475 75.7711 128.566C75.3131 128.799 74.3336 129.285 73.2907 129.806C71.529 130.673 69.556 131.632 69.4644 131.632C69.2953 131.632 59.6837 130.314 58.3801 129.348C57.4851 128.679 57.006 127.65 56.8016 127.072C56.703 126.812 56.6677 126.643 56.6677 126.643H57.8445" stroke="#4F4131" stroke-linecap="round" stroke-linejoin="round"/>
<path d="M76.0518 129.159V130.35L73.3529 131.632L69.3011 133.549C69.3011 133.549 68.2864 133.33 66.8559 133.013C66.4754 132.929 66.0667 132.837 65.6439 132.739C64.7772 132.541 63.8329 132.316 62.8957 132.097C62.6632 132.041 62.4236 131.977 62.1911 131.921C59.4993 131.259 57.0753 130.582 57.0753 130.293C57.0823 129.652 56.6736 127.08 56.6736 127.08" stroke="#4F4131" stroke-linecap="round" stroke-linejoin="round"/>
<path d="M73.1631 132.76L66.8352 136.177L66.8493 133.02" stroke="#4F4131" stroke-linecap="round" stroke-linejoin="round"/>
<path d="M73.1636 132.281L73.3467 131.633" stroke="#4F4131" stroke-linecap="round" stroke-linejoin="round"/>
<path d="M61.3384 131.928V134.528L62.48 135.352L62.8887 132.104" stroke="#4F4131" stroke-linecap="round" stroke-linejoin="round"/>
<path d="M65.637 132.746V133.542L65.63 135.769L66.835 136.178" stroke="#4F4131" stroke-linecap="round" stroke-linejoin="round"/>
<path d="M62.4808 135.352L65.6377 133.541" stroke="#4F4131" stroke-linecap="round" stroke-linejoin="round"/>
<path d="M60.7896 125.579C60.7896 125.579 61.3957 124.755 61.452 125.579C61.4661 125.798 61.445 126.136 61.3604 126.643C61.1702 127.771 60.8178 128.384 60.5148 128.722C60.1766 129.096 59.8736 129.117 59.8736 129.117" stroke="#4F4131" stroke-linecap="round" stroke-linejoin="round"/>
<path d="M80.4777 130.363C80.6328 130.116 81.0626 130.018 81.5488 129.989C82.324 129.933 83.2823 130.032 83.5923 129.912C84.0997 129.729 83.9235 130.144 83.9235 130.144" stroke="#4F4131" stroke-linecap="round" stroke-linejoin="round"/>
<path d="M40.2411 89.7051C40.4384 89.8178 41.6786 91.6429 43.6446 91.0298C45.3922 90.4802 45.1526 85.914 45.0751 84.8641C45.061 84.7231 45.061 84.6527 45.061 84.6527L46.6465 79.4663L46.2026 77.5215" stroke="#4F4131" stroke-linecap="round" stroke-linejoin="round"/>
<path d="M41.1501 83.3066C41.6081 83.4899 43.4473 84.9344 43.4473 84.9344" stroke="#4F4131" stroke-linecap="round" stroke-linejoin="round"/>
</svg>
