<svg width="47" height="127" viewBox="0 0 47 127" fill="none" xmlns="http://www.w3.org/2000/svg">
<path d="M32.5909 55.1123C33.6479 54.5626 35.5223 53.6677 35.5223 53.6677C36.22 53.8439 37.1642 53.9425 38.186 53.5972C40.2436 52.9208 45.0141 44.035 45.7047 42.6679C46.3882 41.3009 44.3376 39.2574 43.1115 37.8833C41.8854 36.5163 29.9908 26.2705 27.6724 25.8195V25.0232C27.6724 25.0232 23.1626 20.1259 21.9153 21.0701C21.5419 21.359 20.8161 22.2962 19.9916 23.473C19.6252 23.9944 19.2376 24.5582 18.8501 25.129C17.5112 27.1372 16.1794 29.2512 15.7707 29.8995L14.7701 29.8713C14.453 29.3005 12.2967 27.3909 10.8522 26.1436C10.0982 25.4883 9.53446 25.0162 9.53446 25.0162C9.53446 25.0162 8.69592 23.4025 9.09757 23.4659C9.4499 23.5294 8.28016 22.6556 8.01239 22.4583C7.9842 22.4371 7.96308 22.423 7.96308 22.423C7.96308 22.423 5.45448 23.015 5.08805 24.6427C4.71458 26.2635 4.74277 29.1737 4.74277 29.1737L5.57427 29.4274L5.44038 29.8643C4.72163 31.0481 1.99459 37.7917 1.30403 41.9351C0.620506 46.0785 1.30403 51.4833 1.30403 51.4833L6.72992 55.9931C6.5749 57.0853 6.53966 57.9661 6.75106 58.3748C7.20909 59.2768 8.75934 61.0525 9.76701 62.1659L9.50626 62.2927V67.9371C9.50626 67.9371 9.92204 68.3528 11.8387 68.7122C12.3743 68.8108 13.0225 68.9095 13.8188 68.987C16.6868 69.283 26.4322 68.4022 30.3713 68.0216C31.4142 67.923 32.0484 67.8596 32.0484 67.8596V64.5195C32.0484 64.5195 33.4154 63.843 33.965 63.1524C34.5076 62.4689 32.7389 57.0078 32.7671 55.528L32.6051 55.0982L32.5909 55.1123ZM31.9215 55.5069L31.9497 55.5351C31.8792 55.5491 31.8793 55.535 31.9215 55.5069ZM31.245 44.4437C31.7876 43.5276 30.7659 39.6097 30.7447 39.4547L34.6979 42.6045L34.2399 43.1824C33.3379 43.4501 32.14 43.887 31.2521 44.4507L31.245 44.4437ZM30.8857 62.8212L29.9978 62.6944V62.7296H29.3143L28.3278 62.8987L28.3771 63.1665H27.2637L25.6712 56.3595C25.6712 56.3595 25.2132 58.3819 24.5367 58.3819C23.8602 58.3819 23.1697 55.6478 24.1914 54.1962C25.2132 52.7376 26.5802 51.5537 27.6795 51.4973L27.905 51.2789L31.4071 54.9643C31.3578 57.0219 31.4494 59.756 31.4071 60.7777C31.3719 61.4824 31.0759 62.3421 30.8857 62.8142V62.8212Z" fill="#719EA4"/>
<path d="M20.8941 19.3008L21.923 18.427V18.3918C22.529 18.4622 23.2266 18.4411 23.7269 18.124C24.8121 17.4405 24.3893 14.6782 23.8467 13.9876C23.6212 13.6987 23.1138 13.4098 22.5924 13.2266L23.1984 11.7257L23.2125 11.7046C23.4591 11.1479 23.748 10.3798 23.5789 10.0838C23.3111 9.59763 22.4796 5.10893 20.6968 3.5164C18.914 1.91682 15.6444 1.00781 13.5939 1.00781C11.5433 1.00781 5.39866 2.37486 5.39866 2.37486C5.39866 2.37486 1.30458 5.10893 1.30458 7.1595C1.30458 9.21006 1.9881 11.2536 2.8196 11.2113L3.48903 11.169C3.98934 13.1843 5.71576 19.78 7.44922 21.5134C7.8086 21.8728 8.23844 22.1688 8.70352 22.4154C9.94372 23.0496 11.4235 23.3174 12.4735 23.4231V23.4935V25.833H11.2896L10.8598 26.1642C12.3043 27.4044 14.4606 29.3211 14.7777 29.8918L15.7783 29.92C16.18 29.2717 17.5118 27.1578 18.8577 25.1495L18.3503 24.8042L18.005 23.4865C18.2728 23.3667 18.5265 23.2469 18.7308 23.1271C18.8718 23.0425 18.9845 22.958 19.0761 22.8734C19.5905 22.359 20.4925 20.2944 20.9012 19.3078L20.8941 19.3008ZM7.6113 14.8544C7.23783 14.8262 6.82207 14.2484 6.94187 13.4873C7.64653 13.1702 8.30891 13.4169 8.4428 13.7692C8.60487 14.192 8.06932 14.9037 7.61834 14.8544H7.6113ZM14.2844 13.2971C14.1083 12.7193 14.4888 12.7475 14.9679 12.6206C15.6444 12.4374 16.5182 12.6206 16.335 13.2971C16.2081 13.7833 15.5458 14.1568 14.9679 13.9806C14.6438 13.882 14.3831 13.6212 14.2844 13.2971Z" fill="#719EA4"/>
<path d="M5.52507 119.989C5.40528 121.222 6.08881 122.596 6.08881 122.596H22.8809L22.4863 116.79V116.776L22.4369 116.057C21.7957 116.444 20.4216 117.128 19.0616 117.128C17.8707 117.128 17.6805 115.803 17.6523 115.465C17.6523 115.416 17.6523 115.395 17.6523 115.395C17.6523 115.395 14.9887 117.368 12.2475 117.593C9.50641 117.819 5.65191 118.763 5.53212 119.996L5.52507 119.989Z" fill="#719EA4"/>
<path d="M6.94136 13.4802C6.82862 14.2413 7.24437 14.8191 7.6108 14.8473C8.06178 14.8895 8.59731 14.1779 8.43524 13.7621C8.30135 13.4098 7.63897 13.1632 6.93431 13.4802H6.94136Z" fill="#4F4131"/>
<path d="M8.70294 22.4023L8.01236 22.4728C8.28013 22.6701 9.45692 23.5439 9.09754 23.4805C8.69589 23.41 9.53443 25.0307 9.53443 25.0307C9.53443 25.0307 10.0982 25.5029 10.8521 26.1582L11.282 25.827H12.4658V23.41C11.4229 23.2973 9.94314 23.0365 8.70294 22.4023Z" fill="#719EA4"/>
<path d="M20.8092 95.1787C22.895 101.034 28.0884 112.901 28.025 113.563C28.0038 113.817 28.8424 113.866 30.0191 113.81C31.7315 113.725 34.1485 113.415 35.593 113.211C36.34 113.105 36.8262 113.035 36.8262 113.035C36.8262 113.035 28.631 92.5432 28.631 91.1762C28.631 89.8092 30.3644 68.0352 30.3644 68.0352C26.4254 68.4157 16.6799 69.2965 13.812 69.0005C13.0157 68.923 12.3604 68.8244 11.8319 68.7257L10.6692 69.064L11.1695 71.6783C10.6551 76.8857 10.3098 90.3306 10.8665 92.5432C11.543 95.2773 17.0111 111.675 17.0111 111.675H23.6561L20.8022 95.1857L20.8092 95.1787Z" fill="#719EA4"/>
<path d="M14.9675 12.6215C14.4812 12.7484 14.1078 12.7272 14.284 13.298C14.3826 13.6221 14.6433 13.8829 14.9675 13.9815C15.5453 14.1577 16.2006 13.7772 16.3345 13.298C16.5177 12.6215 15.651 12.4383 14.9675 12.6215Z" fill="#4F4131"/>
<path d="M22.4438 114.614V111.676H18.3498V115.403L17.6592 115.474C17.6874 115.812 17.8776 117.137 19.0685 117.137C20.4355 117.137 21.8026 116.453 22.4438 116.066L22.4932 116.785L22.4438 114.614Z" fill="#719EA4"/>
<path d="M17.997 23.4793L18.3423 24.797L18.8497 25.1423C19.2443 24.5715 19.6248 24.0078 19.9912 23.4863H18.9483L18.7158 23.127C18.5044 23.2467 18.2577 23.3665 17.99 23.4793H17.997Z" fill="#719EA4"/>
<path d="M28.9837 116.777L28.9625 116.798L23.8467 121.914C23.593 122.167 23.2618 122.414 22.9236 122.66C22.3458 123.097 21.7961 123.527 21.7961 123.964C21.7961 124.648 22.8179 126.036 22.8179 126.036C22.8179 126.036 38.1865 123.281 38.1865 122.597C38.1865 121.914 36.3121 116.058 36.3121 116.058C36.143 115.762 30.0336 116.058 30.0336 116.058V115.332L28.9907 116.777H28.9837Z" fill="#719EA4"/>
<path d="M29.9981 62.6878L30.886 62.8146C31.0763 62.3425 31.3722 61.4828 31.4074 60.7781C31.4497 59.7564 31.3581 57.0152 31.4074 54.9647L27.9053 51.2793L27.6798 51.4977C26.5876 51.5541 25.2135 52.738 24.1917 54.1966C23.1629 55.6552 23.8464 58.3823 24.537 58.3823C25.2276 58.3823 25.6715 56.3599 25.6715 56.3599L27.264 63.1669H28.3774L28.3281 62.8991L29.3146 62.73H29.9981C29.9981 62.73 29.9981 62.7159 29.9981 62.6948V62.6878Z" fill="#719EA4"/>
<path d="M30.0189 113.811L30.033 113.959V116.066C30.033 116.066 36.1424 115.77 36.3115 116.066L36.2552 114.995L35.8676 115.016L35.5857 113.219C34.1412 113.423 31.7242 113.733 30.0119 113.818L30.0189 113.811Z" fill="#719EA4"/>
<path d="M21.1129 13.2954C21.1129 12.9008 21.8599 12.9571 22.5927 13.2249C23.1142 13.4081 23.6215 13.697 23.847 13.9859C24.3826 14.6694 24.8054 17.4317 23.7272 18.1223C23.2269 18.4394 22.5293 18.4676 21.9303 18.3901C21.2539 18.3196 20.7042 18.1223 20.7042 18.1223" stroke="#4F4131" stroke-linecap="round" stroke-linejoin="round"/>
<path d="M21.1123 18.7637C21.1123 18.7637 21.0277 18.9751 20.8939 19.2992C20.4852 20.2857 19.5761 22.3504 19.0688 22.8648C18.9842 22.9493 18.8644 23.0339 18.7235 23.1185C18.5121 23.2383 18.2655 23.3581 17.9977 23.4708C16.9619 23.9006 15.6512 24.2248 15.6512 24.2248" stroke="#4F4131" stroke-linecap="round" stroke-linejoin="round"/>
<path d="M6.76537 5.79102C6.76537 5.79102 5.39832 8.15868 6.76537 9.70188C8.13241 11.2521 9.01323 11.7031 9.01323 11.7031L10.183 9.20158C10.183 9.20158 10.8665 10.5686 11.8882 10.5686H14.418" stroke="#4F4131" stroke-linecap="round" stroke-linejoin="round"/>
<path d="M15.9896 8.74414L18.6109 11.2034L19.069 9.20218L21.4859 11.7037L21.9229 12.3309" stroke="#4F4131" stroke-linecap="round" stroke-linejoin="round"/>
<path d="M6.15966 7.34961L4.65875 11.2041L3.35512 10.5699C3.35512 10.5699 3.40444 10.7813 3.49604 11.1618C3.99635 13.1772 5.72279 19.7728 7.45625 21.5062C7.81563 21.8656 8.24547 22.1616 8.71055 22.4082C9.95075 23.0424 11.4305 23.3102 12.4805 23.4159C13.2767 23.4934 13.8193 23.4863 13.8193 23.4863" stroke="#4F4131" stroke-linecap="round" stroke-linejoin="round"/>
<path d="M23.1982 11.7246C23.0433 12.0697 22.9025 12.3302 22.9025 12.3302" stroke="#4F4131" stroke-linecap="round" stroke-linejoin="round"/>
<path d="M2.82667 11.2035C1.99517 11.2528 1.31165 9.20226 1.31165 7.15169C1.31165 5.10113 5.40572 2.36704 5.40572 2.36704C5.40572 2.36704 11.5504 1 13.6009 1C15.6515 1 18.9211 1.90902 20.7039 3.5086C22.4867 5.10113 23.3182 9.59686 23.586 10.076C23.748 10.372 23.4662 11.1401 23.2195 11.6968" stroke="#4F4131" stroke-linecap="round" stroke-linejoin="round"/>
<path d="M18.0055 23.4785L18.3438 24.7962" stroke="#4F4131" stroke-linecap="round" stroke-linejoin="round"/>
<path d="M12.4668 23.4785V25.825H11.283" stroke="#4F4131" stroke-linecap="round" stroke-linejoin="round"/>
<path d="M15.6511 30.1093C15.6511 30.1093 15.6934 30.0388 15.778 29.905C16.1796 29.2567 17.5114 27.1427 18.8573 25.1344C19.252 24.5636 19.6325 23.9999 19.9989 23.4784C20.8233 22.3017 21.5492 21.3645 21.9226 21.0756C23.1628 20.1243 27.6797 25.0287 27.6797 25.0287V25.825C27.6797 25.825 25.7066 25.374 25.1147 25.825C24.5369 26.2759 16.9477 31.4059 16.9477 31.4059" stroke="#4F4131" stroke-linecap="round" stroke-linejoin="round"/>
<path d="M14.7705 29.876C14.4534 29.3052 12.2972 27.3956 10.8526 26.1483C10.0986 25.493 9.53489 25.0209 9.53489 25.0209C9.53489 25.0209 8.69634 23.4072 9.098 23.4706C9.45033 23.5341 8.28059 22.6603 8.01282 22.463C7.98463 22.4418 7.96351 22.4277 7.96351 22.4277C7.96351 22.4277 5.4549 23.0196 5.08848 24.6474C4.71501 26.2681 4.7432 29.1784 4.7432 29.1784L5.5747 29.4321L12.1562 31.3981" stroke="#4F4131" stroke-linecap="round" stroke-linejoin="round"/>
<path d="M16.6881 32.9707C17.7028 34.4716 18.0059 43.1883 18.0059 43.1883" stroke="#4F4131" stroke-linecap="round" stroke-linejoin="round"/>
<path d="M12.4674 32.9707C11.5513 33.7881 13.4609 43.1883 13.4609 43.1883" stroke="#4F4131" stroke-linecap="round" stroke-linejoin="round"/>
<path d="M27.6802 25.8242C29.9986 26.2752 41.8862 36.528 43.1194 37.888C44.3455 39.255 46.396 41.3056 45.7125 42.6727C45.029 44.0397 40.2514 52.9254 38.1938 53.6019C37.172 53.9472 36.2278 53.8486 35.5302 53.6724C34.8396 53.4892 34.3957 53.2214 34.3957 53.2214" stroke="#4F4131" stroke-linecap="round" stroke-linejoin="round"/>
<path d="M31.9229 55.5054L31.4084 54.9629L27.9063 51.2775L27.6808 51.0379L29.9991 47.4512" stroke="#4F4131" stroke-linecap="round" stroke-linejoin="round"/>
<path d="M31.9222 55.5059C31.8802 55.5339 31.8872 55.5479 31.9502 55.5339L31.9222 55.5059Z" stroke="#4F4131" stroke-linecap="round" stroke-linejoin="round"/>
<path d="M35.5234 53.666C35.5234 53.666 33.649 54.5609 32.592 55.1106C32.2538 55.2867 32.0001 55.4347 31.9226 55.5052" stroke="#4F4131" stroke-linecap="round" stroke-linejoin="round"/>
<path d="M35.5234 42.8359C35.5234 42.8359 34.9879 42.9487 34.241 43.1812C33.339 43.449 32.1411 43.8859 31.2532 44.4496C30.5274 44.9147 29.9989 45.4573 29.9989 46.0915C29.9989 48.142 31.6055 50.0798 31.6055 50.0798" stroke="#4F4131" stroke-linecap="round" stroke-linejoin="round"/>
<path d="M26.715 36.2402L30.7457 39.4535L34.6988 42.6033L34.7764 42.6738" stroke="#4F4131" stroke-linecap="round" stroke-linejoin="round"/>
<path d="M36.1433 41.9904C36.8268 40.6233 41.2803 41.9904 41.2803 41.9904" stroke="#4F4131" stroke-linecap="round" stroke-linejoin="round"/>
<path d="M30.7454 39.4473C30.7665 39.6093 31.7883 43.5272 31.2457 44.4433" stroke="#4F4131" stroke-linecap="round" stroke-linejoin="round"/>
<path d="M27.6797 51.4961C26.5875 51.5525 25.2134 52.7363 24.1916 54.195C23.1628 55.6536 23.8463 58.3806 24.5369 58.3806C25.2275 58.3806 25.6714 56.3582 25.6714 56.3582L27.2639 63.1653" stroke="#4F4131" stroke-linecap="round" stroke-linejoin="round"/>
<path d="M27.6803 59.2324L28.3286 62.8966L28.3779 63.1644" stroke="#4F4131" stroke-linecap="round" stroke-linejoin="round"/>
<path d="M29.3076 58.3809V62.7286" stroke="#4F4131" stroke-linecap="round" stroke-linejoin="round"/>
<path d="M30.7451 58.8379C30.6817 59.6976 30.0757 62.3682 29.9982 62.6924C29.9982 62.7135 29.9982 62.7276 29.9982 62.7276" stroke="#4F4131" stroke-linecap="round" stroke-linejoin="round"/>
<path d="M31.4084 54.9629C31.3591 57.0205 31.4507 59.7546 31.4084 60.7763C31.3732 61.481 31.0772 62.3407 30.887 62.8128C30.8095 63.0242 30.746 63.1581 30.746 63.1581" stroke="#4F4131" stroke-linecap="round" stroke-linejoin="round"/>
<path d="M32.7611 55.541C32.7329 57.0208 34.5016 62.4819 33.959 63.1654C33.4164 63.849 32.0423 64.5325 32.0423 64.5325V67.8726C32.0423 67.8726 31.4081 67.943 30.3652 68.0347C26.4262 68.4152 16.6807 69.296 13.8128 69C13.0165 68.9225 12.3612 68.8239 11.8327 68.7252C9.91598 68.3659 9.50024 67.9501 9.50024 67.9501V62.3058" stroke="#4F4131" stroke-linecap="round" stroke-linejoin="round"/>
<path d="M8.23178 34.9082C8.81665 36.5219 8.33043 46.0841 8.23178 48.1347C8.16131 49.5792 7.10434 53.3915 6.73087 55.9987C6.57585 57.0909 6.54061 57.9717 6.75201 58.3804C7.21004 59.2824 8.76029 61.0582 9.76796 62.1715C10.2965 62.7564 10.6699 63.1651 10.6699 63.1651" stroke="#4F4131" stroke-linecap="round" stroke-linejoin="round"/>
<path d="M5.4419 29.877C4.72315 31.0608 1.99612 37.8044 1.30555 41.9478C0.622031 46.0912 1.30555 51.4959 1.30555 51.4959L6.73145 56.0058" stroke="#4F4131" stroke-linecap="round" stroke-linejoin="round"/>
<path d="M28.3779 65.2358C25.9046 64.5241 20.4364 63.1641 15.997 63.1641H11.5577" stroke="#4F4131" stroke-linecap="round" stroke-linejoin="round"/>
<path d="M20.4297 71.36C19.7532 72.727 20.176 90.3153 19.9646 92.1122C19.9223 92.4927 20.2535 93.6202 20.8102 95.1845C22.896 101.04 28.0894 112.907 28.0259 113.569C28.0048 113.823 28.8433 113.872 30.0201 113.816C31.7325 113.731 34.1494 113.421 35.594 113.217C36.3409 113.111 36.8271 113.041 36.8271 113.041C36.8271 113.041 28.6319 92.5491 28.6319 91.1821C28.6319 89.815 30.3654 68.041 30.3654 68.041" stroke="#4F4131" stroke-linecap="round" stroke-linejoin="round"/>
<path d="M11.55 69.6133C11.4231 69.6837 11.2963 70.4589 11.1765 71.6709C10.6621 76.8783 10.3168 90.3233 10.8735 92.5359C11.55 95.27 17.0181 111.667 17.0181 111.667H23.6631L20.8092 95.1784" stroke="#4F4131" stroke-linecap="round" stroke-linejoin="round"/>
<path d="M35.5931 113.211L35.875 115.008" stroke="#4F4131" stroke-linecap="round" stroke-linejoin="round"/>
<path d="M28.983 116.775L29.3076 116.443" stroke="#4F4131" stroke-linecap="round" stroke-linejoin="round"/>
<path d="M30.0336 113.957V116.064C30.0336 116.064 36.143 115.768 36.3121 116.064C36.3121 116.064 38.1865 121.92 38.1865 122.603C38.1865 123.287 22.8179 126.042 22.8179 126.042C22.8179 126.042 21.7961 124.654 21.7961 123.97C21.7961 123.533 22.3458 123.104 22.9236 122.667C23.2618 122.42 23.593 122.173 23.8467 121.92L28.9625 116.804" stroke="#4F4131" stroke-linecap="round" stroke-linejoin="round"/>
<path d="M18.3438 112.26V115.395" stroke="#4F4131" stroke-linecap="round" stroke-linejoin="round"/>
<path d="M22.4453 115.008V114.613V111.668" stroke="#4F4131" stroke-linecap="round" stroke-linejoin="round"/>
<path d="M22.4939 116.783L22.4445 116.065C21.8033 116.452 20.4292 117.136 19.0692 117.136C17.8783 117.136 17.6881 115.811 17.6599 115.473C17.6599 115.423 17.6599 115.402 17.6599 115.402C17.6599 115.402 14.9963 117.375 12.2552 117.601C9.51402 117.826 5.65953 118.771 5.53974 120.004C5.41995 121.237 6.10346 122.611 6.10346 122.611H22.8955L22.5009 116.805" stroke="#4F4131" stroke-linecap="round" stroke-linejoin="round"/>
<path d="M9.49965 16.0293C9.49965 16.7128 9.49965 18.7634 10.1832 18.7634H11.2754" stroke="#4F4131" stroke-linecap="round" stroke-linejoin="round"/>
<path d="M11.2825 21.5613C11.2825 21.5613 13.6008 22.1814 15.6514 20.1309" stroke="#4F4131" stroke-linecap="round" stroke-linejoin="round"/>
<path d="M14.2851 13.296C14.1089 12.7182 14.4894 12.7464 14.9686 12.6196C15.6451 12.4364 16.5189 12.6196 16.3356 13.296C16.2088 13.7823 15.5464 14.1557 14.9686 13.9796C14.6445 13.8809 14.3838 13.6202 14.2851 13.296Z" stroke="#4F4131" stroke-linecap="round" stroke-linejoin="round"/>
<path d="M6.94212 13.4802C7.64678 13.1632 8.30917 13.4098 8.44305 13.7621C8.60512 14.1849 8.06957 14.8966 7.61859 14.8473C7.24512 14.8191 6.82938 14.2413 6.94918 13.4802H6.94212Z" stroke="#4F4131" stroke-linecap="round" stroke-linejoin="round"/>
</svg>
