<svg width="82" height="135" viewBox="0 0 82 135" fill="none" xmlns="http://www.w3.org/2000/svg">
<path d="M64.1182 24.265L64.8394 54.1754L67.4244 52.5217L67.1013 23.7637" fill="#C67B7B"/>
<path d="M67.7414 39.4868C67.7414 39.4868 70.0436 39.1181 70.6091 39.7692C71.5727 40.8755 70.8572 45.6291 70.8572 45.6291L66.9393 48.804L66.7432 39.4868" fill="#C67B7B"/>
<path d="M40.2192 21.0195C41.3906 20.1725 41.4886 21.7685 41.102 22.1892C40.7097 22.6155 39.8961 22.6501 39.4518 22.4657C39.4518 22.4657 39.0421 21.8665 40.2192 21.0195Z" fill="#4F4131"/>
<path d="M78.578 1.52734L80.6148 2.77193C80.5283 3.7918 80.0494 9.68631 80.0494 11.2651C80.0494 12.6768 80.436 19.378 80.5745 21.7922L78.5549 23.1578L64.2856 26.6438L54.9151 28.9371H54.9035L50.6337 28.7354C50.3856 26.5747 50.0567 20.4612 49.8143 15.5462C49.6355 11.7491 49.5028 8.6722 49.5028 8.6722C49.5028 8.6722 48.8911 8.9603 50.0451 7.80791C50.5702 7.28357 56.6115 5.91797 63.0278 4.59272C64.2625 4.33343 65.5146 4.0799 66.7437 3.8379C72.2425 2.72584 77.2913 1.76935 78.578 1.52734Z" fill="#F5CF24"/>
<path d="M59.2658 45.4216L59.2543 45.122L62.1624 43.5317C62.1624 42.9555 61.5854 41.2269 62.7394 40.6507C63.2068 40.4202 63.8819 40.3741 64.5627 40.4087C65.561 40.449 66.5649 40.6507 66.8592 40.6507C67.3554 40.6507 66.94 41.4689 66.8592 41.636C66.7784 41.8031 64.5627 42.6674 64.5627 42.6674L64.8512 48.0433L60.8007 48.9883L60.9738 48.7463C58.6715 49.9102 55.0537 51.5985 53.5304 51.5985H51.4532C51.4474 49.5299 51.3378 47.1906 51.2686 45.8307C51.2686 45.8307 55.8673 45.5887 59.2658 45.4216Z" fill="#C67B7B"/>
<path d="M66.7433 3.83187C65.5142 4.07964 64.2621 4.33316 63.0273 4.59245V1.98804C63.0273 1.98804 65.6239 0.893259 65.9931 1.0085C66.3567 1.12374 66.7779 2.62185 66.7433 3.83187Z" fill="#C67B7B"/>
<path d="M40.6338 54.2373L43.1207 70.7626L40.2357 72.9176L39.6587 75.2224C39.6587 75.2224 38.8624 75.5624 37.9103 75.8793C36.7159 76.2826 35.2619 76.6572 34.8176 76.2826C34.506 76.0233 34.356 74.6347 34.2925 73.0386C34.1944 70.5495 34.3041 67.559 34.3041 67.559C34.3041 67.559 35.6196 45.2601 35.6196 43.5315C35.6196 41.8029 33.8886 34.8885 33.779 35.1594L33.2539 35.1248C33.4962 34.5659 33.7559 33.8917 34.0329 33.3789C36.1966 33.7419 39.6529 38.3457 39.6529 38.3457L51.193 44.6839C51.193 44.6839 51.2218 45.1218 51.2622 45.8306C51.3315 47.1904 51.4411 49.5297 51.4469 51.5983C51.4526 53.2405 51.3892 54.7155 51.193 55.3897C50.616 57.3603 50.039 56.7841 50.039 56.7841L40.628 54.2373H40.6338Z" fill="#C67B7B"/>
<path d="M26.5675 21.2444V21.3136L28.1197 23.3648C28.1197 23.3648 26.5502 23.8892 26.5502 23.9929L24.6634 24.0678C23.6998 22.9269 22.3496 19.2565 22.3496 18.1791C22.3496 17.0267 24.6576 12.9933 25.8116 11.8409C26.9656 10.6885 31.0047 9.53608 32.1587 9.39203C33.3127 9.25374 33.8897 10.1123 33.8897 10.1123L34.3225 10.1238C34.3571 10.118 34.3917 10.1123 34.4263 10.1123H39.0827C40.8138 10.1123 43.6988 12.4171 44.6912 14.1457C45.0144 14.7103 45.1413 15.2808 45.1701 15.7821C45.2278 16.8192 44.8528 17.6029 44.8528 17.6029L42.9948 18.496L40.0752 19.9076L39.6597 18.1791L37.9287 19.9076C37.9287 19.9076 37.9287 14.7219 36.7747 14.1457L35.0437 14.7219C33.8897 15.2981 33.3127 20.576 33.3127 20.576C33.3127 20.576 31.5817 20.4838 29.8507 21.06C28.9621 21.3539 27.7677 21.3481 26.8214 21.2675C26.7348 21.2617 26.6483 21.2502 26.5675 21.2444Z" fill="#C67B7B"/>
<path d="M43.1215 95.5511C43.6985 98.2708 44.2755 106.436 43.1215 108.4C41.9675 110.371 40.8135 110.371 40.2365 111.523C39.6595 112.676 36.8264 119.763 35.3608 119.965C35.0665 120.005 34.6684 120.063 34.2126 120.126C32.3892 120.374 29.6196 120.743 28.6964 120.743C27.577 120.743 27.2712 118.328 27.2539 118.173C28.5637 116.986 29.6427 115.799 29.8504 114.981C30.4274 112.676 32.1584 98.847 31.8699 98.2996C31.5814 97.7522 32.7354 95.966 32.7354 94.2374C32.7354 92.5088 31.0044 76.2831 31.0044 76.2831L29.2561 76.3464C29.5504 76.1621 29.7581 75.9777 29.8504 75.7991C29.9197 75.6608 29.9889 75.2344 30.0581 74.6063L30.4736 74.6467L34.2934 73.0391C34.3568 74.6351 34.5069 76.0238 34.8184 76.2831C35.2627 76.6576 36.7168 76.2831 37.9112 75.8797L38.0497 76.2831C39.0825 80.4086 42.5445 92.8372 43.1215 95.5511Z" fill="#C67B7B"/>
<path d="M25.1708 24.6045L24.8476 24.2588C24.7899 24.2069 24.7265 24.1435 24.663 24.0686L26.5498 23.9937C26.5498 23.89 28.1193 23.3657 28.1193 23.3657L26.5613 21.3144V21.2452C26.6479 21.251 26.7344 21.2625 26.821 21.2683C27.7673 21.349 28.9617 21.3547 29.8503 21.0609C31.5813 20.4847 33.3123 20.5769 33.3123 20.5769C33.3123 20.5769 33.8893 15.2989 35.0433 14.7227L36.7743 14.1465C37.9283 14.7227 37.9283 19.9085 37.9283 19.9085L39.6593 18.1799L40.0748 19.9085L42.9944 18.4968L43.1214 18.7561V25.6244C43.1214 25.6244 42.5444 29.1276 40.2364 30.8562C38.9439 31.8242 36.5724 32.2506 34.7317 32.435L34.7433 32.5906C34.5009 32.6482 34.2644 32.9594 34.0393 33.38C33.7624 33.8928 33.5027 34.567 33.2604 35.1259L33.7854 35.1604C33.8951 34.8896 35.6261 41.804 35.6261 43.5326C35.6261 45.2612 34.3105 67.5601 34.3105 67.5601C34.3105 67.5601 34.2009 70.5505 34.299 73.0397C34.299 73.0397 30.4792 74.63 30.4792 74.6473L30.0638 74.607C30.5658 70.078 31.01 54.7281 31.01 54.7281V38.3468C31.01 37.1944 25.24 33.7372 23.7744 33.7372L27.8942 32.2391L28.702 31.4324C28.702 31.4324 28.702 28.5514 27.548 29.1276C26.394 29.7038 25.24 28.5514 24.663 27.9752C24.086 27.399 24.6168 25.2959 25.1765 24.6045H25.1708ZM41.1019 22.1902C41.4885 21.7696 41.3904 20.1735 40.219 21.0205C39.042 21.8675 39.4516 22.4668 39.4516 22.4668C39.8959 22.6512 40.7095 22.6166 41.1019 22.1902ZM38.5053 29.6981C39.0823 28.5514 38.915 27.9291 38.915 27.9291C37.9283 27.9752 35.0433 27.399 34.4663 27.9752C33.8893 28.5514 33.8893 29.9113 34.4663 30.3838C35.0433 30.8562 36.1742 31.5765 36.4743 31.2135C36.7743 30.8562 37.9283 30.8389 38.5053 29.6981ZM34.6336 22.6627C34.4663 22.2133 33.8893 21.6371 33.3123 21.6371C32.7353 21.6371 31.6332 22.7895 33.0526 23.0776C34.4663 23.3657 34.6336 22.6627 34.6336 22.6627Z" fill="#C67B7B"/>
<path d="M41.9679 125.927C43.6989 126.504 39.781 128.071 39.781 128.071C39.781 128.071 41.0446 129.494 34.2937 127.132C27.5427 124.775 26.4234 123.623 26.4234 123.623L25.1309 119.964C25.8406 119.399 26.5791 118.783 27.2542 118.172C27.2715 118.327 27.5774 120.742 28.6967 120.742C29.62 120.742 32.3896 120.373 34.2129 120.125L34.2937 120.742C35.6208 121.894 40.2368 125.351 41.9679 125.927Z" fill="#C67B7B"/>
<path d="M38.9137 27.9285C38.9137 27.9285 39.081 28.5508 38.504 29.6975C37.927 30.8383 36.773 30.8556 36.473 31.2129C36.1729 31.5759 35.042 30.8556 34.465 30.3831C33.888 29.9107 33.888 28.5508 34.465 27.9746C35.042 27.3984 37.927 27.9746 38.9137 27.9285Z" fill="#C67B7B"/>
<path d="M33.3118 21.6367C33.8888 21.6367 34.4658 22.2129 34.6332 22.6624C34.6332 22.6624 34.4658 23.3653 33.0522 23.0772C31.6328 22.7891 32.7348 21.6367 33.3118 21.6367Z" fill="#4F4131"/>
<path d="M25.1306 119.965C25.1306 119.965 23.6996 122.708 22.8456 124.079C22.6379 124.413 22.4648 124.661 22.3494 124.776C21.7724 125.352 18.8874 125.352 18.8874 125.352L17.1564 123.624H15.4253C15.1657 123.491 14.9349 123.071 14.7329 122.471C14.0405 120.42 13.6943 116.317 13.6943 114.981C13.6943 113.252 20.0414 104.609 19.8971 102.909C19.7529 101.21 20.6184 99.4233 19.8741 98.2018C19.1297 96.9802 20.0414 94.2375 19.8741 92.2208C19.8279 91.6792 19.7356 90.7919 19.6144 89.7432C18.6508 87.8245 15.258 80.9735 14.2713 77.5278L14.2944 77.159C17.7161 77.3434 23.7688 76.9458 23.7688 76.9458V78.2653C23.7688 78.2653 27.6867 77.3319 29.2561 76.3466L31.0045 76.2832C31.0045 76.2832 32.7355 92.5089 32.7355 94.2375C32.7355 95.9661 31.5815 97.7524 31.87 98.2997C32.1585 98.8471 30.4275 112.676 29.8505 114.981C29.6427 115.799 28.5637 116.986 27.2539 118.167C26.5788 118.784 25.8403 119.4 25.1306 119.965Z" fill="#C67B7B"/>
<path d="M17.1965 46.2859H17.2138L20.1508 44.2347C20.1508 44.2347 20.3239 43.7622 19.9719 42.9843H20.5316C20.5316 42.9843 21.7722 41.2269 22.3492 40.1379C22.9262 39.0546 22.3492 37.1935 22.3492 35.9201C22.3492 35.4073 22.7011 34.6006 23.1224 33.8228L23.7686 33.7363C25.2342 33.7363 31.0042 37.1935 31.0042 38.3459V54.7272C31.0042 54.7272 30.5599 70.0772 30.0579 74.6061C29.9887 75.2341 29.9195 75.6605 29.8502 75.7988C29.7579 75.9774 29.5502 76.1618 29.2559 76.3462C27.6865 77.3315 23.7686 78.2649 23.7686 78.2649V76.9454C23.7686 76.9454 17.7158 77.343 14.2942 77.1586C13.5614 77.1183 12.944 77.0549 12.5401 76.9512C11.3745 76.6573 10.5033 76.3692 9.92626 76.156L9.32041 74.7962L9.65507 74.6464L11.4265 60.4777C9.18192 61.9758 7.22588 63.1167 6.77005 63.1167C5.61604 63.1052 1 55.0557 1 53.3271C1 51.5985 3.88502 48.1413 3.88502 48.1413L4.63513 48.1182C3.75231 49.6624 3.30802 52.7509 3.30802 52.7509C3.30802 52.7509 6.04879 53.3271 7.56631 52.7509C8.3395 52.457 10.711 50.544 12.8401 48.7521C14.8596 47.0523 16.6541 45.462 16.6541 45.462L17.0753 45.2949C17.2658 45.7731 17.2369 46.1131 17.1965 46.2859Z" fill="#C67B7B"/>
<path d="M29.8502 132.266C31.0042 132.266 28.6962 133.418 28.6962 133.418C28.6962 133.418 24.9168 133.995 24.5013 133.418C24.0801 132.842 16.5791 127.656 14.8481 127.08C13.117 126.504 13.1632 125.352 13.1632 125.352L14.7327 122.471C14.9346 123.07 15.1654 123.491 15.4251 123.623H17.1561L18.8871 125.352C18.8871 125.352 21.7721 125.352 22.3491 124.775C22.4645 124.66 22.6376 124.412 22.8453 124.078C25.2341 126.504 28.6962 132.266 29.8502 132.266Z" fill="#C67B7B"/>
<path d="M16.5789 37.3035V32.5844L18.8004 29.0293L19.9486 29.7323L21.2007 30.4928L22.7586 31.4378L24.08 32.2445C23.8088 32.6593 23.4453 33.2355 23.1221 33.8233C22.7009 34.6011 22.3489 35.4078 22.3489 35.9206C22.3489 37.194 22.9259 39.0551 22.3489 40.1384C21.7719 41.2274 20.5314 42.9848 20.5314 42.9848H19.9717C19.7467 42.4778 19.3081 41.8439 18.4599 41.1237C16.2962 39.2856 16.5789 40.075 16.0019 40.075L13.1169 42.3798C13.5035 42.3798 13.5035 42.0283 14.1035 42.3395C14.1035 42.3395 10.6992 44.0911 8.02769 45.6238L7.92383 45.2608C7.92383 45.2608 9.07784 42.956 10.4396 41.6365C11.7955 40.317 15.4249 37.7702 16.1115 37.3035H16.5789Z" fill="#C67B7B"/>
<path d="M19.972 42.9846C20.324 43.7625 20.1509 44.2349 20.1509 44.2349L17.2139 46.292H17.1966C17.237 46.1133 17.2659 45.7734 17.0754 45.2951C16.8793 44.8054 16.4523 44.1716 15.5752 43.4283C14.854 42.8117 14.4039 42.4948 14.1039 42.3392C13.5038 42.0281 13.5038 42.3796 13.1172 42.3796L16.0022 40.0748C16.5792 40.0748 16.2965 39.2854 18.4602 41.1235C19.3084 41.8437 19.747 42.4775 19.972 42.9846Z" fill="#F5CF24"/>
<path d="M17.0749 45.2957L16.6537 45.4628C16.6537 45.4628 14.8593 47.0531 12.8397 48.7529C10.7106 50.5449 8.3391 52.4579 7.56591 52.7517C6.04839 53.3279 3.30762 52.7517 3.30762 52.7517C3.30762 52.7517 3.75191 49.6633 4.63473 48.1191C4.76167 47.9002 4.89438 47.71 5.03863 47.566C5.43676 47.1684 6.63116 46.4251 8.02751 45.6242C10.699 44.0915 14.1034 42.3398 14.1034 42.3398C14.4034 42.4954 14.8535 42.8123 15.5747 43.4289C16.4518 44.1722 16.8788 44.806 17.0749 45.2957Z" fill="#C67B7B"/>
<path d="M43.1213 18.7559V25.6241C43.1213 25.6241 42.5443 29.1274 40.2363 30.856C38.9438 31.824 36.5723 32.2504 34.7316 32.4348C33.2776 32.5846 32.1582 32.5846 32.1582 32.5846" stroke="#4F4131" stroke-linecap="round" stroke-linejoin="round"/>
<path d="M26.9652 24.5178C26.9652 24.5178 25.8285 23.9416 25.2457 24.5178C25.2226 24.5409 25.1938 24.5697 25.1707 24.6042C24.611 25.2957 24.1032 27.4218 24.6572 27.975C25.2111 28.5281 26.3882 29.7036 27.5422 29.1274C28.6962 28.5512 28.6962 31.4322 28.6962 31.4322L27.8884 32.2389L26.9652 33.1608" stroke="#4F4131" stroke-linecap="round" stroke-linejoin="round"/>
<path d="M36.7736 14.1447C37.9276 14.7209 37.9276 19.9067 37.9276 19.9067L39.6586 18.1781L40.074 19.9067L42.9937 18.495L44.8516 17.6019C44.8516 17.6019 45.2267 16.8183 45.169 15.7811C45.1401 15.2798 45.0132 14.7094 44.6901 14.1447C43.6976 12.4161 40.8126 10.1113 39.0816 10.1113H34.4251C34.3905 10.1113 34.3559 10.1171 34.3213 10.1229C33.8193 10.2496 33.3115 11.2637 33.3115 11.2637" stroke="#4F4131" stroke-linecap="round" stroke-linejoin="round"/>
<path d="M33.8897 10.1123C33.8897 10.1123 33.3127 9.25374 32.1587 9.39203C31.0047 9.53608 26.9656 10.6885 25.8116 11.8409C24.6576 12.9933 22.3496 17.0267 22.3496 18.1791C22.3496 19.2565 23.6998 22.9269 24.6634 24.0678C24.7269 24.1427 24.7903 24.2061 24.848 24.2579" stroke="#4F4131" stroke-linecap="round" stroke-linejoin="round"/>
<path d="M35.0425 14.7207C33.8885 15.2969 33.3115 20.5749 33.3115 20.5749C33.3115 20.5749 31.5805 20.4827 29.8495 21.0589C28.9609 21.3527 27.7665 21.347 26.8202 21.2663C26.7337 21.2606 26.6471 21.249 26.5663 21.2433C25.7932 21.1684 25.245 21.0589 25.245 21.0589C25.245 21.0589 24.0795 18.7541 24.6565 17.0255" stroke="#4F4131" stroke-linecap="round" stroke-linejoin="round"/>
<path d="M26.5613 24.0053C26.5613 24.0053 26.5498 23.9995 26.5498 23.9938C26.5498 23.8901 28.1193 23.3657 28.1193 23.3657L26.5613 21.3145" stroke="#4F4131" stroke-linecap="round" stroke-linejoin="round"/>
<path d="M39.2444 23.7617C39.2444 23.7617 39.6599 25.6689 38.5059 26.2451" stroke="#4F4131" stroke-linecap="round" stroke-linejoin="round"/>
<path d="M38.9137 27.9285C37.927 27.9746 35.042 27.3984 34.465 27.9746C33.888 28.5508 33.888 29.9107 34.465 30.3831C35.042 30.8556 36.1729 31.5759 36.473 31.2129C36.773 30.8556 37.927 30.8383 38.504 29.6975C39.081 28.5508 38.9137 27.9285 38.9137 27.9285Z" stroke="#4F4131" stroke-linecap="round" stroke-linejoin="round"/>
<path d="M16.5791 39.4986V37.3033V32.5842L18.8006 29.0291L19.4641 27.9746" stroke="#4F4131" stroke-linecap="round" stroke-linejoin="round"/>
<path d="M18.4659 32.5848C18.3621 32.5848 19.3026 30.8851 19.9488 29.7327C20.2777 29.1507 20.5316 28.707 20.5316 28.707" stroke="#4F4131" stroke-linecap="round" stroke-linejoin="round"/>
<path d="M19.8389 33.7372L21.2006 30.4932L21.6103 29.5137" stroke="#4F4131" stroke-linecap="round" stroke-linejoin="round"/>
<path d="M21.6104 34.2553L22.7586 31.4377L23.0817 30.6426" stroke="#4F4131" stroke-linecap="round" stroke-linejoin="round"/>
<path d="M24.501 31.6211C24.501 31.6211 24.3279 31.8689 24.0798 32.2434C23.8086 32.6583 23.4451 33.2344 23.122 33.8222C22.7008 34.6 22.3488 35.4067 22.3488 35.9195C22.3488 37.1929 22.9258 39.054 22.3488 40.1373C21.7718 41.2263 20.5312 42.9837 20.5312 42.9837" stroke="#4F4131" stroke-linecap="round" stroke-linejoin="round"/>
<path d="M17.1562 46.413C17.1562 46.413 17.1793 46.3726 17.1966 46.2862C17.237 46.1133 17.2659 45.7734 17.0754 45.2951C16.8793 44.8054 16.4523 44.1716 15.5752 43.4283C14.854 42.8117 14.4039 42.4948 14.1039 42.3392C13.5038 42.0281 13.5038 42.3796 13.1172 42.3796L16.0022 40.0748C16.5792 40.0748 16.2965 39.2854 18.4602 41.1235C19.3084 41.8437 19.747 42.4775 19.972 42.9846C20.324 43.7625 20.1509 44.2349 20.1509 44.2349L17.2139 46.292" stroke="#4F4131" stroke-linecap="round" stroke-linejoin="round"/>
<path d="M14.1034 42.3398C14.1034 42.3398 10.699 44.0915 8.02751 45.6242C6.63116 46.4251 5.43676 47.1684 5.03863 47.566C4.89438 47.71 4.76167 47.9002 4.63473 48.1191C3.75191 49.6633 3.30762 52.7517 3.30762 52.7517C3.30762 52.7517 6.04839 53.3279 7.56591 52.7517C8.3391 52.4579 10.7106 50.5449 12.8397 48.7529C14.8592 47.0531 16.6537 45.4628 16.6537 45.4628" stroke="#4F4131" stroke-linecap="round" stroke-linejoin="round"/>
<path d="M6.77051 59.0889C7.92452 58.5127 9.98442 54.4333 9.98442 54.4333L12.8406 48.752" stroke="#4F4131" stroke-linecap="round" stroke-linejoin="round"/>
<path d="M3.88502 48.1426C3.88502 48.1426 1 51.5998 1 53.3284C1 55.057 5.61604 63.1065 6.77005 63.118C7.22588 63.118 9.18192 61.9771 11.4265 60.479C14.9173 58.1569 19.1122 54.9821 19.4641 53.9218C20.0412 52.176 19.8392 49.5082 19.8392 49.5082" stroke="#4F4131" stroke-linecap="round" stroke-linejoin="round"/>
<path d="M16.1115 37.3027C15.4249 37.7695 11.7955 40.3162 10.4396 41.6357C9.07784 42.9552 7.92383 45.26 7.92383 45.26" stroke="#4F4131" stroke-linecap="round" stroke-linejoin="round"/>
<path d="M9.6543 74.6472L11.4257 60.4785" stroke="#4F4131" stroke-linecap="round" stroke-linejoin="round"/>
<path d="M26.9359 46.4141C26.9647 46.9903 26.7282 56.8548 26.5608 58.2607C26.3877 59.6666 25.7588 63.1181 25.7588 63.1181" stroke="#4F4131" stroke-linecap="round" stroke-linejoin="round"/>
<path d="M25.7598 67.0879L24.502 76.284" stroke="#4F4131" stroke-linecap="round" stroke-linejoin="round"/>
<path d="M23.082 36.6348C23.082 36.6348 26.6364 37.7699 27.3807 39.4985C28.1193 41.2271 28.0443 42.3391 28.0443 42.3391" stroke="#4F4131" stroke-linecap="round" stroke-linejoin="round"/>
<path d="M34.0391 33.3786C34.2639 32.9583 34.5004 32.6473 34.7425 32.5897C34.7656 32.584 34.7944 32.584 34.8175 32.584" stroke="#4F4131" stroke-linecap="round" stroke-linejoin="round"/>
<path d="M32.7354 36.0409C32.8969 35.8796 33.07 35.5339 33.2547 35.1248C33.497 34.5659 33.7566 33.8917 34.0336 33.3789" stroke="#4F4131" stroke-linecap="round" stroke-linejoin="round"/>
<path d="M33.7793 35.1601C33.8889 34.8893 35.6199 41.8036 35.6199 43.5322C35.6199 45.2608 34.3044 67.5597 34.3044 67.5597C34.3044 67.5597 34.1947 70.5502 34.2928 73.0394C34.3563 74.6354 34.5063 76.0241 34.8179 76.2833C35.2622 76.6579 36.7163 76.2834 37.9106 75.88C38.8627 75.5631 39.659 75.2231 39.659 75.2231L40.236 72.9184L43.121 70.7634L40.6341 54.238L40.236 51.599C40.236 51.599 39.659 51.599 39.659 51.0228" stroke="#4F4131" stroke-linecap="round" stroke-linejoin="round"/>
<path d="M36.7734 51.5977C36.7734 51.5977 38.9718 71.2864 39.318 72.675" stroke="#4F4131" stroke-linecap="round" stroke-linejoin="round"/>
<path d="M34.0322 33.3789C36.196 33.7419 39.6522 38.3457 39.6522 38.3457L51.1923 44.6839C51.1923 44.6839 51.2212 45.1218 51.2616 45.8306C51.3308 47.1904 51.4405 49.5297 51.4462 51.5983C51.452 53.2405 51.3885 54.7155 51.1923 55.3897C50.6153 57.3603 50.0383 56.7841 50.0383 56.7841L40.6274 54.2373" stroke="#4F4131" stroke-linecap="round" stroke-linejoin="round"/>
<path d="M62.8086 45.2617C62.5836 45.2617 61.1007 45.3309 59.2658 45.4231C55.8673 45.5902 51.2686 45.8322 51.2686 45.8322" stroke="#4F4131" stroke-linecap="round" stroke-linejoin="round"/>
<path d="M63.0279 47.6758C63.0279 47.6758 62.1797 48.1367 60.9738 48.7475C58.6715 49.9114 55.0537 51.5997 53.5304 51.5997H51.2686" stroke="#4F4131" stroke-linecap="round" stroke-linejoin="round"/>
<path d="M70.0271 39.9082C70.2406 40.6515 67.7422 41.9595 67.7422 41.9595" stroke="#4F4131" stroke-linecap="round" stroke-linejoin="round"/>
<path d="M71.2041 42.3398C70.8175 44.685 68.2613 45.8316 68.2613 45.8316H67.1016" stroke="#4F4131" stroke-linecap="round" stroke-linejoin="round"/>
<path d="M68.8847 47.1445C68.2673 47.496 67.7422 47.6746 67.7422 47.6746" stroke="#4F4131" stroke-linecap="round" stroke-linejoin="round"/>
<path d="M70.8582 44.084C71.1929 45.5302 69.9119 46.5616 68.8906 47.1378" stroke="#4F4131" stroke-linecap="round" stroke-linejoin="round"/>
<path d="M67.1016 26.6328L67.742 41.2798" stroke="#4F4131" stroke-linecap="round" stroke-linejoin="round"/>
<path d="M67.4244 48.1419V49.6342V52.521L65.1684 53.9211L64.851 48.0439L64.5625 42.668" stroke="#4F4131" stroke-linecap="round" stroke-linejoin="round"/>
<path d="M64.563 40.3917L64.4707 27.3984" stroke="#4F4131" stroke-linecap="round" stroke-linejoin="round"/>
<path d="M78.8954 1.46875C78.8954 1.46875 78.7857 1.4918 78.578 1.52637C77.2913 1.76837 72.2425 2.72486 66.7437 3.83692C65.5146 4.07893 64.2625 4.33246 63.0278 4.59174C56.6115 5.917 50.5702 7.28259 50.0451 7.80693C48.8911 8.95933 49.5028 8.67123 49.5028 8.67123C49.5028 8.67123 49.6355 11.7481 49.8143 15.5453C50.0567 20.4602 50.3856 26.5737 50.6337 28.7344C50.6856 29.1608 50.7376 29.4374 50.7779 29.5123" stroke="#4F4131" stroke-linecap="round" stroke-linejoin="round"/>
<path d="M54.9039 28.9375L52.5439 29.5137" stroke="#4F4131" stroke-linecap="round" stroke-linejoin="round"/>
<path d="M78.8963 23.0781L78.5559 23.1588L64.2866 26.6448L54.916 28.9381" stroke="#4F4131" stroke-linecap="round" stroke-linejoin="round"/>
<path d="M80.6268 2.62109C80.6268 2.62109 80.621 2.67295 80.6153 2.77091C80.5287 3.79078 80.0498 9.68528 80.0498 11.2641C80.0498 12.6758 80.4364 19.3769 80.5749 21.7912C80.6095 22.3386 80.6268 22.6613 80.6268 22.6613" stroke="#4F4131" stroke-linecap="round" stroke-linejoin="round"/>
<path d="M66.7433 3.83187C66.7779 2.62185 66.3567 1.12374 65.9931 1.0085C65.6239 0.893259 63.0273 1.98804 63.0273 1.98804V4.58669" stroke="#4F4131" stroke-linecap="round" stroke-linejoin="round"/>
<path d="M30.4736 74.6467L34.2934 73.0391" stroke="#4F4131" stroke-linecap="round" stroke-linejoin="round"/>
<path d="M27.254 118.172C26.5789 118.783 25.8403 119.399 25.1306 119.964C23.3592 121.37 21.7725 122.47 21.7725 122.47" stroke="#4F4131" stroke-linecap="round" stroke-linejoin="round"/>
<path d="M31.0044 76.2832C31.0044 76.2832 32.7355 92.5089 32.7355 94.2375C32.7355 95.9661 31.5814 97.7524 31.8699 98.2997C32.1584 98.8471 30.4274 112.676 29.8504 114.981C29.6427 115.799 28.5637 116.986 27.2539 118.167" stroke="#4F4131" stroke-linecap="round" stroke-linejoin="round"/>
<path d="M14.2715 77.5273C15.2582 80.973 18.6509 87.824 19.6145 89.7427C19.7819 90.0712 19.8742 90.2556 19.8742 90.2556" stroke="#4F4131" stroke-linecap="round" stroke-linejoin="round"/>
<path d="M18.3104 81.5605C18.7316 82.8282 19.2855 86.8789 19.6144 89.7426C19.7356 90.7912 19.8279 91.6786 19.8741 92.2202C20.0414 94.2369 19.1297 96.9796 19.8741 98.2012C20.6184 99.4227 19.7529 101.209 19.8971 102.909C20.0414 104.608 13.6943 113.251 13.6943 114.98C13.6943 116.317 14.0405 120.419 14.7329 122.471C14.9349 123.07 15.1657 123.49 15.4253 123.623" stroke="#4F4131" stroke-linecap="round" stroke-linejoin="round"/>
<path d="M22.8453 124.078C25.2341 126.504 28.6962 132.266 29.8502 132.266C31.0042 132.266 28.6962 133.418 28.6962 133.418C28.6962 133.418 24.9168 133.995 24.5013 133.418C24.0801 132.842 16.5791 127.656 14.8481 127.08C13.117 126.504 13.1632 125.352 13.1632 125.352L14.7327 122.471" stroke="#4F4131" stroke-linecap="round" stroke-linejoin="round"/>
<path d="M38.0497 76.2832C39.0825 80.4088 42.5445 92.8374 43.1215 95.5513C43.6985 98.2709 44.2755 106.436 43.1215 108.4C41.9675 110.371 40.8135 110.371 40.2365 111.523C39.6595 112.676 36.8264 119.763 35.3608 119.965C35.0665 120.005 34.6684 120.063 34.2126 120.126C32.3892 120.374 29.6196 120.743 28.6964 120.743C27.577 120.743 27.2712 118.328 27.2539 118.173" stroke="#4F4131" stroke-linecap="round" stroke-linejoin="round"/>
<path d="M34.2933 120.743C35.6204 121.895 40.2364 125.352 41.9674 125.928C43.6985 126.505 39.7806 128.072 39.7806 128.072C39.7806 128.072 41.0442 129.495 34.2933 127.133C27.5423 124.776 26.4229 123.624 26.4229 123.624L25.1305 119.965C25.1305 119.965 23.6995 122.708 22.8455 124.079C22.6378 124.413 22.4647 124.661 22.3493 124.776C21.7723 125.352 18.8873 125.352 18.8873 125.352L17.1562 123.624" stroke="#4F4131" stroke-linecap="round" stroke-linejoin="round"/>
<path d="M34.6332 22.6624C34.4658 22.2129 33.8888 21.6367 33.3118 21.6367C32.7348 21.6367 31.6328 22.7891 33.0522 23.0772C34.4658 23.3653 34.6332 22.6624 34.6332 22.6624Z" stroke="#4F4131" stroke-linecap="round" stroke-linejoin="round"/>
<path d="M39.4518 22.4657C39.8961 22.6501 40.7097 22.6155 41.102 22.1892C41.4886 21.7685 41.3906 20.1725 40.2192 21.0195C39.0421 21.8665 39.4518 22.4657 39.4518 22.4657Z" stroke="#4F4131" stroke-linecap="round" stroke-linejoin="round"/>
<path d="M59.2549 45.122L62.163 43.5317C62.163 42.9555 61.586 41.2269 62.74 40.6507C63.2074 40.4202 63.8825 40.3741 64.5633 40.4087C65.5615 40.449 66.5655 40.6507 66.8598 40.6507C67.356 40.6507 66.9406 41.4689 66.8598 41.636C66.779 41.8031 64.5633 42.6674 64.5633 42.6674L64.0613 43.5317" stroke="#4F4131" stroke-linecap="round" stroke-linejoin="round"/>
<path d="M27.8885 32.2383L23.7687 33.7364C25.2343 33.7364 31.0043 37.1936 31.0043 38.346V54.7273C31.0043 54.7273 30.56 70.0772 30.058 74.6061C29.9888 75.2342 29.9195 75.6606 29.8503 75.7989C29.758 75.9775 29.5502 76.1619 29.256 76.3463C27.6865 77.3316 23.7687 78.265 23.7687 78.265V76.9455C23.7687 76.9455 17.7159 77.3431 14.2942 77.1587C13.5615 77.1184 12.9441 77.055 12.5402 76.9513C11.3746 76.6574 10.5033 76.3693 9.92632 76.1561C9.36086 75.9372 9.07812 75.7989 9.07812 75.7989" stroke="#4F4131" stroke-linecap="round" stroke-linejoin="round"/>
<path d="M70.909 41.5742C70.3204 42.9398 67.7412 44.0864 67.7412 44.0864" stroke="#4F4131" stroke-linecap="round" stroke-linejoin="round"/>
</svg>
