<svg width="193" height="184" viewBox="0 0 193 184" fill="none" xmlns="http://www.w3.org/2000/svg">
<path d="M125.056 109.088L125.088 109.362L126.688 108.553L125.056 109.088Z" fill="#625B71"/>
<path d="M120.193 75.3269L121.387 85.203L124.71 109.198L125.056 109.087L120.969 75.34L121.309 74.5567L120.663 74.5371L120.441 74.759L120.193 75.3269Z" fill="#7F5D8F"/>
<path d="M116.948 75.2744L116.635 104.145L115.701 106.287L122.392 109.198L123.378 109.629L124.324 109.511L121.387 85.2027L120.003 75.183L120.44 74.7587L120.715 74.1125L117.973 72.918L116.948 75.2744Z" fill="#7F5D8F"/>
<path d="M120.969 75.3415L125.055 109.089L126.687 108.553L173.744 84.8259L179.364 81.9995L191.981 75.6352L183.731 47.5931V47.5866L182.647 44.9103L182.301 45.0539L181.257 44.6035L180.728 45.8176L121.765 74.5712L121.308 74.5582L120.969 75.3415Z" fill="#7F5D8F"/>
<path d="M121.387 85.2038L120.192 75.3277L120.44 74.7598L120.003 75.1841L121.387 85.2038Z" fill="#7F5D8F"/>
<path d="M124.709 109.198L121.387 85.2031L124.324 109.512L124.337 109.622L124.644 109.583L125.088 109.361L125.055 109.087L124.709 109.198Z" fill="#625B71"/>
<path d="M120.714 74.1133L120.44 74.7595L120.662 74.5376L121.308 74.5572L121.38 74.4005L120.714 74.1133Z" fill="#625B71"/>
<path d="M19.388 30.1501L1.0457 56.3384L18.2195 63.8124L23.6635 66.1949L115.068 106.013L115.701 106.287L116.635 104.146L116.948 75.2747L117.973 72.9183L20.4715 30.4178L20.1647 29.752L19.4271 30.0914L19.388 30.1501Z" fill="#7F5D8F"/>
<path d="M16.3982 126.699L16.222 138.396L16.4831 138.84L29.6621 144.578L29.884 144.082L30.0537 132.665L16.3982 126.699Z" fill="#E0CDAF"/>
<path d="M16.5352 117.527L16.3982 126.698L30.0537 132.665L30.1973 123.252L17.1097 117.54L16.5352 117.527Z" fill="#E0CDAF"/>
<path d="M16.6856 107.736L16.5355 117.528L17.1099 117.541L30.1975 123.252L30.3477 113.461L17.26 107.749L16.6856 107.736Z" fill="#E0CDAF"/>
<path d="M30.348 113.46L32.2932 114.309L32.3389 111.385L32.5869 110.817L22.169 106.235L17.5215 104.198L16.7382 104.191L16.686 107.736L17.2604 107.749L30.348 113.46Z" fill="#E0CDAF"/>
<path d="M17.3514 64.0077L16.7378 104.191L17.5211 104.197L22.1687 106.234L22.1752 106.221L22.7757 66.4294L22.8867 66.1814L17.4428 63.7988L17.3514 64.0077Z" fill="#E0CDAF"/>
<path d="M22.5014 28.2967L20.021 29.4455L20.1646 29.7523L20.7978 29.4586L21.2482 30.4312L25.0733 32.0957L25.2887 31.6126L27.149 30.7053L83.9252 3.08098L84.1602 2.53267L81.5165 1.38383L81.7189 0.861629L79.5452 0L79.2841 0.665804L22.5014 28.2967Z" fill="#7F5D8F"/>
<path d="M20.1653 29.7527L20.4721 30.4185L117.973 72.919L120.715 74.1136L121.381 74.4008L121.498 74.1266L115.532 71.5221L107.17 67.8863V67.8798L98.8085 64.2375L89.5003 60.1774L80.2051 56.1303L72.2285 52.6512L64.5261 49.296L58.1422 46.5088L51.3732 43.5584L44.9959 40.7777L37.561 37.54L30.5179 34.4656L25.0739 32.1026V32.0961L21.2488 30.4316L20.7984 29.459L20.1653 29.7527Z" fill="#625B71"/>
<path d="M22.1749 106.221L22.1684 106.234L32.5862 110.817L48.1282 117.638L60.5174 123.075L61.1244 83.4273L61.3398 82.9312L22.8864 66.1816L22.7754 66.4297L22.1749 106.221Z" fill="#D3B25B"/>
<path d="M25.0733 32.0962V32.1027L30.5173 34.4657L30.7066 34.0414L32.5734 33.1341L89.3561 5.50321L89.6172 4.89616L84.1602 2.5332L83.9252 3.08151L27.1491 30.7059L25.2888 31.6132L25.0733 32.0962Z" fill="#7F5D8F"/>
<path d="M30.7067 34.0417L30.5174 34.466L37.5605 37.5405L37.6846 37.2663L39.5514 36.359L96.3276 8.72812L96.667 7.94482L89.6173 4.89648L89.3562 5.50354L32.5735 33.1344L30.7067 34.0417Z" fill="#7F5D8F"/>
<path d="M31.9992 133.515L30.054 132.666L29.8843 144.083L29.6624 144.579L45.2239 151.367L45.4458 150.845L45.6221 139.455L31.9992 133.515Z" fill="#E0CDAF"/>
<path d="M30.1974 123.252L30.0538 132.665L31.999 133.513L32.1426 124.101L30.1974 123.252Z" fill="#E0CDAF"/>
<path d="M30.3478 113.461L30.1976 123.252L32.1428 124.101L32.293 114.31L30.3478 113.461Z" fill="#E0CDAF"/>
<path d="M32.1428 124.102L31.9991 133.514L45.622 139.454L45.7656 130.048L32.1428 124.102Z" fill="#E0CDAF"/>
<path d="M32.2928 114.309L32.1427 124.1L45.7656 130.046L45.9092 120.255L32.2928 114.309Z" fill="#E0CDAF"/>
<path d="M45.9096 120.257L47.8613 121.106L47.9005 118.149L48.1289 117.64L32.587 110.818L32.3389 111.386L32.2932 114.311L45.9096 120.257Z" fill="#E0CDAF"/>
<path d="M37.6843 37.2649L37.5603 37.539L44.9951 40.7766L45.4521 39.7257L47.3124 38.8184L104.095 11.1875L104.102 11.1679L96.6667 7.94336L96.3273 8.72666L39.5512 36.3575L37.6843 37.2649Z" fill="#7F5D8F"/>
<path d="M45.452 39.7257L44.995 40.7767L51.3724 43.5574L51.6465 42.9438L53.5069 42.0365L110.283 14.4056L110.485 13.9356L104.101 11.168L104.095 11.1876L47.3123 38.8184L45.452 39.7257Z" fill="#7F5D8F"/>
<path d="M47.5674 140.308L45.6222 139.453L45.4459 150.844L45.224 151.366L62.672 158.964L62.9592 158.291L63.1289 147.097L47.5674 140.308Z" fill="#E0CDAF"/>
<path d="M45.7657 130.047L45.6221 139.453L47.5673 140.308L47.7109 130.895L45.7657 130.047Z" fill="#E0CDAF"/>
<path d="M45.9096 120.256L45.766 130.047L47.7112 130.896L47.8613 121.104L45.9096 120.256Z" fill="#E0CDAF"/>
<path d="M47.7109 130.896L47.5673 140.309L63.1289 147.098L63.2725 137.692L47.7109 130.896Z" fill="#E0CDAF"/>
<path d="M47.8613 121.105L47.7112 130.897L63.2727 137.692L63.4229 127.901L47.8613 121.105Z" fill="#E0CDAF"/>
<path d="M63.4228 127.9L65.368 128.748L65.4137 125.596L65.5508 125.289L60.5181 123.076L48.1289 117.639L47.9004 118.148L47.8613 121.105L63.4228 127.9Z" fill="#E0CDAF"/>
<path d="M51.6471 42.9437L51.3729 43.5573L58.1419 46.5077L58.6315 45.3915L60.4918 44.4777L117.255 16.8664L110.486 13.9355L110.284 14.4055L53.5074 42.0364L51.6471 42.9437Z" fill="#7F5D8F"/>
<path d="M58.631 45.3923L58.1415 46.5085L64.5253 49.2958L64.8256 48.6104L66.6859 47.6965L123.469 20.0722L123.651 19.6414L117.254 16.8672L60.4914 44.4785L58.631 45.3923Z" fill="#7F5D8F"/>
<path d="M61.1251 83.4277L60.5181 123.076L65.5508 125.289L68.9516 126.783L69.5586 86.8155L69.6631 86.5674L61.3405 82.9316L61.1251 83.4277Z" fill="#E0CDAF"/>
<path d="M65.0739 147.953L63.1288 147.098L62.959 158.292L62.6718 158.965L79.565 166.328L79.8195 165.734L79.9893 154.467L65.0739 147.953Z" fill="#E0CDAF"/>
<path d="M64.8259 48.6096L64.5257 49.295L72.2281 52.6502L72.5806 51.8473L74.4409 50.9399L131.224 23.3091L131.367 22.9827L123.652 19.6406L123.469 20.0714L66.6863 47.6958L64.8259 48.6096Z" fill="#7F5D8F"/>
<path d="M63.2726 137.691L63.129 147.098L65.0742 147.953L65.2178 138.54L63.2726 137.691Z" fill="#E0CDAF"/>
<path d="M63.422 127.898L63.2719 137.69L65.2171 138.538L65.3672 128.747L63.422 127.898Z" fill="#E0CDAF"/>
<path d="M65.2175 138.541L65.0739 147.954L79.9892 154.468L80.1328 145.055L65.2175 138.541Z" fill="#E0CDAF"/>
<path d="M65.3669 128.748L65.2168 138.539L80.1321 145.054L80.2822 135.262L65.3669 128.748Z" fill="#E0CDAF"/>
<path d="M80.2828 135.261L82.228 136.11L82.2737 133.035L82.4238 132.696L68.9511 126.782L65.5503 125.287L65.4132 125.594L65.3675 128.747L80.2828 135.261Z" fill="#E0CDAF"/>
<path d="M69.5581 86.8145L68.9511 126.782L82.4238 132.696L100.635 140.692L113.651 146.404L114.265 106.064L114.291 105.999L69.6626 86.5664L69.5581 86.8145Z" fill="#D3B25B"/>
<path d="M72.5799 51.847L72.2274 52.6499L80.204 56.129L80.3215 55.8679L82.1818 54.9541L138.964 27.3297L139.35 26.442L131.366 22.9824L131.223 23.3088L74.4402 50.9397L72.5799 51.847Z" fill="#7F5D8F"/>
<path d="M80.3219 55.8693L80.2044 56.1304L89.4995 60.1774L89.6236 59.9098L91.4904 59.0025L148.267 31.3781L148.658 30.4773L139.35 26.4434L138.965 27.3311L82.1822 54.9554L80.3219 55.8693Z" fill="#7F5D8F"/>
<path d="M81.9342 155.309L79.989 154.467L79.8192 165.733L79.5647 166.327L97.7894 174.271L97.9787 173.84L98.1484 162.391L81.9342 155.309Z" fill="#E0CDAF"/>
<path d="M80.1329 145.055L79.9893 154.467L81.9345 155.309L82.0781 145.897L80.1329 145.055Z" fill="#E0CDAF"/>
<path d="M80.2833 135.264L80.1332 145.055L82.0784 145.897L82.2285 136.112L80.2833 135.264Z" fill="#E0CDAF"/>
<path d="M82.0777 145.896L81.9341 155.309L98.1484 162.391L98.292 152.979L82.0777 145.896Z" fill="#E0CDAF"/>
<path d="M82.2281 136.111L82.078 145.896L98.2923 152.978L98.4424 143.194L82.2281 136.111Z" fill="#E0CDAF"/>
<path d="M98.4425 143.193L100.388 144.036L100.433 141.144L100.636 140.693L82.424 132.697L82.2739 133.037L82.2282 136.111L98.4425 143.193Z" fill="#E0CDAF"/>
<path d="M89.6236 59.909L89.4996 60.1767L98.8078 64.2368L98.9318 63.9495L100.792 63.0487L157.568 35.4113L157.96 34.504L148.658 30.4766L148.267 31.3774L91.4905 59.0017L89.6236 59.909Z" fill="#7F5D8F"/>
<path d="M98.9321 63.9494L98.8081 64.2366L107.17 67.879L107.464 67.2001L109.324 66.2993L166.106 38.6619L166.335 38.1332L157.96 34.5039L157.569 35.4112L100.792 63.0486L98.9321 63.9494Z" fill="#7F5D8F"/>
<path d="M100.094 163.239L98.1488 162.391L97.9791 173.84L97.7898 174.271L117.777 182.978L120.114 183.246L120.29 171.568L119.135 171.549L100.094 163.239Z" fill="#E0CDAF"/>
<path d="M98.2921 152.979L98.1485 162.391L100.094 163.24L100.237 153.827L98.2921 152.979Z" fill="#E0CDAF"/>
<path d="M98.4425 143.193L98.2924 152.978L100.238 153.827L100.388 144.035L98.4425 143.193Z" fill="#E0CDAF"/>
<path d="M100.238 153.826L100.094 163.239L119.135 171.548L120.29 171.568L120.303 170.883L120.434 162.429L119.931 162.423L100.238 153.826Z" fill="#E0CDAF"/>
<path d="M100.388 144.035L100.237 153.826L119.931 162.423L120.434 162.43L120.44 161.744L120.577 152.638L120.075 152.632L100.388 144.035Z" fill="#E0CDAF"/>
<path d="M113.651 146.405L100.635 140.693L100.433 141.144L100.387 144.035L120.074 152.632L120.577 152.639V152.606L120.629 149.466L120.289 149.329L113.651 146.405Z" fill="#E0CDAF"/>
<path d="M107.17 67.8786V67.8851L115.532 71.5209L116.002 70.4504L117.862 69.5431L174.638 41.9188L174.71 41.7621L166.335 38.1328L166.107 38.6615L109.324 66.2989L107.464 67.1997L107.17 67.8786Z" fill="#7F5D8F"/>
<path d="M114.265 106.065L113.651 146.405L120.29 149.329L120.629 149.153L121.23 110.067L121.608 109.185L114.291 106L114.265 106.065Z" fill="#E0CDAF"/>
<path d="M116.002 70.452L115.532 71.5225L121.498 74.127L121.38 74.4011L121.765 74.5708L180.728 45.8172L181.257 44.6031L174.71 41.7637L174.638 41.9203L117.862 69.5447L116.002 70.452Z" fill="#7F5D8F"/>
<path d="M120.29 171.568L120.113 183.246L120.486 183.291L120.531 182.9L130.727 177.932L130.557 177.599L130.74 165.941L126.465 168.024L120.956 170.706L120.616 170.876L120.59 170.889L120.303 170.883L120.29 171.568Z" fill="#E0CDAF"/>
<path d="M120.434 162.431L120.303 170.884L120.591 170.891L120.617 170.878L120.956 170.708L126.465 168.025L130.741 165.943L130.878 156.805L126.602 158.887L121.1 161.57L120.754 161.739L120.728 161.753L120.44 161.746L120.434 162.431Z" fill="#E0CDAF"/>
<path d="M120.577 152.639L120.44 161.745L120.727 161.752L120.753 161.739L121.099 161.569L126.602 158.886L130.878 156.804L131.015 147.672L126.739 149.754L121.236 152.43L120.891 152.6L120.864 152.613L120.577 152.607V152.639Z" fill="#E0CDAF"/>
<path d="M132.986 146.712L142.856 141.914L144.827 140.955L155.349 135.831L157.321 134.878L157.366 131.992L157.086 131.418L126.139 146.477L120.629 149.153V149.466L120.577 152.606L120.864 152.613L120.891 152.6L121.237 152.43L126.739 149.754L131.015 147.671L132.986 146.712Z" fill="#E0CDAF"/>
<path d="M121.23 110.067L120.629 149.154L126.138 146.477L126.713 108.592L126.687 108.553L125.088 109.362L125.107 109.525L124.644 109.584L124.35 109.728L124.337 109.623L123.567 109.721L123.377 109.63L122.79 109.708L121.608 109.186L121.23 110.067Z" fill="#E0CDAF"/>
<path d="M123.377 109.629L123.567 109.721L124.337 109.623L124.324 109.512L123.377 109.629Z" fill="#FFFFC9"/>
<path d="M124.336 109.623L124.349 109.728L124.644 109.584L124.336 109.623Z" fill="#625B71"/>
<path d="M124.643 109.584L125.107 109.525L125.088 109.361L124.643 109.584Z" fill="#FFFFC9"/>
<path d="M126.688 108.552L126.714 108.591L126.139 146.476L157.086 131.417L173.536 123.415L173.314 122.958L173.895 85.118L173.744 84.8242L126.688 108.552Z" fill="#D3B25B"/>
<path d="M132.712 164.989L130.741 165.942L130.558 177.6L130.728 177.933L142.536 172.189L142.399 171.902L142.575 160.191L132.712 164.989Z" fill="#E0CDAF"/>
<path d="M130.877 156.803L130.74 165.941L132.712 164.988L132.849 155.85L130.877 156.803Z" fill="#E0CDAF"/>
<path d="M131.014 147.67L130.877 156.802L132.848 155.849L132.985 146.711L131.014 147.67Z" fill="#E0CDAF"/>
<path d="M132.849 155.85L132.712 164.989L142.575 160.191L142.712 151.053L132.849 155.85Z" fill="#E0CDAF"/>
<path d="M132.986 146.712L132.849 155.85L142.712 151.053L142.855 141.914L132.986 146.712Z" fill="#E0CDAF"/>
<path d="M144.547 159.225L142.575 160.191L142.399 171.901L142.536 172.189L155.141 166.059L154.899 165.563L155.075 154.107L144.547 159.225Z" fill="#E0CDAF"/>
<path d="M142.712 151.052L142.575 160.191L144.546 159.224L144.689 150.086L142.712 151.052Z" fill="#E0CDAF"/>
<path d="M142.856 141.915L142.712 151.053L144.69 150.087L144.827 140.955L142.856 141.915Z" fill="#E0CDAF"/>
<path d="M144.69 150.086L144.546 159.225L155.075 154.107L155.212 144.969L144.69 150.086Z" fill="#E0CDAF"/>
<path d="M144.827 140.954L144.69 150.086L155.213 144.969L155.35 135.83L144.827 140.954Z" fill="#E0CDAF"/>
<path d="M157.046 153.148L155.075 154.108L154.898 165.563L155.14 166.059L166.948 160.309L166.733 159.871L166.909 148.344L157.046 153.148Z" fill="#E0CDAF"/>
<path d="M155.212 144.969L155.075 154.108L157.047 153.148L157.184 144.01L155.212 144.969Z" fill="#E0CDAF"/>
<path d="M155.349 135.83L155.212 144.968L157.183 144.009L157.32 134.877L155.349 135.83Z" fill="#E0CDAF"/>
<path d="M167.19 130.065L169.161 129.112L174.141 126.691L179.272 124.19L179.285 120.803H178.907L173.534 123.414L157.085 131.416L157.366 131.991L157.32 134.876L167.19 130.065Z" fill="#E0CDAF"/>
<path d="M157.184 144.009L157.047 153.148L166.91 148.344L167.047 139.205L157.184 144.009Z" fill="#E0CDAF"/>
<path d="M157.32 134.877L157.183 144.009L167.046 139.205L167.189 130.066L157.32 134.877Z" fill="#E0CDAF"/>
<path d="M168.881 147.39L166.91 148.343L166.733 159.871L166.949 160.308L179.175 154.361L179.214 142.357L173.861 144.962L168.881 147.39Z" fill="#E0CDAF"/>
<path d="M167.047 139.205L166.91 148.343L168.881 147.39L169.024 138.252L167.047 139.205Z" fill="#E0CDAF"/>
<path d="M167.19 130.066L167.046 139.205L169.024 138.252L169.161 129.113L167.19 130.066Z" fill="#E0CDAF"/>
<path d="M169.025 138.251L168.881 147.39L173.862 144.962L179.214 142.357L179.24 133.277L173.999 135.823L169.025 138.251Z" fill="#E0CDAF"/>
<path d="M169.161 129.113L169.024 138.252L173.998 135.823L179.24 133.278L179.272 124.191L174.142 126.691L169.161 129.113Z" fill="#E0CDAF"/>
<path d="M173.744 84.8244L173.894 85.1182L173.313 122.958L173.535 123.415L178.907 120.804H179.286L179.403 82.0764L179.364 81.998L173.744 84.8244Z" fill="#E0CDAF"/>
<path d="M120.439 74.7598L120.192 75.3273" stroke="#603813" stroke-linecap="round" stroke-linejoin="round"/>
<path d="M121.766 74.5717L121.308 74.5586" stroke="#603813" stroke-linecap="round" stroke-linejoin="round"/>
<path d="M181.257 44.6035L180.728 45.8176" stroke="#603813" stroke-linecap="round" stroke-linejoin="round"/>
<path d="M182.301 45.0537L181.256 44.6033L174.709 41.7638L166.335 38.1345L157.96 34.5053L148.658 30.4778L139.35 26.4438L131.367 22.9842L123.651 19.6422L117.254 16.868L110.485 13.9371L104.101 11.1695L96.6666 7.9449L89.6169 4.89656L84.16 2.5336L81.5163 1.38477" stroke="#603813" stroke-linecap="round" stroke-linejoin="round"/>
<path d="M20.472 30.418L117.973 72.9185L120.715 74.113L121.381 74.4002L121.766 74.5699" stroke="#603813" stroke-linecap="round" stroke-linejoin="round"/>
<path d="M121.229 110.066L120.629 149.153V149.466L120.577 152.606V152.639L120.44 161.745L120.433 162.43L120.303 170.883L120.29 171.568L120.113 183.246V183.409" stroke="#603813" stroke-linecap="round" stroke-linejoin="round"/>
<path d="M180.728 45.8164L121.765 74.57" stroke="#603813" stroke-linecap="round" stroke-linejoin="round"/>
<path d="M79.2842 0.666016L22.5015 28.2969L20.6347 29.2042" stroke="#603813" stroke-linecap="round" stroke-linejoin="round"/>
<path d="M83.9258 3.08008L27.1497 30.7044L25.2893 31.6117" stroke="#603813" stroke-linecap="round" stroke-linejoin="round"/>
<path d="M89.3564 5.50391L32.5738 33.1348L30.7069 34.0421" stroke="#603813" stroke-linecap="round" stroke-linejoin="round"/>
<path d="M96.3271 8.72656L39.551 36.3574L37.6842 37.2648" stroke="#603813" stroke-linecap="round" stroke-linejoin="round"/>
<path d="M104.095 11.1895L47.3121 38.8203L45.4517 39.7276" stroke="#603813" stroke-linecap="round" stroke-linejoin="round"/>
<path d="M110.283 14.4062L53.5071 42.0371L51.6467 42.9444" stroke="#603813" stroke-linecap="round" stroke-linejoin="round"/>
<path d="M117.274 16.8535L117.255 16.8666L60.4918 44.4779L58.6314 45.3917" stroke="#603813" stroke-linecap="round" stroke-linejoin="round"/>
<path d="M123.469 20.0723L66.6861 47.6966L64.8258 48.6105" stroke="#603813" stroke-linecap="round" stroke-linejoin="round"/>
<path d="M131.224 23.3086L74.441 50.9395L72.5806 51.8468" stroke="#603813" stroke-linecap="round" stroke-linejoin="round"/>
<path d="M141.648 28.8008L85.0159 57.6784" stroke="#603813" stroke-linecap="round" stroke-linejoin="round"/>
<path d="M135.812 26.1035L79.18 54.9746" stroke="#603813" stroke-linecap="round" stroke-linejoin="round"/>
<path d="M148.267 31.377L91.4905 59.0013L89.6236 59.9086" stroke="#603813" stroke-linecap="round" stroke-linejoin="round"/>
<path d="M157.568 35.4121L100.792 63.0495L98.9319 63.9503" stroke="#603813" stroke-linecap="round" stroke-linejoin="round"/>
<path d="M166.106 38.6621L109.324 66.2995L107.463 67.2003" stroke="#603813" stroke-linecap="round" stroke-linejoin="round"/>
<path d="M174.638 41.9199L117.862 69.5443L116.001 70.4516" stroke="#603813" stroke-linecap="round" stroke-linejoin="round"/>
<path d="M183.731 47.5918L191.981 75.6339L179.364 81.9982L173.744 84.8246L126.687 108.552L125.088 109.361L124.644 109.583L124.35 109.727L124.337 109.623L124.324 109.512L121.387 85.2032L120.192 75.3271" stroke="#603813" stroke-linecap="round" stroke-linejoin="round"/>
<path d="M183.241 45.9277L183.73 47.5857" stroke="#603813" stroke-linecap="round" stroke-linejoin="round"/>
<path d="M16.4828 138.84L29.6618 144.578L45.2233 151.366L62.6713 158.964L79.5644 166.327L97.7892 174.271L117.776 182.979" stroke="#603813" stroke-linecap="round" stroke-linejoin="round"/>
<path d="M17.5206 104.197L22.1682 106.234L32.5861 110.816L48.128 117.637L60.5172 123.075L65.5499 125.288L68.9508 126.782L82.4235 132.696L100.635 140.692L113.651 146.404L120.289 149.328L120.629 149.465" stroke="#603813" stroke-linecap="round" stroke-linejoin="round"/>
<path d="M178.907 120.805L173.535 123.416L157.086 131.418L126.139 146.477L120.63 149.154L120.29 149.33L120.264 149.343" stroke="#603813" stroke-linecap="round" stroke-linejoin="round"/>
<path d="M179.508 124.074L179.273 124.192L174.142 126.692L169.162 129.113L167.19 130.066L157.321 134.877L155.35 135.83L144.827 140.954L142.856 141.914L132.986 146.712L131.015 147.671L126.74 149.753L121.237 152.43L120.891 152.599L120.865 152.612" stroke="#603813" stroke-linecap="round" stroke-linejoin="round"/>
<path d="M179.37 133.213L179.24 133.278L173.998 135.824L169.024 138.252L167.046 139.205L157.183 144.009L155.212 144.969L144.69 150.086L142.712 151.053L132.849 155.85L130.877 156.803L126.602 158.886L121.099 161.568L120.753 161.738L120.727 161.751" stroke="#603813" stroke-linecap="round" stroke-linejoin="round"/>
<path d="M179.227 142.352L179.214 142.358L173.861 144.963L168.88 147.391L166.909 148.344L157.046 153.148L155.075 154.108L144.546 159.225L142.575 160.191L132.712 164.989L130.74 165.942L126.465 168.024L120.956 170.707L120.616 170.877L120.59 170.89" stroke="#603813" stroke-linecap="round" stroke-linejoin="round"/>
<path d="M19.388 30.1504L1.04579 56.3387L1.00012 56.3974L17.4428 63.7996L22.8868 66.1821L61.3402 82.9317L69.6628 86.5675L114.291 106L121.609 109.185L122.79 109.707" stroke="#603813" stroke-linecap="round" stroke-linejoin="round"/>
<path d="M179.403 82.0762L179.286 120.804L179.273 124.192L179.24 133.278L179.214 142.358L179.175 154.362L166.949 160.308L155.141 166.059L142.536 172.188L130.728 177.932L120.532 182.9" stroke="#603813" stroke-linecap="round" stroke-linejoin="round"/>
<path d="M17.3516 64.0098L16.738 104.193L16.6858 107.737L16.5356 117.529L16.3986 126.7L16.2223 138.397" stroke="#603813" stroke-linecap="round" stroke-linejoin="round"/>
<path d="M22.7754 66.4297L22.1749 106.221" stroke="#603813" stroke-linecap="round" stroke-linejoin="round"/>
<path d="M114.265 106.064L113.651 146.404L113.638 147.024" stroke="#603813" stroke-linecap="round" stroke-linejoin="round"/>
<path d="M126.713 108.592L126.138 146.477L126.125 147.215" stroke="#603813" stroke-linecap="round" stroke-linejoin="round"/>
<path d="M173.895 85.1191L173.314 122.959" stroke="#603813" stroke-linecap="round" stroke-linejoin="round"/>
<path d="M17.2597 107.75L30.3473 113.462L32.2925 114.31L45.9089 120.257L47.8606 121.105L63.4221 127.9L65.3673 128.749L80.2826 135.263L82.2278 136.112L98.4421 143.194L100.387 144.036L120.074 152.633" stroke="#603813" stroke-linecap="round" stroke-linejoin="round"/>
<path d="M17.1096 117.541L30.1972 123.253L32.1424 124.101L45.7653 130.048L47.7105 130.896L63.272 137.691L65.2172 138.54L80.1325 145.054L82.0777 145.896L98.292 152.979L100.237 153.827L119.931 162.424" stroke="#603813" stroke-linecap="round" stroke-linejoin="round"/>
<path d="M16.3203 126.666L16.3986 126.699L30.0541 132.665L31.9993 133.513L45.6222 139.453L47.5673 140.308L63.1289 147.097L65.0741 147.952L79.9894 154.467L81.9346 155.309L98.1489 162.391L100.094 163.24L119.135 171.549" stroke="#603813" stroke-linecap="round" stroke-linejoin="round"/>
<path d="M61.125 83.4277L60.5179 123.076L60.5114 123.781" stroke="#603813" stroke-linecap="round" stroke-linejoin="round"/>
<path d="M69.5586 86.8145L68.9515 126.782L68.945 127.174" stroke="#603813" stroke-linecap="round" stroke-linejoin="round"/>
<path d="M169.207 126.295L169.161 129.115L169.024 138.253L168.881 147.392L168.711 158.599" stroke="#603813" stroke-linecap="round" stroke-linejoin="round"/>
<path d="M167.229 127.572L167.19 130.066L167.047 139.204L166.91 148.343L166.733 159.87" stroke="#603813" stroke-linecap="round" stroke-linejoin="round"/>
<path d="M157.366 131.992L157.321 134.877L157.183 144.009L157.046 153.148L156.877 164.29" stroke="#603813" stroke-linecap="round" stroke-linejoin="round"/>
<path d="M155.389 133.266L155.35 135.831L155.212 144.969L155.075 154.108L154.899 165.564" stroke="#603813" stroke-linecap="round" stroke-linejoin="round"/>
<path d="M144.866 138.33L144.827 140.954L144.69 150.086L144.546 159.225L144.377 170.628" stroke="#603813" stroke-linecap="round" stroke-linejoin="round"/>
<path d="M142.888 139.604L142.855 141.914L142.711 151.053L142.574 160.191L142.398 171.902" stroke="#603813" stroke-linecap="round" stroke-linejoin="round"/>
<path d="M133.031 144.023L132.986 146.713L132.848 155.851L132.711 164.99L132.535 176.328" stroke="#603813" stroke-linecap="round" stroke-linejoin="round"/>
<path d="M100.434 141.145L100.388 144.036L100.238 153.827L100.094 163.24L99.9245 174.526" stroke="#603813" stroke-linecap="round" stroke-linejoin="round"/>
<path d="M98.4814 140.465L98.4423 143.193L98.2922 152.978L98.1485 162.391L97.9788 173.84" stroke="#603813" stroke-linecap="round" stroke-linejoin="round"/>
<path d="M82.2734 133.037L82.2278 136.112L82.0776 145.896L81.934 155.309L81.7708 166.412" stroke="#603813" stroke-linecap="round" stroke-linejoin="round"/>
<path d="M80.3291 132.352L80.2834 135.263L80.1333 145.054L79.9897 154.467L79.82 165.733" stroke="#603813" stroke-linecap="round" stroke-linejoin="round"/>
<path d="M65.4131 125.596L65.3674 128.748L65.2173 138.54L65.0737 147.952L64.9105 158.977" stroke="#603813" stroke-linecap="round" stroke-linejoin="round"/>
<path d="M63.4688 124.916L63.4231 127.899L63.2729 137.69L63.1293 147.096L62.9596 158.291" stroke="#603813" stroke-linecap="round" stroke-linejoin="round"/>
<path d="M47.9004 118.148L47.8612 121.105L47.7111 130.897L47.5675 140.309L47.3978 151.53" stroke="#603813" stroke-linecap="round" stroke-linejoin="round"/>
<path d="M45.9551 117.469L45.9094 120.256L45.7658 130.047L45.6222 139.453L45.4459 150.844" stroke="#603813" stroke-linecap="round" stroke-linejoin="round"/>
<path d="M32.3389 111.385L32.2932 114.309L32.1431 124.1L31.9994 133.513L31.8297 144.76" stroke="#603813" stroke-linecap="round" stroke-linejoin="round"/>
<path d="M30.3867 110.699L30.3476 113.46L30.1974 123.252L30.0538 132.664L29.8841 144.081" stroke="#603813" stroke-linecap="round" stroke-linejoin="round"/>
<path d="M131.054 145.303L131.015 147.672L130.877 156.804L130.74 165.943L130.558 177.601" stroke="#603813" stroke-linecap="round" stroke-linejoin="round"/>
<path d="M181.152 48.918L188.874 74.8125" stroke="#603813" stroke-linecap="round" stroke-linejoin="round"/>
<path d="M178.006 50.4258L185.728 76.3269" stroke="#603813" stroke-linecap="round" stroke-linejoin="round"/>
<path d="M174.084 51.9258L181.806 77.8269" stroke="#603813" stroke-linecap="round" stroke-linejoin="round"/>
<path d="M170.153 53.4277L177.882 79.3288" stroke="#603813" stroke-linecap="round" stroke-linejoin="round"/>
<path d="M166.224 55.7129L173.946 81.6074" stroke="#603813" stroke-linecap="round" stroke-linejoin="round"/>
<path d="M162.287 57.998L170.003 83.8861" stroke="#603813" stroke-linecap="round" stroke-linejoin="round"/>
<path d="M158.346 60.2754L166.074 86.1699" stroke="#603813" stroke-linecap="round" stroke-linejoin="round"/>
<path d="M154.416 62.5605L162.138 88.4486" stroke="#603813" stroke-linecap="round" stroke-linejoin="round"/>
<path d="M150.486 64.0547L158.208 89.9558" stroke="#603813" stroke-linecap="round" stroke-linejoin="round"/>
<path d="M147.347 65.5703L155.062 91.4714" stroke="#603813" stroke-linecap="round" stroke-linejoin="round"/>
<path d="M143.417 67.0703L151.139 92.9649" stroke="#603813" stroke-linecap="round" stroke-linejoin="round"/>
<path d="M139.48 69.3555L147.209 95.2435" stroke="#603813" stroke-linecap="round" stroke-linejoin="round"/>
<path d="M136.322 71.6465L144.044 97.541" stroke="#603813" stroke-linecap="round" stroke-linejoin="round"/>
<path d="M133.351 74.2109L141.073 100.105" stroke="#603813" stroke-linecap="round" stroke-linejoin="round"/>
<path d="M130.023 75.4512L136.185 101.326" stroke="#603813" stroke-linecap="round" stroke-linejoin="round"/>
<path d="M126.882 76.9648L132.248 103.604" stroke="#603813" stroke-linecap="round" stroke-linejoin="round"/>
<path d="M122.966 77.6895L128.325 105.105" stroke="#603813" stroke-linecap="round" stroke-linejoin="round"/>
<path d="M116.948 75.2754L116.635 104.146" stroke="#603813" stroke-linecap="round" stroke-linejoin="round"/>
<path d="M113.253 73.6641L109.663 100.923" stroke="#603813" stroke-linecap="round" stroke-linejoin="round"/>
<path d="M109.82 72.4297L104.997 99.2903" stroke="#603813" stroke-linecap="round" stroke-linejoin="round"/>
<path d="M106.21 71.209L100.355 96.8751" stroke="#603813" stroke-linecap="round" stroke-linejoin="round"/>
<path d="M103.031 70.2559L96.4646 96.0329" stroke="#603813" stroke-linecap="round" stroke-linejoin="round"/>
<path d="M99.6172 68.3828L91.8168 93.6246" stroke="#603813" stroke-linecap="round" stroke-linejoin="round"/>
<path d="M95.3545 66.3652L87.1625 91.9922" stroke="#603813" stroke-linecap="round" stroke-linejoin="round"/>
<path d="M90.7344 65.0859L82.562 89.1593" stroke="#603813" stroke-linecap="round" stroke-linejoin="round"/>
<path d="M86.6211 63.3047L78.4487 87.365" stroke="#603813" stroke-linecap="round" stroke-linejoin="round"/>
<path d="M82.7441 61.6797L74.5717 85.7466" stroke="#603813" stroke-linecap="round" stroke-linejoin="round"/>
<path d="M78.8604 60.0527L70.6945 84.1261" stroke="#603813" stroke-linecap="round" stroke-linejoin="round"/>
<path d="M74.9893 58.4336L66.8168 82.507" stroke="#603813" stroke-linecap="round" stroke-linejoin="round"/>
<path d="M70.3418 56.0332L62.1694 80.0935" stroke="#603813" stroke-linecap="round" stroke-linejoin="round"/>
<path d="M66.4512 55.1836L58.2787 79.257" stroke="#603813" stroke-linecap="round" stroke-linejoin="round"/>
<path d="M61.8105 52.7812L53.6381 76.8416" stroke="#603813" stroke-linecap="round" stroke-linejoin="round"/>
<path d="M57.6719 51.1816L49.4995 75.242" stroke="#603813" stroke-linecap="round" stroke-linejoin="round"/>
<path d="M53.3506 49.1133L45.1847 73.1736" stroke="#603813" stroke-linecap="round" stroke-linejoin="round"/>
<path d="M49.4736 47.4941L41.3077 71.5545" stroke="#603813" stroke-linecap="round" stroke-linejoin="round"/>
<path d="M45.6025 45.8691L37.4301 69.936" stroke="#603813" stroke-linecap="round" stroke-linejoin="round"/>
<path d="M41.7188 44.25L32.9066 67.7555" stroke="#603813" stroke-linecap="round" stroke-linejoin="round"/>
<path d="M37.9268 42.0176L28.2595 65.3468" stroke="#603813" stroke-linecap="round" stroke-linejoin="round"/>
<path d="M33.918 40.4785L24.3356 63.1942" stroke="#603813" stroke-linecap="round" stroke-linejoin="round"/>
<path d="M29.3164 38.6035L19.721 62.096" stroke="#603813" stroke-linecap="round" stroke-linejoin="round"/>
<path d="M25.4395 36.9844L15.844 60.4768" stroke="#603813" stroke-linecap="round" stroke-linejoin="round"/>
<path d="M22.3447 35.3652L11.1892 58.8446" stroke="#603813" stroke-linecap="round" stroke-linejoin="round"/>
<path d="M19.2578 32.9844L5.77201 55.6348" stroke="#603813" stroke-linecap="round" stroke-linejoin="round"/>
</svg>
