<svg width="57" height="144" viewBox="0 0 57 144" fill="none" xmlns="http://www.w3.org/2000/svg">
<path d="M36.0247 124.768C35.158 122.682 32.9172 121.428 30.6764 121.118C28.4355 120.808 26.1736 121.28 23.9609 121.752C20.3038 122.534 16.6466 123.309 12.9823 124.091C10.0509 124.719 7.02795 125.381 4.58278 127.107C2.13761 128.834 0.397095 131.934 1.16518 134.83C2.1517 138.53 6.44308 140.13 10.1919 140.912C17.323 142.399 24.6445 142.962 31.9166 142.582C36.7083 142.328 42.261 141.13 44.2974 136.789C45.8266 133.527 44.6709 129.51 42.3949 126.713C40.1188 123.915 36.8985 122.083 33.7557 120.314" fill="#D3B25B"/>
<path d="M33.5229 120.731C33.5017 120.647 33.6005 120.548 33.7275 120.647L33.7134 120.908L33.5229 120.731Z" fill="#C6B08D"/>
<path d="M34.686 120.892C34.7986 121.082 34.8902 121.364 34.6719 121.491C34.6226 121.202 34.531 121.258 34.4888 120.927C34.362 120.822 34.2071 120.85 34.186 120.941C34.1649 120.864 33.9395 120.864 33.9395 120.695C34.2142 120.638 34.4465 120.765 34.6155 121.033C34.693 121.019 34.6719 120.934 34.6789 120.892H34.686Z" fill="#C6B08D"/>
<path d="M45.2207 132.216C45.2207 132.216 45.1925 132.152 45.1784 132.117C45.1995 132.145 45.2136 132.181 45.2207 132.216Z" fill="#C6B08D"/>
<path d="M40.9504 140.87C41.0209 140.835 41.0562 140.835 41.0703 140.856C40.9997 140.884 40.9433 140.899 40.9504 140.87Z" fill="#C6B08D"/>
<path d="M39.4708 141.857C39.4708 141.857 39.5343 141.822 39.5625 141.801C39.5343 141.836 39.499 141.864 39.4708 141.857Z" fill="#C6B08D"/>
<path d="M45.2203 132.217L45.3262 132.478C45.2556 132.506 45.2556 132.344 45.2203 132.217Z" fill="#C6B08D"/>
<path d="M36.2859 122.479C36.2436 122.443 36.2153 122.401 36.1942 122.352L36.293 122.443L36.2789 122.479H36.2859Z" fill="#C6B08D"/>
<path d="M43.875 127.954L43.8327 127.883C43.8327 127.883 43.8609 127.813 43.875 127.777V127.961V127.954Z" fill="#C6B08D"/>
<path d="M41.7755 125.213C41.839 125.262 41.7119 125.418 41.6767 125.502C41.7049 125.418 41.6908 125.347 41.6555 125.291C41.6837 125.262 41.719 125.241 41.7825 125.213H41.7755Z" fill="#C6B08D"/>
<path d="M37.335 122.19L37.2715 122.119C37.2715 122.119 37.3138 122.169 37.335 122.19Z" fill="#C6B08D"/>
<path d="M44.9605 130.188C44.9605 130.188 45.0169 130.187 45.0381 130.195C45.0169 130.202 44.9887 130.195 44.9605 130.188Z" fill="#C6B08D"/>
<path d="M32.9811 122.831C32.9811 122.831 32.9951 122.81 32.9951 122.803C32.9951 122.831 32.9951 122.845 32.9811 122.831Z" fill="#C6B08D"/>
<path d="M36.0677 124.748L36.0536 124.691C36.0536 124.691 36.1171 124.649 36.1523 124.635L36.0677 124.741V124.748Z" fill="#C6B08D"/>
<path d="M36.4624 142.998C36.4624 142.998 36.4695 142.998 36.4765 142.998C36.5612 142.998 36.5189 143.012 36.4624 142.998Z" fill="#C6B08D"/>
<path d="M8.03567 141.229C8.40261 141.144 7.58406 140.869 8.11329 140.812C8.04273 140.876 8.45906 141.229 8.03567 141.229Z" fill="#C6B08D"/>
<path d="M36.3705 122.498L36.4834 122.569C36.4269 122.54 36.3917 122.519 36.3705 122.498Z" fill="#C6B08D"/>
<path d="M29.239 143.527C29.2531 143.492 29.2813 143.464 29.3096 143.436C29.3096 143.457 29.2884 143.478 29.239 143.527Z" fill="#C6B08D"/>
<path d="M34.5596 142.914L34.4326 142.956C34.4819 142.935 34.5243 142.921 34.5596 142.914Z" fill="#C6B08D"/>
<path d="M26.4697 143.259C26.3992 143.273 26.3709 143.301 26.2792 143.273C26.2863 143.266 26.3004 143.259 26.3074 143.252C26.3427 143.28 26.3921 143.294 26.4697 143.266V143.259Z" fill="#C6B08D"/>
<path d="M23.6018 143.174C23.6018 143.174 23.6371 143.153 23.6583 143.139C23.6865 143.139 23.7218 143.146 23.75 143.153L23.6018 143.174Z" fill="#C6B08D"/>
<path d="M25.1307 122.358C25.1801 122.294 25.2083 122.224 25.2224 122.16C25.2083 122.308 25.6246 122.273 25.1307 122.358Z" fill="#C6B08D"/>
<path d="M36.3419 122.387C36.3278 122.436 36.3419 122.471 36.3701 122.5L36.2925 122.443C36.2925 122.443 36.3137 122.387 36.3419 122.387Z" fill="#C6B08D"/>
<path d="M26.3789 141.695L25.9273 141.716C26.0543 141.702 26.2166 141.695 26.3789 141.695Z" fill="#C6B08D"/>
<path d="M5.65414 127.376L5.75293 127.348C5.75293 127.348 5.68942 127.383 5.65414 127.376Z" fill="#C6B08D"/>
<path d="M24.6023 141.652C24.5176 141.715 24.433 141.757 24.3483 141.779C24.3271 141.764 24.313 141.75 24.2989 141.722L24.6094 141.645L24.6023 141.652Z" fill="#C6B08D"/>
<path d="M28.1328 122.189C27.7311 122.232 27.9214 121.95 27.8228 121.809C27.3224 121.788 27.6184 122.027 27.4634 122.175C27.1533 122.147 26.8856 121.943 26.653 121.992C26.646 122.034 26.6037 122.062 26.6601 122.105C26.3007 121.95 25.6947 122.26 25.2578 122.084C25.2366 122.112 25.2226 122.133 25.2226 122.154C25.2578 122.013 25.2437 121.879 25.2085 121.795C25.0182 121.83 24.8279 121.703 24.7857 121.886C24.8984 121.858 24.9266 121.921 24.99 121.964L24.7786 121.929C24.6518 122.203 25.0675 121.957 25.1028 122.133C24.7011 122.133 24.2078 122.034 23.926 122.161C23.9119 122.408 24.6377 122.091 24.2854 122.387L24.7222 122.203C24.4545 122.647 24.99 122.119 24.7575 122.584C24.1726 122.774 24.0599 122.605 23.475 122.802C23.3129 122.704 23.475 122.598 23.3129 122.499C22.4039 122.45 22.7633 123.232 22.0727 123.056C21.8754 122.936 21.7486 122.654 21.3328 122.901L21.5442 123.133C20.9664 123.281 21.1285 122.823 20.5577 123.133C20.6916 123.211 21.0369 123.126 20.9523 123.176C20.6 123.472 20.6423 123.084 20.3322 123.148L20.3181 123.394C19.691 123.493 18.9652 123.465 18.2676 123.57C18.3239 123.634 18.4508 123.683 18.3098 123.789C17.4149 123.859 16.4636 124.212 15.6533 124.529L15.2868 124.395C15.2164 124.416 15.167 124.515 15.2587 124.536C14.9486 124.684 15.2164 124.409 15.0402 124.367C14.85 124.395 14.8218 124.536 14.9486 124.571C14.3355 124.522 13.2292 124.55 12.6655 124.895L12.7994 124.93C12.3484 125.114 12.1793 124.627 11.7847 124.916L11.8763 124.93C10.8827 125.24 9.72002 125.339 9.07174 125.875C8.83215 125.628 8.16272 126.311 7.96542 125.952C7.50034 126.354 7.66946 126.354 7.00003 126.798C6.81682 126.903 6.60542 126.699 6.3447 126.777L6.43631 126.974L6.01351 126.939L5.97123 127.256L5.73165 127.333C5.80916 127.27 5.85848 127.143 5.8162 127.094C5.42864 127.206 5.1045 127.721 5.16792 127.819C4.8931 127.939 4.62533 128.059 4.3646 128.214C4.43507 128.27 4.56895 128.193 4.68875 128.165C4.19548 128.299 4.77331 128.39 4.32233 128.517C4.32937 128.44 4.20958 128.44 4.17435 128.418C4.10388 128.658 3.76564 128.996 3.49788 129.243L3.65289 129.285C3.27238 129.793 2.77912 130.314 2.47611 130.962C2.52544 130.709 2.27176 130.638 2.15197 130.821L2.32814 130.997C2.14492 131.068 2.34223 130.758 2.06741 130.948C1.98285 131.216 2.23653 131.216 2.36337 131.11C2.29995 131.202 2.22243 131.286 2.16606 131.378C2.22243 131.42 2.27881 131.364 2.37041 131.378C2.19425 131.456 2.3986 131.956 2.13083 132.069L2.19425 132.104C2.04627 132.759 1.92648 133.055 1.93353 133.605C1.72918 133.626 1.79259 133.837 1.65871 134.028C1.70099 134.239 1.82783 134.436 1.91239 134.655C2.03923 134.859 2.12378 135.077 2.22243 135.303C2.28585 135.662 2.11674 135.465 2.07446 135.662C2.23653 135.62 2.47611 136.057 2.45498 135.768C2.61 136.022 2.68047 136.205 2.8073 136.381C2.92005 136.564 3.03279 136.776 3.26534 137.107C3.15259 137.1 3.06098 137.051 3.05394 137.128C3.13849 137.255 3.34285 137.318 3.38512 137.241L3.37104 137.198C3.61062 137.607 4.11797 137.84 4.60419 138.009C5.0904 138.185 5.55548 138.312 5.80211 138.636L5.77393 138.601C5.97828 138.763 6.17558 138.946 6.40107 139.094C6.74636 139.2 6.2531 138.89 6.54201 138.883C7.20439 139.482 7.7963 139.305 8.39526 139.693C9.05059 139.341 10.2415 140.207 11.0659 140.01L10.9955 140.123C11.1646 140.285 11.2421 140.102 11.383 140.102C11.3478 140.193 11.1575 140.172 11.2632 140.264C12.8487 140.729 14.6315 140.687 16.3016 140.799C16.9146 140.842 16.5623 141.497 17.3726 141.293L17.1824 141.039C18.3803 141.469 19.7051 141.314 20.8889 141.645C20.8184 141.589 20.8255 141.518 20.7057 141.504C20.9735 141.363 21.6499 141.567 21.6499 141.701C21.8402 141.701 21.6992 141.581 21.8261 141.518C22.0868 141.434 22.4532 141.779 22.6012 141.617C22.6294 141.589 22.5308 141.56 22.4885 141.539C22.6505 141.631 23.2706 141.56 23.1015 141.744C23.5596 141.68 23.9683 141.877 24.3417 141.772C24.5743 141.997 25.1239 141.694 25.1944 142.004C25.1732 141.687 25.9977 141.765 26.2866 141.92C26.1879 141.821 26.5403 141.828 26.4275 141.687C26.7587 141.694 27.0547 141.751 26.9983 141.92C27.6043 141.546 28.2174 142.23 28.5556 141.729C29.5351 141.892 30.4441 141.976 31.332 142.011C31.2826 141.694 30.3595 142.025 30.3807 141.687C31.2122 141.779 31.7195 142.04 32.5299 141.906C32.7413 141.849 32.403 141.779 32.3255 141.729C33.157 141.814 33.904 141.567 34.6509 141.638C34.6509 141.61 34.5593 141.589 34.4888 141.574C34.6298 141.567 34.813 141.476 34.82 141.624L34.6791 141.61C34.4818 141.856 35.3133 141.955 35.3556 142.061C35.0455 141.701 36.0532 141.835 35.5811 141.384C35.6797 141.391 35.8066 141.441 35.8066 141.539C35.9404 141.483 35.9686 141.419 35.8066 141.342C36.321 141.314 36.18 141.518 36.631 141.405C36.6169 141.335 36.5183 141.335 36.4548 141.264C36.7085 141.342 36.9763 141.419 37.3427 141.264C37.3075 141.229 37.3427 141.166 37.2229 141.201C37.8712 141.039 38.4349 141.222 39.0903 140.827C38.7802 140.63 39.2805 140.637 39.2171 140.377L39.6047 140.299L39.5131 140.475C39.8302 140.348 40.1754 140.355 40.408 140.151L40.1261 140.172C40.3234 140.088 40.5278 140.01 40.711 139.904C40.6264 139.996 40.5419 140.095 40.4432 140.172C40.8167 140.123 40.5771 140.489 40.9435 140.179C40.8449 140.207 41.2465 139.989 41.317 139.763C41.5002 139.728 41.6975 139.693 41.8666 139.482C41.8666 139.376 41.6411 139.284 41.6482 139.214C41.9371 139.305 42.2824 138.742 42.6065 138.77C42.5149 138.777 42.4163 138.685 42.4092 138.65C42.4867 138.664 42.5642 138.671 42.6347 138.678C42.6981 138.516 42.6911 138.481 42.5995 138.425C42.8884 138.051 42.7475 138.763 43.0152 138.241C42.973 138.263 42.9659 138.234 42.8884 138.284C43.0575 138.058 43.2266 137.847 43.4098 137.635C43.6001 137.438 43.741 137.213 43.8256 136.959C43.6635 136.698 43.5508 137.325 43.4451 137.065C43.8608 136.48 44.3893 135.81 44.4739 135.07V135.211C44.6641 135.204 44.65 135.056 44.6148 134.873C44.5725 134.69 44.495 134.478 44.6148 134.309C44.5725 134.394 44.3964 134.401 44.4386 134.387C44.4316 133.894 44.6078 133.393 44.6359 132.611L44.5514 132.717C44.4457 132.435 44.3964 131.956 44.2907 131.653C44.3611 131.54 44.2977 131.364 44.4668 131.441C44.0863 131.019 44.0229 130.568 43.9313 130.103C43.8467 129.645 43.741 129.179 43.3323 128.898C43.3817 128.989 43.3746 129.158 43.3323 129.081C43.2407 128.848 43.1562 128.609 43.0505 128.383C43.2196 128.348 43.1843 128.418 43.3817 128.489C43.4169 128.362 43.3676 128.137 43.2689 127.967C43.3535 128.32 43.0434 128.101 42.8954 128.024C42.9518 128.024 42.973 127.946 43.0223 127.925C42.5572 127.756 43.2548 127.686 42.7827 127.34L42.7263 127.411C42.6488 127.221 42.6136 127.002 42.4585 126.84C42.2542 126.882 42.522 127.065 42.4092 127.171C42.2401 126.925 42.3035 126.467 41.9794 126.375C42.0287 126.509 42.1485 126.657 42.1908 126.791C41.8244 126.699 41.8455 126.643 41.6764 126.495L41.6975 126.509L41.2747 126.199L41.4086 126.255C41.5002 125.635 40.9294 125.628 40.7674 125.043C40.9365 125.614 40.711 125.226 40.5912 125.41C40.4503 125.36 40.26 125.276 40.2671 125.36C40.2036 125.064 39.8724 125.198 39.7738 124.782C39.7174 124.825 39.5694 124.62 39.499 124.789C39.2876 124.55 39.6329 124.74 39.6681 124.663C39.4285 124.169 38.59 124.176 38.2024 123.514C37.7726 123.056 37.8007 122.802 37.3779 122.394C37.1525 122.379 37.3779 122.69 37.3779 122.69C37.0608 122.605 36.8706 122.464 36.6662 122.246C36.6874 122.33 36.6099 122.337 36.4901 122.358C36.2998 122.224 36.4901 122.062 36.1659 121.985C36.1659 122.076 36.1659 122.217 36.2223 122.344C36.018 122.147 35.8488 121.893 35.6304 121.696C35.5035 121.759 35.6868 121.943 35.7361 122.062C35.4824 121.851 35.0667 121.548 35.0737 121.33L35.2851 121.372C35.1865 121.301 35.1512 121.485 35.2076 121.555C35.3767 121.823 35.5881 121.703 35.6374 121.647L35.4824 121.506C35.87 121.266 36.1659 121.985 36.5253 122.175V121.837L36.7649 122.267C36.8847 122.253 37.0186 122.147 36.8706 121.999C37.2018 122.034 37.0397 122.224 37.3427 122.224C37.3779 122.224 37.3779 122.196 37.3639 122.175L37.5612 122.408C37.5471 122.323 37.7162 122.26 37.54 122.196C38.0756 122.337 38.1249 122.845 38.4138 122.774L38.3856 122.732C38.9282 123.225 38.3222 122.95 38.6252 123.465L39.2382 123.246L39.1678 123.465C39.2312 123.507 39.358 123.577 39.3933 123.493C39.5272 123.782 39.3017 123.542 39.3439 123.747C39.7527 123.81 40.0697 124.43 40.3446 124.226C40.3446 124.437 39.9993 124.099 40.2177 124.437C40.5419 124.233 40.5207 124.768 40.8731 124.867C40.9294 124.656 40.6264 124.515 40.9858 124.62C40.9224 124.987 41.5143 125.015 41.6693 125.262C41.5002 125.452 42.0287 125.776 42.2753 126.192C42.3247 126.107 42.9659 126.777 43.29 127.101L43.3182 127.065C43.1562 127.291 43.4592 127.629 43.579 127.946C43.7058 127.855 43.7269 127.77 43.6917 127.58L43.8538 127.855C43.8185 127.96 43.8397 128.066 43.9101 128.256L44.037 128.094C44.2343 128.475 44.2343 128.947 44.5725 129.391C44.4175 129.482 43.9454 129.208 44.0511 129.757C44.1497 129.736 44.3118 129.694 44.2907 129.546C44.2907 129.595 44.2766 129.736 44.3541 129.814L44.4246 129.539C44.5796 129.736 44.347 129.708 44.4246 129.884C44.5514 129.828 44.5725 129.983 44.6641 129.919C44.6641 129.87 44.5514 129.778 44.5725 129.687C44.6712 129.884 44.8544 130.103 44.9742 130.159C44.8967 130.159 44.798 130.222 44.8262 130.377C44.946 130.779 45.0306 130.462 45.1715 130.68C45.1081 130.807 45.2701 131.047 45.0728 131.103C45.101 131.223 45.2067 131.223 45.2701 131.258C45.242 131.491 45.4393 132.28 45.1785 132.069L45.1574 132.019C45.1574 132.019 45.1574 132.04 45.1574 132.054C45.0587 132.773 45.4181 133.513 45.2772 134.239H45.3477C45.2842 134.45 45.242 134.683 45.1926 134.901C45.1292 135.113 45.0587 135.31 44.953 135.437C44.9319 135.557 44.9953 135.754 45.094 135.726C44.939 136.022 44.8896 136.043 44.8051 136.515C45.0447 136.247 44.8685 136.663 45.0094 136.226C44.9037 136.642 44.9883 136.804 44.6007 137.128C44.8333 137.065 44.643 137.523 44.495 137.678L44.5302 137.346C44.3893 137.537 44.3259 137.727 44.2132 137.903L44.4739 137.938C44.3259 138.382 44.0088 138.685 43.6706 138.89C43.3464 139.115 43.0716 139.312 42.973 139.707C42.6911 139.742 43.2548 139.298 42.9659 139.298C42.6981 139.587 42.5924 140.137 42.4797 140.207C42.0992 140.651 41.8666 140.264 41.4297 140.63C41.4509 140.517 41.3804 140.299 40.9929 140.447C40.6828 140.68 40.7392 140.983 40.9929 140.933C41.0845 140.898 41.1056 140.842 41.0915 140.82C41.2183 140.778 41.3804 140.722 41.2888 140.884L41.2043 140.842C41.0845 141.032 40.5701 141.264 40.7533 141.328C40.4432 141.398 40.5771 141.264 40.7533 141.123C40.3516 141.476 40.0345 141.483 39.5765 141.765C39.6399 141.687 39.6681 141.567 39.5906 141.603C38.9141 141.99 39.2171 141.574 38.7238 141.722C38.4913 141.941 38.9212 141.976 38.3927 142.047C38.1108 142.216 38.3927 142.279 38.5406 142.307C38.0333 142.286 37.7091 142.674 37.4414 142.758H37.7091C37.5541 142.758 37.4273 142.793 37.3075 142.822L37.4061 142.624C37.2722 142.688 37.1454 142.716 37.1665 142.786C36.9904 142.716 37.2159 142.49 36.8847 142.413C36.7156 142.547 36.2857 142.448 36.2646 142.681C36.8495 142.483 36.2434 142.913 36.7649 142.843C36.6592 142.843 36.5394 142.864 36.3985 142.92C36.3844 142.949 36.4267 142.963 36.4689 142.963C35.9193 143.273 36.1518 142.772 35.5529 142.885C35.6515 142.998 35.4542 143.139 35.3485 143.132C35.5952 143.089 35.4331 142.906 35.1935 142.85C34.82 143.005 34.7637 142.85 34.5664 142.878L34.7918 142.801C34.7002 142.688 34.51 142.73 34.2352 142.723C34.2211 142.822 34.4888 142.758 34.3972 142.815C34.0731 142.631 33.7489 143.125 33.3191 143.012C33.1359 143.118 33.3191 143.244 33.157 143.322C32.6779 143.202 32.6638 143.533 32.1564 143.435C32.2903 143.259 32.3114 143.294 31.9591 143.153L32.7765 143.216L32.241 143.005C32.4806 142.984 32.7624 143.075 32.9034 143.04C32.6497 142.92 32.6779 142.963 32.7836 142.815C32.4735 143.089 32.1212 142.716 31.7477 142.899L31.7829 143.315C31.2192 143.526 30.7541 143.153 30.0142 143.273L30.2538 143.195C30.1481 143.033 29.7958 143.188 29.5492 143.125C29.5774 143.266 29.4223 143.315 29.3237 143.407C29.3307 143.308 28.774 143.421 28.7036 143.146L28.3724 143.336C27.7664 143.421 27.6818 142.949 27.104 142.991C27.2802 143.146 27.0124 143.237 27.4 143.35C27.2097 143.35 27.0335 143.378 27.0335 143.28C26.9208 143.364 26.498 143.089 26.3218 143.216C26.2443 143.153 26.2161 143.005 25.9977 143.012C25.9765 143.04 25.9977 143.082 25.9977 143.082C25.9977 143.012 25.6594 142.984 25.8497 142.829C25.2437 143.259 24.1937 142.751 23.6653 143.104C23.2495 143.033 22.7421 142.963 22.3616 142.934C22.3828 142.977 22.3616 143.005 22.4321 142.991C21.8966 143.089 22.1361 142.568 21.5301 142.674C21.206 142.878 21.8402 142.815 21.6429 142.892C21.5301 143.343 20.9241 142.786 20.5013 143.012L20.6 143.047C20.2758 143.174 19.8601 142.815 19.3598 142.793C19.3598 142.793 19.3809 142.836 19.3598 142.864C19.0356 142.596 18.4014 142.462 17.9223 142.335C18.0491 142.533 18.1337 142.455 18.0209 142.624C17.8095 142.575 18.1196 142.343 17.6897 142.237C17.5418 142.314 17.2176 142.364 17.1542 142.554L17.5629 142.61C17.3233 142.836 17.0344 142.54 16.816 142.554L16.83 142.667C16.2099 142.547 16.2381 142.272 15.5687 142.202L15.6462 142.131C15.3221 141.807 15.3221 142.237 14.9838 141.983L14.8359 142.244C14.6033 142.145 14.0325 141.849 13.6168 141.722C13.8282 141.969 14.3144 142.152 14.6104 142.321C14.3708 142.293 13.8 142.173 13.7014 142.018C13.793 142.061 13.9057 142.145 14.0044 142.124C13.7436 141.856 13.3843 141.687 12.9121 141.617C12.9051 142.166 11.6578 141.525 11.235 141.87C10.4458 141.504 9.55795 141.631 8.57143 141.342C9.02241 141.025 8.28956 141.257 8.45868 140.849C8.24023 140.757 8.15568 140.743 8.12749 140.764C7.87381 140.785 7.62719 140.792 7.3735 140.799C7.16916 140.87 7.55671 140.954 7.50739 141.046C7.00003 140.919 7.23962 141.159 6.87319 141.152C6.99298 141.032 6.77454 140.884 6.47153 140.835L6.93661 140.792C6.33061 140.334 6.21082 140.912 5.60481 140.419L5.77393 140.63C5.44978 140.426 4.46325 140.024 4.30823 139.531C4.22367 139.538 4.08979 139.594 4.21663 139.707C3.35694 139.277 2.70865 138.241 2.07446 137.84L2.04627 137.967C1.94057 137.812 1.97581 137.614 1.75736 137.502C1.72918 137.537 1.72213 137.628 1.66575 137.565C1.63757 137.459 1.49663 137.086 1.33456 136.91L1.34866 137.149C1.03156 136.783 0.890629 136.416 0.841301 136.057C0.763786 135.705 0.806068 135.352 0.714462 134.979C0.411457 135.077 0.129593 134.338 0.0661736 133.95L0.0238953 133.964C-0.109989 132.787 0.340988 132.012 0.756741 131.124C0.693321 130.779 0.848347 130.258 1.11612 129.743C1.3698 129.222 1.72213 128.707 1.96171 128.263C1.91239 128.418 2.16606 128.39 2.29995 128.277C2.39155 128.052 2.87777 127.953 2.64523 127.784L2.59591 127.848C2.5043 127.524 2.90596 127.228 3.18077 126.974L3.47673 127.213C3.65289 126.685 4.22367 126.34 4.72398 126.079C5.23838 125.825 5.71051 125.642 5.83735 125.318C6.08398 125.297 6.33765 125.177 6.58429 125.17L6.49268 124.994C7.04936 124.698 7.33827 124.55 8.09226 124.345L7.89495 124.261C8.3107 124.106 8.59961 124.634 8.97308 124.529L9.00127 124.212C9.72002 124.007 10.3965 123.563 11.1646 123.669C11.1434 123.627 11.1012 123.549 10.9814 123.563C11.3196 123.472 12.2498 123.07 12.2145 123.5C12.1652 123.239 12.9474 123.317 13.3561 123.352L13.2574 123.176C13.6379 123.352 13.6591 123.415 14.1242 123.387C14.2299 123.338 14.1876 123.211 14.0537 123.296C14.3919 123.119 14.3708 123.415 14.7865 123.225L14.5963 123.133C14.9627 123.042 14.9486 123.112 15.1811 123.211C15.4278 123.239 15.8717 123.014 15.8858 122.83C15.9563 122.929 16.1888 123.028 16.4002 122.929C16.4143 122.859 16.3297 122.83 16.2804 122.823C16.8723 122.563 17.2458 122.852 17.6263 122.57C17.6263 122.506 17.6404 122.464 17.6756 122.443C17.1894 122.549 16.7948 122.647 16.8371 122.654C16.8019 122.478 17.1894 122.365 16.823 122.182C17.1683 122.246 17.7743 122.422 18.1407 122.26C18.1548 122.239 18.1689 122.217 18.1759 122.189L18.1337 122.175C18.2182 122.14 18.3028 122.14 18.3803 122.154C18.5001 122.098 18.5706 122.062 18.6904 122.034C18.7044 121.879 19.1272 121.858 19.3245 121.809C19.3527 122.006 19.5994 121.921 19.395 122.133C19.4232 122.112 19.3527 122.119 19.2188 122.133C19.1907 122.133 19.1554 122.133 19.1272 122.133L19.1413 122.147C19.0145 122.168 18.8383 122.203 18.6481 122.239C18.8242 122.302 19.0074 122.351 19.1977 122.196C19.3245 122.302 19.4655 122.401 19.543 122.45C19.7544 122.119 20.2477 121.865 20.2829 121.682C20.91 121.661 21.7204 121.449 22.1714 121.731C22.3546 121.738 22.3475 121.583 22.3969 121.513C22.2912 121.499 22.1714 121.527 22.108 121.485C22.4673 121.506 23.1297 121.301 23.2636 121.541C23.6723 121.337 22.9747 121.358 23.5736 121.273L23.475 121.21C24.5602 120.554 25.5044 121.442 26.7305 120.709C26.646 120.759 26.5966 120.78 26.5896 120.822C27.3295 120.59 28.1328 120.554 28.9291 120.576C29.7324 120.604 30.5075 120.667 31.3179 120.646C31.7759 120.667 31.7829 120.85 32.0084 121.041L32.1635 120.864C32.2903 120.991 32.4101 121.111 32.5228 121.245C32.7906 121.442 33.0936 121.428 33.4178 121.47C33.7419 121.513 34.0942 121.604 34.3479 121.985L34.1788 122.041C34.4536 122.175 34.8694 122.682 34.9398 122.527C34.9398 122.57 34.9116 122.704 35.0526 122.725L35.1371 122.647C35.271 122.873 35.3979 123.091 35.4965 123.324C35.9123 123.732 35.7995 122.957 36.321 123.69C36.476 124.007 36.4478 124.67 36.328 124.585C36.2716 124.472 36.1307 124.324 36.025 124.367L36.0884 124.641C35.8136 124.825 35.567 125.085 35.123 124.691C35.116 124.55 35.123 124.402 35.0948 124.254L34.8905 124.24C34.9539 124.331 35.0103 124.423 35.0596 124.522C34.8482 124.437 34.8834 124.282 34.8834 124.113C34.7989 124.134 34.7143 124.127 34.6439 124.092C34.6439 123.93 34.6439 123.761 34.6298 123.592C34.5029 123.648 34.5593 123.887 34.3338 123.754C34.3127 123.521 34.665 123.683 34.517 123.387C34.2633 123.359 34.2281 123.493 34.1436 123.239C34.066 123.281 34.066 123.359 34.1083 123.444C34.0308 123.232 33.7278 123.077 33.7419 122.88C33.4741 122.908 33.1711 122.464 33.0372 122.746C33.0161 122.654 32.8329 122.358 32.6567 122.274C32.8258 122.746 31.9873 122.013 31.9309 122.436C31.8041 122.027 31.0994 122.027 30.6837 121.788C30.7048 121.816 30.7471 121.879 30.7894 121.872C30.5357 121.851 30.437 121.957 30.2679 121.999C30.2679 121.717 29.8592 121.618 29.6337 121.442C29.2955 121.696 29.824 121.773 29.7042 122.027C29.7324 121.802 29.1546 121.788 29.2603 121.604C29.0066 121.766 29.0418 121.682 28.922 121.914C28.8657 121.569 28.6895 121.858 28.471 121.661C28.1117 121.851 28.4006 121.985 27.9919 121.914C27.8157 122.034 28.1751 122.126 28.1751 122.126L28.1328 122.189ZM18.2535 123.507C18.338 123.5 18.4155 123.486 18.4578 123.479C18.4155 123.479 18.3521 123.493 18.2535 123.507ZM17.429 123.683C17.5277 123.655 17.6545 123.627 17.7884 123.599C17.8025 123.528 17.7602 123.465 17.6756 123.486C17.732 123.521 17.5418 123.599 17.429 123.683ZM18.8947 121.964C18.7608 121.964 18.7185 122.013 18.7115 122.055C18.7749 122.048 18.8454 122.034 18.944 122.027L18.9652 122.048C18.9652 122.048 18.9229 121.985 18.8947 121.964Z" fill="#C6B08D"/>
<path d="M19.1838 122.168C19.1838 122.168 19.2191 122.168 19.2402 122.168C19.2191 122.189 19.1979 122.21 19.1697 122.231L19.1132 122.182C19.1132 122.182 19.1626 122.175 19.1838 122.168Z" fill="#C6B08D"/>
<path d="M45.165 132.103V132.117C45.165 132.117 45.151 132.089 45.137 132.082C45.151 132.096 45.158 132.089 45.165 132.096V132.103Z" fill="#C6B08D"/>
<path d="M6.47187 127.023L6.44364 126.98L6.52832 126.988L6.47187 127.023Z" fill="#C6B08D"/>
<path d="M42.874 128.039C42.874 128.039 42.8317 128.039 42.7964 128.018C42.8105 128.018 42.8387 128.018 42.874 128.039Z" fill="#C6B08D"/>
<path d="M41.6553 126.517L41.4154 126.361C41.5283 126.425 41.5988 126.474 41.6553 126.517Z" fill="#C6B08D"/>
<path d="M40.5272 125.509C40.5343 125.473 40.5484 125.445 40.5625 125.424L40.5202 125.509H40.5272Z" fill="#C6B08D"/>
<path d="M34.4893 141.582C34.4893 141.582 34.4469 141.582 34.4328 141.582C34.2917 141.561 34.3834 141.561 34.4893 141.582Z" fill="#C6B08D"/>
<path d="M41.3096 139.764C41.2249 139.771 41.1402 139.785 41.0626 139.807C41.1614 139.729 41.239 139.672 41.3096 139.764Z" fill="#C6B08D"/>
<path d="M26.4268 141.695V141.702L26.3777 141.695H26.4268Z" fill="#C6B08D"/>
<path d="M40.7883 139.981C40.873 139.882 40.9647 139.833 41.0635 139.805C40.9859 139.868 40.8871 139.953 40.7883 139.981Z" fill="#C6B08D"/>
<path d="M35.0947 121.794L35.0242 121.766C35.0242 121.766 35.0312 121.745 35.0312 121.73L35.0947 121.794Z" fill="#C6B08D"/>
<path d="M35.0385 121.731L34.9821 121.668C34.9821 121.668 35.0456 121.703 35.0385 121.731Z" fill="#C6B08D"/>
<path d="M34.8486 121.541L34.9756 121.668C34.9262 121.64 34.8556 121.605 34.8486 121.541Z" fill="#C6B08D"/>
<path d="M36.8848 122.768L36.8636 122.838C36.8636 122.838 36.8636 122.796 36.8848 122.768Z" fill="#C6B08D"/>
<path d="M37.3916 123.118C37.2578 123.055 37.0043 123.048 36.8564 122.9L36.8705 122.844C36.8987 122.985 37.3423 122.942 37.3916 123.118Z" fill="#C6B08D"/>
<path d="M40.0137 123.918C39.8655 123.826 39.7173 123.727 39.5621 123.635C39.682 123.635 39.8443 123.621 39.6608 123.459C40.3312 123.692 39.4492 123.508 40.0137 123.918Z" fill="#C6B08D"/>
<path d="M41.3306 124.915C41.1401 124.697 41.4082 124.838 41.4294 124.795C41.5141 124.979 41.5282 125.021 41.3306 124.915Z" fill="#C6B08D"/>
<path d="M45.1075 135.895L45.291 135.916C45.1993 136.134 45.2205 135.895 45.1075 135.895Z" fill="#C6B08D"/>
<path d="M43.3254 137.516L43.3466 137.297C43.4101 137.297 43.4736 137.304 43.5371 137.304C43.4736 137.382 43.396 137.445 43.3254 137.516Z" fill="#C6B08D"/>
<path d="M43.4805 139.37L43.5723 139.307C43.4664 139.391 43.3676 139.476 43.2477 139.547C43.3323 139.49 43.41 139.434 43.4805 139.363V139.37Z" fill="#C6B08D"/>
<path d="M24.1023 143.371L24.1799 143.152C24.3281 143.195 24.3493 143.449 24.1023 143.371Z" fill="#C6B08D"/>
<path d="M15.6113 142.385C15.5057 142.484 15.2522 142.519 15.1254 142.385C15.3156 142.399 15.5198 142.343 15.6113 142.385Z" fill="#C6B08D"/>
<path d="M3.61029 126.741C3.54678 126.762 3.48327 126.783 3.41977 126.804C3.51856 126.741 3.63146 126.684 3.7373 126.635L3.61029 126.748V126.741Z" fill="#C6B08D"/>
<path d="M31.8255 30.1839C31.8255 30.1839 29.3662 27.3441 29.3662 26.724H28.8941C28.9223 30.1346 28.7884 33.8411 28.1189 34.8488C26.8717 36.7232 26.8717 38.5976 26.8717 38.5976L31.2758 35.9833L30.2118 38.5976C30.2118 38.5976 32.8895 37.907 34.9964 37.2305C35.0105 37.8506 35.0739 39.2529 35.3558 39.3586C35.8209 39.4995 36.6524 39.6616 37.4839 39.2811C38.7311 38.7103 39.9854 35.4689 39.9854 35.4689L41.8598 39.8448C41.8598 39.8448 43.7342 35.4689 44.3614 37.3433C44.9885 39.2177 48.7373 40.4649 48.7373 40.4649C48.7373 40.4649 47.4901 36.7161 46.8629 34.8065C46.4965 33.672 45.8975 29.4934 45.6157 26.1603L43.1141 31.0929L40.6126 26.0898L37.4909 31.0929L36.0111 26.717L31.8325 30.1769L31.8255 30.1839Z" fill="#F5CF24"/>
<path d="M35.6445 124.327L32.5511 111.882L32.0014 111.572L31.8253 111.882C31.8253 111.882 31.3461 111.093 30.5639 109.811V112.58C30.0284 115.497 30.6133 126.236 30.6133 126.236L34.362 126.652L35.6445 124.327Z" fill="#82AB7E"/>
<path d="M19.3598 132.339C21.2342 133.586 33.1078 133.586 34.9822 133.741C36.6592 133.882 35.8418 132.155 35.2006 129.252L34.9822 129.295L34.355 126.652L30.6062 126.236C30.6062 126.236 27.4846 126.708 25.3635 128.153C23.2355 129.598 17.4854 131.084 19.3598 132.332V132.339Z" fill="#82AB7E"/>
<path d="M33.9603 108.113L32.0013 111.573L32.551 111.883L35.6444 124.328L36.2363 126.716C36.2363 126.716 36.8635 129.838 38.7379 129.218C40.6123 128.591 39.9851 119.219 39.9851 116.717C39.9851 114.216 39.358 110.467 38.1107 109.22C36.8635 107.972 36.2363 109.22 34.9891 108.698L33.9673 108.12L33.9603 108.113Z" fill="#82AB7E"/>
<path d="M27.4844 87.3453C27.4844 87.3453 33.1076 103.341 34.982 105.342L37.4906 105.201C37.1242 101.699 35.7712 95.3221 36.3138 94.8147C36.9339 94.2369 41.2324 85.034 42.3387 79.8477L43.3252 76.5781C38.5969 77.769 32.1986 79.277 30.4017 79.277L29.3588 79.8477C28.7317 83.5965 27.4844 87.3453 27.4844 87.3453Z" fill="#82AB7E"/>
<path d="M32.0012 111.572L33.9601 108.112L34.9819 108.69C36.2291 109.212 36.8563 107.964 38.1035 109.212L37.5539 105.977C37.5398 105.738 37.5186 105.477 37.4834 105.195L34.9748 105.336C33.1004 103.335 27.4772 87.3391 27.4772 87.3391C27.4772 87.3391 28.7245 83.5903 29.3516 79.8415L30.3945 79.2707C30.1972 79.2707 30.0563 79.2496 29.9788 79.2143C29.1332 78.7986 24.0526 75.2612 20.8182 72.9922L19.3525 77.051C18.5915 81.1662 17.6402 88.0015 18.1123 89.0655C18.6197 90.2 27.2588 104.399 30.5636 109.811C31.3458 111.1 31.825 111.882 31.825 111.882L32.0012 111.572Z" fill="#82AB7E"/>
<path d="M9.33943 80.9253C9.97363 80.0797 10.9813 78.769 11.6437 77.9728C11.6437 77.9728 13.7365 76.0984 13.7365 74.8511V73.6039C13.7365 73.6039 15.3502 70.6725 17.0484 67.4381L18.1125 68.0159V71.1094C18.1125 71.1094 19.247 71.9127 20.8254 73.012C24.0598 75.288 29.1404 78.8184 29.986 79.2341C30.0705 79.2693 30.2044 79.2905 30.4017 79.2905C32.1986 79.2905 38.5969 77.7755 43.3252 76.5916C46.3764 75.8236 48.73 75.1964 48.73 75.1964C48.73 75.1964 50.6043 73.6109 50.6043 71.7365C50.6043 71.1023 50.3859 67.7693 50.0829 63.5625C50.0829 63.5625 50.6043 62.9846 51.5415 61.3992C52.4787 59.8066 53.1059 54.2398 53.1059 52.9855V52.0413C54.6843 51.0195 56.2275 49.8568 56.2275 49.8568C56.2275 49.8568 52.4787 36.736 51.8516 35.4817C51.3161 34.4036 48.9061 29.5978 47.4616 27.4979L47.0599 26.9554L45.5026 24.8555C45.5308 25.2712 45.566 25.7152 45.6013 26.1732C45.8902 29.5133 46.4821 33.6849 46.8485 34.8194C47.4757 36.722 48.7229 40.4778 48.7229 40.4778C48.7229 40.4778 44.9741 39.2305 44.347 37.3561C43.7198 35.4817 41.8454 39.8577 41.8454 39.8577L39.971 35.4817C39.971 35.4817 38.7238 38.7232 37.4695 39.294C36.638 39.6674 35.7994 39.5124 35.3414 39.3785C35.0525 39.2658 34.9891 37.8565 34.982 37.2434C32.868 37.9269 30.1974 38.6104 30.1974 38.6104L31.2614 35.9962L26.8573 38.6104C26.8573 38.6104 26.8573 36.736 28.1045 34.8616C28.774 33.854 28.9079 30.1475 28.8797 26.7369C28.8797 26.3071 28.8797 25.8772 28.8656 25.4685L28.1045 25.4897C26.2301 26.1168 16.8582 39.8647 15.6039 41.112C14.3496 42.3592 10.0441 50.7729 10.0441 50.7729C10.0441 50.7729 12.4118 52.5416 15.47 54.571L15.1317 58.2705C14.1241 62.2236 11.235 70.4822 11.235 70.4822C11.235 70.4822 8.77571 69.235 8.12742 70.4822C7.61302 71.4829 4.71686 75.2739 3.89946 77.0779L5.6752 78.4872L7.02814 79.5583L7.69757 80.0868L8.76866 80.9394H9.33943V80.9253Z" fill="#82AB7E"/>
<path d="M29.359 26.7237C29.359 27.3508 31.8182 30.1836 31.8182 30.1836L35.9969 26.7237L37.4766 31.0996L40.5983 26.0965L43.0998 31.0996L45.6014 26.167C45.5662 25.709 45.5239 25.265 45.5027 24.8493C45.397 23.1793 45.397 21.932 45.6014 21.7277C46.2285 21.1005 46.8486 11.7285 46.8486 9.85412C46.8486 7.97973 41.8455 2.35654 41.8455 2.35654C41.8455 2.35654 40.4362 1.65892 39.2383 1.56027V1.48276L34.348 1.01063L34.3268 1.12338C33.0232 0.897888 31.487 0.954261 30.1905 1.72939C28.0976 2.97664 26.0752 9.17765 26.1457 11.3903C26.2232 13.6029 28.7177 19.2261 28.7177 20.4804C28.7177 20.9737 28.8164 23.0383 28.8587 25.4624C28.8587 25.8781 28.8727 26.3009 28.8727 26.7307H29.3449L29.359 26.7237Z" fill="#82AB7E"/>
<path d="M36.37 1.72158C35.8486 1.48199 35.1298 1.24945 34.3406 1.11557C33.037 0.890076 31.5008 0.946449 30.2043 1.72158C28.1114 2.96882 26.089 9.16984 26.1595 11.3825C26.237 13.5951 28.7315 19.2183 28.7315 20.4726C28.7315 20.9659 28.8302 23.0305 28.8724 25.4545C28.8724 25.8703 28.8865 26.2931 28.8865 26.7229C28.9147 30.1335 28.7808 33.84 28.1114 34.8477C26.8642 36.7221 26.8642 38.5965 26.8642 38.5965L31.2683 35.9822L30.2043 38.5965C30.2043 38.5965 32.882 37.9059 34.9889 37.2294C36.3489 36.7855 37.4834 36.3415 37.4834 36.0949" stroke="#4F4131" stroke-linecap="round" stroke-linejoin="round"/>
<path d="M38.1883 1.72158C38.4843 1.56655 38.8578 1.53132 39.2594 1.55246C40.4573 1.64406 41.8667 2.34872 41.8667 2.34872C41.8667 2.34872 46.8697 7.97191 46.8697 9.84631C46.8697 11.7207 46.2426 21.0927 45.6225 21.7198C45.4181 21.9242 45.4181 23.1785 45.5238 24.8415C45.552 25.2572 45.5873 25.7012 45.6225 26.1592C45.9114 29.4993 46.5033 33.6709 46.8697 34.8054C47.4969 36.708 48.7441 40.4638 48.7441 40.4638C48.7441 40.4638 44.9953 39.2166 44.3682 37.3422C43.7411 35.4678 41.8667 39.8437 41.8667 39.8437L39.9923 35.4678C39.9923 35.4678 38.745 38.7092 37.4907 39.28C36.6592 39.6534 35.8207 39.4984 35.3626 39.3645C35.1301 39.287 34.9962 39.2236 34.9962 39.2236" stroke="#4F4131" stroke-linecap="round" stroke-linejoin="round"/>
<path d="M46.8624 26.7227C46.9258 26.7861 46.9963 26.8636 47.0667 26.9481C47.1865 27.0961 47.3204 27.2793 47.4684 27.4907C48.92 29.5906 51.3229 34.3894 51.8584 35.4745C52.4856 36.7218 56.2344 49.8496 56.2344 49.8496C56.2344 49.8496 54.6912 51.0053 53.1127 52.0341C51.8443 52.8585 50.5407 53.6055 49.9911 53.6055" stroke="#4F4131" stroke-linecap="round" stroke-linejoin="round"/>
<path d="M28.1116 25.4766C26.2372 26.1037 16.8652 39.8516 15.6109 41.0989C14.3566 42.3461 10.0512 50.7598 10.0512 50.7598C10.0512 50.7598 12.4188 52.5285 15.4771 54.5579C19.9446 57.5104 25.8919 61.0126 28.1116 60.3432C31.8604 59.2157 31.8252 47.7368 31.8252 47.7368" stroke="#4F4131" stroke-linecap="round" stroke-linejoin="round"/>
<path d="M48.4198 42.3457C48.6242 43.9946 49.505 55.4101 50.0899 63.5419C50.3929 67.7487 50.6113 71.0818 50.6113 71.716C50.6113 73.5903 48.7369 75.1758 48.7369 75.1758C48.7369 75.1758 46.3834 75.803 43.3322 76.5711C38.6039 77.7619 32.2056 79.2699 30.4087 79.2699C30.2114 79.2699 30.0705 79.2488 29.993 79.2135C29.1474 78.7978 24.0668 75.2604 20.8324 72.9914C19.261 71.8992 18.1194 71.0888 18.1194 71.0888V67.9953" stroke="#4F4131" stroke-linecap="round" stroke-linejoin="round"/>
<path d="M15.4767 56.3672C15.5049 56.6702 15.3711 57.3467 15.1385 58.2557C14.1308 62.2088 11.2417 70.4674 11.2417 70.4674C11.2417 70.4674 8.78247 69.2202 8.13419 70.4674C7.61978 71.4681 4.72363 75.2591 3.90622 77.0631C3.69483 77.5211 3.61732 77.8452 3.74415 77.9721" stroke="#4F4131" stroke-linecap="round" stroke-linejoin="round"/>
<path d="M8.11328 74.8438C7.66935 75.2877 6.38686 77.3242 5.67516 78.4728C5.3792 78.9449 5.18894 79.2761 5.18894 79.2761" stroke="#4F4131" stroke-linecap="round" stroke-linejoin="round"/>
<path d="M9.5791 76.1348C8.28253 76.4941 7.46512 78.2628 7.03528 79.5383C6.77455 80.3204 6.65476 80.9194 6.65476 80.9194" stroke="#4F4131" stroke-linecap="round" stroke-linejoin="round"/>
<path d="M10.0508 77.0645C9.50115 77.7903 8.19752 78.9248 7.70426 80.0734C7.57038 80.3552 7.49991 80.6441 7.49991 80.926" stroke="#4F4131" stroke-linecap="round" stroke-linejoin="round"/>
<path d="M20.9385 59.2285C20.7694 60.1939 18.8668 63.985 17.0488 67.4308C15.3505 70.6652 13.7368 73.5965 13.7368 73.5965V74.8438C13.7368 76.091 11.644 77.9654 11.644 77.9654C10.9816 78.7688 9.97396 80.0794 9.33976 80.918C8.98039 81.3901 8.7408 81.7142 8.7408 81.7142" stroke="#4F4131" stroke-linecap="round" stroke-linejoin="round"/>
<path d="M29.3583 79.8398C28.7311 83.5886 27.4839 87.3374 27.4839 87.3374C27.4839 87.3374 33.107 103.333 34.9814 105.334" stroke="#4F4131" stroke-linecap="round" stroke-linejoin="round"/>
<path d="M30.5632 109.818C31.3454 111.1 31.8246 111.89 31.8246 111.89L32.0007 111.579L33.9597 108.12L34.9814 106.309" stroke="#4F4131" stroke-linecap="round" stroke-linejoin="round"/>
<path d="M19.3592 77.0645C18.5981 81.1726 17.6468 88.0078 18.119 89.0719C18.6263 90.2064 27.2655 104.405 30.5703 109.817" stroke="#4F4131" stroke-linecap="round" stroke-linejoin="round"/>
<path d="M19.9863 74.2168C19.8313 74.6819 19.6058 75.7248 19.3521 77.0566" stroke="#4F4131" stroke-linecap="round" stroke-linejoin="round"/>
<path d="M34.9891 108.689C36.2363 109.211 36.8635 107.964 38.1107 109.211C39.358 110.458 39.9851 114.214 39.9851 116.708C39.9851 119.203 40.6123 128.582 38.7379 129.209C36.8635 129.836 36.2363 126.708 36.2363 126.708L35.6444 124.319L32.551 111.874" stroke="#4F4131" stroke-linecap="round" stroke-linejoin="round"/>
<path d="M42.5996 77.9668C42.5855 78.4882 42.4939 79.1295 42.3459 79.8412C41.2396 85.0275 36.9412 94.2304 36.3211 94.8082C35.7785 95.3155 37.1244 101.693 37.4979 105.195C37.5261 105.477 37.5542 105.737 37.5683 105.977C37.6177 106.639 37.5965 107.126 37.4908 107.337" stroke="#4F4131" stroke-linecap="round" stroke-linejoin="round"/>
<path d="M30.6133 112.34C30.5922 112.417 30.5781 112.495 30.564 112.586C30.0284 115.504 30.6133 126.243 30.6133 126.243L34.3621 126.659L34.9893 126.729" stroke="#4F4131" stroke-linecap="round" stroke-linejoin="round"/>
<path d="M34.9893 128.159C35.0598 128.539 35.1303 128.906 35.2078 129.251C35.842 132.154 36.6664 133.874 34.9893 133.74C33.1149 133.592 21.2414 133.592 19.367 132.338C17.4926 131.09 23.2497 129.603 25.3707 128.159C27.4917 126.714 30.6134 126.242 30.6134 126.242" stroke="#4F4131" stroke-linecap="round" stroke-linejoin="round"/>
<path d="M53.1123 52.9727C53.1123 54.2199 52.4852 59.7938 51.548 61.3863C50.6108 62.9718 50.0893 63.5496 50.0893 63.5496" stroke="#4F4131" stroke-linecap="round" stroke-linejoin="round"/>
</svg>
