<svg width="69" height="180" viewBox="0 0 69 180" fill="none" xmlns="http://www.w3.org/2000/svg">
<path d="M49.7037 152.266C54.5671 153.536 59.7558 156.066 61.295 160.851C62.7786 165.46 60.1128 170.617 56.1618 173.426C52.2108 176.234 47.268 177.186 42.476 177.845C31.8129 179.305 20.8801 179.654 10.336 177.488C6.54366 176.71 2.04519 174.695 1.91824 170.823C1.87064 169.348 2.52914 167.928 3.33839 166.69C5.85342 162.866 9.82033 160.271 13.7793 157.986C20.4358 154.147 27.6794 150.798 35.3672 150.632C42.5553 150.473 49.4815 153.115 56.1856 155.717" fill="#D3B25B"/>
<path d="M56.3756 155.225C56.4231 155.321 56.328 155.447 56.1377 155.336L56.0901 155.035L56.3835 155.225H56.3756Z" fill="#C6B08D"/>
<path d="M54.8292 155.147C54.6388 154.933 54.4404 154.624 54.6785 154.457C54.8292 154.782 54.9244 154.711 55.0672 155.084C55.2576 155.195 55.456 155.139 55.456 155.036C55.5036 155.123 55.7971 155.108 55.8447 155.298C55.5036 155.385 55.1704 155.258 54.8768 154.973C54.7816 154.997 54.8292 155.092 54.8292 155.139V155.147Z" fill="#C6B08D"/>
<path d="M34.1289 151.051L34.2637 151.012C34.2637 151.012 34.1844 151.043 34.1289 151.051Z" fill="#C6B08D"/>
<path d="M21.5865 154.542C21.6817 154.511 21.7293 154.511 21.7451 154.535C21.65 154.558 21.5786 154.574 21.5865 154.542Z" fill="#C6B08D"/>
<path d="M19.6742 155.749C19.7138 155.725 19.7455 155.702 19.7852 155.678C19.7534 155.717 19.7138 155.757 19.6742 155.749Z" fill="#C6B08D"/>
<path d="M34.1289 151.053C34.0179 151.084 33.899 151.116 33.788 151.164C33.7563 151.084 33.9624 151.077 34.1289 151.053Z" fill="#C6B08D"/>
<path d="M52.2906 153.512C52.3541 153.551 52.4096 153.591 52.4492 153.647L52.2906 153.559C52.2906 153.559 52.2906 153.536 52.2906 153.52V153.512Z" fill="#C6B08D"/>
<path d="M39.8588 151.465L39.9618 151.481C39.9618 151.481 40.0094 151.552 40.0332 151.6L39.8588 151.465Z" fill="#C6B08D"/>
<path d="M44.1824 152.321C44.0794 152.306 44.1031 152.084 44.0873 151.98C44.119 152.084 44.1824 152.139 44.2617 152.179C44.2538 152.218 44.23 152.266 44.1824 152.321Z" fill="#C6B08D"/>
<path d="M51.0355 154.02L51.1465 154.091C51.1465 154.091 51.0751 154.043 51.0355 154.02Z" fill="#C6B08D"/>
<path d="M36.7236 151.258C36.7236 151.258 36.6998 151.321 36.684 151.337C36.684 151.305 36.6998 151.282 36.7236 151.258Z" fill="#C6B08D"/>
<path d="M55.0352 153.082C55.0352 153.082 55.0198 153.105 55.0198 153.113C55.0044 153.082 55.0044 153.067 55.0352 153.082Z" fill="#C6B08D"/>
<path d="M49.6875 152.322L49.751 152.354C49.751 152.394 49.751 152.441 49.7351 152.481L49.6875 152.322Z" fill="#C6B08D"/>
<path d="M16.1828 157.883C16.1828 157.883 16.1907 157.883 16.1986 157.867C16.3017 157.835 16.2462 157.867 16.1828 157.883Z" fill="#C6B08D"/>
<path d="M16.477 177.535C16.033 177.686 17.1351 177.86 16.477 178.011C16.5484 177.932 15.9379 177.599 16.477 177.535Z" fill="#C6B08D"/>
<path d="M52.1709 153.503L51.9965 153.439C52.0758 153.463 52.1313 153.479 52.1709 153.503Z" fill="#C6B08D"/>
<path d="M16.4688 178.02L16.3974 178.035C16.4291 178.035 16.445 178.027 16.4688 178.02Z" fill="#C6B08D"/>
<path d="M8.24079 162.803C8.23286 162.763 8.24078 162.716 8.24871 162.668C8.26457 162.684 8.26457 162.723 8.24079 162.803Z" fill="#C6B08D"/>
<path d="M13.8574 158.676L13.7226 158.787C13.7702 158.731 13.8178 158.7 13.8574 158.676Z" fill="#C6B08D"/>
<path d="M5.44043 165.016C5.39286 165.095 5.39286 165.142 5.28978 165.214C5.28978 165.198 5.28978 165.182 5.28978 165.166C5.34528 165.15 5.39285 165.111 5.43249 165.016H5.44043Z" fill="#C6B08D"/>
<path d="M3.29802 168.006C3.29802 168.006 3.29801 167.951 3.29009 167.927C3.31387 167.895 3.33766 167.864 3.35352 167.832L3.29802 168.006Z" fill="#C6B08D"/>
<path d="M62.5967 162.532C62.5253 162.445 62.446 162.397 62.3747 162.365C62.5412 162.413 62.5095 161.786 62.5967 162.532Z" fill="#C6B08D"/>
<path d="M52.2493 153.631C52.2493 153.567 52.2255 153.536 52.1779 153.504L52.2969 153.559C52.2969 153.559 52.2889 153.623 52.2572 153.631H52.2493Z" fill="#C6B08D"/>
<path d="M4.01367 163.969L3.62517 164.484C3.72824 164.333 3.87096 164.143 4.01367 163.969Z" fill="#C6B08D"/>
<path d="M42.2538 178.789H42.3965C42.341 178.813 42.2934 178.813 42.2538 178.789Z" fill="#C6B08D"/>
<path d="M2.44922 166.008C2.44922 166.143 2.42544 166.278 2.37786 166.396C2.34615 166.412 2.32236 166.428 2.29065 166.428L2.44922 166V166.008Z" fill="#C6B08D"/>
<path d="M61.3341 158.034C61.6911 158.589 61.2548 158.438 61.1754 158.645C61.4611 159.343 61.5325 158.851 61.7863 159.017C61.9529 159.486 61.826 159.93 61.9609 160.255C62.0164 160.263 62.0561 160.319 62.0878 160.223C62.064 160.755 62.5083 161.683 62.2862 162.302C62.3179 162.342 62.3496 162.358 62.3734 162.366C62.2148 162.294 62.064 162.302 61.9609 162.334C62.0085 162.604 61.826 162.85 62.0244 162.937C62.0085 162.77 62.0878 162.754 62.1434 162.667L62.0799 162.961C62.3655 163.199 62.1513 162.564 62.3576 162.54C62.3258 162.834 62.2703 163.143 62.2227 163.429C62.1672 163.714 62.1037 163.984 62.1434 164.198C62.4052 164.309 62.2782 163.191 62.4924 163.778C62.4766 163.548 62.429 163.326 62.3814 163.095C62.8336 163.603 62.3258 162.675 62.8098 163.143C62.8891 163.611 62.8098 163.865 62.7701 164.127C62.7305 164.389 62.667 164.635 62.6432 165.087C62.4686 165.269 62.429 164.992 62.2544 165.166C61.7546 166.325 62.7225 166.309 62.1037 167.11C61.8657 167.292 61.5007 167.245 61.4372 167.919L61.8022 167.824C61.5007 168.641 61.2072 168.094 61.0088 168.99C61.1834 168.903 61.3896 168.435 61.3658 168.562C61.3262 169.197 61.0406 168.863 60.8184 169.236L61.0088 169.45C60.5249 170.236 59.7791 170.942 59.0968 171.656C59.192 171.664 59.3745 171.593 59.2793 171.823C58.351 172.695 57.3831 173.766 56.4389 174.584L55.9232 174.647C55.836 174.711 55.8122 174.838 55.9312 174.822C55.5742 175.139 55.828 174.711 55.59 174.75C55.352 174.877 55.352 175.044 55.5345 175.02C54.7173 175.298 53.2733 175.758 52.5672 176.305H52.7497C52.1547 176.646 51.877 176.139 51.3692 176.551H51.4962C50.1554 177.138 48.5607 177.329 47.5689 177.9C47.2992 177.622 46.2043 178.336 46.0218 177.884C45.2602 178.257 45.5061 178.305 44.3954 178.638C44.0939 178.701 43.8956 178.416 43.5147 178.424L43.5385 178.67L42.9911 178.487L42.761 178.812L42.404 178.796C42.5389 178.765 42.6896 178.646 42.6579 178.582C42.0946 178.543 41.3488 178.923 41.3488 179.05L40.0239 179.003C40.0635 179.098 40.2857 179.106 40.4681 179.146C39.7462 178.979 40.3729 179.415 39.7065 179.265C39.7858 179.201 39.643 179.122 39.6272 179.074C39.3257 179.257 38.6037 179.344 38.0642 179.336L38.1832 179.495C37.2232 179.637 36.1363 179.622 35.0494 179.709C35.4302 179.598 35.3191 179.312 35.0017 179.312L34.8986 179.582C34.6844 179.439 35.2239 179.455 34.7875 179.296C34.3829 179.36 34.5336 179.614 34.7796 179.677L34.2798 179.622C34.256 179.701 34.375 179.733 34.4146 179.828C34.2004 179.685 33.5816 180.145 33.2642 179.883L33.2404 179.963C32.1535 180.042 31.6457 179.963 30.7571 179.995C30.7333 179.772 30.3843 179.844 30.1145 179.669C29.4639 179.756 28.7499 179.963 27.9565 179.955C27.4011 179.852 27.7899 179.764 27.544 179.637C27.5043 179.844 26.7188 179.828 27.1314 179.971C26.1873 179.955 25.9254 179.931 24.7274 179.756C24.8623 179.677 25.0051 179.637 24.9337 179.566C24.7195 179.526 24.4418 179.645 24.4656 179.741L24.5212 179.764C23.1962 179.439 21.4032 180.248 20.348 179.756L20.4035 179.78L19.3166 179.471C18.8088 179.471 19.6101 179.645 19.2214 179.741C18.0551 179.32 17.3331 179.614 16.3731 179.288C15.5401 179.796 13.6915 178.9 12.6125 179.098L12.6918 178.971C12.4538 178.789 12.3586 179.003 12.1603 179.003C12.2079 178.9 12.4697 178.923 12.3189 178.82C11.2241 178.527 10.0816 178.4 8.86772 178.162C7.66972 177.932 6.45585 177.638 5.30544 177.115C4.47239 176.702 5.2023 176.258 4.06777 175.909C4.10744 176.043 4.1471 176.186 4.1947 176.313C3.50446 175.663 2.75868 175.036 2.13984 174.235C1.52894 173.449 1.08464 172.434 1.08464 171.442C1.04497 171.569 0.949772 171.585 0.989441 171.775C0.854565 171.585 0.814892 171.18 0.822823 170.839C0.854561 170.49 0.965637 170.212 1.03704 170.22C1.05291 169.919 0.902161 170.141 0.846626 169.942C0.783154 169.49 1.28299 168.967 1.16399 168.721C1.14812 168.673 1.06878 168.808 1.03704 168.879C1.17985 168.641 1.43373 167.713 1.5448 168.03C1.71935 167.348 2.20331 166.904 2.36992 166.388C2.75867 166.229 2.90942 165.388 3.25057 165.507C2.92529 165.333 3.71867 164.42 4.1233 164.23C3.94875 164.262 4.27404 163.881 4.0519 163.905C4.37718 163.564 4.71834 163.286 4.79768 163.476C5.09916 162.548 6.26543 162.524 6.2575 161.81C7.43171 161.049 8.51863 160.414 9.57383 159.795C9.33582 159.517 8.44723 160.533 8.27269 160.208C9.30408 159.636 10.0261 159.533 10.9464 158.851C11.1685 158.653 10.7242 158.811 10.6052 158.811C11.6525 158.319 12.4856 157.621 13.4614 157.28C13.4455 157.256 13.3265 157.28 13.2234 157.304C13.4059 157.209 13.6042 157.026 13.6598 157.177L13.4693 157.232C13.3107 157.597 14.4055 157.272 14.4928 157.359C13.9692 157.121 15.3021 156.764 14.5483 156.518C14.6753 156.479 14.8578 156.471 14.8895 156.582C15.0482 156.463 15.072 156.376 14.834 156.36C15.5083 156.09 15.3655 156.36 15.9288 156.05C15.8892 155.979 15.7622 156.018 15.6591 155.971C16.0161 155.947 16.389 155.931 16.8412 155.614C16.7936 155.59 16.8174 155.503 16.6746 155.582C17.5235 155.162 18.2852 155.201 19.15 154.622C18.7295 154.448 19.4197 154.368 19.3404 154.075L19.8799 153.916L19.7371 154.146C20.1734 153.932 20.6653 153.956 20.9985 153.694L20.6177 153.734C20.9033 153.63 21.189 153.511 21.4746 153.416L21.0462 153.726C21.5539 153.662 21.1493 154.083 21.7047 153.757C21.5698 153.781 22.1489 153.567 22.3156 153.305C22.5694 153.297 22.8392 153.297 23.1486 153.099C23.2042 152.98 22.9582 152.821 22.9899 152.742C23.2994 152.885 24.0769 152.385 24.4577 152.543C24.3387 152.52 24.2831 152.377 24.307 152.337L24.5608 152.456C24.7512 152.321 24.775 152.282 24.6957 152.179C25.3225 151.917 24.6164 152.607 25.3225 152.179C25.259 152.179 25.2749 152.147 25.14 152.163C25.8858 151.829 26.6633 151.79 27.3535 151.504C27.4884 151.155 26.703 151.607 26.8775 151.298C27.9406 151.052 29.1307 151.06 30.1383 150.798L29.9558 150.869C30.178 151.258 30.6778 150.512 31.2332 150.623C31.0983 150.608 31.0269 150.417 31.0666 150.457C31.7647 150.282 32.5343 150.338 33.6213 150.378L33.4785 150.282C33.891 150.132 34.5892 150.163 35.0414 150.084C35.1842 150.187 35.4381 150.155 35.2874 150.322C36.6996 149.687 37.9452 150.695 39.2067 150.314C39.0559 150.298 38.8655 150.187 38.9766 150.195C39.3257 150.259 39.6748 150.338 40.0239 150.417C39.9207 150.592 39.8731 150.512 39.6351 150.623C39.7541 150.75 40.0397 150.869 40.2936 150.901C39.8414 150.719 40.3333 150.608 40.5554 150.536C40.5158 150.584 40.5713 150.655 40.5554 150.711C41.1505 150.465 40.5872 151.084 41.3647 150.996L41.3409 150.893C41.6106 150.988 41.8407 151.155 42.1422 151.187C42.3088 151.004 41.8645 151.028 41.8804 150.862C42.3009 150.949 42.6261 151.417 43.0466 151.29C42.88 151.195 42.6262 151.147 42.4595 151.052C42.9197 150.893 42.9594 150.965 43.2688 150.988H43.2371C43.483 150.988 43.721 151.02 43.967 151.036L43.7686 151.06C44.1653 151.718 44.808 151.401 45.403 151.948C44.8159 151.441 45.3395 151.726 45.3554 151.48C45.5537 151.464 45.8394 151.464 45.7838 151.377C46.0615 151.647 46.3788 151.377 46.7597 151.79C46.7993 151.718 47.1088 151.885 47.0929 151.679C47.5055 151.861 46.9501 151.782 46.966 151.885C47.5372 152.329 48.6003 152.044 49.4096 152.702C50.1633 153.107 50.2188 153.416 50.9091 153.789C51.1947 153.757 50.798 153.456 50.798 153.456C51.2344 153.488 51.5279 153.622 51.877 153.837C51.8215 153.749 51.9246 153.718 52.0674 153.678C52.361 153.805 52.1705 154.011 52.6069 154.059C52.5672 153.956 52.5276 153.789 52.4165 153.654C52.7497 153.853 53.0433 154.122 53.3844 154.321C53.5272 154.233 53.2337 154.043 53.1385 153.916C53.5272 154.13 54.1619 154.432 54.2095 154.678L53.916 154.646C54.0588 154.709 54.0588 154.503 53.9636 154.424C53.67 154.13 53.432 154.305 53.3844 154.368L53.6304 154.511C53.2019 154.836 52.6148 154.043 52.0753 153.884L52.1785 154.273L51.7342 153.821C51.5914 153.861 51.4486 154.003 51.6945 154.146C51.2661 154.162 51.401 153.916 51.0122 153.964C50.9646 153.98 50.9805 153.995 51.0122 154.019L50.679 153.797C50.7266 153.884 50.5362 153.995 50.7821 154.027C50.0601 153.979 49.7983 153.416 49.4651 153.567L49.5127 153.607C48.6241 153.194 49.5048 153.345 48.8939 152.845L48.2433 153.258L48.2274 152.996C48.1322 152.972 47.9339 152.932 47.9418 153.035C47.6324 152.766 48.037 152.956 47.8704 152.742C47.3468 152.805 46.6169 152.258 46.4106 152.599C46.2916 152.377 46.8946 152.599 46.4344 152.321C46.1805 152.678 45.879 152.083 45.403 152.155C45.4823 152.393 45.9108 152.393 45.4347 152.464C45.2681 152.052 44.5858 152.313 44.2446 152.171C44.2923 151.893 43.4909 151.853 42.9038 151.639C42.9197 151.742 41.7217 151.552 41.1425 151.576V151.623C41.087 151.314 40.4919 151.274 40.0715 151.163C40.0715 151.338 40.1349 151.417 40.3571 151.528L39.9525 151.472C39.8731 151.369 39.7541 151.306 39.4923 151.234L39.5716 151.464C39.0401 151.385 38.5164 151.1 37.8103 151.187C37.7786 150.981 38.4054 150.647 37.6675 150.481C37.6358 150.592 37.5961 150.774 37.7865 150.83C37.723 150.814 37.5644 150.727 37.4374 150.766L37.723 150.965C37.3978 151.028 37.5644 150.806 37.3105 150.806C37.3105 150.965 37.1201 150.909 37.1518 151.036C37.2153 151.052 37.374 150.981 37.4692 151.052C37.1835 151.068 36.8345 151.139 36.7155 151.258C36.7393 151.171 36.7155 151.044 36.5092 151.028C35.9697 151.012 36.3188 151.219 36.0093 151.298C35.8824 151.187 35.5412 151.298 35.5254 151.068C35.3667 151.068 35.3429 151.179 35.2794 151.242C35.0017 151.155 33.9783 151.274 34.2798 151.012L34.3512 150.996C34.3512 150.996 34.3194 150.996 34.3036 150.988C33.3674 150.806 32.4074 151.282 31.5029 151.322L31.5188 151.401C30.9634 151.385 30.3208 151.568 29.9003 151.464C29.7416 151.488 29.5591 151.687 29.6464 151.758C29.2259 151.798 29.1625 151.718 28.6071 151.98C29.0434 152.02 28.496 152.131 29.0514 151.98C28.5436 152.171 28.4563 152.313 27.8454 152.266C28.0835 152.409 27.5202 152.615 27.2583 152.631L27.5836 152.393C27.298 152.44 27.06 152.52 26.822 152.623L27.0283 152.837C26.0841 153.464 24.9655 152.932 24.3546 153.734C24.0134 153.662 24.8703 153.4 24.5529 153.289C24.0848 153.496 23.7278 154.051 23.585 154.106C22.9899 154.487 22.8392 153.995 22.2045 154.368C22.2521 154.249 22.2362 153.98 21.6967 154.114C21.2366 154.352 21.2842 154.733 21.6015 154.67C21.7126 154.63 21.7602 154.575 21.7443 154.551C21.9109 154.519 22.1251 154.471 21.9823 154.646L21.8871 154.582C21.6967 154.773 21.0541 155.051 21.2683 155.122C20.8795 155.201 21.0541 155.051 21.2921 154.884C20.7526 155.273 20.3638 155.304 19.8005 155.685C19.8719 155.59 19.9195 155.447 19.8164 155.495C18.9754 156.026 19.3404 155.519 18.7215 155.78C18.4438 156.082 18.9992 156.026 18.3407 156.225C18.0154 156.495 18.3804 156.487 18.5549 156.479C17.9202 156.59 17.5949 157.113 17.3014 157.304L17.6187 157.217C17.4283 157.264 17.2855 157.343 17.1506 157.415L17.222 157.161C17.0713 157.28 16.9285 157.351 16.9682 157.423C16.7381 157.407 16.9523 157.074 16.5318 157.113C16.3573 157.32 15.8019 157.399 15.8495 157.661C16.508 157.201 15.8971 157.923 16.5001 157.637C16.3731 157.677 16.2303 157.748 16.0796 157.875C16.0716 157.915 16.1272 157.907 16.1827 157.899C15.6273 158.462 15.7384 157.819 15.0482 158.208C15.2069 158.28 15.0164 158.534 14.8895 158.565C15.1672 158.407 14.9054 158.288 14.5959 158.335C14.2072 158.684 14.0723 158.534 13.8502 158.684L14.0882 158.486C13.9295 158.414 13.7153 158.557 13.39 158.7C13.4217 158.811 13.7074 158.605 13.6201 158.708C13.152 158.692 12.9854 159.382 12.43 159.517C12.2634 159.732 12.549 159.755 12.3903 159.93C11.7715 160.089 11.9302 160.438 11.3113 160.652C11.3669 160.398 11.4145 160.414 10.9384 160.509L11.8984 160.057L11.1765 160.184C11.4462 160.009 11.8112 159.922 11.954 159.795C11.597 159.835 11.6525 159.858 11.7001 159.644C11.478 160.12 10.875 159.97 10.5576 160.414L10.8274 160.795C10.3196 161.382 9.58177 161.342 8.86772 162.024L9.06607 161.771C8.85186 161.699 8.56624 162.112 8.27269 162.247C8.39169 162.35 8.27269 162.516 8.23302 162.683C8.16956 162.58 7.69352 163.135 7.42377 162.961L7.23336 163.397C6.71766 163.984 6.27337 163.675 5.77354 164.254C6.05915 164.214 5.89254 164.531 6.33683 164.262C6.16228 164.436 6.01948 164.619 5.94014 164.547C5.91634 164.722 5.31337 164.912 5.2737 165.182C5.15469 165.214 5.00395 165.134 4.83734 165.365C4.83734 165.412 4.90081 165.412 4.90081 165.412C4.83734 165.365 4.53586 165.682 4.55966 165.388C4.44859 166.285 3.21885 167.134 3.28231 167.943C2.98876 168.387 2.69521 168.959 2.56033 169.411C2.61587 169.395 2.63174 169.427 2.63968 169.339C2.63968 169.99 2.07637 169.633 2.16364 170.418C2.39372 170.807 2.33025 170.038 2.40959 170.276C2.66347 170.355 2.6238 170.545 2.58413 170.807C2.58413 171.053 2.5048 171.386 2.72695 171.577V171.466C2.98083 171.751 2.74281 172.354 3.10777 172.862C3.10777 172.862 3.13157 172.814 3.17124 172.822C3.12364 173.314 3.59967 174.028 4.03603 174.48C4.02016 174.203 3.89322 174.219 4.1233 174.139C4.31371 174.338 3.83768 174.33 4.22644 174.742C4.44065 174.774 4.82941 174.925 4.98808 174.782L4.58346 174.473C4.96429 174.401 5.09916 174.869 5.37684 174.972L5.41652 174.853C5.73387 175.083 5.86874 175.25 6.01948 175.417C6.16229 175.591 6.3289 175.75 6.73352 175.924L6.61452 175.972C6.93187 176.464 7.05088 175.972 7.4079 176.369L7.65385 176.131C7.91566 176.313 8.59798 176.781 9.14541 176.988C8.89153 176.678 8.28856 176.377 7.95534 176.107C8.24096 176.218 8.94706 176.456 9.06607 176.646C8.95499 176.583 8.82012 176.464 8.69318 176.472C8.98673 176.821 9.45483 177.075 10.0737 177.21C10.0816 176.607 11.7318 177.376 12.2713 177.003C13.3424 177.416 14.4849 177.281 15.7781 177.472C15.2545 177.876 16.1589 177.535 16.0161 178.003C16.3176 178.075 16.4366 178.082 16.4683 178.051L17.4204 177.86C17.6505 177.741 17.1427 177.725 17.1824 177.614C17.8488 177.646 17.4839 177.44 17.9361 177.36C17.833 177.519 18.1424 177.638 18.5232 177.606L17.9678 177.773C18.8723 178.122 18.8088 177.44 19.7212 177.773L19.4356 177.598C19.9116 177.733 21.2048 177.725 21.6571 178.13C21.7443 178.082 21.8633 177.956 21.6571 177.908C22.8075 177.908 24.2117 178.432 25.1162 178.194L25.0289 178.075C25.2431 178.114 25.4018 178.305 25.6716 178.186C25.6557 178.138 25.5843 178.067 25.6874 178.059C25.7985 178.098 26.2587 178.281 26.5443 178.201L26.2983 178.067C27.4249 177.9 28.0279 178.384 28.98 178.432C28.972 178.082 29.8527 177.94 30.2891 177.876L30.2732 177.829C31.5823 177.725 32.5105 178.011 33.7403 178.059C34.4702 177.63 36.287 177.702 37.4692 177.36C37.2946 177.44 37.5247 177.63 37.7468 177.638C38.0245 177.543 38.5561 177.797 38.4768 177.487L38.3736 177.503C38.5561 177.17 39.1432 177.178 39.5954 177.122L39.7224 177.527C40.841 176.789 42.8721 177.353 43.4433 176.718C43.7448 176.781 44.0939 176.726 44.3954 176.781L44.3478 176.559C45.1253 176.377 45.5061 176.281 46.4741 176.147L46.2519 176.028C46.7835 175.909 47.0612 176.52 47.5689 176.424L47.6403 176.067C48.5845 175.853 49.4175 175.321 50.4013 175.314C50.3696 175.274 50.314 175.187 50.1633 175.226C50.5917 175.083 51.6945 174.441 51.7104 174.917C51.6152 174.639 52.599 174.528 53.1147 174.417L52.9481 174.25C53.4558 174.322 53.5114 174.385 54.0826 174.171C54.1937 174.076 54.1064 173.957 53.9715 174.1C54.3365 173.774 54.4079 174.108 54.8442 173.703H54.5904C55.0029 173.425 55.0109 173.521 55.3282 173.505C55.6376 173.409 56.074 172.933 56.0026 172.719C56.1216 172.775 56.4389 172.743 56.6294 172.521C56.6135 172.442 56.5024 172.473 56.4469 172.481C56.9705 171.854 57.5338 171.87 57.7718 171.307C57.7242 171.251 57.7242 171.196 57.7401 171.148C57.2958 171.608 56.9308 171.973 56.9705 171.95C56.8356 171.799 57.1847 171.434 56.7008 171.497C57.0975 171.347 57.8353 171.069 58.0892 170.617C58.0892 170.585 58.0892 170.553 58.0812 170.522L58.0257 170.545C58.0892 170.442 58.1685 170.387 58.2558 170.323C58.3272 170.172 58.3669 170.077 58.4621 169.958C58.3748 169.815 58.7398 169.443 58.8667 169.22C59.0412 169.363 59.1999 169.062 59.1761 169.427C59.184 169.387 59.1285 169.45 59.0254 169.593C59.0016 169.625 58.9698 169.657 58.946 169.673H58.9698C58.8746 169.807 58.7318 169.982 58.5731 170.172C58.7874 170.077 59.0095 169.966 59.0571 169.657C59.2475 169.625 59.4538 169.585 59.5569 169.554C59.5093 169.086 59.6759 168.403 59.5569 168.237C60.025 167.602 60.3741 166.626 60.8977 166.261C61.0168 166.055 60.8581 165.983 60.8105 165.88C60.747 165.999 60.6994 166.142 60.6201 166.19C60.8581 165.793 60.9612 164.928 61.2468 164.857C61.1913 164.278 60.9374 165.134 61.0882 164.373L60.985 164.468C60.8263 163.706 61.0009 163.135 61.0882 162.485C61.1199 162.159 61.1675 161.818 61.0882 161.477C61.0485 161.302 61.0088 161.128 60.9295 160.945C60.8343 160.771 60.7232 160.604 60.5804 160.43C60.6518 160.525 60.6915 160.573 60.747 160.58C60.2789 159.732 59.8584 158.843 59.2396 158.042C58.6366 157.248 57.8829 156.542 56.9864 156.137C56.4865 155.892 56.5579 155.693 56.3437 155.4L56.1137 155.542L55.7646 155.003C55.1219 154.416 54.2492 154.836 53.4558 154.083L53.6462 153.987C53.2971 153.853 52.5752 153.448 52.5672 153.646C52.5434 153.607 52.5117 153.448 52.3451 153.472L52.2895 153.583L51.4803 153.075C50.7663 152.948 51.4327 153.583 50.433 153.297C50.076 153.146 49.4651 152.647 49.6317 152.607C49.7825 152.647 50.0443 152.639 50.0839 152.52L49.7507 152.361C49.7825 151.988 49.6 151.544 50.5441 151.536C50.7266 151.663 50.9091 151.798 51.0915 151.933L51.3375 151.821L50.8297 151.655C51.1709 151.583 51.3137 151.782 51.4882 151.94C51.5676 151.861 51.6707 151.829 51.8056 151.829L52.2816 152.369C52.4006 152.258 52.1071 152.004 52.5355 152.067C52.7576 152.321 52.1626 152.282 52.5831 152.543C52.9243 152.488 52.8925 152.337 53.1702 152.599C53.2495 152.528 53.2019 152.448 53.0829 152.353C53.3447 152.575 53.8525 152.71 53.9319 152.956C54.3127 152.885 54.8918 153.448 55.0109 153.123C55.0664 153.25 55.3996 153.607 55.6535 153.773C55.3758 153.146 56.6373 154.281 56.7325 153.845C56.8832 154.376 57.8988 154.773 58.3272 155.408C58.3113 155.36 58.2875 155.265 58.232 155.233C58.5652 155.463 58.7318 155.447 58.9857 155.566C58.8191 155.836 59.2396 156.32 59.3427 156.693C59.8981 156.852 59.3983 156.217 59.7077 156.13C59.5173 156.28 60.1282 156.955 59.8584 156.971C60.2551 157.129 60.152 157.153 60.4693 157.153C60.2075 157.447 60.6439 157.486 60.6439 157.883C61.112 158.24 61.0247 157.804 61.2627 158.391C61.5245 158.589 61.342 158.034 61.342 158.034H61.3341ZM59.0333 171.601C59.1206 171.513 59.192 171.442 59.2316 171.394C59.192 171.434 59.1285 171.497 59.0254 171.601H59.0333ZM58.2161 172.465C58.3113 172.354 58.4383 172.227 58.5731 172.092C58.5493 172.013 58.4541 171.989 58.3748 172.077C58.4541 172.069 58.2955 172.291 58.2161 172.465ZM58.6049 169.665C58.4779 169.776 58.4779 169.847 58.5017 169.895C58.5573 169.839 58.6207 169.768 58.7001 169.673C58.708 169.673 58.7239 169.673 58.7318 169.673C58.6842 169.665 58.6445 169.657 58.6049 169.665Z" fill="#C6B08D"/>
<path d="M59.0099 169.577C59.0099 169.577 59.0416 169.553 59.0654 169.529C59.0654 169.569 59.0575 169.609 59.0496 169.64C59.0179 169.64 58.9861 169.64 58.9544 169.648C58.9703 169.624 58.9941 169.601 59.0099 169.577Z" fill="#C6B08D"/>
<path d="M34.2869 151.012H34.2633C34.2633 151.012 34.3027 150.996 34.3105 150.98C34.2948 150.988 34.2948 150.996 34.2869 151.012Z" fill="#C6B08D"/>
<path d="M43.5385 178.718L43.5306 178.662L43.6416 178.702L43.5385 178.718Z" fill="#C6B08D"/>
<path d="M40.5954 150.538C40.5954 150.538 40.635 150.506 40.6826 150.49C40.6826 150.506 40.635 150.522 40.5954 150.538Z" fill="#C6B08D"/>
<path d="M43.3008 150.98H43.6973C43.5228 150.988 43.4039 150.98 43.3008 150.98Z" fill="#C6B08D"/>
<path d="M45.3796 151.369C45.3955 151.417 45.3955 151.441 45.3955 151.472L45.3876 151.369H45.3796Z" fill="#C6B08D"/>
<path d="M13.2314 157.311C13.2314 157.311 13.1839 157.334 13.1601 157.342C12.9777 157.398 13.0967 157.35 13.2314 157.311Z" fill="#C6B08D"/>
<path d="M22.3398 153.297C22.2288 153.297 22.1178 153.297 22.0068 153.32C22.1654 153.233 22.2923 153.178 22.3398 153.297Z" fill="#C6B08D"/>
<path d="M4.05957 163.912L4.01236 163.967L4.05957 163.912Z" fill="#C6B08D"/>
<path d="M21.5787 153.512C21.7214 153.401 21.8641 153.354 22.0068 153.33C21.88 153.401 21.7293 153.489 21.5787 153.512Z" fill="#C6B08D"/>
<path d="M54.0504 154.146L54.1455 154.17C54.1455 154.17 54.1455 154.194 54.1455 154.21L54.0504 154.146Z" fill="#C6B08D"/>
<path d="M54.1461 154.211L54.2412 154.274C54.1936 154.258 54.154 154.235 54.1461 154.211Z" fill="#C6B08D"/>
<path d="M54.4395 154.416L54.2412 154.281C54.3205 154.313 54.4157 154.337 54.4395 154.416Z" fill="#C6B08D"/>
<path d="M51.4086 153.281V153.193C51.4086 153.193 51.4165 153.241 51.4086 153.281Z" fill="#C6B08D"/>
<path d="M50.6233 152.98C50.8215 153.028 51.1545 152.98 51.4082 153.123V153.195C51.3289 153.036 50.7581 153.171 50.6233 152.98Z" fill="#C6B08D"/>
<path d="M46.9821 152.838L47.6719 152.981C47.5292 153.028 47.3389 153.092 47.6402 153.203C46.7284 153.187 47.8701 153.068 46.99 152.838H46.9821Z" fill="#C6B08D"/>
<path d="M44.8632 152.377C45.212 152.512 44.8235 152.496 44.8314 152.551C44.6253 152.417 44.5698 152.377 44.8632 152.377Z" fill="#C6B08D"/>
<path d="M29.5115 151.869L29.5908 152.059C29.3054 152.099 29.567 151.98 29.5115 151.869Z" fill="#C6B08D"/>
<path d="M26.3396 151.632L26.5774 151.426L26.7598 151.568L26.3396 151.632Z" fill="#C6B08D"/>
<path d="M25.1095 153.569L25.2363 153.553L24.7685 153.64L25.1095 153.569Z" fill="#C6B08D"/>
<path d="M3.79072 167.546L3.62421 167.348C3.759 167.213 4.02064 167.332 3.79072 167.546Z" fill="#C6B08D"/>
<path d="M6.70992 175.726C6.86849 175.671 7.17771 175.71 7.3125 175.893C7.07464 175.821 6.81299 175.814 6.70992 175.726Z" fill="#C6B08D"/>
<path d="M40.2696 177.13L40.0317 177.074L40.4678 177.098L40.2696 177.13Z" fill="#C6B08D"/>
<path d="M9.55937 69.1582C9.55937 69.2613 9.55937 69.7215 9.53556 70.8719C9.51176 72.1254 10.1147 73.0299 10.9002 73.6804C12.2648 74.8229 14.1768 75.1561 14.1768 75.1561C14.1768 75.1561 16.8981 76.6318 17.3107 74.6642C17.6043 73.2599 16.319 69.1899 15.5653 66.9367C15.2479 66.0164 15.0178 65.4055 15.0178 65.4055L15.5732 62.8984L14.2324 62.6048C14.2324 62.6048 13.6056 61.1609 13.1931 60.6372C13.1613 60.6055 13.1375 60.5737 13.0899 60.5261L14.2324 59.5106C13.2089 57.8683 11.1303 57.0353 8.48036 56.1546L7.70284 55.623C6.38583 57.8842 3.93428 62.4144 4.54518 63.6362C5.36237 65.2785 9.54349 70.2213 9.54349 70.2213C9.54349 70.2213 9.55936 69.301 9.5673 69.1661L9.55937 69.1582Z" fill="#DFB957"/>
<path d="M6.58358 158.574L6.36143 160.352C6.40903 161.597 6.66291 163.454 7.78158 163.731C8.17034 163.834 9.32868 163.906 10.9075 163.953C11.931 163.993 13.129 164.009 14.4143 164.009C14.9617 164.009 15.5171 164.009 16.0804 164.009C18.0876 164.009 20.1821 163.961 22.0307 163.898C23.8158 163.834 25.3709 163.731 26.4102 163.596C26.9894 163.525 27.4099 163.438 27.6161 163.335C29.2584 162.51 27.1401 161.486 27.1401 161.486C25.9738 161.692 21.8483 161.692 20.206 161.692C19.5792 161.692 18.8334 161.597 18.0638 161.542L16.0804 159.384C16.0804 159.384 11.6612 157.686 9.88404 159.177L9.49529 158.662L9.0748 158.979L8.76538 158.566C8.74158 158.154 9.31281 157.408 9.91578 156.726C9.32868 156.742 8.88438 156.742 8.67017 156.742C7.84505 156.742 6.26622 155.099 5.82193 156.742C5.59978 157.543 6.06787 158.162 6.59151 158.566L6.58358 158.574Z" fill="#DFB957"/>
<path d="M49.0461 37.1386L45.8012 35.536C44.5317 34.6395 42.7942 33.4415 41.5248 32.6957C41.5248 32.6957 41.1202 31.9737 40.8108 31.3945L40.0491 31.4739L40.0174 33.5367H40.0491L42.7149 35.5915L31.9566 49.8169L31.8456 49.8328L30.1001 38.892C30.1001 38.892 29.275 37.2418 30.9252 36.4167L31.9566 36.4405C31.9725 35.4884 31.79 34.3777 30.9252 33.9492C29.275 34.7664 24.6575 37.1148 24.6575 37.1148H24.5782C24.5306 37.4163 24.4433 37.7337 24.3322 38.0669C23.515 40.5422 20.4208 46.3101 18.6675 47.9524C17.5171 49.0473 15.962 48.4681 15.0338 47.9524C14.6688 47.7462 14.407 47.5557 14.3039 47.4764L14.2483 47.4288L11.3684 53.7124L11.3446 54.0615C10.4322 54.0059 9.34523 54.0218 8.48838 54.2995C8.48838 54.2995 8.17102 54.8152 7.71087 55.6006L8.48838 56.1322C11.1462 57.0208 13.2169 57.8459 14.2404 59.4882L13.0979 60.5037C13.1455 60.5513 13.1693 60.5831 13.2011 60.6148C13.6136 61.1385 14.2404 62.5824 14.2404 62.5824L15.5812 62.876L15.0259 65.3831C15.0259 65.3831 15.2559 65.994 15.5733 66.9143L16.0811 66.7794C16.4936 67.2237 16.8665 67.8108 17.1839 68.4455L18.9848 68.2948C20.04 70.183 23.0707 70.183 23.0707 70.183L34.2178 72.103C34.2178 72.103 35.2412 71.4207 36.3758 70.6273L34.3447 69.9133C34.5748 69.4214 35.0429 68.3424 35.0905 67.7553C35.146 66.9698 40.8028 65.2402 42.707 66.0733C44.2303 66.7397 44.2144 67.3903 44.0478 68.501L44.9284 68.5407L49.0461 66.7794H49.1016C49.1572 68.5407 49.292 71.0557 49.5856 73.4756C50.0378 77.1092 50.8471 80.5208 52.3466 80.9016C55.5518 81.7029 62.6288 77.0616 63.0414 76.7998L63.3666 77.2045L66.5798 74.6339C67.2622 74.2213 68 73.5628 68 72.6584C68 71.0161 63.0572 57.0049 63.0572 57.0049C63.0572 57.0049 63.8823 53.7045 63.8823 51.237C63.8823 48.7696 62.2321 47.9366 59.7568 46.2943C59.7568 46.2943 54.814 39.7013 51.9657 38.051C50.6487 37.2894 49.7443 37.0514 49.0461 37.1148V37.1386Z" fill="#DFB957"/>
<path d="M9.48821 158.66L9.87697 159.176C11.6542 157.684 16.0733 159.382 16.0733 159.382L18.0567 161.54C18.8263 161.596 19.5721 161.691 20.1989 161.691C21.8412 161.691 25.9668 161.691 27.133 161.484C28.2993 161.286 28.4421 160.866 28.093 157.978C27.7439 155.09 27.617 150.147 29.6084 146.759L29.4497 145.775C27.617 146.132 25.9747 146.307 25.1417 146.029C24.737 145.894 24.1261 145.672 23.3645 145.387L23.063 146.172C22.6742 146.854 23.0313 153.035 22.0316 154.479C21.0319 155.923 20.1989 155.098 16.9063 155.923C14.4627 156.526 11.5827 156.684 9.9087 156.724C9.30573 157.406 8.7345 158.144 8.7583 158.565L9.06772 158.977L9.48821 158.66Z" fill="#DFB957"/>
<path d="M11.7252 46.7156L11.6935 46.7553C9.95596 48.5166 8.48028 54.3162 8.48028 54.3162C9.33713 54.0464 10.4241 54.0306 11.3365 54.0782L11.3603 53.7291L14.2402 47.4455C13.5103 46.9853 12.9391 46.3586 12.5107 45.6445L11.7252 46.7156Z" fill="#DFB957"/>
<path d="M10.9083 163.953V164.017L13.6772 168.285L14.415 164.017C13.1298 164.017 11.9397 163.985 10.9083 163.953Z" fill="#DFB957"/>
<path d="M46.1821 78.9893C46.2218 76.3552 46.2456 74.6653 46.2456 74.6653C45.3332 75.1255 44.4843 75.5698 44.1987 75.7285H42.3263C41.4298 77.0455 40.7078 77.8468 39.5891 77.7516C38.3276 77.6326 35.9713 76.4584 35.9713 76.4584V75.1572H35.0827C35.0827 75.1572 34.932 75.1175 34.6781 75.0541C32.4328 74.5066 21.7618 71.8964 21.0954 72.1344C19.945 73.0548 18.4058 77.347 17.5331 80.3698C17.0809 81.8851 16.8111 83.0672 16.8349 83.3608C16.8984 84.2335 10.7576 135.605 11.3526 138.35C11.8604 140.651 19.461 143.912 23.3645 145.395C24.1261 145.681 24.737 145.903 25.1416 146.038C25.9747 146.316 27.617 146.141 29.4497 145.784C33.0517 145.086 37.3359 143.682 37.3359 143.682C37.3359 143.682 37.7326 143.523 38.3832 143.261C40.0414 142.587 43.318 141.206 45.5633 139.921C47.158 139.017 48.2291 138.16 47.8086 137.652C46.5709 136.152 39.2083 129.107 39.5891 127.275C39.9779 125.442 45.7458 112.668 45.7458 109.17C45.7458 106.48 46.0393 87.6451 46.1821 78.9972V78.9893Z" fill="#DFB957"/>
<path d="M11.8444 38.0748C11.3049 39.5029 11.1541 41.7561 11.7174 43.7792L13.6057 43.8427C13.6057 43.8427 17.7313 44.6678 18.001 42.605C18.2629 40.5501 14.4308 38.0748 15.7716 37.1227C17.1124 36.1707 20.1987 38.0748 21.3094 36.4325C22.4202 34.7822 18.5405 32.3069 16.6761 32.3069L15.7954 31.2676C13.931 32.7274 12.6298 35.9882 11.8364 38.0748H11.8444Z" fill="#F5C441"/>
<path d="M17.1751 68.4688C16.8577 67.8341 16.4928 67.247 16.0723 66.8027L15.5645 66.9376C16.3262 69.1908 17.6114 73.2609 17.31 74.6652C16.8974 76.6327 14.1761 75.1571 14.1761 75.1571C14.1761 75.1571 12.264 74.8238 10.8994 73.6814C11.1295 76.8073 12.272 81.3454 14.1761 82.3689C15.501 83.0829 16.8498 81.4248 17.5321 80.3616C18.4048 77.3468 19.944 73.0467 21.0944 72.1263C21.7608 71.8883 32.4318 74.4986 34.6771 75.046L35.0817 73.5306L38.3584 71.206L37.4381 69.8969C37.089 70.1429 36.724 70.3968 36.367 70.6427C35.2325 71.4361 34.209 72.1184 34.209 72.1184L23.062 70.1984C23.062 70.1984 20.0313 70.1984 18.9761 68.3102L17.1751 68.4609V68.4688Z" fill="#DFB957"/>
<path d="M12.503 45.6441C12.9315 46.3581 13.5027 46.9849 14.2326 47.4451L14.2881 47.4927L15.0181 47.9687C15.9384 48.4765 17.4934 49.0556 18.6518 47.9687C20.4051 46.3264 23.4993 40.5506 24.3165 38.0832C24.4276 37.7499 24.5149 37.4326 24.5625 37.1232C24.9036 35.1714 24.0785 33.7433 22.5076 32.3153C20.6907 30.673 19.3817 29.8399 16.9063 30.673C16.5255 30.7999 16.1526 31.0062 15.8035 31.2759L16.6842 32.3153C18.5486 32.3153 22.4283 34.7906 21.3175 36.4409C20.2068 38.0832 17.1205 36.179 15.7797 37.1311C14.4389 38.0832 18.2709 40.5585 18.0091 42.6134C17.7394 44.6762 13.6138 43.851 13.6138 43.851L11.7255 43.7876C11.9001 44.454 12.1698 45.0808 12.5189 45.652L12.503 45.6441Z" fill="#F5C441"/>
<path d="M14.4071 164.016L13.6693 168.284H15.4941L16.0732 164.016C15.5099 164.016 14.9546 164.016 14.4071 164.016Z" fill="#DFB957"/>
<path d="M40.4685 30.6802C41.2778 30.2756 42.1029 29.7202 42.452 29.0062C43.2692 27.3639 43.2692 26.5308 43.2692 26.5308C43.2692 26.5308 44.0943 28.1811 45.7445 28.0859C47.3948 27.9906 49.8701 26.5308 49.8701 24.8806C49.8701 23.5398 48.7832 22.1989 47.0536 21.3104C47.0536 21.3104 47.244 21.0009 47.6883 20.16L43.2771 19.1127L42.7059 10.2665C42.7059 10.2665 45.7445 10.8694 46.5696 10.0443C46.2602 9.11607 45.2526 8.19575 43.8642 7.39444C41.5396 6.06949 38.1201 5.10156 35.0339 5.10156C34.6927 5.10156 34.3754 5.11743 34.0818 5.14123C29.98 5.42685 29.266 7.57691 29.266 7.57691C27.6237 8.40203 24.3232 11.7025 24.3232 15.8202C24.3232 19.9378 25.1483 27.3559 25.1483 27.3559C25.1483 27.3559 29.266 33.1238 30.9162 33.9489C31.781 34.3774 31.9635 35.4881 31.9476 36.4402L30.9162 36.4164C29.266 37.2336 30.0911 38.8917 30.0911 38.8917L31.8365 49.8325L31.9476 49.8166L42.7059 35.5912L40.0401 33.5364H40.0084L40.0401 31.4736L40.8018 31.3942C40.6113 31.0293 40.4527 30.7119 40.4685 30.6802ZM28.0362 16.796C27.6237 16.7167 27.4809 15.8836 27.9648 15.2965C28.4409 14.7094 29.4326 14.5269 29.6627 14.8284C29.8689 15.0902 29.4643 15.6853 29.377 15.8202C29.0835 16.2644 28.4488 16.8754 28.0442 16.796H28.0362ZM35.859 17.4783C35.613 16.7405 36.1922 15.844 36.6841 15.8281C37.1125 15.8281 37.4378 16.5025 37.5013 16.6532C37.7393 17.1451 37.898 18.0258 37.5013 18.2955C37.0887 18.5811 36.097 18.2082 35.859 17.4783Z" fill="#DFB957"/>
<path d="M27.9651 15.2967C27.4891 15.8759 27.6239 16.7169 28.0365 16.7962C28.4411 16.8755 29.0758 16.2646 29.3694 15.8203C29.4567 15.6855 29.8613 15.0904 29.655 14.8286C29.4249 14.5271 28.4411 14.7017 27.9572 15.2967H27.9651Z" fill="#4F4131"/>
<path d="M34.0832 5.10972V5.14939C34.3768 5.12559 34.6941 5.10972 35.0353 5.10972C38.1295 5.10972 41.541 6.07764 43.8656 7.40259L43.9291 6.9107C44.0957 5.10972 43.2706 4.2846 41.6283 2.6423C39.986 0.999994 35.8604 1 35.8604 1L34.0832 5.11766V5.10972Z" fill="#DFB957"/>
<path d="M42.3256 75.7201H44.198C44.4757 75.5693 45.3246 75.125 46.2449 74.6649C47.3795 74.0936 48.6251 73.5303 49.0376 73.5462L49.5771 73.5065C49.2836 71.0867 49.1487 68.5717 49.0932 66.8104H49.0376L44.92 68.5717L44.0393 68.532C44.198 67.4213 44.2139 66.7707 42.6985 66.1042C40.7944 65.2712 35.1376 67.0008 35.0821 67.7862C35.0344 68.3654 34.5664 69.4444 34.3363 69.9442L36.3673 70.6583C36.7243 70.4123 37.0893 70.1584 37.4384 69.9125L38.3587 71.2216L35.0821 73.5462L34.6774 75.0615C34.9392 75.125 35.0821 75.1647 35.0821 75.1647H35.9706V76.4658C35.9706 76.4658 38.327 77.64 39.5885 77.759C40.7071 77.8542 41.4291 77.0609 42.3256 75.728V75.7201Z" fill="#DFB957"/>
<path d="M41.4461 161.494L44.5721 159.463C44.8973 158.4 45.7066 155.528 45.5717 153.925C45.3892 151.91 50.697 147.689 50.57 146.182C50.5224 145.69 50.094 145.158 49.491 144.555C48.2375 143.325 46.262 141.826 45.5796 139.922C43.3344 141.207 40.0577 142.596 38.3995 143.262L41.4541 146.174C41.4541 146.174 39.8752 152.441 38.3995 155.71C38.0901 156.392 37.7886 156.948 37.503 157.281L35.8686 159.217C35.8686 159.217 33.4964 159.868 35.0991 160.367L36.9397 160.685C37.2412 160.78 37.6141 160.899 38.0108 161.026C38.4313 161.169 38.9073 161.311 39.3754 161.462C40.026 161.661 40.6924 161.867 41.2795 162.041L41.4461 161.494Z" fill="#DFB957"/>
<path d="M36.6853 15.8204C36.1934 15.8362 35.6143 16.7328 35.8602 17.4706C36.1062 18.2005 37.09 18.5734 37.5025 18.2878C37.8992 18.0181 37.7405 17.1374 37.5025 16.6455C37.439 16.4868 37.1138 15.8124 36.6853 15.8204Z" fill="#4F4131"/>
<path d="M44.4445 159.867C44.4604 159.819 44.5001 159.677 44.5715 159.462L41.4456 161.493L41.2789 162.041C42.2231 162.319 42.9768 162.517 43.2069 162.517C43.3417 162.517 43.7305 162.081 44.2938 161.359C45.0078 160.438 45.9996 159.05 47.0627 157.495C47.6736 156.598 48.3083 155.654 48.9272 154.718C49.7999 153.401 50.6409 152.1 51.3311 150.981C51.5771 150.6 51.7992 150.235 51.9975 149.902C52.7195 148.704 53.1797 147.871 53.1797 147.689C53.1797 146.919 52.4656 146.157 50.9423 145.062L49.4984 144.555C50.0934 145.15 50.5298 145.681 50.5774 146.181C50.7123 147.696 45.3966 151.917 45.5791 153.925C45.7219 155.535 44.9047 158.399 44.5794 159.462L44.9523 159.216L44.4525 159.867H44.4445Z" fill="#DFB957"/>
<path d="M42.7073 10.2749L43.2786 19.1211L47.6898 20.1684C47.8405 19.8907 48.0151 19.5416 48.2293 19.1211C49.0464 17.4788 47.4041 12.5281 46.579 10.0527C45.7539 10.8779 42.7153 10.2749 42.7153 10.2749H42.7073Z" fill="#DFB957"/>
<path d="M45.4442 161.598C46.5311 161.86 49.0461 162.439 49.0461 162.185L49.2048 161.987L49.8633 162.511L51.2676 160.678L47.0547 157.48C45.9916 159.035 44.9999 160.424 44.2858 161.344L44.4445 161.463L45.4442 161.59V161.598Z" fill="#DFB957"/>
<path d="M55.6402 155.923L56.0527 154.305L51.3242 150.973C50.6339 152.091 49.7929 153.392 48.9202 154.71C48.9202 154.71 54.8151 155.923 55.6402 155.923Z" fill="#DFB957"/>
<path d="M31.7419 38.0744C31.7419 38.0744 31.9244 37.3287 31.9482 36.448C31.964 35.4959 31.7815 34.3852 30.9168 33.9568C29.2665 33.1316 25.1489 27.3638 25.1489 27.3638C25.1489 27.3638 24.3237 19.9456 24.3237 15.828C24.3237 11.7103 27.6242 8.40985 29.2665 7.58474C29.2665 7.58474 29.9806 5.43466 34.0824 5.14905C34.3759 5.12525 34.6933 5.10938 35.0344 5.10938C38.1286 5.10938 41.5402 6.0773 43.8648 7.40225C45.2611 8.19563 46.2608 9.12389 46.5702 10.0521C47.3953 12.5275 49.0456 17.4782 48.2204 19.1205C48.0062 19.541 47.8317 19.8901 47.6809 20.1678C47.2366 21.0088 47.0462 21.3182 47.0462 21.3182" stroke="#4F4131" stroke-linecap="round" stroke-linejoin="round"/>
<path d="M45.7445 20.7637C46.2126 20.9223 46.649 21.1048 47.0536 21.319C48.7911 22.2156 49.8701 23.5485 49.8701 24.8893C49.8701 26.5316 47.3948 27.9993 45.7445 28.0945C44.1022 28.1897 43.2692 26.5395 43.2692 26.5395C43.2692 26.5395 43.2692 27.3646 42.452 29.0149C42.095 29.7289 41.2778 30.2843 40.4685 30.6889C39.3975 31.2205 38.3264 31.4823 38.3264 31.4823" stroke="#4F4131" stroke-linecap="round" stroke-linejoin="round"/>
<path d="M40.041 31.4824L40.0093 33.5452L39.9934 34.2593L39.9855 35.6001" stroke="#4F4131" stroke-linecap="round" stroke-linejoin="round"/>
<path d="M40.0413 33.543L42.707 35.5978L31.9488 49.8232" stroke="#4F4131" stroke-linecap="round" stroke-linejoin="round"/>
<path d="M30.9164 36.4336C29.2661 37.2508 30.0913 38.9089 30.0913 38.9089L31.8367 49.8497L33.3838 59.5052" stroke="#4F4131" stroke-linecap="round" stroke-linejoin="round"/>
<path d="M26.5783 41.6934C25.9753 43.0183 28.8553 62.7101 29.8867 63.5828" stroke="#4F4131" stroke-linecap="round" stroke-linejoin="round"/>
<path d="M44.1025 39.1777C44.1025 39.1777 35.2325 51.5386 35.1294 52.6335C35.0342 53.7363 35.1294 55.7277 35.1294 55.7277" stroke="#4F4131" stroke-linecap="round" stroke-linejoin="round"/>
<path d="M40.803 32.3066C41.0172 32.4098 41.2631 32.5446 41.517 32.6954C42.7864 33.4412 44.5239 34.6471 45.7933 35.5357C46.317 35.9006 46.7533 36.218 47.0469 36.4322" stroke="#4F4131" stroke-linecap="round" stroke-linejoin="round"/>
<path d="M47.0547 38.0749C47.6894 37.6306 48.2368 37.1863 49.0461 37.1387C49.7443 37.0832 50.6487 37.3133 51.9657 38.0749C54.814 39.7172 59.7568 46.3182 59.7568 46.3182C62.2321 47.9605 63.8823 48.7935 63.8823 51.2609C63.8823 53.7284 63.0572 57.0289 63.0572 57.0289C63.0572 57.0289 68 71.04 68 72.6823C68 73.5867 67.2542 74.2452 66.5798 74.6499C66.0324 74.9831 65.5326 75.1497 65.5326 75.1497" stroke="#4F4131" stroke-linecap="round" stroke-linejoin="round"/>
<path d="M63.0566 76.8083L63.0408 76.8241C62.6282 77.086 55.5433 81.7273 52.346 80.9259C50.8465 80.5531 50.0372 77.1336 49.585 73.4999C49.2915 71.0801 49.1566 68.565 49.101 66.8037C49.0455 65.3836 49.0455 64.4395 49.0455 64.4395" stroke="#4F4131" stroke-linecap="round" stroke-linejoin="round"/>
<path d="M49.047 58.8045C49.8722 57.8525 51.5224 57.0273 51.5224 57.0273L56.0605 64.0012" stroke="#4F4131" stroke-linecap="round" stroke-linejoin="round"/>
<path d="M43.928 49.127C43.928 49.127 45.7449 54.5537 47.3951 55.3868C47.8632 55.6168 52.7187 55.3867 54.6228 55.7279C57.2807 56.2039 58.9785 59.5044 58.9785 59.5044" stroke="#4F4131" stroke-linecap="round" stroke-linejoin="round"/>
<path d="M45.7445 67.7405C45.7445 65.2651 47.3948 57.8549 47.3948 57.8549L49.8701 55.7207" stroke="#4F4131" stroke-linecap="round" stroke-linejoin="round"/>
<path d="M49.0459 66.8027L44.9282 68.572" stroke="#4F4131" stroke-linecap="round" stroke-linejoin="round"/>
<path d="M49.0459 73.5394C48.6333 73.5235 47.3877 74.0947 46.2532 74.658C45.3408 75.1182 44.4919 75.5625 44.2063 75.7212C44.1428 75.7609 44.1031 75.7767 44.1031 75.7767" stroke="#4F4131" stroke-linecap="round" stroke-linejoin="round"/>
<path d="M43.9276 69.4682C43.9594 69.1191 44.007 68.8097 44.0467 68.532C44.2053 67.4213 44.2212 66.7707 42.7058 66.1042C40.8017 65.2712 35.1449 67.0008 35.0894 67.7862C35.0418 68.3654 34.5737 69.4444 34.3436 69.9442C34.2642 70.1109 34.2087 70.214 34.2087 70.214" stroke="#4F4131" stroke-linecap="round" stroke-linejoin="round"/>
<path d="M39.5898 70.3574L38.368 71.2143L35.0914 73.5389" stroke="#4F4131" stroke-linecap="round" stroke-linejoin="round"/>
<path d="M40.8018 71.9453L35.978 75.1585" stroke="#4F4131" stroke-linecap="round" stroke-linejoin="round"/>
<path d="M42.707 75.1582C42.5801 75.3565 42.4532 75.539 42.3341 75.7215C41.4376 77.0465 40.7156 77.8478 39.597 77.7526C38.3355 77.6336 35.9792 76.4594 35.9792 76.4594" stroke="#4F4131" stroke-linecap="round" stroke-linejoin="round"/>
<path d="M23.0634 49.127C22.6746 50.436 18.0572 65.1612 18.7157 67.6842C18.7712 67.9222 18.8664 68.1364 18.9775 68.3268C20.0327 70.2151 23.0634 70.2151 23.0634 70.2151L34.2104 72.135C34.2104 72.135 35.2339 71.4527 36.3684 70.6594C36.7254 70.4134 37.0904 70.1595 37.4395 69.9136C38.2011 69.3662 38.8755 68.8584 39.1611 68.5728" stroke="#4F4131" stroke-linecap="round" stroke-linejoin="round"/>
<path d="M21.1035 70.2148V72.1348C21.7699 71.8968 32.4409 74.507 34.6862 75.0545C34.948 75.1179 35.0908 75.1576 35.0908 75.1576" stroke="#4F4131" stroke-linecap="round" stroke-linejoin="round"/>
<path d="M14.2327 47.4457C13.5028 46.9855 12.9316 46.3588 12.5032 45.6447C12.1541 45.0655 11.8923 44.4388 11.7098 43.7803C11.1385 41.7571 11.2972 39.5119 11.8367 38.0758C12.6301 35.9892 13.9313 32.7284 15.7957 31.2686C16.1448 30.9989 16.5097 30.7926 16.8985 30.6656C19.3739 29.8405 20.6829 30.6657 22.4998 32.308C24.0707 33.736 24.8958 35.1641 24.5546 37.1158C24.507 37.4253 24.4198 37.7426 24.3087 38.0758C23.4915 40.5512 20.3973 46.3191 18.6439 47.9614C17.4935 49.0562 15.9385 48.4771 15.0103 47.9614C14.6453 47.7551 14.3835 47.5647 14.2803 47.4853" stroke="#4F4131" stroke-linecap="round" stroke-linejoin="round"/>
<path d="M12.789 53.7289L15.0264 47.9689L14.2885 47.4929L14.233 47.4453L11.353 53.7289" stroke="#4F4131" stroke-linecap="round" stroke-linejoin="round"/>
<path d="M9.55937 69.1589C9.55937 69.2621 9.55937 69.7222 9.53557 70.8726C9.51176 72.1262 10.1147 73.0307 10.9002 73.6812C12.2648 74.8237 14.1768 75.1569 14.1768 75.1569C14.1768 75.1569 16.8981 76.6326 17.3107 74.665C17.6043 73.2607 16.319 69.1907 15.5653 66.9375C15.2479 66.0171 15.0178 65.4062 15.0178 65.4062" stroke="#4F4131" stroke-linecap="round" stroke-linejoin="round"/>
<path d="M16.0801 58.6722L13.1922 54.3086C13.1922 54.3086 12.375 54.1499 11.3356 54.0706C10.4233 54.0151 9.33633 54.0309 8.47947 54.3086C8.47947 54.3086 8.16211 54.8243 7.70195 55.6098C6.38493 57.8709 3.93339 62.4011 4.54429 63.6229C5.36147 65.2652 9.5426 70.208 9.5426 70.208C9.5426 70.208 9.55847 69.2877 9.5664 69.1528V69.1369" stroke="#4F4131" stroke-linecap="round" stroke-linejoin="round"/>
<path d="M8.48138 56.1406C11.1392 57.0292 13.2099 57.8543 14.2334 59.4966" stroke="#4F4131" stroke-linecap="round" stroke-linejoin="round"/>
<path d="M7.91807 58.6719C10.1633 58.6719 12.4642 59.9334 13.0909 60.5125C13.1385 60.5601 13.1623 60.5919 13.1941 60.6236C13.6066 61.1472 14.2334 62.5912 14.2334 62.5912" stroke="#4F4131" stroke-linecap="round" stroke-linejoin="round"/>
<path d="M6.79702 60.5116C8.66147 60.3291 10.1292 60.7496 12.2793 62.5982" stroke="#4F4131" stroke-linecap="round" stroke-linejoin="round"/>
<path d="M6.79771 62.5977C8.66216 63.6211 13.1924 64.4383 13.1924 64.4383" stroke="#4F4131" stroke-linecap="round" stroke-linejoin="round"/>
<path d="M12.2798 69.1913C13.6047 66.9223 15.0249 65.4069 15.0249 65.4069L15.5802 62.8998L16.0801 60.6387" stroke="#4F4131" stroke-linecap="round" stroke-linejoin="round"/>
<path d="M15.0245 52.6341C16.9048 52.0867 18.6582 57.0295 18.6582 57.0295" stroke="#4F4131" stroke-linecap="round" stroke-linejoin="round"/>
<path d="M30.918 33.957C29.2677 34.7742 24.6502 37.1226 24.6502 37.1226" stroke="#4F4131" stroke-linecap="round" stroke-linejoin="round"/>
<path d="M11.6934 46.7559C9.95585 48.5172 8.48017 54.3168 8.48017 54.3168" stroke="#4F4131" stroke-linecap="round" stroke-linejoin="round"/>
<path d="M12.2793 46.3262C12.0969 46.3975 11.9146 46.5403 11.7243 46.7147" stroke="#4F4131" stroke-linecap="round" stroke-linejoin="round"/>
<path d="M16.0797 66.8027C16.4923 67.247 16.8652 67.8341 17.1825 68.4688C18.1425 70.365 18.6582 72.6817 18.6582 72.6817" stroke="#4F4131" stroke-linecap="round" stroke-linejoin="round"/>
<path d="M10.908 73.6816C11.1381 76.8076 12.2806 81.3457 14.1847 82.3692C15.5096 83.0832 16.8584 81.425 17.5407 80.3619C17.8342 79.9097 18.0088 79.5685 18.0088 79.5685" stroke="#4F4131" stroke-linecap="round" stroke-linejoin="round"/>
<path d="M21.1032 72.1348C19.9528 73.0551 18.4136 77.3473 17.5409 80.3701C17.0887 81.8854 16.8189 83.0676 16.8427 83.3611C16.9062 84.2338 10.7654 135.605 11.3604 138.35C11.8682 140.651 19.4688 143.912 23.3723 145.396C24.1339 145.681 24.7448 145.903 25.1494 146.038C25.9825 146.316 27.6248 146.142 29.4575 145.784C33.0595 145.086 37.3437 143.682 37.3437 143.682C37.3437 143.682 37.7404 143.523 38.391 143.262C40.0492 142.587 43.3258 141.207 45.5711 139.921C47.1658 139.017 48.2369 138.16 47.8164 137.652C46.5787 136.153 39.2161 129.108 39.5969 127.275C39.9857 125.442 45.7536 112.669 45.7536 109.17C45.7536 106.48 46.0471 87.6454 46.1899 78.9975C46.2296 76.3635 46.2534 74.6736 46.2534 74.6736" stroke="#4F4131" stroke-linecap="round" stroke-linejoin="round"/>
<path d="M37.3449 82.5527C38.3366 85.8691 34.2189 130.068 34.2189 130.068" stroke="#4F4131" stroke-linecap="round" stroke-linejoin="round"/>
<path d="M38.3906 155.717C38.0812 156.399 37.7797 156.947 37.4941 157.28L35.8597 159.216C35.8597 159.216 33.4875 159.866 35.0902 160.366" stroke="#4F4131" stroke-linecap="round" stroke-linejoin="round"/>
<path d="M38.3918 143.262L41.4463 146.173C41.4463 146.173 39.8675 152.441 38.3918 155.71" stroke="#4F4131" stroke-linecap="round" stroke-linejoin="round"/>
<path d="M39.9863 159.215L38.0029 161.024L37.4951 161.492" stroke="#4F4131" stroke-linecap="round" stroke-linejoin="round"/>
<path d="M41.4463 159.383L39.3676 161.461L39.3438 161.493" stroke="#4F4131" stroke-linecap="round" stroke-linejoin="round"/>
<path d="M44.4355 159.883L43.1979 161.493" stroke="#4F4131" stroke-linecap="round" stroke-linejoin="round"/>
<path d="M43.4062 159.215L41.4465 161.492L44.5724 159.461L44.9453 159.215L44.4455 159.865" stroke="#4F4131" stroke-linecap="round" stroke-linejoin="round"/>
<path d="M49.4829 144.547C50.078 145.142 50.5143 145.673 50.5619 146.173C50.6968 147.689 45.3811 151.909 45.5636 153.917C45.7064 155.527 44.8892 158.391 44.564 159.455C44.5005 159.669 44.4529 159.819 44.437 159.859V159.875" stroke="#4F4131" stroke-linecap="round" stroke-linejoin="round"/>
<path d="M45.571 139.912C46.2534 141.816 48.2289 143.316 49.4824 144.545" stroke="#4F4131" stroke-linecap="round" stroke-linejoin="round"/>
<path d="M29.6084 146.76C27.617 150.155 27.7519 155.098 28.093 157.978C28.4421 160.866 28.2993 161.287 27.133 161.485C25.9668 161.691 21.8412 161.691 20.1989 161.691C19.5721 161.691 18.8263 161.596 18.0567 161.54C16.8032 161.453 15.4782 161.477 14.4469 162.183" stroke="#4F4131" stroke-linecap="round" stroke-linejoin="round"/>
<path d="M13.668 160.438L11.9622 162.516" stroke="#4F4131" stroke-linecap="round" stroke-linejoin="round"/>
<path d="M11.9639 159.883L9.87727 161.493" stroke="#4F4131" stroke-linecap="round" stroke-linejoin="round"/>
<path d="M10.9072 159.215L8.75715 160.683" stroke="#4F4131" stroke-linecap="round" stroke-linejoin="round"/>
<path d="M9.82812 158.408L9.48696 158.662L9.06647 158.979L7.77327 159.955" stroke="#4F4131" stroke-linecap="round" stroke-linejoin="round"/>
<path d="M6.58325 158.574C7.14655 159.003 7.78125 159.217 7.78125 159.217" stroke="#4F4131" stroke-linecap="round" stroke-linejoin="round"/>
<path d="M23.0635 146.174C22.6747 146.856 23.0317 153.037 22.0321 154.481C21.0324 155.924 20.1994 155.099 16.9068 155.925C14.4632 156.527 11.5832 156.686 9.90919 156.726C9.32208 156.742 8.8778 156.742 8.66358 156.742C7.83846 156.742 6.25964 155.099 5.81534 156.742C5.5932 157.543 6.06129 158.162 6.58492 158.566" stroke="#4F4131" stroke-linecap="round" stroke-linejoin="round"/>
<path d="M6.37729 159.176C6.37729 159.176 6.33763 159.676 6.36143 160.35C6.40904 161.596 6.66291 163.452 7.78158 163.73C8.17034 163.833 9.32868 163.904 10.9075 163.952C11.931 163.992 13.129 164.007 14.4143 164.007C14.9617 164.007 15.5171 164.007 16.0804 164.007C18.0876 164.007 20.1821 163.96 22.0307 163.896C23.8158 163.833 25.3709 163.73 26.4102 163.595C26.9894 163.523 27.4099 163.436 27.6161 163.333C29.2584 162.508 27.1401 161.485 27.1401 161.485" stroke="#4F4131" stroke-linecap="round" stroke-linejoin="round"/>
<path d="M38.391 159.383L35.9792 160.367C35.9792 160.367 36.352 160.494 36.9391 160.676C37.2406 160.78 37.6135 160.899 38.0102 161.025C38.4307 161.168 38.9067 161.311 39.3748 161.462C40.0254 161.66 40.6918 161.866 41.2789 162.041C42.2231 162.319 42.9768 162.517 43.2069 162.517C43.3417 162.517 43.7305 162.081 44.2938 161.359C45.0078 160.438 45.9996 159.05 47.0627 157.495C47.6736 156.598 48.3083 155.654 48.9272 154.718C49.7999 153.401 50.6409 152.1 51.3311 150.981C51.5771 150.6 51.7992 150.235 51.9975 149.902C52.7195 148.704 53.1797 147.871 53.1797 147.689C53.1797 146.919 52.4656 146.157 50.9423 145.063C50.8233 144.983 50.6964 144.896 50.5774 144.801" stroke="#4F4131" stroke-linecap="round" stroke-linejoin="round"/>
<path d="M50.5625 152.694C52.3397 153.456 55.6402 155.923 55.6402 155.923L56.0527 154.305L51.3242 150.973" stroke="#4F4131" stroke-linecap="round" stroke-linejoin="round"/>
<path d="M46.5708 159.882L49.2048 161.993L49.8633 162.516L51.2676 160.684L47.0547 157.486" stroke="#4F4131" stroke-linecap="round" stroke-linejoin="round"/>
<path d="M55.6396 155.925C54.8145 155.925 48.9197 154.711 48.9197 154.711" stroke="#4F4131" stroke-linecap="round" stroke-linejoin="round"/>
<path d="M49.0459 162.191C49.0459 162.444 46.5309 161.857 45.4439 161.604C45.1425 161.532 44.952 161.477 44.952 161.477" stroke="#4F4131" stroke-linecap="round" stroke-linejoin="round"/>
<path d="M26.4111 163.596V163.604L25.1417 168.285H23.6264L24.1976 164.334" stroke="#4F4131" stroke-linecap="round" stroke-linejoin="round"/>
<path d="M22.0313 164.016L23.626 168.284" stroke="#4F4131" stroke-linecap="round" stroke-linejoin="round"/>
<path d="M16.0801 164.016L15.493 168.284H13.6682L14.406 164.016" stroke="#4F4131" stroke-linecap="round" stroke-linejoin="round"/>
<path d="M10.907 164.016L13.668 168.284" stroke="#4F4131" stroke-linecap="round" stroke-linejoin="round"/>
<path d="M16.6839 32.3066C18.5483 32.3066 22.428 34.782 21.3173 36.4322C20.2065 38.0745 17.1203 36.1704 15.7794 37.1225C14.4386 38.0745 18.2707 40.5499 18.0088 42.6047C17.7391 44.6675 13.6135 43.8424 13.6135 43.8424" stroke="#4F4131" stroke-linecap="round" stroke-linejoin="round"/>
<path d="M47.6816 20.1684L43.2704 19.1211L42.6992 10.2749C42.6992 10.2749 45.7379 10.8779 46.563 10.0527" stroke="#4F4131" stroke-linecap="round" stroke-linejoin="round"/>
<path d="M43.9291 6.9107C44.0957 5.10972 43.2706 4.2846 41.6283 2.6423C39.986 0.999994 35.8604 1 35.8604 1L34.0832 5.11766" stroke="#4F4131" stroke-linecap="round" stroke-linejoin="round"/>
<path d="M29.2588 18.2969C29.2588 19.122 29.2588 21.5973 30.0839 22.4225C30.909 23.2396 31.9404 23.0413 31.9404 23.0413" stroke="#4F4131" stroke-linecap="round" stroke-linejoin="round"/>
<path d="M29.2584 25.4922C29.2584 25.4922 34.4312 27.5153 36.375 26.6109" stroke="#4F4131" stroke-linecap="round" stroke-linejoin="round"/>
<path d="M36.6853 15.8204C36.1934 15.8362 35.6143 16.7328 35.8602 17.4706C36.1062 18.2005 37.09 18.5734 37.5025 18.2878C37.8992 18.0181 37.7405 17.1374 37.5025 16.6455C37.439 16.4868 37.1138 15.8124 36.6853 15.8204Z" stroke="#4F4131" stroke-linecap="round" stroke-linejoin="round"/>
<path d="M29.6629 14.8364C29.4329 14.5349 28.4491 14.7095 27.9651 15.3045C27.4891 15.8837 27.6239 16.7247 28.0365 16.804C28.4411 16.8834 29.0758 16.2724 29.3694 15.8282C29.4567 15.6933 29.8613 15.0982 29.655 14.8364H29.6629Z" stroke="#4F4131" stroke-linecap="round" stroke-linejoin="round"/>
<path d="M9.87667 159.176C11.6539 157.684 16.073 159.382 16.073 159.382L18.0564 161.54L18.6436 162.183" stroke="#4F4131" stroke-linecap="round" stroke-linejoin="round"/>
<path d="M8.75768 158.565C8.73388 158.153 9.30511 157.407 9.90808 156.725C10.5904 155.971 11.3203 155.312 11.3203 155.312" stroke="#4F4131" stroke-linecap="round" stroke-linejoin="round"/>
<path d="M38.3902 155.709L39.3422 159.176C41.175 157.685 41.8652 157.367 44.1025 156.423" stroke="#4F4131" stroke-linecap="round" stroke-linejoin="round"/>
<path d="M6.58398 158.574V158.566" stroke="#4F4131" stroke-linecap="round" stroke-linejoin="round"/>
</svg>
