<svg width="43" height="129" viewBox="0 0 43 129" fill="none" xmlns="http://www.w3.org/2000/svg">
<path d="M33.5585 108.376C38.124 110.35 41.5282 114.813 42.2205 119.739C42.5695 122.216 42.1347 125.042 40.1951 126.627C38.4444 128.063 35.9729 128.103 33.7072 128.08C25.4171 127.995 16.6293 127.771 9.63789 123.315C9.16302 123.011 8.69388 122.685 8.35061 122.239C7.78992 121.518 7.62401 120.568 7.57824 119.653C7.41805 116.501 8.52797 113.297 10.6105 110.922C13.0935 108.085 16.7952 106.523 20.5312 105.979C24.2614 105.436 28.0661 105.813 31.8021 106.317" fill="#D3B25B"/>
<path d="M31.8532 105.946C31.8933 106.003 31.8532 106.106 31.7272 106.072L31.6584 105.871L31.8532 105.946Z" fill="#C6B08D"/>
<path d="M30.9325 106.172C30.7895 106.064 30.6351 105.881 30.7552 105.721C30.8867 105.921 30.9325 105.852 31.0697 106.087C31.1955 106.127 31.3041 106.058 31.2927 105.984C31.3327 106.035 31.4985 105.967 31.5557 106.098C31.367 106.224 31.1497 106.195 30.9439 106.052C30.8924 106.087 30.9325 106.144 30.9382 106.178L30.9325 106.172Z" fill="#C6B08D"/>
<path d="M18.237 106.727L18.3115 106.682C18.3115 106.682 18.2657 106.716 18.237 106.727Z" fill="#C6B08D"/>
<path d="M11.5197 110.51C11.5655 110.47 11.5941 110.47 11.6113 110.481C11.5655 110.51 11.5254 110.533 11.5197 110.51Z" fill="#C6B08D"/>
<path d="M10.7939 111.614C10.7939 111.614 10.8225 111.568 10.834 111.545C10.834 111.579 10.8168 111.608 10.7939 111.614Z" fill="#C6B08D"/>
<path d="M18.2373 106.729L18.0482 106.843C18.0196 106.786 18.1399 106.769 18.2373 106.729Z" fill="#C6B08D"/>
<path d="M29.2222 105.516C29.268 105.527 29.3024 105.55 29.3311 105.579L29.2222 105.544C29.2222 105.544 29.2222 105.527 29.2222 105.516Z" fill="#C6B08D"/>
<path d="M21.659 106.266H21.722C21.722 106.266 21.7621 106.306 21.7793 106.329L21.6533 106.266H21.659Z" fill="#C6B08D"/>
<path d="M24.3073 106.163C24.25 106.169 24.2271 106.008 24.2042 105.939C24.2385 106.008 24.2844 106.037 24.3359 106.048C24.3359 106.077 24.3302 106.117 24.3073 106.163Z" fill="#C6B08D"/>
<path d="M28.5525 106.1L28.627 106.128C28.627 106.128 28.5754 106.105 28.5525 106.1Z" fill="#C6B08D"/>
<path d="M19.7939 106.568C19.7939 106.568 19.7939 106.614 19.7825 106.631C19.7825 106.614 19.7825 106.591 19.7939 106.568Z" fill="#C6B08D"/>
<path d="M36.7002 109.325C36.7002 109.325 36.6889 109.342 36.6832 109.347C36.6832 109.325 36.6832 109.313 36.7002 109.325Z" fill="#C6B08D"/>
<path d="M33.5408 108.416L33.5752 108.445C33.5695 108.473 33.558 108.502 33.5465 108.531V108.416H33.5408Z" fill="#C6B08D"/>
<path d="M9.67339 113.685C9.67339 113.685 9.67339 113.68 9.67339 113.674C9.71839 113.629 9.70152 113.657 9.67339 113.685Z" fill="#C6B08D"/>
<path d="M20.8288 126.604C20.5538 126.701 21.2126 126.856 20.8059 126.947C20.8517 126.89 20.5022 126.644 20.8288 126.604Z" fill="#C6B08D"/>
<path d="M29.1475 105.527C29.1131 105.521 29.073 105.516 29.0386 105.516C29.0902 105.516 29.1245 105.516 29.1475 105.527Z" fill="#C6B08D"/>
<path d="M20.8057 126.947L20.7663 126.959C20.7832 126.959 20.7944 126.953 20.8057 126.947Z" fill="#C6B08D"/>
<path d="M8.25977 118.84C8.25977 118.84 8.2082 118.806 8.19101 118.783C8.2082 118.783 8.22539 118.8 8.25977 118.84Z" fill="#C6B08D"/>
<path d="M8.81445 114.818L8.79727 114.921C8.79727 114.881 8.80299 114.847 8.81445 114.818Z" fill="#C6B08D"/>
<path d="M8.21894 120.906C8.24759 120.952 8.27051 120.964 8.27051 121.038C8.25905 121.038 8.25332 121.032 8.24759 121.021C8.25905 120.992 8.26478 120.958 8.21894 120.906Z" fill="#C6B08D"/>
<path d="M9.31738 122.536C9.31738 122.536 9.28301 122.536 9.26582 122.536L9.21998 122.49L9.31738 122.536Z" fill="#C6B08D"/>
<path d="M41.3682 114.905C41.3051 114.882 41.2421 114.876 41.1848 114.876C41.3051 114.859 41.1734 114.526 41.3682 114.905Z" fill="#C6B08D"/>
<path d="M29.2102 105.602C29.1988 105.562 29.1816 105.539 29.1472 105.527L29.2217 105.545C29.2217 105.545 29.2217 105.59 29.2045 105.602H29.2102Z" fill="#C6B08D"/>
<path d="M7.0233 121.34C7.06914 121.477 7.12643 121.615 7.18945 121.747C7.13216 121.638 7.06914 121.489 7.0233 121.34Z" fill="#C6B08D"/>
<path d="M36.2706 128.67L36.3623 128.681C36.3279 128.687 36.2993 128.681 36.2706 128.67Z" fill="#C6B08D"/>
<path d="M7.86961 122.926C7.96701 122.949 8.04722 122.989 8.12743 123.035C8.12743 123.058 8.13889 123.08 8.13316 123.098C8.04722 123.046 7.95555 122.989 7.86961 122.926Z" fill="#C6B08D"/>
<path d="M40.1668 112.536C40.3843 112.833 40.0982 112.799 40.0467 112.93C40.2469 113.32 40.2927 113.005 40.4644 113.062C40.5845 113.314 40.5216 113.606 40.636 113.766C40.676 113.76 40.7046 113.789 40.7161 113.726C40.7332 114.052 41.1509 114.464 41.1166 114.859C41.1452 114.87 41.1681 114.876 41.1852 114.87C41.0651 114.87 40.9678 114.916 40.9049 114.962C40.9793 115.105 40.9278 115.282 41.0765 115.276C41.0308 115.19 41.0765 115.156 41.0937 115.099C41.1051 115.156 41.1109 115.213 41.1166 115.276C41.3626 115.322 41.0765 115.042 41.2024 114.973C41.2997 115.293 41.2997 115.717 41.4598 115.917C41.6601 115.888 41.271 115.356 41.5686 115.591L41.334 115.265C41.7345 115.402 41.2138 115.059 41.6258 115.162C41.8947 115.619 41.7974 115.728 42.0377 116.197C41.9805 116.346 41.8775 116.22 41.8146 116.369C41.9004 117.113 42.4782 116.747 42.4039 117.353C42.318 117.53 42.1178 117.645 42.3295 117.977L42.5126 117.794C42.6556 118.28 42.278 118.148 42.5469 118.623C42.6098 118.514 42.524 118.223 42.5698 118.291C42.8158 118.589 42.5126 118.554 42.5641 118.806L42.7643 118.823C42.833 119.361 42.8043 119.968 42.7929 120.563C42.8501 120.528 42.9016 120.42 42.9703 120.557C42.9302 121.318 43.0103 122.176 42.9989 122.948L42.7872 123.2C42.7757 123.263 42.833 123.337 42.8844 123.269C42.8844 123.572 42.7757 123.263 42.6842 123.383C42.6384 123.543 42.73 123.618 42.8043 123.526C42.5583 124.013 42.0949 124.825 41.969 125.386L42.0663 125.311C41.9176 125.735 41.5285 125.552 41.4427 125.958L41.5113 125.918C41.271 126.318 40.9163 126.667 40.5673 126.97C40.2069 127.262 39.8636 127.525 39.5947 127.794C39.3773 127.657 38.7823 128.269 38.6107 127.966C38.1701 128.281 38.3303 128.309 37.6323 128.584C37.4435 128.635 37.3062 128.435 37.0659 128.435L37.0888 128.612L36.7455 128.475L36.6025 128.704L36.3736 128.681C36.4595 128.664 36.551 128.584 36.5338 128.532C36.1848 128.492 35.71 128.721 35.7043 128.813C35.4296 128.778 35.1607 128.738 34.8918 128.693C34.909 128.761 35.0463 128.784 35.155 128.83C34.7202 128.658 35.0806 129.019 34.6859 128.858C34.7374 128.818 34.6573 128.755 34.6458 128.715C34.4513 128.824 34.0108 128.824 33.6904 128.778L33.7533 128.899C33.1697 128.921 32.529 128.83 31.8767 128.818C32.1113 128.767 32.0598 128.555 31.871 128.532L31.7909 128.715C31.6708 128.601 31.9912 128.647 31.7394 128.504C31.4934 128.521 31.5735 128.715 31.7108 128.778L31.4133 128.71C31.3962 128.767 31.4648 128.796 31.482 128.864C31.3618 128.744 30.9671 129.042 30.7954 128.836L30.7783 128.893C30.126 128.881 29.8285 128.807 29.2964 128.784C29.2964 128.624 29.079 128.652 28.9303 128.515C28.5355 128.55 28.1007 128.658 27.6258 128.624C27.2997 128.532 27.5343 128.487 27.3913 128.384C27.3627 128.527 26.8878 128.487 27.1281 128.607C26.5617 128.549 26.4072 128.538 25.6978 128.372C25.7779 128.321 25.8694 128.298 25.8294 128.246C25.7035 128.212 25.5319 128.286 25.5433 128.355L25.5776 128.372C25.1829 128.229 24.7137 128.298 24.2617 128.361C23.8098 128.412 23.3749 128.452 23.0717 128.263L23.106 128.281C22.8886 128.206 22.677 128.132 22.4595 128.046C22.1506 128.029 22.6312 128.178 22.3909 128.241C21.7101 127.897 21.2524 128.138 20.6917 127.869C20.4285 128.046 20.028 127.966 19.6046 127.869C19.187 127.76 18.7579 127.617 18.4203 127.691L18.4775 127.6C18.3402 127.468 18.2716 127.617 18.1514 127.617C18.1858 127.543 18.3402 127.565 18.2544 127.491C16.9557 127.062 15.4796 126.948 14.1122 126.53C13.6145 126.37 14.0207 125.946 13.3284 125.929L13.4257 126.175C12.9851 125.861 12.4988 125.655 12.0125 125.449C11.5377 125.214 11.0571 124.985 10.6509 124.665C10.6852 124.733 10.6566 124.779 10.7481 124.825C10.4849 124.854 10.0501 124.424 10.1073 124.333C9.96431 124.264 10.0215 124.402 9.91282 124.402C9.68397 124.362 9.53521 123.972 9.36357 124.03C9.33497 124.041 9.39219 124.098 9.42079 124.127C9.33497 124.007 8.84294 123.784 9.04891 123.726C8.6713 123.566 8.4539 123.217 8.13923 123.034C8.09918 122.765 7.56138 122.479 7.74446 122.273C7.6472 122.359 7.487 122.21 7.38402 121.999C7.27532 121.787 7.22382 121.512 7.24671 121.364C7.19522 121.472 7.10368 121.158 7.0293 121.289C6.94349 120.98 6.94921 120.694 7.09224 120.729C6.68603 120.214 7.21811 119.636 6.82334 119.367C6.94349 118.514 7.09796 117.748 7.27532 117.021C7.00642 117.004 7.13801 117.839 6.87483 117.776C7.06363 117.061 7.34969 116.706 7.44695 116.009C7.4584 115.825 7.31536 116.083 7.25815 116.134C7.52133 115.465 7.60715 114.79 7.96759 114.246C7.94471 114.241 7.89893 114.292 7.85316 114.349C7.90466 114.235 7.92754 114.063 8.03053 114.12L7.95615 114.218C8.03624 114.458 8.47678 113.903 8.56832 113.926C8.17355 113.977 8.7514 113.337 8.22505 113.457C8.28226 113.394 8.3738 113.325 8.43673 113.377C8.47106 113.257 8.44817 113.199 8.31086 113.274C8.5626 112.896 8.61409 113.102 8.79717 112.747C8.74568 112.719 8.68847 112.782 8.60837 112.787C8.80289 112.656 9.00314 112.541 9.13473 112.227C9.09468 112.227 9.07751 112.17 9.02602 112.255C9.35213 111.763 9.80984 111.592 10.1245 111.037C9.81556 111.025 10.1989 110.819 10.0616 110.653C10.1531 110.579 10.2446 110.505 10.3419 110.436L10.3247 110.608C10.5307 110.385 10.8168 110.293 10.9484 110.064C10.874 110.093 10.7996 110.127 10.731 110.161C10.8683 110.036 11.017 109.915 11.1601 109.795L10.9884 110.076C11.2802 109.944 11.1543 110.293 11.3946 109.978C11.3202 110.018 11.6006 109.772 11.6406 109.584C11.7951 109.538 11.9553 109.498 12.0869 109.315C12.0869 109.229 11.9038 109.16 11.9038 109.103C12.1327 109.154 12.4817 108.702 12.7506 108.765C12.6762 108.765 12.6075 108.674 12.6075 108.645L12.7906 108.691C12.8764 108.577 12.8822 108.542 12.8135 108.485C13.1396 108.228 12.8593 108.783 13.1968 108.411C13.1568 108.422 13.1625 108.393 13.0824 108.422C13.4657 108.102 13.9349 107.999 14.2953 107.718C14.3125 107.461 13.9234 107.867 13.9692 107.633C14.5642 107.335 15.2908 107.238 15.8515 106.952L15.7542 107.015C15.9487 107.266 16.1318 106.694 16.4808 106.723C16.4007 106.723 16.3264 106.597 16.355 106.626C16.744 106.431 17.2189 106.397 17.8654 106.311L17.7681 106.259C17.997 106.128 18.4032 106.042 18.6606 105.951C18.7579 106.008 18.9066 105.962 18.838 106.094C19.576 105.47 20.4514 106.013 21.1379 105.561C21.0464 105.573 20.9148 105.521 20.9892 105.51C21.2009 105.504 21.4183 105.51 21.63 105.51C21.5956 105.647 21.5556 105.596 21.4354 105.716C21.5213 105.785 21.7043 105.83 21.8588 105.813C21.567 105.756 21.8416 105.602 21.9561 105.516C21.9389 105.556 21.9847 105.602 21.979 105.642C22.2879 105.384 22.0533 105.905 22.4939 105.71L22.4653 105.642C22.6369 105.664 22.7971 105.75 22.9745 105.722C23.0431 105.567 22.7914 105.659 22.7742 105.533C23.0317 105.533 23.2891 105.796 23.518 105.642C23.4093 105.602 23.2548 105.607 23.1404 105.567C23.3864 105.373 23.415 105.424 23.6038 105.39H23.5866L24.0214 105.304L23.9127 105.356C24.2389 105.75 24.5707 105.418 24.9941 105.687C24.5821 105.43 24.9254 105.544 24.8968 105.367C25.0055 105.321 25.1771 105.27 25.1314 105.218C25.3316 105.361 25.4804 105.115 25.7607 105.333C25.7779 105.275 25.9781 105.333 25.9381 105.195C26.2012 105.247 25.8694 105.293 25.8923 105.361C26.2928 105.567 26.8706 105.178 27.437 105.481C27.9348 105.63 28.0092 105.825 28.4669 105.962C28.6328 105.888 28.3582 105.745 28.3582 105.745C28.6213 105.687 28.8101 105.722 29.0447 105.807C28.9989 105.756 29.0562 105.716 29.1363 105.664C29.3251 105.699 29.245 105.882 29.5024 105.825C29.4681 105.756 29.4223 105.653 29.3365 105.579C29.5596 105.653 29.7713 105.785 30.0002 105.859C30.0745 105.767 29.8743 105.693 29.7999 105.624C30.0574 105.699 30.4693 105.79 30.5322 105.956L30.3549 105.991C30.4521 106.008 30.4178 105.865 30.3549 105.83C30.1432 105.682 30.0231 105.848 30.0059 105.899L30.1661 105.956C29.9544 106.259 29.5024 105.825 29.1649 105.807L29.2793 106.059L28.9589 105.825C28.8788 105.882 28.8159 106.008 28.9761 106.059C28.7243 106.151 28.7701 105.956 28.5527 106.059C28.5298 106.076 28.5355 106.088 28.5527 106.099L28.3238 106.008C28.3639 106.059 28.2666 106.174 28.4154 106.151C27.9863 106.248 27.7517 105.916 27.5801 106.076L27.6144 106.094C27.0366 105.968 27.5744 105.916 27.1453 105.676L26.8191 106.088L26.7734 105.91C26.7104 105.91 26.5903 105.922 26.6132 105.991C26.3958 105.859 26.6532 105.916 26.5331 105.796C26.2356 105.933 25.7321 105.682 25.6577 105.962C25.5605 105.825 25.9381 105.87 25.6348 105.767C25.5376 106.059 25.2801 105.705 25.0055 105.836C25.0856 105.991 25.3373 105.916 25.0684 106.048C24.914 105.779 24.5535 106.099 24.3304 106.048C24.319 105.836 23.8441 105.962 23.4722 105.905C23.4951 105.973 22.7742 106.042 22.4309 106.145L22.4424 106.179C22.3623 105.979 22.0076 106.036 21.7444 106.019C21.7673 106.145 21.8188 106.191 21.9618 106.231L21.7215 106.254C21.6586 106.191 21.5785 106.162 21.4183 106.156L21.4984 106.305C21.178 106.328 20.829 106.197 20.4285 106.362C20.3827 106.219 20.7031 105.905 20.2397 105.882C20.2397 105.962 20.2397 106.099 20.3598 106.111C20.3198 106.111 20.2168 106.065 20.1424 106.111L20.337 106.214C20.1596 106.3 20.2225 106.122 20.0738 106.156C20.0967 106.265 19.9765 106.254 20.0108 106.34C20.0509 106.34 20.1367 106.271 20.1996 106.305C20.0337 106.351 19.8392 106.454 19.7877 106.551C19.7877 106.483 19.7591 106.403 19.6332 106.414C19.3128 106.471 19.5531 106.568 19.3758 106.66C19.2842 106.597 19.1012 106.723 19.0554 106.557C18.9639 106.58 18.9639 106.66 18.941 106.711C18.7579 106.671 18.18 106.877 18.3174 106.66L18.3574 106.637C18.3574 106.637 18.3402 106.637 18.3288 106.637C17.7452 106.62 17.2532 107.043 16.7211 107.163L16.744 107.215C16.4122 107.261 16.0575 107.444 15.7886 107.415C15.697 107.455 15.6226 107.604 15.6856 107.65C15.4453 107.713 15.3881 107.661 15.102 107.907C15.3709 107.884 15.062 108.022 15.3652 107.861C15.0963 108.045 15.0734 108.159 14.6958 108.176C14.8674 108.25 14.5699 108.451 14.4212 108.491L14.5642 108.291C14.404 108.353 14.2781 108.439 14.1523 108.525L14.3182 108.651C13.8891 109.166 13.1053 108.943 12.9279 109.555C12.7105 109.555 13.1568 109.269 12.9394 109.235C12.7105 109.435 12.6361 109.847 12.5618 109.898C12.3215 110.241 12.0926 109.927 11.818 110.27C11.8123 110.184 11.7265 110.013 11.4461 110.19C11.2401 110.425 11.3775 110.653 11.5491 110.562C11.6063 110.516 11.612 110.476 11.5949 110.465C11.6807 110.413 11.7951 110.35 11.7608 110.482L11.6864 110.459C11.6235 110.608 11.3317 110.894 11.4804 110.905C11.2802 111.025 11.3374 110.899 11.4232 110.751C11.2402 111.1 11.0113 111.18 10.8168 111.529C10.8282 111.46 10.8053 111.363 10.7653 111.409C10.4621 111.906 10.5078 111.523 10.2389 111.821C10.1874 112.061 10.4849 111.901 10.1817 112.17C10.1073 112.41 10.3019 112.313 10.3991 112.267C10.0902 112.484 10.1016 112.862 10.0272 113.045L10.1703 112.919C10.0845 112.993 10.0387 113.073 9.99292 113.154L9.92998 112.993C9.89565 113.096 9.84416 113.176 9.89565 113.205C9.76406 113.257 9.74118 113.016 9.52949 113.154C9.51805 113.32 9.24343 113.514 9.38646 113.646C9.54666 113.211 9.52377 113.771 9.72974 113.445C9.67252 113.503 9.63248 113.583 9.60387 113.686C9.61531 113.709 9.64392 113.686 9.66681 113.668C9.62103 114.126 9.39218 113.754 9.20338 114.172C9.31781 114.161 9.34069 114.349 9.2892 114.407C9.35786 114.241 9.16906 114.258 9.03175 114.384C8.98597 114.681 8.85439 114.658 8.80862 114.807L8.83722 114.63C8.7228 114.647 8.68275 114.796 8.57977 114.979C8.64842 115.024 8.69991 114.818 8.70563 114.904C8.44818 115.059 8.71135 115.454 8.49967 115.722C8.52827 115.883 8.67702 115.791 8.68847 115.928C8.46534 116.237 8.7228 116.329 8.53971 116.661C8.43101 116.529 8.46534 116.512 8.27654 116.747C8.35664 116.552 8.42529 116.357 8.50539 116.169C8.4024 116.277 8.31659 116.392 8.22505 116.506C8.25937 116.323 8.39668 116.14 8.4024 116.026C8.24793 116.18 8.28226 116.174 8.19644 116.054C8.32803 116.352 7.96187 116.529 8.03624 116.855L8.36808 116.907C8.44246 117.359 8.06485 117.651 8.11062 118.234L8.06485 118.045C7.92754 118.114 8.01336 118.4 7.95615 118.583C8.07057 118.572 8.1049 118.686 8.17355 118.766C8.08773 118.755 8.17355 119.178 7.95615 119.235L8.11062 119.487C8.19072 119.939 7.81884 120.036 7.9161 120.477C8.01908 120.328 8.12206 120.505 8.17355 120.214C8.19072 120.357 8.23649 120.477 8.15639 120.494C8.23649 120.563 8.08773 120.912 8.23077 121.009C8.20216 121.078 8.09346 121.135 8.15639 121.284C8.185 121.289 8.20788 121.261 8.20788 121.261C8.15067 121.278 8.23077 121.524 8.05913 121.438C8.31086 121.581 8.43673 121.838 8.60837 122.079C8.78001 122.313 9.00314 122.525 9.24343 122.525C9.46656 122.742 9.78123 122.994 10.0387 123.154C10.0387 123.114 10.0673 123.109 10.0101 123.086C10.422 123.206 10.0616 123.492 10.5364 123.635C10.8397 123.601 10.3705 123.423 10.5364 123.44C10.7824 123.149 10.9999 123.789 11.3889 123.738L11.3317 123.686C11.6063 123.686 11.7951 124.081 12.1613 124.236C12.1613 124.236 12.1613 124.196 12.1842 124.184C12.3386 124.487 12.7906 124.751 13.1282 124.951C13.0767 124.768 12.9966 124.814 13.1282 124.705C13.2769 124.791 12.9851 124.899 13.2884 125.077C13.4257 125.048 13.6774 125.082 13.7689 124.951L13.4772 124.814C13.706 124.688 13.8548 124.991 14.0321 125.014L14.0436 124.922C14.4955 125.117 14.4269 125.334 14.9361 125.5L14.8617 125.546C15.0677 125.855 15.1306 125.517 15.3595 125.763L15.5139 125.574C15.6798 125.683 16.0975 125.981 16.4179 126.124C16.2749 125.906 15.9144 125.706 15.7027 125.534C15.8858 125.586 16.3149 125.74 16.3778 125.878C16.3092 125.832 16.2348 125.752 16.149 125.763C16.3206 125.998 16.5895 126.187 16.9671 126.272C17.0129 125.832 17.9626 126.415 18.3116 126.147C18.9352 126.438 19.6275 126.37 20.3942 126.513C20.0623 126.799 20.6173 126.559 20.5143 126.896C20.6917 126.948 20.7603 126.953 20.7832 126.936C20.9777 126.896 21.1723 126.867 21.3668 126.822C21.5098 126.736 21.2066 126.724 21.2352 126.644C21.6357 126.673 21.424 126.518 21.6986 126.467C21.6242 126.581 21.813 126.661 22.0419 126.644L21.6986 126.759C22.2307 127.016 22.2192 126.53 22.7513 126.793L22.5911 126.661C22.8658 126.77 23.6496 126.776 23.907 127.085C23.9642 127.051 24.0386 126.965 23.9127 126.925C24.605 126.959 25.4289 127.354 25.9781 127.222L25.9323 127.136C26.0582 127.171 26.1498 127.308 26.3157 127.234C26.31 127.199 26.2699 127.148 26.3271 127.142C26.3958 127.176 26.6647 127.314 26.8363 127.274L26.6933 127.171C27.3741 127.102 27.7231 127.462 28.2895 127.543C28.301 127.291 28.833 127.234 29.1019 127.199V127.165C29.8857 127.154 30.435 127.417 31.1673 127.525C31.6307 127.262 32.7178 127.434 33.4558 127.291C33.3414 127.337 33.473 127.485 33.6046 127.514C33.7762 127.462 34.0794 127.691 34.0508 127.462H33.9879C34.1195 127.239 34.4685 127.302 34.7374 127.291L34.7889 127.594C35.4811 127.159 36.6483 127.663 36.9687 127.199C37.1403 127.245 37.3405 127.211 37.5122 127.245L37.4664 127.091C37.8783 126.953 38.0843 126.879 38.5878 126.707L38.4447 126.644C38.7022 126.524 38.9825 126.919 39.2457 126.787L39.2 126.536C39.6634 126.261 39.8979 125.786 40.3843 125.546C40.3499 125.529 40.2927 125.5 40.2298 125.552C40.3957 125.374 40.6245 124.722 40.8648 124.957C40.6875 124.842 41.1051 124.476 41.2997 124.23L41.1337 124.213C41.4084 124.058 41.4713 124.07 41.6315 123.749C41.6315 123.664 41.5285 123.641 41.5399 123.761C41.5285 123.469 41.7574 123.595 41.7459 123.234L41.62 123.337C41.6715 123.051 41.723 123.091 41.8661 122.954C41.9633 122.782 41.9118 122.393 41.7688 122.336C41.8603 122.308 41.9976 122.159 41.969 121.981C41.9176 121.953 41.8775 122.016 41.8603 122.044C41.7802 121.558 42.0777 121.318 41.9118 120.98C41.8603 120.98 41.8317 120.952 41.8146 120.929C41.8375 121.318 41.826 121.627 41.8432 121.598C41.6944 121.592 41.6715 121.289 41.4656 121.524C41.58 121.289 41.8203 120.854 41.723 120.557C41.7059 120.545 41.6944 120.528 41.6715 120.523L41.6601 120.557C41.6429 120.488 41.6487 120.425 41.6715 120.362C41.6429 120.271 41.6143 120.208 41.6029 120.116C41.477 120.093 41.4999 119.773 41.4598 119.624C41.62 119.613 41.5571 119.413 41.723 119.584C41.7059 119.561 41.7116 119.619 41.723 119.722C41.723 119.744 41.723 119.773 41.723 119.79L41.7345 119.779C41.7459 119.882 41.7574 120.013 41.7745 120.168C41.8375 120.036 41.9004 119.899 41.7802 119.739C41.8661 119.641 41.9576 119.539 41.9976 119.481C41.7345 119.298 41.5514 118.915 41.3969 118.892C41.3855 118.652 41.3283 118.377 41.3111 118.114C41.2768 117.856 41.2653 117.61 41.3626 117.416C41.3626 117.273 41.231 117.29 41.1738 117.256C41.1738 117.342 41.2024 117.427 41.1738 117.485C41.1738 117.193 40.9221 116.712 41.0994 116.575C40.882 116.283 40.9907 116.832 40.8477 116.375L40.8133 116.46C40.4644 116.106 40.4472 115.705 40.3614 115.299C40.287 114.893 40.1783 114.469 39.7091 114.149C39.7721 114.195 39.8007 114.218 39.835 114.212C39.0512 113.32 38.5191 112.095 37.4435 111.494C37.1632 111.311 37.2318 111.185 37.1403 110.974L36.9687 111.06L36.8313 110.682C36.6883 110.459 36.448 110.413 36.2077 110.35C35.9674 110.287 35.7386 110.19 35.5498 109.915L35.6814 109.864C35.4811 109.761 35.115 109.418 35.0806 109.549C35.0749 109.515 35.0806 109.406 34.9719 109.418L34.9204 109.492L34.5142 109.086C34.108 108.937 34.4113 109.418 33.8506 109.172C33.6618 109.046 33.37 108.651 33.473 108.634C33.5588 108.668 33.7133 108.685 33.759 108.605L33.5817 108.468C33.6561 108.21 33.5988 107.879 34.1824 107.947L34.4627 108.262L34.6344 108.199L34.3426 108.05C34.5657 108.022 34.6229 108.165 34.7088 108.291C34.766 108.245 34.8404 108.228 34.9147 108.245L35.1264 108.651C35.218 108.582 35.0806 108.388 35.3324 108.462C35.4296 108.651 35.0692 108.582 35.2866 108.794C35.5097 108.783 35.5155 108.668 35.6413 108.874C35.7043 108.834 35.6871 108.771 35.6299 108.697C35.75 108.874 36.0418 109.006 36.0475 109.177C36.2993 109.149 36.5567 109.584 36.6883 109.366C36.7055 109.452 36.8428 109.727 36.9801 109.841C36.9172 109.4 37.5065 110.241 37.6438 109.95C37.6609 110.304 38.2216 110.619 38.4219 111.031C38.4219 110.997 38.4219 110.934 38.3818 110.922C38.5706 111.071 38.6793 111.065 38.8223 111.145C38.6793 111.323 38.8967 111.632 38.9253 111.872C39.2858 111.946 38.9997 111.569 39.2171 111.494C39.0741 111.603 39.4231 111.998 39.24 112.021C39.486 112.107 39.4116 112.129 39.629 112.101C39.4345 112.307 39.7263 112.295 39.7091 112.547C40.0181 112.719 39.9723 112.456 40.1154 112.793C40.287 112.885 40.1783 112.564 40.1783 112.564L40.1668 112.536ZM42.7357 120.568C42.7357 120.494 42.7357 120.431 42.7357 120.391C42.7357 120.425 42.7357 120.477 42.7357 120.568ZM42.7586 121.284C42.7586 121.198 42.7529 121.089 42.7471 120.975C42.6899 120.952 42.6327 120.975 42.6384 121.049C42.6728 121.009 42.7128 121.175 42.7586 121.284ZM41.5514 119.928C41.5399 120.031 41.5743 120.059 41.6086 120.071C41.6086 120.025 41.6086 119.968 41.6086 119.888L41.6258 119.87C41.5972 119.882 41.5686 119.899 41.5514 119.922V119.928Z" fill="#C6B08D"/>
<path d="M41.7344 119.716C41.7344 119.716 41.7402 119.693 41.7344 119.67C41.7516 119.687 41.7688 119.71 41.7803 119.727L41.7344 119.773C41.7344 119.773 41.7344 119.733 41.7287 119.716H41.7344Z" fill="#C6B08D"/>
<path d="M18.3231 106.676H18.3123C18.3123 106.676 18.3286 106.665 18.334 106.654C18.3286 106.665 18.3286 106.671 18.3231 106.676Z" fill="#C6B08D"/>
<path d="M37.0825 128.653L37.0768 128.613L37.1455 128.636L37.0825 128.653Z" fill="#C6B08D"/>
<path d="M21.9506 105.504C21.9506 105.504 21.9677 105.476 21.9961 105.459C21.9961 105.47 21.9733 105.487 21.9506 105.504Z" fill="#C6B08D"/>
<path d="M23.5971 105.379L23.832 105.316C23.7289 105.351 23.6602 105.368 23.5971 105.379Z" fill="#C6B08D"/>
<path d="M24.8677 105.293C24.8677 105.293 24.8849 105.345 24.8906 105.362L24.8677 105.293Z" fill="#C6B08D"/>
<path d="M7.83594 114.35C7.83594 114.35 7.81875 114.384 7.81302 114.395C7.74427 114.499 7.78437 114.424 7.83594 114.35Z" fill="#C6B08D"/>
<path d="M11.623 109.578C11.5543 109.595 11.4855 109.618 11.4225 109.646C11.497 109.566 11.56 109.509 11.623 109.578Z" fill="#C6B08D"/>
<path d="M7.01206 121.295L7.02344 121.34L7.01206 121.295Z" fill="#C6B08D"/>
<path d="M11.2234 109.847C11.2807 109.75 11.3495 109.687 11.4297 109.652C11.3667 109.715 11.3094 109.807 11.2234 109.847Z" fill="#C6B08D"/>
<path d="M30.3364 105.623H30.3994C30.3994 105.623 30.3994 105.64 30.3994 105.652L30.3364 105.623Z" fill="#C6B08D"/>
<path d="M30.4057 105.652L30.4688 105.681C30.4401 105.681 30.4115 105.675 30.4057 105.652Z" fill="#C6B08D"/>
<path d="M30.6064 105.739L30.4689 105.682C30.5205 105.687 30.5778 105.687 30.6064 105.739Z" fill="#C6B08D"/>
<path d="M28.6729 105.516L28.6615 105.459C28.6615 105.459 28.6729 105.493 28.6729 105.516Z" fill="#C6B08D"/>
<path d="M28.1636 105.451C28.2836 105.451 28.478 105.354 28.6438 105.406L28.6553 105.451C28.5867 105.36 28.2722 105.554 28.1636 105.451Z" fill="#C6B08D"/>
<path d="M26.0118 106.031L26.4358 106.008C26.3613 106.065 26.2582 106.145 26.4473 106.168C25.9087 106.323 26.5619 106.031 26.0118 106.031Z" fill="#C6B08D"/>
<path d="M24.713 106.082C24.9364 106.116 24.713 106.174 24.7187 106.208C24.5755 106.151 24.5411 106.139 24.713 106.082Z" fill="#C6B08D"/>
<path d="M15.6219 107.764L15.7021 107.89C15.536 107.941 15.6792 107.838 15.6219 107.764Z" fill="#C6B08D"/>
<path d="M13.6658 107.918L13.7746 107.752L13.9121 107.832L13.6658 107.918Z" fill="#C6B08D"/>
<path d="M13.3406 109.371L13.415 109.348L13.1572 109.462L13.3406 109.371Z" fill="#C6B08D"/>
<path d="M9.12891 122.193L8.97422 122.296C8.92265 122.198 9.0487 122.044 9.12891 122.193Z" fill="#C6B08D"/>
<path d="M14.9295 125.39C15.0269 125.333 15.2274 125.339 15.3076 125.465C15.1587 125.425 14.9925 125.436 14.9295 125.39Z" fill="#C6B08D"/>
<path d="M35.1375 127.366L35.0057 127.309L35.2578 127.349L35.1375 127.366Z" fill="#C6B08D"/>
<path d="M1.95298 40.0998C1.87288 39.9625 1.82711 39.8309 1.84427 39.7051H1.83855C1.80994 39.7222 1.78706 39.7451 1.76418 39.768V40.2429L1.82139 40.6148C1.86716 40.7292 1.92437 40.8493 1.9873 40.9695L1.95298 40.0998Z" fill="#F5CF24"/>
<path d="M3.55566 42.6284V41.4727C3.01214 41.1352 2.23978 40.5916 1.95371 40.0996L1.98804 40.9692C2.38853 41.6844 3.07508 42.4511 3.5099 42.6112C3.52706 42.617 3.54422 42.6227 3.55566 42.6284Z" fill="#719EA4"/>
<path d="M1.76411 39.7676C1.62118 39.9334 1.6612 40.2478 1.82129 40.6138L1.76411 40.2421V39.7676Z" fill="#F5CF24"/>
<path d="M1.82151 40.6152L2.0332 41.9941L1.98743 40.97C1.9245 40.8498 1.86728 40.7297 1.82151 40.6152Z" fill="#F5CF24"/>
<path d="M1.84449 39.7035C1.82734 39.8292 1.87308 39.9607 1.95312 40.098L1.93025 39.4805C1.87308 39.5491 1.84449 39.6234 1.84449 39.7035Z" fill="#F5CF24"/>
<path d="M1.84387 39.7048C1.84387 39.6247 1.87247 39.5503 1.92969 39.4817L1.88964 38.6349C1.84387 38.5834 1.80382 38.532 1.76377 38.4805V39.7678C1.76377 39.7678 1.80954 39.722 1.83815 39.7048H1.84387Z" fill="#F5CF24"/>
<path d="M2.61635 37.1245C2.2273 36.5467 1.89547 35.9631 1.79821 35.5684L1.76388 35.5798L1.88975 38.635C2.43899 39.2872 3.30862 39.9852 3.55464 40.1854V38.7379L3.75488 38.675C3.45166 38.286 3.01112 37.7081 2.61635 37.1245Z" fill="#719EA4"/>
<path d="M5.57383 8.86165L6.97554 13.5188C7.54195 16.511 9.57872 19.9208 10.9633 20.8248C11.8615 21.4141 13.8868 21.7745 15.7806 21.8832C16.1868 21.9061 16.5815 21.9233 16.9591 21.9233C18.2636 21.9347 19.3506 21.8031 19.7282 21.5342C20.1001 21.2711 20.5864 20.6589 21.0384 20.0009C21.3874 19.5032 21.7135 18.9826 21.9767 18.5592L21.868 18.5191L22.8578 15.6757C24.9346 16.1391 26.7082 15.1779 26.302 14.0279C25.8671 12.815 25.8557 12.0255 24.4311 11.276C24.3338 11.2245 24.2366 11.1902 24.1336 11.173L24.1508 11.0987L24.4025 9.38228C24.6485 7.66591 24.1508 5.94953 21.6277 3.46078C19.0989 0.972031 14.9967 0.800393 13.4463 1.12078C11.8901 1.4469 9.27549 3.0889 8.0397 3.46078C7.03276 3.76401 5.82557 6.75623 5.57383 8.86165ZM8.70337 13.3872C8.45163 13.0153 8.88072 12.2486 9.27549 12.2429C9.53867 12.2429 9.7618 12.5747 9.84762 12.815C9.88194 12.918 9.97921 13.1869 9.84762 13.3872C9.63593 13.7133 8.92077 13.7076 8.70337 13.3872ZM14.9968 11.6708C14.991 11.3676 15.4602 10.578 15.5689 10.5265C15.9122 10.3663 16.5186 10.824 16.7131 11.0987C16.9134 11.3847 16.6502 12.0713 16.141 12.2429C15.6261 12.4146 15.0025 12.0141 14.9968 11.6708ZM16.3184 20.5387C15.5689 20.8248 13.2804 19.4059 13.2804 19.4059C13.2804 19.4059 16.141 17.392 16.7131 17.9642C17.2853 18.5363 17.0678 20.2527 16.3184 20.5387Z" fill="#719EA4"/>
<path d="M13.1142 108.514C10.963 109.653 11.8384 109.996 12.7481 110.259C12.8682 110.294 12.9941 110.328 13.1142 110.362C13.9152 110.597 17.3251 110.637 19.585 110.282C19.2989 109.579 18.8584 108.446 18.6066 107.582C18.4293 106.97 17.7999 106.604 17.0733 106.523C15.6373 107.227 14.1212 107.982 13.1142 108.514Z" fill="#719EA4"/>
<path d="M1.93083 39.4815L1.95371 40.0994C2.23978 40.5914 3.01214 41.135 3.55566 41.4725V40.1852C3.30965 39.985 2.44002 39.287 1.89078 38.6348L1.93083 39.4815Z" fill="#719EA4"/>
<path d="M1.76378 35.5801V38.4808C1.80383 38.5323 1.84388 38.5837 1.88965 38.6352L1.76378 35.5801Z" fill="#F5CF24"/>
<path d="M3.55509 40.1858V41.4731C3.62375 41.5132 3.68669 41.5532 3.74962 41.5876L3.57798 42.6345L3.55509 42.7661L3.126 43.0064L3.62375 43.8875H3.65808L3.80683 46.5708C3.80683 46.5708 4.54487 46.8282 5.47744 47.1772C6.12394 47.4175 6.86771 47.7036 7.52565 47.9782C8.06345 48.2013 8.54404 48.4187 8.87587 48.5961L9.31641 47.715C8.79005 47.1429 7.96619 37.9145 7.96619 37.9145L7.93186 36.8446L6.95352 35.7976L2.98297 31.541V36.8446L2.61681 37.125C3.01158 37.7085 3.45212 38.2864 3.75534 38.6754L3.55509 38.7384V40.1858Z" fill="#F5CF24"/>
<path d="M3.55521 42.6289V42.7664L3.57812 42.6346C3.57812 42.6346 3.56667 42.6289 3.55521 42.6289Z" fill="#F5CF24"/>
<path d="M3.5545 42.5654V42.6284C3.5545 42.6284 3.57166 42.6341 3.57738 42.6341L3.74902 41.5871C3.68609 41.5528 3.62315 41.5127 3.5545 41.4727V42.5654Z" fill="#F5CF24"/>
<path d="M8.80158 51.3589L6.99367 48.2923L7.52574 47.9776C6.8678 47.703 6.12403 47.4169 5.47753 47.1766L5.49469 48.1035C5.76931 50.3405 9.34511 56.9085 10.4207 57.4406C11.565 58.0127 14.4256 55.1521 14.4256 54.0078C14.4256 53.6073 14.4542 52.589 14.4885 51.4218C14.5629 49.242 14.6602 46.5702 14.6602 46.5702L14.6144 46.4844C13.9908 46.8048 13.2298 47.2625 12.4975 47.7144L13.1154 48.5955C13.1154 48.5955 13.2813 50.003 12.7092 51.1472C12.1371 52.2915 11.565 52.2915 9.27645 51.0785L8.80158 51.3589Z" fill="#719EA4"/>
<path d="M15.569 37.9895L15.6262 38.5101C16.1239 38.4529 16.5645 38.493 16.7704 38.739C16.9993 39.0193 17.457 39.3054 17.9604 39.643C18.6527 40.1121 19.4423 40.6728 19.8942 41.4566L21.8395 41.9829H21.8623L22.6176 42.126L22.6805 41.8056C22.8178 41.1877 24.1566 40.0606 25.707 38.9392L25.1292 38.7504C25.1292 38.7504 23.5787 37.4174 22.6805 36.9997C22.2285 36.788 20.2261 33.258 18.3323 29.7795C16.9878 27.3079 15.6948 24.8649 15.0655 23.6577C14.808 23.1657 14.6593 22.8797 14.6593 22.8797L14.6078 22.668L14.2874 22.7481L14.3217 22.8797C12.1362 24.2585 9.93352 26.9017 9.31562 28.4407C8.70345 29.9797 7.09005 35.6724 7.09005 35.6724L6.95274 35.7983L7.93107 36.8453C7.93107 36.8453 10.4198 33.8301 11.5641 33.258C12.7083 32.6859 14.4247 32.6859 14.4247 32.6859L15.569 37.9895Z" fill="#719EA4"/>
<path d="M6.99359 48.2927L8.80151 51.3593L9.27637 51.0789C11.5649 52.2919 12.137 52.2919 12.7091 51.1476C13.2813 50.0033 13.1153 48.5959 13.1153 48.5959L12.4974 47.7148C11.1186 48.573 9.8485 49.4312 9.8485 49.4312L9.27637 48.8591C9.20772 48.7904 9.06468 48.6989 8.87588 48.5959C8.54405 48.4186 8.06346 48.2012 7.52567 47.978L6.99359 48.2927Z" fill="#719EA4"/>
<path d="M13.7388 40.9337V39.1315L13.693 38.9827C14.1564 38.8168 14.9517 38.5765 15.6268 38.5078L15.5696 37.9872L14.4253 32.6836C14.4253 32.6836 12.7089 32.6836 11.5647 33.2557C10.4204 33.8278 7.93168 36.843 7.93168 36.843L7.96601 37.9128C7.96601 37.9128 8.78987 47.1412 9.31623 47.7133L8.87569 48.5944C9.06449 48.6974 9.20752 48.7889 9.27618 48.8576L9.84831 49.4297C9.84831 49.4297 11.1184 48.5715 12.4972 47.7133C13.2296 47.2614 13.9905 46.8037 14.6141 46.4833C15.1691 46.1858 15.6096 45.997 15.8213 45.997L16.3477 45.7853L16.1417 43.8858L16.2618 43.8687C16.1817 43.7714 16.1417 43.7085 16.1417 43.7085L15.827 43.6284L13.7388 43.0791V40.9337Z" fill="#F5CF24"/>
<path d="M9.27603 12.2422C8.88126 12.2479 8.45217 13.0146 8.7039 13.3864C8.92131 13.7068 9.63647 13.7126 9.84815 13.3864C9.97974 13.1862 9.88248 12.9173 9.84815 12.8143C9.76234 12.574 9.53921 12.2422 9.27603 12.2422Z" fill="#4F4131"/>
<path d="M12.7497 110.26L12.6696 110.546L13.1158 111.627H19.8555V110.946C19.8555 110.946 19.7468 110.683 19.5866 110.283C17.3267 110.637 13.9168 110.597 13.1158 110.363C12.9957 110.328 12.8698 110.294 12.7497 110.26Z" fill="#719EA4"/>
<path d="M13.6929 38.9842L13.7386 39.1329V39.8653C14.7456 39.9797 16.645 40.1971 17.057 40.2314L17.9609 39.6421C17.4575 39.3046 16.9998 39.0185 16.7709 38.7382C16.5649 38.4922 16.1244 38.4521 15.6267 38.5093C14.9516 38.578 14.1563 38.8183 13.6929 38.9842Z" fill="#719EA4"/>
<path d="M13.739 41.627V43.0802L15.8272 43.6294L16.0732 42.6854C15.3352 42.3993 14.3168 41.9073 13.739 41.627Z" fill="#719EA4"/>
<path d="M20.1467 45.4268C20.1467 45.4268 21.7429 45.8273 23.6538 46.2907C26.3314 46.9372 29.6325 47.7153 30.096 47.7153L30.7939 47.7382C30.7196 45.5469 30.5823 43.6589 30.6795 43.2298C30.9198 42.1828 26.6804 40.2776 26.6804 40.2776L24.4605 41.8052L24.3404 42.4517L22.6183 42.1313L21.8631 41.9883H21.8402L19.8949 41.4562C19.443 40.6724 18.6534 40.1117 17.9612 39.6426L17.0572 40.2319C16.6453 40.1975 14.7458 39.9801 13.7389 39.8657V41.6279C14.3167 41.9082 15.3351 42.4002 16.0731 42.6863L15.8271 43.6303L16.1418 43.7104C16.1418 43.7104 16.1818 43.7733 16.2619 43.8706C16.5366 44.2196 17.2689 45.0377 18.4589 45.5984L18.5333 45.4268H20.1467Z" fill="#719EA4"/>
<path d="M18.4585 45.5989C17.2685 45.0382 16.5362 44.2201 16.2616 43.8711L16.1414 43.8883L16.3474 45.7877L15.821 45.9994C15.6093 45.9994 15.1688 46.1882 14.6138 46.4857L14.6596 46.5715C14.6596 46.5715 14.5623 49.2434 14.488 51.4232L14.9914 51.4403C15.1688 51.6577 15.3462 51.8465 15.5178 52.001C15.7524 52.2127 15.9812 52.3786 16.1929 52.4988C16.828 52.8649 17.2857 52.8649 17.2857 52.8649L25.1295 52.0468L25.5186 51.8866C24.9693 50.5421 24.5631 49.3921 24.4601 48.963C24.1512 47.7158 23.579 46.5715 23.579 46.5715L23.6534 46.2912C21.7425 45.8278 20.1463 45.4273 20.1463 45.4273H18.5329L18.4585 45.5989Z" fill="#719EA4"/>
<path d="M14.6082 22.6663L14.6597 22.878C14.6597 22.878 14.8084 23.1641 15.0659 23.6561L15.5693 22.4375L14.6082 22.6663Z" fill="#719EA4"/>
<path d="M37.4077 98.7034L40.7432 98.0626L37.0072 56.7036L36.2463 53.5684C33.5344 55.9942 30.0444 58.4543 29.1118 58.071C28.4425 57.7964 27.5271 56.2574 26.6803 54.5009L15.3865 54.5867L14.9918 98.0912C14.9918 98.0912 16.7139 100.923 18.4302 102.64C19.1511 103.36 20.0665 103.875 21.165 104.247C22.6869 104.768 24.5463 105.002 26.6803 105.105C26.9778 105.123 27.3039 105.111 27.6472 105.083C28.8601 104.991 30.3076 104.659 31.7322 104.253C33.0767 103.87 34.3926 103.412 35.4624 103.017C36.8985 102.491 37.8825 102.067 37.8825 102.067L37.4077 98.7034Z" fill="#719EA4"/>
<path d="M15.5687 10.5273C15.46 10.5788 14.9909 11.3683 14.9966 11.6716C15.0023 12.0148 15.626 12.4153 16.1409 12.2437C16.6501 12.072 16.9132 11.3855 16.713 11.0994C16.5185 10.8248 15.912 10.3671 15.5687 10.5273Z" fill="#4F4131"/>
<path d="M15.5696 22.4378L15.0661 23.6564C15.6954 24.8636 16.9884 27.3066 18.3329 29.7782L19.0023 29.4063L19.7461 27.5755L19.0023 27.2722L18.5332 26.1852L16.9484 22.5408L16.9598 21.9229C16.5822 21.9229 16.1875 21.9057 15.7813 21.8828V21.9229L15.5696 22.4378Z" fill="#719EA4"/>
<path d="M15.3869 54.5872L26.6807 54.5013C26.263 53.6374 25.8682 52.7277 25.5192 51.8867L25.1302 52.0469L17.2864 52.8651C17.2864 52.8651 16.8287 52.8651 16.1936 52.4989L15.57 52.5447C15.57 53.3628 15.3869 54.5872 15.3869 54.5872Z" fill="#719EA4"/>
<path d="M13.2819 19.4074C13.2819 19.4074 15.5704 20.8262 16.3199 20.5402C17.0694 20.2541 17.2868 18.5377 16.7146 17.9656C16.1425 17.3935 13.2819 19.4074 13.2819 19.4074Z" fill="#719EA4"/>
<path d="M16.7134 112.72V115.426H19.574V112.016L19.8887 111.982L19.8543 111.627H16.7134V112.016V112.72Z" fill="#719EA4"/>
<path d="M16.9594 21.9242L16.948 22.5421L18.5328 26.1865L19.7285 21.5352C19.3509 21.8041 18.2639 21.9356 16.9594 21.9242Z" fill="#719EA4"/>
<path d="M21.0328 104.618C21.0328 104.618 19.1334 105.522 17.0737 106.523C17.8003 106.603 18.4296 106.969 18.607 107.582C18.8587 108.445 19.2993 109.578 19.5853 110.282C20.0945 110.196 20.5465 110.099 20.8955 109.973C22.7893 109.298 27.0115 109.504 27.6466 108.903C27.7954 108.76 27.8755 108.474 27.9098 108.119C28.0185 106.975 27.6466 105.11 27.6466 105.11V105.081C27.3033 105.11 26.9772 105.121 26.6797 105.104C24.5457 105.001 22.6863 104.767 21.1644 104.246L21.0328 104.618Z" fill="#719EA4"/>
<path d="M30.7942 47.739L30.0962 47.7161C29.6328 47.7161 26.3316 46.938 23.6541 46.2915L23.5797 46.5718C23.5797 46.5718 24.1518 47.7161 24.4608 48.9633C24.5638 49.3924 24.97 50.5424 25.5192 51.8869C25.8682 52.7279 26.263 53.6376 26.6806 54.5015C27.5274 56.2579 28.4428 57.797 29.1122 58.0716C30.0447 58.4549 33.5347 55.9948 36.2466 53.5689C37.9687 52.0185 39.3761 50.4852 39.5992 49.6957C40.1714 47.6646 37.8828 40.2785 36.6699 37.0002C35.4628 33.7162 31.0173 24.8311 29.6614 23.8413C28.3055 22.8458 22.5041 20.8262 22.5041 20.8262L22.4927 20.8491L19.7464 27.5773L19.0027 29.4081L18.3333 29.7799C20.227 33.2585 22.2295 36.7885 22.6815 37.0002C23.5797 37.4178 25.1302 38.7509 25.1302 38.7509L25.708 38.9397C24.1575 40.061 22.8188 41.1881 22.6815 41.806L22.6185 42.1264L24.3406 42.4525L24.4608 41.806L26.6806 40.2785C26.6806 40.2785 30.9201 42.1836 30.6798 43.2306C30.5825 43.6597 30.7198 45.5477 30.7942 47.739Z" fill="#719EA4"/>
<path d="M18.5331 26.1847L19.0022 27.2717L19.746 27.575L22.4922 20.8467L22.435 20.8239C22.0517 20.6351 21.674 20.4405 21.2907 20.2517L21.039 20C20.587 20.6579 20.1007 21.2701 19.7288 21.5333L18.5331 26.1847Z" fill="#719EA4"/>
<path d="M19.5863 110.282C19.7465 110.682 19.8552 110.946 19.8552 110.946V111.626H27.9336V108.125H27.9107C27.8764 108.474 27.7963 108.76 27.6475 108.903C27.0125 109.504 22.7902 109.298 20.8964 109.973C20.5474 110.099 20.0955 110.196 19.5863 110.282Z" fill="#719EA4"/>
<path d="M23.282 111.627V115.134L25.2959 115.226V114.39V111.627H23.282Z" fill="#719EA4"/>
<path d="M26.4346 114.391V116.983L27.9278 116.908L36.8187 116.456L37.8828 116.399V113.43L36.8187 113.624C36.0291 113.802 34.4043 114.151 32.8023 114.391C31.8297 114.54 30.8628 114.643 30.0962 114.648C27.5845 114.654 27.0124 115.226 27.0124 114.082L26.4346 114.391Z" fill="#719EA4"/>
<path d="M27.0118 114.083C27.0118 115.227 27.584 114.655 30.0956 114.649C30.8623 114.643 31.8291 114.54 32.8018 114.392C32.8018 114.392 31.6804 111.462 29.3919 110.633C29.0887 110.97 28.7797 111.325 28.4822 111.674C27.687 112.624 27.0118 113.545 27.0118 114.083Z" fill="#719EA4"/>
<path d="M27.9275 116.909L27.9332 116.983L28.4939 119.232H36.7383L36.8184 116.457L27.9275 116.909Z" fill="#719EA4"/>
<path d="M30.8396 108.903C30.5764 109.303 30.0043 109.933 29.3921 110.631C31.6806 111.46 32.802 114.389 32.802 114.389C32.8249 114.241 32.8477 114.092 32.8764 113.955C33.4485 111.289 35.6569 110.705 36.4922 110.579C36.1489 109.486 35.7656 108.411 35.4624 108.022C34.7586 107.118 35.5939 104.927 35.4624 103.016C34.3925 103.41 33.0766 103.868 31.7321 104.251C31.7321 104.251 31.5891 107.787 30.8396 108.903Z" fill="#719EA4"/>
<path d="M32.8766 113.956C32.848 114.093 32.8251 114.242 32.8022 114.39C34.4041 114.15 36.029 113.801 36.8185 113.624C37.1275 113.555 37.3105 113.509 37.3105 113.509C37.3105 113.509 36.9387 112.028 36.4924 110.58C35.6571 110.706 33.4487 111.29 32.8766 113.956Z" fill="#719EA4"/>
<path d="M6.87342 11.2754C6.77616 11.9562 6.82193 12.7229 6.9764 13.5181C7.54281 16.5103 9.57958 19.9202 10.9641 20.8242C11.8624 21.4135 13.8877 21.7739 15.7814 21.8826C16.1876 21.9055 16.5824 21.9227 16.96 21.9227C18.2645 21.9341 19.3515 21.8025 19.7291 21.5336C20.101 21.2704 20.5873 20.6583 21.0393 20.0003C21.3883 19.5026 21.7144 18.9819 21.9775 18.5586C22.2922 18.0379 22.5039 17.666 22.5039 17.666" stroke="#4F4131" stroke-linecap="round" stroke-linejoin="round"/>
<path d="M22.503 15.584C22.6232 15.6183 22.7433 15.6526 22.8578 15.6755C24.9346 16.1389 26.7082 15.1778 26.302 14.0278C25.8671 12.8149 25.8557 12.0253 24.4311 11.2759C24.3338 11.2244 24.2366 11.19 24.1336 11.1729C22.7891 10.8811 21.3702 13.2039 21.3302 13.0151C21.2901 12.8149 19.0016 6.52148 19.0016 6.52148" stroke="#4F4131" stroke-linecap="round" stroke-linejoin="round"/>
<path d="M17.5381 5.94274C16.7142 5.37634 14.769 5.44499 13.7392 5.41066C12.7093 5.37634 12.1372 7.09271 12.1372 7.09271C12.1372 7.09271 10.2721 5.94846 8.91615 6.52059C7.56021 7.09271 6.82217 10.1078 6.82217 10.1078" stroke="#4F4131" stroke-linecap="round" stroke-linejoin="round"/>
<path d="M5.55792 10.1089C5.50643 9.76561 5.51215 9.33652 5.57508 8.86165C5.82682 6.75623 7.03401 3.76401 8.04095 3.46078C9.27674 3.0889 11.8914 1.4469 13.4475 1.12078C14.998 0.800393 19.1001 0.972031 21.6289 3.46078C24.152 5.94953 24.6498 7.66591 24.4038 9.38229L24.152 11.0987" stroke="#4F4131" stroke-linecap="round" stroke-linejoin="round"/>
<path d="M16.949 22.541L18.5338 26.1855L19.0029 27.2725" stroke="#4F4131" stroke-linecap="round" stroke-linejoin="round"/>
<path d="M19.7285 21.5352L18.5328 26.1865" stroke="#4F4131" stroke-linecap="round" stroke-linejoin="round"/>
<path d="M15.7812 21.9238L15.5696 22.4387L15.0661 23.6574L14.9917 23.8404" stroke="#4F4131" stroke-linecap="round" stroke-linejoin="round"/>
<path d="M14.66 22.8789C14.66 22.8789 14.8087 23.165 15.0662 23.657C15.6955 24.8642 16.9885 27.3072 18.333 29.7787C20.2268 33.2573 22.2292 36.7873 22.6812 36.999C23.5794 37.4166 25.1299 38.7497 25.1299 38.7497" stroke="#4F4131" stroke-linecap="round" stroke-linejoin="round"/>
<path d="M19.0027 29.4081L19.7464 27.5773L22.4927 20.8491L22.5041 20.8262C22.5041 20.8262 28.3055 22.8458 29.6614 23.8413C31.0173 24.8311 35.4628 33.7162 36.6699 37.0002C37.8828 40.2785 40.1714 47.6646 39.5992 49.6957C39.3761 50.4852 37.9687 52.0185 36.2466 53.5689C33.5347 55.9948 30.0447 58.4549 29.1122 58.0716C28.4428 57.797 27.5274 56.2579 26.6806 54.5015C26.263 53.6376 25.8682 52.7279 25.5192 51.8869C24.97 50.5424 24.5638 49.3924 24.4608 48.9633C24.1518 47.7161 23.5797 46.5718 23.5797 46.5718" stroke="#4F4131" stroke-linecap="round" stroke-linejoin="round"/>
<path d="M22.6814 41.8051C22.8187 41.1872 24.1575 40.0601 25.7079 38.9387C27.9735 37.2967 30.6797 35.6719 30.6797 35.6719" stroke="#4F4131" stroke-linecap="round" stroke-linejoin="round"/>
<path d="M29.1116 37.9154L33.168 37" stroke="#4F4131" stroke-linecap="round" stroke-linejoin="round"/>
<path d="M29.1116 38.75C29.1116 38.75 31.8807 39.1333 33.168 40.8497" stroke="#4F4131" stroke-linecap="round" stroke-linejoin="round"/>
<path d="M24.46 41.8049L26.6798 40.2773C26.6798 40.2773 30.9193 42.1825 30.679 43.2295C30.5817 43.6586 30.719 45.5466 30.7934 47.7379C30.9021 50.9017 30.8849 54.7121 29.8723 55.7247" stroke="#4F4131" stroke-linecap="round" stroke-linejoin="round"/>
<path d="M21.8398 41.982L20.8958 41.8047" stroke="#4F4131" stroke-linecap="round" stroke-linejoin="round"/>
<path d="M28.4941 43.2298L24.3405 42.4517L22.6184 42.1313V42.1256L21.8632 41.9883" stroke="#4F4131" stroke-linecap="round" stroke-linejoin="round"/>
<path d="M30.0957 47.7143C29.6323 47.7143 26.3311 46.9362 23.6536 46.2897C21.7427 45.8263 20.1464 45.4258 20.1464 45.4258" stroke="#4F4131" stroke-linecap="round" stroke-linejoin="round"/>
<path d="M20.1465 41.9936C20.0836 41.8048 19.9977 41.6274 19.8947 41.4558C19.4428 40.672 18.6532 40.1113 17.961 39.6421C17.4575 39.3046 16.9998 39.0185 16.7709 38.7382C16.565 38.4922 16.1244 38.4521 15.6267 38.5093C14.9516 38.578 14.1563 38.8183 13.6929 38.9842C13.4412 39.07 13.281 39.1329 13.281 39.1329" stroke="#4F4131" stroke-linecap="round" stroke-linejoin="round"/>
<path d="M17.1377 40.2374H17.132C17.132 40.2374 17.0976 40.2374 17.0576 40.2317C16.6457 40.1974 14.7462 39.98 13.7393 39.8655C13.3674 39.8255 13.1156 39.7969 13.1156 39.7969" stroke="#4F4131" stroke-linecap="round" stroke-linejoin="round"/>
<path d="M17.1377 41.4046L13.7393 40.9354C13.2129 40.8611 13.1156 40.8496 13.1156 40.8496" stroke="#4F4131" stroke-linecap="round" stroke-linejoin="round"/>
<path d="M17.1382 41.4043H17.1436" stroke="#4F4131" stroke-linecap="round" stroke-linejoin="round"/>
<path d="M16.9482 42.9033C16.8796 42.9719 16.5249 42.8689 16.0729 42.6859C15.3348 42.3998 14.3165 41.9078 13.7386 41.6274C13.464 41.4901 13.2866 41.4043 13.2809 41.4043" stroke="#4F4131" stroke-linecap="round" stroke-linejoin="round"/>
<path d="M13.1149 42.9199L13.7385 43.0801L15.8268 43.6294L16.1415 43.7095C16.1415 43.7095 16.1815 43.7724 16.2616 43.8697C16.5362 44.2187 17.2686 45.0368 18.4586 45.5975C18.7961 45.7577 19.168 45.895 19.5742 45.998" stroke="#4F4131" stroke-linecap="round" stroke-linejoin="round"/>
<path d="M15.5693 37.9889L14.4251 32.6853C14.4251 32.6853 12.7087 32.6853 11.5645 33.2574C10.4202 33.8295 7.93145 36.8446 7.93145 36.8446L6.95312 35.7976L2.98256 31.541V36.7931" stroke="#4F4131" stroke-linecap="round" stroke-linejoin="round"/>
<path d="M3.62356 43.2285L3.65789 43.8865L3.80664 46.5697C3.80664 46.5697 4.54468 46.8272 5.47725 47.1762C6.12375 47.4165 6.86752 47.7025 7.52546 47.9772C8.06326 48.2003 8.54385 48.4177 8.87568 48.5951C9.06448 48.698 9.20751 48.7896 9.27617 48.8582L9.84829 49.4304C9.84829 49.4304 11.1184 48.5722 12.4972 47.714C13.2296 47.262 13.9905 46.8043 14.6141 46.4839C15.1691 46.1864 15.6096 45.9976 15.8213 45.9976" stroke="#4F4131" stroke-linecap="round" stroke-linejoin="round"/>
<path d="M16.3477 45.7862L16.1417 43.8867" stroke="#4F4131" stroke-linecap="round" stroke-linejoin="round"/>
<path d="M7.96619 37.9141C7.96619 37.9141 8.79005 47.1425 9.31641 47.7146" stroke="#4F4131" stroke-linecap="round" stroke-linejoin="round"/>
<path d="M1.83845 35.1289C1.75263 35.2147 1.74119 35.3692 1.7984 35.5694C1.89566 35.9642 2.22749 36.5478 2.61654 37.1256C3.01131 37.7092 3.45185 38.287 3.75507 38.6761C3.9782 38.9564 4.12695 39.1338 4.12695 39.1338" stroke="#4F4131" stroke-linecap="round" stroke-linejoin="round"/>
<path d="M1.89048 38.6348C2.43972 39.287 3.30935 39.985 3.55537 40.1852L3.62402 40.2367" stroke="#4F4131" stroke-linecap="round" stroke-linejoin="round"/>
<path d="M1.57585 37.457C1.2669 37.6458 1.42709 38.0406 1.76465 38.4811" stroke="#4F4131" stroke-linecap="round" stroke-linejoin="round"/>
<path d="M1.95288 40.0996C2.23894 40.5916 3.01131 41.1352 3.55483 41.4727C3.62348 41.5128 3.68642 41.5528 3.74935 41.5871C3.97248 41.7245 4.12695 41.8045 4.12695 41.8045" stroke="#4F4131" stroke-linecap="round" stroke-linejoin="round"/>
<path d="M1.94141 39.4648C1.94141 39.4648 1.93012 39.4761 1.93012 39.4818" stroke="#4F4131" stroke-linecap="round" stroke-linejoin="round"/>
<path d="M21.2903 20.252C21.6736 20.4408 22.0512 20.6353 22.4346 20.8241" stroke="#4F4131" stroke-linecap="round" stroke-linejoin="round"/>
<path d="M14.3223 22.8789C12.1367 24.2577 9.93406 26.901 9.31616 28.44C8.70399 29.979 7.09059 35.6716 7.09059 35.6716" stroke="#4F4131" stroke-linecap="round" stroke-linejoin="round"/>
<path d="M5.48325 47.7146C5.47181 47.8233 5.47181 47.9549 5.49469 48.1036C5.76932 50.3406 9.34511 56.9086 10.4207 57.4407C11.565 58.0128 14.4256 55.1522 14.4256 54.008C14.4256 53.6075 14.4542 52.5891 14.4885 51.4219C14.5629 49.2421 14.6602 46.5703 14.6602 46.5703" stroke="#4F4131" stroke-linecap="round" stroke-linejoin="round"/>
<path d="M6.98724 48.2871L6.99296 48.2928L8.80087 51.3594L10.7061 54.5862" stroke="#4F4131" stroke-linecap="round" stroke-linejoin="round"/>
<path d="M9.27637 51.0787C11.5649 52.2916 12.137 52.2916 12.7091 51.1474C13.2813 50.0031 13.1153 48.5957 13.1153 48.5957" stroke="#4F4131" stroke-linecap="round" stroke-linejoin="round"/>
<path d="M14.9918 51.4395C15.1692 51.6569 15.3465 51.8457 15.5182 52.0001C15.7527 52.2118 15.9816 52.3777 16.1933 52.4979C16.8283 52.864 17.286 52.864 17.286 52.864L25.1299 52.0459" stroke="#4F4131" stroke-linecap="round" stroke-linejoin="round"/>
<path d="M15.57 52.543C15.57 53.3611 15.3869 54.5855 15.3869 54.5855L26.6807 54.4996" stroke="#4F4131" stroke-linecap="round" stroke-linejoin="round"/>
<path d="M13.8531 25.4023C13.281 27.6908 14.9916 31.5413 14.9916 31.5413L20.1465 38.2237" stroke="#4F4131" stroke-linecap="round" stroke-linejoin="round"/>
<path d="M24.6953 23.8633C24.6953 23.8633 23.5797 30.786 22.4354 31.8158" stroke="#4F4131" stroke-linecap="round" stroke-linejoin="round"/>
<path d="M33.1685 57.5152C32.1616 58.5851 32.1616 61.4457 32.1616 61.4457L37.4079 98.7026L37.8828 102.067C37.8828 102.067 36.8988 102.49 35.4627 103.016C34.3928 103.411 33.077 103.869 31.7325 104.252C30.3079 104.658 28.8604 104.99 27.6475 105.082C27.3042 105.11 26.9781 105.122 26.6806 105.105C24.5466 105.002 22.6871 104.767 21.1653 104.246C20.0668 103.875 19.1514 103.36 18.4305 102.639C16.7141 100.922 14.992 98.0904 14.992 98.0904L15.3868 54.5859" stroke="#4F4131" stroke-linecap="round" stroke-linejoin="round"/>
<path d="M36.8184 54.5859L37.0072 56.7028L40.7432 98.0618L37.4077 98.7026" stroke="#4F4131" stroke-linecap="round" stroke-linejoin="round"/>
<path d="M35.4626 103.016C35.5942 104.927 34.7589 107.118 35.4626 108.022C35.7658 108.411 36.1491 109.486 36.4924 110.579C36.9387 112.027 37.3105 113.508 37.3105 113.508C37.3105 113.508 37.1275 113.554 36.8185 113.623C36.029 113.8 34.4041 114.149 32.8022 114.389C31.8296 114.538 30.8627 114.641 30.096 114.647C27.5844 114.653 27.0123 115.225 27.0123 114.081C27.0123 113.543 27.6874 112.622 28.4826 111.672C28.7801 111.323 29.0891 110.968 29.3923 110.631C30.0045 109.933 30.5766 109.303 30.8398 108.903C31.5893 107.787 31.7323 104.251 31.7323 104.251" stroke="#4F4131" stroke-linecap="round" stroke-linejoin="round"/>
<path d="M27.6466 105.111C27.6466 105.111 28.0185 106.976 27.9098 108.121C27.8755 108.475 27.7954 108.761 27.6466 108.904C27.0115 109.505 22.7893 109.299 20.8955 109.974C20.5465 110.1 20.0945 110.197 19.5853 110.283C17.3254 110.638 13.9156 110.598 13.1146 110.363C12.9945 110.329 12.8686 110.295 12.7484 110.26C11.8388 109.997 10.9634 109.654 13.1146 108.515C14.1215 107.983 15.6377 107.228 17.0737 106.524C19.1334 105.523 21.0328 104.619 21.0328 104.619" stroke="#4F4131" stroke-linecap="round" stroke-linejoin="round"/>
<path d="M29.1118 110.547C29.2091 110.575 29.3006 110.604 29.3922 110.633C31.6807 111.462 32.802 114.392 32.802 114.392C32.8249 114.243 32.8478 114.094 32.8764 113.957C33.4485 111.291 35.6569 110.707 36.4922 110.581C36.6982 110.553 36.8184 110.547 36.8184 110.547" stroke="#4F4131" stroke-linecap="round" stroke-linejoin="round"/>
<path d="M14.6606 107.582C15.164 106.753 16.1881 106.421 17.0749 106.524C17.8015 106.604 18.4309 106.97 18.6082 107.582C18.86 108.446 19.3005 109.579 19.5866 110.283C19.7468 110.683 19.8555 110.947 19.8555 110.947" stroke="#4F4131" stroke-linecap="round" stroke-linejoin="round"/>
<path d="M27.9336 110.547V111.628H25.2961H23.2822H19.8552H16.7142H13.1155L12.6693 110.547" stroke="#4F4131" stroke-linecap="round" stroke-linejoin="round"/>
<path d="M16.7136 112.719V115.426H19.5742V112.016" stroke="#4F4131" stroke-linecap="round" stroke-linejoin="round"/>
<path d="M23.282 111.627V115.134L25.2959 115.226V114.39V111.627" stroke="#4F4131" stroke-linecap="round" stroke-linejoin="round"/>
<path d="M27.0124 114.082L26.4346 114.391V116.983L27.9278 116.908L36.8187 116.456L37.8828 116.399V113.43L36.8187 113.624" stroke="#4F4131" stroke-linecap="round" stroke-linejoin="round"/>
<path d="M27.9332 116.983L28.4939 119.232H36.7383L36.8184 116.457" stroke="#4F4131" stroke-linecap="round" stroke-linejoin="round"/>
<path d="M11.5649 15.6758C11.5649 16.82 13.2812 17.3922 13.2812 17.3922" stroke="#4F4131" stroke-linecap="round" stroke-linejoin="round"/>
<path d="M13.2819 19.4074C13.2819 19.4074 16.1425 17.3935 16.7146 17.9656C17.2868 18.5377 17.0694 20.2541 16.3199 20.5402C15.5704 20.8262 13.2819 19.4074 13.2819 19.4074Z" stroke="#4F4131" stroke-linecap="round" stroke-linejoin="round"/>
<path d="M15.5687 10.5273C15.46 10.5788 14.9909 11.3683 14.9966 11.6716C15.0023 12.0148 15.626 12.4153 16.1409 12.2437C16.6501 12.072 16.9132 11.3855 16.713 11.0994C16.5185 10.8248 15.912 10.3671 15.5687 10.5273Z" stroke="#4F4131" stroke-linecap="round" stroke-linejoin="round"/>
<path d="M9.27603 12.2422C9.53921 12.2422 9.76234 12.574 9.84815 12.8143C9.88248 12.9173 9.97974 13.1862 9.84815 13.3864C9.63647 13.7126 8.92131 13.7068 8.7039 13.3864C8.45217 13.0146 8.88126 12.2479 9.27603 12.2422Z" stroke="#4F4131" stroke-linecap="round" stroke-linejoin="round"/>
</svg>
