<svg width="65" height="139" viewBox="0 0 65 139" fill="none" xmlns="http://www.w3.org/2000/svg">
<path d="M37.3506 118.764C43.1711 120.406 47.6809 125.93 48.1249 131.962C48.1812 132.695 48.1671 133.463 47.843 134.126C47.4906 134.83 46.8142 135.324 46.1236 135.711C40.3031 138.967 33.0733 136.599 26.8512 134.182C24.8992 133.421 22.5386 131.948 23.0389 129.912C15.1185 130.687 6.91631 126.741 2.58265 120.068C2.02596 119.215 1.51858 118.25 1.63132 117.242C1.70884 116.523 2.09642 115.875 2.57559 115.332C4.69662 112.922 8.25514 112.563 11.4613 112.366C15.6893 112.105 20.2907 111.95 23.7365 114.409C24.723 115.114 25.5686 116.009 26.6397 116.565C29.9375 118.278 34.546 116.453 37.3576 118.884" fill="#D3B25B"/>
<path d="M37.6602 118.518C37.6602 118.602 37.5543 118.687 37.4273 118.56L37.4696 118.299L37.6602 118.518Z" fill="#C6B08D"/>
<path d="M36.4344 118.222C36.3217 118.018 36.1738 117.75 36.3851 117.609C36.4837 117.898 36.5682 117.849 36.6316 118.187C36.7654 118.292 36.9344 118.264 36.9555 118.187C36.9766 118.271 37.209 118.307 37.202 118.483C36.9203 118.483 36.6879 118.356 36.4907 118.088C36.4133 118.102 36.4414 118.187 36.4273 118.229L36.4344 118.222Z" fill="#C6B08D"/>
<path d="M21.2555 113.473H21.3613C21.3613 113.473 21.2908 113.48 21.2555 113.473Z" fill="#C6B08D"/>
<path d="M11.4047 112.818C11.4823 112.818 11.5176 112.84 11.5176 112.861C11.447 112.847 11.3835 112.84 11.4047 112.818Z" fill="#C6B08D"/>
<path d="M9.72737 113.204C9.76265 113.197 9.79089 113.19 9.82617 113.176C9.79089 113.204 9.7556 113.218 9.72737 113.204Z" fill="#C6B08D"/>
<path d="M21.2559 113.471L20.9877 113.45C20.9948 113.372 21.1288 113.45 21.2559 113.471Z" fill="#C6B08D"/>
<path d="M34.3628 117.01C34.4192 117.031 34.4686 117.059 34.5039 117.094L34.3628 117.045C34.3628 117.045 34.3628 117.024 34.3628 117.01Z" fill="#C6B08D"/>
<path d="M24.7998 115.918L24.8633 115.974C24.8633 116.01 24.8633 116.052 24.8633 116.094L24.7998 115.925V115.918Z" fill="#C6B08D"/>
<path d="M27.992 117.63C27.9073 117.623 27.9284 117.426 27.9214 117.334C27.9425 117.426 27.9919 117.475 28.0625 117.503C28.0554 117.539 28.0343 117.581 27.992 117.63Z" fill="#C6B08D"/>
<path d="M33.4962 117.721L33.5879 117.756C33.5879 117.756 33.5244 117.735 33.4962 117.721Z" fill="#C6B08D"/>
<path d="M22.8838 114.516C22.8838 114.516 22.8414 114.551 22.8203 114.558C22.8344 114.537 22.8556 114.523 22.8838 114.516Z" fill="#C6B08D"/>
<path d="M41.4443 119.589C41.4443 119.589 41.4304 119.61 41.4233 119.617C41.4163 119.589 41.4233 119.575 41.4443 119.589Z" fill="#C6B08D"/>
<path d="M37.3354 118.814L37.3848 118.843C37.3848 118.878 37.3777 118.92 37.3636 118.956L37.3354 118.814Z" fill="#C6B08D"/>
<path d="M6.80389 113.966C6.80389 113.966 6.80387 113.966 6.81787 113.959C6.89491 113.959 6.85292 113.966 6.80389 113.966Z" fill="#C6B08D"/>
<path d="M18.437 129.01C18.0983 129.137 18.9239 129.313 18.4229 129.433C18.4723 129.363 18.0348 129.059 18.437 129.01Z" fill="#C6B08D"/>
<path d="M34.2637 117.023L34.1155 117.002C34.1861 117.002 34.2284 117.009 34.2637 117.023Z" fill="#C6B08D"/>
<path d="M18.4229 129.434L18.3738 129.448C18.3948 129.448 18.4088 129.441 18.4229 129.434Z" fill="#C6B08D"/>
<path d="M2.45605 117.629C2.42077 117.622 2.39254 117.601 2.36432 117.58C2.38549 117.58 2.41372 117.594 2.45605 117.629Z" fill="#C6B08D"/>
<path d="M5.05566 114.176L4.95691 114.253C4.99219 114.218 5.02744 114.19 5.05566 114.176Z" fill="#C6B08D"/>
<path d="M3.17377 119.926C3.23022 119.975 3.2655 119.982 3.30078 120.074C3.28667 120.074 3.27962 120.074 3.26551 120.067C3.26551 120.025 3.2514 119.975 3.18083 119.933L3.17377 119.926Z" fill="#C6B08D"/>
<path d="M4.9082 122.175C4.9082 122.175 4.86585 122.167 4.84468 122.16C4.83056 122.139 4.80942 122.111 4.78826 122.09L4.9082 122.175Z" fill="#C6B08D"/>
<path d="M47.5332 126.593C47.4556 126.558 47.378 126.544 47.3145 126.544C47.4626 126.53 47.3145 126.092 47.5332 126.593Z" fill="#C6B08D"/>
<path d="M34.348 117.123C34.3409 117.074 34.3127 117.045 34.2703 117.031L34.3691 117.052C34.3691 117.052 34.3691 117.109 34.348 117.123Z" fill="#C6B08D"/>
<path d="M1.94072 120.893L2.24414 121.274C2.15241 121.175 2.03951 121.034 1.94072 120.893Z" fill="#C6B08D"/>
<path d="M35.0465 137.605L35.1523 137.655C35.11 137.655 35.0747 137.634 35.0465 137.605Z" fill="#C6B08D"/>
<path d="M3.09663 122.441C3.20953 122.463 3.29423 122.512 3.37891 122.568C3.37891 122.597 3.37891 122.618 3.37891 122.646L3.10369 122.441H3.09663Z" fill="#C6B08D"/>
<path d="M46.0244 123.535C46.3133 123.908 45.954 123.866 45.8905 124.028C46.1583 124.514 46.1935 124.126 46.412 124.211C46.5459 124.549 46.4895 124.902 46.6375 125.106C46.6868 125.106 46.722 125.134 46.7361 125.057C46.7361 125.479 47.2717 126.015 47.2153 126.515C47.2505 126.536 47.2787 126.536 47.2999 126.536C47.1519 126.536 47.0321 126.579 46.9546 126.635C47.0321 126.825 46.9546 127.044 47.1449 127.044C47.0885 126.931 47.1448 126.896 47.173 126.818L47.1942 127.044C47.4972 127.121 47.1519 126.741 47.314 126.663C47.4267 127.079 47.4338 127.6 47.5959 127.882C47.8425 127.861 47.4056 127.149 47.7579 127.474C47.6733 127.326 47.5676 127.185 47.476 127.051C47.9834 127.248 47.321 126.783 47.8425 126.945C48.1807 127.537 48.0045 127.692 48.3075 128.291C48.23 128.474 48.1032 128.305 48.0257 128.488C48.0398 129.454 48.829 129.038 48.6669 129.806C48.5471 130.017 48.2653 130.144 48.519 130.595L48.7515 130.384C48.9065 131.018 48.4273 130.807 48.6951 131.448C48.7867 131.321 48.7233 130.933 48.7656 131.025C49.0263 131.434 48.6458 131.356 48.6881 131.68L48.9347 131.73C48.9629 132.413 48.836 133.259 48.4907 134.076C48.5753 134.055 48.6951 133.928 48.6951 134.161C48.1666 135.295 47.173 136.106 46.412 136.662L45.9892 136.641C45.9187 136.683 45.8906 136.796 45.9892 136.789C45.6932 137.022 45.9117 136.676 45.7214 136.683C45.5312 136.761 45.5241 136.909 45.6721 136.909C45.0097 137.043 43.847 137.233 43.2481 137.592L43.389 137.621C42.8957 137.846 42.7266 137.36 42.2897 137.621L42.3884 137.642C41.2891 137.966 40.0489 137.79 39.1892 138.1C39.0342 137.811 38.0688 138.17 38.0266 137.755C37.3783 137.91 37.5544 137.987 36.6383 138.022C36.3917 138.022 36.3213 137.712 36.0394 137.621L35.9971 137.832L35.6448 137.536L35.3911 137.755C35.3066 137.719 35.215 137.691 35.1304 137.649C35.2432 137.663 35.377 137.593 35.377 137.529C34.9754 137.353 34.3271 137.459 34.2848 137.564C33.9607 137.437 33.6506 137.29 33.3405 137.142C33.3405 137.233 33.4956 137.304 33.6154 137.388C33.1432 137.036 33.4603 137.585 33.0305 137.261C33.108 137.233 33.0305 137.127 33.0305 137.085C32.7557 137.156 32.2131 136.994 31.8326 136.824L31.8678 136.994C31.135 136.817 30.374 136.458 29.5847 136.183C29.8948 136.218 29.9088 135.951 29.6904 135.845L29.5213 136.028C29.4156 135.845 29.789 136.028 29.5424 135.76C29.2394 135.683 29.2606 135.937 29.4015 136.063L29.0703 135.866C29.028 135.922 29.0985 135.986 29.0915 136.077C28.9928 135.894 28.3938 136.07 28.267 135.76L28.2247 135.817C27.4355 135.535 27.1184 135.316 26.4913 135.063C26.5476 134.873 26.2728 134.809 26.1389 134.577C25.6386 134.429 25.0396 134.309 24.49 133.942C24.1588 133.604 24.4689 133.731 24.3702 133.52C24.2363 133.66 23.7219 133.238 23.9192 133.548C23.6092 133.287 23.4189 133.104 23.2287 132.871C23.0455 132.639 22.8411 132.364 22.6438 131.835C22.7636 131.913 22.8552 132.005 22.8764 131.913C22.8129 131.737 22.6086 131.554 22.5381 131.61V131.666C22.4888 131.441 22.4324 131.208 22.376 130.962C22.3337 130.814 22.3056 130.771 22.2704 130.729L22.2492 130.715L22.1717 130.743L22.0237 130.8C21.9321 130.835 21.8616 130.87 21.7982 130.884C21.7348 130.905 21.6855 130.912 21.6361 130.905C21.5868 130.898 21.5657 130.87 21.4036 130.814L21.4529 130.835L20.5862 130.63C20.1845 130.659 20.8258 130.771 20.5228 130.877C20.0577 130.729 19.6913 130.708 19.3389 130.701C18.9937 130.687 18.6554 130.715 18.2819 130.56C17.9508 130.778 17.4223 130.694 16.8726 130.567C16.33 130.412 15.7804 130.236 15.3365 130.306L15.414 130.194C15.2449 130.017 15.1533 130.194 14.9983 130.179C15.0476 130.095 15.2449 130.137 15.1392 130.031C13.4832 129.44 11.6229 129.052 9.9458 128.27C9.33275 127.988 9.93171 127.53 9.06498 127.361L9.14958 127.685C8.12782 126.79 6.85235 126.163 5.98562 125.148C6.01381 125.24 5.96447 125.289 6.07017 125.374C5.73194 125.338 5.30211 124.69 5.38667 124.592C5.2246 124.465 5.26688 124.648 5.12595 124.62C4.85114 124.5 4.75953 123.993 4.54813 124C4.51289 124 4.56222 124.098 4.5904 124.141C4.51994 123.95 3.99146 123.535 4.25218 123.527C3.84348 123.239 3.67434 122.788 3.34314 122.548C3.35019 122.21 2.73011 121.963 2.92036 121.709C2.68078 121.942 2.21569 121.153 2.15932 120.822C2.13818 120.963 1.91976 120.652 1.87748 120.829C1.67313 120.54 1.54627 120.209 1.72243 120.18C1.3842 119.997 1.27145 119.638 1.19394 119.321C1.11642 118.996 1.07417 118.722 0.778214 118.574C0.686607 117.94 0.72887 117.263 0.940269 116.685C1.15167 116.114 1.46875 115.663 1.79993 115.276C1.66605 115.191 1.4758 115.424 1.32782 115.671C1.1728 115.917 1.05302 116.185 0.905045 116.1C1.49696 115.128 2.09589 114.945 2.72304 114.247C2.87806 114.057 2.52575 114.233 2.42709 114.247C3.22336 113.69 3.92096 113.098 4.75246 112.915C4.73837 112.887 4.63974 112.894 4.55518 112.908C4.71021 112.852 4.88635 112.718 4.92863 112.859L4.76657 112.887C4.61859 113.176 5.52053 113.042 5.58396 113.155C5.18935 112.852 6.29567 112.803 5.7249 112.443C5.83764 112.436 5.98562 112.464 5.98562 112.563C6.12655 112.492 6.16181 112.422 5.97155 112.366C6.54937 112.274 6.38729 112.485 6.8876 112.366C6.87351 112.295 6.76074 112.295 6.69028 112.232C6.97919 112.295 7.25401 112.38 7.66271 112.239C7.62748 112.204 7.66272 112.14 7.54293 112.168C8.27578 112.056 8.8254 112.33 9.60053 112.119C9.33981 111.837 9.86126 111.992 9.87535 111.731L10.3122 111.774L10.1502 111.915C10.5237 111.879 10.8619 112.049 11.179 111.943L10.8971 111.851H11.5947L11.2072 111.978C11.5877 112.091 11.186 112.309 11.6722 112.211C11.5736 112.189 12.0387 112.182 12.2219 112.02C12.4121 112.091 12.6024 112.175 12.8702 112.091C12.9406 112.006 12.7997 111.802 12.842 111.746C13.0322 111.957 13.7157 111.767 13.9553 111.999C13.8778 111.943 13.8708 111.809 13.8919 111.781L14.0469 111.957C14.2161 111.894 14.2443 111.865 14.209 111.76C14.7305 111.717 14.054 112.098 14.66 111.943C14.6107 111.929 14.6318 111.901 14.5332 111.879C15.1533 111.795 15.7311 111.992 16.3019 111.929C16.4851 111.668 15.8016 111.851 16.0059 111.633C16.8374 111.71 17.6971 112.034 18.5004 112.098H18.3454C18.4018 112.485 18.9655 112.013 19.3389 112.26C19.2473 112.218 19.2474 112.034 19.2685 112.077C19.8252 112.119 20.3678 112.408 21.1218 112.781L21.0583 112.655C21.3966 112.69 21.8898 112.901 22.2281 113.021C22.2844 113.155 22.4747 113.218 22.3056 113.296C22.9116 113.289 23.3555 113.62 23.722 113.979C24.1025 114.325 24.4054 114.712 24.9198 114.832C24.8353 114.761 24.7648 114.592 24.8353 114.656L25.392 115.227C25.244 115.311 25.2511 115.241 25.0397 115.227C25.0538 115.367 25.1806 115.565 25.3356 115.685C25.1242 115.375 25.5047 115.487 25.6738 115.501C25.6245 115.523 25.6316 115.6 25.5893 115.635C26.0896 115.649 25.4413 115.945 26.0191 116.114L26.0403 116.03C26.1882 116.185 26.2939 116.382 26.5053 116.474C26.6744 116.354 26.3503 116.291 26.4208 116.15C26.6674 116.319 26.8084 116.749 27.1536 116.692C27.0479 116.587 26.8788 116.509 26.7802 116.41C27.1536 116.333 27.1536 116.396 27.3721 116.453H27.3509L27.8654 116.509L27.7244 116.53C27.8301 116.826 28.0204 116.904 28.2388 116.946C28.4502 116.995 28.6827 117.023 28.9294 117.214C28.4572 116.84 28.873 117.03 28.866 116.812C29.0069 116.77 29.2112 116.735 29.169 116.671C29.3874 116.883 29.5918 116.58 29.9159 116.861C29.937 116.798 30.1837 116.875 30.1414 116.699C30.4655 116.77 30.0568 116.812 30.078 116.904C30.5712 117.171 31.2759 116.671 32.0087 117.016C32.65 117.171 32.7627 117.404 33.3405 117.566C33.5519 117.467 33.1926 117.305 33.1926 117.305C33.5238 117.221 33.7775 117.27 34.0734 117.383C34.017 117.319 34.0875 117.27 34.1932 117.207C34.4398 117.256 34.32 117.481 34.6653 117.439C34.623 117.355 34.5737 117.221 34.461 117.122C34.7499 117.242 35.0177 117.411 35.2995 117.566C35.4123 117.474 35.1656 117.341 35.074 117.235C35.2431 117.305 35.4616 117.397 35.6377 117.489C35.8139 117.594 35.9478 117.721 35.969 117.827L35.7364 117.806C35.8491 117.862 35.8562 117.679 35.7716 117.608C35.532 117.362 35.3348 117.552 35.2995 117.608L35.4968 117.707C35.3277 117.869 35.1304 117.799 34.912 117.672C34.6865 117.566 34.4398 117.404 34.2214 117.383L34.3553 117.7C34.2284 117.587 34.0875 117.496 33.9536 117.397C33.8479 117.46 33.7704 117.615 33.9748 117.686C33.6577 117.799 33.7211 117.545 33.4392 117.686C33.411 117.707 33.4181 117.721 33.4392 117.735L33.1503 117.629C33.2067 117.693 33.0869 117.834 33.2701 117.806C32.7346 117.932 32.4245 117.538 32.2131 117.749L32.2554 117.77C31.5155 117.644 32.192 117.552 31.6423 117.284L31.2477 117.806L31.1772 117.587C31.0997 117.587 30.9447 117.601 30.9729 117.693C30.691 117.538 31.0222 117.601 30.8602 117.453C30.4796 117.637 29.8454 117.312 29.7397 117.644C29.6199 117.467 30.1061 117.552 29.7186 117.404C29.5706 117.756 29.2676 117.312 28.9082 117.418C28.9858 117.622 29.324 117.566 28.9576 117.686C28.7955 117.348 28.2741 117.658 27.9922 117.517C28.0415 117.27 27.3862 117.263 26.9563 116.988C26.9563 117.038 26.7238 116.974 26.4349 116.883C26.146 116.777 25.8218 116.615 25.6034 116.516L25.5893 116.558C25.6597 116.298 25.251 116.058 25.0256 115.804C24.941 115.931 24.948 116.023 25.0537 116.192L24.8001 115.988C24.793 115.875 24.7437 115.776 24.6028 115.628L24.5393 115.826C24.2222 115.551 24.039 115.107 23.5458 114.902C23.6233 114.733 24.1941 114.762 23.7995 114.318C23.7219 114.381 23.6092 114.508 23.7078 114.628C23.6797 114.592 23.6162 114.458 23.5105 114.444C23.5458 114.529 23.5739 114.614 23.6021 114.705C23.3696 114.621 23.581 114.522 23.4119 114.43C23.3344 114.55 23.2357 114.43 23.2005 114.543C23.2357 114.578 23.3696 114.585 23.3978 114.67C23.2075 114.571 22.9468 114.501 22.82 114.55C22.8763 114.494 22.9186 114.388 22.7988 114.289C22.4465 114.085 22.5945 114.367 22.3549 114.318C22.3126 114.184 22.0519 114.155 22.1365 113.965C22.0308 113.916 21.9673 113.993 21.9039 114.029C21.8264 113.944 21.615 113.838 21.4529 113.74C21.2838 113.655 21.1781 113.571 21.3261 113.507H21.3825L21.3543 113.493C20.7764 113.035 19.945 113.155 19.3037 112.922L19.2896 112.993C18.902 112.838 18.4018 112.781 18.1199 112.605C18.0001 112.591 17.8169 112.69 17.8592 112.781C17.5562 112.697 17.5209 112.619 17.0558 112.69C17.3589 112.838 16.9361 112.788 17.373 112.81C16.9572 112.831 16.8656 112.936 16.4357 112.725C16.5767 112.908 16.1187 112.929 15.9284 112.873L16.2173 112.753C15.9989 112.718 15.8086 112.732 15.6113 112.739L15.71 112.979C14.8785 113.246 14.1949 112.492 13.5607 112.993C13.3282 112.838 14.0188 112.859 13.8074 112.676C13.4198 112.725 13.0252 113.07 12.9054 113.084C12.3769 113.239 12.391 112.767 11.8343 112.887C11.8978 112.803 11.9541 112.57 11.5313 112.521C11.1437 112.577 11.0733 112.901 11.3199 112.951C11.4115 112.951 11.4608 112.922 11.4538 112.894C11.5806 112.915 11.7498 112.943 11.6018 113.042L11.5454 112.965C11.3551 113.063 10.8196 113.084 10.9535 113.218C10.6576 113.155 10.8196 113.091 11.031 113.035C10.5377 113.19 10.2559 113.091 9.75558 113.218C9.83309 113.162 9.89648 113.063 9.81897 113.07C9.08612 113.246 9.47372 112.943 8.96636 112.965C8.69859 113.127 9.10727 113.254 8.59287 113.211C8.29691 113.338 8.55765 113.437 8.69153 113.493C8.21236 113.394 7.86707 113.726 7.62749 113.81L7.86709 113.831C7.72616 113.817 7.61339 113.845 7.4936 113.867L7.59226 113.676C7.46542 113.733 7.34563 113.754 7.36677 113.824C7.2047 113.747 7.4161 113.528 7.10604 113.444C6.94397 113.571 6.52822 113.493 6.52822 113.726C7.07081 113.5 6.52821 113.951 7.00739 113.867C6.90873 113.867 6.79601 113.888 6.67621 113.958C6.66212 113.986 6.70438 114 6.74666 114C6.28864 114.346 6.42956 113.817 5.90106 114.015C6.00676 114.106 5.85878 114.282 5.76717 114.282C5.97857 114.205 5.79538 114.043 5.56284 114.036C5.26688 114.268 5.16824 114.113 4.99912 114.212C5.05549 114.163 5.11891 114.12 5.17529 114.078C5.05549 113.986 4.89342 114.092 4.64679 114.17C4.67498 114.268 4.88637 114.12 4.82295 114.205C4.45653 114.141 4.37197 114.705 3.98441 114.797C3.88575 114.973 4.10419 115.001 4.01963 115.135C3.58979 115.269 3.77298 115.537 3.38542 115.734C3.35019 115.53 3.39954 115.537 3.06131 115.649C3.25861 115.494 3.45591 115.353 3.67435 115.234C3.50524 115.276 3.32204 115.304 3.15997 115.368C3.31499 115.198 3.58979 115.128 3.6673 115.015C3.40658 115.057 3.44885 115.079 3.44181 114.895C3.36429 115.283 2.87103 115.212 2.73714 115.607L3.06131 115.875C2.9697 116.129 2.80058 116.262 2.62442 116.424C2.4553 116.587 2.27207 116.791 2.25093 117.087C2.24388 117.023 2.23682 116.953 2.23682 116.883C2.04656 116.911 2.11 117.242 2.03954 117.425C2.18047 117.418 2.22276 117.538 2.31437 117.608C2.20162 117.608 2.36368 118.01 2.1241 118.137C2.20865 118.214 2.2932 118.292 2.37776 118.362C2.63144 118.813 2.25095 119.095 2.58214 119.574C2.62442 119.349 2.83581 119.518 2.75125 119.144C2.84286 119.299 2.94855 119.426 2.87103 119.483C2.99083 119.532 2.99786 120.025 3.21631 120.096C3.21631 120.194 3.11064 120.3 3.24452 120.469C3.27976 120.469 3.30087 120.427 3.30087 120.427C3.24449 120.469 3.42068 120.758 3.18814 120.695C3.85757 120.941 4.19579 122.041 4.80885 122.196C5.06252 122.534 5.37961 122.929 5.63329 123.217C5.64738 123.168 5.68264 123.168 5.61922 123.126C6.0843 123.401 5.57692 123.633 6.1195 123.943C6.50002 123.985 5.96449 123.633 6.16883 123.704C6.5423 123.415 6.64801 124.26 7.14832 124.296L7.09194 124.211C7.43018 124.281 7.56407 124.817 7.97982 125.099C7.97982 125.099 7.97982 125.05 8.02209 125.043C8.16303 125.423 8.65628 125.874 9.02975 126.198C8.99452 125.973 8.89587 125.994 9.07203 125.895C9.24115 126.036 8.85359 126.107 9.20592 126.381C9.38208 126.374 9.69215 126.466 9.83308 126.318L9.4878 126.099C9.79785 125.994 9.93173 126.381 10.1431 126.459L10.1784 126.353C10.6928 126.705 10.58 126.931 11.186 127.234L11.0874 127.276C11.2988 127.692 11.4256 127.29 11.6722 127.629L11.8907 127.424C12.0809 127.579 12.5601 128.016 12.9477 128.235C12.7926 127.953 12.3699 127.643 12.1303 127.403C12.3487 127.495 12.8631 127.748 12.9265 127.932C12.849 127.868 12.7645 127.755 12.6588 127.755C12.842 128.087 13.1732 128.319 13.6312 128.481C13.6805 128.213 13.9906 128.291 14.3359 128.397C14.6882 128.488 15.0969 128.594 15.3224 128.446C15.6958 128.671 16.1116 128.742 16.5415 128.791C16.9713 128.855 17.4223 128.876 17.9014 128.953C17.4927 129.313 18.1833 129.01 18.0635 129.425C18.289 129.489 18.3735 129.496 18.4017 129.468C18.6413 129.425 18.888 129.348 19.1205 129.285C19.2967 129.172 18.9161 129.172 18.9443 129.08C19.4376 129.087 19.1698 128.918 19.501 128.827C19.4235 128.974 19.6561 129.059 19.9379 129.024L19.5292 129.186C20.2127 129.475 20.1422 128.869 20.8258 129.108L20.6073 128.967C20.7835 129.01 21.1076 129.01 21.4388 129.052C21.467 129.052 21.5305 129.059 21.608 129.059H21.8123C21.9462 129.073 22.073 129.08 22.1928 129.094C22.4253 129.122 22.6086 129.172 22.6931 129.249C22.8129 129.193 23.0243 129.059 22.7777 129.045C22.9891 129.024 23.2075 129.017 23.426 129.01C23.6303 129.01 23.8699 128.989 24.0179 129.045C23.9404 129.383 23.8558 129.743 23.7853 130.095L23.736 130.342L23.722 130.525C23.722 130.638 23.7008 130.785 23.7078 130.856C23.7431 131.074 23.8276 131.293 24.0038 131.406L24.0672 131.307C24.1025 131.42 24.0249 131.603 24.2222 131.666C24.2504 131.631 24.2716 131.561 24.3138 131.603C24.3138 131.68 24.4195 131.998 24.6098 132.075C24.5957 132.012 24.5746 131.948 24.5746 131.885C25.1947 132.258 25.3215 132.829 25.9064 133.231C26.0473 132.963 26.6604 133.146 26.9704 133.217V133.174C27.8865 133.491 28.4643 134.027 29.2887 134.457C29.9441 134.337 31.1702 134.971 32.1074 135.056C31.9594 135.07 32.0581 135.295 32.206 135.373C32.4315 135.373 32.7204 135.746 32.7627 135.464L32.6852 135.45C32.9177 135.232 33.3194 135.422 33.6506 135.5L33.6083 135.873C34.6019 135.598 35.8773 136.592 36.4481 136.19C36.6454 136.324 36.9061 136.359 37.1105 136.472L37.1246 136.275C37.7165 136.296 38.0125 136.31 38.7312 136.388L38.5903 136.24C38.9919 136.254 39.0835 136.853 39.4711 136.853L39.5838 136.557C40.3096 136.571 40.9861 136.254 41.7119 136.423C41.6908 136.38 41.6626 136.303 41.5499 136.31C41.881 136.247 42.7548 135.901 42.7266 136.31C42.6703 136.042 43.4242 136.113 43.8259 136.099L43.7061 135.929C44.0866 136.056 44.1218 136.113 44.5728 136.021C44.6644 135.958 44.601 135.845 44.4883 135.937C44.7842 135.718 44.8265 136.014 45.1788 135.725L44.9815 135.683C45.3057 135.507 45.3057 135.577 45.5594 135.619C45.813 135.591 46.1724 135.253 46.109 135.07C46.2076 135.14 46.4543 135.154 46.5952 134.985C46.5811 134.915 46.4895 134.929 46.4473 134.929C46.6446 134.703 46.8277 134.612 46.9898 134.513C47.1519 134.414 47.2928 134.302 47.3069 134.097C47.2576 134.055 47.2435 134.02 47.2365 133.985C47.0533 134.33 46.7784 134.569 46.8207 134.555C46.708 134.422 46.8912 134.182 46.5459 134.175C46.8066 134.126 47.2999 133.942 47.3069 133.604C47.2928 133.583 47.2858 133.569 47.2576 133.548L47.2294 133.569C47.2294 133.498 47.2646 133.442 47.3069 133.393C47.2999 133.287 47.2858 133.224 47.2999 133.125C47.1589 133.076 47.2576 132.737 47.2435 132.554C47.4408 132.568 47.4056 132.322 47.5747 132.554C47.5606 132.526 47.5536 132.589 47.5395 132.716C47.5395 132.744 47.5324 132.78 47.5183 132.794L47.5395 132.78C47.5324 132.899 47.5183 133.055 47.4901 133.224C47.6099 133.104 47.7086 132.949 47.6029 132.737C47.7297 132.646 47.8636 132.533 47.92 132.463C47.6451 132.195 47.4337 131.695 47.2505 131.638C47.314 131.025 47.1026 130.243 47.3774 129.778C47.3774 129.595 47.2224 129.609 47.1449 129.566C47.1378 129.672 47.173 129.785 47.1378 129.848C47.1378 129.496 46.9053 128.855 47.1096 128.693C46.8419 128.319 46.9687 129.003 46.7996 128.425L46.7502 128.531C46.3627 128.044 46.3274 127.565 46.2499 127.044C46.2217 126.783 46.1513 126.529 46.0385 126.276C45.9187 126.022 45.7567 125.775 45.4537 125.571C45.5312 125.627 45.5664 125.663 45.6158 125.656C45.1154 125.078 44.7138 124.422 44.2417 123.802C43.7695 123.189 43.234 122.611 42.5505 122.266C42.184 122.055 42.2545 121.893 42.1347 121.625L41.9304 121.738L41.719 121.28C41.3103 120.744 40.5422 121.103 40.0419 120.42L40.2039 120.342C39.9362 120.237 39.4358 119.849 39.4077 120.018C39.3936 119.983 39.3936 119.835 39.2527 119.863L39.1963 119.962L38.6255 119.518C38.09 119.391 38.548 119.934 37.8081 119.708C37.5544 119.581 37.1246 119.144 37.2444 119.102C37.3571 119.137 37.5544 119.13 37.5967 119.025L37.3501 118.884C37.3994 118.553 37.2655 118.158 38.0124 118.165L38.4212 118.51L38.6255 118.412L38.2309 118.271C38.5057 118.207 38.6114 118.369 38.7312 118.524C38.7946 118.461 38.8862 118.433 38.9849 118.44L39.3161 118.919C39.4218 118.827 39.2174 118.602 39.5486 118.665C39.6966 118.884 39.2315 118.841 39.5345 119.074C39.8164 119.032 39.8023 118.905 39.9925 119.137C40.063 119.081 40.0348 119.004 39.9573 118.919C40.1335 119.123 40.5281 119.264 40.5563 119.476C40.8734 119.419 41.2398 119.948 41.3878 119.666C41.416 119.772 41.6344 120.096 41.8106 120.237C41.6837 119.687 42.5082 120.716 42.6562 120.335C42.7196 120.772 43.4383 121.16 43.7272 121.66C43.7272 121.618 43.7202 121.533 43.6709 121.519C43.9105 121.709 44.0443 121.702 44.2276 121.794C44.0584 122.019 44.3614 122.393 44.4037 122.696C44.8477 122.795 44.4883 122.308 44.756 122.217C44.5799 122.358 45.0238 122.865 44.7983 122.886C45.1084 122.992 45.0238 123.02 45.2916 122.985C45.0591 123.246 45.4255 123.224 45.4043 123.549C45.7919 123.774 45.7285 123.436 45.9188 123.866C46.1372 123.978 45.9892 123.577 45.9892 123.577L46.0244 123.535ZM48.4414 134.055C48.4837 133.956 48.5119 133.872 48.533 133.816C48.5189 133.865 48.4907 133.935 48.4414 134.055ZM47.92 134.957C47.9904 134.851 48.0891 134.732 48.1736 134.584C48.1314 134.52 48.0538 134.513 48.0045 134.598C48.075 134.577 47.9763 134.795 47.92 134.95V134.957ZM47.2858 132.871C47.2506 132.984 47.2858 133.019 47.321 133.04C47.3351 132.991 47.3422 132.928 47.3633 132.843L47.3915 132.829C47.3562 132.836 47.3139 132.85 47.2928 132.871H47.2858Z" fill="#C6B08D"/>
<path d="M47.5539 132.667C47.5539 132.667 47.568 132.638 47.568 132.617C47.5821 132.645 47.6033 132.667 47.6104 132.695L47.5469 132.737C47.5469 132.737 47.5469 132.695 47.5469 132.674L47.5539 132.667Z" fill="#C6B08D"/>
<path d="M21.3831 113.487H21.362C21.362 113.487 21.3972 113.487 21.4043 113.473C21.3902 113.473 21.3902 113.48 21.3761 113.487H21.3831Z" fill="#C6B08D"/>
<path d="M36.018 137.881L36.0251 137.832L36.0957 137.888L36.018 137.881Z" fill="#C6B08D"/>
<path d="M25.7232 115.5C25.7232 115.5 25.7655 115.486 25.8008 115.5C25.7937 115.507 25.7585 115.507 25.7232 115.5Z" fill="#C6B08D"/>
<path d="M27.4209 116.439L27.7031 116.454C27.5761 116.454 27.4915 116.454 27.4209 116.439Z" fill="#C6B08D"/>
<path d="M28.8941 116.707C28.9082 116.742 28.9082 116.771 28.9082 116.792L28.8941 116.707Z" fill="#C6B08D"/>
<path d="M4.58984 112.93C4.58984 112.93 4.54749 112.944 4.52632 112.951C4.37107 112.986 4.46988 112.951 4.58984 112.93Z" fill="#C6B08D"/>
<path d="M12.2637 112.014C12.179 111.986 12.1013 111.951 12.0167 111.936C12.1507 111.915 12.2566 111.901 12.2637 112.014Z" fill="#C6B08D"/>
<path d="M1.90613 120.85H1.9132L1.94141 120.892L1.90613 120.85Z" fill="#C6B08D"/>
<path d="M11.6648 111.957C11.7988 111.908 11.9117 111.915 12.0176 111.936C11.9047 111.957 11.7777 111.985 11.6648 111.957Z" fill="#C6B08D"/>
<path d="M35.8567 117.34L35.9414 117.361C35.9414 117.361 35.9414 117.382 35.9414 117.396L35.8638 117.34H35.8567Z" fill="#C6B08D"/>
<path d="M35.9341 117.396L36.0117 117.453C35.9694 117.439 35.9341 117.425 35.9341 117.396Z" fill="#C6B08D"/>
<path d="M36.1807 117.573L36.0183 117.453C36.0818 117.474 36.1666 117.503 36.1807 117.573Z" fill="#C6B08D"/>
<path d="M33.6367 117.002L33.6155 116.932C33.6155 116.932 33.6367 116.974 33.6367 117.002Z" fill="#C6B08D"/>
<path d="M32.9824 116.931C33.1373 116.931 33.3838 116.804 33.6021 116.867L33.6162 116.924C33.5176 116.811 33.1162 117.065 32.9824 116.931Z" fill="#C6B08D"/>
<path d="M30.2609 117.722L30.8031 117.693C30.7045 117.764 30.5777 117.862 30.8242 117.891C30.1271 118.088 30.9721 117.729 30.2609 117.722Z" fill="#C6B08D"/>
<path d="M28.5483 117.65C28.8376 117.728 28.5272 117.756 28.5342 117.806C28.3578 117.7 28.3155 117.672 28.5483 117.65Z" fill="#C6B08D"/>
<path d="M17.7962 112.811V112.994C17.5916 112.952 17.8103 112.923 17.7962 112.811Z" fill="#C6B08D"/>
<path d="M15.5543 111.746L15.7801 111.641L15.8789 111.81L15.5543 111.746Z" fill="#C6B08D"/>
<path d="M14.2089 113.043L14.3076 113.064L13.9407 113.008L14.2089 113.043Z" fill="#C6B08D"/>
<path d="M4.7168 121.681L4.50511 121.773C4.4416 121.632 4.61801 121.449 4.7168 121.681Z" fill="#C6B08D"/>
<path d="M11.1927 127.06C11.3268 127.003 11.5667 127.053 11.6514 127.215C11.475 127.137 11.2632 127.13 11.1927 127.06Z" fill="#C6B08D"/>
<path d="M34.1087 135.67L33.9605 135.557L34.2568 135.698L34.1087 135.67Z" fill="#C6B08D"/>
<path d="M63.9929 32.676C64.1057 31.0201 58.257 25.5801 57.3762 25.5801C56.9745 25.5801 54.0502 26.2143 50.7172 26.933L50.999 28.2296C49.6813 28.9343 46.3482 30.7453 46.3694 33.3877C46.3905 36.1993 46.0805 37.0097 47.4898 39.7297C48.8921 42.4497 51.5557 44.3241 51.5557 44.3241L51.1541 45.374C52.0419 45.8038 52.7748 46.0998 53.261 46.1985C56.3826 46.8256 59.5113 45.5713 61.3857 44.3241C63.2601 43.0768 63.8873 34.3249 64 32.669L63.9929 32.676Z" fill="#F5CF24"/>
<path d="M37.0256 29.9844V34.8395C37.0256 35.5582 36.9621 36.284 36.7648 36.7984L37.0326 36.8266C37.0326 36.8266 38.6463 37.9047 40.873 39.3352C44.0017 41.3364 48.3565 44.0282 51.154 45.3882L51.5557 44.3383C51.5557 44.3383 48.885 42.4639 47.4898 39.7439C46.0804 37.0239 46.3905 36.2136 46.3693 33.402C46.3482 30.7665 49.6812 28.9555 50.999 28.2438L50.7171 26.9473C47.0881 27.7294 42.9729 28.5962 41.0914 28.8428C40.88 28.871 40.6898 28.8851 40.5418 28.8992L40.5066 28.8005L37.0326 29.9914L37.0256 29.9844Z" fill="#F5CF24"/>
<path d="M14.9267 25.5861C16.5967 25.5861 17.6326 24.3388 18.5134 23.4016C18.6755 23.2254 18.7953 22.8943 18.8728 22.4644C19.2322 20.5548 18.8869 16.658 18.8869 15.8476C18.8869 14.8611 16.6883 13.3813 16.6883 13.3813C16.6883 13.3813 18.8869 13.0924 21.1347 11.5281C23.3826 9.96373 22.6357 8.08933 23.3826 6.75047L24.4819 6.81391C24.4819 6.77868 24.4819 6.74344 24.4819 6.7223L25.1231 6.75047C26.3704 8.08933 26.3704 8.70944 28.8719 9.33659L31.3735 9.96373C31.3735 10.5909 32.6207 11.8381 32.6207 14.3397C32.6207 16.0802 32.9237 17.8982 32.6841 19.3428L32.7757 19.3639C32.7757 19.3639 33.8679 21.2172 35.1011 22.0768C36.3343 22.9365 38.4482 22.0768 38.4482 22.0768C38.4482 22.0768 36.3695 18.0955 35.4816 16.7355C34.5938 15.3755 33.2408 9.97077 33.8679 9.35067C34.4951 8.73057 33.868 6.84913 32.7757 4.77038C31.6835 2.69163 26.3704 1.22594 26.3704 1.22594C26.3704 1.22594 22.3679 0.725643 19.7254 1.26119L19.7113 1.17663L17.4705 1.57124H17.4564L16.9773 1.65579C15.6173 2.21952 13.6583 5.28479 12.1996 7.39877C10.5296 9.82985 10.741 13.0995 10.6212 13.9451C10.4873 14.7907 11.6923 15.3826 11.6923 15.3826C11.6923 15.3826 12.6225 19.977 11.6923 21.3651C10.7551 22.7604 9.50082 21.8514 9.50082 21.8514C9.50082 21.8514 9.50079 22.4785 10.1279 23.0986C10.7551 23.7187 13.8838 24.3458 13.8838 24.3458L13.9402 24.5361C13.2355 24.7757 12.2067 24.6348 12.2067 24.6348C12.2067 24.6348 13.2496 25.5931 14.9196 25.5931L14.9267 25.5861Z" fill="#E19EA6"/>
<path d="M30.1629 115.577C30.1629 115.577 29.6345 120.129 29.9798 121.038C30.015 121.144 30.0643 121.201 30.1277 121.201C30.7549 121.201 39.4997 122.448 40.754 122.448C42.0083 122.448 47.6315 119.326 48.8787 118.072C50.126 116.825 45.1299 117.445 43.2555 117.445C41.3811 117.445 38.2525 116.818 36.3499 116.282C36.3499 116.282 35.758 116.818 33.8836 117.445C32.0092 118.072 30.1629 115.57 30.1629 115.57V115.577Z" fill="#E19EA6"/>
<path d="M33.8833 117.453C35.7577 116.825 36.3496 116.29 36.3496 116.29L35.1306 115.578H30.1627C30.1627 115.578 32.0089 118.08 33.8833 117.453Z" fill="#E19EA6"/>
<path d="M19.3879 111.873L18.9722 108.66L19.3879 105.264C18.3521 104.517 17.1471 103.495 16.379 102.818L15.773 104.636L15.8717 104.665C15.463 105.771 15.16 107.314 15.16 107.314C15.16 107.314 10.7558 111.817 11.3759 113.071C11.996 114.325 13.8775 116.193 15.1247 117.666C16.372 119.131 23.8766 123.07 25.1239 123.07C26.3711 123.07 26.3711 121.823 26.3711 121.196C26.3711 121.161 26.35 121.111 26.3218 121.055C25.8356 120.252 21.9247 117.954 20.762 116.277C20.0362 115.242 19.5218 113.325 19.2118 111.894L19.3809 111.859L19.3879 111.873Z" fill="#E19EA6"/>
<path d="M16.3862 102.824C17.1543 103.501 18.3522 104.515 19.3951 105.269C20.3464 105.96 21.1638 106.432 21.3893 106.206C21.9389 105.657 22.9607 97.9196 24.0529 94.3258L24.0741 94.2624C24.215 93.8185 24.3489 93.438 24.4898 93.149L24.8633 92.1273C23.8063 88.3503 22.7493 84.672 22.3335 83.4247C22.101 82.7342 21.7698 81.6278 21.4034 80.3242C21.4034 80.5708 20.5085 83.164 20.4028 83.4882C20.4028 83.5093 20.3887 83.5163 20.3887 83.5163C19.0991 89.4637 17.1543 101.253 15.604 102.119C15.604 102.119 15.9141 102.408 16.4003 102.824H16.3862Z" fill="#E19EA6"/>
<path d="M40.8733 39.3356C38.6395 37.9122 37.0328 36.827 37.0328 36.827L36.7651 36.7988C36.6946 36.9679 36.6171 37.1159 36.5185 37.2287C35.7715 38.0883 35.236 38.2997 34.5595 38.5041C34.3129 38.5816 33.4462 40.0332 32.4033 41.8935L32.7979 42.112C32.7979 42.112 33.4532 47.7352 34.2565 52.3296C34.7427 55.1693 35.2923 57.6074 35.7715 58.0866C36.7299 59.045 39.922 59.7355 41.3524 60.0033C41.7893 60.0879 42.0641 60.1301 42.0641 60.1301L43.9033 59.2916C43.9033 59.2916 44.7982 53.0272 44.6855 50.3706V50.3565L42.945 46.3822C42.501 44.7615 41.8105 42.873 41.3595 41.661L40.8874 39.3426L40.8733 39.3356Z" fill="#E19EA6"/>
<path d="M41.3379 65.5828V60.0019C39.9074 59.7341 36.7153 59.0365 35.7569 58.0852C35.2848 57.6131 34.7352 55.1679 34.242 52.3281L33.5091 52.462L34.3547 66.8089L34.5027 69.3316H34.9466C35.7499 69.3316 37.0183 67.6263 37.0183 67.6263L41.3308 65.5828H41.3379Z" fill="#E19EA6"/>
<path d="M28.2665 50.7783C28.2524 52.8148 28.0058 67.3308 26.8924 67.7043C25.7579 68.0848 22.0091 67.4577 22.0091 67.4577L21.382 69.1418C21.382 69.1418 20.4518 68.9374 19.0777 68.6133L18.8874 69.3391C18.8874 70.7484 20.2897 76.4139 21.389 80.3247C21.7554 81.6213 22.0866 82.7276 22.3191 83.4252C22.7349 84.6725 23.7919 88.3579 24.8489 92.1278C26.1454 96.7856 27.435 101.591 27.5055 102.12C27.6323 103.085 30.162 115.579 30.162 115.579H35.1299C34.5027 114.952 33.8826 113.077 33.8826 112.457C33.8826 111.837 32.6353 93.7063 32.0082 91.2118C31.7334 90.1125 31.0992 86.11 30.4157 81.9243L31.226 79.7962L31.4022 79.3382C32.2619 76.9353 33.03 72.0661 33.3682 69.6632L33.8756 66.8376L34.3477 66.8094L33.5021 52.4625L34.235 52.3286C33.4316 47.7342 32.7763 42.111 32.7763 42.111L32.3817 41.8926C30.6412 44.979 28.4004 49.1788 27.6182 49.9609C27.3786 50.2005 27.1249 50.4753 26.8571 50.7642L28.2524 50.7783H28.2665Z" fill="#E19EA6"/>
<path d="M29.0203 13.7838C28.2945 13.0862 30.2253 11.5923 30.9229 12.3674C31.5501 13.1848 29.873 14.4321 29.0908 13.8472L29.0133 13.7838H29.0203ZM22.5305 13.7133C22.3613 12.7127 24.8065 12.6563 24.9122 13.6922C24.9333 14.721 22.8475 14.7351 22.5586 13.8049L22.5305 13.7133ZM16.6817 13.3751C16.6817 13.3751 18.8803 14.8549 18.8803 15.8414C18.8803 16.6518 19.2256 20.5485 18.8662 22.4581H18.8803C19.3172 22.6766 20.0641 22.9726 20.8393 23.2615L19.7118 24.1705C18.8803 25.2204 18.8803 26.059 18.8803 26.059C18.8803 26.059 14.5044 28.0813 13.8772 29.3356C13.2501 30.5899 12.0028 41.2092 12.0028 42.4564C12.0028 43.1611 11.4039 46.0784 10.9952 48.8124C10.6781 50.9053 10.4807 52.8924 10.7485 53.7028C11.3757 55.5772 11.3757 56.8244 11.9958 56.8244C12.5454 56.8244 18.8451 60.1786 21.2409 60.5944L21.4382 59.1639C21.2338 59.3048 20.9872 59.3401 20.7476 59.1639C20.1205 58.7059 18.7464 57.9096 17.8726 55.4926C16.9988 53.0827 18.1192 49.6721 17.8726 49.193C17.626 48.7068 20.7476 43.8446 20.7476 43.8446L23.9821 43.5275L24.0666 43.6262C27.1953 41.0401 31.8813 37.2419 31.4303 36.8262C31.4303 36.8262 30.9229 29.688 31.4585 28.8917C31.5571 28.7437 31.7051 28.5323 31.8883 28.2857L31.2612 28.1166C31.2612 28.1166 30.0914 26.8623 28.8583 26.0449H28.8442L27.294 24.3326L27.0685 24.2057C27.1812 24.0084 27.3573 23.8322 27.604 23.7054C28.8512 23.0782 30.7256 22.4582 31.9799 20.9713C32.3604 20.5203 32.5648 19.9566 32.6705 19.3295C32.9101 17.8849 32.6071 16.0669 32.6071 14.3264C32.6071 11.8248 31.3598 10.5776 31.3598 9.95043L28.8583 9.32329C26.3567 8.69614 26.3567 8.07603 25.1095 6.73718L24.4683 6.70898C24.4683 6.70898 24.4683 6.76536 24.4683 6.80059L23.369 6.73718C22.6221 8.07603 23.369 9.95043 21.1211 11.5148C18.8733 13.0791 16.6747 13.368 16.6747 13.368L16.6817 13.3751Z" fill="#E19EA6"/>
<path d="M26.8928 67.6962C28.0061 67.3298 28.2527 52.8067 28.2668 50.7703L26.8716 50.7562C27.1394 50.4602 27.3931 50.1854 27.6327 49.9529C28.4148 49.1707 30.6557 44.9709 32.3962 41.8845C33.4391 40.0313 34.2987 38.5726 34.5524 38.4951C35.2289 38.2907 35.7574 38.0794 36.5114 37.2197C36.61 37.1069 36.6946 36.9589 36.758 36.7898C36.9553 36.2754 37.0187 35.5496 37.0187 34.8309V29.9758L40.4927 28.7849L40.5279 28.8835C40.6759 28.8694 40.8662 28.8553 41.0776 28.8272C41.0776 28.8272 40.7464 28.7003 42.043 28.4326L41.6131 27.4672C41.1973 26.8471 40.6055 25.9592 40.3729 25.5716C40.084 25.0925 38.2589 24.6133 36.751 24.6133L34.5947 25.5575L34.644 25.6773C33.6998 26.0649 32.5723 27.3826 31.9099 28.2705C31.7197 28.5171 31.5787 28.7285 31.4801 28.8765C30.9445 29.6798 31.4519 36.811 31.4519 36.811C31.9099 37.2267 27.2239 41.0248 24.0882 43.6109L24.0036 43.5123L20.7693 43.8294C20.7693 43.8294 17.6476 48.6915 17.8942 49.1778C18.1409 49.6569 17.0205 53.0675 17.8942 55.4774C18.768 57.8874 20.1421 58.6907 20.7693 59.1487C21.0159 59.3319 21.2555 59.2967 21.4598 59.1487L21.2625 60.5792C18.8666 60.1634 12.567 56.8092 12.0174 56.8092C11.3902 56.8092 11.3902 55.562 10.7701 53.6876C10.5024 52.8772 10.6926 50.8901 11.0167 48.7972C11.0167 48.7972 7.02835 63.6867 7.6555 64.941C8.11353 65.8571 15.3082 67.6821 19.0992 68.5911C20.4733 68.9153 21.4034 69.1196 21.4034 69.1196L22.0306 67.4355C22.0306 67.4355 25.7794 68.0626 26.9139 67.6821L26.8928 67.6962Z" fill="#E19EA6"/>
<path d="M22.5515 13.8056C22.8475 14.7357 24.9263 14.7216 24.9051 13.6928C24.7994 12.657 22.3542 12.7134 22.5234 13.714L22.5515 13.8056Z" fill="#4F4131"/>
<path d="M29.0978 13.8475C29.88 14.4254 31.557 13.1852 30.9299 12.3678C30.2323 11.5926 28.3015 13.0865 29.0273 13.7841L29.1048 13.8475H29.0978Z" fill="#4F4131"/>
<path d="M31.3813 9.95703C31.3813 10.5842 32.6285 11.8314 32.6285 14.333C32.6285 16.0735 32.9316 17.8915 32.692 19.3361C32.5933 19.9703 32.389 20.5269 32.0014 20.9779C30.7542 22.4577 28.8798 23.0848 27.6255 23.712C27.3788 23.8388 27.2027 24.015 27.0899 24.2123C26.6037 25.0156 27.0054 26.2136 27.0054 26.2136C27.0054 26.2136 27.5339 27.1014 28.0342 28.1161C28.4711 29.011 28.8798 30.0046 28.8798 30.5824" stroke="#4F4131" stroke-linecap="round" stroke-linejoin="round"/>
<path d="M25.1378 28.7091C26.385 29.3362 28.041 28.1172 28.041 28.1172" stroke="#4F4131" stroke-linecap="round" stroke-linejoin="round"/>
<path d="M18.8877 22.457C19.3246 22.6755 20.0716 22.9714 20.8467 23.2604C22.3054 23.8029 23.8838 24.3314 23.8838 24.3314" stroke="#4F4131" stroke-linecap="round" stroke-linejoin="round"/>
<path d="M21.3817 24.332C22.629 24.9592 25.1305 30.5824 25.1305 30.5824C25.1305 30.5824 26.7865 34.4228 26.5821 35.6277" stroke="#4F4131" stroke-linecap="round" stroke-linejoin="round"/>
<path d="M26.85 40.9766C27.0051 39.3348 26.85 36.8262 26.85 36.8262" stroke="#4F4131" stroke-linecap="round" stroke-linejoin="round"/>
<path d="M20.7619 27.4609C22.0092 29.3353 23.4819 33.8029 23.9963 35.6279C24.5107 37.4601 24.5107 39.3345 24.5107 39.3345" stroke="#4F4131" stroke-linecap="round" stroke-linejoin="round"/>
<path d="M19.7193 24.1758C18.8878 25.2187 18.8878 26.0572 18.8878 26.0572C18.8878 26.0572 14.5118 28.0796 13.8847 29.3339C13.2575 30.5882 12.0103 41.2074 12.0103 42.4547C12.0103 43.1593 11.4113 46.0766 11.0026 48.8107C10.6855 50.9035 10.4882 52.8907 10.756 53.701C11.3831 55.5754 11.3831 56.8227 12.0032 56.8227C12.5529 56.8227 18.8525 60.1769 21.2484 60.5926C21.5866 60.649 21.8474 60.649 22.0024 60.5715C23.2496 59.9443 25.124 54.293 25.124 54.293" stroke="#4F4131" stroke-linecap="round" stroke-linejoin="round"/>
<path d="M20.1348 23.7129C19.9795 23.8681 19.8384 24.0234 19.7185 24.1786" stroke="#4F4131" stroke-linecap="round" stroke-linejoin="round"/>
<path d="M22.009 58.0786C22.009 58.4591 21.7764 58.9453 21.4523 59.1638C21.2479 59.3047 21.0013 59.3399 20.7617 59.1638C20.1346 58.7057 18.7605 57.9095 17.8867 55.4925C17.0129 53.0825 18.1333 49.672 17.8867 49.1928C17.6401 48.7066 20.7617 43.8444 20.7617 43.8444L23.9961 43.5273" stroke="#4F4131" stroke-linecap="round" stroke-linejoin="round"/>
<path d="M22.6357 41.2936C20.7613 40.5819 16.3854 42.4563 16.3854 43.0834" stroke="#4F4131" stroke-linecap="round" stroke-linejoin="round"/>
<path d="M24.5107 40.5755C22.6363 39.9554 16.689 38.8984 16.689 38.8984" stroke="#4F4131" stroke-linecap="round" stroke-linejoin="round"/>
<path d="M18.8878 32.6738C20.1351 33.0825 23.3906 39.3329 23.3906 39.3329" stroke="#4F4131" stroke-linecap="round" stroke-linejoin="round"/>
<path d="M21.3822 46C21.3822 45.859 22.5448 44.8866 24.081 43.6252C27.2097 41.0391 31.8957 37.241 31.4447 36.8253C31.4447 36.8253 30.9374 29.6871 31.4729 28.8908C31.5716 28.7428 31.7195 28.5314 31.9028 28.2848C32.5651 27.3969 33.6926 26.0792 34.6368 25.6916C34.806 25.6212 34.9751 25.5859 35.1301 25.5859C36.3774 25.5859 39.3369 26.6993 39.3369 26.6993" stroke="#4F4131" stroke-linecap="round" stroke-linejoin="round"/>
<path d="M38.1455 27.4602C37.6311 27.4602 35.8554 26.8965 34.5518 28.1156" stroke="#4F4131" stroke-linecap="round" stroke-linejoin="round"/>
<path d="M38.4629 28.5049C36.3841 28.0891 34.6014 29.9635 34.552 30.5836" stroke="#4F4131" stroke-linecap="round" stroke-linejoin="round"/>
<path d="M39.3369 28.5039C37.6316 29.3354 35.264 29.9625 35.5106 30.5826" stroke="#4F4131" stroke-linecap="round" stroke-linejoin="round"/>
<path d="M36.8706 32.6738C36.934 33.153 37.0186 33.9915 37.0186 34.8371C37.0186 35.5559 36.9551 36.2817 36.7578 36.7961C36.6874 36.9652 36.6098 37.1132 36.5112 37.2259C35.7642 38.0856 35.2287 38.297 34.5522 38.5014C34.3056 38.5789 33.4389 40.0305 32.396 41.8908C30.6555 44.9772 28.4146 49.177 27.6325 49.9591C27.3929 50.1987 27.1392 50.4736 26.8714 50.7625C25.6806 52.045 24.1585 53.6938 22.6364 53.9828C20.762 54.3351 19.5148 52.5453 19.5148 52.5453V48.874" stroke="#4F4131" stroke-linecap="round" stroke-linejoin="round"/>
<path d="M28.2666 50.7088V50.7793C28.2525 52.8157 28.0059 67.3317 26.8925 67.7052C25.758 68.0857 22.0093 67.4586 22.0093 67.4586L21.3821 69.1427C21.3821 69.1427 20.4519 68.9384 19.0778 68.6142C15.2868 67.7052 8.09219 65.8801 7.63416 64.9641C7.00702 63.7168 10.9954 48.8203 10.9954 48.8203" stroke="#4F4131" stroke-linecap="round" stroke-linejoin="round"/>
<path d="M22.6357 61.4824C22.6357 63.082 22.0086 65.5836 22.0086 65.5836" stroke="#4F4131" stroke-linecap="round" stroke-linejoin="round"/>
<path d="M41.6203 27.4746C41.8667 27.8408 42.0498 28.1084 42.0498 28.1084" stroke="#4F4131" stroke-linecap="round" stroke-linejoin="round"/>
<path d="M36.7512 24.6289C38.2662 24.6289 40.0913 25.101 40.3731 25.5872C40.6127 25.9748 41.2046 26.8627 41.6133 27.4757" stroke="#4F4131" stroke-linecap="round" stroke-linejoin="round"/>
<path d="M35.4959 24.7769C35.8482 24.6712 36.2851 24.6289 36.7432 24.6289" stroke="#4F4131" stroke-linecap="round" stroke-linejoin="round"/>
<path d="M40.5415 28.8908C40.6894 28.8767 40.8797 28.8626 41.0911 28.8344C42.9725 28.5878 47.0878 27.7211 50.7168 26.9389C54.0568 26.2201 56.9811 25.5859 57.3758 25.5859C58.2566 25.5859 64.1053 31.0259 63.9925 32.6819C63.8798 34.3378 63.2527 43.0897 61.3783 44.337C59.5039 45.5842 56.3752 46.8385 53.2535 46.2113C52.7673 46.1127 52.0345 45.8167 51.1466 45.3869C48.3491 44.034 43.9943 41.3351 40.8656 39.3339C38.6318 37.9105 37.0252 36.8253 37.0252 36.8253" stroke="#4F4131" stroke-linecap="round" stroke-linejoin="round"/>
<path d="M56.3408 27.7227C55.1359 28.082 50.8938 31.3869 50.5133 33.7968C50.1398 36.2068 48.5825 37.6231 51.2391 40.9773C53.8886 44.3315 54.5157 44.3315 54.5157 44.3315" stroke="#4F4131" stroke-linecap="round" stroke-linejoin="round"/>
<path d="M56.0162 28.8906C57.0098 29.9617 59.8637 30.8003 59.6875 34.1333C59.5043 37.4593 59.9553 38.6924 58.1655 40.5739C56.3756 42.4553 54.5012 42.4553 54.5012 42.4553" stroke="#4F4131" stroke-linecap="round" stroke-linejoin="round"/>
<path d="M51.2317 28.1172C51.1613 28.1524 51.0837 28.2017 50.9921 28.244C49.6744 28.9487 46.3414 30.7597 46.3625 33.4021C46.3837 36.2137 46.0736 37.0241 47.4829 39.7441C48.8852 42.4641 51.5488 44.3385 51.5488 44.3385" stroke="#4F4131" stroke-linecap="round" stroke-linejoin="round"/>
<path d="M28.8871 26.043C30.1203 26.8533 31.29 28.1147 31.29 28.1147" stroke="#4F4131" stroke-linecap="round" stroke-linejoin="round"/>
<path d="M28.0421 25.5859C28.3097 25.6986 28.5914 25.8606 28.873 26.0437" stroke="#4F4131" stroke-linecap="round" stroke-linejoin="round"/>
<path d="M40.9362 40.5742C41.0137 40.7927 41.1547 41.1661 41.3379 41.6523C41.7889 42.8714 42.4794 44.7599 42.9234 46.3736C43.2827 47.7124 43.4871 48.8681 43.2545 49.3261C42.6274 50.5734 40.753 52.4478 40.1329 52.4478C39.5128 52.4478 37.0254 50.4606 37.0254 50.4606" stroke="#4F4131" stroke-linecap="round" stroke-linejoin="round"/>
<path d="M36.3489 38.418C36.3771 41.8285 37.0254 53.1806 37.0254 53.1806" stroke="#4F4131" stroke-linecap="round" stroke-linejoin="round"/>
<path d="M44.6708 50.3621C44.7836 53.0258 43.8887 59.2831 43.8887 59.2831L42.0495 60.1217C42.0495 60.1217 41.7747 60.0794 41.3378 59.9948C39.9073 59.7271 36.7152 59.0295 35.7569 58.0782C35.2847 57.6061 34.7351 55.1609 34.2419 52.3211C33.4386 47.7267 32.7832 42.1035 32.7832 42.1035" stroke="#4F4131" stroke-linecap="round" stroke-linejoin="round"/>
<path d="M44.5088 49.334C44.6004 49.5242 44.6498 49.8766 44.6709 50.3557" stroke="#4F4131" stroke-linecap="round" stroke-linejoin="round"/>
<path d="M34.4254 69.3317H34.9468C35.7501 69.3317 37.0185 67.6264 37.0185 67.6264L41.3311 65.5829V60.002" stroke="#4F4131" stroke-linecap="round" stroke-linejoin="round"/>
<path d="M33.5162 52.4551L34.3618 66.809L34.5098 69.3317" stroke="#4F4131" stroke-linecap="round" stroke-linejoin="round"/>
<path d="M37.4201 60.1211C37.6315 61.1992 37.0255 66.2657 37.0255 66.2657" stroke="#4F4131" stroke-linecap="round" stroke-linejoin="round"/>
<path d="M33.5166 65.584C32.0086 66.2111 29.2886 65.584 29.2886 65.584" stroke="#4F4131" stroke-linecap="round" stroke-linejoin="round"/>
<path d="M30.416 81.911C29.5493 76.5767 28.6121 70.9324 28.2598 70.5801" stroke="#4F4131" stroke-linecap="round" stroke-linejoin="round"/>
<path d="M18.8943 69.332C18.8943 70.7414 20.2966 76.4068 21.3958 80.3177C21.7623 81.6143 22.0935 82.7206 22.326 83.4182C22.7417 84.6655 23.7988 88.3508 24.8557 92.1208C26.1523 96.7786 27.4419 101.584 27.5123 102.113C27.6392 103.078 30.1689 115.572 30.1689 115.572H35.1367C34.5096 114.945 33.8895 113.07 33.8895 112.45C33.8895 111.83 32.6422 93.6992 32.0151 91.2047C31.7403 90.1054 31.1061 86.103 30.4225 81.9173" stroke="#4F4131" stroke-linecap="round" stroke-linejoin="round"/>
<path d="M36.349 116.291C38.2516 116.826 41.3803 117.453 43.2547 117.453C45.1291 117.453 50.1322 116.826 48.8779 118.08C47.6306 119.328 42.0004 122.456 40.7532 122.456C39.5059 122.456 30.754 121.209 30.1269 121.209C30.0634 121.209 30.0141 121.153 29.9789 121.047C29.6266 120.138 30.1621 115.586 30.1621 115.586C30.1621 115.586 32.0083 118.087 33.8827 117.46C35.7571 116.833 36.349 116.298 36.349 116.298V116.291Z" stroke="#4F4131" stroke-linecap="round" stroke-linejoin="round"/>
<path d="M36.3496 116.29L35.1376 115.578" stroke="#4F4131" stroke-linecap="round" stroke-linejoin="round"/>
<path d="M31.2266 79.7891C31.0716 80.1482 30.9167 80.4228 30.7548 80.5848" stroke="#4F4131" stroke-linecap="round" stroke-linejoin="round"/>
<path d="M33.5166 68.627C33.4884 68.8736 33.432 69.2189 33.3757 69.6487C33.0374 72.0516 32.2623 76.9208 31.4097 79.3237" stroke="#4F4131" stroke-linecap="round" stroke-linejoin="round"/>
<path d="M20.388 83.4821C20.5219 82.855 20.6488 82.2983 20.7686 81.8262" stroke="#4F4131" stroke-linecap="round" stroke-linejoin="round"/>
<path d="M24.0459 94.3193C22.9607 97.913 21.9319 105.65 21.3823 106.2C21.1568 106.425 20.3394 105.953 19.3881 105.263C18.3523 104.516 17.1473 103.494 16.3792 102.817C15.9 102.402 15.5829 102.113 15.5829 102.113C17.1332 101.246 19.0851 89.4571 20.3676 83.5098" stroke="#4F4131" stroke-linecap="round" stroke-linejoin="round"/>
<path d="M24.5107 93.0781C24.5107 93.0781 24.4825 93.1204 24.4825 93.1486C24.3416 93.4375 24.2077 93.818 24.0668 94.2619" stroke="#4F4131" stroke-linecap="round" stroke-linejoin="round"/>
<path d="M18.8952 110.119C18.8952 110.119 19.008 110.887 19.2264 111.908C19.5294 113.332 20.0509 115.249 20.7767 116.291C21.9394 117.968 25.8502 120.266 26.3364 121.069C26.3646 121.118 26.3857 121.168 26.3857 121.21C26.3857 121.837 26.3857 123.084 25.1385 123.084C23.8912 123.084 16.3866 119.145 15.1394 117.68C13.8921 116.214 12.0177 114.34 11.3906 113.085C10.7634 111.831 15.1746 107.328 15.1746 107.328C15.1746 107.328 16.2105 110.09 17.5564 110.337" stroke="#4F4131" stroke-linecap="round" stroke-linejoin="round"/>
<path d="M19.3877 105.262L18.979 108.658L18.8944 109.37" stroke="#4F4131" stroke-linecap="round" stroke-linejoin="round"/>
<path d="M16.3857 103.705C16.2096 103.881 16.0334 104.241 15.8784 104.67C15.4697 105.777 15.1667 107.32 15.1667 107.32" stroke="#4F4131" stroke-linecap="round" stroke-linejoin="round"/>
<path d="M24.5107 6.42773C24.5107 6.47706 24.5107 6.57572 24.4896 6.71665C24.4896 6.74483 24.4896 6.77302 24.4896 6.80826C24.3909 7.82297 24.0245 10.395 23.3903 11.0574C22.6434 11.8325 19.5147 13.9253 19.5147 13.9253" stroke="#4F4131" stroke-linecap="round" stroke-linejoin="round"/>
<path d="M23.3828 6.75C22.6359 8.08885 23.3828 9.96325 21.1349 11.5276C18.8871 13.0919 16.6885 13.3809 16.6885 13.3809C16.6885 13.3809 18.8871 14.8606 18.8871 15.8472C18.8871 16.6575 19.2324 20.5543 18.873 22.4639C18.7955 22.8938 18.6827 23.225 18.5136 23.4011C17.6328 24.3383 16.5969 25.5856 14.9269 25.5856C13.2568 25.5856 12.214 24.6273 12.214 24.6273C12.214 24.6273 13.2357 24.7682 13.9474 24.5286C14.3491 24.4018 14.6451 24.1622 14.6098 23.7112C14.5112 22.4639 15.7584 19.9624 15.1313 18.7081C14.5041 17.4608 13.729 16.1643 13.729 16.1643" stroke="#4F4131" stroke-linecap="round" stroke-linejoin="round"/>
<path d="M25.1383 6.75C26.3855 8.08885 26.3855 8.70897 28.8871 9.33611L31.3887 9.96325" stroke="#4F4131" stroke-linecap="round" stroke-linejoin="round"/>
<path d="M18.8882 1.48709C19.1489 1.39548 19.4378 1.31797 19.7479 1.24751C22.3833 0.711965 26.3928 1.21228 26.3928 1.21228C26.3928 1.21228 31.706 2.67798 32.7982 4.75672C33.8904 6.83547 34.5176 8.70987 33.8904 9.33702C33.2633 9.96416 34.6162 15.3619 35.5041 16.7219C36.3919 18.0819 38.4707 22.0632 38.4707 22.0632C38.4707 22.0632 36.3497 22.9229 35.1236 22.0632C33.8975 21.2035 32.7982 19.3502 32.7982 19.3502" stroke="#4F4131" stroke-linecap="round" stroke-linejoin="round"/>
<path d="M17.4853 1.55664C17.4853 1.55664 17.5277 1.55664 17.5488 1.55664" stroke="#4F4131" stroke-linecap="round" stroke-linejoin="round"/>
<path d="M13.8912 24.3322C13.8912 24.3322 10.7625 23.7051 10.1354 23.085C9.50823 22.4649 9.50822 21.8377 9.50822 21.8377C9.50822 21.8377 10.7626 22.7467 11.6997 21.3515C12.6299 19.9633 11.6997 15.3689 11.6997 15.3689C11.6997 15.3689 10.5018 14.777 10.6287 13.9314C10.7555 13.0858 10.5441 9.81621 12.2071 7.38513C13.6657 5.27115 15.6177 2.20586 16.9847 1.64213C17.1609 1.56462 17.3229 1.53644 17.4639 1.55758" stroke="#4F4131" stroke-linecap="round" stroke-linejoin="round"/>
<path d="M28.8872 15.5879C29.5144 16.215 30.1345 17.5962 28.8872 17.8428" stroke="#4F4131" stroke-linecap="round" stroke-linejoin="round"/>
<path d="M30.1338 19.3359H25.1307C24.5036 19.3359 24.5036 20.4422 24.5036 21.1328C24.5036 21.8234 26.3779 23.0847 26.3779 23.0847" stroke="#4F4131" stroke-linecap="round" stroke-linejoin="round"/>
<path d="M28.2596 21.8375C28.8868 21.2103 29.5068 19.3359 29.5068 19.3359" stroke="#4F4131" stroke-linecap="round" stroke-linejoin="round"/>
<path d="M22.5302 13.714C22.3611 12.7134 24.8063 12.657 24.9119 13.6928C24.9331 14.7216 22.8473 14.7357 22.5584 13.8056L22.5302 13.714Z" stroke="#4F4131" stroke-linecap="round" stroke-linejoin="round"/>
<path d="M29.0205 13.7841C28.2947 13.0865 30.2254 11.5926 30.923 12.3678C31.5502 13.1852 29.8731 14.4324 29.0909 13.8475L29.0134 13.7841H29.0205Z" stroke="#4F4131" stroke-linecap="round" stroke-linejoin="round"/>
</svg>
