<svg width="58" height="124" viewBox="0 0 58 124" fill="none" xmlns="http://www.w3.org/2000/svg">
<path d="M56.9929 32.676C57.1057 31.0201 51.257 25.5801 50.3762 25.5801C49.9745 25.5801 47.0502 26.2143 43.7172 26.933L43.999 28.2296C42.6813 28.9343 39.3482 30.7453 39.3694 33.3877C39.3905 36.1993 39.0805 37.0097 40.4898 39.7297C41.8921 42.4497 44.5557 44.3241 44.5557 44.3241L44.1541 45.374C45.0419 45.8038 45.7748 46.0998 46.261 46.1985C49.3826 46.8256 52.5113 45.5713 54.3857 44.3241C56.2601 43.0768 56.8873 34.3249 57 32.669L56.9929 32.676Z" fill="#F5CF24"/>
<path d="M30.0256 29.9844V34.8395C30.0256 35.5582 29.9621 36.284 29.7648 36.7984L30.0326 36.8266C30.0326 36.8266 31.6463 37.9047 33.873 39.3352C37.0017 41.3364 41.3565 44.0282 44.154 45.3882L44.5557 44.3383C44.5557 44.3383 41.885 42.4639 40.4898 39.7439C39.0804 37.0239 39.3905 36.2136 39.3693 33.402C39.3482 30.7665 42.6812 28.9555 43.999 28.2438L43.7171 26.9473C40.0881 27.7294 35.9729 28.5962 34.0914 28.8428C33.88 28.871 33.6898 28.8851 33.5418 28.8992L33.5066 28.8005L30.0326 29.9914L30.0256 29.9844Z" fill="#F5CF24"/>
<path d="M7.92667 25.5861C9.59672 25.5861 10.6326 24.3388 11.5134 23.4016C11.6755 23.2254 11.7953 22.8943 11.8728 22.4644C12.2322 20.5548 11.8869 16.658 11.8869 15.8476C11.8869 14.8611 9.68833 13.3813 9.68833 13.3813C9.68833 13.3813 11.8869 13.0924 14.1347 11.5281C16.3826 9.96373 15.6357 8.08933 16.3826 6.75047L17.4819 6.81391C17.4819 6.77868 17.4819 6.74344 17.4819 6.7223L18.1231 6.75047C19.3704 8.08933 19.3704 8.70944 21.8719 9.33659L24.3735 9.96373C24.3735 10.5909 25.6207 11.8381 25.6207 14.3397C25.6207 16.0802 25.9237 17.8982 25.6841 19.3428L25.7757 19.3639C25.7757 19.3639 26.8679 21.2172 28.1011 22.0768C29.3343 22.9365 31.4482 22.0768 31.4482 22.0768C31.4482 22.0768 29.3695 18.0955 28.4816 16.7355C27.5938 15.3755 26.2408 9.97077 26.8679 9.35067C27.4951 8.73057 26.868 6.84913 25.7757 4.77038C24.6835 2.69163 19.3704 1.22594 19.3704 1.22594C19.3704 1.22594 15.3679 0.725643 12.7254 1.26119L12.7113 1.17663L10.4705 1.57124H10.4564L9.97726 1.65579C8.61727 2.21952 6.65829 5.28479 5.19964 7.39877C3.5296 9.82985 3.741 13.0995 3.62121 13.9451C3.48732 14.7907 4.69231 15.3826 4.69231 15.3826C4.69231 15.3826 5.62246 19.977 4.69231 21.3651C3.75511 22.7604 2.50082 21.8514 2.50082 21.8514C2.50082 21.8514 2.50079 22.4785 3.12794 23.0986C3.75509 23.7187 6.88379 24.3458 6.88379 24.3458L6.94018 24.5361C6.23552 24.7757 5.2067 24.6348 5.2067 24.6348C5.2067 24.6348 6.24957 25.5931 7.91962 25.5931L7.92667 25.5861Z" fill="#E19EA6"/>
<path d="M23.1629 115.577C23.1629 115.577 22.6345 120.129 22.9798 121.038C23.015 121.144 23.0643 121.201 23.1277 121.201C23.7549 121.201 32.4997 122.448 33.754 122.448C35.0083 122.448 40.6315 119.326 41.8787 118.072C43.126 116.825 38.1299 117.445 36.2555 117.445C34.3811 117.445 31.2525 116.818 29.3499 116.282C29.3499 116.282 28.758 116.818 26.8836 117.445C25.0092 118.072 23.1629 115.57 23.1629 115.57V115.577Z" fill="#E19EA6"/>
<path d="M26.8833 117.453C28.7577 116.825 29.3496 116.29 29.3496 116.29L28.1306 115.578H23.1627C23.1627 115.578 25.0089 118.08 26.8833 117.453Z" fill="#E19EA6"/>
<path d="M12.3879 111.873L11.9722 108.66L12.3879 105.264C11.3521 104.517 10.1471 103.495 9.37901 102.818L8.77302 104.636L8.87168 104.665C8.46298 105.771 8.15996 107.314 8.15996 107.314C8.15996 107.314 3.75584 111.817 4.37594 113.071C4.99604 114.325 6.87749 116.193 8.12474 117.666C9.37199 119.131 16.8766 123.07 18.1239 123.07C19.3711 123.07 19.3711 121.823 19.3711 121.196C19.3711 121.161 19.35 121.111 19.3218 121.055C18.8356 120.252 14.9247 117.954 13.762 116.277C13.0362 115.242 12.5218 113.325 12.2118 111.894L12.3809 111.859L12.3879 111.873Z" fill="#E19EA6"/>
<path d="M9.3862 102.824C10.1543 103.501 11.3522 104.515 12.3951 105.269C13.3464 105.96 14.1638 106.432 14.3893 106.206C14.9389 105.657 15.9607 97.9196 17.0529 94.3258L17.0741 94.2624C17.215 93.8185 17.3489 93.438 17.4898 93.149L17.8633 92.1273C16.8063 88.3503 15.7493 84.672 15.3335 83.4247C15.101 82.7342 14.7698 81.6278 14.4034 80.3242C14.4034 80.5708 13.5085 83.164 13.4028 83.4882C13.4028 83.5093 13.3887 83.5163 13.3887 83.5163C12.0991 89.4637 10.1543 101.253 8.60403 102.119C8.60403 102.119 8.91409 102.408 9.4003 102.824H9.3862Z" fill="#E19EA6"/>
<path d="M33.8733 39.3356C31.6395 37.9122 30.0328 36.827 30.0328 36.827L29.7651 36.7988C29.6946 36.9679 29.6171 37.1159 29.5185 37.2287C28.7715 38.0883 28.236 38.2997 27.5595 38.5041C27.3129 38.5816 26.4462 40.0332 25.4033 41.8935L25.7979 42.112C25.7979 42.112 26.4532 47.7352 27.2565 52.3296C27.7427 55.1693 28.2923 57.6074 28.7715 58.0866C29.7299 59.045 32.922 59.7355 34.3524 60.0033C34.7893 60.0879 35.0641 60.1301 35.0641 60.1301L36.9033 59.2916C36.9033 59.2916 37.7982 53.0272 37.6855 50.3706V50.3565L35.945 46.3822C35.501 44.7615 34.8105 42.873 34.3595 41.661L33.8874 39.3426L33.8733 39.3356Z" fill="#E19EA6"/>
<path d="M34.3379 65.5828V60.0019C32.9074 59.7341 29.7153 59.0365 28.7569 58.0852C28.2848 57.6131 27.7352 55.1679 27.242 52.3281L26.5091 52.462L27.3547 66.8089L27.5027 69.3316H27.9466C28.7499 69.3316 30.0183 67.6263 30.0183 67.6263L34.3308 65.5828H34.3379Z" fill="#E19EA6"/>
<path d="M21.2665 50.7783C21.2524 52.8148 21.0058 67.3308 19.8924 67.7043C18.7579 68.0848 15.0091 67.4577 15.0091 67.4577L14.382 69.1418C14.382 69.1418 13.4518 68.9374 12.0777 68.6133L11.8874 69.3391C11.8874 70.7484 13.2897 76.4139 14.389 80.3247C14.7554 81.6213 15.0866 82.7276 15.3191 83.4252C15.7349 84.6725 16.7919 88.3579 17.8489 92.1278C19.1454 96.7856 20.435 101.591 20.5055 102.12C20.6323 103.085 23.162 115.579 23.162 115.579H28.1299C27.5027 114.952 26.8826 113.077 26.8826 112.457C26.8826 111.837 25.6353 93.7063 25.0082 91.2118C24.7334 90.1125 24.0992 86.11 23.4157 81.9243L24.226 79.7962L24.4022 79.3382C25.2619 76.9353 26.03 72.0661 26.3682 69.6632L26.8756 66.8376L27.3477 66.8094L26.5021 52.4625L27.235 52.3286C26.4316 47.7342 25.7763 42.111 25.7763 42.111L25.3817 41.8926C23.6412 44.979 21.4004 49.1788 20.6182 49.9609C20.3786 50.2005 20.1249 50.4753 19.8571 50.7642L21.2524 50.7783H21.2665Z" fill="#E19EA6"/>
<path d="M22.0203 13.7838C21.2945 13.0862 23.2253 11.5923 23.9229 12.3674C24.5501 13.1848 22.873 14.4321 22.0908 13.8472L22.0133 13.7838H22.0203ZM15.5305 13.7133C15.3613 12.7127 17.8065 12.6563 17.9122 13.6922C17.9333 14.721 15.8475 14.7351 15.5586 13.8049L15.5305 13.7133ZM9.68174 13.3751C9.68174 13.3751 11.8803 14.8549 11.8803 15.8414C11.8803 16.6518 12.2256 20.5485 11.8662 22.4581H11.8803C12.3172 22.6766 13.0641 22.9726 13.8393 23.2615L12.7118 24.1705C11.8803 25.2204 11.8803 26.059 11.8803 26.059C11.8803 26.059 7.50435 28.0813 6.8772 29.3356C6.25006 30.5899 5.00282 41.2092 5.00282 42.4564C5.00282 43.1611 4.40387 46.0784 3.99516 48.8124C3.67807 50.9053 3.48074 52.8924 3.74851 53.7028C4.37566 55.5772 4.37567 56.8244 4.99577 56.8244C5.54541 56.8244 11.8451 60.1786 14.2409 60.5944L14.4382 59.1639C14.2338 59.3048 13.9872 59.3401 13.7476 59.1639C13.1205 58.7059 11.7464 57.9096 10.8726 55.4926C9.99884 53.0827 11.1192 49.6721 10.8726 49.193C10.626 48.7068 13.7476 43.8446 13.7476 43.8446L16.9821 43.5275L17.0666 43.6262C20.1953 41.0401 24.8813 37.2419 24.4303 36.8262C24.4303 36.8262 23.9229 29.688 24.4585 28.8917C24.5571 28.7437 24.7051 28.5323 24.8883 28.2857L24.2612 28.1166C24.2612 28.1166 23.0914 26.8623 21.8583 26.0449H21.8442L20.294 24.3326L20.0685 24.2057C20.1812 24.0084 20.3573 23.8322 20.604 23.7054C21.8512 23.0782 23.7256 22.4582 24.9799 20.9713C25.3604 20.5203 25.5648 19.9566 25.6705 19.3295C25.9101 17.8849 25.6071 16.0669 25.6071 14.3264C25.6071 11.8248 24.3598 10.5776 24.3598 9.95043L21.8583 9.32329C19.3567 8.69614 19.3567 8.07603 18.1095 6.73718L17.4683 6.70898C17.4683 6.70898 17.4683 6.76536 17.4683 6.80059L16.369 6.73718C15.6221 8.07603 16.369 9.95043 14.1211 11.5148C11.8733 13.0791 9.67473 13.368 9.67473 13.368L9.68174 13.3751Z" fill="#E19EA6"/>
<path d="M19.8928 67.6962C21.0061 67.3298 21.2527 52.8067 21.2668 50.7703L19.8716 50.7562C20.1394 50.4602 20.3931 50.1854 20.6327 49.9529C21.4148 49.1707 23.6557 44.9709 25.3962 41.8845C26.4391 40.0313 27.2987 38.5726 27.5524 38.4951C28.2289 38.2907 28.7574 38.0794 29.5114 37.2197C29.61 37.1069 29.6946 36.9589 29.758 36.7898C29.9553 36.2754 30.0187 35.5496 30.0187 34.8309V29.9758L33.4927 28.7849L33.5279 28.8835C33.6759 28.8694 33.8662 28.8553 34.0776 28.8272C34.0776 28.8272 33.7464 28.7003 35.043 28.4326L34.6131 27.4672C34.1973 26.8471 33.6055 25.9592 33.3729 25.5716C33.084 25.0925 31.2589 24.6133 29.751 24.6133L27.5947 25.5575L27.644 25.6773C26.6998 26.0649 25.5723 27.3826 24.9099 28.2705C24.7197 28.5171 24.5787 28.7285 24.4801 28.8765C23.9445 29.6798 24.4519 36.811 24.4519 36.811C24.9099 37.2267 20.2239 41.0248 17.0882 43.6109L17.0036 43.5123L13.7693 43.8294C13.7693 43.8294 10.6476 48.6915 10.8942 49.1778C11.1409 49.6569 10.0205 53.0675 10.8942 55.4774C11.768 57.8874 13.1421 58.6907 13.7693 59.1487C14.0159 59.3319 14.2555 59.2967 14.4598 59.1487L14.2625 60.5792C11.8666 60.1634 5.56699 56.8092 5.01735 56.8092C4.39021 56.8092 4.39023 55.562 3.77013 53.6876C3.50236 52.8772 3.6926 50.8901 4.01675 48.7972C4.01675 48.7972 0.0283546 63.6867 0.655502 64.941C1.11353 65.8571 8.30815 67.6821 12.0992 68.5911C13.4733 68.9153 14.4034 69.1196 14.4034 69.1196L15.0306 67.4355C15.0306 67.4355 18.7794 68.0626 19.9139 67.6821L19.8928 67.6962Z" fill="#E19EA6"/>
<path d="M15.5515 13.8056C15.8475 14.7357 17.9263 14.7216 17.9051 13.6928C17.7994 12.657 15.3542 12.7134 15.5234 13.714L15.5515 13.8056Z" fill="#4F4131"/>
<path d="M22.0978 13.8475C22.88 14.4254 24.557 13.1852 23.9299 12.3678C23.2323 11.5926 21.3015 13.0865 22.0273 13.7841L22.1048 13.8475H22.0978Z" fill="#4F4131"/>
<path d="M24.3813 9.95703C24.3813 10.5842 25.6285 11.8314 25.6285 14.333C25.6285 16.0735 25.9316 17.8915 25.692 19.3361C25.5933 19.9703 25.389 20.5269 25.0014 20.9779C23.7542 22.4577 21.8798 23.0848 20.6255 23.712C20.3788 23.8388 20.2027 24.015 20.0899 24.2123C19.6037 25.0156 20.0054 26.2136 20.0054 26.2136C20.0054 26.2136 20.5339 27.1014 21.0342 28.1161C21.4711 29.011 21.8798 30.0046 21.8798 30.5824" stroke="#4F4131" stroke-linecap="round" stroke-linejoin="round"/>
<path d="M18.1378 28.7091C19.385 29.3362 21.041 28.1172 21.041 28.1172" stroke="#4F4131" stroke-linecap="round" stroke-linejoin="round"/>
<path d="M11.8877 22.457C12.3246 22.6755 13.0716 22.9714 13.8467 23.2604C15.3054 23.8029 16.8838 24.3314 16.8838 24.3314" stroke="#4F4131" stroke-linecap="round" stroke-linejoin="round"/>
<path d="M14.3817 24.332C15.629 24.9592 18.1305 30.5824 18.1305 30.5824C18.1305 30.5824 19.7865 34.4228 19.5821 35.6277" stroke="#4F4131" stroke-linecap="round" stroke-linejoin="round"/>
<path d="M19.85 40.9766C20.0051 39.3348 19.85 36.8262 19.85 36.8262" stroke="#4F4131" stroke-linecap="round" stroke-linejoin="round"/>
<path d="M13.7619 27.4609C15.0092 29.3353 16.4819 33.8029 16.9963 35.6279C17.5107 37.4601 17.5107 39.3345 17.5107 39.3345" stroke="#4F4131" stroke-linecap="round" stroke-linejoin="round"/>
<path d="M12.7193 24.1758C11.8878 25.2187 11.8878 26.0572 11.8878 26.0572C11.8878 26.0572 7.51183 28.0796 6.88468 29.3339C6.25753 30.5882 5.0103 41.2074 5.0103 42.4547C5.0103 43.1593 4.4113 46.0766 4.0026 48.8107C3.6855 50.9035 3.48822 52.8907 3.75599 53.701C4.38314 55.5754 4.38315 56.8227 5.00325 56.8227C5.55289 56.8227 11.8525 60.1769 14.2484 60.5926C14.5866 60.649 14.8474 60.649 15.0024 60.5715C16.2496 59.9443 18.124 54.293 18.124 54.293" stroke="#4F4131" stroke-linecap="round" stroke-linejoin="round"/>
<path d="M13.1348 23.7129C12.9795 23.8681 12.8384 24.0234 12.7185 24.1786" stroke="#4F4131" stroke-linecap="round" stroke-linejoin="round"/>
<path d="M15.009 58.0786C15.009 58.4591 14.7764 58.9453 14.4523 59.1638C14.2479 59.3047 14.0013 59.3399 13.7617 59.1638C13.1346 58.7057 11.7605 57.9095 10.8867 55.4925C10.0129 53.0825 11.1333 49.672 10.8867 49.1928C10.6401 48.7066 13.7617 43.8444 13.7617 43.8444L16.9961 43.5273" stroke="#4F4131" stroke-linecap="round" stroke-linejoin="round"/>
<path d="M15.6357 41.2936C13.7613 40.5819 9.38541 42.4563 9.38541 43.0834" stroke="#4F4131" stroke-linecap="round" stroke-linejoin="round"/>
<path d="M17.5107 40.5755C15.6363 39.9554 9.68899 38.8984 9.68899 38.8984" stroke="#4F4131" stroke-linecap="round" stroke-linejoin="round"/>
<path d="M11.8878 32.6738C13.1351 33.0825 16.3906 39.3329 16.3906 39.3329" stroke="#4F4131" stroke-linecap="round" stroke-linejoin="round"/>
<path d="M14.3822 46C14.3822 45.859 15.5448 44.8866 17.081 43.6252C20.2097 41.0391 24.8957 37.241 24.4447 36.8253C24.4447 36.8253 23.9374 29.6871 24.4729 28.8908C24.5716 28.7428 24.7195 28.5314 24.9028 28.2848C25.5651 27.3969 26.6926 26.0792 27.6368 25.6916C27.806 25.6212 27.9751 25.5859 28.1301 25.5859C29.3774 25.5859 32.3369 26.6993 32.3369 26.6993" stroke="#4F4131" stroke-linecap="round" stroke-linejoin="round"/>
<path d="M31.1455 27.4602C30.6311 27.4602 28.8554 26.8965 27.5518 28.1156" stroke="#4F4131" stroke-linecap="round" stroke-linejoin="round"/>
<path d="M31.4629 28.5049C29.3841 28.0891 27.6014 29.9635 27.552 30.5836" stroke="#4F4131" stroke-linecap="round" stroke-linejoin="round"/>
<path d="M32.3369 28.5039C30.6316 29.3354 28.264 29.9625 28.5106 30.5826" stroke="#4F4131" stroke-linecap="round" stroke-linejoin="round"/>
<path d="M29.8706 32.6738C29.934 33.153 30.0186 33.9915 30.0186 34.8371C30.0186 35.5559 29.9551 36.2817 29.7578 36.7961C29.6874 36.9652 29.6098 37.1132 29.5112 37.2259C28.7642 38.0856 28.2287 38.297 27.5522 38.5014C27.3056 38.5789 26.4389 40.0305 25.396 41.8908C23.6555 44.9772 21.4146 49.177 20.6325 49.9591C20.3929 50.1987 20.1392 50.4736 19.8714 50.7625C18.6806 52.045 17.1585 53.6938 15.6364 53.9828C13.762 54.3351 12.5148 52.5453 12.5148 52.5453V48.874" stroke="#4F4131" stroke-linecap="round" stroke-linejoin="round"/>
<path d="M21.2666 50.7088V50.7793C21.2525 52.8157 21.0059 67.3317 19.8925 67.7052C18.758 68.0857 15.0093 67.4586 15.0093 67.4586L14.3821 69.1427C14.3821 69.1427 13.4519 68.9384 12.0778 68.6142C8.28677 67.7052 1.09219 65.8801 0.634163 64.9641C0.0070156 63.7168 3.99541 48.8203 3.99541 48.8203" stroke="#4F4131" stroke-linecap="round" stroke-linejoin="round"/>
<path d="M15.6357 61.4824C15.6357 63.082 15.0086 65.5836 15.0086 65.5836" stroke="#4F4131" stroke-linecap="round" stroke-linejoin="round"/>
<path d="M34.6203 27.4746C34.8667 27.8408 35.0498 28.1084 35.0498 28.1084" stroke="#4F4131" stroke-linecap="round" stroke-linejoin="round"/>
<path d="M29.7512 24.6289C31.2662 24.6289 33.0913 25.101 33.3731 25.5872C33.6127 25.9748 34.2046 26.8627 34.6133 27.4757" stroke="#4F4131" stroke-linecap="round" stroke-linejoin="round"/>
<path d="M28.4959 24.7769C28.8482 24.6712 29.2851 24.6289 29.7432 24.6289" stroke="#4F4131" stroke-linecap="round" stroke-linejoin="round"/>
<path d="M33.5415 28.8908C33.6894 28.8767 33.8797 28.8626 34.0911 28.8344C35.9725 28.5878 40.0878 27.7211 43.7168 26.9389C47.0568 26.2201 49.9811 25.5859 50.3758 25.5859C51.2566 25.5859 57.1053 31.0259 56.9925 32.6819C56.8798 34.3378 56.2527 43.0897 54.3783 44.337C52.5039 45.5842 49.3752 46.8385 46.2535 46.2113C45.7673 46.1127 45.0345 45.8167 44.1466 45.3869C41.3491 44.034 36.9943 41.3351 33.8656 39.3339C31.6318 37.9105 30.0252 36.8253 30.0252 36.8253" stroke="#4F4131" stroke-linecap="round" stroke-linejoin="round"/>
<path d="M49.3408 27.7227C48.1359 28.082 43.8938 31.3869 43.5133 33.7968C43.1398 36.2068 41.5825 37.6231 44.2391 40.9773C46.8886 44.3315 47.5157 44.3315 47.5157 44.3315" stroke="#4F4131" stroke-linecap="round" stroke-linejoin="round"/>
<path d="M49.0162 28.8906C50.0098 29.9617 52.8637 30.8003 52.6875 34.1333C52.5043 37.4593 52.9553 38.6924 51.1655 40.5739C49.3756 42.4553 47.5012 42.4553 47.5012 42.4553" stroke="#4F4131" stroke-linecap="round" stroke-linejoin="round"/>
<path d="M44.2317 28.1172C44.1613 28.1524 44.0837 28.2017 43.9921 28.244C42.6744 28.9487 39.3414 30.7597 39.3625 33.4021C39.3837 36.2137 39.0736 37.0241 40.4829 39.7441C41.8852 42.4641 44.5488 44.3385 44.5488 44.3385" stroke="#4F4131" stroke-linecap="round" stroke-linejoin="round"/>
<path d="M21.8871 26.043C23.1203 26.8533 24.29 28.1147 24.29 28.1147" stroke="#4F4131" stroke-linecap="round" stroke-linejoin="round"/>
<path d="M21.0421 25.5859C21.3097 25.6986 21.5914 25.8606 21.873 26.0437" stroke="#4F4131" stroke-linecap="round" stroke-linejoin="round"/>
<path d="M33.9362 40.5742C34.0137 40.7927 34.1547 41.1661 34.3379 41.6523C34.7889 42.8714 35.4794 44.7599 35.9234 46.3736C36.2827 47.7124 36.4871 48.8681 36.2545 49.3261C35.6274 50.5734 33.753 52.4478 33.1329 52.4478C32.5128 52.4478 30.0254 50.4606 30.0254 50.4606" stroke="#4F4131" stroke-linecap="round" stroke-linejoin="round"/>
<path d="M29.3489 38.418C29.3771 41.8285 30.0254 53.1806 30.0254 53.1806" stroke="#4F4131" stroke-linecap="round" stroke-linejoin="round"/>
<path d="M37.6708 50.3621C37.7836 53.0258 36.8887 59.2831 36.8887 59.2831L35.0495 60.1217C35.0495 60.1217 34.7747 60.0794 34.3378 59.9948C32.9073 59.7271 29.7152 59.0295 28.7569 58.0782C28.2847 57.6061 27.7351 55.1609 27.2419 52.3211C26.4386 47.7267 25.7832 42.1035 25.7832 42.1035" stroke="#4F4131" stroke-linecap="round" stroke-linejoin="round"/>
<path d="M37.5088 49.334C37.6004 49.5242 37.6498 49.8766 37.6709 50.3557" stroke="#4F4131" stroke-linecap="round" stroke-linejoin="round"/>
<path d="M27.4254 69.3317H27.9468C28.7501 69.3317 30.0185 67.6264 30.0185 67.6264L34.3311 65.5829V60.002" stroke="#4F4131" stroke-linecap="round" stroke-linejoin="round"/>
<path d="M26.5162 52.4551L27.3618 66.809L27.5098 69.3317" stroke="#4F4131" stroke-linecap="round" stroke-linejoin="round"/>
<path d="M30.4201 60.1211C30.6315 61.1992 30.0255 66.2657 30.0255 66.2657" stroke="#4F4131" stroke-linecap="round" stroke-linejoin="round"/>
<path d="M26.5166 65.584C25.0086 66.2111 22.2886 65.584 22.2886 65.584" stroke="#4F4131" stroke-linecap="round" stroke-linejoin="round"/>
<path d="M23.416 81.911C22.5493 76.5767 21.6121 70.9324 21.2598 70.5801" stroke="#4F4131" stroke-linecap="round" stroke-linejoin="round"/>
<path d="M11.8943 69.332C11.8943 70.7414 13.2966 76.4068 14.3958 80.3177C14.7623 81.6143 15.0935 82.7206 15.326 83.4182C15.7417 84.6655 16.7988 88.3508 17.8557 92.1208C19.1523 96.7786 20.4419 101.584 20.5123 102.113C20.6392 103.078 23.1689 115.572 23.1689 115.572H28.1367C27.5096 114.945 26.8895 113.07 26.8895 112.45C26.8895 111.83 25.6422 93.6992 25.0151 91.2047C24.7403 90.1054 24.1061 86.103 23.4225 81.9173" stroke="#4F4131" stroke-linecap="round" stroke-linejoin="round"/>
<path d="M29.349 116.291C31.2516 116.826 34.3803 117.453 36.2547 117.453C38.1291 117.453 43.1322 116.826 41.8779 118.08C40.6306 119.328 35.0004 122.456 33.7532 122.456C32.5059 122.456 23.754 121.209 23.1269 121.209C23.0634 121.209 23.0141 121.153 22.9789 121.047C22.6266 120.138 23.1621 115.586 23.1621 115.586C23.1621 115.586 25.0083 118.087 26.8827 117.46C28.7571 116.833 29.349 116.298 29.349 116.298V116.291Z" stroke="#4F4131" stroke-linecap="round" stroke-linejoin="round"/>
<path d="M29.3496 116.29L28.1376 115.578" stroke="#4F4131" stroke-linecap="round" stroke-linejoin="round"/>
<path d="M24.2266 79.7891C24.0716 80.1482 23.9167 80.4228 23.7548 80.5848" stroke="#4F4131" stroke-linecap="round" stroke-linejoin="round"/>
<path d="M26.5166 68.627C26.4884 68.8736 26.432 69.2189 26.3757 69.6487C26.0374 72.0516 25.2623 76.9208 24.4097 79.3237" stroke="#4F4131" stroke-linecap="round" stroke-linejoin="round"/>
<path d="M13.388 83.4821C13.5219 82.855 13.6488 82.2983 13.7686 81.8262" stroke="#4F4131" stroke-linecap="round" stroke-linejoin="round"/>
<path d="M17.0459 94.3193C15.9607 97.913 14.9319 105.65 14.3823 106.2C14.1568 106.425 13.3394 105.953 12.3881 105.263C11.3523 104.516 10.1473 103.494 9.37919 102.817C8.90002 102.402 8.58292 102.113 8.58292 102.113C10.1332 101.246 12.0851 89.4571 13.3676 83.5098" stroke="#4F4131" stroke-linecap="round" stroke-linejoin="round"/>
<path d="M17.5107 93.0781C17.5107 93.0781 17.4825 93.1204 17.4825 93.1486C17.3416 93.4375 17.2077 93.818 17.0668 94.2619" stroke="#4F4131" stroke-linecap="round" stroke-linejoin="round"/>
<path d="M11.8952 110.119C11.8952 110.119 12.008 110.887 12.2264 111.908C12.5294 113.332 13.0509 115.249 13.7767 116.291C14.9394 117.968 18.8502 120.266 19.3364 121.069C19.3646 121.118 19.3857 121.168 19.3857 121.21C19.3857 121.837 19.3857 123.084 18.1385 123.084C16.8912 123.084 9.38664 119.145 8.13939 117.68C6.89214 116.214 5.01774 114.34 4.39059 113.085C3.76344 111.831 8.17461 107.328 8.17461 107.328C8.17461 107.328 9.21047 110.09 10.5564 110.337" stroke="#4F4131" stroke-linecap="round" stroke-linejoin="round"/>
<path d="M12.3877 105.262L11.979 108.658L11.8944 109.37" stroke="#4F4131" stroke-linecap="round" stroke-linejoin="round"/>
<path d="M9.38574 103.705C9.20958 103.881 9.03343 104.241 8.87841 104.67C8.4697 105.777 8.16669 107.32 8.16669 107.32" stroke="#4F4131" stroke-linecap="round" stroke-linejoin="round"/>
<path d="M17.5107 6.42773C17.5107 6.47706 17.5107 6.57572 17.4896 6.71665C17.4896 6.74483 17.4896 6.77302 17.4896 6.80826C17.3909 7.82297 17.0245 10.395 16.3903 11.0574C15.6434 11.8325 12.5147 13.9253 12.5147 13.9253" stroke="#4F4131" stroke-linecap="round" stroke-linejoin="round"/>
<path d="M16.3828 6.75C15.6359 8.08885 16.3828 9.96325 14.1349 11.5276C11.8871 13.0919 9.68854 13.3809 9.68854 13.3809C9.68854 13.3809 11.8871 14.8606 11.8871 15.8472C11.8871 16.6575 12.2324 20.5543 11.873 22.4639C11.7955 22.8938 11.6827 23.225 11.5136 23.4011C10.6328 24.3383 9.59693 25.5856 7.92689 25.5856C6.25684 25.5856 5.21396 24.6273 5.21396 24.6273C5.21396 24.6273 6.23573 24.7682 6.94744 24.5286C7.3491 24.4018 7.64506 24.1622 7.60982 23.7112C7.51117 22.4639 8.75841 19.9624 8.13127 18.7081C7.50412 17.4608 6.729 16.1643 6.729 16.1643" stroke="#4F4131" stroke-linecap="round" stroke-linejoin="round"/>
<path d="M18.1383 6.75C19.3855 8.08885 19.3855 8.70897 21.8871 9.33611L24.3887 9.96325" stroke="#4F4131" stroke-linecap="round" stroke-linejoin="round"/>
<path d="M11.8882 1.48709C12.1489 1.39548 12.4378 1.31797 12.7479 1.24751C15.3833 0.711965 19.3928 1.21228 19.3928 1.21228C19.3928 1.21228 24.706 2.67798 25.7982 4.75672C26.8904 6.83547 27.5176 8.70987 26.8904 9.33702C26.2633 9.96416 27.6162 15.3619 28.5041 16.7219C29.3919 18.0819 31.4707 22.0632 31.4707 22.0632C31.4707 22.0632 29.3497 22.9229 28.1236 22.0632C26.8975 21.2035 25.7982 19.3502 25.7982 19.3502" stroke="#4F4131" stroke-linecap="round" stroke-linejoin="round"/>
<path d="M10.4853 1.55664C10.4853 1.55664 10.5277 1.55664 10.5488 1.55664" stroke="#4F4131" stroke-linecap="round" stroke-linejoin="round"/>
<path d="M6.89123 24.3322C6.89123 24.3322 3.76253 23.7051 3.13538 23.085C2.50823 22.4649 2.50822 21.8377 2.50822 21.8377C2.50822 21.8377 3.76255 22.7467 4.69975 21.3515C5.6299 19.9633 4.69975 15.3689 4.69975 15.3689C4.69975 15.3689 3.50181 14.777 3.62865 13.9314C3.75549 13.0858 3.54409 9.81621 5.20708 7.38513C6.66573 5.27115 8.61766 2.20586 9.9847 1.64213C10.1609 1.56462 10.3229 1.53644 10.4639 1.55758" stroke="#4F4131" stroke-linecap="round" stroke-linejoin="round"/>
<path d="M21.8872 15.5879C22.5144 16.215 23.1345 17.5962 21.8872 17.8428" stroke="#4F4131" stroke-linecap="round" stroke-linejoin="round"/>
<path d="M23.1338 19.3359H18.1307C17.5036 19.3359 17.5036 20.4422 17.5036 21.1328C17.5036 21.8234 19.3779 23.0847 19.3779 23.0847" stroke="#4F4131" stroke-linecap="round" stroke-linejoin="round"/>
<path d="M21.2596 21.8375C21.8868 21.2103 22.5068 19.3359 22.5068 19.3359" stroke="#4F4131" stroke-linecap="round" stroke-linejoin="round"/>
<path d="M15.5302 13.714C15.3611 12.7134 17.8063 12.657 17.9119 13.6928C17.9331 14.7216 15.8473 14.7357 15.5584 13.8056L15.5302 13.714Z" stroke="#4F4131" stroke-linecap="round" stroke-linejoin="round"/>
<path d="M22.0205 13.7841C21.2947 13.0865 23.2254 11.5926 23.923 12.3678C24.5502 13.1852 22.8731 14.4324 22.0909 13.8475L22.0134 13.7841H22.0205Z" stroke="#4F4131" stroke-linecap="round" stroke-linejoin="round"/>
</svg>
