<svg width="47" height="138" viewBox="0 0 47 138" fill="none" xmlns="http://www.w3.org/2000/svg">
<path d="M36.2375 116.883C38.288 120.279 39.7608 124.028 40.557 127.911C40.6486 128.348 40.7261 128.82 40.5641 129.236C40.402 129.665 40.0144 129.961 39.648 130.229C36.8435 132.28 33.8487 134.21 30.4663 135C28.606 135.437 26.6823 135.514 24.7726 135.592C19.9105 135.789 15.0413 135.986 10.1791 136.183C7.32524 136.296 4.05561 136.247 2.17416 134.098C0.771889 132.484 0.602772 130.053 1.33562 128.045C2.06846 126.036 3.56939 124.402 5.21125 123.027C14.1182 115.586 28.3382 115.488 37.3438 122.809" fill="#D3B25B"/>
<path d="M37.6396 122.454C37.6396 122.532 37.5338 122.624 37.4279 122.511L37.4915 122.264L37.6396 122.454Z" fill="#C6B08D"/>
<path d="M36.5697 122.2C36.4993 122.01 36.45 121.729 36.6683 121.623C36.6753 121.905 36.7669 121.855 36.7599 122.179C36.8655 122.292 37.0134 122.271 37.0486 122.193C37.0486 122.271 37.2669 122.292 37.2387 122.454C36.9711 122.482 36.7739 122.341 36.6542 122.074C36.5768 122.081 36.5838 122.165 36.5697 122.208V122.2Z" fill="#C6B08D"/>
<path d="M23.1729 117.777L23.2646 117.756C23.2646 117.756 23.2082 117.777 23.1729 117.777Z" fill="#C6B08D"/>
<path d="M14.4918 118.777C14.5553 118.763 14.5906 118.777 14.5977 118.798C14.5341 118.798 14.4848 118.798 14.4918 118.777Z" fill="#C6B08D"/>
<path d="M13.1382 119.447C13.1382 119.447 13.1876 119.418 13.2158 119.404C13.1876 119.433 13.1594 119.454 13.1382 119.447Z" fill="#C6B08D"/>
<path d="M23.1729 117.777L22.9329 117.841C22.9188 117.763 23.0599 117.791 23.1729 117.777Z" fill="#C6B08D"/>
<path d="M35.222 120.609C35.2572 120.645 35.2855 120.687 35.3066 120.729L35.2149 120.645L35.229 120.609H35.222Z" fill="#C6B08D"/>
<path d="M26.9713 118.51L27.0419 118.524C27.0419 118.524 27.0701 118.587 27.0771 118.63L26.9713 118.51Z" fill="#C6B08D"/>
<path d="M29.8045 119.319C29.7409 119.305 29.7833 119.107 29.7833 119.016C29.7903 119.107 29.8256 119.164 29.875 119.199C29.8609 119.234 29.8397 119.277 29.8045 119.319Z" fill="#C6B08D"/>
<path d="M34.2219 120.947L34.2783 121.018C34.2783 121.018 34.236 120.968 34.2219 120.947Z" fill="#C6B08D"/>
<path d="M24.8848 118.191C24.8848 118.191 24.8636 118.248 24.8495 118.262C24.8495 118.234 24.8636 118.213 24.8848 118.191Z" fill="#C6B08D"/>
<path d="M38.7256 119.559C38.7256 119.559 38.7046 119.566 38.6906 119.573C38.6976 119.545 38.7116 119.538 38.7256 119.559Z" fill="#C6B08D"/>
<path d="M36.189 116.91L36.2031 116.96C36.2031 116.96 36.1467 117.009 36.1114 117.023L36.189 116.91Z" fill="#C6B08D"/>
<path d="M10.7431 120.687H10.7501C10.8202 120.666 10.7851 120.687 10.7431 120.687Z" fill="#C6B08D"/>
<path d="M8.31145 135.406C8.02919 135.576 8.7701 135.639 8.33966 135.83C8.382 135.752 7.95862 135.512 8.31145 135.406Z" fill="#C6B08D"/>
<path d="M35.1387 120.589C35.1387 120.589 35.0681 120.54 35.0328 120.525C35.0822 120.547 35.1175 120.568 35.1387 120.589Z" fill="#C6B08D"/>
<path d="M8.33984 135.83L8.29751 135.851C8.31868 135.844 8.32573 135.837 8.33984 135.83Z" fill="#C6B08D"/>
<path d="M5.50024 123.901C5.50024 123.901 5.48614 123.83 5.4932 123.795C5.50731 123.809 5.5073 123.837 5.50024 123.901Z" fill="#C6B08D"/>
<path d="M9.14355 121.039L9.05182 121.117C9.08004 121.081 9.11533 121.06 9.14355 121.039Z" fill="#C6B08D"/>
<path d="M3.61208 125.373C3.58385 125.429 3.5909 125.465 3.52034 125.514C3.52034 125.5 3.52034 125.493 3.52034 125.479C3.56268 125.479 3.59797 125.451 3.61914 125.373H3.61208Z" fill="#C6B08D"/>
<path d="M2.24521 127.39C2.24521 127.39 2.23816 127.354 2.2311 127.333C2.24521 127.312 2.25932 127.291 2.27344 127.27L2.24521 127.39Z" fill="#C6B08D"/>
<path d="M41.2549 127.183C41.1914 127.141 41.1208 127.12 41.0573 127.106C41.2055 127.113 41.1702 126.725 41.2549 127.183Z" fill="#C6B08D"/>
<path d="M35.1596 120.701C35.1737 120.651 35.1596 120.616 35.1384 120.588L35.209 120.644C35.209 120.644 35.1878 120.701 35.1596 120.701Z" fill="#C6B08D"/>
<path d="M2.35742 124.441L2.09634 124.801C2.15984 124.688 2.25157 124.561 2.35742 124.441Z" fill="#C6B08D"/>
<path d="M25.7098 136.365L25.8086 136.386C25.7733 136.386 25.738 136.386 25.7098 136.365Z" fill="#C6B08D"/>
<path d="M1.30711 125.867C1.32123 125.973 1.31416 126.065 1.29299 126.157C1.27182 126.164 1.25067 126.178 1.22244 126.178L1.30711 125.874V125.867Z" fill="#C6B08D"/>
<path d="M40.7899 124.301C40.9167 124.682 40.5996 124.555 40.4869 124.682C40.5503 125.161 40.7335 124.837 40.9097 124.957C40.9238 125.267 40.7617 125.549 40.8251 125.76C40.8674 125.76 40.8956 125.802 40.9379 125.739C40.8181 126.091 41.1563 126.648 40.9872 127.064C41.0154 127.085 41.0365 127.092 41.0577 127.099C40.9167 127.071 40.7899 127.092 40.6983 127.12C40.7335 127.296 40.6067 127.472 40.7899 127.508C40.7617 127.402 40.8251 127.381 40.8674 127.317L40.8322 127.515C41.107 127.627 40.8604 127.247 41.0365 127.212C41.0365 127.585 40.9379 128.029 41.0365 128.325C41.2902 128.346 40.9942 127.62 41.2761 127.973C41.2197 127.825 41.1563 127.691 41.0999 127.557C41.5368 127.804 41.0154 127.303 41.4804 127.522C41.572 127.789 41.5791 127.98 41.5791 128.17C41.5791 128.388 41.5791 128.607 41.5791 128.994C41.4241 129.171 41.3959 128.91 41.2338 129.072C41.0083 129.593 40.966 129.812 40.9731 130.058C40.9731 130.284 40.9449 130.516 40.5573 130.636C40.3178 130.629 40.0782 130.432 39.8386 130.805L40.1134 130.939C39.6836 131.285 39.6342 130.812 39.2749 131.292C39.4228 131.32 39.6765 131.115 39.6272 131.186C39.451 131.573 39.3242 131.214 39.0917 131.376L39.1833 131.609C38.683 131.912 38.0558 132.137 37.485 132.447C37.5555 132.49 37.6894 132.49 37.5978 132.637C36.8438 132.983 36.125 133.589 35.4767 134.096L35.1103 134.061C35.0469 134.096 35.0328 134.202 35.1244 134.209C34.8778 134.42 35.0469 134.096 34.8778 134.096C34.7157 134.16 34.7228 134.308 34.8496 134.315C34.2788 134.413 33.2782 134.639 32.8061 135.047L32.9329 135.062C32.5313 135.308 32.3058 134.843 31.9746 135.16H32.0591C31.1501 135.576 30.0438 135.625 29.3532 136.048C29.17 135.78 28.4019 136.316 28.2892 135.907C27.7607 136.168 27.9228 136.231 27.1547 136.429C26.9503 136.464 26.8235 136.189 26.5698 136.161V136.379L26.2175 136.168L26.0484 136.436L25.8088 136.393C25.9004 136.379 26.0061 136.288 25.992 136.224C25.6115 136.147 25.0901 136.414 25.0901 136.527L24.2092 136.379C24.2304 136.464 24.3783 136.492 24.4981 136.541C24.026 136.337 24.4206 136.774 23.9837 136.591C24.0401 136.541 23.9485 136.464 23.9344 136.422C23.73 136.562 23.2438 136.584 22.8774 136.541L22.9549 136.689C22.3066 136.753 21.5879 136.675 20.855 136.703C21.1158 136.626 21.0453 136.365 20.8268 136.351L20.7493 136.584C20.6084 136.45 20.9678 136.485 20.6789 136.323C20.4111 136.358 20.5098 136.591 20.6648 136.661L20.3336 136.598C20.3195 136.668 20.397 136.703 20.4181 136.788C20.2772 136.654 19.8544 137.042 19.6501 136.802L19.636 136.873C18.9102 136.901 18.579 136.837 17.98 136.851C17.9589 136.654 17.7334 136.71 17.5502 136.555C17.1203 136.633 16.6412 136.809 16.1127 136.816C15.7392 136.732 15.9999 136.654 15.8308 136.541C15.8097 136.725 15.2882 136.725 15.563 136.844C14.9288 136.844 14.7597 136.844 13.9564 136.725C14.041 136.647 14.1326 136.612 14.0833 136.548C13.9353 136.527 13.7591 136.64 13.7802 136.725L13.8225 136.739C12.9205 136.506 11.779 137.352 11.0532 136.999L11.0955 137.013L10.3485 136.844C10.0103 136.887 10.56 136.971 10.3133 137.091C9.50296 136.823 9.03084 137.176 8.35437 136.971C7.81178 137.507 6.47995 136.858 5.69778 137.042L5.76122 136.922C5.5921 136.774 5.52162 136.95 5.37364 136.943C5.41592 136.851 5.60617 136.88 5.50048 136.788C4.7183 136.548 3.89386 136.33 3.06941 135.949C2.25201 135.576 1.44165 135.019 0.870872 134.244C0.476265 133.659 1.20911 133.61 0.6031 132.997C0.553772 133.096 0.518532 133.201 0.483299 133.307C0.33532 132.63 0.16621 131.996 0.074604 131.334C-0.00995636 130.679 -0.00995255 130.016 0.187351 129.417C0.123932 129.481 0.0534515 129.474 0.0393562 129.6C-0.10862 129.311 0.194386 128.621 0.32827 128.656C0.356457 128.466 0.21553 128.586 0.180298 128.452C0.145065 128.156 0.574909 127.874 0.469212 127.691C0.448071 127.656 0.391705 127.74 0.363518 127.782C0.490356 127.641 0.638332 127.028 0.758125 127.254C0.856777 126.789 1.21614 126.507 1.29365 126.141C1.59666 126.049 1.62486 125.429 1.92081 125.542C1.63895 125.387 2.1745 124.745 2.4775 124.64C2.34361 124.654 2.55501 124.386 2.38589 124.386C2.59729 124.139 2.84391 123.963 2.92847 124.118C3.05531 123.421 3.95729 123.505 3.86568 122.934C4.66195 122.42 5.43707 122.025 6.13469 121.581C5.92329 121.342 5.38773 122.11 5.21156 121.821C5.57094 121.631 5.881 121.525 6.16991 121.398C6.45178 121.264 6.73364 121.13 7.05074 120.905C7.19872 120.764 6.88162 120.849 6.79002 120.841C7.53696 120.553 8.0584 119.989 8.77011 119.827C8.75602 119.799 8.67146 119.806 8.59394 119.82C8.72079 119.77 8.86171 119.637 8.91103 119.77L8.77011 119.799C8.6785 120.08 9.46067 119.947 9.53114 120.031C9.13652 119.763 10.0949 119.637 9.53114 119.326C9.62274 119.312 9.75663 119.326 9.77777 119.418C9.88347 119.334 9.89756 119.263 9.72844 119.228C10.2076 119.08 10.109 119.291 10.5106 119.101C10.4824 119.038 10.3908 119.052 10.3133 118.995C10.574 119.016 10.8418 119.073 11.166 118.883C11.1307 118.854 11.1519 118.784 11.0462 118.826C11.6592 118.615 12.1877 118.749 12.8078 118.403C12.5119 118.178 13.0051 118.241 12.9628 117.981L13.3504 117.945L13.2447 118.114C13.5618 118.016 13.9 118.114 14.1467 117.952L13.8789 117.917L14.4849 117.79L14.1748 117.988C14.5272 118.023 14.2312 118.319 14.6258 118.121C14.5342 118.114 14.9429 118.03 15.0698 117.854C15.2459 117.903 15.4291 117.952 15.6546 117.84C15.6969 117.741 15.5419 117.565 15.5701 117.501C15.7744 117.685 16.3452 117.403 16.5848 117.593C16.5073 117.551 16.4791 117.417 16.5002 117.389L16.6623 117.537C16.8032 117.452 16.8173 117.417 16.775 117.311C17.226 117.212 16.6834 117.656 17.2049 117.445C17.1626 117.438 17.1767 117.41 17.0851 117.389C17.6206 117.248 18.1491 117.367 18.6354 117.22C18.7551 116.938 18.1914 117.212 18.3394 116.966C19.0722 116.895 19.8685 117.17 20.5661 117.065L20.4393 117.1C20.545 117.473 20.9537 116.888 21.3131 117.057C21.2285 117.022 21.2003 116.853 21.2215 116.888C21.7077 116.839 22.208 117.015 22.9338 117.156L22.8492 117.057C23.1381 116.973 23.6032 117.029 23.9062 117.036C23.9908 117.142 24.1669 117.149 24.0471 117.276C24.5404 117.057 24.9914 117.184 25.4071 117.318C25.8299 117.452 26.2175 117.649 26.6755 117.501C26.5769 117.48 26.4571 117.375 26.5346 117.389L27.2181 117.614C27.1265 117.762 27.1054 117.692 26.9363 117.79C27.0067 117.903 27.1829 118.016 27.3591 118.044C27.0701 117.875 27.4154 117.79 27.5775 117.727C27.5423 117.769 27.5775 117.833 27.5564 117.882C27.9862 117.678 27.5423 118.206 28.0778 118.15V118.058C28.2469 118.15 28.3808 118.312 28.5852 118.34C28.719 118.185 28.416 118.199 28.4442 118.044C28.719 118.136 28.8882 118.544 29.1912 118.432C29.0925 118.347 28.9234 118.298 28.8177 118.213C29.1489 118.079 29.17 118.143 29.3814 118.164H29.3603L29.8606 118.199L29.7197 118.22C29.917 118.777 30.3821 118.558 30.7273 119.023C30.3961 118.572 30.7132 118.833 30.7555 118.615C30.8894 118.601 31.0937 118.615 31.0656 118.53C31.2206 118.77 31.4813 118.544 31.6927 118.89C31.735 118.833 31.9252 118.974 31.9464 118.791C32.2071 118.946 31.8336 118.875 31.8266 118.967C32.1578 119.355 32.9329 119.171 33.398 119.749C33.856 120.109 33.8419 120.362 34.2295 120.743C34.4338 120.743 34.2295 120.454 34.2295 120.454C34.5255 120.51 34.7016 120.644 34.8989 120.849C34.8848 120.771 34.9553 120.757 35.068 120.729C35.2442 120.856 35.068 121.018 35.364 121.081C35.364 120.989 35.371 120.856 35.3217 120.736C35.512 120.926 35.667 121.159 35.8502 121.356C35.977 121.3 35.822 121.109 35.7797 121.004C36.0123 121.201 36.3576 121.553 36.3223 121.75L36.1321 121.694C36.2166 121.765 36.273 121.595 36.2237 121.518C36.0968 121.243 35.8854 121.349 35.8361 121.398L35.963 121.546C35.5895 121.75 35.364 121.081 35.0258 120.905L35.0046 121.236L34.8003 120.827C34.6875 120.849 34.5607 120.961 34.6946 121.095C34.3916 121.081 34.5395 120.884 34.2647 120.905C34.2295 120.912 34.2365 120.933 34.2506 120.954L34.0674 120.743C34.0815 120.82 33.9265 120.898 34.0886 120.947C33.6094 120.849 33.5389 120.376 33.2711 120.503L33.2993 120.538C32.7568 120.165 33.3416 120.32 33.0104 119.883L32.4819 120.214L32.5172 119.989C32.4537 119.968 32.3269 119.925 32.3128 120.01C32.1507 119.77 32.3903 119.947 32.3128 119.756C32.1226 119.777 31.9323 119.658 31.7632 119.573C31.587 119.503 31.432 119.453 31.3263 119.601C31.277 119.411 31.6645 119.601 31.3827 119.369C31.1501 119.679 31.0303 119.171 30.6921 119.221C30.7132 119.432 31.0092 119.432 30.6709 119.489C30.6146 119.122 30.1143 119.355 29.9029 119.207C29.9804 118.946 29.4237 118.932 29.0502 118.742C29.0502 118.833 28.254 118.664 27.8594 118.643V118.685C27.8594 118.403 27.4507 118.361 27.1758 118.262C27.1547 118.417 27.1899 118.488 27.3309 118.587L27.0631 118.53C27.0208 118.439 26.9433 118.375 26.7742 118.312L26.8024 118.516C26.45 118.439 26.1259 118.15 25.6467 118.185C25.6467 118.002 26.0977 117.762 25.6256 117.544C25.5903 117.635 25.5481 117.797 25.6679 117.861C25.6256 117.84 25.5269 117.755 25.4353 117.783C25.4917 117.847 25.5481 117.903 25.6044 117.974C25.386 118.009 25.5128 117.826 25.3437 117.818C25.3296 117.959 25.2028 117.903 25.2098 118.016C25.2521 118.037 25.3649 117.974 25.4212 118.037C25.2239 118.037 24.9844 118.093 24.8927 118.192C24.9209 118.114 24.9139 118.009 24.78 117.974C24.4206 117.924 24.6391 118.129 24.4206 118.171C24.3431 118.065 24.1035 118.136 24.1176 117.931C24.0119 117.917 23.9837 118.016 23.9344 118.065C23.7582 117.945 23.0677 117.952 23.2932 117.748L23.3425 117.734C23.3425 117.734 23.3213 117.734 23.3143 117.727C22.7012 117.501 22.0248 117.804 21.4117 117.692V117.762C21.0453 117.671 20.6014 117.748 20.3336 117.6C20.2279 117.6 20.0799 117.741 20.1363 117.818C19.8544 117.776 19.8192 117.706 19.4246 117.833C19.7135 117.938 19.333 117.945 19.7205 117.91C19.3612 117.995 19.2907 118.079 18.889 117.952C19.037 118.114 18.6424 118.213 18.4662 118.178L18.7058 118.016C18.5085 118.016 18.3465 118.051 18.1773 118.086L18.2971 118.305C17.6136 118.678 16.9019 117.981 16.4368 118.587C16.2113 118.467 16.8032 118.389 16.5989 118.241C16.2677 118.34 15.9929 118.749 15.8872 118.77C15.4644 118.988 15.3869 118.523 14.9288 118.713C14.9711 118.622 14.9711 118.382 14.5976 118.41C14.2735 118.537 14.2876 118.868 14.5131 118.875C14.5906 118.861 14.6258 118.819 14.6118 118.798C14.7245 118.798 14.8725 118.791 14.7668 118.918L14.7033 118.847C14.5624 118.981 14.1185 119.101 14.2594 119.207C13.9917 119.207 14.1185 119.108 14.2876 119.009C13.9071 119.249 13.6393 119.207 13.2377 119.411C13.294 119.348 13.3222 119.235 13.2588 119.256C12.6598 119.545 12.9347 119.193 12.4978 119.312C12.3075 119.524 12.688 119.566 12.23 119.629C12.0045 119.813 12.2582 119.855 12.378 119.883C11.9411 119.883 11.7156 120.257 11.5183 120.369L11.7438 120.355C11.6099 120.362 11.5183 120.405 11.4196 120.44L11.469 120.243C11.3633 120.313 11.2646 120.355 11.2998 120.419C11.1378 120.362 11.2787 120.13 10.9827 120.087C10.8629 120.235 10.4824 120.235 10.5247 120.461C10.9616 120.158 10.567 120.686 10.9757 120.524C10.8911 120.538 10.7995 120.588 10.6938 120.665C10.6938 120.693 10.7291 120.701 10.7643 120.694C10.4049 121.095 10.4543 120.567 9.98918 120.806C10.1019 120.891 9.98916 121.074 9.9046 121.088C10.0878 120.997 9.90462 120.856 9.67913 120.856C9.42545 121.088 9.31974 120.954 9.16472 121.046L9.31974 120.919C9.19995 120.841 9.05197 120.919 8.83353 121.018C8.86171 121.116 9.04493 120.961 8.99561 121.046C8.66442 120.997 8.60805 121.553 8.22753 121.617C8.12888 121.779 8.34027 121.828 8.24162 121.948C7.81177 122.025 7.9668 122.321 7.53696 122.427C7.544 122.23 7.58628 122.244 7.24804 122.272C7.45944 122.173 7.68493 122.089 7.90337 121.997L7.38898 122.032C7.57219 121.92 7.82587 121.884 7.91748 121.793C7.6638 121.793 7.69903 121.814 7.71312 121.645C7.60742 122.018 7.1212 121.807 6.95913 122.166L7.20576 122.504C6.91685 122.955 6.37425 122.871 5.91623 123.343L6.03603 123.16C5.86691 123.082 5.6978 123.385 5.49345 123.463C5.59914 123.554 5.52866 123.681 5.52161 123.801C5.45819 123.716 5.1693 124.118 4.94381 123.956L4.8522 124.287C4.52806 124.696 4.1405 124.414 3.8234 124.823C4.0348 124.816 3.95728 125.048 4.26029 124.879C4.14754 124.999 4.06298 125.126 3.99252 125.062C3.99252 125.189 3.54153 125.281 3.54858 125.485C3.45697 125.499 3.33013 125.422 3.21738 125.577C3.22443 125.612 3.27375 125.619 3.27375 125.619C3.21737 125.577 3.02008 125.795 2.99894 125.57C3.01303 126.225 2.12517 126.754 2.25906 127.338C2.04766 127.634 1.84331 128.015 1.73056 128.318C1.77989 128.318 1.79396 128.339 1.80101 128.276C1.78691 128.734 1.32888 128.417 1.33593 128.966C1.498 129.269 1.5121 128.727 1.56143 128.91C1.99127 129.072 1.36413 129.495 1.61076 129.868L1.64598 129.791C1.77282 130.051 1.42754 130.39 1.47687 130.819C1.47687 130.819 1.51211 130.798 1.54734 130.819C1.3289 131.115 1.32889 131.686 1.38526 132.109C1.51915 131.933 1.42754 131.905 1.62484 131.933C1.65303 132.116 1.32889 131.954 1.38526 132.334C1.51915 132.419 1.69533 132.645 1.88559 132.595L1.77987 132.278C2.06878 132.349 1.9208 132.68 2.04059 132.821L2.1322 132.75C2.32951 133.194 2.08994 133.356 2.45636 133.786H2.3577C2.34361 134.216 2.64661 133.878 2.71003 134.251L2.96371 134.117C3.02009 134.209 3.11168 134.371 3.21738 134.547C3.34422 134.702 3.48516 134.899 3.64018 135.012C3.55563 134.73 3.2667 134.406 3.16805 134.145C3.30194 134.279 3.66838 134.547 3.68951 134.723C3.63314 134.66 3.59085 134.54 3.5063 134.533C3.57676 134.85 3.82339 135.125 4.2039 135.287C4.28142 135.026 4.52805 135.111 4.82401 135.188C5.11996 135.273 5.46524 135.365 5.6555 135.188C6.30379 135.541 7.05779 135.343 7.89634 135.407C7.57924 135.808 8.14296 135.428 8.07954 135.858C8.28389 135.886 8.3614 135.886 8.38253 135.858L9.00264 135.604C9.14357 135.477 8.81238 135.513 8.82647 135.414C9.26336 135.379 9.0097 135.231 9.29861 135.111C9.24223 135.266 9.45362 135.329 9.7073 135.266L9.35497 135.47C9.98916 135.682 9.87642 135.097 10.5247 135.294L10.3204 135.167C10.6515 135.231 11.5324 135.118 11.8706 135.449C11.927 135.4 11.9975 135.273 11.8495 135.252C12.6316 135.167 13.6111 135.548 14.2101 135.308L14.1467 135.202C14.2947 135.224 14.4074 135.393 14.5906 135.28C14.5765 135.238 14.5272 135.174 14.5906 135.167C14.6681 135.202 14.9852 135.336 15.1755 135.266L15.0064 135.153C15.7674 134.984 16.1902 135.393 16.8385 135.442C16.8244 135.132 17.4233 135.005 17.7193 134.942L17.7052 134.899C18.5931 134.822 19.2273 135.097 20.0588 135.181C20.5591 134.822 21.7852 134.97 22.6026 134.744C22.4758 134.808 22.6308 134.984 22.7788 135.012C22.969 134.942 23.3213 135.202 23.2791 134.921H23.2086C23.3425 134.646 23.7441 134.702 24.0542 134.681L24.1176 135.047C24.9068 134.477 26.2457 135.16 26.6544 134.646C26.8517 134.73 27.0913 134.709 27.2886 134.787L27.2604 134.589C27.7818 134.498 28.0426 134.448 28.6838 134.413L28.5358 134.286C28.8882 134.23 29.0714 134.794 29.4096 134.751L29.4589 134.441C30.0861 134.336 30.6287 133.941 31.2911 134.012C31.2699 133.969 31.2276 133.899 31.129 133.913C31.4109 133.828 32.1367 133.363 32.1789 133.786C32.0944 133.532 32.7779 133.532 33.1443 133.497L33.0175 133.335C33.3839 133.455 33.4191 133.511 33.8208 133.399C33.8983 133.335 33.8278 133.222 33.7362 133.321C33.9829 133.096 34.0463 133.377 34.3563 133.11L34.1661 133.06C34.455 132.898 34.462 132.969 34.6946 133.011C34.9201 132.983 35.2372 132.666 35.1878 132.482C35.2794 132.553 35.512 132.588 35.66 132.447C35.6529 132.377 35.5684 132.377 35.5261 132.377C35.9418 131.982 36.3646 132.144 36.5901 131.778C36.5619 131.721 36.569 131.679 36.5831 131.644C36.2096 131.883 35.9066 132.081 35.9418 132.074C35.8502 131.919 36.1391 131.707 35.7657 131.637C36.0757 131.609 36.6535 131.602 36.9001 131.334C36.9001 131.313 36.9072 131.285 36.9001 131.256H36.8579C36.9142 131.2 36.9847 131.172 37.0622 131.165C37.1397 131.08 37.1891 131.017 37.2736 130.96C37.2243 130.812 37.5696 130.664 37.7105 130.559C37.8092 130.728 37.9853 130.573 37.9008 130.834C37.9149 130.805 37.8585 130.834 37.7528 130.897C37.7246 130.904 37.6964 130.925 37.6753 130.925H37.6964C37.5978 130.996 37.4639 131.08 37.3159 131.172C37.4921 131.172 37.6612 131.165 37.7669 130.96C37.9149 131.01 38.0769 131.059 38.1544 131.08C38.2038 130.714 38.5068 130.312 38.4575 130.136C38.7111 130.023 38.9859 129.847 39.2608 129.713C39.5356 129.579 39.754 129.509 39.9866 129.53C40.1134 129.467 40.0077 129.347 39.9866 129.283C39.9161 129.312 39.8738 129.375 39.8034 129.361C40.0711 129.248 40.1205 128.924 40.3671 128.868C40.2614 128.543 40.1346 129.03 40.1768 128.607L40.0993 128.67C39.8738 128.304 39.9091 127.818 39.9725 127.353C40.0218 126.887 40.0429 126.394 39.6272 125.894C39.6765 125.964 39.7047 126 39.754 126.007C39.1762 124.773 39.1551 123.266 38.3095 122.159C38.0981 121.835 38.239 121.736 38.2602 121.476H38.0347L38.1051 121.025C38.0347 120.433 37.2314 120.362 37.2243 119.58L37.3934 119.601C37.2525 119.383 37.1045 118.84 36.9777 118.953C36.9918 118.918 37.0693 118.812 36.9565 118.756L36.8579 118.798L36.724 118.157C36.4139 117.769 36.3787 118.439 36.0123 117.833C35.9207 117.586 35.9136 117.022 36.0264 117.072C36.0827 117.163 36.2237 117.269 36.3223 117.22L36.2519 116.98C36.5126 116.776 36.7028 116.43 37.2102 116.839L37.2525 117.304L37.4568 117.346L37.2877 117.029C37.5203 117.128 37.4639 117.311 37.4568 117.48C37.5484 117.466 37.6259 117.494 37.6964 117.551L37.6259 118.065C37.7598 118.051 37.7598 117.776 37.9571 117.995C37.9219 118.234 37.6189 117.966 37.6823 118.298C37.9078 118.403 37.9924 118.298 37.9853 118.565C38.0769 118.558 38.0981 118.488 38.091 118.382C38.0981 118.615 38.3095 118.904 38.2038 119.08C38.4645 119.186 38.4716 119.742 38.7464 119.594C38.7111 119.686 38.69 120.038 38.7534 120.221C38.9437 119.742 39.0776 120.877 39.3946 120.63C39.1973 121.004 39.6342 121.574 39.6272 122.075C39.6413 122.039 39.6765 121.976 39.6413 121.941C39.7611 122.173 39.8809 122.216 40.0007 122.349C39.754 122.476 39.8386 122.885 39.747 123.146C40.1064 123.357 39.9866 122.857 40.2614 122.864C40.0429 122.927 40.2402 123.47 40.0288 123.428C40.2614 123.611 40.1698 123.604 40.4305 123.653C40.1134 123.801 40.4517 123.893 40.3107 124.153C40.5785 124.442 40.649 124.146 40.6631 124.548C40.8181 124.696 40.8322 124.323 40.8322 124.323L40.7899 124.301ZM37.4427 132.398C37.5132 132.363 37.5696 132.327 37.6119 132.306C37.5766 132.327 37.5273 132.349 37.4427 132.398ZM36.7804 132.814C36.8579 132.757 36.9565 132.694 37.0622 132.63C37.0481 132.56 36.9847 132.518 36.9213 132.56C36.9847 132.574 36.8438 132.708 36.7804 132.821V132.814ZM37.3934 130.784C37.2807 130.827 37.2666 130.883 37.2736 130.925C37.3229 130.897 37.3793 130.869 37.4568 130.827L37.485 130.841C37.485 130.841 37.4216 130.791 37.3934 130.784Z" fill="#C6B08D"/>
<path d="M37.7172 130.877C37.7172 130.877 37.7454 130.877 37.7666 130.863C37.7595 130.892 37.7454 130.92 37.7313 130.941L37.6608 130.913L37.7172 130.877Z" fill="#C6B08D"/>
<path d="M23.2866 117.748H23.2726C23.2726 117.748 23.3006 117.734 23.3076 117.727C23.2936 117.734 23.2936 117.741 23.2866 117.748Z" fill="#C6B08D"/>
<path d="M26.584 136.422L26.5769 136.365L26.6475 136.408L26.584 136.422Z" fill="#C6B08D"/>
<path d="M27.5634 117.705C27.5634 117.705 27.5987 117.677 27.627 117.67C27.627 117.684 27.5917 117.698 27.5634 117.705Z" fill="#C6B08D"/>
<path d="M29.3664 118.15H29.6416C29.5216 118.165 29.437 118.157 29.3664 118.15Z" fill="#C6B08D"/>
<path d="M8.59375 119.834C8.59375 119.834 8.55846 119.848 8.53729 119.848C8.40321 119.876 8.4879 119.848 8.59375 119.834Z" fill="#C6B08D"/>
<path d="M15.0693 117.847C14.9917 117.826 14.9141 117.805 14.8365 117.798C14.9494 117.755 15.0411 117.734 15.0693 117.847Z" fill="#C6B08D"/>
<path d="M2.38574 124.4L2.35751 124.443L2.38574 124.4Z" fill="#C6B08D"/>
<path d="M14.5335 117.881C14.6393 117.804 14.7381 117.789 14.8369 117.797C14.7452 117.825 14.6393 117.874 14.5335 117.881Z" fill="#C6B08D"/>
<path d="M36.3086 121.293L36.3721 121.328C36.3721 121.328 36.358 121.349 36.358 121.356L36.3086 121.293Z" fill="#C6B08D"/>
<path d="M36.3568 121.357L36.4062 121.421C36.4062 121.421 36.3568 121.379 36.3568 121.357Z" fill="#C6B08D"/>
<path d="M36.5053 121.56L36.4065 121.426C36.4489 121.461 36.5124 121.496 36.5053 121.56Z" fill="#C6B08D"/>
<path d="M34.6529 120.356L34.667 120.285C34.667 120.285 34.667 120.327 34.6529 120.356Z" fill="#C6B08D"/>
<path d="M34.1666 120.039C34.2934 120.095 34.5398 120.081 34.6807 120.222L34.6666 120.279C34.6384 120.138 34.2159 120.208 34.1666 120.039Z" fill="#C6B08D"/>
<path d="M31.6502 119.791L32.0947 119.939C31.9889 119.974 31.8548 120.024 32.0312 120.13C31.4103 120.087 32.2076 120.024 31.6502 119.791Z" fill="#C6B08D"/>
<path d="M30.2613 119.384C30.48 119.504 30.219 119.49 30.219 119.532C30.0919 119.412 30.0637 119.377 30.2613 119.384Z" fill="#C6B08D"/>
<path d="M20.0165 117.896L20.0518 118.073C19.8612 118.059 20.0517 118.002 20.0165 117.896Z" fill="#C6B08D"/>
<path d="M17.9168 117.157L18.1002 117.016L18.2061 117.171L17.9168 117.157Z" fill="#C6B08D"/>
<path d="M16.93 118.58L17.0146 118.594H16.6901L16.93 118.58Z" fill="#C6B08D"/>
<path d="M2.59729 127.099L2.43501 126.937C2.5338 126.845 2.75959 126.951 2.59729 127.099Z" fill="#C6B08D"/>
<path d="M2.46979 133.646C2.5968 133.646 2.77322 133.724 2.78027 133.886C2.66031 133.788 2.49096 133.731 2.46979 133.646Z" fill="#C6B08D"/>
<path d="M24.4558 134.731L24.3005 134.668L24.5898 134.717L24.4558 134.731Z" fill="#C6B08D"/>
<path d="M32.5255 55.1123C33.5825 54.5626 35.4569 53.6677 35.4569 53.6677C36.1545 53.8439 37.0988 53.9425 38.1205 53.5972C40.1781 52.9208 44.9487 44.035 45.6393 42.6679C46.3228 41.3009 44.2722 39.2574 43.0461 37.8833C41.82 36.5163 29.9253 26.2705 27.607 25.8195V25.0232C27.607 25.0232 23.0972 20.1259 21.8499 21.0701C21.4764 21.359 20.7506 22.2962 19.9262 23.473C19.5598 23.9944 19.1722 24.5582 18.7846 25.129C17.4458 27.1372 16.114 29.2512 15.7053 29.8995L14.7046 29.8713C14.3876 29.3005 12.2313 27.3909 10.7867 26.1436C10.0328 25.4883 9.46903 25.0162 9.46903 25.0162C9.46903 25.0162 8.63049 23.4025 9.03214 23.4659C9.38447 23.5294 8.21473 22.6556 7.94696 22.4583C7.91877 22.4371 7.89765 22.423 7.89765 22.423C7.89765 22.423 5.38905 23.015 5.02262 24.6427C4.64915 26.2635 4.67735 29.1737 4.67735 29.1737L5.50884 29.4274L5.37495 29.8643C4.6562 31.0481 1.92916 37.7917 1.2386 41.9351C0.555077 46.0785 1.2386 51.4833 1.2386 51.4833L6.66449 55.9931C6.50947 57.0853 6.47423 57.9661 6.68563 58.3748C7.14366 59.2768 8.69391 61.0525 9.70158 62.1659L9.44083 62.2927V67.9371C9.44083 67.9371 9.85661 68.3528 11.7733 68.7122C12.3088 68.8108 12.9571 68.9095 13.7534 68.987C16.6213 69.283 26.3668 68.4022 30.3058 68.0216C31.3487 67.923 31.9829 67.8596 31.9829 67.8596V64.5195C31.9829 64.5195 33.35 63.843 33.8996 63.1524C34.4422 62.4689 32.6735 57.0078 32.7017 55.528L32.5396 55.0982L32.5255 55.1123ZM31.8561 55.5069L31.8843 55.5351C31.8138 55.5491 31.8138 55.535 31.8561 55.5069ZM31.1796 44.4437C31.7222 43.5276 30.7005 39.6097 30.6793 39.4547L34.6324 42.6045L34.1744 43.1824C33.2725 43.4501 32.0745 43.887 31.1867 44.4507L31.1796 44.4437ZM30.8203 62.8212L29.9324 62.6944V62.7296H29.2489L28.2623 62.8987L28.3117 63.1665H27.1983L25.6057 56.3595C25.6057 56.3595 25.1477 58.3819 24.4713 58.3819C23.7948 58.3819 23.1042 55.6478 24.126 54.1962C25.1477 52.7376 26.5148 51.5537 27.614 51.4973L27.8395 51.2789L31.3417 54.9643C31.2924 57.0219 31.384 59.756 31.3417 60.7777C31.3065 61.4824 31.0105 62.3421 30.8203 62.8142V62.8212Z" fill="#719EA4"/>
<path d="M20.8287 19.3008L21.8575 18.427V18.3918C22.4635 18.4622 23.1611 18.4411 23.6615 18.124C24.7466 17.4405 24.3238 14.6782 23.7812 13.9876C23.5557 13.6987 23.0484 13.4098 22.5269 13.2266L23.133 11.7257L23.147 11.7046C23.3937 11.1479 23.6826 10.3798 23.5135 10.0838C23.2457 9.59763 22.4142 5.10893 20.6314 3.5164C18.8486 1.91682 15.579 1.00781 13.5284 1.00781C11.4779 1.00781 5.33323 2.37486 5.33323 2.37486C5.33323 2.37486 1.23915 5.10893 1.23915 7.1595C1.23915 9.21006 1.92267 11.2536 2.75417 11.2113L3.4236 11.169C3.92391 13.1843 5.65033 19.78 7.38379 21.5134C7.74317 21.8728 8.17301 22.1688 8.63809 22.4154C9.87829 23.0496 11.3581 23.3174 12.408 23.4231V23.4935V25.833H11.2242L10.7943 26.1642C12.2389 27.4044 14.3952 29.3211 14.7123 29.8918L15.7129 29.92C16.1145 29.2717 17.4463 27.1578 18.7922 25.1495L18.2849 24.8042L17.9396 23.4865C18.2074 23.3667 18.4611 23.2469 18.6654 23.1271C18.8063 23.0425 18.9191 22.958 19.0107 22.8734C19.5251 22.359 20.4271 20.2944 20.8358 19.3078L20.8287 19.3008ZM7.54587 14.8544C7.1724 14.8262 6.75665 14.2484 6.87644 13.4873C7.5811 13.1702 8.24348 13.4169 8.37737 13.7692C8.53944 14.192 8.00389 14.9037 7.55291 14.8544H7.54587ZM14.219 13.2971C14.0428 12.7193 14.4233 12.7475 14.9025 12.6206C15.579 12.4374 16.4528 12.6206 16.2696 13.2971C16.1427 13.7833 15.4803 14.1568 14.9025 13.9806C14.5784 13.882 14.3177 13.6212 14.219 13.2971Z" fill="#719EA4"/>
<path d="M5.45964 119.989C5.33985 121.222 6.02338 122.596 6.02338 122.596H22.8154L22.4208 116.79V116.776L22.3715 116.057C21.7302 116.444 20.3562 117.128 18.9962 117.128C17.8053 117.128 17.615 115.803 17.5869 115.465C17.5869 115.416 17.5869 115.395 17.5869 115.395C17.5869 115.395 14.9232 117.368 12.1821 117.593C9.44098 117.819 5.58648 118.763 5.46669 119.996L5.45964 119.989Z" fill="#719EA4"/>
<path d="M6.87593 13.4802C6.76319 14.2413 7.17895 14.8191 7.54537 14.8473C7.99635 14.8895 8.53188 14.1779 8.36981 13.7621C8.23592 13.4098 7.57354 13.1632 6.86888 13.4802H6.87593Z" fill="#4F4131"/>
<path d="M8.63751 22.4023L7.94693 22.4728C8.2147 22.6701 9.39149 23.5439 9.03211 23.4805C8.63046 23.41 9.469 25.0307 9.469 25.0307C9.469 25.0307 10.0327 25.5029 10.7867 26.1582L11.2166 25.827H12.4004V23.41C11.3575 23.2973 9.87771 23.0365 8.63751 22.4023Z" fill="#719EA4"/>
<path d="M20.7438 95.1787C22.8296 101.034 28.023 112.901 27.9595 113.563C27.9384 113.817 28.7769 113.866 29.9537 113.81C31.666 113.725 34.083 113.415 35.5276 113.211C36.2745 113.105 36.7607 113.035 36.7607 113.035C36.7607 113.035 28.5655 92.5432 28.5655 91.1762C28.5655 89.8092 30.299 68.0352 30.299 68.0352C26.3599 68.4157 16.6145 69.2965 13.7465 69.0005C12.9503 68.923 12.2949 68.8244 11.7664 68.7257L10.6037 69.064L11.1041 71.6783C10.5896 76.8857 10.2444 90.3306 10.8011 92.5432C11.4775 95.2773 16.9457 111.675 16.9457 111.675H23.5906L20.7368 95.1857L20.7438 95.1787Z" fill="#719EA4"/>
<path d="M14.902 12.6215C14.4158 12.7484 14.0424 12.7272 14.2185 13.298C14.3172 13.6221 14.5779 13.8829 14.902 13.9815C15.4799 14.1577 16.1352 13.7772 16.2691 13.298C16.4523 12.6215 15.5856 12.4383 14.902 12.6215Z" fill="#4F4131"/>
<path d="M22.3784 114.614V111.676H18.2843V115.403L17.5938 115.474C17.6219 115.812 17.8122 117.137 19.0031 117.137C20.3701 117.137 21.7372 116.453 22.3784 116.066L22.4277 116.785L22.3784 114.614Z" fill="#719EA4"/>
<path d="M17.9316 23.4793L18.2769 24.797L18.7842 25.1423C19.1788 24.5715 19.5594 24.0078 19.9258 23.4863H18.8829L18.6503 23.127C18.4389 23.2467 18.1923 23.3665 17.9245 23.4793H17.9316Z" fill="#719EA4"/>
<path d="M28.9182 116.777L28.8971 116.798L23.7812 121.914C23.5276 122.167 23.1964 122.414 22.8581 122.66C22.2803 123.097 21.7307 123.527 21.7307 123.964C21.7307 124.648 22.7525 126.036 22.7525 126.036C22.7525 126.036 38.1211 123.281 38.1211 122.597C38.1211 121.914 36.2467 116.058 36.2467 116.058C36.0776 115.762 29.9682 116.058 29.9682 116.058V115.332L28.9253 116.777H28.9182Z" fill="#719EA4"/>
<path d="M29.9327 62.6878L30.8206 62.8146C31.0108 62.3425 31.3068 61.4828 31.342 60.7781C31.3843 59.7564 31.2927 57.0152 31.342 54.9647L27.8399 51.2793L27.6144 51.4977C26.5221 51.5541 25.1481 52.738 24.1263 54.1966C23.0975 55.6552 23.781 58.3823 24.4716 58.3823C25.1621 58.3823 25.6061 56.3599 25.6061 56.3599L27.1986 63.1669H28.312L28.2627 62.8991L29.2492 62.73H29.9327C29.9327 62.73 29.9327 62.7159 29.9327 62.6948V62.6878Z" fill="#719EA4"/>
<path d="M29.9535 113.811L29.9676 113.959V116.066C29.9676 116.066 36.077 115.77 36.2461 116.066L36.1897 114.995L35.8022 115.016L35.5203 113.219C34.0757 113.423 31.6588 113.733 29.9464 113.818L29.9535 113.811Z" fill="#719EA4"/>
<path d="M21.0475 13.2954C21.0475 12.9008 21.7945 12.9571 22.5273 13.2249C23.0487 13.4081 23.5561 13.697 23.7816 13.9859C24.3171 14.6694 24.7399 17.4317 23.6618 18.1223C23.1615 18.4394 22.4639 18.4676 21.8649 18.3901C21.1884 18.3196 20.6388 18.1223 20.6388 18.1223" stroke="#4F4131" stroke-linecap="round" stroke-linejoin="round"/>
<path d="M21.0469 18.7637C21.0469 18.7637 20.9623 18.9751 20.8284 19.2992C20.4197 20.2857 19.5107 22.3504 19.0034 22.8648C18.9188 22.9493 18.799 23.0339 18.6581 23.1185C18.4467 23.2383 18.2001 23.3581 17.9323 23.4708C16.8964 23.9006 15.5858 24.2248 15.5858 24.2248" stroke="#4F4131" stroke-linecap="round" stroke-linejoin="round"/>
<path d="M6.69994 5.79102C6.69994 5.79102 5.3329 8.15868 6.69994 9.70188C8.06698 11.2521 8.94781 11.7031 8.94781 11.7031L10.1175 9.20158C10.1175 9.20158 10.8011 10.5686 11.8228 10.5686H14.3525" stroke="#4F4131" stroke-linecap="round" stroke-linejoin="round"/>
<path d="M15.9242 8.74414L18.5455 11.2034L19.0035 9.20218L21.4205 11.7037L21.8574 12.3309" stroke="#4F4131" stroke-linecap="round" stroke-linejoin="round"/>
<path d="M6.09423 7.34961L4.59332 11.2041L3.28969 10.5699C3.28969 10.5699 3.33901 10.7813 3.43061 11.1618C3.93092 13.1772 5.65736 19.7728 7.39082 21.5062C7.7502 21.8656 8.18004 22.1616 8.64512 22.4082C9.88532 23.0424 11.3651 23.3102 12.415 23.4159C13.2113 23.4934 13.7539 23.4863 13.7539 23.4863" stroke="#4F4131" stroke-linecap="round" stroke-linejoin="round"/>
<path d="M23.1328 11.7246C22.9779 12.0697 22.837 12.3302 22.837 12.3302" stroke="#4F4131" stroke-linecap="round" stroke-linejoin="round"/>
<path d="M2.76124 11.2035C1.92974 11.2528 1.24622 9.20226 1.24622 7.15169C1.24622 5.10113 5.3403 2.36704 5.3403 2.36704C5.3403 2.36704 11.4849 1 13.5355 1C15.5861 1 18.8557 1.90902 20.6385 3.5086C22.4213 5.10113 23.2528 9.59686 23.5205 10.076C23.6826 10.372 23.4007 11.1401 23.1541 11.6968" stroke="#4F4131" stroke-linecap="round" stroke-linejoin="round"/>
<path d="M17.9401 23.4785L18.2783 24.7962" stroke="#4F4131" stroke-linecap="round" stroke-linejoin="round"/>
<path d="M12.4014 23.4785V25.825H11.2175" stroke="#4F4131" stroke-linecap="round" stroke-linejoin="round"/>
<path d="M15.5857 30.1093C15.5857 30.1093 15.628 30.0388 15.7126 29.905C16.1142 29.2567 17.446 27.1427 18.7919 25.1344C19.1865 24.5636 19.567 23.9999 19.9335 23.4784C20.7579 22.3017 21.4837 21.3645 21.8572 21.0756C23.0974 20.1243 27.6143 25.0287 27.6143 25.0287V25.825C27.6143 25.825 25.6412 25.374 25.0493 25.825C24.4715 26.2759 16.8823 31.4059 16.8823 31.4059" stroke="#4F4131" stroke-linecap="round" stroke-linejoin="round"/>
<path d="M14.7051 29.876C14.388 29.3052 12.2317 27.3956 10.7872 26.1483C10.0332 25.493 9.46946 25.0209 9.46946 25.0209C9.46946 25.0209 8.63091 23.4072 9.03257 23.4706C9.3849 23.5341 8.21516 22.6603 7.94739 22.463C7.9192 22.4418 7.89808 22.4277 7.89808 22.4277C7.89808 22.4277 5.38947 23.0196 5.02305 24.6474C4.64958 26.2681 4.67777 29.1784 4.67777 29.1784L5.50927 29.4321L12.0908 31.3981" stroke="#4F4131" stroke-linecap="round" stroke-linejoin="round"/>
<path d="M16.6227 32.9707C17.6374 34.4716 17.9404 43.1883 17.9404 43.1883" stroke="#4F4131" stroke-linecap="round" stroke-linejoin="round"/>
<path d="M12.4019 32.9707C11.4859 33.7881 13.3955 43.1883 13.3955 43.1883" stroke="#4F4131" stroke-linecap="round" stroke-linejoin="round"/>
<path d="M27.6148 25.8242C29.9331 26.2752 41.8208 36.528 43.0539 37.888C44.28 39.255 46.3306 41.3056 45.6471 42.6727C44.9636 44.0397 40.186 52.9254 38.1284 53.6019C37.1066 53.9472 36.1624 53.8486 35.4647 53.6724C34.7742 53.4892 34.3302 53.2214 34.3302 53.2214" stroke="#4F4131" stroke-linecap="round" stroke-linejoin="round"/>
<path d="M31.8574 55.5054L31.343 54.9629L27.8408 51.2775L27.6154 51.0379L29.9337 47.4512" stroke="#4F4131" stroke-linecap="round" stroke-linejoin="round"/>
<path d="M31.8568 55.5059C31.8147 55.5339 31.8217 55.5479 31.8848 55.5339L31.8568 55.5059Z" stroke="#4F4131" stroke-linecap="round" stroke-linejoin="round"/>
<path d="M35.458 53.666C35.458 53.666 33.5836 54.5609 32.5266 55.1106C32.1884 55.2867 31.9347 55.4347 31.8572 55.5052" stroke="#4F4131" stroke-linecap="round" stroke-linejoin="round"/>
<path d="M35.458 42.8359C35.458 42.8359 34.9225 42.9487 34.1755 43.1812C33.2736 43.449 32.0756 43.8859 31.1878 44.4496C30.462 44.9147 29.9335 45.4573 29.9335 46.0915C29.9335 48.142 31.5401 50.0798 31.5401 50.0798" stroke="#4F4131" stroke-linecap="round" stroke-linejoin="round"/>
<path d="M26.6496 36.2402L30.6803 39.4535L34.6334 42.6033L34.7109 42.6738" stroke="#4F4131" stroke-linecap="round" stroke-linejoin="round"/>
<path d="M36.0779 41.9904C36.7614 40.6233 41.2148 41.9904 41.2148 41.9904" stroke="#4F4131" stroke-linecap="round" stroke-linejoin="round"/>
<path d="M30.6799 39.4473C30.7011 39.6093 31.7228 43.5272 31.1802 44.4433" stroke="#4F4131" stroke-linecap="round" stroke-linejoin="round"/>
<path d="M27.6143 51.4961C26.522 51.5525 25.148 52.7363 24.1262 54.195C23.0974 55.6536 23.7809 58.3806 24.4715 58.3806C25.162 58.3806 25.606 56.3582 25.606 56.3582L27.1985 63.1653" stroke="#4F4131" stroke-linecap="round" stroke-linejoin="round"/>
<path d="M27.6149 59.2324L28.2632 62.8966L28.3125 63.1644" stroke="#4F4131" stroke-linecap="round" stroke-linejoin="round"/>
<path d="M29.2422 58.3809V62.7286" stroke="#4F4131" stroke-linecap="round" stroke-linejoin="round"/>
<path d="M30.6797 58.8379C30.6163 59.6976 30.0103 62.3682 29.9327 62.6924C29.9327 62.7135 29.9327 62.7276 29.9327 62.7276" stroke="#4F4131" stroke-linecap="round" stroke-linejoin="round"/>
<path d="M31.343 54.9629C31.2937 57.0205 31.3853 59.7546 31.343 60.7763C31.3078 61.481 31.0118 62.3407 30.8215 62.8128C30.744 63.0242 30.6806 63.1581 30.6806 63.1581" stroke="#4F4131" stroke-linecap="round" stroke-linejoin="round"/>
<path d="M32.6956 55.541C32.6674 57.0208 34.4362 62.4819 33.8936 63.1654C33.351 63.849 31.9769 64.5325 31.9769 64.5325V67.8726C31.9769 67.8726 31.3427 67.943 30.2998 68.0347C26.3607 68.4152 16.6153 69.296 13.7473 69C12.9511 68.9225 12.2957 68.8239 11.7672 68.7252C9.85056 68.3659 9.43481 67.9501 9.43481 67.9501V62.3058" stroke="#4F4131" stroke-linecap="round" stroke-linejoin="round"/>
<path d="M8.16635 34.9082C8.75122 36.5219 8.265 46.0841 8.16635 48.1347C8.09589 49.5792 7.03891 53.3915 6.66544 55.9987C6.51042 57.0909 6.47518 57.9717 6.68658 58.3804C7.14461 59.2824 8.69486 61.0582 9.70253 62.1715C10.231 62.7564 10.6045 63.1651 10.6045 63.1651" stroke="#4F4131" stroke-linecap="round" stroke-linejoin="round"/>
<path d="M5.37648 29.877C4.65772 31.0608 1.93069 37.8044 1.24012 41.9478C0.556601 46.0912 1.24012 51.4959 1.24012 51.4959L6.66602 56.0058" stroke="#4F4131" stroke-linecap="round" stroke-linejoin="round"/>
<path d="M28.3125 65.2358C25.8391 64.5241 20.371 63.1641 15.9316 63.1641H11.4922" stroke="#4F4131" stroke-linecap="round" stroke-linejoin="round"/>
<path d="M20.3643 71.36C19.6878 72.727 20.1106 90.3153 19.8992 92.1122C19.8569 92.4927 20.1881 93.6202 20.7448 95.1845C22.8306 101.04 28.0239 112.907 27.9605 113.569C27.9394 113.823 28.7779 113.872 29.9547 113.816C31.667 113.731 34.084 113.421 35.5286 113.217C36.2755 113.111 36.7617 113.041 36.7617 113.041C36.7617 113.041 28.5665 92.5491 28.5665 91.1821C28.5665 89.815 30.3 68.041 30.3 68.041" stroke="#4F4131" stroke-linecap="round" stroke-linejoin="round"/>
<path d="M11.4845 69.6133C11.3577 69.6837 11.2309 70.4589 11.1111 71.6709C10.5967 76.8783 10.2514 90.3233 10.8081 92.5359C11.4845 95.27 16.9527 111.667 16.9527 111.667H23.5977L20.7438 95.1784" stroke="#4F4131" stroke-linecap="round" stroke-linejoin="round"/>
<path d="M35.5277 113.211L35.8096 115.008" stroke="#4F4131" stroke-linecap="round" stroke-linejoin="round"/>
<path d="M28.9176 116.775L29.2422 116.443" stroke="#4F4131" stroke-linecap="round" stroke-linejoin="round"/>
<path d="M29.9682 113.957V116.064C29.9682 116.064 36.0776 115.768 36.2467 116.064C36.2467 116.064 38.1211 121.92 38.1211 122.603C38.1211 123.287 22.7525 126.042 22.7525 126.042C22.7525 126.042 21.7307 124.654 21.7307 123.97C21.7307 123.533 22.2803 123.104 22.8581 122.667C23.1964 122.42 23.5276 122.173 23.7812 121.92L28.8971 116.804" stroke="#4F4131" stroke-linecap="round" stroke-linejoin="round"/>
<path d="M18.2783 112.26V115.395" stroke="#4F4131" stroke-linecap="round" stroke-linejoin="round"/>
<path d="M22.3799 115.008V114.613V111.668" stroke="#4F4131" stroke-linecap="round" stroke-linejoin="round"/>
<path d="M22.4284 116.783L22.3791 116.065C21.7379 116.452 20.3638 117.136 19.0038 117.136C17.8129 117.136 17.6226 115.811 17.5945 115.473C17.5945 115.423 17.5945 115.402 17.5945 115.402C17.5945 115.402 14.9309 117.375 12.1897 117.601C9.44859 117.826 5.5941 118.771 5.47431 120.004C5.35452 121.237 6.03803 122.611 6.03803 122.611H22.8301L22.4355 116.805" stroke="#4F4131" stroke-linecap="round" stroke-linejoin="round"/>
<path d="M9.43422 16.0293C9.43422 16.7128 9.43423 18.7634 10.1177 18.7634H11.21" stroke="#4F4131" stroke-linecap="round" stroke-linejoin="round"/>
<path d="M11.2171 21.5613C11.2171 21.5613 13.5354 22.1814 15.5859 20.1309" stroke="#4F4131" stroke-linecap="round" stroke-linejoin="round"/>
<path d="M14.2197 13.296C14.0435 12.7182 14.424 12.7464 14.9032 12.6196C15.5796 12.4364 16.4534 12.6196 16.2702 13.296C16.1434 13.7823 15.481 14.1557 14.9032 13.9796C14.579 13.8809 14.3183 13.6202 14.2197 13.296Z" stroke="#4F4131" stroke-linecap="round" stroke-linejoin="round"/>
<path d="M6.87669 13.4802C7.58135 13.1632 8.24374 13.4098 8.37762 13.7621C8.53969 14.1849 8.00414 14.8966 7.55316 14.8473C7.17969 14.8191 6.76395 14.2413 6.88375 13.4802H6.87669Z" stroke="#4F4131" stroke-linecap="round" stroke-linejoin="round"/>
</svg>
