<svg width="49" height="135" viewBox="0 0 49 135" fill="none" xmlns="http://www.w3.org/2000/svg">
<path d="M21.5319 15.0027L19.5764 17.6699L20.6805 20.3438L17.2883 18.4149L14.2353 20.3438L15.0601 16.9249L12.9648 13.8919L15.805 13.2134L17.2883 10.2402L19.0376 13.8919L21.2858 14.557C21.3723 14.7167 21.4521 14.863 21.5319 15.0027Z" fill="#F5CF24"/>
<path d="M12.8315 14.6967L10.6565 17.6699L11.7673 20.3438L8.37509 18.4149L5.77436 20.0511L5.31541 20.3438L6.14684 16.9249L4.36426 14.3375C4.45738 14.2111 4.55716 14.0848 4.66358 13.9584C4.7434 13.8653 4.82321 13.7722 4.90968 13.6857L6.8918 13.2134L8.37509 10.2402L10.1244 13.8919L12.8315 14.6967Z" fill="#F5CF24"/>
<path d="M21.532 15.0013L21.7515 14.6953L21.2859 14.5556L19.0377 13.8905L17.2884 10.2388L15.8051 13.212L12.965 13.8905L15.0602 16.9235L14.2354 20.3424L17.2884 18.4135L20.6806 20.3424L19.5765 17.6685L21.532 15.0013ZM29.3275 15.5533C29.6002 15.6265 29.8197 15.8127 29.9927 16.1852C30.6645 17.6685 29.1812 21.3867 28.4362 21.3867C27.9706 21.3867 26.9263 21.4864 26.2013 21.5662V21.646L23.9731 23.575C23.6937 24.0007 23.3079 24.5195 22.869 24.9718L23.9797 28.0713L26.933 28.5636L28.4362 28.8163V29.4216C27.6912 30.2996 23.993 34.1109 22.869 35.1751C21.7515 36.246 20.2616 36.9843 18.0333 36.9843C15.8051 36.9843 15.8051 33.2728 15.8051 33.2728L18.1265 29.4282L17.887 28.8163L17.2884 27.3264C17.2884 27.3264 13.5769 28.0713 12.0737 28.0913C10.5705 28.1179 9.12045 26.5814 7.63053 24.3532C6.14726 22.125 6.32682 22.9165 6.14723 20.6417L5.77475 20.0497L8.37549 18.4135L11.7677 20.3424L10.6569 17.6685L12.8319 14.6953L10.1248 13.8905L8.37549 10.2388L6.89219 13.212L4.91007 13.6843L4.05205 13.8905L4.36465 14.3361C3.89905 14.9281 3.51993 15.3871 3.17406 14.6953C2.43575 13.212 3.17406 10.9838 3.17406 10.9838L0.999023 11.6755C0.999023 11.6755 1.69079 8.01062 3.17406 5.78239C4.66398 3.55415 5.44884 4.51196 5.44884 4.51196V1C5.44884 1 7.99634 1.92454 10.1448 2.05092C10.1448 2.05092 13.5836 2.58969 13.7432 2.69611H13.7498C14.701 2.11743 15.9514 1.71169 16.9957 1.57201C18.7783 1.32591 22.1173 1.95115 22.1173 1.95115L20.827 4.13282C20.827 4.13282 22.7758 2.82914 24.4919 2.82249C26.208 2.80918 29.6601 4.80463 30.1656 6.40762C30.6644 8.01062 31.7287 11.6755 31.7287 11.6755H30.1656L29.3608 15.4602L29.3275 15.5533Z" fill="#99B3C1"/>
<path d="M8.6747 54.6095L8.32219 54.5163L8.76117 52.8867L12.945 53.9776L12.772 55.5939C12.1135 58.2943 9.85204 67.0609 10.2046 68.624C10.6036 70.4199 12.6855 73.7989 12.3862 75.4551H10.2046L9.95181 75.3553L8.76117 78.4881L7.15153 78.8007L5.54856 79.1067L5.05632 79.1998L4.77031 78.701L3.91895 77.2177V74.1314C3.91895 71.9032 6.89212 66.7018 6.89212 64.9258C6.89212 63.2563 8.1958 56.4852 8.6747 54.6095Z" fill="#99B3C1"/>
<path d="M28.4356 29.4221V28.8169L26.9324 28.5641L26.979 28.3047C27.5177 28.4045 29.2405 28.451 29.2405 28.451C31.4487 29.1295 34.3753 30.3001 34.3753 30.3001C34.3753 30.3001 37.3486 31.7834 38.0935 33.2733C38.8385 34.7566 43.2949 42.9312 43.2949 42.9312C43.2949 42.9312 42.7695 44.7537 42.0378 46.3966L42.9357 49.4031C43.9069 53.5269 45.5232 63.8433 45.5232 64.4752C45.5232 65.2202 47.7514 68.1934 47.7514 69.6766C47.7514 70.7808 46.7736 74.3127 46.2681 76.0421L45.9888 75.9622L44.0732 75.8159L43.0156 75.7361L42.0844 75.6696L40.3018 75.5299L39.3041 75.4567C39.4438 74.8182 39.7497 73.7074 40.3018 73.1088L39.8428 72.8095L40.2353 71.8916C39.8162 71.7319 40.0291 70.3152 40.1887 68.9982L39.5768 68.9317C39.5768 68.9317 35.8653 71.1599 33.4375 72.2308C31.482 73.0888 22.1966 72.8361 17.8864 72.4902C16.8422 72.4037 16.0906 72.3106 15.8045 72.2308C14.3213 71.8118 15.8045 61.502 15.8045 59.899C15.8045 59.2937 15.5185 57.2052 15.1593 54.8439L12.971 53.9925L12.9444 53.9792L8.76065 52.8884L7.62994 52.5891C7.62994 52.5891 6.8916 52.5891 6.8916 49.6159C6.8916 46.6427 10.6031 38.4747 12.0731 36.3795C13.5431 34.2843 16.5495 30.3001 17.8864 28.8169L18.1259 29.4221L15.8045 33.2733C15.8045 33.2733 15.8045 36.9848 18.0328 36.9848C20.261 36.9848 21.7509 36.2465 22.8684 35.1756C23.9925 34.1114 27.6907 30.3001 28.4356 29.4221Z" fill="#99B3C1"/>
<path d="M26.8931 118.284V121.125C27.2257 120.872 27.5317 120.619 27.8044 120.406C27.8044 120.406 27.7046 127.623 27.7911 128.055C27.3188 128.055 17.2485 132.831 15.8052 133.117C14.3219 133.41 7.63055 134.314 6.89224 133.117C6.14728 131.926 8.37553 129.851 12.9451 127.43C15.9449 125.834 18.479 124.178 19.8692 123.226L22.1174 122.116L22.869 118.284L22.8956 118.045C23.9399 118.165 25.789 118.344 26.8931 118.264V118.284Z" fill="#99B3C1"/>
<path d="M35.2668 110.449C34.5485 111.168 33.9366 111.686 33.9366 111.686L29.1143 107.715C29.653 103.578 30.265 99.0353 30.7439 95.8359C32.1473 97.1662 35.4398 105.181 37.1359 106.372C37.6081 106.704 37.5749 107.263 37.2689 107.895C36.8698 108.733 36.0118 109.704 35.2668 110.449Z" fill="#99B3C1"/>
<path d="M39.2116 108.46C39.2116 108.46 41.0674 110.535 41.247 111.686C41.4266 112.83 40.3224 123.166 38.8392 125.72C37.3492 128.275 33.6377 128.368 33.3052 125.72C33.0391 123.612 34.8217 117.12 35.5533 114.559V114.539L36.7307 112.092L35.8659 110.921L35.2673 110.449C36.0123 109.704 36.8703 108.733 37.2694 107.895L39.2116 109.963C39.2981 109.351 39.3048 108.806 39.2116 108.46Z" fill="#99B3C1"/>
<path d="M20.1748 89.2983C19.5163 87.1699 19.0175 79.1083 18.8445 75.9622H18.778L17.8867 72.4901C22.1969 72.836 31.4823 73.0888 33.4378 72.2307C35.8656 71.1599 39.577 68.9316 39.577 68.9316L40.189 68.9981C40.0293 70.3151 39.8165 71.7319 40.2355 71.8915L39.8431 72.8094L38.8388 72.0379C38.0938 73.3881 32.1474 88.9924 31.4091 91.9656C31.2561 92.5708 31.0233 93.9743 30.744 95.8367C30.2651 99.036 29.6531 103.579 29.1144 107.716C28.4226 112.991 27.8506 117.6 27.804 117.946C27.7774 118.132 27.4182 118.225 26.8928 118.265C25.7886 118.345 23.9395 118.166 22.8952 118.046C22.423 117.986 22.117 117.946 22.117 117.946C22.117 117.946 20.095 113.543 20.1815 110.922C20.248 108.647 20.2613 94.8523 20.7535 89.3515L20.1748 89.2983Z" fill="#99B3C1"/>
<path d="M11.3486 22.8704C12.8319 24.3536 15.0601 23.6153 15.0601 23.6153C15.0601 23.6153 16.703 22.6509 16.9957 21.6465" stroke="#4F4131" stroke-linecap="round" stroke-linejoin="round"/>
<path d="M18.126 29.4297L18.7778 31.046" stroke="#4F4131" stroke-linecap="round" stroke-linejoin="round"/>
<path d="M6.14746 20.6426C6.32705 22.9174 6.14749 22.1258 7.63076 24.3541C9.12068 26.5823 10.5707 28.1188 12.0739 28.0922C13.5771 28.0722 17.2886 27.3273 17.2886 27.3273L17.8873 28.8172L18.1267 29.4225" stroke="#4F4131" stroke-linecap="round" stroke-linejoin="round"/>
<path d="M26.2073 16.186C27.3181 16.186 28.5154 15.3479 29.3268 15.5541C29.5995 15.6273 29.819 15.8135 29.992 16.186C30.6638 17.6693 29.1805 21.3874 28.4355 21.3874C27.9699 21.3874 26.9257 21.4872 26.2007 21.567C25.7617 21.6069 25.4424 21.6468 25.4424 21.6468" stroke="#4F4131" stroke-linecap="round" stroke-linejoin="round"/>
<path d="M24.4918 22.7227C24.4918 22.7227 24.2988 23.0885 23.9729 23.574C23.6936 23.9997 23.3078 24.5185 22.8688 24.9708C22.5229 25.33 22.1438 25.6426 21.7514 25.8422C20.2614 26.5805 20.1816 26.8931 20.1816 26.8931" stroke="#4F4131" stroke-linecap="round" stroke-linejoin="round"/>
<path d="M28.4364 28.8172L26.9332 28.5644L23.9799 28.0722L22.8691 24.9727" stroke="#4F4131" stroke-linecap="round" stroke-linejoin="round"/>
<path d="M28.4358 29.4219C27.6908 30.2999 23.9926 34.1112 22.8685 35.1754C21.7511 36.2463 20.2611 36.9846 18.0329 36.9846C15.8047 36.9846 15.8047 33.2731 15.8047 33.2731L18.126 29.4285" stroke="#4F4131" stroke-linecap="round" stroke-linejoin="round"/>
<path d="M28.4365 28.2188C28.6893 28.2853 28.9554 28.3651 29.2414 28.4516C31.4496 29.13 34.3763 30.3007 34.3763 30.3007C34.3763 30.3007 37.3495 31.7839 38.0944 33.2738C38.8394 34.7571 43.2959 42.9317 43.2959 42.9317C43.2959 42.9317 42.7704 44.7542 42.0387 46.3971C41.5332 47.5279 40.9279 48.5722 40.3226 48.8715C38.8394 49.6164 34.3763 51.0997 34.3763 51.0997L29.1815 41.4418" stroke="#4F4131" stroke-linecap="round" stroke-linejoin="round"/>
<path d="M12.9717 53.9922L14.1756 54.3048" stroke="#4F4131" stroke-linecap="round" stroke-linejoin="round"/>
<path d="M8.76074 52.8867L12.9445 53.9776" stroke="#4F4131" stroke-linecap="round" stroke-linejoin="round"/>
<path d="M17.8864 28.8164C16.5495 30.2997 13.5431 34.2839 12.0731 36.3791C10.6031 38.4743 6.8916 46.6423 6.8916 49.6154C6.8916 52.5886 7.62994 52.5886 7.62994 52.5886L8.76065 52.8813" stroke="#4F4131" stroke-linecap="round" stroke-linejoin="round"/>
<path d="M12.3867 43.2031C12.8324 43.6754 13.8168 46.4291 13.8168 46.4291C13.8168 46.4291 14.5817 50.9986 15.1604 54.8431C15.5195 57.2044 15.8056 59.293 15.8056 59.8982C15.8056 61.5012 14.3223 71.811 15.8056 72.23C16.0916 72.3098 16.8432 72.4029 17.8875 72.4894C22.1976 72.8353 31.483 73.088 33.4385 72.23C35.8663 71.1591 39.5778 68.9309 39.5778 68.9309" stroke="#4F4131" stroke-linecap="round" stroke-linejoin="round"/>
<path d="M38.8389 56.3008L39.5772 64.9277" stroke="#4F4131" stroke-linecap="round" stroke-linejoin="round"/>
<path d="M8.76117 54.3047C8.73457 54.3845 8.70796 54.4843 8.6747 54.6107C8.1958 56.4864 6.89212 63.2575 6.89212 64.927C6.89212 66.703 3.91895 71.9044 3.91895 74.1326V78.4893" stroke="#4F4131" stroke-linecap="round" stroke-linejoin="round"/>
<path d="M5.44795 74.6914L4.76949 78.7022L4.66309 79.3341" stroke="#4F4131" stroke-linecap="round" stroke-linejoin="round"/>
<path d="M6.89159 75.9609L5.54803 79.1071L5.44824 79.3332" stroke="#4F4131" stroke-linecap="round" stroke-linejoin="round"/>
<path d="M8.76065 75.457L7.15102 78.8027L6.8916 79.3348" stroke="#4F4131" stroke-linecap="round" stroke-linejoin="round"/>
<path d="M10.2041 74.6914L9.95138 75.3566L8.76074 78.4894" stroke="#4F4131" stroke-linecap="round" stroke-linejoin="round"/>
<path d="M10.2041 75.4566H12.3857C12.685 73.8004 10.6031 70.4214 10.2041 68.6255C9.85153 67.0624 12.113 58.2958 12.7715 55.5954C12.8646 55.2029 12.9311 54.9369 12.9444 54.8438" stroke="#4F4131" stroke-linecap="round" stroke-linejoin="round"/>
<path d="M37.1367 51.0977L41.806 63.7287C41.806 63.7287 40.3227 65.957 40.3227 67.4469C40.3227 67.8726 40.2629 68.4246 40.1897 68.9967C40.0301 70.3136 39.8172 71.7304 40.2363 71.89C40.2629 71.8967 40.2895 71.9034 40.3227 71.9034C41.0677 71.9034 41.0677 72.6151 41.806 70.7726C42.551 68.9302 42.551 68.1918 42.551 68.1918" stroke="#4F4131" stroke-linecap="round" stroke-linejoin="round"/>
<path d="M40.6809 72.8086C40.5412 72.8818 40.4149 72.9815 40.3018 73.1079C39.7497 73.7065 39.4437 74.8173 39.3041 75.4559C39.2376 75.7618 39.2109 75.9614 39.2109 75.9614" stroke="#4F4131" stroke-linecap="round" stroke-linejoin="round"/>
<path d="M42.5508 72.8086L40.3026 75.529L39.9434 75.9614" stroke="#4F4131" stroke-linecap="round" stroke-linejoin="round"/>
<path d="M43.2954 72.8086L42.0848 75.6687L41.6924 76.5933" stroke="#4F4131" stroke-linecap="round" stroke-linejoin="round"/>
<path d="M44.5994 72.8086L43.0163 75.7352L42.5508 76.5933" stroke="#4F4131" stroke-linecap="round" stroke-linejoin="round"/>
<path d="M45.9887 72.8086L44.0731 75.815L43.5742 76.5933" stroke="#4F4131" stroke-linecap="round" stroke-linejoin="round"/>
<path d="M42.4902 47.8867C42.61 48.1461 42.7629 48.6782 42.9359 49.4032C43.907 53.5271 45.5233 63.8435 45.5233 64.4754C45.5233 65.2204 47.7515 68.1936 47.7515 69.6768C47.7515 70.781 46.7738 74.3129 46.2682 76.0423C46.102 76.6342 45.9889 77.0134 45.9889 77.0134" stroke="#4F4131" stroke-linecap="round" stroke-linejoin="round"/>
<path d="M38.8387 72.0371C38.0937 73.3874 32.1473 88.9916 31.409 91.9648C31.2561 92.5701 31.0233 93.9736 30.7439 95.836C30.265 99.0353 29.6531 103.578 29.1143 107.715C28.4225 112.99 27.8505 117.599 27.8039 117.945C27.7773 118.132 27.4181 118.225 26.8927 118.265C25.7885 118.344 23.9394 118.165 22.8952 118.045C22.4229 117.985 22.117 117.945 22.117 117.945C22.117 117.945 20.0949 113.542 20.1814 110.921C20.2479 108.647 20.2612 94.8515 20.7534 89.3508C20.8266 88.5327 20.9064 87.8941 21.0062 87.5084C21.7511 84.5352 24.4915 74.6977 24.4915 74.6977" stroke="#4F4131" stroke-linecap="round" stroke-linejoin="round"/>
<path d="M18.7783 74.6914C18.7783 74.6914 18.805 75.1703 18.8449 75.9618C19.0178 79.108 19.5167 87.1695 20.1751 89.298" stroke="#4F4131" stroke-linecap="round" stroke-linejoin="round"/>
<path d="M30.7439 95.8359C32.1473 97.1662 35.4398 105.181 37.1359 106.372C37.6081 106.704 37.5749 107.263 37.2689 107.895C36.8698 108.733 36.0118 109.704 35.2668 110.449C34.5219 111.194 33.9366 111.686 33.9366 111.686L29.1143 107.715" stroke="#4F4131" stroke-linecap="round" stroke-linejoin="round"/>
<path d="M27.7909 128.055C27.7044 127.623 27.8042 120.406 27.8042 120.406C27.5314 120.619 27.2255 120.872 26.8929 121.125C25.2567 122.402 23.0484 123.945 22.1172 123.253" stroke="#4F4131" stroke-linecap="round" stroke-linejoin="round"/>
<path d="M27.791 128.057C27.791 128.057 27.804 128.063 27.804 128.07C27.7975 128.083 27.791 128.076 27.791 128.057Z" stroke="#4F4131" stroke-linecap="round" stroke-linejoin="round"/>
<path d="M21.0066 122.422C21.0066 122.422 20.5942 122.728 19.8692 123.227C18.479 124.178 15.9449 125.834 12.9451 127.43C8.37553 129.852 6.14728 131.927 6.89224 133.117C7.63055 134.315 14.3219 133.41 15.8052 133.117C17.2485 132.831 27.3188 128.056 27.7911 128.056" stroke="#4F4131" stroke-linecap="round" stroke-linejoin="round"/>
<path d="M35.5533 114.56C34.8217 117.121 33.0391 123.613 33.3052 125.721C33.6377 128.369 37.3492 128.276 38.8392 125.721C40.3224 123.167 41.4266 112.831 41.247 111.687C41.0674 110.536 39.2116 108.461 39.2116 108.461C39.3048 108.807 39.2981 109.352 39.2116 109.964C38.9589 111.694 38.0742 113.962 37.1364 113.769" stroke="#4F4131" stroke-linecap="round" stroke-linejoin="round"/>
<path d="M35.8655 113.51C35.8655 113.51 35.7458 113.896 35.5596 114.541" stroke="#4F4131" stroke-linecap="round" stroke-linejoin="round"/>
<path d="M26.8936 118.285V121.125" stroke="#4F4131" stroke-linecap="round" stroke-linejoin="round"/>
<path d="M22.8688 118.285L22.1172 122.116" stroke="#4F4131" stroke-linecap="round" stroke-linejoin="round"/>
<path d="M35.8662 110.922L36.7309 112.093L37.1367 112.631" stroke="#4F4131" stroke-linecap="round" stroke-linejoin="round"/>
<path d="M37.2695 107.895L39.2117 109.963" stroke="#4F4131" stroke-linecap="round" stroke-linejoin="round"/>
<path d="M11.3486 9.34824C12.8319 8.75626 13.5769 6.70097 15.8051 7.35281C17.4081 7.82506 19.9755 12.1618 21.2859 14.5563C21.3724 14.716 21.4522 14.8623 21.532 15.002C21.8978 15.6804 22.1173 16.1194 22.1173 16.1194L23.288 12.4877L24.4919 16.1194L26.208 14.696" stroke="#4F4131" stroke-linecap="round" stroke-linejoin="round"/>
<path d="M13.75 2.6971C14.7012 2.11842 15.9516 1.71268 16.9959 1.573C18.7785 1.3269 22.1175 1.95214 22.1175 1.95214L20.8271 4.13381C20.8271 4.13381 22.776 2.83013 24.4921 2.82348C26.2082 2.81017 29.6602 4.80561 30.1657 6.40861C30.6646 8.01161 31.7289 11.6765 31.7289 11.6765H30.1657L29.3609 15.4612" stroke="#4F4131" stroke-linecap="round" stroke-linejoin="round"/>
<path d="M12.3867 4.13203C12.5663 3.58661 13.0785 3.0944 13.7436 2.69531" stroke="#4F4131" stroke-linecap="round" stroke-linejoin="round"/>
<path d="M10.6037 2.06423C10.4574 2.06423 10.3044 2.06422 10.1448 2.05092C7.99634 1.92454 5.44884 1 5.44884 1V4.51196C5.44884 4.51196 4.66398 3.55415 3.17406 5.78239C1.69079 8.01062 0.999023 11.6755 0.999023 11.6755L3.17406 10.9838C3.17406 10.9838 2.43575 13.212 3.17406 14.6953C3.51993 15.3871 3.89905 14.9281 4.36465 14.3361C4.45777 14.2097 4.55755 14.0834 4.66397 13.957C4.74379 13.8639 4.8236 13.7708 4.91007 13.6843C5.33576 13.252 5.80138 12.9526 5.80138 12.9526L7.63053 9.49388H9.85874" stroke="#4F4131" stroke-linecap="round" stroke-linejoin="round"/>
<path d="M21.2858 14.557L19.0376 13.8919L17.2883 10.2402L15.805 13.2134L12.9648 13.8919L15.0601 16.9249L14.2353 20.3438L17.2883 18.4149L20.6805 20.3438L19.5764 17.6699L21.5319 15.0027L21.7514 14.6967L21.2858 14.557Z" stroke="#4F4131" stroke-linecap="round" stroke-linejoin="round"/>
<path d="M5.77446 20.0511L8.37519 18.4149L11.7674 20.3438L10.6566 17.6699L12.8316 14.6967L10.1245 13.8919L8.37519 10.2402L6.89189 13.2134L4.90978 13.6857L4.05176 13.8919L4.36436 14.3375L6.14694 16.9249L5.31551 20.3438L5.77446 20.0511Z" stroke="#4F4131" stroke-linecap="round" stroke-linejoin="round"/>
</svg>
