<svg width="41" height="128" viewBox="0 0 41 128" fill="none" xmlns="http://www.w3.org/2000/svg">
<path d="M9.73173 6.35572H11.3807L12.4658 3.62163C12.3108 3.54412 12.1769 3.4666 12.0571 3.39613C11.4088 3.00153 11.1622 2.65625 10.8874 2.65625C10.7535 2.65625 10.6126 2.7408 10.4153 2.93811C9.73176 3.62163 9.73173 6.35572 9.73173 6.35572Z" fill="#F5CF24"/>
<path d="M14.0234 2.79102L12.0573 3.39702C12.1771 3.46749 12.311 3.54501 12.466 3.62252L11.3809 6.35661C11.3809 6.35661 15.2001 9.76716 16.5601 9.76716C17.5819 9.76716 18.2231 7.07535 18.5966 5.53215C18.7164 5.01774 18.808 4.63019 18.8785 4.50335C19.1462 4.01713 17.9272 2.939 16.9547 2.65714C16.2712 2.45279 14.9817 2.34004 14.0515 2.77693L14.0234 2.79102Z" fill="#F5CF24"/>
<path d="M9.61932 1.98683C8.18885 1.18351 4.8276 0.450665 4.26387 1.57812C3.5874 2.94516 4.26387 7.40567 4.26387 7.90598C4.26387 8.20898 5.30679 8.59654 6.27218 8.67406C6.85705 8.73043 7.42077 8.67405 7.6815 8.40628C8.36502 7.72276 9.73204 6.35573 9.73204 6.35573C9.73204 6.35573 9.73206 3.62164 10.4156 2.93812C10.6129 2.74082 10.7538 2.65626 10.8877 2.65626L10.5424 2.4801L9.62637 1.98683H9.61932Z" fill="#F5CF24"/>
<path d="M33.6412 24.3027L29.3428 32.3147L35.0082 34.3582L39.1094 26.1701L33.6412 24.3027Z" fill="#F5CF24"/>
<path d="M32.9573 34.3601C33.6338 33.6837 35.6914 36.4107 35.6914 36.4107L37.7137 32.3589L37.4601 32.2391C37.8829 31.3512 40.1659 26.8203 39.9827 25.8267C39.7854 24.8049 34.282 23.3111 34.282 23.3111C34.282 23.3111 34.2045 23.1913 33.2392 23.3111C32.7389 23.3745 31.2168 25.7844 29.9554 28.293C28.7716 30.6395 27.8203 33.0706 28.1585 33.7189C28.8632 35.0436 32.2737 35.7342 32.2737 35.7342H32.6825C32.6965 35.0648 32.7741 34.5504 32.9573 34.3672V34.3601ZM29.3424 32.3166L33.6338 24.3046L39.1019 26.172L35.0078 34.3672L29.3424 32.3166Z" fill="#F5CF24"/>
<path d="M19.8997 20.2516C19.949 20.3221 20.703 21.4002 22.0982 21.9287C22.2815 21.9992 22.4365 22.0274 22.5775 22.0274C23.5147 22.0274 23.4442 20.5123 23.8176 19.2228C24.0431 18.4336 23.9093 17.7501 23.5428 17.3202L24.1488 16.9256C24.2686 16.9256 24.3955 16.9045 24.5153 16.8551C25.6427 16.4253 25.4384 12.5003 24.5153 10.5766C23.5922 8.6529 21.3443 6.35571 18.9132 5.62286L18.5961 5.53125C18.2226 7.0815 17.5814 9.76627 16.5596 9.76627C15.1926 9.76627 11.3804 6.35571 11.3804 6.35571H9.73147C9.73147 6.35571 8.36444 7.72275 7.68092 8.40627C7.4202 8.66699 6.85647 8.73041 6.2716 8.67404L5.51056 10.7669C5.20051 14.1845 5.67263 24.3316 5.86289 25.8255C6.08838 27.5308 0.852762 29.5813 0.852762 30.2648C0.852762 30.9484 3.58683 32.9989 7.08899 33.4288C8.66038 33.619 9.10431 33.3231 9.11136 32.9425C8.70971 32.414 8.49833 31.9208 8.47719 31.8574C8.54766 31.9278 9.11841 32.4916 9.11136 32.9425C9.38618 33.309 9.75261 33.6895 10.2177 33.9502C10.8096 34.2885 11.5565 34.4364 12.4656 34.1264C14.6923 33.3724 13.7621 32.3365 13.3393 31.9772C13.7198 32.2379 14.65 32.7523 15.1503 31.8503C15.7845 30.6876 13.1491 27.5378 13.3605 24.543C13.3605 24.543 17.2502 23.4437 18.9203 21.9357C19.4135 21.4989 19.7095 20.9069 19.9068 20.2586L19.8997 20.2516Z" fill="#EA9B9E"/>
<path d="M29.3418 27.3971C29.3418 27.3971 28.8555 26.8545 26.96 26.9743C25.6352 27.0589 24.4091 27.9679 23.6481 28.7148L22.0274 30.5963C23.0139 31.8506 24.381 33.6122 25.5084 35.1977L25.7903 34.9933L26.0792 34.0984C26.361 33.7884 26.7416 33.1965 26.6147 32.3086C26.4174 30.9415 26.2483 29.7014 26.2483 29.7014C26.2483 29.7014 27.4956 28.2075 28.771 28.2145C29.1586 28.2145 29.3558 28.144 29.4615 28.0383C29.687 27.7988 29.3488 27.3901 29.3488 27.3901L29.3418 27.3971Z" fill="#EA9B9E"/>
<path d="M33.64 42.561L29.3768 47.5993L28.1578 45.7178L23.6057 48.4731L23.9298 49.0086C23.9298 49.0086 27.4179 52.2923 28.5806 53.0956C28.7003 53.1732 28.799 53.2295 28.8624 53.2577C29.4403 53.4621 33.943 50.0515 35.3101 47.7684L35.6976 47.6486C36.2825 47.4725 36.212 46.6691 36.212 46.6691C36.212 46.6691 37.7482 45.9856 38.1357 45.1118C38.5233 44.2381 39.1152 39.1575 39.1152 37.7904C39.1152 36.4234 37.7482 32.3223 37.7482 32.3223L37.7271 32.3716L35.7047 36.4234C35.7047 36.4234 33.6471 33.6963 32.9706 34.3728C32.7874 34.556 32.7099 35.0775 32.6958 35.7469C32.6606 37.0999 32.9213 39.0659 33.2595 40.1369L33.6541 42.568L33.64 42.561Z" fill="#EA9B9E"/>
<path d="M23.6065 48.2627L28.1586 45.5075L28.8633 45.0847C28.8633 45.0847 26.8057 41.6671 27.4962 41.9348C28.1868 42.2026 28.1798 40.3 27.4962 38.2565C27.2778 37.5871 26.4815 36.3539 25.5161 34.9939C24.3887 33.4084 23.0216 31.6468 22.0351 30.3925C21.2248 29.3778 20.6681 28.6942 20.6681 28.6942C20.6681 28.6942 19.5195 27.5457 18.082 27.2497L18.096 27.1863L17.7437 26.242C17.8565 26.0165 18.1806 25.7629 18.9275 25.6149C20.2171 25.3542 20.964 24.4804 21.4996 23.7264L22.1197 21.8238H22.5988C22.4579 21.8238 22.3029 21.7886 22.1197 21.7181C20.7174 21.1896 19.9705 20.1115 19.9211 20.041C19.7238 20.6893 19.4349 21.2742 18.9346 21.7181C17.2646 23.219 13.3749 24.3254 13.3749 24.3254C13.1635 27.3202 15.8059 30.47 15.1647 31.6327C14.6644 32.5347 13.7342 32.0273 13.3537 31.7595C13.7765 32.1189 14.7067 33.1618 12.4799 33.9088C11.578 34.2118 10.831 34.0708 10.2321 33.7326L9.83745 36.0932L9.74584 36.6428C8.91434 42.1251 8.54791 57.3739 8.54791 57.3739C8.54791 57.3739 9.87974 58.4027 11.43 59.4456C12.7407 60.3265 14.2063 61.2214 15.1647 61.5103C16.729 61.9895 22.2113 62.1586 25.4034 61.9119C26.4815 61.8274 27.2989 61.6935 27.616 61.5103C28.8774 60.7915 27.616 52.9205 27.616 52.9205L28.5955 52.8782C27.4328 52.0749 23.9448 48.7912 23.9448 48.7912L23.6206 48.2556L23.6065 48.2627Z" fill="#EA9B9E"/>
<path d="M6.32783 115.648L6.27144 115.754C5.66544 117.318 6.32078 123.505 6.32078 123.505H8.51931L10.0414 118.883L11.7748 123.167H12.3315L12.4513 123.188L13.917 117.72L13.8183 117.699C13.1419 117.023 11.4296 115.648 11.4296 115.648H6.31372H6.32783Z" fill="#EA9B9E"/>
<path d="M11.6266 113.294L15.1992 106.678C13.1487 106.093 12.4652 104.789 11.4364 104.416C11.2743 104.352 11.1333 104.303 10.9994 104.268L9.92132 106.678L9.68877 106.607L7.53956 113.294L6.32757 115.648H10.8867L11.6336 113.294H11.6266Z" fill="#EA9B9E"/>
<path d="M14.6077 115.219L13.9312 117.727L12.4655 123.196L12.3457 123.639L14.7698 124.915L15.4885 123.513L16.475 121.603C16.475 121.603 17.3488 122.59 18.3353 123.661C19.1527 124.556 20.0477 125.514 20.5761 126.028C21.7388 127.163 28.5036 127.839 28.1865 126.289C27.8694 124.739 24.8605 122.716 23.2891 121.624C21.7177 120.539 19.8926 117.974 19.505 116.417C19.4839 116.318 19.4487 116.233 19.4134 116.156C18.899 115.036 17.2995 115.818 14.9248 115.289C14.8261 115.268 14.7275 115.24 14.6218 115.219H14.6077Z" fill="#EA9B9E"/>
<path d="M14.9027 115.288C17.2774 115.824 18.877 115.035 19.3914 116.155L20.5259 114.795V114.781C21.442 113.125 21.8013 111.103 21.9352 109.785L22.4355 106.938C21.3574 105.973 21.1742 105.05 19.786 105.486C18.6727 105.832 17.9821 106.395 17.1717 106.67C17.2281 108.495 16.7349 111.251 15.7483 113.287L14.8957 115.281L14.9027 115.288Z" fill="#EA9B9E"/>
<path d="M16.4678 121.602L15.4813 123.511L18.3281 123.666C17.3416 122.588 16.4678 121.609 16.4678 121.609V121.602Z" fill="#EA9B9E"/>
<path d="M11.0001 104.267C11.134 104.302 11.282 104.352 11.437 104.415C12.4658 104.789 13.1493 106.092 15.1999 106.677C16.0314 106.917 16.6374 106.867 17.18 106.677C17.9903 106.409 18.6809 105.846 19.7943 105.493C21.1825 105.056 21.3657 105.979 22.4438 106.945C22.8102 107.276 23.2824 107.607 23.9377 107.896C26.5309 109.031 28.1797 108.143 29.8145 105.5C31.4564 102.851 25.3964 62.2412 25.3964 62.2412V62.1284C22.1972 62.3751 16.7149 62.1989 15.1506 61.7268C14.1922 61.4308 12.7195 60.5429 11.4159 59.6621C11.4159 59.6621 5.63765 82.8666 5.86314 85.3117C6.08863 87.7569 4.26355 101.308 4.26355 103.358C4.26355 105.409 6.99763 104.725 8.53379 104.415C9.82332 104.154 10.2743 104.07 11.0001 104.267Z" fill="#EA9B9E"/>
<path d="M11.3797 6.35572L12.4648 3.62163C12.3098 3.54412 12.1759 3.4666 12.0561 3.39613C11.4078 3.00153 11.1612 2.65625 10.8864 2.65625C10.7525 2.65625 10.6116 2.7408 10.4143 2.93811C9.73078 3.62163 9.73076 6.35572 9.73076 6.35572H11.3797Z" stroke="#4F4131" stroke-linecap="round" stroke-linejoin="round"/>
<path d="M14.0576 2.78279C14.9877 2.3459 16.2773 2.45865 16.9608 2.663C17.9262 2.94486 19.1523 4.03004 18.8845 4.50921C18.814 4.629 18.7225 5.02361 18.6027 5.53802C18.2292 7.08827 17.5879 9.77302 16.5662 9.77302C15.1991 9.77302 11.3869 6.36247 11.3869 6.36247" stroke="#4F4131" stroke-linecap="round" stroke-linejoin="round"/>
<path d="M13.1493 3.62782C13.3394 3.24051 13.6492 2.97292 14.0225 2.79688" stroke="#4F4131" stroke-linecap="round" stroke-linejoin="round"/>
<path d="M10.2246 2.4801C10.1401 2.31802 9.92162 2.1489 9.62567 1.98683C8.1952 1.18351 4.83395 0.450665 4.27022 1.57812C3.59375 2.94516 4.27022 7.40567 4.27022 7.90598C4.27022 8.20898 5.31314 8.59654 6.27853 8.67406C6.8634 8.73043 7.42712 8.67405 7.68785 8.40628C8.37137 7.72276 9.73839 6.35573 9.73839 6.35573" stroke="#4F4131" stroke-linecap="round" stroke-linejoin="round"/>
<path d="M5.50352 10.767C5.5458 10.2808 5.60217 9.94256 5.67969 9.77344" stroke="#4F4131" stroke-linecap="round" stroke-linejoin="round"/>
<path d="M8.47022 31.844C8.54068 31.9144 9.11147 32.4852 9.10443 32.9362C9.09033 33.3238 8.65341 33.6127 7.08201 33.4224C3.57985 32.9926 0.845784 30.9491 0.845784 30.2585C0.845784 29.5679 6.0814 27.5244 5.85591 25.8191C5.6586 24.3253 5.18648 14.1781 5.50358 10.7676" stroke="#4F4131" stroke-linecap="round" stroke-linejoin="round"/>
<path d="M13.3387 31.9694C13.7615 32.3288 14.6917 33.3717 12.4649 34.1186C11.563 34.4216 10.816 34.2807 10.2171 33.9425C9.75199 33.6817 9.38557 33.3012 9.11075 32.9348C8.70909 32.4063 8.49772 31.913 8.47658 31.8496" stroke="#4F4131" stroke-linecap="round" stroke-linejoin="round"/>
<path d="M11.0986 8.69531C11.7821 9.77344 13.572 21.5342 13.3606 24.5361C13.1492 27.5309 15.7916 30.6807 15.1504 31.8434C14.6501 32.7454 13.7199 32.238 13.3394 31.9703C13.3183 31.9491 13.2901 31.935 13.269 31.9139C13.2196 31.8857 13.1914 31.8575 13.1773 31.8434" stroke="#4F4131" stroke-linecap="round" stroke-linejoin="round"/>
<path d="M18.9201 5.62305C21.3512 6.35589 23.599 8.65309 24.5221 10.5768C25.4452 12.5005 25.6496 16.4325 24.5221 16.8553C24.4023 16.8976 24.2755 16.9258 24.1557 16.9258C23.134 16.9258 22.1051 15.5024 22.1051 15.5024" stroke="#4F4131" stroke-linecap="round" stroke-linejoin="round"/>
<path d="M19.9004 20.252C19.7031 20.9002 19.4142 21.4851 18.9139 21.929C17.2438 23.43 13.3541 24.5363 13.3541 24.5363" stroke="#4F4131" stroke-linecap="round" stroke-linejoin="round"/>
<path d="M22.1055 11.2734C22.035 11.816 22.0844 13.7186 21.0344 15.5014C20.2945 16.7627 20.379 18.6935 19.8999 20.2438" stroke="#4F4131" stroke-linecap="round" stroke-linejoin="round"/>
<path d="M22.1048 16.9254C22.7108 16.7704 23.2252 16.9466 23.5494 17.32C23.9158 17.7499 24.0497 18.4334 23.8242 19.2226C23.4507 20.5121 23.5212 22.0272 22.584 22.0272C22.443 22.0272 22.288 21.999 22.1048 21.9285C20.7025 21.4 19.9556 20.3219 19.9063 20.2514" stroke="#4F4131" stroke-linecap="round" stroke-linejoin="round"/>
<path d="M21.9219 23.3105C21.788 23.4938 21.6471 23.7051 21.485 23.9377C20.9494 24.6917 20.2096 25.5655 18.913 25.8262C18.159 25.9812 17.8419 26.2278 17.7292 26.4533C17.5812 26.7281 17.7292 26.9748 17.7292 26.9748" stroke="#4F4131" stroke-linecap="round" stroke-linejoin="round"/>
<path d="M21.5137 45.296H20.654C19.2869 45.296 17.9199 44.6125 17.9199 44.6125L15.1928 37.0938" stroke="#4F4131" stroke-linecap="round" stroke-linejoin="round"/>
<path d="M16.5672 27.5319C17.0816 27.3628 17.603 27.3628 18.0751 27.4615C19.5127 27.7574 20.6612 28.906 20.6612 28.906C20.6612 28.906 21.225 29.5896 22.0283 30.6043C23.0148 31.8586 24.3819 33.6202 25.5093 35.2057C26.4747 36.5727 27.271 37.8059 27.4894 38.4683C28.1729 40.5188 28.1729 42.4214 27.4894 42.1466C26.8059 41.8718 28.8564 45.2964 28.8564 45.2964L28.1518 45.7192L23.5997 48.4745L22.6977 49.01L21.3307 45.2964" stroke="#4F4131" stroke-linecap="round" stroke-linejoin="round"/>
<path d="M9.73129 36.8613C8.89979 42.3436 8.53336 57.5924 8.53336 57.5924C8.53336 57.5924 9.86519 58.6213 11.4154 59.6642C12.7261 60.545 14.1918 61.4399 15.1501 61.7288C16.7145 62.208 22.1968 62.3771 25.3889 62.1305C26.467 62.0459 27.2844 61.912 27.6015 61.7288C28.8629 61.01 27.6015 53.139 27.6015 53.139" stroke="#4F4131" stroke-linecap="round" stroke-linejoin="round"/>
<path d="M10.2246 35C10.0837 35.1691 9.94979 35.6271 9.83 36.3107" stroke="#4F4131" stroke-linecap="round" stroke-linejoin="round"/>
<path d="M23.9304 49.0094C23.9304 49.0094 27.4185 52.2931 28.5811 53.0964C28.7009 53.1739 28.7996 53.2303 28.863 53.2585C29.4408 53.4629 33.9436 50.0523 35.3106 47.7692C35.5573 47.3605 35.6982 46.98 35.6982 46.6699" stroke="#4F4131" stroke-linecap="round" stroke-linejoin="round"/>
<path d="M27.7218 46.6621L29.8076 48.6211" stroke="#4F4131" stroke-linecap="round" stroke-linejoin="round"/>
<path d="M29.3422 47.6411L29.3774 47.5989L33.6406 42.5605" stroke="#4F4131" stroke-linecap="round" stroke-linejoin="round"/>
<path d="M33.6404 40.869C33.5066 40.7986 33.3727 40.5237 33.2458 40.1291C32.9076 39.0581 32.6469 37.092 32.6821 35.7391C32.6962 35.0697 32.7737 34.5482 32.9569 34.365C33.6334 33.6885 35.691 36.4156 35.691 36.4156L37.7134 32.3638L37.7345 32.3145C37.7345 32.3145 39.1016 36.4085 39.1016 37.7826C39.1016 39.1567 38.5097 44.2303 38.1221 45.104C37.7346 45.9778 36.1984 46.6613 36.1984 46.6613" stroke="#4F4131" stroke-linecap="round" stroke-linejoin="round"/>
<path d="M37.4316 32.3154C37.4316 32.3154 37.4528 32.2731 37.4669 32.2449C37.8897 31.3571 40.1728 26.8261 39.9896 25.8325C39.7923 24.8108 34.2889 23.3169 34.2889 23.3169C34.2889 23.3169 34.2113 23.1971 33.246 23.3169C32.7456 23.3803 31.2236 25.7903 29.9623 28.2988C28.7784 30.6454 27.8271 33.0765 28.1654 33.7247C28.87 35.0495 32.2806 35.7401 32.2806 35.7401" stroke="#4F4131" stroke-linecap="round" stroke-linejoin="round"/>
<path d="M39.1094 26.1701L35.0082 34.3582L29.3428 32.3147L33.6412 24.3027L39.1094 26.1701Z" stroke="#4F4131" stroke-linecap="round" stroke-linejoin="round"/>
<path d="M22.9507 29.4978C23.0846 29.3216 23.3242 29.0397 23.6483 28.7226C24.4093 27.9757 25.6284 27.0667 26.9602 26.9821C28.8628 26.8623 29.342 27.4049 29.342 27.4049C29.342 27.4049 29.6802 27.8136 29.4547 28.0532C29.349 28.1659 29.1517 28.2364 28.7642 28.2294C27.4887 28.2294 26.2415 29.7162 26.2415 29.7162C26.2415 29.7162 26.4106 30.9564 26.6079 32.3235C26.7347 33.2113 26.3542 33.8032 26.0723 34.1133C25.9173 34.2824 25.7905 34.367 25.7905 34.367" stroke="#4F4131" stroke-linecap="round" stroke-linejoin="round"/>
<path d="M25.3954 62.2412C25.3954 62.2412 31.4484 102.851 29.8136 105.5C28.1788 108.143 26.5299 109.031 23.9367 107.896C23.2814 107.607 22.8093 107.276 22.4428 106.945C21.3647 105.979 21.1815 105.056 19.7933 105.493C18.68 105.839 17.9894 106.402 17.179 106.677C16.6364 106.867 16.0304 106.917 15.1989 106.677C13.1484 106.092 12.4649 104.789 11.4361 104.415C11.274 104.352 11.133 104.302 10.9991 104.267C10.2804 104.063 9.82234 104.154 8.53281 104.415C6.99665 104.718 4.26257 105.409 4.26257 103.358C4.26257 101.308 6.08766 87.7569 5.86217 85.3117C5.63668 82.8666 11.4149 59.6621 11.4149 59.6621" stroke="#4F4131" stroke-linecap="round" stroke-linejoin="round"/>
<path d="M20.5273 114.803C20.3654 115.106 20.1823 115.38 19.9851 115.655" stroke="#4F4131" stroke-linecap="round" stroke-linejoin="round"/>
<path d="M22.0273 108.375C22.0273 108.375 22.0273 108.939 21.9357 109.784C21.8018 111.102 21.4425 113.124 20.5264 114.78" stroke="#4F4131" stroke-linecap="round" stroke-linejoin="round"/>
<path d="M17.1792 106.678C17.2356 108.503 16.7423 111.258 15.7558 113.294C15.5867 113.647 15.4035 113.985 15.1992 114.288" stroke="#4F4131" stroke-linecap="round" stroke-linejoin="round"/>
<path d="M15.1992 106.678L11.6266 113.294L11.091 114.288" stroke="#4F4131" stroke-linecap="round" stroke-linejoin="round"/>
<path d="M10.042 105.5L9.68966 106.606L7.54046 113.294L6.99785 114.971" stroke="#4F4131" stroke-linecap="round" stroke-linejoin="round"/>
<path d="M13.9248 117.727L14.6012 115.219C14.7069 115.24 14.8056 115.275 14.9042 115.289C17.279 115.825 18.8785 115.036 19.3929 116.156C19.4282 116.233 19.4634 116.318 19.4845 116.417C19.8792 117.967 21.6972 120.532 23.2686 121.624C24.84 122.716 27.8489 124.739 28.166 126.289C28.4831 127.839 21.7183 127.156 20.5556 126.028C20.0271 125.514 19.1392 124.556 18.3148 123.661C17.3283 122.582 16.4545 121.603 16.4545 121.603L15.468 123.513L14.7492 124.915L12.3252 123.639L12.445 123.196L13.9107 117.727H13.9248Z" stroke="#4F4131" stroke-linecap="round" stroke-linejoin="round"/>
<path d="M6.27197 115.754C5.66596 117.318 6.3213 123.505 6.3213 123.505H8.51984L10.0419 118.883L11.7754 123.167H12.332" stroke="#4F4131" stroke-linecap="round" stroke-linejoin="round"/>
<path d="M13.833 117.699C13.1565 117.023 11.4442 115.648 11.4442 115.648H6.3284" stroke="#4F4131" stroke-linecap="round" stroke-linejoin="round"/>
</svg>
