<svg width="57" height="125" viewBox="0 0 57 125" fill="none" xmlns="http://www.w3.org/2000/svg">
<path d="M48.4812 104.994L42.968 108.789L43.4325 109.393L45.5934 112.292L45.7347 112.483C46.9733 109.641 51.1133 109.393 51.1133 109.393L50.9248 108.669L48.4812 104.994Z" fill="#D0AB6F"/>
<path d="M10.1777 37.0643C10.0229 36.0726 9.90176 35.3225 9.90176 35.3225H9.91523C9.91523 35.3225 9.66616 35.278 9.36323 35.1699L9.00644 35.3225C8.2323 36.1362 9.3834 36.7528 10.1777 37.0643Z" fill="#D0AB6F"/>
<path d="M9.91517 35.3217H15.2399L15.9265 35.2709C15.4284 34.8195 15.0043 34.3745 15.3947 34.3745C15.8188 34.3745 16.4785 34.3745 17.118 34.6288L17.2729 34.2537C17.2729 34.2537 16.2362 33.6625 16.9497 33.1794C17.6565 32.6963 18.1547 31.2214 17.6498 30.1153C17.5152 29.8165 17.0911 29.505 16.5122 29.219C15.3813 28.6786 13.6782 28.2591 12.3924 28.2718C11.7327 28.2781 11.1807 28.4116 10.8845 28.6913C10.3819 29.166 10.0992 29.5093 10.0363 29.7212C9.95556 29.9818 9.8613 30.2297 9.76706 30.4713C9.42374 31.374 9.11411 32.175 9.91517 33.2493C10.272 33.7198 8.09763 33.6625 8.36017 34.3745C8.50826 34.775 8.97947 35.0229 9.36318 35.1691C9.6661 35.2772 9.91517 35.3217 9.91517 35.3217Z" fill="#F5CF24"/>
<path d="M26.7914 27.5147C26.7914 27.5147 24.0786 28.5192 21.9917 30.0258C21.1705 30.617 20.2617 33.0898 19.4674 35.8742C18.774 38.2708 18.1681 40.9026 17.7575 42.7589C17.4411 44.2274 17.2526 45.2127 17.2526 45.2127C17.2526 45.2127 18.5384 46.0073 20.0732 46.6621C20.7598 46.9545 21.4936 47.2215 22.1869 47.3741C23.1496 47.5839 24.6911 47.7365 26.1317 47.8382L26.024 49.0206C27.0943 51.3918 27.5386 60.0945 27.6934 64.0677H27.754L40.3556 65.5171V61.1307L40.0258 60.5777C40.5441 60.3361 40.948 59.9992 41.1904 59.5415C42.9271 56.2994 41.7087 37.9276 41.1904 34.7872C40.672 31.6532 37.9255 28.5382 37.9255 28.5382V26.0081C37.9255 26.0081 36.0676 25.6966 34.4453 25.4741C33.799 25.3851 33.1864 25.3088 32.7422 25.2707C31.8603 25.2008 30.063 25.2071 28.6763 25.2326C27.6127 25.2453 26.7914 25.2707 26.7914 25.2707V27.5147Z" fill="#D0AB6F"/>
<path d="M10.8306 38.5512C10.8306 38.5512 10.6623 38.5512 10.42 38.5449C10.4873 38.9772 10.5546 39.4094 10.6152 39.8163L10.8575 39.7782H12.7559V38.2016C12.7559 38.2016 11.7596 37.3307 10.7229 37.248C10.7902 37.2671 10.8306 37.2798 10.8306 37.2798C10.8306 37.2798 10.5546 37.248 10.2046 37.248C10.2719 37.6485 10.3392 38.0808 10.4133 38.5131C10.6556 38.5322 10.8306 38.5512 10.8306 38.5512Z" fill="#D0AB6F"/>
<path d="M0.941586 114.88C0.355932 116.031 1.96481 117.455 1.96481 117.455C1.96481 117.455 11.6314 121.002 13.1393 121.962C14.6405 122.922 18.4506 122.808 18.4506 122.808L19.1507 118.701L19.3796 118.726L19.5479 117.499L19.1507 117.455C19.1507 117.455 16.8956 115.319 13.8933 115.319C10.8909 115.319 14.1222 114.88 14.1222 114.88L12.6142 114.69C9.37631 113.901 6.70388 114.766 5.03443 114.69C3.36499 114.613 1.52051 113.723 0.941586 114.88Z" fill="#D0AB6F"/>
<path d="M7.08191 26.5994C6.37509 27.2732 9.53224 30.3882 9.53224 30.3882L9.76783 30.4708C9.86207 30.2293 9.95633 29.9813 10.0371 29.7207H10.0169C10.0169 29.7207 8.63018 27.2732 8.34072 26.5994C8.34072 26.5994 7.79546 25.9319 7.08191 26.5994Z" fill="#D0AB6F"/>
<path d="M8.66283 37.8393C8.64937 38.2334 9.18118 38.4114 9.72645 38.4877C9.94859 38.4813 10.2044 38.5004 10.4131 38.5131C10.339 38.0808 10.2717 37.6485 10.2044 37.248C9.57163 37.248 8.68303 37.3307 8.66283 37.8393Z" fill="#D0AB6F"/>
<path d="M15.9269 35.2718L15.2403 35.3227H9.9021C9.9021 35.3227 10.0232 36.0728 10.1781 37.0645C10.4002 37.1472 10.5955 37.2107 10.7099 37.2425C10.7166 37.2425 10.7233 37.2425 10.7233 37.2425C11.76 37.3252 12.7563 38.1961 12.7563 38.1961V39.7726H10.858L10.6156 39.8108C10.7839 40.8342 10.9119 41.6607 10.9253 41.7624C10.9657 42.0612 15.2403 42.3091 15.2403 42.3091C15.2403 42.3091 15.4692 41.8069 15.7519 41.114L16.8492 41.9467L17.7579 42.7541C18.1685 40.8978 18.7744 38.266 19.4678 35.8694L18.5725 35.1956L18.2897 35.5325C17.9599 35.0684 17.5425 34.7887 17.1184 34.6234C16.4789 34.3691 15.8192 34.3691 15.3951 34.3691C15.0047 34.3691 15.4288 34.8141 15.9269 35.2655V35.2718Z" fill="#D0AB6F"/>
<path d="M10.7099 37.2424C10.5955 37.2107 10.4002 37.1471 10.1781 37.0645C10.1915 37.128 10.1983 37.1852 10.205 37.2488C10.5551 37.2488 10.8311 37.2806 10.8311 37.2806C10.8311 37.2806 10.7906 37.2679 10.7233 37.2488C10.7233 37.2488 10.7166 37.2488 10.7099 37.2488V37.2424Z" fill="#D0AB6F"/>
<path d="M10.4137 38.5117C10.4137 38.5117 10.4137 38.5308 10.4204 38.5435C10.6628 38.5562 10.8311 38.5499 10.8311 38.5499C10.8311 38.5499 10.656 38.5308 10.4137 38.5117Z" fill="#D0AB6F"/>
<path d="M12.3857 25.8567C11.6318 26.5623 12.2377 27.0836 12.3857 27.9863V28.2723C13.6782 28.2596 15.3813 28.6792 16.5122 29.2195L16.896 28.6919C16.896 28.6919 17.6499 28.6919 18.1548 28.2723C18.6596 27.8528 18.4038 26.5623 17.2527 25.2718C16.1083 23.9813 13.1397 25.1447 12.3857 25.8567Z" fill="#F5CF24"/>
<path d="M19.2597 116.583L20.0742 113.093V113.068C18.5259 112.966 16.7084 112.419 15.3217 111.93L14.1235 114.879C14.1235 114.879 10.8855 115.318 13.8946 115.318C16.9036 115.318 19.152 117.454 19.152 117.454L19.5492 117.498L19.6569 116.666L19.2597 116.583Z" fill="#D0AB6F"/>
<path d="M29.5519 77.8313L29.6731 77.8631C30.4337 79.8211 32.4196 93.9146 34.0554 96.0951C35.6979 98.2819 39.4542 106.088 39.4542 106.088L40.3562 107.334L42.093 109.394L42.9681 108.79L48.4813 104.995L49.9824 103.959L48.8448 100.996L48.4813 101.124C48.4813 101.124 39.4541 84.7923 40.3562 82.4402C41.1572 80.3741 41.0159 72.2371 40.5581 68.8107H40.5649L40.3562 65.5178L27.7546 64.0684H27.694C27.7344 65.2889 27.7546 66.0645 27.7546 66.0645L28.1787 67.0371C28.9259 68.4547 25.9235 78.3971 25.9235 78.3971L25.035 78.3717L25.1696 74.1379L24.3281 74.068L23.9108 78.4416H21.5211L20.7536 75.6318C20.7536 75.6318 20.242 77.4881 19.8651 78.7213H19.8583C19.8179 78.8739 19.7708 79.0074 19.7304 79.1282C19.717 79.179 19.7103 79.1917 19.717 79.1854C18.7409 82.6309 16.8291 95.6374 16.1492 97.5699C15.3952 99.6995 13.1402 111.06 13.1402 111.06C13.1402 111.06 14.0489 111.473 15.3212 111.93C16.7079 112.42 18.5255 112.967 20.0737 113.068C20.5988 113.107 21.0902 113.1 21.5211 113.018L22.1606 112.484L24.3281 95.4912L29.5519 77.8313Z" fill="#D0AB6F"/>
<path d="M18.4306 14.4267C17.5286 14.8335 16.815 16.8996 17.5757 18.4761C18.4037 20.1734 21.0357 18.6859 21.0357 18.6859L23.6678 23.727H28.6762L28.8916 22.1505L27.754 22.0106L26.0239 17.3318L25.7412 16.6071L23.6678 17.3318C23.6678 17.3318 21.0425 15.4692 19.4606 13.4922L18.397 14.3568L18.4306 14.4267Z" fill="#D0AB6F"/>
<path d="M20.2418 47.336L20.0735 47.3741L22.6584 65.5171L21.1102 67.6912L21.1573 67.812C18.3838 68.9244 18.1684 74.3343 18.6531 74.5822C19.1512 74.8492 20.0735 73.1328 20.0735 73.1328L20.7534 75.6311L21.5208 78.4409H23.9105L24.3279 74.0673L25.1693 74.1372L25.0347 78.371L25.9233 78.3964C25.9233 78.3964 28.9256 68.454 28.1784 67.0364L27.7543 66.0638C27.7543 66.0638 27.7341 65.2882 27.6937 64.0677C27.5389 60.0945 27.0946 51.3918 26.0243 49.0206L26.1319 47.8382C24.6914 47.7365 23.1498 47.5839 22.1872 47.3741C21.4939 47.2215 20.7601 46.9545 20.0735 46.6621L20.2418 47.336Z" fill="#D0AB6F"/>
<path d="M39.9178 6.42255L38.3695 4.24209C36.2154 2.28412 33.9671 1 29.679 1C25.1688 1 21.7761 3.12961 20.8404 5.25922C19.9047 7.39518 17.6496 10.9424 19.1507 13.072C19.2517 13.2119 19.3527 13.3517 19.4604 13.4916C21.0423 15.4686 23.6677 17.3312 23.6677 17.3312L25.741 16.6065L27.1748 16.1107L27.7538 17.3312C27.7538 17.3312 29.7127 18.0432 30.8234 17.3312C31.9341 16.6256 31.786 18.6853 31.786 18.6853L37.9253 17.3312V20.9229C37.9253 20.9229 42.2201 17.4647 42.3412 15.2652C42.4624 13.072 42.974 9.96341 42.3412 8.32329C41.9777 7.38245 40.8266 6.77218 39.9178 6.42255Z" fill="#D0AB6F"/>
<path d="M25.7415 16.6072L26.0242 17.3319L27.7543 22.0107L28.8919 22.1505L35.1995 22.9134L37.9258 18.4761V17.3319L31.7865 18.6859C31.7865 18.6859 31.9346 16.6263 30.8239 17.3319C29.7132 18.0439 27.7543 17.3319 27.7543 17.3319L27.1753 16.1113L25.7415 16.6072Z" fill="#D0AB6F"/>
<path d="M28.6763 25.2145V25.2336C30.063 25.2081 31.8603 25.2018 32.7422 25.2717C33.1864 25.3098 33.799 25.3861 34.4453 25.4751L34.4722 25.2717L35.1992 22.9132L28.8917 22.1504L28.6763 23.7269V25.2145Z" fill="#D0AB6F"/>
<path d="M39.4537 119.305C37.9525 120.443 34.9434 123.132 37.9525 123.844C40.9615 124.556 44.7178 121.002 45.7342 120.513C46.7507 120.023 56 113.902 56 113.902L51.1128 109.395C51.1128 109.395 46.9729 109.642 45.7342 112.484L45.5929 112.293L44.3879 113.094C44.3879 113.094 40.9615 118.161 39.4537 119.305Z" fill="#D0AB6F"/>
<path d="M38.707 4.55358C38.5926 4.44551 38.4849 4.3438 38.3704 4.24209C36.2163 2.28412 33.968 1 29.6799 1C25.1697 1 21.777 3.12961 20.8413 5.25922C19.9056 7.39518 17.6505 10.9424 19.1516 13.072C19.2526 13.2119 19.3536 13.3517 19.4613 13.4916C21.0432 15.4686 23.6686 17.3312 23.6686 17.3312L25.7419 16.6065L27.1757 16.1107" stroke="#4F4131" stroke-linecap="round" stroke-linejoin="round"/>
<path d="M27.7538 17.3301C27.7538 17.3301 29.7127 18.0421 30.8234 17.3301C31.9341 16.6245 31.786 18.6842 31.786 18.6842L37.9253 17.3301V20.9218C37.9253 20.9218 42.2201 17.4636 42.3412 15.2641C42.4624 13.0709 42.974 9.96229 42.3412 8.32218C41.9777 7.38134 40.8266 6.77107 39.9178 6.42143C39.2447 6.16715 38.7061 6.05273 38.7061 6.05273" stroke="#4F4131" stroke-linecap="round" stroke-linejoin="round"/>
<path d="M18.6533 14.3555C18.5793 14.3682 18.5052 14.3872 18.4312 14.4254C17.5291 14.8322 16.8156 16.8983 17.5763 18.4748C18.4043 20.1721 21.0363 18.6846 21.0363 18.6846L23.6684 23.7257H28.6768V25.2133" stroke="#4F4131" stroke-linecap="round" stroke-linejoin="round"/>
<path d="M37.9258 18.4743L35.1995 22.9116L28.8919 22.1487L27.7543 22.0088L26.0242 17.3301" stroke="#4F4131" stroke-linecap="round" stroke-linejoin="round"/>
<path d="M34.4722 25.2725L35.1992 22.9141" stroke="#4F4131" stroke-linecap="round" stroke-linejoin="round"/>
<path d="M28.6763 37.597L29.6725 48.0162C29.6725 48.0162 27.9963 47.9653 26.1317 47.8382C24.6911 47.7365 23.1496 47.5839 22.1869 47.3741C21.4936 47.2215 20.7598 46.9545 20.0732 46.6621C18.5384 46.0073 17.2526 45.2127 17.2526 45.2127C17.2526 45.2127 17.4411 44.2274 17.7575 42.7589C18.1681 40.9026 18.774 38.2708 19.4674 35.8742C20.2617 33.0898 21.1705 30.617 21.9917 30.0258C24.0786 28.5192 26.7914 27.5147 26.7914 27.5147V25.2707C26.7914 25.2707 27.6127 25.2453 28.6763 25.2326C30.063 25.2071 31.8603 25.2008 32.7422 25.2707C33.1864 25.3088 33.799 25.3851 34.4453 25.4741C36.0676 25.6966 37.9255 26.0081 37.9255 26.0081V28.5382C37.9255 28.5382 40.672 31.6532 41.1904 34.7872C41.7087 37.9276 42.9271 56.2994 41.1904 59.5415C40.948 59.9992 40.5441 60.3361 40.0258 60.5777C36.8956 62.0716 29.6725 60.0818 29.6725 60.0818" stroke="#4F4131" stroke-linecap="round" stroke-linejoin="round"/>
<path d="M35.1992 28.5377L28.6763 27.8066" stroke="#4F4131" stroke-linecap="round" stroke-linejoin="round"/>
<path d="M26.0248 49.0195C27.0952 51.3907 27.5395 60.0935 27.6943 64.0666C27.7347 65.2872 27.7549 66.0627 27.7549 66.0627" stroke="#4F4131" stroke-linecap="round" stroke-linejoin="round"/>
<path d="M20.0732 47.375L22.6581 65.518L22.9678 67.6921" stroke="#4F4131" stroke-linecap="round" stroke-linejoin="round"/>
<path d="M21.5205 67.6914C21.3926 67.7232 21.2714 67.7613 21.157 67.8122C18.3835 68.9247 18.1681 74.3345 18.6528 74.5824C19.151 74.8494 20.0732 73.133 20.0732 73.133L20.7531 75.6313L21.5205 78.4411" stroke="#4F4131" stroke-linecap="round" stroke-linejoin="round"/>
<path d="M22.9678 74.043V78.442" stroke="#4F4131" stroke-linecap="round" stroke-linejoin="round"/>
<path d="M24.3271 74.043V74.0684L23.9098 78.442" stroke="#4F4131" stroke-linecap="round" stroke-linejoin="round"/>
<path d="M25.1689 74.1387L25.0343 78.3725V78.4424" stroke="#4F4131" stroke-linecap="round" stroke-linejoin="round"/>
<path d="M28.1784 67.0371C28.9256 68.4547 25.9233 78.3971 25.9233 78.3971" stroke="#4F4131" stroke-linecap="round" stroke-linejoin="round"/>
<path d="M40.3555 61.1309V65.5172L27.7539 64.0678" stroke="#4F4131" stroke-linecap="round" stroke-linejoin="round"/>
<path d="M40.3554 67.6914C40.4294 67.9584 40.4967 68.3398 40.5573 68.8102C41.0151 72.2367 41.1564 80.3737 40.3554 82.4397C39.4533 84.7918 48.4805 101.123 48.4805 101.123" stroke="#4F4131" stroke-linecap="round" stroke-linejoin="round"/>
<path d="M49.9824 103.959L48.4813 104.995L42.9681 108.79L42.093 109.394L40.3562 107.335" stroke="#4F4131" stroke-linecap="round" stroke-linejoin="round"/>
<path d="M29.672 77.8633C30.4327 79.8212 32.4185 93.9148 34.0543 96.0952C35.6969 98.2821 39.4531 106.088 39.4531 106.088" stroke="#4F4131" stroke-linecap="round" stroke-linejoin="round"/>
<path d="M30.4326 74.8496L29.5508 77.8311L24.327 95.4909L22.1594 112.483" stroke="#4F4131" stroke-linecap="round" stroke-linejoin="round"/>
<path d="M19.7164 79.1855C18.7403 82.6311 16.8285 95.6376 16.1486 97.5701C15.3947 99.6997 13.1396 111.06 13.1396 111.06C13.1396 111.06 14.0484 111.473 15.3207 111.931C16.7074 112.42 18.5249 112.967 20.0732 113.069C20.5983 113.107 21.0897 113.1 21.5205 113.018" stroke="#4F4131" stroke-linecap="round" stroke-linejoin="round"/>
<path d="M19.8584 78.7266C19.818 78.8346 19.7776 78.9745 19.7305 79.1271" stroke="#4F4131" stroke-linecap="round" stroke-linejoin="round"/>
<path d="M19.9854 78.4414C19.945 78.505 19.9046 78.6003 19.8642 78.7211" stroke="#4F4131" stroke-linecap="round" stroke-linejoin="round"/>
<path d="M43.432 109.395L45.5929 112.293L45.7342 112.484C46.9729 109.642 51.1128 109.395 51.1128 109.395L56 113.902C56 113.902 46.7507 120.023 45.7342 120.513C44.7178 121.002 40.9615 124.556 37.9525 123.844C34.9434 123.132 37.9525 120.443 39.4537 119.305C40.9615 118.161 44.3879 113.094 44.3879 113.094" stroke="#4F4131" stroke-linecap="round" stroke-linejoin="round"/>
<path d="M48.4813 106.088L49.9824 108.669" stroke="#4F4131" stroke-linecap="round" stroke-linejoin="round"/>
<path d="M20.0742 113.094L19.2597 116.584L19.2395 116.666" stroke="#4F4131" stroke-linecap="round" stroke-linejoin="round"/>
<path d="M15.3201 111.93L14.1219 114.879C14.1219 114.879 10.8839 115.318 13.893 115.318C16.902 115.318 19.1504 117.454 19.1504 117.454" stroke="#4F4131" stroke-linecap="round" stroke-linejoin="round"/>
<path d="M12.614 114.69C9.37603 113.901 6.70361 114.766 5.03416 114.69C3.36471 114.613 1.52023 113.723 0.941311 114.88C0.355658 116.031 1.96453 117.455 1.96453 117.455C1.96453 117.455 11.6312 121.002 13.139 121.962C14.6402 122.922 18.4503 122.808 18.4503 122.808L19.1504 118.701" stroke="#4F4131" stroke-linecap="round" stroke-linejoin="round"/>
<path d="M18.4512 35.7863C18.3973 35.6973 18.3502 35.6146 18.2896 35.5383C17.9598 35.0743 17.5424 34.7946 17.1183 34.6293C16.4788 34.375 15.8191 34.375 15.395 34.375C15.0045 34.375 15.4287 34.82 15.9268 35.2713C16.3913 35.7036 16.9231 36.1486 16.9231 36.2694" stroke="#4F4131" stroke-linecap="round" stroke-linejoin="round"/>
<path d="M16.8488 37.4773C16.8757 38.2084 16.2295 39.9375 15.7515 41.1199C15.4688 41.8128 15.2399 42.315 15.2399 42.315C15.2399 42.315 10.9653 42.0671 10.925 41.7683C10.9115 41.6666 10.7836 40.8402 10.6153 39.8167C10.5547 39.4098 10.4874 38.9776 10.4201 38.5453C10.4134 38.5326 10.4133 38.5262 10.4133 38.5135C10.3393 38.0812 10.272 37.6489 10.2047 37.2484C10.1979 37.1849 10.1912 37.1277 10.1777 37.0641C10.0229 36.0724 9.90174 35.3223 9.90174 35.3223H15.2399" stroke="#4F4131" stroke-linecap="round" stroke-linejoin="round"/>
<path d="M9.91517 35.3217C9.91517 35.3217 9.6661 35.2772 9.36318 35.1691C8.97947 35.0229 8.50826 34.775 8.36017 34.3745C8.09763 33.6625 10.272 33.7198 9.91517 33.2493C9.11411 32.175 9.42374 31.374 9.76706 30.4713C9.8613 30.2297 9.95556 29.9818 10.0363 29.7212C10.0992 29.5093 10.3819 29.166 10.8845 28.6913C11.1807 28.4116 11.7327 28.2781 12.3924 28.2718C13.6782 28.2591 15.3813 28.6786 16.5122 29.219C17.0911 29.505 17.5152 29.8165 17.6498 30.1153C18.1547 31.2214 17.6565 32.6963 16.9497 33.1794C16.2362 33.6625 17.2729 34.2537 17.2729 34.2537" stroke="#4F4131" stroke-linecap="round" stroke-linejoin="round"/>
<path d="M11.1807 34.2539C10.1305 34.3747 10.6691 34.7879 10.6691 34.7879" stroke="#4F4131" stroke-linecap="round" stroke-linejoin="round"/>
<path d="M10.0156 29.7207C10.0156 29.7207 8.62891 27.2732 8.33945 26.5994C8.33945 26.5994 7.79419 25.9319 7.08064 26.5994C6.37382 27.2732 9.53097 30.3882 9.53097 30.3882" stroke="#4F4131" stroke-linecap="round" stroke-linejoin="round"/>
<path d="M10.7229 37.248C11.7596 37.3307 12.7559 38.2016 12.7559 38.2016V39.7782H10.8575" stroke="#4F4131" stroke-linecap="round" stroke-linejoin="round"/>
<path d="M10.5282 37.2344C10.5888 37.2344 10.6494 37.2344 10.71 37.2411" stroke="#4F4131" stroke-linecap="round" stroke-linejoin="round"/>
<path d="M10.1579 39.1858C9.78092 38.9315 9.28277 38.4928 9.72706 38.4865M9.72706 38.4865C9.9492 38.4801 10.205 38.4992 10.4137 38.5119C10.656 38.531 10.8311 38.5501 10.8311 38.5501C10.8311 38.5501 10.6628 38.5501 10.4204 38.5437C10.2252 38.5437 9.97613 38.5246 9.72706 38.4865ZM9.72706 38.4865C9.18179 38.4102 8.64998 38.2322 8.66345 37.8381C8.68364 37.3295 9.57224 37.2469 10.205 37.2469C10.5551 37.2469 10.8311 37.2787 10.8311 37.2787C10.8311 37.2787 10.2252 37.2977 10.1579 37.2787C10.1579 37.2787 10.8311 37.2787 10.7099 37.2405C10.5955 37.2087 10.4002 37.1452 10.1781 37.0625C9.38373 36.751 8.23263 36.1344 9.00677 35.3207L9.36356 35.1681L9.59241 35.0664" stroke="#4F4131" stroke-linecap="round" stroke-linejoin="round"/>
<path d="M15.752 41.1191L16.8492 41.9519L17.3271 42.3143" stroke="#4F4131" stroke-linecap="round" stroke-linejoin="round"/>
<path d="M12.3857 27.9863C12.2377 27.0836 11.6318 26.5623 12.3857 25.8567C13.1397 25.1447 16.1083 23.9813 17.2527 25.2718C18.4038 26.5623 18.6596 27.8528 18.1548 28.2723C17.6499 28.6919 16.896 28.6919 16.896 28.6919" stroke="#4F4131" stroke-linecap="round" stroke-linejoin="round"/>
<path d="M19.8576 78.7266H19.8652" stroke="#4F4131" stroke-linecap="round" stroke-linejoin="round"/>
</svg>
