<svg width="73" height="147" viewBox="0 0 73 147" fill="none" xmlns="http://www.w3.org/2000/svg">
<path d="M42.5049 136.513V134.174L42.4556 133.793C41.2365 134.011 39.8342 134.103 38.8547 134.145V134.174L39.0309 136.661C40.2359 136.478 41.5465 136.499 42.5049 136.555V136.513Z" fill="#E49E6B"/>
<path d="M33.3238 116.008L37.6433 134.174C37.6786 134.174 38.1577 134.174 38.8554 134.146C39.8348 134.104 41.2371 134.012 42.4562 133.794C43.4075 133.617 44.239 133.371 44.6688 133.004C46.057 131.835 41.1666 107.404 40.7086 104.325C40.2506 101.245 41.97 84.8549 41.97 84.8549L41.829 84.418C40.9834 84.6716 40.2153 84.8549 39.7573 84.8549C39.2993 84.8549 36.8682 84.6998 33.7607 84.425L31.8933 84.8549L30.0964 108.447C30.0964 108.447 30.3853 110.004 30.8081 112.323L30.9913 112.287C31.1957 112.781 32.4641 114.718 33.3238 116.008Z" fill="#E49E6B"/>
<path d="M2.40949 90.541L1.78939 90.9568L1.95146 91.1964L3.55105 93.557L5.04492 92.4013L2.40949 90.541Z" fill="#E49E6B"/>
<path d="M6.22204 65.2012L5.22847 67.4279L5.10163 67.3856L1.70517 78.5122L1.00051 89.7868L1.78973 90.9565L2.40983 90.5407L5.04526 92.401L6.20795 91.4991L7.63841 90.3928L8.75177 89.526C7.94846 88.1731 6.65893 85.8266 6.70826 84.8542C6.75054 83.9381 6.11634 81.5422 5.65831 79.9708C5.41873 79.1182 5.22847 78.5122 5.22847 78.5122L8.75177 70.5425L9.76649 69.1331L10.3584 69.1191C8.98431 67.8155 7.51862 66.4273 6.22204 65.2012Z" fill="#E49E6B"/>
<path d="M67.8941 32.7794L65.3855 32.9485C64.9486 33.6321 63.7155 35.5558 63.7155 35.6685L62.3061 36.9369L60.5163 37.3808L59.4875 37.6416C59.4875 37.6416 57.5779 38.7902 56.6195 39.9529L57.0212 40.3264V42.4756L54.9565 43.7369C56.4856 44.8714 58.3953 46.5837 59.1563 48.2538L60.2838 46.3089L60.5022 45.9354C61.3408 44.4416 62.6373 42.2712 63.2927 41.1649L65.766 40.3264C65.8435 40.1643 66.0197 39.9529 66.2452 39.7063C67.2458 38.614 69.3457 36.9369 69.3457 36.9369C69.3457 36.9369 69.3457 36.2323 68.641 36.2323C68.3803 36.2323 67.8236 36.5282 67.2317 36.8946L68.9511 32.709L67.8871 32.7794H67.8941Z" fill="#E49E6B"/>
<path d="M60.6927 34.8448L60.5165 37.3815L62.3064 36.9376L63.7157 35.6692C63.7157 35.5565 64.9489 33.6327 65.3857 32.9492L62.3064 33.1536C61.4185 32.9915 60.9323 34.0344 60.6927 34.8236V34.8448Z" fill="#E49E6B"/>
<path d="M39.0307 136.659C38.9673 136.666 38.9109 136.68 38.8545 136.687L34.1192 138.668V144.967L45.6475 146.045L43.9492 136.687C43.9492 136.687 43.3644 136.603 42.5047 136.554C41.5463 136.497 40.2357 136.476 39.0307 136.659Z" fill="#E49E6B"/>
<path d="M5.04414 92.4018L3.55026 93.5574L1.95068 91.1968L4.52269 97.5388L16.2553 89.9284L16.3398 89.2872L16.2553 87.3916L14.6557 76.5117L14.7332 76.2862L12.7179 75.6309C11.2945 75.7295 5.66424 79.9715 5.66424 79.9715H5.65719C6.11522 81.5429 6.74942 83.9388 6.70714 84.8549C6.65781 85.8273 7.94734 88.1738 8.75065 89.5267L7.63729 90.3935L6.20683 91.4998L5.04414 92.4018Z" fill="#F5CF24"/>
<path d="M16.3339 73.9033H16.6228L16.5382 76.7854L16.503 77.8071C16.503 77.8071 15.7984 79.2165 17.2288 81.3304C17.6164 81.9083 19.3921 82.4367 21.7809 82.8948C25.2338 83.5642 29.9902 84.0856 33.7602 84.4239C36.8677 84.6987 39.2917 84.8537 39.7568 84.8537C40.2219 84.8537 40.9829 84.6705 41.8285 84.4168C42.6177 84.1843 43.4704 83.8883 44.168 83.6347L47.5997 80.8019C47.7618 78.998 47.4799 73.3114 47.0853 67.4275L50.3831 68.3999H50.4042C51.3132 68.5408 52.4759 68.6465 53.85 68.6465C57.3733 68.6465 58.7826 61.5999 58.7826 61.5999C58.7826 61.5999 59.4873 52.4394 59.4873 49.6207C59.4873 49.1838 59.3675 48.7258 59.1561 48.2607C58.3951 46.5836 56.4855 44.8713 54.9563 43.7368C54.2024 43.1801 53.54 42.7714 53.1454 42.5741C51.736 41.8695 46.8034 40.4601 46.8034 40.4601C46.8034 40.4601 43.2801 35.5275 41.1661 33.4135C40.0457 32.2931 39.3199 31.7646 38.7844 31.4123L36.6774 28.4668L35.6698 29.1856H24.9589C24.2543 29.1856 22.1403 29.8902 20.731 30.4257L19.5612 29.7352L18.3069 31.8562L18.2929 31.8844C17.8842 32.4129 17.4825 33.1175 17.1372 33.9631C16.799 34.7876 15.6574 39.1776 14.389 43.2788H14.382L12.0848 45.435L12.4512 45.8296C10.3302 47.5842 2.40981 61.5999 2.40981 61.5999C2.40981 61.5999 4.07985 63.1784 6.22202 65.2008C7.5186 66.4269 8.98429 67.815 10.3584 69.1187C12.6978 71.3313 14.7625 73.2902 15.2487 73.7694C16.2282 74.7207 16.3339 74.1852 16.3339 73.9033Z" fill="#E49E6B"/>
<path d="M20.195 140.523C17.9119 141.227 10.8653 142.7 12.9793 144.427C15.0933 146.16 34.1191 146.047 34.1191 146.047V136.689C32.7098 137 28.651 136.689 28.651 136.689C28.651 136.689 25.6632 140.523 24.9586 140.523C24.2539 140.523 22.4852 139.818 20.195 140.523Z" fill="#E49E6B"/>
<path d="M24.9592 22.8436L25.4243 24.7815C26.897 24.5348 29.3844 24.1331 31.2095 24.4432L31.2307 24.3305V22.8225C32.5554 22.7097 34.5426 22.2588 36.2337 20.7297C38.8058 18.3972 39.6514 14.4864 38.3477 10.8644L38.5168 10.7869L36.9455 7.39041L36.8679 7.40451C36.6847 6.61529 36.1492 5.23418 34.8244 3.81781C33.4362 2.32393 31.8508 1.15418 29.9059 1.50651L29.8918 1.44307L25.3256 1.02734C24.1136 1.14714 21.9785 1.55585 20.0266 3.11315C16.6301 5.8261 15.8761 10.343 16.5033 13.6831C17.3066 17.9533 20.5903 21.4625 24.9592 22.8436Z" fill="#E49E6B"/>
<path d="M20.4132 28.2903L19.5606 29.7348L20.7303 30.4254C22.1396 29.8898 24.2536 29.1852 24.9583 29.1852H35.6691L36.6768 28.4664L36.1764 27.7688V27.7547C35.3661 27.0148 34.0272 25.8451 32.6743 24.9572C32.2797 24.7036 31.7794 24.5344 31.2086 24.4428C29.3835 24.1328 26.8961 24.5345 25.4233 24.7811C24.8385 24.8797 24.4157 24.9572 24.2536 24.9572C23.5489 24.9572 20.7303 28.4805 20.7303 28.4805L20.4132 28.2903Z" fill="#E49E6B"/>
<path d="M21.7805 82.8945L20.9208 109.883L26.4947 132.066C26.4947 132.066 26.8964 132.178 27.5165 132.319C28.6792 132.594 30.6099 132.989 32.0756 133.003C33.2383 133.017 34.1191 132.785 34.1191 132.066C34.1191 130.523 31.9699 118.614 30.8072 112.321C30.3844 110.003 30.0955 108.446 30.0955 108.446L31.8924 84.8535L33.7598 84.4236C29.9898 84.0854 25.2334 83.564 21.7805 82.8945Z" fill="#E49E6B"/>
<path d="M32.6182 134.843L32.0756 133.011C30.6099 132.99 28.6792 132.595 27.5165 132.32L28.651 136.689C28.651 136.689 32.7098 136.999 34.1191 136.689L32.6182 134.843Z" fill="#E49E6B"/>
<path d="M70.2542 34.8296L68.6476 36.2319C69.3523 36.2319 69.3523 36.9366 69.3523 36.9366C69.3523 36.9366 67.2524 38.6137 66.2518 39.7059L69.3523 39.0506H69.6764C70.0569 38.3459 72.1709 35.5273 72.1709 34.8226C72.1709 34.1179 70.9236 33.9629 70.9236 33.9629L70.2613 34.8226H70.2542V34.8296Z" fill="#E49E6B"/>
<path d="M68.2317 34.8242L67.2381 36.8959C67.8301 36.5295 68.3867 36.2335 68.6475 36.2335L68.2317 34.8242Z" fill="#E49E6B"/>
<path d="M25.6628 1C25.5571 1.00705 25.4444 1.01408 25.3246 1.02817C24.1125 1.14796 21.9774 1.55668 20.0255 3.11398C16.6291 5.82692 15.8751 10.3438 16.5022 13.6839C17.3055 17.9541 20.5892 21.4633 24.9581 22.8445L27.0721 23.5491V21.4352L28.4814 22.1398" stroke="#4F4131" stroke-linecap="round" stroke-linejoin="round"/>
<path d="M29.1862 1.70385C29.4328 1.61929 29.6724 1.5488 29.905 1.50652C31.8498 1.15419 33.4353 2.32395 34.8235 3.81783C36.1483 5.2342 36.6838 6.61531 36.867 7.40453C36.9375 7.72867 36.9516 7.95419 36.9375 8.04579" stroke="#4F4131" stroke-linecap="round" stroke-linejoin="round"/>
<path d="M38.3477 10.8652C39.6514 14.4872 38.8058 18.3981 36.2337 20.7305C34.5426 22.2596 32.5554 22.7106 31.2307 22.8233C30.5965 22.8797 30.1173 22.8586 29.8918 22.8445" stroke="#4F4131" stroke-linecap="round" stroke-linejoin="round"/>
<path d="M36.1772 27.7695C36.649 28.1991 36.9307 28.4808 36.9307 28.4808" stroke="#4F4131" stroke-linecap="round" stroke-linejoin="round"/>
<path d="M20.7308 28.4805C20.7308 28.4805 23.5495 24.9572 24.2541 24.9572C24.4162 24.9572 24.839 24.8797 25.4239 24.7811C26.8966 24.5345 29.384 24.1328 31.2091 24.4428C31.7799 24.5344 32.2802 24.7036 32.6748 24.9572C34.0278 25.8451 35.3666 27.0148 36.1699 27.7547" stroke="#4F4131" stroke-linecap="round" stroke-linejoin="round"/>
<path d="M20.7311 30.4257C22.1404 29.8902 24.2544 29.1855 24.9591 29.1855H35.6699" stroke="#4F4131" stroke-linecap="round" stroke-linejoin="round"/>
<path d="M50.3828 68.4014C48.9876 68.2041 48.2125 67.9434 48.2125 67.9434" stroke="#4F4131" stroke-linecap="round" stroke-linejoin="round"/>
<path d="M59.1561 48.2617C59.3675 48.7268 59.4873 49.1849 59.4873 49.6218C59.4873 52.4404 58.7826 61.601 58.7826 61.601C58.7826 61.601 57.3733 68.6476 53.85 68.6476C52.4759 68.6476 51.3132 68.5419 50.4042 68.408" stroke="#4F4131" stroke-linecap="round" stroke-linejoin="round"/>
<path d="M37.643 30.5957C37.9742 30.9269 38.3053 31.103 38.7845 31.4131C39.3201 31.7654 40.0459 32.2939 41.1663 33.4143C43.2802 35.5283 46.8036 40.4609 46.8036 40.4609C46.8036 40.4609 51.7362 41.8703 53.1455 42.5749C53.5401 42.7722 54.2025 43.1809 54.9565 43.7376C56.4856 44.8721 58.3952 46.5844 59.1562 48.2545" stroke="#4F4131" stroke-linecap="round" stroke-linejoin="round"/>
<path d="M48.5642 42.4199C48.5642 42.4199 53.1445 44.689 53.1445 46.8029V51.6862" stroke="#4F4131" stroke-linecap="round" stroke-linejoin="round"/>
<path d="M46.7322 42.4199C47.5074 43.2796 50.8545 48.8958 50.8545 48.8958" stroke="#4F4131" stroke-linecap="round" stroke-linejoin="round"/>
<path d="M46.0979 47.5078C46.0979 48.2125 45.3933 50.2208 45.7456 51.6864C45.9288 52.4475 46.5912 60.093 47.0845 67.4285C47.4791 73.3125 47.7609 78.9991 47.5989 80.803C47.5848 81.0637 47.5496 81.247 47.5073 81.3315" stroke="#4F4131" stroke-linecap="round" stroke-linejoin="round"/>
<path d="M45.6475 83.0797C45.6475 83.0797 45.0274 83.3264 44.1677 83.6364C43.4701 83.8901 42.6174 84.186 41.8282 84.4186C40.9826 84.6723 40.2145 84.8555 39.7565 84.8555C39.2985 84.8555 36.8674 84.7004 33.7598 84.4256C29.9899 84.0874 25.2334 83.566 21.7806 82.8965C19.3918 82.4385 17.6161 81.91 17.2285 81.3322C15.798 79.2182 16.5027 77.8089 16.5027 77.8089L16.5379 76.7871L16.6225 73.9121L17.2074 55.2598" stroke="#4F4131" stroke-linecap="round" stroke-linejoin="round"/>
<path d="M55.2589 43.28L57.0206 42.223L58.7822 41.166" stroke="#4F4131" stroke-linecap="round" stroke-linejoin="round"/>
<path d="M60.5016 45.9361C61.3401 44.4422 62.6367 42.2719 63.292 41.1656C63.5528 40.7287 63.7148 40.4609 63.7148 40.4609" stroke="#4F4131" stroke-linecap="round" stroke-linejoin="round"/>
<path d="M59.6913 47.5085C59.6349 47.5085 59.8886 47.0293 60.2832 46.3105" stroke="#4F4131" stroke-linecap="round" stroke-linejoin="round"/>
<path d="M66.2441 39.707C66.0188 39.9535 65.8427 40.1648 65.7653 40.3267C65.7371 40.376 65.723 40.4253 65.716 40.4605" stroke="#4F4131" stroke-linecap="round" stroke-linejoin="round"/>
<path d="M65.1236 38.3464C65.1236 38.3464 66.237 37.5149 67.2376 36.8948C67.8295 36.5283 68.3862 36.2324 68.6469 36.2324C69.3516 36.2324 69.3516 36.9371 69.3516 36.9371C69.3516 36.9371 67.2517 38.6142 66.2511 39.7064" stroke="#4F4131" stroke-linecap="round" stroke-linejoin="round"/>
<path d="M56.0906 41.1655C56.0553 40.792 56.2738 40.3762 56.6191 39.9534C57.5774 38.7907 59.487 37.6422 59.487 37.6422L60.5158 37.3814L62.3057 36.9375" stroke="#4F4131" stroke-linecap="round" stroke-linejoin="round"/>
<path d="M70.2539 34.8301L69.6765 35.5765" stroke="#4F4131" stroke-linecap="round" stroke-linejoin="round"/>
<path d="M69.6764 39.0525C70.0569 38.3479 72.1709 35.5292 72.1709 34.8246C72.1709 34.1199 70.9236 33.9648 70.9236 33.9648L70.2613 34.8246" stroke="#4F4131" stroke-linecap="round" stroke-linejoin="round"/>
<path d="M65.5395 36.2323C66.4274 34.9709 67.6464 33.1529 67.8931 32.7794C67.9283 32.7301 67.9424 32.709 67.9424 32.709" stroke="#4F4131" stroke-linecap="round" stroke-linejoin="round"/>
<path d="M67.9433 35.6685L68.2322 34.823L68.958 32.709" stroke="#4F4131" stroke-linecap="round" stroke-linejoin="round"/>
<path d="M63.715 35.6685C63.715 35.5558 64.9481 33.6321 65.385 32.9485C65.4837 32.8006 65.54 32.709 65.54 32.709" stroke="#4F4131" stroke-linecap="round" stroke-linejoin="round"/>
<path d="M60.692 34.8236C60.9316 34.0344 61.4178 32.9915 62.3057 33.1535" stroke="#4F4131" stroke-linecap="round" stroke-linejoin="round"/>
<path d="M60.5023 35.6676C60.5023 35.6676 60.5515 35.3015 60.6924 34.8438" stroke="#4F4131" stroke-linecap="round" stroke-linejoin="round"/>
<path d="M14.3818 43.2871C13.2544 46.9513 12.0283 50.376 11.2038 50.8129" stroke="#4F4131" stroke-linecap="round" stroke-linejoin="round"/>
<path d="M18.293 31.8848C17.8843 32.4133 17.4826 33.1179 17.1373 33.9635C16.7991 34.788 15.6575 39.178 14.3891 43.2792" stroke="#4F4131" stroke-linecap="round" stroke-linejoin="round"/>
<path d="M19.2998 30.9609C18.9898 31.116 18.6445 31.419 18.3062 31.8559" stroke="#4F4131" stroke-linecap="round" stroke-linejoin="round"/>
<path d="M12.8238 45.6544C12.7392 45.6332 12.6124 45.6967 12.4503 45.8305C10.3293 47.5852 2.40892 61.6009 2.40892 61.6009C2.40892 61.6009 4.07896 63.1793 6.22113 65.2017C7.51771 66.4278 8.9834 67.8159 10.3575 69.1196C12.697 71.3322 14.7616 73.2911 15.2478 73.7703C16.2273 74.7216 16.333 74.1861 16.333 73.9042C16.333 73.8267 16.326 73.7703 16.326 73.7703" stroke="#4F4131" stroke-linecap="round" stroke-linejoin="round"/>
<path d="M9.37109 69.1328L8.75099 70.5421L5.22769 78.5119C5.22769 78.5119 5.41795 79.1179 5.65754 79.9705C6.11556 81.5419 6.74976 83.9378 6.70748 84.8538C6.65815 85.8263 7.94768 88.1727 8.75099 89.5257C9.11037 90.1317 9.37109 90.5404 9.37109 90.5404" stroke="#4F4131" stroke-linecap="round" stroke-linejoin="round"/>
<path d="M5.22865 88.6523L7.63859 90.3929L8.75195 91.1962" stroke="#4F4131" stroke-linecap="round" stroke-linejoin="round"/>
<path d="M3.91743 89.9277L6.20758 91.4992L7.2998 92.2531" stroke="#4F4131" stroke-linecap="round" stroke-linejoin="round"/>
<path d="M2.40924 90.541L5.04467 92.4013L5.6084 92.7959" stroke="#4F4131" stroke-linecap="round" stroke-linejoin="round"/>
<path d="M5.6084 65.7168L5.10104 67.3868L1.70458 78.5135L0.999918 89.788L1.78914 90.9577L1.95121 91.1973L3.55079 93.5579L4.00882 94.2344" stroke="#4F4131" stroke-linecap="round" stroke-linejoin="round"/>
<path d="M5.66512 79.9719C5.66512 79.9719 11.2954 75.7298 12.7188 75.6312C12.8386 75.6171 12.9231 75.6382 12.9795 75.6946" stroke="#4F4131" stroke-linecap="round" stroke-linejoin="round"/>
<path d="M12.9786 76.5117L16.3398 89.2872L16.2553 87.3917L15.7973 77.1037" stroke="#4F4131" stroke-linecap="round" stroke-linejoin="round"/>
<path d="M14.6563 76.5117L16.2559 87.3917" stroke="#4F4131" stroke-linecap="round" stroke-linejoin="round"/>
<path d="M16.2559 89.9277L4.52326 97.5381L1.95125 91.1962" stroke="#4F4131" stroke-linecap="round" stroke-linejoin="round"/>
<path d="M31.8924 84.8535L30.0955 108.446C30.0955 108.446 30.3844 110.003 30.8072 112.321C31.9699 118.614 34.1191 130.523 34.1191 132.066C34.1191 132.785 33.2383 133.017 32.0756 133.003C30.6099 132.989 28.6792 132.594 27.5165 132.319C26.8964 132.178 26.4947 132.066 26.4947 132.066L20.9208 109.883L21.7805 82.8945" stroke="#4F4131" stroke-linecap="round" stroke-linejoin="round"/>
<path d="M41.969 84.8555C41.969 84.8555 40.2496 101.246 40.7076 104.325C41.1657 107.405 46.056 131.835 44.6678 133.005C44.238 133.371 43.4065 133.618 42.4552 133.794C41.2361 134.013 39.8339 134.104 38.8544 134.146C38.1568 134.175 37.6776 134.175 37.6424 134.175L33.3228 116.008L32.7943 113.789" stroke="#4F4131" stroke-linecap="round" stroke-linejoin="round"/>
<path d="M34.1191 136.689C32.7098 137 28.651 136.689 28.651 136.689C28.651 136.689 25.6632 140.523 24.9586 140.523C24.2539 140.523 22.4852 139.818 20.195 140.523C17.9119 141.227 10.8653 142.7 12.9793 144.427C15.0933 146.16 34.1191 146.047 34.1191 146.047V136.689Z" stroke="#4F4131" stroke-linecap="round" stroke-linejoin="round"/>
<path d="M34.1192 144.969L45.6475 146.047L43.9492 136.689C43.9492 136.689 43.3644 136.605 42.5047 136.556C41.5463 136.499 40.2357 136.478 39.0307 136.661C38.9673 136.668 38.9109 136.682 38.8545 136.689L34.1192 138.67" stroke="#4F4131" stroke-linecap="round" stroke-linejoin="round"/>
<path d="M38.8545 134.174L39.0306 136.661L39.0518 137" stroke="#4F4131" stroke-linecap="round" stroke-linejoin="round"/>
<path d="M42.5049 134.174V136.513" stroke="#4F4131" stroke-linecap="round" stroke-linejoin="round"/>
<path d="M32.0756 134.174L32.6182 134.843L34.1191 136.689" stroke="#4F4131" stroke-linecap="round" stroke-linejoin="round"/>
<path d="M27.5169 132.328L28.6514 136.69" stroke="#4F4131" stroke-linecap="round" stroke-linejoin="round"/>
<path d="M36.1697 27.7559L36.1768 27.77L36.6768 28.4671" stroke="#4F4131" stroke-linecap="round" stroke-linejoin="round"/>
<path d="M70.2607 34.8242L70.2539 34.831" stroke="#4F4131" stroke-linecap="round" stroke-linejoin="round"/>
</svg>
