<svg width="49" height="137" viewBox="0 0 49 137" fill="none" xmlns="http://www.w3.org/2000/svg">
<path d="M29.244 120.757C31.964 122.66 35.0011 125.182 34.7545 128.494C34.5642 131.08 32.3375 133.074 29.9839 134.16C25.8475 136.069 21.1122 136.02 16.5531 135.935C13.1002 135.872 9.59805 135.801 6.27206 134.864C5.15869 134.547 4.03831 134.117 3.17863 133.335C1.4663 131.771 1.18442 129.051 2.01592 126.88C2.84742 124.71 4.58792 123.019 6.44822 121.624C10.3661 118.692 15.1508 116.783 20.0412 116.825C24.9315 116.867 29.8853 119.023 32.8096 122.941" fill="#D3B25B"/>
<path d="M33.1914 122.666C33.1702 122.737 33.0432 122.8 32.9868 122.68L33.1138 122.469L33.1914 122.666Z" fill="#C6B08D"/>
<path d="M32.3028 122.243C32.2958 122.052 32.3169 121.792 32.5493 121.729C32.4859 121.989 32.5845 121.954 32.4789 122.257C32.5422 122.376 32.6761 122.383 32.7324 122.313C32.7113 122.383 32.9014 122.44 32.831 122.588C32.5845 122.567 32.4507 122.405 32.4225 122.137C32.3521 122.137 32.338 122.207 32.3099 122.243H32.3028Z" fill="#C6B08D"/>
<path d="M21.2601 117.213L21.3447 117.191C21.3447 117.191 21.2953 117.213 21.2601 117.213Z" fill="#C6B08D"/>
<path d="M13.7694 118.283C13.8258 118.269 13.8541 118.283 13.8682 118.304C13.8117 118.304 13.7694 118.304 13.7694 118.283Z" fill="#C6B08D"/>
<path d="M12.6426 118.966C12.6426 118.966 12.6849 118.938 12.7061 118.924C12.6849 118.952 12.6637 118.973 12.6426 118.966Z" fill="#C6B08D"/>
<path d="M21.2607 117.213L21.0491 117.269C21.042 117.192 21.1549 117.22 21.2607 117.213Z" fill="#C6B08D"/>
<path d="M31.4782 120.586C31.5064 120.628 31.5135 120.671 31.5205 120.713L31.457 120.621L31.4782 120.586Z" fill="#C6B08D"/>
<path d="M24.5161 117.994L24.5726 118.015C24.5726 118.015 24.5867 118.079 24.5938 118.121L24.5161 117.994Z" fill="#C6B08D"/>
<path d="M26.8911 118.91C26.8346 118.896 26.8982 118.706 26.9123 118.621C26.9123 118.706 26.9335 118.762 26.9688 118.798C26.9546 118.833 26.9264 118.868 26.884 118.917L26.8911 118.91Z" fill="#C6B08D"/>
<path d="M30.4989 120.791L30.5342 120.862C30.5342 120.862 30.5059 120.812 30.4989 120.791Z" fill="#C6B08D"/>
<path d="M22.7266 117.627C22.7266 117.627 22.7054 117.676 22.6913 117.69C22.6913 117.669 22.7054 117.641 22.7266 117.627Z" fill="#C6B08D"/>
<path d="M32.2676 121.92C32.2676 121.92 32.2536 121.934 32.2466 121.948C32.2466 121.92 32.2466 121.906 32.2676 121.92Z" fill="#C6B08D"/>
<path d="M29.2091 120.799L29.2373 120.834C29.2373 120.834 29.202 120.898 29.1808 120.933L29.2091 120.806V120.799Z" fill="#C6B08D"/>
<path d="M10.6142 120.157H10.6213C10.6843 120.143 10.6563 120.157 10.6142 120.157Z" fill="#C6B08D"/>
<path d="M6.9702 134.193C6.68794 134.299 7.30182 134.518 6.89254 134.61C6.94194 134.546 6.6456 134.222 6.9702 134.193Z" fill="#C6B08D"/>
<path d="M31.4082 120.552C31.4082 120.552 31.3588 120.496 31.3305 120.475C31.3729 120.503 31.3941 120.531 31.4082 120.552Z" fill="#C6B08D"/>
<path d="M6.89258 134.617L6.85024 134.624C6.86435 134.624 6.87847 134.624 6.89258 134.617Z" fill="#C6B08D"/>
<path d="M6.04704 123.019C6.04704 123.019 6.03291 122.948 6.03291 122.92C6.04703 122.934 6.0541 122.962 6.04704 123.019Z" fill="#C6B08D"/>
<path d="M9.2041 120.475L9.12649 120.545C9.15472 120.51 9.17588 120.489 9.2041 120.475Z" fill="#C6B08D"/>
<path d="M4.36305 124.236C4.33483 124.286 4.34894 124.314 4.27838 124.356C4.27838 124.342 4.27838 124.335 4.27838 124.321C4.31366 124.321 4.34895 124.3 4.37012 124.236H4.36305Z" fill="#C6B08D"/>
<path d="M3.08702 125.95C3.08702 125.95 3.07995 125.914 3.0729 125.893L3.11523 125.844L3.08702 125.95Z" fill="#C6B08D"/>
<path d="M35.5855 128.494C35.5291 128.43 35.4726 128.395 35.4091 128.367C35.5502 128.416 35.6067 128.028 35.5855 128.494Z" fill="#C6B08D"/>
<path d="M31.4006 120.666C31.4217 120.616 31.4288 120.588 31.4076 120.553L31.457 120.616C31.457 120.616 31.4217 120.666 31.4006 120.666Z" fill="#C6B08D"/>
<path d="M3.13672 123.266L2.90384 123.576C2.96029 123.484 3.04498 123.364 3.13672 123.266Z" fill="#C6B08D"/>
<path d="M21.9017 136.703L21.9863 136.724C21.9863 136.724 21.9228 136.724 21.9017 136.703Z" fill="#C6B08D"/>
<path d="M2.17861 124.477C2.19978 124.575 2.19276 124.66 2.17159 124.738C2.15042 124.738 2.12923 124.752 2.101 124.745L2.17861 124.477Z" fill="#C6B08D"/>
<path d="M35.368 125.605C35.5301 125.978 35.1989 125.872 35.0932 126.006C35.1707 126.464 35.3469 126.147 35.5231 126.26C35.5583 126.57 35.354 126.852 35.4174 127.056C35.4597 127.063 35.4878 127.105 35.5301 127.042C35.3892 127.373 35.6358 127.972 35.3539 128.325C35.3751 128.353 35.3962 128.367 35.4174 128.374C35.2905 128.31 35.1566 128.296 35.058 128.31C35.058 128.473 34.8818 128.592 35.0439 128.67C35.0439 128.571 35.1214 128.571 35.1778 128.522L35.0862 128.684C35.3117 128.867 35.206 128.458 35.3751 128.465C35.2764 128.818 35.0087 129.163 35.0087 129.431C35.2271 129.544 35.2201 128.846 35.3539 129.234C35.3539 129.093 35.3399 128.945 35.3328 128.804C35.664 129.177 35.3328 128.543 35.6992 128.895C35.6781 129.487 35.4737 129.515 35.361 130.072C35.1989 130.15 35.1848 129.966 35.0228 130.037C34.5154 130.636 35.3258 130.861 34.7621 131.228C34.5436 131.27 34.2688 131.157 34.1772 131.566L34.4802 131.615C34.1772 132.052 34.001 131.629 33.7966 132.151C33.9376 132.151 34.1279 131.897 34.0997 131.982C34.0362 132.39 33.8178 132.073 33.6487 132.278L33.7896 132.482C33.3809 132.87 32.8172 133.137 32.3239 133.454C32.3944 133.49 32.5212 133.49 32.4507 133.631C31.7743 133.99 31.133 134.547 30.527 134.991C30.4143 134.969 30.3015 134.948 30.1888 134.92C30.1324 134.948 30.1183 135.054 30.1958 135.061C29.9703 135.244 30.1324 134.948 29.9774 134.927C29.8294 134.977 29.8365 135.117 29.9492 135.139C29.4278 135.188 28.5329 135.287 28.1101 135.646L28.2228 135.674C27.8634 135.878 27.6802 135.399 27.3772 135.674L27.4547 135.695C26.6443 136.012 25.693 135.991 25.0941 136.4C24.932 136.118 24.2767 136.654 24.171 136.238C23.713 136.492 23.8609 136.562 23.1915 136.759C23.0083 136.795 22.8955 136.52 22.6701 136.499V136.717L22.36 136.506L22.212 136.773L22.0006 136.731C22.0852 136.717 22.1768 136.625 22.1557 136.562C21.8245 136.484 21.3664 136.752 21.3594 136.865L20.5772 136.703C20.5984 136.787 20.7252 136.816 20.8309 136.872C20.4152 136.661 20.7604 137.105 20.3799 136.907C20.4292 136.858 20.3517 136.78 20.3376 136.738C20.1474 136.872 19.7175 136.879 19.4004 136.823L19.4639 136.971C18.886 137.013 18.2589 136.893 17.6176 136.893C17.8502 136.83 17.8009 136.569 17.6176 136.541L17.5401 136.766C17.4204 136.625 17.7374 136.682 17.4908 136.506C17.2512 136.527 17.3287 136.766 17.4626 136.844L17.1737 136.759C17.1526 136.83 17.223 136.865 17.2371 136.95C17.1244 136.802 16.7368 137.168 16.5677 136.921L16.5536 136.992C15.9194 136.985 15.6305 136.9 15.1091 136.872C15.1091 136.675 14.8977 136.71 14.7497 136.548C14.3692 136.597 13.9323 136.745 13.4742 136.71C13.1501 136.597 13.3897 136.541 13.2487 136.414C13.2206 136.59 12.7555 136.555 12.988 136.696C12.4313 136.64 12.2763 136.625 11.5858 136.428C11.6703 136.358 11.7549 136.337 11.7126 136.273C11.5858 136.231 11.4166 136.329 11.4307 136.414L11.466 136.435C10.712 136.104 9.57747 136.78 8.98556 136.301L9.02078 136.322C8.80939 136.224 8.60503 136.125 8.40068 136.019C8.09768 135.998 8.55571 136.189 8.31612 136.252C7.66784 135.829 7.18868 136.076 6.66019 135.738C6.07532 136.146 5.09583 135.272 4.35593 135.294L4.44049 135.195C4.33479 135.012 4.22205 135.174 4.08816 135.146C4.14453 135.068 4.30662 135.124 4.23615 135.019C3.61605 134.638 2.9325 134.265 2.3124 133.715C1.68525 133.187 1.17088 132.496 0.846741 131.749C0.628296 131.192 1.35407 131.256 0.910133 130.65L0.719906 130.897C0.726952 130.305 0.684647 129.734 0.691692 129.163C0.691692 128.592 0.762157 128.022 1.00174 127.521C0.938324 127.571 0.867878 127.556 0.846741 127.662C0.719902 127.394 1.06519 126.824 1.19907 126.873C1.24135 126.711 1.09337 126.795 1.06518 126.669C1.05109 126.408 1.48093 126.211 1.37523 126.034C1.36114 126.006 1.2977 126.07 1.26952 126.105C1.4034 125.999 1.55138 125.464 1.66413 125.682C1.76982 125.28 2.10806 125.062 2.18557 124.738C2.47448 124.688 2.48859 124.125 2.7775 124.259C2.50269 124.09 3.00296 123.561 3.27778 123.476C3.15094 123.476 3.34828 123.251 3.17916 123.237C3.36942 123.033 3.59489 122.885 3.67944 123.033C3.764 122.384 4.62372 122.546 4.50393 121.997C5.22268 121.595 5.88505 121.222 6.51925 120.869C6.30785 120.623 5.85686 121.313 5.6807 121.031C6.31489 120.721 6.78701 120.714 7.30846 120.277C7.42826 120.143 7.14637 120.221 7.06886 120.207C7.70305 119.932 8.16813 119.46 8.78118 119.305C8.76709 119.277 8.68959 119.284 8.62617 119.298C8.73892 119.249 8.84464 119.122 8.90806 119.248L8.78823 119.27C8.73186 119.544 9.41537 119.418 9.48584 119.502C9.10532 119.234 9.95799 119.136 9.4295 118.826C9.51406 118.812 9.63382 118.826 9.66201 118.924C9.75361 118.847 9.76069 118.776 9.60566 118.734C10.0214 118.607 9.95094 118.805 10.3033 118.635C10.268 118.572 10.1905 118.586 10.113 118.53C10.3526 118.565 10.5851 118.607 10.8599 118.41C10.8247 118.382 10.8388 118.311 10.7472 118.361C11.2687 118.142 11.7619 118.297 12.2834 117.952C12.0015 117.733 12.4384 117.783 12.382 117.522L12.7203 117.48L12.6357 117.649C12.9105 117.543 13.2135 117.649 13.4179 117.48L13.1783 117.445C13.3545 117.402 13.5306 117.353 13.7068 117.318C13.6152 117.374 13.5306 117.445 13.4461 117.508C13.7632 117.543 13.5165 117.832 13.8618 117.649C13.7772 117.649 14.1366 117.564 14.2353 117.374C14.3974 117.416 14.5594 117.452 14.7426 117.339C14.7779 117.247 14.6228 117.071 14.644 117.008C14.8342 117.184 15.3205 116.895 15.5459 117.085C15.4755 117.043 15.4402 116.909 15.4543 116.881L15.6093 117.029C15.7291 116.944 15.7433 116.916 15.6939 116.81C16.0815 116.698 15.6376 117.163 16.0744 116.923C16.0322 116.923 16.0462 116.888 15.9687 116.874C16.4268 116.698 16.8989 116.824 17.3217 116.669C17.4133 116.388 16.9271 116.669 17.0469 116.423C17.6952 116.373 18.3998 116.585 19.0058 116.486L18.8931 116.521C18.9917 116.881 19.344 116.317 19.6611 116.486C19.5836 116.458 19.5554 116.282 19.5766 116.324C19.9994 116.247 20.4504 116.416 21.0775 116.564L21.0071 116.458C21.2607 116.395 21.6695 116.465 21.9443 116.451C22.0147 116.557 22.1697 116.564 22.057 116.691C22.966 116.261 23.5579 117.219 24.3613 116.965C24.2767 116.944 24.178 116.832 24.2485 116.853C24.4458 116.937 24.6431 117.008 24.8334 117.099C24.7418 117.24 24.7277 117.17 24.5656 117.254C24.6149 117.36 24.7629 117.487 24.9038 117.536C24.6713 117.353 24.9813 117.283 25.1223 117.233C25.087 117.275 25.1082 117.339 25.087 117.388C25.4887 117.212 25.0377 117.712 25.5169 117.663V117.571C25.6648 117.67 25.7706 117.832 25.9397 117.867C26.0736 117.719 25.8058 117.726 25.8481 117.571C26.0806 117.67 26.1863 118.072 26.4611 117.987C26.3836 117.896 26.2356 117.846 26.1581 117.755C26.4682 117.635 26.4823 117.698 26.6655 117.741H26.6443L27.0812 117.818L26.9544 117.832C27.046 118.403 27.5111 118.177 27.7436 118.657C27.5111 118.199 27.7648 118.466 27.8282 118.262C27.955 118.262 28.1312 118.276 28.1171 118.199C28.2228 118.438 28.4835 118.241 28.6103 118.607C28.6526 118.551 28.8006 118.713 28.8499 118.537C29.0543 118.72 28.7372 118.607 28.709 118.692C28.9415 119.086 29.6885 118.96 29.9844 119.566C30.3086 119.974 30.2522 120.207 30.52 120.594C30.7102 120.608 30.5834 120.32 30.5834 120.32C30.8371 120.404 30.978 120.545 31.1049 120.756C31.1049 120.679 31.1823 120.672 31.288 120.672C31.4149 120.82 31.2105 120.947 31.4642 121.045C31.4853 120.961 31.5276 120.834 31.5135 120.714C31.6333 120.919 31.7108 121.165 31.8306 121.37C31.9645 121.327 31.8588 121.144 31.8518 121.031C32.0139 121.25 32.2464 121.609 32.1619 121.792L31.9998 121.715C32.0561 121.792 32.1548 121.644 32.1266 121.567C32.0843 121.299 31.8588 121.37 31.8025 121.412L31.88 121.567C31.4854 121.715 31.4572 121.059 31.1965 120.834L31.0978 121.144C31.0696 121.01 31.0485 120.862 31.0133 120.735C30.9076 120.742 30.7596 120.834 30.8582 120.975C30.5834 120.933 30.7666 120.764 30.5059 120.756C30.4706 120.756 30.4707 120.778 30.4777 120.799L30.3579 120.587C30.3579 120.665 30.1958 120.721 30.3297 120.778C29.921 120.644 29.9492 120.2 29.6955 120.284L29.7096 120.32C29.315 119.904 29.7942 120.115 29.5969 119.65L29.0543 119.932L29.1248 119.721C29.0684 119.692 28.9627 119.643 28.9345 119.728C28.8358 119.488 29.0191 119.671 28.9838 119.481C28.6526 119.481 28.3567 119.002 28.1312 119.263C28.1241 119.072 28.4271 119.291 28.2228 119.037C27.9691 119.319 27.955 118.805 27.6379 118.84C27.6238 119.044 27.8846 119.065 27.5745 119.101C27.5816 118.748 27.1024 118.938 26.9403 118.79C27.0389 118.551 26.5528 118.509 26.2568 118.283C26.2497 118.368 25.5662 118.17 25.2209 118.149V118.192C25.235 117.924 24.8897 117.867 24.6643 117.741C24.629 117.896 24.6572 117.966 24.7629 118.072L24.5374 118.001C24.5092 117.903 24.4528 117.839 24.3049 117.776V117.98C24.016 117.903 23.7552 117.593 23.3324 117.642C23.3465 117.459 23.7623 117.212 23.3536 117.008C23.3184 117.099 23.269 117.261 23.3747 117.325C23.3395 117.304 23.262 117.219 23.1774 117.247L23.3113 117.445C23.114 117.48 23.2409 117.29 23.0929 117.275C23.0717 117.409 22.966 117.353 22.966 117.466C23.0012 117.487 23.1069 117.438 23.1492 117.501C22.9801 117.494 22.7687 117.536 22.6842 117.628C22.7123 117.55 22.7194 117.438 22.5996 117.409C22.2896 117.353 22.4657 117.557 22.2754 117.607C22.212 117.501 22.0006 117.571 22.0288 117.367C21.9372 117.353 21.909 117.452 21.8667 117.501C21.7188 117.388 21.1198 117.402 21.3171 117.198L21.3594 117.184L21.3312 117.17C20.8098 116.909 20.2108 117.219 19.6823 117.135V117.205C19.3652 117.127 18.9776 117.17 18.738 117.043C18.6464 117.043 18.5266 117.184 18.5689 117.261C18.3223 117.226 18.2871 117.142 17.9488 117.297C18.2025 117.388 17.8784 117.416 18.2025 117.36C17.8925 117.452 17.8431 117.571 17.4838 117.423C17.6176 117.585 17.2794 117.67 17.1244 117.649L17.3217 117.487C17.1526 117.487 17.0116 117.529 16.8637 117.564L16.9764 117.783C16.4056 118.156 15.7503 117.515 15.3768 118.093C15.1725 117.973 15.6869 117.896 15.4966 117.748C15.2148 117.853 15.0033 118.255 14.9117 118.276C14.5594 118.502 14.4608 118.051 14.0802 118.255C14.1084 118.163 14.0943 117.931 13.7631 117.945C13.4883 118.072 13.5236 118.396 13.7209 118.396C13.7913 118.382 13.8125 118.347 13.8054 118.318C13.9041 118.318 14.038 118.318 13.9534 118.438L13.89 118.368C13.7772 118.495 13.3897 118.621 13.5236 118.72C13.291 118.72 13.3897 118.621 13.5306 118.53C13.2135 118.762 12.9739 118.72 12.6427 118.945C12.685 118.882 12.6991 118.769 12.6427 118.79C12.1495 119.093 12.3468 118.727 11.9733 118.847C11.8183 119.051 12.1636 119.093 11.7619 119.15C11.5787 119.326 11.8042 119.375 11.9169 119.396C11.5294 119.382 11.3603 119.756 11.1912 119.876L11.3884 119.855C11.2757 119.869 11.1912 119.904 11.1066 119.946L11.1277 119.749C11.0432 119.819 10.9586 119.862 10.9938 119.925C10.8458 119.876 10.9515 119.636 10.6838 119.601C10.5851 119.735 10.2398 119.721 10.2962 119.939C10.6697 119.657 10.3526 120.158 10.712 120.017C10.6345 120.024 10.5569 120.073 10.4724 120.143C10.4724 120.172 10.5076 120.179 10.5358 120.172C10.2399 120.552 10.2469 120.045 9.84522 120.256C9.95797 120.341 9.86639 120.517 9.78888 120.531C9.94391 120.439 9.76774 120.305 9.57044 120.305C9.36609 120.538 9.26035 120.404 9.13351 120.489L9.26039 120.362C9.14764 120.284 9.02782 120.369 8.83051 120.439C8.86574 120.531 9.02784 120.404 8.98556 120.475C8.67551 120.404 8.66845 120.94 8.31612 120.982C8.23861 121.13 8.42886 121.186 8.35135 121.306C7.97083 121.37 8.13292 121.658 7.7524 121.757C7.7524 121.56 7.78763 121.581 7.47758 121.595L8.0554 121.355L7.59035 121.37C7.74537 121.264 7.97788 121.243 8.04835 121.151C7.81581 121.144 7.85811 121.165 7.85107 120.996C7.7806 121.348 7.34368 121.151 7.20275 121.468L7.4494 121.806C7.20277 122.215 6.68837 122.081 6.3008 122.518L6.39947 122.349C6.23739 122.264 6.11052 122.546 5.92026 122.61C6.01891 122.708 5.96254 122.821 5.96254 122.934C5.89912 122.849 5.65249 123.209 5.43404 123.033L5.37065 123.336C5.08878 123.695 4.7153 123.399 4.43344 123.751C4.63074 123.765 4.56734 123.97 4.84921 123.843C4.75055 123.949 4.68006 124.054 4.60255 123.991C4.60255 124.111 4.19384 124.16 4.20089 124.343C4.11633 124.343 3.98953 124.266 3.89088 124.4C3.89792 124.435 3.94017 124.442 3.94017 124.442C3.89084 124.4 3.70058 124.576 3.67944 124.371C3.72173 124.984 2.87616 125.372 3.003 125.915C2.80569 126.161 2.5943 126.478 2.4745 126.732C2.51678 126.732 2.53791 126.76 2.54495 126.704C2.51677 127.112 2.07283 126.774 2.05873 127.253C2.19967 127.542 2.249 127.07 2.28423 127.232C2.69998 127.43 2.05872 127.719 2.26307 128.071L2.30539 128.007C2.41109 128.247 2.03057 128.501 2.03762 128.881C2.03762 128.881 2.07988 128.867 2.10807 128.881C1.84734 129.107 1.77687 129.607 1.74868 129.98C1.91076 129.847 1.8262 129.811 2.01646 129.861C2.01646 130.023 1.7205 129.84 1.70641 130.171C1.8121 130.269 1.94598 130.481 2.13624 130.474C2.12214 130.375 2.10101 130.283 2.09396 130.185C2.36173 130.291 2.15033 130.558 2.22785 130.699L2.32651 130.657C2.40402 131.08 2.14332 131.178 2.34767 131.629L2.24901 131.615C2.11512 131.982 2.47451 131.756 2.43222 132.087L2.71406 132.017C2.7352 132.193 2.81976 132.672 3.01706 132.954C3.0382 132.679 2.90432 132.334 2.89023 132.087C2.97479 132.228 3.20028 132.545 3.158 132.7C3.13686 132.63 3.13685 132.517 3.05934 132.496C3.01706 132.792 3.13685 133.088 3.41167 133.321C3.5667 133.095 3.74994 133.208 3.97543 133.342C4.20092 133.476 4.46869 133.617 4.67304 133.483C5.12402 133.934 5.81458 133.877 6.51219 134.103C6.13872 134.441 6.7236 134.173 6.56153 134.575C6.7236 134.645 6.79405 134.659 6.81519 134.638L7.39302 134.511C7.541 134.42 7.25207 134.378 7.2873 134.293C7.66782 134.349 7.48463 134.152 7.7524 134.096C7.66784 134.237 7.83696 134.335 8.06246 134.321L7.72419 134.455C8.20336 134.786 8.24568 134.194 8.73189 134.511L8.59095 134.349C8.84463 134.483 9.59156 134.511 9.81705 134.885C9.87343 134.843 9.95095 134.737 9.83116 134.688C10.4935 134.723 11.2757 135.216 11.8183 135.04L11.776 134.934C11.8958 134.977 11.9804 135.146 12.1424 135.054C12.1424 135.012 12.1002 134.948 12.1565 134.941C12.2199 134.984 12.4807 135.146 12.6498 135.096L12.5159 134.969C13.1783 134.871 13.5095 135.308 14.0661 135.399C14.0732 135.089 14.6017 135.005 14.8624 134.962V134.92C15.6234 134.899 16.1661 135.209 16.8778 135.343C17.3287 135.019 18.3857 135.223 19.0974 135.033C18.9917 135.089 19.1115 135.272 19.2384 135.308C19.4075 135.244 19.7034 135.519 19.6752 135.237H19.6189C19.7457 134.962 20.084 135.033 20.3517 135.019L20.4011 135.392C21.0846 134.843 22.2402 135.526 22.5855 135.005C22.7617 135.082 22.966 135.068 23.1352 135.146L23.1069 134.948C23.5579 134.85 23.7834 134.807 24.3471 134.779L24.2133 134.652C24.5233 134.596 24.6924 135.167 24.9884 135.132L25.0307 134.821C25.5874 134.73 26.0736 134.371 26.6655 134.497C26.6443 134.455 26.6091 134.378 26.5246 134.392C26.7782 134.321 27.4335 133.941 27.4547 134.356C27.3842 134.096 27.9902 134.173 28.3144 134.173L28.2087 134.004C28.5258 134.152 28.561 134.215 28.9204 134.159C28.9909 134.103 28.9345 133.99 28.8429 134.075C29.0613 133.877 29.1177 134.166 29.3925 133.934L29.2234 133.87C29.4841 133.743 29.4841 133.814 29.6955 133.884C29.8928 133.884 30.1676 133.602 30.1183 133.426C30.2029 133.504 30.4072 133.56 30.5341 133.426C30.52 133.356 30.4495 133.349 30.4072 133.349C30.7525 133.003 31.133 133.18 31.3021 132.834C31.274 132.778 31.2669 132.743 31.281 132.708C30.978 132.926 30.7243 133.088 30.7595 133.088C30.6679 132.933 30.9005 132.757 30.5693 132.665C30.8371 132.665 31.3444 132.672 31.5276 132.426C31.5276 132.405 31.5276 132.383 31.5206 132.355H31.4854C31.5276 132.306 31.584 132.278 31.6474 132.271C31.6967 132.186 31.732 132.137 31.7954 132.08C31.732 131.946 31.9927 131.799 32.0914 131.7C32.2182 131.855 32.338 131.7 32.3169 131.939C32.3239 131.911 32.2816 131.939 32.2041 132.003C32.183 132.017 32.1618 132.031 32.1407 132.031H32.1619C32.0843 132.102 31.9927 132.179 31.8729 132.271C32.0279 132.271 32.183 132.257 32.2252 132.059C32.3662 132.101 32.5212 132.137 32.5987 132.151C32.5565 131.798 32.7185 131.418 32.6128 131.27C32.9933 131.016 33.2822 130.516 33.7332 130.439C33.8389 130.347 33.705 130.255 33.6768 130.192C33.6064 130.241 33.5712 130.319 33.5077 130.326C33.7191 130.157 33.853 129.685 34.1067 129.706C34.0926 129.36 33.8248 129.797 34.001 129.396L33.9094 129.431C33.8248 128.98 34.0362 128.712 34.1983 128.353C34.3604 128.007 34.4801 127.571 34.1067 127.155C34.156 127.211 34.1772 127.239 34.2194 127.246C34.0081 126.732 33.8389 126.196 33.5993 125.668C33.3598 125.139 33.0145 124.646 32.5071 124.343C32.2394 124.153 32.3451 124.012 32.2957 123.787L32.0914 123.885L32.028 123.469C31.7954 122.997 31.0696 123.279 30.83 122.638L30.985 122.574C30.7948 122.455 30.4918 122.067 30.4213 122.222C30.4213 122.187 30.4566 122.06 30.3438 122.067L30.2733 122.152L29.9563 121.673C29.5687 121.489 29.7448 122.067 29.2375 121.722C29.0754 121.553 28.8922 121.081 29.0049 121.067C29.0825 121.116 29.2375 121.144 29.3079 121.067L29.167 120.897C29.3221 120.608 29.3784 120.235 29.9422 120.355L30.1254 120.735L30.3156 120.679L30.069 120.489C30.3015 120.468 30.3156 120.644 30.3579 120.792C30.4354 120.742 30.5059 120.721 30.5904 120.742L30.6961 121.215C30.8089 121.137 30.7173 120.911 30.9569 121.003C31.0062 121.222 30.6539 121.13 30.8159 121.377C31.0485 121.37 31.0837 121.236 31.1683 121.468C31.2458 121.419 31.2458 121.348 31.1965 121.271C31.281 121.468 31.5558 121.616 31.5206 121.813C31.7813 121.792 31.9716 122.264 32.1619 122.018C32.1619 122.109 32.2464 122.419 32.3662 122.553C32.3873 122.06 32.8524 122.983 33.0708 122.652C33.0074 123.054 33.5712 123.385 33.698 123.843C33.698 123.808 33.7191 123.737 33.6768 123.716C33.846 123.892 33.9728 123.885 34.1208 123.97C33.9235 124.153 34.0856 124.505 34.0574 124.766C34.445 124.865 34.2265 124.442 34.4943 124.371C34.304 124.477 34.5929 124.935 34.3745 124.949C34.6281 125.069 34.5436 125.083 34.8043 125.076C34.5225 125.273 34.8677 125.294 34.7479 125.569C35.0439 125.809 35.0791 125.52 35.1355 125.908C35.2976 126.041 35.2905 125.675 35.2835 125.675L35.368 125.605ZM32.2746 133.405C32.338 133.37 32.3873 133.335 32.4226 133.314C32.3944 133.335 32.3521 133.356 32.2746 133.405ZM31.6968 133.8C31.7672 133.743 31.8518 133.687 31.9434 133.624C31.9223 133.553 31.8659 133.511 31.8095 133.553C31.8659 133.567 31.7531 133.694 31.6968 133.8ZM31.9716 131.876C31.887 131.918 31.88 131.968 31.9011 132.01C31.9364 131.982 31.9857 131.954 32.042 131.918H32.0632C32.0632 131.918 31.9998 131.89 31.9716 131.883V131.876Z" fill="#C6B08D"/>
<path d="M32.275 131.946C32.275 131.946 32.3033 131.946 32.3174 131.932C32.3174 131.96 32.3103 131.981 32.3033 132.002L32.2327 131.981L32.275 131.946Z" fill="#C6B08D"/>
<path d="M21.3589 117.191H21.3448C21.3448 117.191 21.366 117.184 21.373 117.17C21.366 117.177 21.3589 117.184 21.3589 117.191Z" fill="#C6B08D"/>
<path d="M22.6699 136.76V136.711L22.7334 136.746L22.6699 136.76Z" fill="#C6B08D"/>
<path d="M25.1084 117.233C25.1084 117.233 25.1366 117.204 25.1719 117.197C25.1719 117.211 25.1366 117.218 25.1084 117.233Z" fill="#C6B08D"/>
<path d="M26.6576 117.74L26.8975 117.768C26.7916 117.768 26.714 117.754 26.6576 117.74Z" fill="#C6B08D"/>
<path d="M27.8425 118.178C27.8425 118.213 27.8355 118.241 27.8284 118.262L27.8496 118.178H27.8425Z" fill="#C6B08D"/>
<path d="M8.61133 119.283C8.61133 119.283 8.5831 119.297 8.56193 119.297C8.44197 119.318 8.51959 119.297 8.61133 119.283Z" fill="#C6B08D"/>
<path d="M14.2139 117.36C14.1433 117.346 14.0727 117.325 14.0022 117.325C14.101 117.283 14.1786 117.255 14.2139 117.36Z" fill="#C6B08D"/>
<path d="M3.15803 123.229H3.16504L3.13704 123.264L3.15803 123.229Z" fill="#C6B08D"/>
<path d="M13.7418 117.409C13.8336 117.338 13.9183 117.324 14.0029 117.324C13.9253 117.36 13.8336 117.409 13.7418 117.409Z" fill="#C6B08D"/>
<path d="M32.2963 121.377L32.3457 121.419C32.3457 121.419 32.3316 121.44 32.3246 121.448L32.2963 121.384V121.377Z" fill="#C6B08D"/>
<path d="M32.3234 121.439L32.3516 121.503C32.3516 121.503 32.3163 121.461 32.3234 121.439Z" fill="#C6B08D"/>
<path d="M32.4152 121.645L32.3588 121.504C32.394 121.539 32.4364 121.582 32.4152 121.645Z" fill="#C6B08D"/>
<path d="M31.0136 120.278L31.0488 120.207C31.0488 120.207 31.0347 120.249 31.0136 120.278Z" fill="#C6B08D"/>
<path d="M30.6397 119.932C30.7455 119.995 30.9713 120.009 31.0771 120.157L31.0489 120.214C31.0489 120.08 30.6538 120.101 30.6397 119.939V119.932Z" fill="#C6B08D"/>
<path d="M28.4268 119.488C28.5538 119.538 28.6808 119.594 28.8008 119.651C28.702 119.679 28.5679 119.714 28.709 119.827C28.1657 119.749 28.8925 119.728 28.4197 119.488H28.4268Z" fill="#C6B08D"/>
<path d="M27.2777 118.995C27.4541 119.123 27.2283 119.094 27.2142 119.137C27.1224 119.01 27.1012 118.981 27.2777 118.995Z" fill="#C6B08D"/>
<path d="M18.5341 117.332L18.5693 117.508C18.4 117.494 18.5693 117.438 18.5341 117.332Z" fill="#C6B08D"/>
<path d="M16.6666 116.62L16.8219 116.479L16.9277 116.627L16.6666 116.62Z" fill="#C6B08D"/>
<path d="M15.8911 118.072L15.9688 118.079L15.6865 118.072H15.8911Z" fill="#C6B08D"/>
<path d="M3.43229 125.724L3.27 125.562C3.36174 125.492 3.58753 125.611 3.43229 125.724Z" fill="#C6B08D"/>
<path d="M2.51697 131.51C2.65105 131.524 2.771 131.644 2.72866 131.785C2.64398 131.679 2.52403 131.587 2.51697 131.51Z" fill="#C6B08D"/>
<path d="M20.8099 135.068L20.6688 134.99L20.9229 135.047L20.8099 135.068Z" fill="#C6B08D"/>
<path d="M17.7317 6.35572H19.3807L20.4658 3.62163C20.3108 3.54412 20.1769 3.4666 20.0571 3.39613C19.4088 3.00153 19.1622 2.65625 18.8874 2.65625C18.7535 2.65625 18.6126 2.7408 18.4153 2.93811C17.7318 3.62163 17.7317 6.35572 17.7317 6.35572Z" fill="#F5CF24"/>
<path d="M22.0234 2.79102L20.0573 3.39702C20.1771 3.46749 20.311 3.54501 20.466 3.62252L19.3809 6.35661C19.3809 6.35661 23.2001 9.76716 24.5601 9.76716C25.5819 9.76716 26.2231 7.07535 26.5966 5.53215C26.7164 5.01774 26.808 4.63019 26.8785 4.50335C27.1462 4.01713 25.9272 2.939 24.9547 2.65714C24.2712 2.45279 22.9817 2.34004 22.0515 2.77693L22.0234 2.79102Z" fill="#F5CF24"/>
<path d="M17.6193 1.98683C16.1889 1.18351 12.8276 0.450665 12.2639 1.57812C11.5874 2.94516 12.2639 7.40567 12.2639 7.90598C12.2639 8.20898 13.3068 8.59654 14.2722 8.67406C14.857 8.73043 15.4208 8.67405 15.6815 8.40628C16.365 7.72276 17.732 6.35573 17.732 6.35573C17.732 6.35573 17.7321 3.62164 18.4156 2.93812C18.6129 2.74082 18.7538 2.65626 18.8877 2.65626L18.5424 2.4801L17.6264 1.98683H17.6193Z" fill="#F5CF24"/>
<path d="M41.6412 24.3027L37.3428 32.3147L43.0082 34.3582L47.1094 26.1701L41.6412 24.3027Z" fill="#F5CF24"/>
<path d="M40.9573 34.3601C41.6338 33.6837 43.6914 36.4107 43.6914 36.4107L45.7137 32.3589L45.4601 32.2391C45.8829 31.3512 48.1659 26.8203 47.9827 25.8267C47.7854 24.8049 42.282 23.3111 42.282 23.3111C42.282 23.3111 42.2045 23.1913 41.2392 23.3111C40.7389 23.3745 39.2168 25.7844 37.9554 28.293C36.7716 30.6395 35.8203 33.0706 36.1585 33.7189C36.8632 35.0436 40.2737 35.7342 40.2737 35.7342H40.6825C40.6965 35.0648 40.7741 34.5504 40.9573 34.3672V34.3601ZM37.3424 32.3166L41.6338 24.3046L47.1019 26.172L43.0078 34.3672L37.3424 32.3166Z" fill="#F5CF24"/>
<path d="M27.8997 20.2516C27.949 20.3221 28.703 21.4002 30.0982 21.9287C30.2815 21.9992 30.4365 22.0274 30.5775 22.0274C31.5147 22.0274 31.4442 20.5123 31.8176 19.2228C32.0431 18.4336 31.9093 17.7501 31.5428 17.3202L32.1488 16.9256C32.2686 16.9256 32.3955 16.9045 32.5153 16.8551C33.6427 16.4253 33.4384 12.5003 32.5153 10.5766C31.5922 8.6529 29.3443 6.35571 26.9132 5.62286L26.5961 5.53125C26.2226 7.0815 25.5814 9.76627 24.5596 9.76627C23.1926 9.76627 19.3804 6.35571 19.3804 6.35571H17.7315C17.7315 6.35571 16.3644 7.72275 15.6809 8.40627C15.4202 8.66699 14.8565 8.73041 14.2716 8.67404L13.5106 10.7669C13.2005 14.1845 13.6726 24.3316 13.8629 25.8255C14.0884 27.5308 8.85276 29.5813 8.85276 30.2648C8.85276 30.9484 11.5868 32.9989 15.089 33.4288C16.6604 33.619 17.1043 33.3231 17.1114 32.9425C16.7097 32.414 16.4983 31.9208 16.4772 31.8574C16.5477 31.9278 17.1184 32.4916 17.1114 32.9425C17.3862 33.309 17.7526 33.6895 18.2177 33.9502C18.8096 34.2885 19.5565 34.4364 20.4656 34.1264C22.6923 33.3724 21.7621 32.3365 21.3393 31.9772C21.7198 32.2379 22.65 32.7523 23.1503 31.8503C23.7845 30.6876 21.1491 27.5378 21.3605 24.543C21.3605 24.543 25.2502 23.4437 26.9203 21.9357C27.4135 21.4989 27.7095 20.9069 27.9068 20.2586L27.8997 20.2516Z" fill="#EA9B9E"/>
<path d="M37.3418 27.3971C37.3418 27.3971 36.8555 26.8545 34.96 26.9743C33.6352 27.0589 32.4091 27.9679 31.6481 28.7148L30.0274 30.5963C31.0139 31.8506 32.381 33.6122 33.5084 35.1977L33.7903 34.9933L34.0792 34.0984C34.361 33.7884 34.7416 33.1965 34.6147 32.3086C34.4174 30.9415 34.2483 29.7014 34.2483 29.7014C34.2483 29.7014 35.4956 28.2075 36.771 28.2145C37.1586 28.2145 37.3558 28.144 37.4615 28.0383C37.687 27.7988 37.3488 27.3901 37.3488 27.3901L37.3418 27.3971Z" fill="#EA9B9E"/>
<path d="M41.64 42.561L37.3768 47.5993L36.1578 45.7178L31.6057 48.4731L31.9298 49.0086C31.9298 49.0086 35.4179 52.2923 36.5806 53.0956C36.7003 53.1732 36.799 53.2295 36.8624 53.2577C37.4403 53.4621 41.943 50.0515 43.3101 47.7684L43.6976 47.6486C44.2825 47.4725 44.212 46.6691 44.212 46.6691C44.212 46.6691 45.7482 45.9856 46.1357 45.1118C46.5233 44.2381 47.1152 39.1575 47.1152 37.7904C47.1152 36.4234 45.7482 32.3223 45.7482 32.3223L45.7271 32.3716L43.7047 36.4234C43.7047 36.4234 41.6471 33.6963 40.9706 34.3728C40.7874 34.556 40.7099 35.0775 40.6958 35.7469C40.6606 37.0999 40.9213 39.0659 41.2595 40.1369L41.6541 42.568L41.64 42.561Z" fill="#EA9B9E"/>
<path d="M31.6065 48.2627L36.1586 45.5075L36.8633 45.0847C36.8633 45.0847 34.8057 41.6671 35.4962 41.9348C36.1868 42.2026 36.1798 40.3 35.4962 38.2565C35.2778 37.5871 34.4815 36.3539 33.5161 34.9939C32.3887 33.4084 31.0216 31.6468 30.0351 30.3925C29.2248 29.3778 28.6681 28.6942 28.6681 28.6942C28.6681 28.6942 27.5195 27.5457 26.082 27.2497L26.096 27.1863L25.7437 26.242C25.8565 26.0165 26.1806 25.7629 26.9275 25.6149C28.2171 25.3542 28.964 24.4804 29.4996 23.7264L30.1197 21.8238H30.5988C30.4579 21.8238 30.3029 21.7886 30.1197 21.7181C28.7174 21.1896 27.9705 20.1115 27.9211 20.041C27.7238 20.6893 27.4349 21.2742 26.9346 21.7181C25.2646 23.219 21.3749 24.3254 21.3749 24.3254C21.1635 27.3202 23.8059 30.47 23.1647 31.6327C22.6644 32.5347 21.7342 32.0273 21.3537 31.7595C21.7765 32.1189 22.7067 33.1618 20.4799 33.9088C19.578 34.2118 18.831 34.0708 18.2321 33.7326L17.8375 36.0932L17.7458 36.6428C16.9143 42.1251 16.5479 57.3739 16.5479 57.3739C16.5479 57.3739 17.8797 58.4027 19.43 59.4456C20.7407 60.3265 22.2063 61.2214 23.1647 61.5103C24.729 61.9895 30.2113 62.1586 33.4034 61.9119C34.4815 61.8274 35.2989 61.6935 35.616 61.5103C36.8774 60.7915 35.616 52.9205 35.616 52.9205L36.5955 52.8782C35.4328 52.0749 31.9448 48.7912 31.9448 48.7912L31.6206 48.2556L31.6065 48.2627Z" fill="#EA9B9E"/>
<path d="M14.3278 115.648L14.2714 115.754C13.6654 117.318 14.3208 123.505 14.3208 123.505H16.5193L18.0414 118.883L19.7748 123.167H20.3315L20.4513 123.188L21.917 117.72L21.8183 117.699C21.1419 117.023 19.4296 115.648 19.4296 115.648H14.3137H14.3278Z" fill="#EA9B9E"/>
<path d="M19.6266 113.294L23.1992 106.678C21.1487 106.093 20.4652 104.789 19.4364 104.416C19.2743 104.352 19.1333 104.303 18.9994 104.268L17.9213 106.678L17.6888 106.607L15.5396 113.294L14.3276 115.648H18.8867L19.6336 113.294H19.6266Z" fill="#EA9B9E"/>
<path d="M22.6077 115.219L21.9312 117.727L20.4655 123.196L20.3457 123.639L22.7698 124.915L23.4885 123.513L24.475 121.603C24.475 121.603 25.3488 122.59 26.3353 123.661C27.1527 124.556 28.0477 125.514 28.5761 126.028C29.7388 127.163 36.5036 127.839 36.1865 126.289C35.8694 124.739 32.8605 122.716 31.2891 121.624C29.7177 120.539 27.8926 117.974 27.505 116.417C27.4839 116.318 27.4487 116.233 27.4134 116.156C26.899 115.036 25.2995 115.818 22.9248 115.289C22.8261 115.268 22.7275 115.24 22.6218 115.219H22.6077Z" fill="#EA9B9E"/>
<path d="M22.9027 115.288C25.2774 115.824 26.877 115.035 27.3914 116.155L28.5259 114.795V114.781C29.442 113.125 29.8013 111.103 29.9352 109.785L30.4355 106.938C29.3574 105.973 29.1742 105.05 27.786 105.486C26.6727 105.832 25.9821 106.395 25.1717 106.67C25.2281 108.495 24.7349 111.251 23.7483 113.287L22.8957 115.281L22.9027 115.288Z" fill="#EA9B9E"/>
<path d="M24.4678 121.602L23.4813 123.511L26.3281 123.666C25.3416 122.588 24.4678 121.609 24.4678 121.609V121.602Z" fill="#EA9B9E"/>
<path d="M19.0001 104.267C19.134 104.302 19.282 104.352 19.437 104.415C20.4658 104.789 21.1493 106.092 23.1999 106.677C24.0314 106.917 24.6374 106.867 25.18 106.677C25.9903 106.409 26.6809 105.846 27.7943 105.493C29.1825 105.056 29.3657 105.979 30.4438 106.945C30.8102 107.276 31.2824 107.607 31.9377 107.896C34.5309 109.031 36.1797 108.143 37.8145 105.5C39.4564 102.851 33.3964 62.2412 33.3964 62.2412V62.1284C30.1972 62.3751 24.7149 62.1989 23.1506 61.7268C22.1922 61.4308 20.7195 60.5429 19.4159 59.6621C19.4159 59.6621 13.6377 82.8666 13.8631 85.3117C14.0886 87.7569 12.2635 101.308 12.2635 103.358C12.2635 105.409 14.9976 104.725 16.5338 104.415C17.8233 104.154 18.2743 104.07 19.0001 104.267Z" fill="#EA9B9E"/>
<path d="M19.3797 6.35572L20.4648 3.62163C20.3098 3.54412 20.1759 3.4666 20.0561 3.39613C19.4078 3.00153 19.1612 2.65625 18.8864 2.65625C18.7525 2.65625 18.6116 2.7408 18.4143 2.93811C17.7308 3.62163 17.7308 6.35572 17.7308 6.35572H19.3797Z" stroke="#4F4131" stroke-linecap="round" stroke-linejoin="round"/>
<path d="M22.0576 2.78279C22.9877 2.3459 24.2773 2.45865 24.9608 2.663C25.9262 2.94486 27.1523 4.03004 26.8845 4.50921C26.814 4.629 26.7225 5.02361 26.6027 5.53802C26.2292 7.08827 25.5879 9.77302 24.5662 9.77302C23.1991 9.77302 19.3869 6.36247 19.3869 6.36247" stroke="#4F4131" stroke-linecap="round" stroke-linejoin="round"/>
<path d="M21.1493 3.62782C21.3394 3.24051 21.6492 2.97292 22.0225 2.79688" stroke="#4F4131" stroke-linecap="round" stroke-linejoin="round"/>
<path d="M18.2246 2.4801C18.1401 2.31802 17.9216 2.1489 17.6257 1.98683C16.1952 1.18351 12.8339 0.450665 12.2702 1.57812C11.5937 2.94516 12.2702 7.40567 12.2702 7.90598C12.2702 8.20898 13.3131 8.59654 14.2785 8.67406C14.8634 8.73043 15.4271 8.67405 15.6878 8.40628C16.3714 7.72276 17.7384 6.35573 17.7384 6.35573" stroke="#4F4131" stroke-linecap="round" stroke-linejoin="round"/>
<path d="M13.5035 10.767C13.5458 10.2808 13.6022 9.94256 13.6797 9.77344" stroke="#4F4131" stroke-linecap="round" stroke-linejoin="round"/>
<path d="M16.4702 31.844C16.5407 31.9144 17.1115 32.4852 17.1044 32.9362C17.0903 33.3238 16.6534 33.6127 15.082 33.4224C11.5798 32.9926 8.84578 30.9491 8.84578 30.2585C8.84578 29.5679 14.0814 27.5244 13.8559 25.8191C13.6586 24.3253 13.1865 14.1781 13.5036 10.7676" stroke="#4F4131" stroke-linecap="round" stroke-linejoin="round"/>
<path d="M21.3387 31.9694C21.7615 32.3288 22.6917 33.3717 20.4649 34.1186C19.563 34.4216 18.816 34.2807 18.2171 33.9425C17.752 33.6817 17.3856 33.3012 17.1107 32.9348C16.7091 32.4063 16.4977 31.913 16.4766 31.8496" stroke="#4F4131" stroke-linecap="round" stroke-linejoin="round"/>
<path d="M19.0986 8.69531C19.7821 9.77344 21.572 21.5342 21.3606 24.5361C21.1492 27.5309 23.7916 30.6807 23.1504 31.8434C22.6501 32.7454 21.7199 32.238 21.3394 31.9703C21.3183 31.9491 21.2901 31.935 21.269 31.9139C21.2196 31.8857 21.1914 31.8575 21.1773 31.8434" stroke="#4F4131" stroke-linecap="round" stroke-linejoin="round"/>
<path d="M26.9201 5.62305C29.3512 6.35589 31.599 8.65309 32.5221 10.5768C33.4452 12.5005 33.6496 16.4325 32.5221 16.8553C32.4023 16.8976 32.2755 16.9258 32.1557 16.9258C31.134 16.9258 30.1051 15.5024 30.1051 15.5024" stroke="#4F4131" stroke-linecap="round" stroke-linejoin="round"/>
<path d="M27.9004 20.252C27.7031 20.9002 27.4142 21.4851 26.9139 21.929C25.2438 23.43 21.3541 24.5363 21.3541 24.5363" stroke="#4F4131" stroke-linecap="round" stroke-linejoin="round"/>
<path d="M30.1055 11.2734C30.035 11.816 30.0844 13.7186 29.0344 15.5014C28.2945 16.7627 28.379 18.6935 27.8999 20.2438" stroke="#4F4131" stroke-linecap="round" stroke-linejoin="round"/>
<path d="M30.1048 16.9254C30.7108 16.7704 31.2252 16.9466 31.5494 17.32C31.9158 17.7499 32.0497 18.4334 31.8242 19.2226C31.4507 20.5121 31.5212 22.0272 30.584 22.0272C30.443 22.0272 30.288 21.999 30.1048 21.9285C28.7025 21.4 27.9556 20.3219 27.9063 20.2514" stroke="#4F4131" stroke-linecap="round" stroke-linejoin="round"/>
<path d="M29.9219 23.3105C29.788 23.4938 29.6471 23.7051 29.485 23.9377C28.9494 24.6917 28.2096 25.5655 26.913 25.8262C26.159 25.9812 25.8419 26.2278 25.7292 26.4533C25.5812 26.7281 25.7292 26.9748 25.7292 26.9748" stroke="#4F4131" stroke-linecap="round" stroke-linejoin="round"/>
<path d="M29.5137 45.296H28.654C27.2869 45.296 25.9199 44.6125 25.9199 44.6125L23.1928 37.0938" stroke="#4F4131" stroke-linecap="round" stroke-linejoin="round"/>
<path d="M24.5672 27.5319C25.0816 27.3628 25.603 27.3628 26.0751 27.4615C27.5127 27.7574 28.6612 28.906 28.6612 28.906C28.6612 28.906 29.225 29.5896 30.0283 30.6043C31.0148 31.8586 32.3819 33.6202 33.5093 35.2057C34.4747 36.5727 35.271 37.8059 35.4894 38.4683C36.1729 40.5188 36.1729 42.4214 35.4894 42.1466C34.8059 41.8718 36.8564 45.2964 36.8564 45.2964L36.1518 45.7192L31.5997 48.4745L30.6977 49.01L29.3307 45.2964" stroke="#4F4131" stroke-linecap="round" stroke-linejoin="round"/>
<path d="M17.7313 36.8613C16.8998 42.3436 16.5334 57.5924 16.5334 57.5924C16.5334 57.5924 17.8652 58.6213 19.4154 59.6642C20.7261 60.545 22.1918 61.4399 23.1501 61.7288C24.7145 62.208 30.1968 62.3771 33.3889 62.1305C34.467 62.0459 35.2844 61.912 35.6015 61.7288C36.8629 61.01 35.6015 53.139 35.6015 53.139" stroke="#4F4131" stroke-linecap="round" stroke-linejoin="round"/>
<path d="M18.2246 35C18.0837 35.1691 17.9498 35.6271 17.83 36.3107" stroke="#4F4131" stroke-linecap="round" stroke-linejoin="round"/>
<path d="M31.9304 49.0094C31.9304 49.0094 35.4185 52.2931 36.5811 53.0964C36.7009 53.1739 36.7996 53.2303 36.863 53.2585C37.4408 53.4629 41.9436 50.0523 43.3106 47.7692C43.5573 47.3605 43.6982 46.98 43.6982 46.6699" stroke="#4F4131" stroke-linecap="round" stroke-linejoin="round"/>
<path d="M35.7218 46.6621L37.8076 48.6211" stroke="#4F4131" stroke-linecap="round" stroke-linejoin="round"/>
<path d="M37.3422 47.6411L37.3774 47.5989L41.6406 42.5605" stroke="#4F4131" stroke-linecap="round" stroke-linejoin="round"/>
<path d="M41.6404 40.869C41.5066 40.7986 41.3727 40.5237 41.2458 40.1291C40.9076 39.0581 40.6469 37.092 40.6821 35.7391C40.6962 35.0697 40.7737 34.5482 40.9569 34.365C41.6334 33.6885 43.691 36.4156 43.691 36.4156L45.7134 32.3638L45.7345 32.3145C45.7345 32.3145 47.1016 36.4085 47.1016 37.7826C47.1016 39.1567 46.5097 44.2303 46.1221 45.104C45.7346 45.9778 44.1984 46.6613 44.1984 46.6613" stroke="#4F4131" stroke-linecap="round" stroke-linejoin="round"/>
<path d="M45.4316 32.3154C45.4316 32.3154 45.4528 32.2731 45.4669 32.2449C45.8897 31.3571 48.1728 26.8261 47.9896 25.8325C47.7923 24.8108 42.2889 23.3169 42.2889 23.3169C42.2889 23.3169 42.2113 23.1971 41.246 23.3169C40.7456 23.3803 39.2236 25.7903 37.9623 28.2988C36.7784 30.6454 35.8271 33.0765 36.1654 33.7247C36.87 35.0495 40.2806 35.7401 40.2806 35.7401" stroke="#4F4131" stroke-linecap="round" stroke-linejoin="round"/>
<path d="M47.1094 26.1701L43.0082 34.3582L37.3428 32.3147L41.6412 24.3027L47.1094 26.1701Z" stroke="#4F4131" stroke-linecap="round" stroke-linejoin="round"/>
<path d="M30.9507 29.4978C31.0846 29.3216 31.3242 29.0397 31.6483 28.7226C32.4093 27.9757 33.6284 27.0667 34.9602 26.9821C36.8628 26.8623 37.342 27.4049 37.342 27.4049C37.342 27.4049 37.6802 27.8136 37.4547 28.0532C37.349 28.1659 37.1517 28.2364 36.7642 28.2294C35.4887 28.2294 34.2415 29.7162 34.2415 29.7162C34.2415 29.7162 34.4106 30.9564 34.6079 32.3235C34.7347 33.2113 34.3542 33.8032 34.0723 34.1133C33.9173 34.2824 33.7905 34.367 33.7905 34.367" stroke="#4F4131" stroke-linecap="round" stroke-linejoin="round"/>
<path d="M33.3954 62.2412C33.3954 62.2412 39.4484 102.851 37.8136 105.5C36.1788 108.143 34.5299 109.031 31.9367 107.896C31.2814 107.607 30.8093 107.276 30.4428 106.945C29.3647 105.979 29.1815 105.056 27.7933 105.493C26.68 105.839 25.9894 106.402 25.179 106.677C24.6364 106.867 24.0304 106.917 23.1989 106.677C21.1484 106.092 20.4649 104.789 19.4361 104.415C19.274 104.352 19.133 104.302 18.9991 104.267C18.2804 104.063 17.8223 104.154 16.5328 104.415C14.9967 104.718 12.2626 105.409 12.2626 103.358C12.2626 101.308 14.0877 87.7569 13.8622 85.3117C13.6367 82.8666 19.4149 59.6621 19.4149 59.6621" stroke="#4F4131" stroke-linecap="round" stroke-linejoin="round"/>
<path d="M28.5273 114.803C28.3654 115.106 28.1823 115.38 27.9851 115.655" stroke="#4F4131" stroke-linecap="round" stroke-linejoin="round"/>
<path d="M30.0273 108.375C30.0273 108.375 30.0273 108.939 29.9357 109.784C29.8018 111.102 29.4425 113.124 28.5264 114.78" stroke="#4F4131" stroke-linecap="round" stroke-linejoin="round"/>
<path d="M25.1792 106.678C25.2356 108.503 24.7423 111.258 23.7558 113.294C23.5867 113.647 23.4035 113.985 23.1992 114.288" stroke="#4F4131" stroke-linecap="round" stroke-linejoin="round"/>
<path d="M23.1992 106.678L19.6266 113.294L19.091 114.288" stroke="#4F4131" stroke-linecap="round" stroke-linejoin="round"/>
<path d="M18.042 105.5L17.6897 106.606L15.5405 113.294L14.9979 114.971" stroke="#4F4131" stroke-linecap="round" stroke-linejoin="round"/>
<path d="M21.9248 117.727L22.6012 115.219C22.7069 115.24 22.8056 115.275 22.9042 115.289C25.279 115.825 26.8785 115.036 27.3929 116.156C27.4282 116.233 27.4634 116.318 27.4845 116.417C27.8792 117.967 29.6972 120.532 31.2686 121.624C32.84 122.716 35.8489 124.739 36.166 126.289C36.4831 127.839 29.7183 127.156 28.5556 126.028C28.0271 125.514 27.1392 124.556 26.3148 123.661C25.3283 122.582 24.4545 121.603 24.4545 121.603L23.468 123.513L22.7492 124.915L20.3252 123.639L20.445 123.196L21.9107 117.727H21.9248Z" stroke="#4F4131" stroke-linecap="round" stroke-linejoin="round"/>
<path d="M14.272 115.754C13.666 117.318 14.3213 123.505 14.3213 123.505H16.5198L18.0419 118.883L19.7754 123.167H20.332" stroke="#4F4131" stroke-linecap="round" stroke-linejoin="round"/>
<path d="M21.833 117.699C21.1565 117.023 19.4442 115.648 19.4442 115.648H14.3284" stroke="#4F4131" stroke-linecap="round" stroke-linejoin="round"/>
</svg>
