<svg width="64" height="146" viewBox="0 0 64 146" fill="none" xmlns="http://www.w3.org/2000/svg">
<path d="M21.8451 124.531C16.0784 126.387 10.7971 129.739 6.6599 134.162C6.11448 134.747 5.56908 135.386 5.42274 136.171C5.09682 137.927 6.8262 139.337 8.41589 140.148C18.5527 145.343 30.6317 144.239 41.9591 143.009C47.666 142.383 53.6723 141.652 58.3017 138.253C60.1175 136.922 61.7005 135.113 62.1794 132.918C62.7781 130.165 61.4877 127.271 59.5122 125.263C57.5368 123.254 54.9427 121.99 52.3752 120.833C47.227 118.511 41.8327 116.469 36.1923 116.177C30.5519 115.884 24.5789 117.58 20.7809 121.757" fill="#D3B25B"/>
<path d="M20.4492 121.466C20.4492 121.559 20.5624 121.612 20.689 121.452L20.6291 121.199L20.4559 121.466H20.4492Z" fill="#C6B08D"/>
<path d="M21.6857 120.814C21.7854 120.581 21.8653 120.262 21.6192 120.209C21.5859 120.522 21.4795 120.495 21.4662 120.848C21.3398 121.001 21.1735 121.04 21.1403 120.961C21.1336 121.054 20.8875 121.147 20.9141 121.32C21.2201 121.26 21.433 121.02 21.5992 120.701C21.6857 120.688 21.6724 120.781 21.6857 120.821V120.814Z" fill="#C6B08D"/>
<path d="M39.6181 116.888L39.5049 116.842C39.5049 116.842 39.5781 116.875 39.6181 116.888Z" fill="#C6B08D"/>
<path d="M50.7463 120.586C50.6597 120.553 50.6198 120.559 50.6064 120.579C50.6864 120.599 50.7596 120.612 50.7463 120.586Z" fill="#C6B08D"/>
<path d="M52.4886 121.624C52.4486 121.604 52.422 121.584 52.3887 121.564C52.422 121.604 52.4553 121.631 52.4886 121.624Z" fill="#C6B08D"/>
<path d="M39.6182 116.889L39.9179 117.009C39.9512 116.942 39.7714 116.929 39.6182 116.889Z" fill="#C6B08D"/>
<path d="M23.4824 118.752C23.4291 118.799 23.3958 118.845 23.3691 118.899L23.4957 118.785C23.4957 118.785 23.4957 118.765 23.489 118.752H23.4824Z" fill="#C6B08D"/>
<path d="M34.4829 116.65H34.3897C34.3897 116.65 34.3364 116.71 34.3164 116.744L34.4896 116.65H34.4829Z" fill="#C6B08D"/>
<path d="M30.5988 117.095C30.6854 117.088 30.6788 116.895 30.6987 116.809C30.6654 116.895 30.6055 116.942 30.5322 116.975C30.5322 117.008 30.5589 117.048 30.5988 117.095Z" fill="#C6B08D"/>
<path d="M24.6522 118.924L24.5723 119.004C24.5723 119.004 24.6322 118.95 24.6522 118.924Z" fill="#C6B08D"/>
<path d="M37.29 116.795C37.29 116.795 37.3033 116.848 37.3167 116.868C37.3167 116.842 37.31 116.822 37.29 116.795Z" fill="#C6B08D"/>
<path d="M17.1562 125.449C17.1562 125.449 17.1696 125.469 17.1696 125.475C17.183 125.449 17.183 125.435 17.1562 125.449Z" fill="#C6B08D"/>
<path d="M21.8588 124.578L21.7988 124.611C21.7988 124.645 21.8055 124.685 21.8188 124.718L21.8588 124.585V124.578Z" fill="#C6B08D"/>
<path d="M55.6082 123.466C55.6082 123.466 55.6015 123.466 55.5949 123.453C55.5016 123.426 55.5482 123.453 55.6082 123.466Z" fill="#C6B08D"/>
<path d="M44.6003 141.932C45 142.052 44.0075 142.225 44.6003 142.338C44.5404 142.271 45.0865 141.985 44.6003 141.932Z" fill="#C6B08D"/>
<path d="M23.5879 118.71C23.6345 118.677 23.6811 118.644 23.7277 118.617C23.6611 118.65 23.6145 118.684 23.5879 118.71Z" fill="#C6B08D"/>
<path d="M44.5996 142.33L44.6602 142.344C44.6333 142.344 44.6198 142.337 44.5996 142.33Z" fill="#C6B08D"/>
<path d="M61.042 129.056C61.042 129.056 61.0753 128.989 61.0886 128.949C61.0686 128.956 61.0553 128.983 61.042 129.056Z" fill="#C6B08D"/>
<path d="M57.5703 124.299L57.6769 124.412C57.6369 124.359 57.6036 124.325 57.5703 124.299Z" fill="#C6B08D"/>
<path d="M61.7742 131.967C61.7542 132.047 61.7276 132.067 61.7409 132.18C61.7542 132.173 61.7609 132.16 61.7675 132.147C61.7475 132.107 61.7409 132.053 61.7742 131.967Z" fill="#C6B08D"/>
<path d="M60.7695 134.941C60.7695 134.941 60.8095 134.921 60.8295 134.908C60.8428 134.881 60.8561 134.848 60.8761 134.814L60.7695 134.941Z" fill="#C6B08D"/>
<path d="M8.34961 131.416C8.44286 131.402 8.51615 131.416 8.58276 131.429C8.45621 131.369 8.80254 130.983 8.34961 131.416Z" fill="#C6B08D"/>
<path d="M23.5417 118.837C23.5351 118.784 23.5418 118.751 23.5884 118.711L23.4951 118.784C23.4951 118.784 23.5151 118.837 23.5417 118.837Z" fill="#C6B08D"/>
<path d="M63.2304 132.227C63.2104 132.433 63.1706 132.639 63.124 132.838C63.1772 132.672 63.2171 132.446 63.2304 132.227Z" fill="#C6B08D"/>
<path d="M21.5797 144.539L21.4531 144.552C21.4998 144.559 21.5464 144.559 21.5797 144.539Z" fill="#C6B08D"/>
<path d="M62.6123 134.602C62.5057 134.675 62.4258 134.761 62.3525 134.861C62.3525 134.888 62.3526 134.921 62.3659 134.948C62.4525 134.841 62.5324 134.721 62.6123 134.608V134.602Z" fill="#C6B08D"/>
<path d="M11.1699 128.781C10.7375 129.094 11.11 129.127 11.1034 129.307C10.6378 129.739 10.7575 129.34 10.5114 129.367C10.232 129.653 10.1389 130.025 9.89945 130.205C9.85955 130.185 9.79969 130.205 9.8263 130.132C9.6201 130.537 8.87515 130.936 8.66895 131.435C8.62905 131.442 8.60244 131.435 8.58248 131.435C8.72216 131.475 8.81527 131.562 8.86183 131.635C8.68889 131.795 8.64232 132.041 8.46938 131.981C8.5758 131.888 8.54255 131.834 8.56251 131.748L8.42947 131.967C8.1102 131.948 8.62236 131.681 8.50929 131.555C8.19667 131.934 7.91732 132.453 7.61136 132.666C7.39851 132.559 8.17672 132.007 7.68451 132.207C7.8375 132.094 8.0038 131.987 8.16344 131.881C7.59807 131.914 8.43612 131.662 7.88405 131.655C7.27877 132.127 7.34532 132.327 6.75999 132.806C6.73339 133.018 6.93291 132.899 6.89965 133.105C6.32097 134.036 5.90193 133.298 5.56936 134.142C5.54941 134.422 5.70906 134.628 5.25676 135.08C5.21685 134.974 5.18357 134.867 5.15032 134.761C4.91087 135.127 4.95079 135.3 4.9641 135.446C4.9907 135.599 4.96407 135.726 4.81109 136.178C4.71132 135.992 4.90423 135.459 4.83772 135.586C4.46524 136.145 4.8643 136.058 4.81109 136.51L4.58496 136.61C4.59826 137.129 4.79114 137.648 5.06385 138.074C5.33655 138.499 5.68244 138.845 6.02831 139.164C5.94849 139.178 5.78219 139.104 5.88862 139.317C6.36087 139.703 6.85309 140.082 7.3586 140.435C7.86411 140.801 8.36962 141.093 8.81527 141.379H9.26756C9.35403 141.419 9.3873 141.526 9.28087 141.519C9.62675 141.758 9.35403 141.413 9.56022 141.432C9.77972 141.519 9.79301 141.665 9.63338 141.659C9.99256 141.752 10.5114 141.845 11.0102 141.991C11.5157 142.131 11.988 142.35 12.3206 142.557H12.161C12.7064 142.823 12.9259 142.39 13.3915 142.73H13.2784C13.5777 142.849 13.8903 142.956 14.2029 143.049C14.5222 143.129 14.8415 143.208 15.1474 143.282C15.766 143.441 16.338 143.621 16.7903 143.847C17.0298 143.608 18.0209 144.213 18.1672 143.847C18.8589 144.16 18.6395 144.186 19.6438 144.466C19.9165 144.525 20.0828 144.279 20.422 144.286L20.4087 144.492L20.8943 144.326L21.1138 144.592L21.4397 144.572C21.3133 144.545 21.1803 144.452 21.2069 144.399C21.7124 144.352 22.4042 144.658 22.4042 144.765C22.8032 144.738 23.1957 144.698 23.5948 144.665C23.5615 144.745 23.362 144.765 23.209 144.805C23.8475 144.632 23.3087 145.024 23.9007 144.871C23.8276 144.818 23.9473 144.752 23.9673 144.712C24.2466 144.858 24.9051 144.891 25.384 144.845L25.2842 144.984C26.1556 145.044 27.1267 144.958 28.1044 144.944C27.7519 144.885 27.8317 144.638 28.1178 144.612L28.2375 144.825C28.4237 144.692 27.9382 144.745 28.3173 144.579C28.6831 144.599 28.5634 144.825 28.3572 144.898L28.8028 144.818C28.8294 144.885 28.7297 144.918 28.7031 144.998C28.8827 144.865 29.4746 145.197 29.734 144.951L29.7606 145.018C30.7384 144.984 31.1774 144.898 31.9689 144.838C31.9689 144.652 32.2882 144.672 32.5143 144.512C33.0997 144.539 33.7582 144.645 34.4566 144.572C34.9421 144.439 34.5896 144.406 34.8024 144.273C34.849 144.439 35.5474 144.372 35.1949 144.519C36.033 144.426 36.2658 144.392 37.31 144.16C37.1903 144.1 37.0573 144.08 37.1171 144.02C37.3034 143.973 37.5628 144.053 37.5428 144.133L37.4963 144.153C38.6536 143.787 40.2832 144.372 41.1878 143.92L41.1346 143.94L42.0924 143.654C42.5447 143.634 41.8397 143.814 42.1789 143.88C43.2032 143.481 43.8551 143.734 44.6998 143.441C45.4381 143.86 47.0876 143.089 48.0521 143.235L47.9789 143.129C48.1918 142.976 48.2782 143.149 48.4578 143.142C48.4179 143.055 48.1851 143.082 48.3182 142.996C50.2803 142.49 52.4687 142.29 54.504 141.579C55.249 141.319 54.6769 140.854 55.6813 140.707L55.5217 141.02C56.832 140.129 58.3951 139.504 59.4726 138.326C59.4327 138.426 59.4726 138.479 59.3529 138.572C59.7187 138.493 60.2907 137.768 60.1976 137.668C60.3839 137.508 60.3173 137.714 60.477 137.654C60.7896 137.482 60.9093 136.896 61.1421 136.863C61.182 136.863 61.1222 136.969 61.0889 137.023C61.1821 136.816 61.7541 136.218 61.4747 136.278C61.907 135.839 62.0467 135.273 62.3593 134.887C62.3128 134.522 62.8649 133.95 62.6054 133.75C62.7385 133.817 62.8915 133.577 62.9646 133.258C63.0378 132.939 63.0644 132.546 63.0046 132.347C63.0844 132.486 63.1309 132.014 63.244 132.18C63.2773 131.721 63.2041 131.309 63.0577 131.389C63.224 130.976 63.111 130.557 62.9912 130.212C62.8649 129.866 62.7518 129.573 62.9048 129.294C62.3926 128.07 61.7275 127.085 61.0224 126.214C61.3018 126.068 61.7408 127.238 61.9669 127.052C61.2951 126.154 60.7164 125.828 60.0579 125.003C59.8983 124.777 60.2575 125.03 60.3639 125.063C59.5458 124.352 58.874 123.607 58.0093 123.188C58.0293 123.168 58.129 123.201 58.2155 123.241C58.0625 123.141 57.8896 122.955 57.8297 123.074L57.996 123.148C58.1157 123.474 57.1646 123.075 57.0781 123.148C57.5504 122.981 56.3664 122.582 57.0382 122.423C56.9185 122.383 56.7588 122.356 56.7322 122.449C56.5925 122.336 56.5726 122.256 56.7788 122.263C56.1735 121.99 56.3065 122.236 55.7944 121.944C55.8276 121.884 55.9474 121.924 56.0338 121.884C55.7079 121.851 55.3887 121.824 54.9763 121.545C55.0228 121.525 54.9962 121.452 55.1226 121.518C54.351 121.146 53.6792 121.186 52.8944 120.687C53.2602 120.54 52.6482 120.474 52.7081 120.228L52.2226 120.095L52.3556 120.288C51.9632 120.108 51.5375 120.115 51.2248 119.895L51.5641 119.928L50.7991 119.649L51.1849 119.922C50.7326 119.862 51.1051 120.228 50.5996 119.935C50.7193 119.955 50.2005 119.762 50.0475 119.543C49.8214 119.536 49.5819 119.523 49.3092 119.343C49.2627 119.237 49.4755 119.117 49.4423 119.044C49.1696 119.157 48.4778 118.711 48.1452 118.824C48.245 118.811 48.2982 118.691 48.2783 118.651L48.0521 118.744C47.8858 118.625 47.8659 118.585 47.9324 118.498C47.3803 118.252 47.9989 118.857 47.3737 118.478C47.4335 118.485 47.4136 118.452 47.5333 118.472C46.8815 118.152 46.1831 118.093 45.5844 117.8C45.478 117.501 46.1564 117.933 46.0101 117.66C45.0855 117.388 44.028 117.328 43.15 117.028L43.3096 117.102C43.0901 117.414 42.691 116.742 42.1855 116.802C42.3052 116.802 42.3784 116.649 42.3385 116.676C41.7332 116.47 41.0481 116.45 40.077 116.39L40.2101 116.323C39.8575 116.177 39.2456 116.104 38.8465 116.011C38.7135 116.084 38.4873 116.037 38.607 116.184C37.4164 115.505 36.2192 116.21 35.1284 115.765C35.2614 115.765 35.4476 115.691 35.3412 115.691C35.0219 115.705 34.7027 115.751 34.3901 115.778C34.4699 115.931 34.5164 115.871 34.716 115.984C34.5962 116.077 34.3368 116.15 34.104 116.157C34.5231 116.051 34.0908 115.904 33.9045 115.831C33.9378 115.878 33.8779 115.931 33.8912 115.977C33.3857 115.731 33.8247 116.29 33.1462 116.15L33.1728 116.071C32.9267 116.124 32.7072 116.263 32.4345 116.263C32.3015 116.097 32.6939 116.15 32.6939 116.004C32.3148 116.057 31.9822 116.41 31.623 116.29C31.776 116.21 32.0088 116.184 32.1618 116.117C31.7627 115.944 31.7228 116.017 31.4435 116.024H31.4701H30.8116L30.9845 116.057C30.5921 116.596 30.0334 116.317 29.4746 116.769C30.0134 116.337 29.5345 116.583 29.5345 116.377C29.3616 116.363 29.1022 116.363 29.1554 116.29C28.896 116.523 28.6166 116.29 28.2707 116.649C28.2308 116.596 27.9514 116.742 27.9714 116.563C27.5989 116.729 28.0978 116.643 28.0911 116.729C27.8251 116.922 27.4659 116.975 27.0735 117.062C26.681 117.135 26.262 117.268 25.9161 117.587C25.2709 118.019 25.2443 118.285 24.6922 118.711C24.4395 118.738 24.7455 118.405 24.7455 118.405C24.3663 118.518 24.1202 118.678 23.8542 118.924C23.8874 118.838 23.7943 118.838 23.6679 118.838C23.4351 119.017 23.6347 119.144 23.2622 119.277C23.2755 119.183 23.2821 119.037 23.362 118.897C23.1026 119.144 22.8897 119.423 22.6502 119.696C22.5039 119.662 22.7168 119.429 22.7766 119.29C22.4906 119.582 22.0051 120.002 22.0317 120.234C22.1115 120.194 22.1847 120.155 22.2645 120.121C22.1581 120.214 22.1049 120.048 22.1714 119.955C22.3576 119.636 22.6037 119.702 22.6569 119.742L22.484 119.928C22.7035 120.002 22.8897 119.835 23.076 119.616C23.2755 119.41 23.475 119.15 23.6945 119.017L23.6746 119.363C23.7744 119.203 23.8741 119.037 23.9805 118.884C24.1136 118.884 24.2599 118.984 24.067 119.144C24.4461 119.084 24.2932 118.897 24.6324 118.877C24.6723 118.877 24.6656 118.897 24.6457 118.924L24.9051 118.678C24.8718 118.764 25.0514 118.818 24.8452 118.891C25.4571 118.731 25.6434 118.246 25.9427 118.325L25.9028 118.365C26.6544 117.933 25.8895 118.146 26.395 117.667C26.5946 117.76 26.7941 117.853 26.987 117.96V117.74C27.0801 117.713 27.2531 117.667 27.2464 117.753C27.5125 117.507 27.1599 117.693 27.2996 117.501C27.7585 117.514 28.4037 117.042 28.59 117.321C28.6964 117.128 28.1643 117.328 28.57 117.088C28.7895 117.374 29.0689 116.889 29.4946 116.942C29.4214 117.148 29.0423 117.148 29.4547 117.201C29.6077 116.842 30.2063 117.088 30.5189 116.968C30.4857 116.722 31.204 116.729 31.7428 116.576C31.7162 116.649 32.7937 116.576 33.3125 116.636L33.2992 116.676C33.379 116.43 33.9178 116.43 34.3036 116.377C34.2903 116.523 34.2238 116.576 34.0176 116.649H34.3767C34.4632 116.563 34.5696 116.516 34.8091 116.49L34.7226 116.676C35.2015 116.649 35.6937 116.47 36.3123 116.616C36.3589 116.45 35.8401 116.104 36.5119 116.044C36.5318 116.137 36.5451 116.297 36.3722 116.323C36.432 116.317 36.5784 116.263 36.6915 116.31L36.4187 116.443C36.6981 116.529 36.5784 116.323 36.8045 116.357C36.7912 116.49 36.9642 116.463 36.9243 116.563C36.8644 116.569 36.7314 116.496 36.6382 116.543C36.891 116.583 37.1969 116.682 37.2834 116.796C37.2701 116.716 37.2967 116.623 37.4896 116.623C37.9752 116.663 37.6359 116.796 37.9087 116.895C38.035 116.815 38.3277 116.942 38.3609 116.756C38.5006 116.776 38.514 116.869 38.5605 116.935C38.8199 116.875 39.7179 117.088 39.4718 116.835L39.4119 116.809C39.4119 116.809 39.4385 116.809 39.4518 116.809C40.3032 116.756 41.1147 117.228 41.9261 117.348L41.9062 117.414C42.3984 117.447 42.9704 117.647 43.3429 117.6C43.4826 117.64 43.6355 117.813 43.5557 117.866C43.9282 117.926 43.9881 117.866 44.4736 118.126C44.0812 118.126 44.5668 118.259 44.0812 118.093C44.5269 118.285 44.6 118.425 45.1521 118.412C44.9326 118.518 45.4314 118.724 45.6643 118.758L45.3849 118.532C45.6376 118.591 45.8505 118.685 46.0633 118.771L45.8704 118.937C46.7085 119.516 47.7129 119.124 48.2516 119.815C48.5509 119.769 47.7927 119.516 48.0721 119.436C48.4911 119.629 48.8104 120.108 48.9434 120.161C49.4755 120.514 49.6085 120.088 50.1806 120.421C50.134 120.314 50.1473 120.088 50.6262 120.214C51.0386 120.427 51.012 120.74 50.7193 120.687C50.6129 120.647 50.5796 120.607 50.5929 120.58C50.4466 120.547 50.2537 120.5 50.3868 120.653L50.4732 120.607C50.6528 120.773 51.2315 121.013 51.0452 121.072C51.3911 121.146 51.2315 121.013 51.012 120.873C51.5042 121.212 51.8501 121.245 52.3689 121.565C52.3024 121.485 52.2558 121.365 52.3423 121.405C53.1072 121.864 52.7613 121.432 53.3201 121.651C53.5795 121.904 53.0872 121.857 53.6726 122.024C53.9652 122.256 53.6526 122.243 53.493 122.243C54.0517 122.343 54.3577 122.782 54.6171 122.948L54.3377 122.875C54.504 122.922 54.6304 122.988 54.7501 123.048L54.6769 122.835C54.81 122.935 54.9363 123.001 54.9031 123.061C55.1026 123.055 54.9097 122.769 55.2822 122.808C55.4418 122.981 55.9208 123.068 55.8809 123.287C55.3088 122.875 55.841 123.507 55.3155 123.241C55.4286 123.274 55.5483 123.347 55.6747 123.454C55.6813 123.487 55.6347 123.48 55.5882 123.467C56.0604 123.966 55.974 123.414 56.5527 123.786C56.413 123.839 56.566 124.059 56.6724 124.099C56.4462 123.946 56.6724 123.859 56.9318 123.926C57.2444 124.245 57.3641 124.145 57.5437 124.292L57.3575 124.099C57.4971 124.059 57.6767 124.199 57.9428 124.358C57.9095 124.445 57.6834 124.239 57.7432 124.338C58.149 124.385 58.2155 124.983 58.6545 125.196C58.7609 125.402 58.5215 125.369 58.6212 125.542C59.1001 125.795 58.9072 126.041 59.3529 126.36C59.3728 126.141 59.3196 126.141 59.6921 126.334C59.4726 126.121 59.2398 125.928 59.007 125.742C59.1933 125.828 59.3862 125.915 59.5724 126.008C59.3862 125.802 59.1068 125.649 59.007 125.516C59.2997 125.622 59.2465 125.635 59.2465 125.442C59.3396 125.881 59.8717 125.901 60.0247 126.36L59.7054 126.593C59.9515 127.198 60.5568 127.398 60.8495 128.203C60.8362 128.11 60.8096 128.023 60.783 127.93C60.9825 127.957 61.0424 128.382 61.202 128.608C61.069 128.635 61.0889 128.815 61.0556 128.948C61.1488 128.901 61.2486 129.513 61.5213 129.513L61.4548 129.919C61.5213 130.571 61.9869 130.597 61.9802 131.276C61.8272 131.089 61.7474 131.382 61.621 130.963C61.6343 131.176 61.6211 131.362 61.7142 131.362C61.6344 131.482 61.8871 131.954 61.7341 132.147C61.7807 132.24 61.927 132.287 61.8738 132.533C61.8405 132.553 61.8073 132.52 61.8073 132.52C61.8738 132.526 61.8273 132.912 62.0068 132.726C61.7474 133.025 61.6344 133.471 61.4681 133.903C61.3084 134.335 61.1022 134.754 60.8029 134.907C60.5967 135.333 60.2774 135.825 59.9914 136.165C59.9781 136.118 59.9449 136.118 60.0047 136.065C59.5125 136.431 60.038 136.604 59.4394 137.009C59.0336 137.102 59.6256 136.67 59.4128 136.763C59.0536 136.524 58.8474 137.382 58.3086 137.475L58.3818 137.382C58.0293 137.495 57.7898 138.034 57.2843 138.34C57.2843 138.34 57.2843 138.293 57.251 138.286C57.0382 138.685 56.4196 139.164 55.9341 139.47C56.0139 139.237 56.1203 139.271 55.9473 139.171C55.7345 139.311 56.1469 139.377 55.7079 139.663C55.5217 139.663 55.1492 139.743 55.0294 139.597C55.1758 139.53 55.3155 139.464 55.4552 139.384C55.1359 139.291 54.9031 139.65 54.657 139.723L54.6437 139.617C53.9985 139.949 54.0783 140.175 53.3267 140.448L53.4331 140.495C53.1072 140.88 53.0407 140.475 52.6948 140.801L52.4886 140.594C52.2359 140.734 51.6106 141.14 51.1184 141.313C51.3578 141.06 51.9033 140.781 52.2159 140.568C51.9432 140.648 51.3047 140.867 51.1916 141.027C51.298 140.974 51.4177 140.874 51.5374 140.88C51.2581 141.173 50.8391 141.393 50.2803 141.526C50.2604 141.013 48.8037 141.725 48.3182 141.406C47.367 141.772 46.3427 141.665 45.1853 141.852C45.6509 142.184 44.8461 141.911 44.9725 142.304C44.6998 142.364 44.6 142.37 44.5734 142.344L43.7154 142.204C43.5025 142.111 43.9615 142.084 43.9282 141.998C43.3296 142.038 43.6555 141.858 43.2498 141.792C43.3495 141.925 43.0635 142.024 42.7177 142.004L43.2165 142.138C42.4051 142.45 42.4583 141.878 41.6335 142.184L41.8862 142.031C41.4605 142.151 40.2899 142.197 39.8974 142.57C39.8176 142.53 39.7046 142.43 39.8908 142.384C38.8532 142.437 37.6227 142.969 36.7979 142.836L36.8644 142.73C36.6715 142.776 36.5451 142.949 36.2924 142.869C36.299 142.829 36.3589 142.763 36.2724 142.763C36.1727 142.809 35.7736 142.982 35.5142 142.949L35.7203 142.816C34.7027 142.769 34.1905 143.208 33.3524 143.341C33.3325 143.049 32.5343 143.002 32.1352 142.976L32.1485 142.936C30.9712 142.976 30.1664 143.268 29.0822 143.428C28.4038 143.115 26.7941 143.335 25.7166 143.115C25.8829 143.175 25.6833 143.341 25.4904 143.368C25.2377 143.302 24.7787 143.554 24.8319 143.288H24.9251C24.7455 143.035 24.22 143.062 23.8143 143.035L23.7278 143.381C22.6968 142.836 20.9276 143.341 20.3954 142.823C20.1294 142.876 19.8168 142.823 19.5574 142.876L19.5973 142.69C18.9055 142.543 18.5596 142.483 17.6949 142.35L17.8945 142.251C17.4156 142.144 17.1828 142.663 16.7238 142.59L16.6507 142.291C15.8126 142.098 15.0277 141.659 14.1497 141.665C14.1763 141.632 14.2229 141.559 14.3559 141.592C13.9701 141.466 12.9325 140.94 12.9458 141.353C12.9791 141.233 12.7729 141.16 12.4935 141.113C12.2208 141.047 11.8816 141.007 11.6421 140.974L11.7752 140.827C11.3229 140.907 11.2896 140.96 10.7509 140.827C10.6378 140.761 10.7043 140.648 10.8439 140.754C10.4781 140.508 10.4582 140.794 10.0192 140.481L10.2453 140.455C9.84626 140.255 9.8529 140.328 9.57354 140.348C9.28753 140.295 8.8219 139.943 8.84186 139.77C8.74209 139.836 8.45611 139.856 8.25657 139.683C8.25657 139.61 8.35633 139.623 8.40954 139.623C7.85082 139.171 7.37189 139.244 7.09918 138.792C7.13244 138.739 7.1258 138.692 7.10584 138.652C7.52488 139.011 7.91068 139.257 7.86412 139.244C7.95058 139.104 7.61135 138.832 8.02374 138.832C7.66457 138.759 7.00607 138.599 6.77327 138.233C6.77327 138.207 6.77327 138.18 6.77327 138.153L6.81318 138.173C6.75997 138.093 6.69347 138.047 6.6203 138C6.56044 137.887 6.52719 137.807 6.46733 137.714C6.54715 137.601 6.31435 137.315 6.26114 137.149C6.0882 137.229 6.04829 136.983 5.96847 137.255C5.96847 137.222 6.0017 137.282 6.06156 137.402C6.07486 137.428 6.09482 137.455 6.10813 137.468H6.08819C6.15471 137.575 6.23451 137.728 6.36088 137.887C6.18795 137.814 6.02165 137.694 6.02165 137.448C5.87532 137.402 5.70241 137.335 5.6359 137.282C5.76893 136.903 5.93519 136.431 6.11478 136.404C6.04162 135.885 6.62028 135.187 6.68014 134.621C6.78656 134.442 6.91297 134.515 7.00609 134.495C6.94623 134.608 6.85308 134.708 6.84643 134.788C7.05262 134.429 7.67121 133.883 7.55813 133.637C8.01043 133.344 7.50494 134.003 7.99049 133.471L7.97052 133.59C9.24095 132.892 9.22767 131.542 10.7841 130.936C10.6777 130.983 10.6311 131.003 10.5846 130.983C12.1078 130.039 13.4513 128.602 15.174 128.023C15.6463 127.837 15.613 127.671 15.8259 127.418L16.0188 127.544L16.3779 127.092C16.9699 126.593 17.7415 126.952 18.4665 126.28L18.3002 126.207C18.6195 126.081 19.258 125.708 19.2647 125.875C19.2846 125.841 19.3112 125.702 19.4642 125.715L19.5108 125.808C19.7436 125.642 19.983 125.496 20.2225 125.336C20.8544 125.183 20.2757 125.755 21.1603 125.462C21.473 125.316 22.0051 124.85 21.8587 124.83C21.7257 124.87 21.4929 124.884 21.453 124.791L21.739 124.638C21.6991 124.325 21.8454 123.939 21.0074 123.992L20.5351 124.352L20.3156 124.272C20.4619 124.212 20.6149 124.159 20.7613 124.105C20.4553 124.059 20.3355 124.232 20.1892 124.385C20.116 124.325 20.0229 124.298 19.9099 124.312L19.4975 124.784C19.3911 124.697 19.6438 124.471 19.2713 124.544C19.0851 124.771 19.6039 124.704 19.2381 124.95C18.9387 124.924 18.9654 124.784 18.7193 125.017C18.6461 124.957 18.6927 124.89 18.7924 124.811C18.5663 125.003 18.1206 125.136 18.0541 125.349C17.7282 125.309 17.2094 125.782 17.1096 125.509C17.0564 125.609 16.7637 125.935 16.5376 126.061C16.8036 125.529 15.6663 126.48 15.6064 126.094C15.4401 126.533 14.5555 126.826 14.1098 127.292C14.1298 127.252 14.1564 127.172 14.2162 127.158C13.9036 127.318 13.7706 127.291 13.5444 127.358C13.6442 127.604 13.2052 127.937 13.0589 128.236C12.5667 128.263 13.1121 127.837 12.866 127.704C12.999 127.87 12.3539 128.289 12.58 128.356C12.2208 128.409 12.3006 128.449 12.0412 128.362C12.1809 128.662 11.8217 128.582 11.7153 128.901C11.2364 129.047 11.4359 128.722 11.0701 129.107C10.8107 129.174 11.1167 128.801 11.1167 128.801L11.1699 128.781ZM6.08153 139.111C6.00172 139.031 5.92856 138.965 5.882 138.918C5.92191 138.958 5.98176 139.011 6.08153 139.111ZM6.91962 139.823C6.8132 139.743 6.68679 139.637 6.55376 139.53C6.56706 139.457 6.64023 139.43 6.72005 139.504C6.64688 139.504 6.8265 139.683 6.91962 139.829V139.823ZM6.43404 137.475C6.51386 137.568 6.50722 137.621 6.48726 137.654C6.45401 137.608 6.40744 137.548 6.35423 137.475C6.34757 137.475 6.33429 137.475 6.32763 137.475C6.36754 137.475 6.40078 137.462 6.43404 137.475Z" fill="#C6B08D"/>
<path d="M6.11516 137.383C6.11516 137.383 6.09518 137.363 6.08186 137.336C6.08186 137.369 6.0752 137.396 6.0752 137.423C6.10184 137.423 6.12181 137.436 6.14845 137.443C6.13513 137.423 6.12849 137.396 6.12183 137.376L6.11516 137.383Z" fill="#C6B08D"/>
<path d="M39.485 116.83H39.5052C39.5052 116.83 39.4716 116.816 39.4648 116.803C39.4783 116.816 39.4783 116.823 39.485 116.83Z" fill="#C6B08D"/>
<path d="M20.4224 144.519V144.473L20.3291 144.499L20.4224 144.519Z" fill="#C6B08D"/>
<path d="M33.9178 115.812C33.9178 115.812 33.8845 115.779 33.8379 115.766C33.8379 115.779 33.8779 115.792 33.9178 115.812Z" fill="#C6B08D"/>
<path d="M31.4573 116.011L31.0977 115.998C31.2509 116.011 31.3641 116.011 31.4573 116.011Z" fill="#C6B08D"/>
<path d="M29.5747 116.277C29.5614 116.317 29.5547 116.344 29.5547 116.364L29.568 116.277H29.5747Z" fill="#C6B08D"/>
<path d="M58.209 123.215C58.209 123.215 58.2556 123.241 58.2756 123.255C58.4421 123.328 58.3355 123.268 58.209 123.215Z" fill="#C6B08D"/>
<path d="M50.0537 119.524C50.1536 119.524 50.2535 119.537 50.3535 119.55C50.2136 119.477 50.1003 119.424 50.0537 119.524Z" fill="#C6B08D"/>
<path d="M63.2371 132.154L63.2305 132.228L63.2371 132.154Z" fill="#C6B08D"/>
<path d="M50.7263 119.715C50.5931 119.615 50.4732 119.575 50.3467 119.549C50.4599 119.609 50.5931 119.689 50.7263 119.715Z" fill="#C6B08D"/>
<path d="M22.0789 119.748L21.999 119.801C21.999 119.801 22.0124 119.821 22.0124 119.835L22.0789 119.755V119.748Z" fill="#C6B08D"/>
<path d="M22.0119 119.828L21.9453 119.908C21.9786 119.875 22.0119 119.855 22.0119 119.828Z" fill="#C6B08D"/>
<path d="M21.8125 120.088L21.9457 119.908C21.8858 119.955 21.8125 120.015 21.8125 120.088Z" fill="#C6B08D"/>
<path d="M24.2335 118.38V118.307C24.2335 118.307 24.2201 118.353 24.2335 118.38Z" fill="#C6B08D"/>
<path d="M24.8977 117.986C24.7249 118.053 24.4191 118.079 24.2197 118.246V118.305C24.2796 118.152 24.798 118.159 24.8977 117.986Z" fill="#C6B08D"/>
<path d="M28.1176 117.533C27.9115 117.573 27.7121 117.633 27.5127 117.686C27.639 117.719 27.8052 117.759 27.546 117.872C28.3436 117.812 27.3399 117.766 28.1109 117.533H28.1176Z" fill="#C6B08D"/>
<path d="M29.9931 117.121C29.6801 117.228 30.0197 117.221 30.0131 117.268C30.2062 117.161 30.2529 117.134 29.9931 117.121Z" fill="#C6B08D"/>
<path d="M43.6883 117.967L43.6084 118.12C43.8615 118.173 43.6284 118.06 43.6883 117.967Z" fill="#C6B08D"/>
<path d="M46.5234 117.959L46.3169 117.779L46.1504 117.886L46.5234 117.959Z" fill="#C6B08D"/>
<path d="M47.5927 119.649L47.4795 119.629L47.8991 119.729L47.5927 119.649Z" fill="#C6B08D"/>
<path d="M60.9092 134.369L61.129 134.403C61.1756 134.236 60.9758 134.11 60.9092 134.369Z" fill="#C6B08D"/>
<path d="M53.3992 140.301C53.2596 140.241 52.9738 140.268 52.8408 140.421C53.0602 140.361 53.2995 140.361 53.3992 140.301Z" fill="#C6B08D"/>
<path d="M23.2755 143.083L23.482 143.023L23.0957 143.063L23.2755 143.083Z" fill="#C6B08D"/>
<path d="M21.5329 15.0027L19.5774 17.6699L20.6815 20.3438L17.2893 18.4149L14.2363 20.3438L15.061 16.9249L12.9658 13.8919L15.806 13.2134L17.2893 10.2402L19.0386 13.8919L21.2868 14.557C21.3732 14.7167 21.4531 14.863 21.5329 15.0027Z" fill="#F5CF24"/>
<path d="M12.8325 14.6967L10.6575 17.6699L11.7683 20.3438L8.37607 18.4149L5.77534 20.0511L5.31639 20.3438L6.14781 16.9249L4.36523 14.3375C4.45835 14.2111 4.55813 14.0848 4.66456 13.9584C4.74437 13.8653 4.82419 13.7722 4.91066 13.6857L6.89277 13.2134L8.37607 10.2402L10.1254 13.8919L12.8325 14.6967Z" fill="#F5CF24"/>
<path d="M21.533 15.0013L21.7525 14.6953L21.2869 14.5556L19.0387 13.8905L17.2894 10.2388L15.8061 13.212L12.9659 13.8905L15.0611 16.9235L14.2364 20.3424L17.2894 18.4135L20.6816 20.3424L19.5775 17.6685L21.533 15.0013ZM29.3285 15.5533C29.6012 15.6265 29.8207 15.8127 29.9936 16.1852C30.6654 17.6685 29.1821 21.3867 28.4372 21.3867C27.9716 21.3867 26.9273 21.4864 26.2023 21.5662V21.646L23.9741 23.575C23.6947 24.0007 23.3089 24.5195 22.8699 24.9718L23.9807 28.0713L26.934 28.5636L28.4372 28.8163V29.4216C27.6922 30.2996 23.994 34.1109 22.8699 35.1751C21.7525 36.246 20.2626 36.9843 18.0343 36.9843C15.8061 36.9843 15.8061 33.2728 15.8061 33.2728L18.1275 29.4282L17.888 28.8163L17.2894 27.3264C17.2894 27.3264 13.5779 28.0713 12.0747 28.0913C10.5714 28.1179 9.12143 26.5814 7.6315 24.3532C6.14823 22.125 6.3278 22.9165 6.14821 20.6417L5.77573 20.0497L8.37646 18.4135L11.7687 20.3424L10.6579 17.6685L12.8329 14.6953L10.1258 13.8905L8.37646 10.2388L6.89316 13.212L4.91105 13.6843L4.05303 13.8905L4.36563 14.3361C3.90003 14.9281 3.52091 15.3871 3.17503 14.6953C2.43672 13.212 3.17503 10.9838 3.17503 10.9838L1 11.6755C1 11.6755 1.69176 8.01062 3.17503 5.78239C4.66496 3.55415 5.44981 4.51196 5.44981 4.51196V1C5.44981 1 7.99731 1.92454 10.1457 2.05092C10.1457 2.05092 13.5845 2.58969 13.7442 2.69611H13.7508C14.702 2.11743 15.9524 1.71169 16.9967 1.57201C18.7793 1.32591 22.1183 1.95115 22.1183 1.95115L20.8279 4.13282C20.8279 4.13282 22.7768 2.82914 24.4929 2.82249C26.209 2.80918 29.661 4.80463 30.1665 6.40762C30.6654 8.01062 31.7297 11.6755 31.7297 11.6755H30.1665L29.3617 15.4602L29.3285 15.5533Z" fill="#99B3C1"/>
<path d="M8.67568 54.6095L8.32317 54.5163L8.76215 52.8867L12.9459 53.9776L12.773 55.5939C12.1145 58.2943 9.85301 67.0609 10.2055 68.624C10.6046 70.4199 12.6865 73.7989 12.3872 75.4551H10.2055L9.95278 75.3553L8.76215 78.4881L7.15251 78.8007L5.54953 79.1067L5.05729 79.1998L4.77128 78.701L3.91992 77.2177V74.1314C3.91992 71.9032 6.8931 66.7018 6.8931 64.9258C6.8931 63.2563 8.19677 56.4852 8.67568 54.6095Z" fill="#99B3C1"/>
<path d="M28.4366 29.4221V28.8169L26.9334 28.5641L26.9799 28.3047C27.5187 28.4045 29.2414 28.451 29.2414 28.451C31.4497 29.1295 34.3763 30.3001 34.3763 30.3001C34.3763 30.3001 37.3495 31.7834 38.0945 33.2733C38.8395 34.7566 43.2959 42.9312 43.2959 42.9312C43.2959 42.9312 42.7705 44.7537 42.0388 46.3966L42.9367 49.4031C43.9078 53.5269 45.5241 63.8433 45.5241 64.4752C45.5241 65.2202 47.7524 68.1934 47.7524 69.6766C47.7524 70.7808 46.7746 74.3127 46.2691 76.0421L45.9897 75.9622L44.0741 75.8159L43.0165 75.7361L42.0854 75.6696L40.3028 75.5299L39.3051 75.4567C39.4447 74.8182 39.7507 73.7074 40.3028 73.1088L39.8438 72.8095L40.2362 71.8916C39.8172 71.7319 40.03 70.3152 40.1897 68.9982L39.5778 68.9317C39.5778 68.9317 35.8663 71.1599 33.4385 72.2308C31.483 73.0888 22.1976 72.8361 17.8874 72.4902C16.8431 72.4037 16.0915 72.3106 15.8055 72.2308C14.3223 71.8118 15.8055 61.502 15.8055 59.899C15.8055 59.2937 15.5195 57.2052 15.1603 54.8439L12.972 53.9925L12.9454 53.9792L8.76163 52.8884L7.63092 52.5891C7.63092 52.5891 6.89258 52.5891 6.89258 49.6159C6.89258 46.6427 10.6041 38.4747 12.0741 36.3795C13.544 34.2843 16.5505 30.3001 17.8874 28.8169L18.1269 29.4221L15.8055 33.2733C15.8055 33.2733 15.8055 36.9848 18.0337 36.9848C20.262 36.9848 21.7519 36.2465 22.8693 35.1756C23.9934 34.1114 27.6916 30.3001 28.4366 29.4221Z" fill="#99B3C1"/>
<path d="M26.8941 118.284V121.125C27.2267 120.872 27.5326 120.619 27.8053 120.406C27.8053 120.406 27.7056 127.623 27.7921 128.055C27.3198 128.055 17.2495 132.831 15.8062 133.117C14.3229 133.41 7.63152 134.314 6.89321 133.117C6.14825 131.926 8.37651 129.851 12.946 127.43C15.9458 125.834 18.48 124.178 19.8702 123.226L22.1184 122.116L22.87 118.284L22.8966 118.045C23.9408 118.165 25.79 118.344 26.8941 118.264V118.284Z" fill="#99B3C1"/>
<path d="M35.2678 110.449C34.5495 111.168 33.9375 111.686 33.9375 111.686L29.1152 107.715C29.654 103.578 30.2659 99.0353 30.7448 95.8359C32.1483 97.1662 35.4408 105.181 37.1369 106.372C37.6091 106.704 37.5759 107.263 37.2699 107.895C36.8708 108.733 36.0128 109.704 35.2678 110.449Z" fill="#99B3C1"/>
<path d="M39.2126 108.46C39.2126 108.46 41.0684 110.535 41.2479 111.686C41.4275 112.83 40.3234 123.166 38.8401 125.72C37.3502 128.275 33.6387 128.368 33.3061 125.72C33.0401 123.612 34.8227 117.12 35.5543 114.559V114.539L36.7316 112.092L35.8669 110.921L35.2683 110.449C36.0133 109.704 36.8713 108.733 37.2704 107.895L39.2126 109.963C39.2991 109.351 39.3057 108.806 39.2126 108.46Z" fill="#99B3C1"/>
<path d="M20.1758 89.2983C19.5173 87.1699 19.0184 79.1083 18.8455 75.9622H18.779L17.8877 72.4901C22.1978 72.836 31.4832 73.0888 33.4388 72.2307C35.8665 71.1599 39.578 68.9316 39.578 68.9316L40.1899 68.9981C40.0303 70.3151 39.8175 71.7319 40.2365 71.8915L39.8441 72.8094L38.8397 72.0379C38.0948 73.3881 32.1484 88.9924 31.4101 91.9656C31.2571 92.5708 31.0243 93.9743 30.7449 95.8367C30.266 99.036 29.6541 103.579 29.1153 107.716C28.4236 112.991 27.8515 117.6 27.805 117.946C27.7784 118.132 27.4192 118.225 26.8937 118.265C25.7896 118.345 23.9405 118.166 22.8962 118.046C22.424 117.986 22.118 117.946 22.118 117.946C22.118 117.946 20.096 113.543 20.1824 110.922C20.249 108.647 20.2623 94.8523 20.7545 89.3515L20.1758 89.2983Z" fill="#99B3C1"/>
<path d="M11.3496 22.8704C12.8329 24.3536 15.0611 23.6153 15.0611 23.6153C15.0611 23.6153 16.704 22.6509 16.9967 21.6465" stroke="#4F4131" stroke-linecap="round" stroke-linejoin="round"/>
<path d="M18.127 29.4297L18.7788 31.046" stroke="#4F4131" stroke-linecap="round" stroke-linejoin="round"/>
<path d="M6.14844 20.6426C6.32803 22.9174 6.14847 22.1258 7.63174 24.3541C9.12166 26.5823 10.5717 28.1188 12.0749 28.0922C13.5781 28.0722 17.2896 27.3273 17.2896 27.3273L17.8882 28.8172L18.1277 29.4225" stroke="#4F4131" stroke-linecap="round" stroke-linejoin="round"/>
<path d="M26.2083 16.186C27.3191 16.186 28.5163 15.3479 29.3278 15.5541C29.6005 15.6273 29.82 15.8135 29.993 16.186C30.6648 17.6693 29.1815 21.3874 28.4365 21.3874C27.9709 21.3874 26.9266 21.4872 26.2016 21.567C25.7626 21.6069 25.4434 21.6468 25.4434 21.6468" stroke="#4F4131" stroke-linecap="round" stroke-linejoin="round"/>
<path d="M24.4927 22.7227C24.4927 22.7227 24.2998 23.0885 23.9739 23.574C23.6945 23.9997 23.3088 24.5185 22.8698 24.9708C22.5239 25.33 22.1448 25.6426 21.7523 25.8422C20.2624 26.5805 20.1826 26.8931 20.1826 26.8931" stroke="#4F4131" stroke-linecap="round" stroke-linejoin="round"/>
<path d="M28.4374 28.8172L26.9341 28.5644L23.9809 28.0722L22.8701 24.9727" stroke="#4F4131" stroke-linecap="round" stroke-linejoin="round"/>
<path d="M28.4367 29.4219C27.6918 30.2999 23.9936 34.1112 22.8695 35.1754C21.752 36.2463 20.2621 36.9846 18.0339 36.9846C15.8056 36.9846 15.8057 33.2731 15.8057 33.2731L18.127 29.4285" stroke="#4F4131" stroke-linecap="round" stroke-linejoin="round"/>
<path d="M28.4375 28.2188C28.6903 28.2853 28.9563 28.3651 29.2423 28.4516C31.4506 29.13 34.3772 30.3007 34.3772 30.3007C34.3772 30.3007 37.3504 31.7839 38.0954 33.2738C38.8404 34.7571 43.2968 42.9317 43.2968 42.9317C43.2968 42.9317 42.7714 44.7542 42.0397 46.3971C41.5342 47.5279 40.9289 48.5722 40.3236 48.8715C38.8403 49.6164 34.3772 51.0997 34.3772 51.0997L29.1825 41.4418" stroke="#4F4131" stroke-linecap="round" stroke-linejoin="round"/>
<path d="M12.9727 53.9922L14.1766 54.3048" stroke="#4F4131" stroke-linecap="round" stroke-linejoin="round"/>
<path d="M8.76172 52.8867L12.9455 53.9776" stroke="#4F4131" stroke-linecap="round" stroke-linejoin="round"/>
<path d="M17.8874 28.8164C16.5505 30.2997 13.544 34.2839 12.0741 36.3791C10.6041 38.4743 6.89258 46.6423 6.89258 49.6154C6.89258 52.5886 7.63092 52.5886 7.63092 52.5886L8.76163 52.8813" stroke="#4F4131" stroke-linecap="round" stroke-linejoin="round"/>
<path d="M12.3877 43.2031C12.8333 43.6754 13.8178 46.4291 13.8178 46.4291C13.8178 46.4291 14.5827 50.9986 15.1613 54.8431C15.5205 57.2044 15.8065 59.293 15.8065 59.8982C15.8065 61.5012 14.3233 71.811 15.8065 72.23C16.0926 72.3098 16.8442 72.4029 17.8884 72.4894C22.1986 72.8353 31.484 73.088 33.4395 72.23C35.8673 71.1591 39.5788 68.9309 39.5788 68.9309" stroke="#4F4131" stroke-linecap="round" stroke-linejoin="round"/>
<path d="M38.8398 56.3008L39.5781 64.9277" stroke="#4F4131" stroke-linecap="round" stroke-linejoin="round"/>
<path d="M8.76215 54.3047C8.73554 54.3845 8.70893 54.4843 8.67568 54.6107C8.19677 56.4864 6.8931 63.2575 6.8931 64.927C6.8931 66.703 3.91992 71.9044 3.91992 74.1326V78.4893" stroke="#4F4131" stroke-linecap="round" stroke-linejoin="round"/>
<path d="M5.44893 74.6914L4.77047 78.7022L4.66406 79.3341" stroke="#4F4131" stroke-linecap="round" stroke-linejoin="round"/>
<path d="M6.89257 75.9609L5.54901 79.1071L5.44922 79.3332" stroke="#4F4131" stroke-linecap="round" stroke-linejoin="round"/>
<path d="M8.76163 75.457L7.15199 78.8027L6.89258 79.3348" stroke="#4F4131" stroke-linecap="round" stroke-linejoin="round"/>
<path d="M10.2051 74.6914L9.95235 75.3566L8.76172 78.4894" stroke="#4F4131" stroke-linecap="round" stroke-linejoin="round"/>
<path d="M10.205 75.4566H12.3867C12.686 73.8004 10.6041 70.4214 10.205 68.6255C9.85251 67.0624 12.114 58.2958 12.7725 55.5954C12.8656 55.2029 12.9321 54.9369 12.9454 54.8438" stroke="#4F4131" stroke-linecap="round" stroke-linejoin="round"/>
<path d="M37.1377 51.0977L41.807 63.7287C41.807 63.7287 40.3237 65.957 40.3237 67.4469C40.3237 67.8726 40.2638 68.4246 40.1907 68.9967C40.031 70.3136 39.8182 71.7304 40.2372 71.89C40.2639 71.8967 40.2905 71.9034 40.3237 71.9034C41.0687 71.9034 41.0687 72.6151 41.807 70.7726C42.5519 68.9302 42.552 68.1918 42.552 68.1918" stroke="#4F4131" stroke-linecap="round" stroke-linejoin="round"/>
<path d="M40.6819 72.8086C40.5422 72.8818 40.4158 72.9815 40.3028 73.1079C39.7507 73.7065 39.4447 74.8173 39.305 75.4559C39.2385 75.7618 39.2119 75.9614 39.2119 75.9614" stroke="#4F4131" stroke-linecap="round" stroke-linejoin="round"/>
<path d="M42.5517 72.8086L40.3035 75.529L39.9443 75.9614" stroke="#4F4131" stroke-linecap="round" stroke-linejoin="round"/>
<path d="M43.2964 72.8086L42.0858 75.6687L41.6934 76.5933" stroke="#4F4131" stroke-linecap="round" stroke-linejoin="round"/>
<path d="M44.6004 72.8086L43.0173 75.7352L42.5518 76.5933" stroke="#4F4131" stroke-linecap="round" stroke-linejoin="round"/>
<path d="M45.9897 72.8086L44.0741 75.815L43.5752 76.5933" stroke="#4F4131" stroke-linecap="round" stroke-linejoin="round"/>
<path d="M42.4912 47.8867C42.6109 48.1461 42.7639 48.6782 42.9368 49.4032C43.908 53.5271 45.5243 63.8435 45.5243 64.4754C45.5243 65.2204 47.7525 68.1936 47.7525 69.6768C47.7525 70.781 46.7747 74.3129 46.2692 76.0423C46.1029 76.6342 45.9899 77.0134 45.9899 77.0134" stroke="#4F4131" stroke-linecap="round" stroke-linejoin="round"/>
<path d="M38.8397 72.0371C38.0947 73.3874 32.1483 88.9916 31.41 91.9648C31.257 92.5701 31.0242 93.9736 30.7449 95.836C30.266 99.0353 29.654 103.578 29.1153 107.715C28.4235 112.99 27.8515 117.599 27.8049 117.945C27.7783 118.132 27.4191 118.225 26.8937 118.265C25.7895 118.344 23.9404 118.165 22.8961 118.045C22.4239 117.985 22.1179 117.945 22.1179 117.945C22.1179 117.945 20.0959 113.542 20.1824 110.921C20.2489 108.647 20.2622 94.8515 20.7544 89.3508C20.8276 88.5327 20.9074 87.8941 21.0072 87.5084C21.7521 84.5352 24.4925 74.6977 24.4925 74.6977" stroke="#4F4131" stroke-linecap="round" stroke-linejoin="round"/>
<path d="M18.7793 74.6914C18.7793 74.6914 18.8059 75.1703 18.8458 75.9618C19.0188 79.108 19.5176 87.1695 20.1761 89.298" stroke="#4F4131" stroke-linecap="round" stroke-linejoin="round"/>
<path d="M30.7448 95.8359C32.1483 97.1662 35.4408 105.181 37.1369 106.372C37.6091 106.704 37.5759 107.263 37.2699 107.895C36.8708 108.733 36.0128 109.704 35.2678 110.449C34.5229 111.194 33.9375 111.686 33.9375 111.686L29.1152 107.715" stroke="#4F4131" stroke-linecap="round" stroke-linejoin="round"/>
<path d="M27.7919 128.055C27.7054 127.623 27.8051 120.406 27.8051 120.406C27.5324 120.619 27.2265 120.872 26.8939 121.125C25.2576 122.402 23.0494 123.945 22.1182 123.253" stroke="#4F4131" stroke-linecap="round" stroke-linejoin="round"/>
<path d="M27.792 128.057C27.792 128.057 27.8049 128.063 27.8049 128.07C27.7985 128.083 27.792 128.076 27.792 128.057Z" stroke="#4F4131" stroke-linecap="round" stroke-linejoin="round"/>
<path d="M21.0076 122.422C21.0076 122.422 20.5952 122.728 19.8702 123.227C18.48 124.178 15.9458 125.834 12.946 127.43C8.37651 129.852 6.14825 131.927 6.89321 133.117C7.63152 134.315 14.3229 133.41 15.8062 133.117C17.2495 132.831 27.3198 128.056 27.7921 128.056" stroke="#4F4131" stroke-linecap="round" stroke-linejoin="round"/>
<path d="M35.5543 114.56C34.8227 117.121 33.0401 123.613 33.3061 125.721C33.6387 128.369 37.3502 128.276 38.8401 125.721C40.3234 123.167 41.4275 112.831 41.2479 111.687C41.0684 110.536 39.2126 108.461 39.2126 108.461C39.3057 108.807 39.2991 109.352 39.2126 109.964C38.9599 111.694 38.0752 113.962 37.1374 113.769" stroke="#4F4131" stroke-linecap="round" stroke-linejoin="round"/>
<path d="M35.8665 113.51C35.8665 113.51 35.7468 113.896 35.5605 114.541" stroke="#4F4131" stroke-linecap="round" stroke-linejoin="round"/>
<path d="M26.8945 118.285V121.125" stroke="#4F4131" stroke-linecap="round" stroke-linejoin="round"/>
<path d="M22.8698 118.285L22.1182 122.116" stroke="#4F4131" stroke-linecap="round" stroke-linejoin="round"/>
<path d="M35.8672 110.922L36.7319 112.093L37.1376 112.631" stroke="#4F4131" stroke-linecap="round" stroke-linejoin="round"/>
<path d="M37.2705 107.895L39.2127 109.963" stroke="#4F4131" stroke-linecap="round" stroke-linejoin="round"/>
<path d="M11.3496 9.34824C12.8329 8.75626 13.5778 6.70097 15.8061 7.35281C17.4091 7.82506 19.9765 12.1618 21.2869 14.5563C21.3733 14.716 21.4531 14.8623 21.533 15.002C21.8988 15.6804 22.1183 16.1194 22.1183 16.1194L23.2889 12.4877L24.4929 16.1194L26.2089 14.696" stroke="#4F4131" stroke-linecap="round" stroke-linejoin="round"/>
<path d="M13.751 2.6971C14.7021 2.11842 15.9526 1.71268 16.9969 1.573C18.7795 1.3269 22.1185 1.95214 22.1185 1.95214L20.8281 4.13381C20.8281 4.13381 22.777 2.83013 24.4931 2.82348C26.2091 2.81017 29.6612 4.80561 30.1667 6.40861C30.6656 8.01161 31.7298 11.6765 31.7298 11.6765H30.1667L29.3619 15.4612" stroke="#4F4131" stroke-linecap="round" stroke-linejoin="round"/>
<path d="M12.3877 4.13203C12.5673 3.58661 13.0795 3.0944 13.7446 2.69531" stroke="#4F4131" stroke-linecap="round" stroke-linejoin="round"/>
<path d="M10.6047 2.06423C10.4583 2.06423 10.3054 2.06422 10.1457 2.05092C7.99731 1.92454 5.44981 1 5.44981 1V4.51196C5.44981 4.51196 4.66496 3.55415 3.17503 5.78239C1.69176 8.01062 1 11.6755 1 11.6755L3.17503 10.9838C3.17503 10.9838 2.43672 13.212 3.17503 14.6953C3.52091 15.3871 3.90003 14.9281 4.36563 14.3361C4.45875 14.2097 4.55853 14.0834 4.66495 13.957C4.74477 13.8639 4.82458 13.7708 4.91105 13.6843C5.33674 13.252 5.80236 12.9526 5.80236 12.9526L7.6315 9.49388H9.85972" stroke="#4F4131" stroke-linecap="round" stroke-linejoin="round"/>
<path d="M21.2868 14.557L19.0386 13.8919L17.2893 10.2402L15.806 13.2134L12.9658 13.8919L15.061 16.9249L14.2363 20.3438L17.2893 18.4149L20.6815 20.3438L19.5774 17.6699L21.5329 15.0027L21.7524 14.6967L21.2868 14.557Z" stroke="#4F4131" stroke-linecap="round" stroke-linejoin="round"/>
<path d="M5.77543 20.0511L8.37617 18.4149L11.7684 20.3438L10.6576 17.6699L12.8326 14.6967L10.1255 13.8919L8.37617 10.2402L6.89287 13.2134L4.91076 13.6857L4.05273 13.8919L4.36533 14.3375L6.14791 16.9249L5.31648 20.3438L5.77543 20.0511Z" stroke="#4F4131" stroke-linecap="round" stroke-linejoin="round"/>
</svg>
