<svg width="193" height="184" viewBox="0 0 193 184" fill="none" xmlns="http://www.w3.org/2000/svg">
<path d="M18.7336 31.0636L0.789543 57.526L18.0809 64.7389L23.5574 67.0366L115.556 105.457L116.196 105.725L117.096 103.571L116.966 74.6999L117.958 72.3239L19.8237 31.3116L19.5038 30.6523L18.7728 31.0048L18.7336 31.0636Z" fill="#858561"/>
<path d="M17.2131 127.645V139.342L17.4807 139.779L30.7511 145.321L30.96 144.818V133.402L17.2131 127.645Z" fill="#E0CDAF"/>
<path d="M17.2131 118.475V127.646L30.96 133.403V123.99L17.7875 118.475H17.2131Z" fill="#E0CDAF"/>
<path d="M17.2131 108.684V118.475H17.7875L30.96 123.991V114.199L17.7875 108.684H17.2131Z" fill="#E0CDAF"/>
<path d="M30.9604 114.198L32.9186 115.013V112.089L33.1602 111.515L22.6705 107.096L17.9968 105.131H17.2135V108.682H17.7879L30.9604 114.198Z" fill="#E0CDAF"/>
<path d="M17.2133 64.9491V105.132H17.9966L22.6703 107.097L22.6768 107.084V67.286L22.7812 67.0379L17.3047 64.7402L17.2133 64.9491Z" fill="#E0CDAF"/>
<path d="M21.8225 29.1583L19.3551 30.3463L19.5052 30.6531L20.1319 30.3463L20.6019 31.3124L24.4531 32.9181L24.6554 32.4351L26.5027 31.5017L82.8545 3.0157L83.083 2.46086L80.4198 1.35119L80.6156 0.828991L78.4289 0L78.1743 0.672332L21.8225 29.1583Z" fill="#858561"/>
<path d="M19.5043 30.6544L19.8242 31.3137L117.959 72.326L120.72 73.4813L121.385 73.7555L121.503 73.4813L115.498 70.9682L107.077 67.4564V67.4499L98.6632 63.9381L89.2963 60.0216L79.9424 56.1117L71.9136 52.7565L64.1589 49.5189L57.7359 46.8296L50.9212 43.9836L44.4981 41.3008L37.0176 38.1741L29.9288 35.2106L24.4522 32.926V32.9195L20.601 31.3137L20.131 30.3477L19.5043 30.6544Z" fill="#858561"/>
<path d="M22.6765 107.083L22.67 107.096L33.1596 111.515L48.7995 118.102L61.2735 123.35V83.6953L61.4824 83.1992L22.7809 67.0371L22.6765 67.2852V107.083Z" fill="#D3B25B"/>
<path d="M24.4517 32.9182V32.9247L29.9283 35.2094L30.1111 34.7785L31.9649 33.8451L88.3167 5.35262L88.5713 4.73903L83.0817 2.46094L82.8532 3.01577L26.5014 31.5017L24.6541 32.4352L24.4517 32.9182Z" fill="#858561"/>
<path d="M30.1114 34.7778L29.9286 35.2086L37.0175 38.1721L37.135 37.8979L38.9888 36.9645L95.3406 8.47201L95.667 7.68218L88.5716 4.73828L88.317 5.35187L31.9652 33.8444L30.1114 34.7778Z" fill="#858561"/>
<path d="M32.9182 134.218L30.96 133.402V144.819L30.7511 145.322L46.4106 151.869L46.626 151.346V139.956L32.9182 134.218Z" fill="#E0CDAF"/>
<path d="M30.9607 123.99V133.403L32.9189 134.219V124.806L30.9607 123.99Z" fill="#E0CDAF"/>
<path d="M30.9607 114.197V123.989L32.9189 124.804V115.013L30.9607 114.197Z" fill="#E0CDAF"/>
<path d="M32.9182 124.805V134.217L46.626 139.955V130.542L32.9182 124.805Z" fill="#E0CDAF"/>
<path d="M32.9182 115.014V124.805L46.626 130.543V120.751L32.9182 115.014Z" fill="#E0CDAF"/>
<path d="M46.6261 120.752L48.5844 121.574V118.618L48.7998 118.102L33.1599 111.516L32.9184 112.09V115.014L46.6261 120.752Z" fill="#E0CDAF"/>
<path d="M37.1359 37.8994L37.0184 38.1735L44.4989 41.3002L44.9428 40.2427L46.7901 39.3028L103.142 10.8168L103.148 10.7972L95.6679 7.68359L95.3416 8.47342L38.9897 36.9659L37.1359 37.8994Z" fill="#858561"/>
<path d="M44.9419 40.2424L44.498 41.2998L50.9211 43.9826L51.1822 43.3625L53.0295 42.4291L109.381 13.9366L109.577 13.4666L103.148 10.7969L103.141 10.8165L46.7892 39.3024L44.9419 40.2424Z" fill="#858561"/>
<path d="M48.585 140.778L46.6267 139.955V151.346L46.4114 151.868L63.9703 159.205L64.251 158.526V147.331L48.585 140.778Z" fill="#E0CDAF"/>
<path d="M46.6267 130.543V139.956L48.585 140.778V131.365L46.6267 130.543Z" fill="#E0CDAF"/>
<path d="M46.6267 120.752V130.543L48.585 131.366V121.574L46.6267 120.752Z" fill="#E0CDAF"/>
<path d="M48.585 131.367V140.78L64.251 147.333V137.921L48.585 131.367Z" fill="#E0CDAF"/>
<path d="M48.585 121.574V131.365L64.251 137.919V128.128L48.585 121.574Z" fill="#E0CDAF"/>
<path d="M61.2745 123.35L48.8005 118.102L48.5851 118.617V121.574L64.251 128.128L66.2093 128.95V125.797L66.3398 125.484L61.2745 123.35Z" fill="#E0CDAF"/>
<path d="M51.1826 43.3627L50.9215 43.9828L57.7362 46.8288L58.2062 45.7061L60.0535 44.7661L116.386 16.2932L109.578 13.4668L109.382 13.9368L53.0299 42.4293L51.1826 43.3627Z" fill="#858561"/>
<path d="M58.206 45.7058L57.736 46.8286L64.159 49.5179L64.4462 48.826L66.2935 47.886L122.652 19.4001L122.828 18.9692L116.385 16.293L60.0532 44.7659L58.206 45.7058Z" fill="#858561"/>
<path d="M61.2741 83.6953V123.35L66.3394 125.484L69.7598 126.927V86.9591L69.8643 86.7045L61.483 83.1992L61.2741 83.6953Z" fill="#E0CDAF"/>
<path d="M66.2084 148.154L64.2502 147.332V158.527L63.9695 159.206L80.9736 166.307L81.2217 165.707V154.44L66.2084 148.154Z" fill="#E0CDAF"/>
<path d="M64.4458 48.8255L64.1586 49.5174L71.9132 52.755L72.2527 51.9456L74.1 51.0122L130.452 22.5197L130.589 22.1933L122.828 18.9688L122.651 19.3996L66.2931 47.8855L64.4458 48.8255Z" fill="#858561"/>
<path d="M64.2507 137.918V147.331L66.209 148.153V138.74L64.2507 137.918Z" fill="#E0CDAF"/>
<path d="M64.2507 128.127V137.918L66.209 138.741V128.949L64.2507 128.127Z" fill="#E0CDAF"/>
<path d="M66.2084 138.74V148.153L81.2217 154.439V145.026L66.2084 138.74Z" fill="#E0CDAF"/>
<path d="M66.2084 128.949V138.74L81.2217 145.026V135.235L66.2084 128.949Z" fill="#E0CDAF"/>
<path d="M69.7591 126.927L66.3387 125.484L66.2082 125.798V128.95L81.2214 135.236L83.1796 136.052V132.978L83.3232 132.639L69.7591 126.927Z" fill="#E0CDAF"/>
<path d="M70.0863 87.2858V127.254L83.6505 132.965L101.98 140.681L115.08 146.196V105.85L115.106 105.785L70.1908 87.0312L70.0863 87.2858Z" fill="#D3B25B"/>
<path d="M72.2525 51.9457L71.9131 52.7551L79.9419 56.1102L80.0528 55.8491L81.9001 54.9091L138.252 26.4232L138.624 25.5289L130.589 22.1934L130.452 22.5197L74.0998 51.0122L72.2525 51.9457Z" fill="#858561"/>
<path d="M80.0534 55.8495L79.9424 56.1106L89.2963 60.0206L89.4138 59.7464L91.2676 58.813L147.619 30.327L147.998 29.4197L138.625 25.5293L138.253 26.4236L81.9007 54.9095L80.0534 55.8495Z" fill="#858561"/>
<path d="M83.1803 155.257L81.222 154.441V165.708L80.974 166.308L99.3163 173.972L99.499 173.541V162.092L83.1803 155.257Z" fill="#E0CDAF"/>
<path d="M81.2224 145.027V154.44L83.1807 155.256V145.843L81.2224 145.027Z" fill="#E0CDAF"/>
<path d="M81.2224 135.236V145.028L83.1807 145.844V136.052L81.2224 135.236Z" fill="#E0CDAF"/>
<path d="M83.1803 145.844V155.256L99.499 162.091V152.678L83.1803 145.844Z" fill="#E0CDAF"/>
<path d="M83.1803 136.053V145.844L99.499 152.678V142.887L83.1803 136.053Z" fill="#E0CDAF"/>
<path d="M99.4983 142.887L101.457 143.703V140.811L101.652 140.354L83.3231 132.639L83.1795 132.978V136.053L99.4983 142.887Z" fill="#E0CDAF"/>
<path d="M89.4147 59.7447L89.2972 60.0188L98.6642 63.9353L98.7817 63.6481L100.629 62.7147L156.981 34.2222L157.359 33.3084L147.999 29.418L147.62 30.3253L91.2685 58.8113L89.4147 59.7447Z" fill="#858561"/>
<path d="M98.7805 63.6484L98.663 63.9356L107.077 67.4474L107.364 66.7685L109.211 65.8351L165.563 37.3426L165.785 36.8073L157.358 33.3086L156.98 34.2224L100.628 62.7149L98.7805 63.6484Z" fill="#858561"/>
<path d="M101.457 162.906L99.499 162.09V173.539L99.3162 173.97L119.434 182.377L121.777 182.606V170.928H120.622L101.457 162.906Z" fill="#E0CDAF"/>
<path d="M99.4988 152.678V162.09L101.457 162.906V153.494L99.4988 152.678Z" fill="#E0CDAF"/>
<path d="M99.4988 142.887V152.678L101.457 153.494V143.703L99.4988 142.887Z" fill="#E0CDAF"/>
<path d="M101.457 153.494V162.907L120.622 170.929H121.777V170.244V161.791H121.275L101.457 153.494Z" fill="#E0CDAF"/>
<path d="M101.457 143.703V153.494L121.275 161.791H121.777V161.105V152H121.275L101.457 143.703Z" fill="#E0CDAF"/>
<path d="M114.754 145.869L101.653 140.354L101.457 140.81V143.702L121.275 151.999H121.777V151.966V148.826L121.438 148.689L114.754 145.869Z" fill="#E0CDAF"/>
<path d="M107.078 67.4486V67.4552L115.498 70.967L115.949 69.8899L117.796 68.9565L174.148 40.4705L174.213 40.3139L165.786 36.8086L165.564 37.3438L109.212 65.8364L107.365 66.7698L107.078 67.4486Z" fill="#858561"/>
<path d="M114.753 105.524V145.871L121.438 148.691L121.777 148.514V109.421L122.143 108.533L114.78 105.459L114.753 105.524Z" fill="#E0CDAF"/>
<path d="M115.949 69.8905L115.498 70.9676L121.503 73.4806L121.386 73.7548L121.778 73.918L180.297 44.2701L180.806 43.0495L174.213 40.3145L174.148 40.4711L117.796 68.9571L115.949 69.8905Z" fill="#858561"/>
<path d="M117.097 103.571L116.196 105.725L122.926 108.532L123.918 108.95L124.864 108.819L121.561 84.5567L120.021 74.5566L120.452 74.1258L120.719 73.4796L117.958 72.3242L116.966 74.7002L117.097 103.571Z" fill="#858561"/>
<path d="M120.021 74.5578L121.562 84.5579L120.217 74.7014L120.452 74.127L120.021 74.5578Z" fill="#858561"/>
<path d="M120.452 74.1262L120.217 74.7007L121.561 84.5572L125.243 108.5L125.589 108.383L120.994 74.7007L121.32 73.9108L120.674 73.9043L120.452 74.1262Z" fill="#858561"/>
<path d="M120.72 73.4805L120.452 74.1267L120.674 73.9048L121.32 73.9113L121.386 73.7546L120.72 73.4805Z" fill="#858561"/>
<path d="M121.32 73.9108L120.994 74.7006L125.589 108.382L127.215 107.821L173.906 83.3822L179.48 80.4709L192 73.9173L183.325 45.9993V45.9927L182.202 43.336L181.856 43.4862L180.805 43.0488L180.296 44.2695L121.777 73.9173L121.32 73.9108Z" fill="#858561"/>
<path d="M125.243 108.499L121.561 84.5566L124.864 108.819L124.877 108.93L125.184 108.885L125.628 108.656L125.589 108.382L125.243 108.499Z" fill="#858561"/>
<path d="M121.777 170.928V182.606L122.149 182.645L122.188 182.253L132.306 177.136L132.136 176.803V165.145L127.893 167.292L122.43 170.053L122.09 170.229L122.064 170.243H121.777V170.928Z" fill="#E0CDAF"/>
<path d="M121.778 161.791V170.244H122.065L122.091 170.231L122.43 170.055L127.894 167.294L132.137 165.146V156.008L127.894 158.155L122.43 160.916L122.091 161.093L122.065 161.106H121.778V161.791Z" fill="#E0CDAF"/>
<path d="M121.778 152V161.106H122.065L122.091 161.093L122.43 160.916L127.894 158.155L132.137 156.008V146.869L127.894 149.017L122.43 151.778L122.091 151.954L122.065 151.967H121.778V152Z" fill="#E0CDAF"/>
<path d="M134.094 145.884L143.886 140.936L145.844 139.944L156.288 134.663L158.246 133.678V130.792L157.959 130.225L127.241 145.754L121.777 148.515V148.828V151.968H122.064L122.09 151.955L122.43 151.778L127.893 149.017L132.136 146.87L134.094 145.884Z" fill="#E0CDAF"/>
<path d="M121.778 109.42V148.513L127.241 145.752V107.859L127.215 107.82L125.629 108.656L125.649 108.819L125.185 108.884L124.898 109.034L124.878 108.93L124.115 109.034L123.919 108.95L123.338 109.034L122.143 108.532L121.778 109.42Z" fill="#E0CDAF"/>
<path d="M123.918 108.951L124.114 109.036L124.878 108.931L124.865 108.82L123.918 108.951Z" fill="#FFFFC9"/>
<path d="M124.877 108.931L124.897 109.035L125.185 108.885L124.877 108.931Z" fill="#858561"/>
<path d="M125.184 108.885L125.648 108.82L125.629 108.656L125.184 108.885Z" fill="#FFFFC9"/>
<path d="M125.589 108.382L125.628 108.656L127.214 107.82L125.589 108.382Z" fill="#858561"/>
<path d="M126.888 108.148L126.914 108.187V146.079L157.633 130.55L173.958 122.3L173.73 121.843V84.0027L173.579 83.709L126.888 108.148Z" fill="#D3B25B"/>
<path d="M134.094 164.161L132.136 165.146V176.804L132.306 177.137L144.029 171.21L143.886 170.93V159.213L134.094 164.161Z" fill="#E0CDAF"/>
<path d="M132.136 156.007V165.146L134.095 164.16V155.021L132.136 156.007Z" fill="#E0CDAF"/>
<path d="M132.136 146.868V156.007L134.095 155.021V145.883L132.136 146.868Z" fill="#E0CDAF"/>
<path d="M134.095 155.022V164.161L143.886 159.213V150.074L134.095 155.022Z" fill="#E0CDAF"/>
<path d="M134.095 145.881V155.02L143.886 150.072V140.934L134.095 145.881Z" fill="#E0CDAF"/>
<path d="M145.844 158.22L143.886 159.212V170.929L144.029 171.21L156.536 164.891L156.288 164.402V152.939L145.844 158.22Z" fill="#E0CDAF"/>
<path d="M143.886 150.074V159.213L145.844 158.221V149.082L143.886 150.074Z" fill="#E0CDAF"/>
<path d="M143.886 140.936V150.074L145.844 149.082V139.943L143.886 140.936Z" fill="#E0CDAF"/>
<path d="M145.844 149.082V158.22L156.288 152.939V143.801L145.844 149.082Z" fill="#E0CDAF"/>
<path d="M145.844 139.943V149.081L156.288 143.801V134.662L145.844 139.943Z" fill="#E0CDAF"/>
<path d="M158.247 151.954L156.288 152.94V164.402L156.536 164.892L168.26 158.965L168.038 158.528V147L158.247 151.954Z" fill="#E0CDAF"/>
<path d="M156.288 143.8V152.939L158.246 151.953V142.814L156.288 143.8Z" fill="#E0CDAF"/>
<path d="M156.288 134.661V143.8L158.246 142.814V133.676L156.288 134.661Z" fill="#E0CDAF"/>
<path d="M168.038 128.721L169.997 127.736L174.938 125.236L180.029 122.657L179.99 119.27L179.612 119.276L174.285 121.972L157.96 130.223L158.247 130.791V133.676L168.038 128.721Z" fill="#E0CDAF"/>
<path d="M158.247 142.816V151.954L168.038 147V137.861L158.247 142.816Z" fill="#E0CDAF"/>
<path d="M158.247 133.677V142.816L168.038 137.861V128.723L158.247 133.677Z" fill="#E0CDAF"/>
<path d="M169.996 146.014L168.038 146.999V158.527L168.26 158.964L180.395 152.828L180.251 140.824L174.938 143.514L169.996 146.014Z" fill="#E0CDAF"/>
<path d="M168.038 137.861V146.999L169.996 146.013V136.875L168.038 137.861Z" fill="#E0CDAF"/>
<path d="M168.038 128.722V137.86L169.996 136.875V127.736L168.038 128.722Z" fill="#E0CDAF"/>
<path d="M169.995 136.875V146.013L174.937 143.513L180.25 140.824L180.139 131.744L174.937 134.375L169.995 136.875Z" fill="#E0CDAF"/>
<path d="M169.996 127.737V136.875L174.937 134.375L180.14 131.744L180.029 122.658L174.937 125.237L169.996 127.737Z" fill="#E0CDAF"/>
<path d="M173.906 83.382L174.056 83.6757V121.516L174.284 121.972L179.611 119.277L179.989 119.27L179.519 80.549L179.48 80.4707L173.906 83.382Z" fill="#E0CDAF"/>
<path d="M120.452 74.125L120.217 74.699" stroke="#603813" stroke-linecap="round" stroke-linejoin="round"/>
<path d="M121.777 73.9167L121.32 73.9102" stroke="#603813" stroke-linecap="round" stroke-linejoin="round"/>
<path d="M180.806 43.0488L180.297 44.2695" stroke="#603813" stroke-linecap="round" stroke-linejoin="round"/>
<path d="M181.856 43.4865L180.806 43.0492L174.213 40.3142L165.786 36.8089L157.359 33.3102L147.998 29.4198L138.625 25.5294L130.59 22.1938L122.828 18.9693L116.386 16.293L109.578 13.4666L103.148 10.7968L95.6674 7.68323L88.5721 4.73933L83.0824 2.46124L80.4192 1.35156" stroke="#603813" stroke-linecap="round" stroke-linejoin="round"/>
<path d="M19.8245 31.3125L117.959 72.3247L120.72 73.4801L121.386 73.7542L121.777 73.9174" stroke="#603813" stroke-linecap="round" stroke-linejoin="round"/>
<path d="M121.777 109.42V148.513V148.826V151.966V151.999V161.105V161.79V170.243V170.928V182.606V182.769" stroke="#603813" stroke-linecap="round" stroke-linejoin="round"/>
<path d="M180.296 44.2676L121.777 73.9154" stroke="#603813" stroke-linecap="round" stroke-linejoin="round"/>
<path d="M78.1738 0.671875L21.822 29.1579L19.9682 30.0978" stroke="#603813" stroke-linecap="round" stroke-linejoin="round"/>
<path d="M82.8535 3.01367L26.5017 31.4996L24.6544 32.4331" stroke="#603813" stroke-linecap="round" stroke-linejoin="round"/>
<path d="M88.3174 5.35156L31.9655 33.8441L30.1117 34.7775" stroke="#603813" stroke-linecap="round" stroke-linejoin="round"/>
<path d="M95.3408 8.47266L38.989 36.9652L37.1352 37.8986" stroke="#603813" stroke-linecap="round" stroke-linejoin="round"/>
<path d="M103.142 10.8164L46.7898 39.3024L44.9425 40.2423" stroke="#603813" stroke-linecap="round" stroke-linejoin="round"/>
<path d="M109.382 13.9355L53.03 42.4281L51.1827 43.3615" stroke="#603813" stroke-linecap="round" stroke-linejoin="round"/>
<path d="M116.405 16.2793L116.386 16.2924L60.0534 44.7653L58.2062 45.7052" stroke="#603813" stroke-linecap="round" stroke-linejoin="round"/>
<path d="M122.651 19.3984L66.293 47.8844L64.4457 48.8244" stroke="#603813" stroke-linecap="round" stroke-linejoin="round"/>
<path d="M130.452 22.5195L74.1003 51.012L72.253 51.9455" stroke="#603813" stroke-linecap="round" stroke-linejoin="round"/>
<path d="M138.253 26.4238L81.9011 54.9098L80.0538 55.8498" stroke="#603813" stroke-linecap="round" stroke-linejoin="round"/>
<path d="M147.62 30.3262L91.2683 58.8121L89.4145 59.7456" stroke="#603813" stroke-linecap="round" stroke-linejoin="round"/>
<path d="M156.979 34.2227L100.628 62.7152L98.7804 63.6486" stroke="#603813" stroke-linecap="round" stroke-linejoin="round"/>
<path d="M165.563 37.3438L109.212 65.8363L107.364 66.7697" stroke="#603813" stroke-linecap="round" stroke-linejoin="round"/>
<path d="M174.147 40.4707L117.796 68.9567L115.948 69.8901" stroke="#603813" stroke-linecap="round" stroke-linejoin="round"/>
<path d="M183.325 45.998L192 73.9161L179.48 80.4697L173.906 83.381L127.215 107.82L125.628 108.655L125.185 108.884L124.897 109.034L124.878 108.93L124.865 108.819L121.562 84.5559L120.217 74.6994" stroke="#603813" stroke-linecap="round" stroke-linejoin="round"/>
<path d="M182.81 44.3477L183.325 45.9926" stroke="#603813" stroke-linecap="round" stroke-linejoin="round"/>
<path d="M17.4807 139.779L30.7511 145.321L46.4105 151.868L63.9695 159.205L80.9736 166.307L99.3159 173.97L119.434 182.378" stroke="#603813" stroke-linecap="round" stroke-linejoin="round"/>
<path d="M17.9967 105.131L22.6704 107.096L33.1601 111.515L48.8 118.101L61.274 123.349L66.3394 125.484L69.7598 126.926L83.3239 132.638L101.653 140.353L114.754 145.869L121.438 148.689L121.777 148.826" stroke="#603813" stroke-linecap="round" stroke-linejoin="round"/>
<path d="M179.61 119.275L174.284 121.971L157.959 130.222L127.24 145.751L121.777 148.512L121.437 148.688L121.411 148.701" stroke="#603813" stroke-linecap="round" stroke-linejoin="round"/>
<path d="M180.264 122.541L180.029 122.659L174.937 125.237L169.996 127.737L168.038 128.723L158.246 133.677L156.288 134.663L145.844 139.943L143.886 140.935L134.095 145.883L132.136 146.869L127.894 149.017L122.43 151.778L122.091 151.954L122.065 151.967" stroke="#603813" stroke-linecap="round" stroke-linejoin="round"/>
<path d="M180.264 131.68L180.14 131.745L174.937 134.376L169.996 136.876L168.038 137.861L158.246 142.816L156.288 143.801L145.844 149.082L143.886 150.074L134.095 155.022L132.136 156.008L127.894 158.155L122.43 160.916L122.091 161.093L122.065 161.106" stroke="#603813" stroke-linecap="round" stroke-linejoin="round"/>
<path d="M180.264 140.816L180.251 140.823L174.937 143.512L169.996 146.012L168.038 146.998L158.246 151.952L156.288 152.938L145.844 158.219L143.886 159.211L134.095 164.159L132.136 165.144L127.894 167.292L122.43 170.053L122.091 170.229L122.065 170.242" stroke="#603813" stroke-linecap="round" stroke-linejoin="round"/>
<path d="M18.7339 31.0645L0.789789 57.5269L0.750626 57.5857L17.3043 64.7398L22.7809 67.0375L61.4824 83.1995L69.8637 86.7048L114.779 105.458L122.142 108.533L123.337 109.035" stroke="#603813" stroke-linecap="round" stroke-linejoin="round"/>
<path d="M179.52 80.5488L179.99 119.27L180.029 122.658L180.14 131.744L180.251 140.824L180.395 152.828L168.26 158.964L156.537 164.891L144.03 171.209L132.306 177.136L122.189 182.254" stroke="#603813" stroke-linecap="round" stroke-linejoin="round"/>
<path d="M17.2139 64.9492V105.132V108.683V118.475V127.646V139.343" stroke="#603813" stroke-linecap="round" stroke-linejoin="round"/>
<path d="M22.6768 67.2852V107.083" stroke="#603813" stroke-linecap="round" stroke-linejoin="round"/>
<path d="M114.754 105.523V145.87V146.49" stroke="#603813" stroke-linecap="round" stroke-linejoin="round"/>
<path d="M127.241 107.859V145.751V146.489" stroke="#603813" stroke-linecap="round" stroke-linejoin="round"/>
<path d="M174.056 83.6758V121.516" stroke="#603813" stroke-linecap="round" stroke-linejoin="round"/>
<path d="M17.7876 108.682L30.96 114.197L32.9183 115.013L46.626 120.751L48.5843 121.573L64.2502 128.127L66.2085 128.95L81.2217 135.235L83.18 136.051L99.4987 142.886L101.457 143.702L121.274 151.998" stroke="#603813" stroke-linecap="round" stroke-linejoin="round"/>
<path d="M17.7876 118.475L30.96 123.99L32.9183 124.806L46.626 130.544L48.5843 131.366L64.2502 137.92L66.2085 138.742L81.2217 145.028L83.18 145.844L99.4987 152.679L101.457 153.495L121.274 161.791" stroke="#603813" stroke-linecap="round" stroke-linejoin="round"/>
<path d="M17.1342 127.613L17.2126 127.646L30.9595 133.403L32.9177 134.219L46.6254 139.957L48.5837 140.779L64.2497 147.333L66.2079 148.155L81.2211 154.441L83.1794 155.257L99.4981 162.091L101.456 162.907L120.621 170.93" stroke="#603813" stroke-linecap="round" stroke-linejoin="round"/>
<path d="M61.2744 83.6953V123.35V124.055" stroke="#603813" stroke-linecap="round" stroke-linejoin="round"/>
<path d="M69.7598 86.959V126.927V127.318" stroke="#603813" stroke-linecap="round" stroke-linejoin="round"/>
<path d="M169.996 124.916V127.736V136.874V146.013V157.221" stroke="#603813" stroke-linecap="round" stroke-linejoin="round"/>
<path d="M168.038 126.221V128.721V137.859V146.998V158.525" stroke="#603813" stroke-linecap="round" stroke-linejoin="round"/>
<path d="M158.246 130.791V133.676V142.815V151.953V163.096" stroke="#603813" stroke-linecap="round" stroke-linejoin="round"/>
<path d="M156.288 132.096V134.661V143.8V152.938V164.4" stroke="#603813" stroke-linecap="round" stroke-linejoin="round"/>
<path d="M145.844 137.318V139.942V149.081V158.219V169.623" stroke="#603813" stroke-linecap="round" stroke-linejoin="round"/>
<path d="M143.886 138.625V140.936V150.074V159.213V170.93" stroke="#603813" stroke-linecap="round" stroke-linejoin="round"/>
<path d="M134.095 143.193V145.883V155.021V164.16V175.498" stroke="#603813" stroke-linecap="round" stroke-linejoin="round"/>
<path d="M101.457 140.811V143.702V153.493V162.906V174.192" stroke="#603813" stroke-linecap="round" stroke-linejoin="round"/>
<path d="M99.499 140.158V142.887V152.678V162.091V173.54" stroke="#603813" stroke-linecap="round" stroke-linejoin="round"/>
<path d="M83.1807 132.977V136.051V145.842V155.255V166.358" stroke="#603813" stroke-linecap="round" stroke-linejoin="round"/>
<path d="M81.2217 132.324V135.235V145.027V154.439V165.706" stroke="#603813" stroke-linecap="round" stroke-linejoin="round"/>
<path d="M66.209 125.797V128.95V138.741V148.154V159.178" stroke="#603813" stroke-linecap="round" stroke-linejoin="round"/>
<path d="M64.251 125.145V128.128V137.919V147.331V158.526" stroke="#603813" stroke-linecap="round" stroke-linejoin="round"/>
<path d="M48.585 118.617V121.574V131.365V140.778V151.999" stroke="#603813" stroke-linecap="round" stroke-linejoin="round"/>
<path d="M46.626 117.963V120.75V130.541V139.954V151.344" stroke="#603813" stroke-linecap="round" stroke-linejoin="round"/>
<path d="M32.9189 112.09V115.014V124.805V134.218V145.471" stroke="#603813" stroke-linecap="round" stroke-linejoin="round"/>
<path d="M30.96 111.438V114.199V123.99V133.403V144.819" stroke="#603813" stroke-linecap="round" stroke-linejoin="round"/>
<path d="M132.137 144.5V146.869V156.008V165.146V176.805" stroke="#603813" stroke-linecap="round" stroke-linejoin="round"/>
<path d="M180.766 47.3633L188.88 73.1403" stroke="#603813" stroke-linecap="round" stroke-linejoin="round"/>
<path d="M177.646 48.9238L185.76 74.7009" stroke="#603813" stroke-linecap="round" stroke-linejoin="round"/>
<path d="M173.743 50.4824L181.856 76.2595" stroke="#603813" stroke-linecap="round" stroke-linejoin="round"/>
<path d="M169.839 52.043L177.959 77.82" stroke="#603813" stroke-linecap="round" stroke-linejoin="round"/>
<path d="M165.942 54.3867L174.056 80.1638" stroke="#603813" stroke-linecap="round" stroke-linejoin="round"/>
<path d="M162.039 56.7305L170.152 82.501" stroke="#603813" stroke-linecap="round" stroke-linejoin="round"/>
<path d="M158.136 59.0664L166.256 84.8435" stroke="#603813" stroke-linecap="round" stroke-linejoin="round"/>
<path d="M154.239 61.4102L162.353 87.1807" stroke="#603813" stroke-linecap="round" stroke-linejoin="round"/>
<path d="M150.335 62.9707L158.448 88.7478" stroke="#603813" stroke-linecap="round" stroke-linejoin="round"/>
<path d="M147.215 64.5312L155.329 90.3083" stroke="#603813" stroke-linecap="round" stroke-linejoin="round"/>
<path d="M143.311 66.0898L151.425 91.8669" stroke="#603813" stroke-linecap="round" stroke-linejoin="round"/>
<path d="M139.408 68.4336L147.528 94.2041" stroke="#603813" stroke-linecap="round" stroke-linejoin="round"/>
<path d="M136.288 70.7715L144.401 96.5486" stroke="#603813" stroke-linecap="round" stroke-linejoin="round"/>
<path d="M133.357 73.3809L141.471 99.1579" stroke="#603813" stroke-linecap="round" stroke-linejoin="round"/>
<path d="M130.047 74.6738L136.601 100.451" stroke="#603813" stroke-linecap="round" stroke-linejoin="round"/>
<path d="M126.927 76.2344L132.697 102.788" stroke="#603813" stroke-linecap="round" stroke-linejoin="round"/>
<path d="M123.024 77.0176L128.801 104.348" stroke="#603813" stroke-linecap="round" stroke-linejoin="round"/>
<path d="M116.966 74.7012L117.097 103.572" stroke="#603813" stroke-linecap="round" stroke-linejoin="round"/>
<path d="M113.253 73.1406L110.074 100.452" stroke="#603813" stroke-linecap="round" stroke-linejoin="round"/>
<path d="M109.799 71.959L105.386 98.8914" stroke="#603813" stroke-linecap="round" stroke-linejoin="round"/>
<path d="M106.17 70.7969L100.706 96.5478" stroke="#603813" stroke-linecap="round" stroke-linejoin="round"/>
<path d="M102.979 69.8887L96.8035 95.7637" stroke="#603813" stroke-linecap="round" stroke-linejoin="round"/>
<path d="M99.5381 68.0684L92.1229 93.4277" stroke="#603813" stroke-linecap="round" stroke-linejoin="round"/>
<path d="M95.2432 66.1152L87.4428 91.8662" stroke="#603813" stroke-linecap="round" stroke-linejoin="round"/>
<path d="M90.6016 64.9082L82.7947 89.0991" stroke="#603813" stroke-linecap="round" stroke-linejoin="round"/>
<path d="M86.4629 63.1855L78.656 87.3699" stroke="#603813" stroke-linecap="round" stroke-linejoin="round"/>
<path d="M82.5605 61.6191L74.7602 85.81" stroke="#603813" stroke-linecap="round" stroke-linejoin="round"/>
<path d="M78.6562 60.0586L70.8559 84.2495" stroke="#603813" stroke-linecap="round" stroke-linejoin="round"/>
<path d="M74.7598 58.5L66.9529 82.6909" stroke="#603813" stroke-linecap="round" stroke-linejoin="round"/>
<path d="M70.0732 56.1621L62.2729 80.3465" stroke="#603813" stroke-linecap="round" stroke-linejoin="round"/>
<path d="M66.1768 55.3789L58.3699 79.5698" stroke="#603813" stroke-linecap="round" stroke-linejoin="round"/>
<path d="M61.4961 53.043L53.6892 77.2273" stroke="#603813" stroke-linecap="round" stroke-linejoin="round"/>
<path d="M57.3311 51.5078L49.5307 75.6922" stroke="#603813" stroke-linecap="round" stroke-linejoin="round"/>
<path d="M52.9834 49.5039L45.183 73.6883" stroke="#603813" stroke-linecap="round" stroke-linejoin="round"/>
<path d="M49.0801 47.9434L41.2797 72.1277" stroke="#603813" stroke-linecap="round" stroke-linejoin="round"/>
<path d="M45.1836 46.377L37.3767 70.5678" stroke="#603813" stroke-linecap="round" stroke-linejoin="round"/>
<path d="M41.2803 44.8164L32.8206 68.4525" stroke="#603813" stroke-linecap="round" stroke-linejoin="round"/>
<path d="M37.4482 42.6426L28.14 66.1154" stroke="#603813" stroke-linecap="round" stroke-linejoin="round"/>
<path d="M33.4209 41.168L24.1845 64.0272" stroke="#603813" stroke-linecap="round" stroke-linejoin="round"/>
<path d="M28.793 39.3594L19.5566 62.9954" stroke="#603813" stroke-linecap="round" stroke-linejoin="round"/>
<path d="M24.8896 37.8008L15.6533 61.4368" stroke="#603813" stroke-linecap="round" stroke-linejoin="round"/>
<path d="M21.7695 36.2344L10.9731 59.877" stroke="#603813" stroke-linecap="round" stroke-linejoin="round"/>
<path d="M18.6494 33.8965L5.50957 56.7492" stroke="#603813" stroke-linecap="round" stroke-linejoin="round"/>
</svg>
