<svg width="66" height="169" viewBox="0 0 66 169" fill="none" xmlns="http://www.w3.org/2000/svg">
<path d="M6.55937 69.1582C6.55937 69.2613 6.55937 69.7215 6.53556 70.8719C6.51176 72.1254 7.11472 73.0299 7.90017 73.6804C9.26479 74.8229 11.1768 75.1561 11.1768 75.1561C11.1768 75.1561 13.8981 76.6318 14.3107 74.6642C14.6043 73.2599 13.319 69.1899 12.5653 66.9367C12.2479 66.0164 12.0178 65.4055 12.0178 65.4055L12.5732 62.8984L11.2324 62.6048C11.2324 62.6048 10.6056 61.1609 10.1931 60.6372C10.1613 60.6055 10.1375 60.5737 10.0899 60.5261L11.2324 59.5106C10.2089 57.8683 8.13026 57.0353 5.48036 56.1546L4.70284 55.623C3.38583 57.8842 0.934278 62.4144 1.54518 63.6362C2.36237 65.2785 6.54349 70.2213 6.54349 70.2213C6.54349 70.2213 6.55936 69.301 6.5673 69.1661L6.55937 69.1582Z" fill="#DFB957"/>
<path d="M3.58358 158.574L3.36143 160.352C3.40903 161.597 3.66291 163.454 4.78158 163.731C5.17034 163.834 6.32868 163.906 7.90751 163.953C8.93097 163.993 10.129 164.009 11.4143 164.009C11.9617 164.009 12.5171 164.009 13.0804 164.009C15.0876 164.009 17.1821 163.961 19.0307 163.898C20.8158 163.834 22.3709 163.731 23.4102 163.596C23.9894 163.525 24.4099 163.438 24.6161 163.335C26.2584 162.51 24.1401 161.486 24.1401 161.486C22.9738 161.692 18.8483 161.692 17.206 161.692C16.5792 161.692 15.8334 161.597 15.0638 161.542L13.0804 159.384C13.0804 159.384 8.66122 157.686 6.88404 159.177L6.49529 158.662L6.0748 158.979L5.76538 158.566C5.74158 158.154 6.31281 157.408 6.91578 156.726C6.32868 156.742 5.88438 156.742 5.67017 156.742C4.84505 156.742 3.26622 155.099 2.82193 156.742C2.59978 157.543 3.06787 158.162 3.59151 158.566L3.58358 158.574Z" fill="#DFB957"/>
<path d="M46.0461 37.1386L42.8012 35.536C41.5317 34.6395 39.7942 33.4415 38.5248 32.6957C38.5248 32.6957 38.1202 31.9737 37.8108 31.3945L37.0491 31.4739L37.0174 33.5367H37.0491L39.7149 35.5915L28.9566 49.8169L28.8456 49.8328L27.1001 38.892C27.1001 38.892 26.275 37.2418 27.9252 36.4167L28.9566 36.4405C28.9725 35.4884 28.79 34.3777 27.9252 33.9492C26.275 34.7664 21.6575 37.1148 21.6575 37.1148H21.5782C21.5306 37.4163 21.4433 37.7337 21.3322 38.0669C20.515 40.5422 17.4208 46.3101 15.6675 47.9524C14.5171 49.0473 12.962 48.4681 12.0338 47.9524C11.6688 47.7462 11.407 47.5557 11.3039 47.4764L11.2483 47.4288L8.36836 53.7124L8.34456 54.0615C7.43217 54.0059 6.34523 54.0218 5.48838 54.2995C5.48838 54.2995 5.17102 54.8152 4.71087 55.6006L5.48838 56.1322C8.14621 57.0208 10.2169 57.8459 11.2404 59.4882L10.0979 60.5037C10.1455 60.5513 10.1693 60.5831 10.2011 60.6148C10.6136 61.1385 11.2404 62.5824 11.2404 62.5824L12.5812 62.876L12.0259 65.3831C12.0259 65.3831 12.2559 65.994 12.5733 66.9143L13.0811 66.7794C13.4936 67.2237 13.8665 67.8108 14.1839 68.4455L15.9848 68.2948C17.04 70.183 20.0707 70.183 20.0707 70.183L31.2178 72.103C31.2178 72.103 32.2412 71.4207 33.3758 70.6273L31.3447 69.9133C31.5748 69.4214 32.0429 68.3424 32.0905 67.7553C32.146 66.9698 37.8028 65.2402 39.707 66.0733C41.2303 66.7397 41.2144 67.3903 41.0478 68.501L41.9284 68.5407L46.0461 66.7794H46.1016C46.1572 68.5407 46.292 71.0557 46.5856 73.4756C47.0378 77.1092 47.8471 80.5208 49.3466 80.9016C52.5518 81.7029 59.6288 77.0616 60.0414 76.7998L60.3666 77.2045L63.5798 74.6339C64.2622 74.2213 65 73.5628 65 72.6584C65 71.0161 60.0572 57.0049 60.0572 57.0049C60.0572 57.0049 60.8823 53.7045 60.8823 51.237C60.8823 48.7696 59.2321 47.9366 56.7568 46.2943C56.7568 46.2943 51.814 39.7013 48.9657 38.051C47.6487 37.2894 46.7443 37.0514 46.0461 37.1148V37.1386Z" fill="#DFB957"/>
<path d="M6.48821 158.66L6.87697 159.176C8.65415 157.684 13.0733 159.382 13.0733 159.382L15.0567 161.54C15.8263 161.596 16.5721 161.691 17.1989 161.691C18.8412 161.691 22.9668 161.691 24.133 161.484C25.2993 161.286 25.4421 160.866 25.093 157.978C24.7439 155.09 24.617 150.147 26.6084 146.759L26.4497 145.775C24.617 146.132 22.9747 146.307 22.1417 146.029C21.737 145.894 21.1261 145.672 20.3645 145.387L20.063 146.172C19.6742 146.854 20.0313 153.035 19.0316 154.479C18.0319 155.923 17.1989 155.098 13.9063 155.923C11.4627 156.526 8.58274 156.684 6.9087 156.724C6.30573 157.406 5.7345 158.144 5.7583 158.565L6.06772 158.977L6.48821 158.66Z" fill="#DFB957"/>
<path d="M8.72521 46.7156L8.69347 46.7553C6.95596 48.5166 5.48028 54.3162 5.48028 54.3162C6.33713 54.0464 7.42406 54.0306 8.33645 54.0782L8.36025 53.7291L11.2402 47.4455C10.5103 46.9853 9.93909 46.3586 9.51067 45.6445L8.72521 46.7156Z" fill="#DFB957"/>
<path d="M7.90829 163.953V164.017L10.6772 168.285L11.415 164.017C10.1298 164.017 8.93969 163.985 7.90829 163.953Z" fill="#DFB957"/>
<path d="M43.1821 78.9893C43.2218 76.3552 43.2456 74.6653 43.2456 74.6653C42.3332 75.1255 41.4843 75.5698 41.1987 75.7285H39.3263C38.4298 77.0455 37.7078 77.8468 36.5891 77.7516C35.3276 77.6326 32.9713 76.4584 32.9713 76.4584V75.1572H32.0827C32.0827 75.1572 31.932 75.1175 31.6781 75.0541C29.4328 74.5066 18.7618 71.8964 18.0954 72.1344C16.945 73.0548 15.4058 77.347 14.5331 80.3698C14.0809 81.8851 13.8111 83.0672 13.8349 83.3608C13.8984 84.2335 7.75761 135.605 8.35264 138.35C8.8604 140.651 16.461 143.912 20.3645 145.395C21.1261 145.681 21.737 145.903 22.1416 146.038C22.9747 146.316 24.617 146.141 26.4497 145.784C30.0517 145.086 34.3359 143.682 34.3359 143.682C34.3359 143.682 34.7326 143.523 35.3832 143.261C37.0414 142.587 40.318 141.206 42.5633 139.921C44.158 139.017 45.2291 138.16 44.8086 137.652C43.5709 136.152 36.2083 129.107 36.5891 127.275C36.9779 125.442 42.7458 112.668 42.7458 109.17C42.7458 106.48 43.0393 87.6451 43.1821 78.9972V78.9893Z" fill="#DFB957"/>
<path d="M8.84438 38.0748C8.30488 39.5029 8.15414 41.7561 8.71745 43.7792L10.6057 43.8427C10.6057 43.8427 14.7313 44.6678 15.001 42.605C15.2629 40.5501 11.4308 38.0748 12.7716 37.1227C14.1124 36.1707 17.1987 38.0748 18.3094 36.4325C19.4202 34.7822 15.5405 32.3069 13.6761 32.3069L12.7954 31.2676C10.931 32.7274 9.62983 35.9882 8.83645 38.0748H8.84438Z" fill="#F5C441"/>
<path d="M14.1751 68.4688C13.8577 67.8341 13.4928 67.247 13.0723 66.8027L12.5645 66.9376C13.3262 69.1908 14.6114 73.2609 14.31 74.6652C13.8974 76.6327 11.1761 75.1571 11.1761 75.1571C11.1761 75.1571 9.26404 74.8238 7.89942 73.6814C8.1295 76.8073 9.27198 81.3454 11.1761 82.3689C12.501 83.0829 13.8498 81.4248 14.5321 80.3616C15.4048 77.3468 16.944 73.0467 18.0944 72.1263C18.7608 71.8883 29.4318 74.4986 31.6771 75.046L32.0817 73.5306L35.3584 71.206L34.4381 69.8969C34.089 70.1429 33.724 70.3968 33.367 70.6427C32.2325 71.4361 31.209 72.1184 31.209 72.1184L20.062 70.1984C20.062 70.1984 17.0313 70.1984 15.9761 68.3102L14.1751 68.4609V68.4688Z" fill="#DFB957"/>
<path d="M9.50304 45.6441C9.93147 46.3581 10.5027 46.9849 11.2326 47.4451L11.2881 47.4927L12.0181 47.9687C12.9384 48.4765 14.4934 49.0556 15.6518 47.9687C17.4051 46.3264 20.4993 40.5506 21.3165 38.0832C21.4276 37.7499 21.5149 37.4326 21.5625 37.1232C21.9036 35.1714 21.0785 33.7433 19.5076 32.3153C17.6907 30.673 16.3817 29.8399 13.9063 30.673C13.5255 30.7999 13.1526 31.0062 12.8035 31.2759L13.6842 32.3153C15.5486 32.3153 19.4283 34.7906 18.3175 36.4409C17.2068 38.0832 14.1205 36.179 12.7797 37.1311C11.4389 38.0832 15.2709 40.5585 15.0091 42.6134C14.7394 44.6762 10.6138 43.851 10.6138 43.851L8.72553 43.7876C8.90007 44.454 9.16982 45.0808 9.51891 45.652L9.50304 45.6441Z" fill="#F5C441"/>
<path d="M11.4071 164.016L10.6693 168.284H12.4941L13.0732 164.016C12.5099 164.016 11.9546 164.016 11.4071 164.016Z" fill="#DFB957"/>
<path d="M37.4685 30.6802C38.2778 30.2756 39.1029 29.7202 39.452 29.0062C40.2692 27.3639 40.2692 26.5308 40.2692 26.5308C40.2692 26.5308 41.0943 28.1811 42.7445 28.0859C44.3948 27.9906 46.8701 26.5308 46.8701 24.8806C46.8701 23.5398 45.7832 22.1989 44.0536 21.3104C44.0536 21.3104 44.244 21.0009 44.6883 20.16L40.2771 19.1127L39.7059 10.2665C39.7059 10.2665 42.7445 10.8694 43.5696 10.0443C43.2602 9.11607 42.2526 8.19575 40.8642 7.39444C38.5396 6.06949 35.1201 5.10156 32.0339 5.10156C31.6927 5.10156 31.3754 5.11743 31.0818 5.14123C26.98 5.42685 26.266 7.57691 26.266 7.57691C24.6237 8.40203 21.3232 11.7025 21.3232 15.8202C21.3232 19.9378 22.1483 27.3559 22.1483 27.3559C22.1483 27.3559 26.266 33.1238 27.9162 33.9489C28.781 34.3774 28.9635 35.4881 28.9476 36.4402L27.9162 36.4164C26.266 37.2336 27.0911 38.8917 27.0911 38.8917L28.8365 49.8325L28.9476 49.8166L39.7059 35.5912L37.0401 33.5364H37.0084L37.0401 31.4736L37.8018 31.3942C37.6113 31.0293 37.4527 30.7119 37.4685 30.6802ZM25.0362 16.796C24.6237 16.7167 24.4809 15.8836 24.9648 15.2965C25.4409 14.7094 26.4326 14.5269 26.6627 14.8284C26.8689 15.0902 26.4643 15.6853 26.377 15.8202C26.0835 16.2644 25.4488 16.8754 25.0442 16.796H25.0362ZM32.859 17.4783C32.613 16.7405 33.1922 15.844 33.6841 15.8281C34.1125 15.8281 34.4378 16.5025 34.5013 16.6532C34.7393 17.1451 34.898 18.0258 34.5013 18.2955C34.0887 18.5811 33.097 18.2082 32.859 17.4783Z" fill="#DFB957"/>
<path d="M24.9651 15.2967C24.4891 15.8759 24.6239 16.7169 25.0365 16.7962C25.4411 16.8755 26.0758 16.2646 26.3694 15.8203C26.4567 15.6855 26.8613 15.0904 26.655 14.8286C26.4249 14.5271 25.4411 14.7017 24.9572 15.2967H24.9651Z" fill="#4F4131"/>
<path d="M31.0832 5.10972V5.14939C31.3768 5.12559 31.6941 5.10972 32.0353 5.10972C35.1295 5.10972 38.541 6.07764 40.8656 7.40259L40.9291 6.9107C41.0957 5.10972 40.2706 4.2846 38.6283 2.6423C36.986 0.999994 32.8604 1 32.8604 1L31.0832 5.11766V5.10972Z" fill="#DFB957"/>
<path d="M39.3256 75.7201H41.198C41.4757 75.5693 42.3246 75.125 43.2449 74.6649C44.3795 74.0936 45.6251 73.5303 46.0376 73.5462L46.5771 73.5065C46.2836 71.0867 46.1487 68.5717 46.0932 66.8104H46.0376L41.92 68.5717L41.0393 68.532C41.198 67.4213 41.2139 66.7707 39.6985 66.1042C37.7944 65.2712 32.1376 67.0008 32.0821 67.7862C32.0344 68.3654 31.5664 69.4444 31.3363 69.9442L33.3673 70.6583C33.7243 70.4123 34.0893 70.1584 34.4384 69.9125L35.3587 71.2216L32.0821 73.5462L31.6774 75.0615C31.9392 75.125 32.0821 75.1647 32.0821 75.1647H32.9706V76.4658C32.9706 76.4658 35.327 77.64 36.5885 77.759C37.7071 77.8542 38.4291 77.0609 39.3256 75.728V75.7201Z" fill="#DFB957"/>
<path d="M38.4461 161.494L41.5721 159.463C41.8973 158.4 42.7066 155.528 42.5717 153.925C42.3892 151.91 47.697 147.689 47.57 146.182C47.5224 145.69 47.094 145.158 46.491 144.555C45.2375 143.325 43.262 141.826 42.5796 139.922C40.3344 141.207 37.0577 142.596 35.3995 143.262L38.4541 146.174C38.4541 146.174 36.8752 152.441 35.3995 155.71C35.0901 156.392 34.7886 156.948 34.503 157.281L32.8686 159.217C32.8686 159.217 30.4964 159.868 32.0991 160.367L33.9397 160.685C34.2412 160.78 34.6141 160.899 35.0108 161.026C35.4313 161.169 35.9073 161.311 36.3754 161.462C37.026 161.661 37.6924 161.867 38.2795 162.041L38.4461 161.494Z" fill="#DFB957"/>
<path d="M33.6853 15.8204C33.1934 15.8362 32.6143 16.7328 32.8602 17.4706C33.1062 18.2005 34.09 18.5734 34.5025 18.2878C34.8992 18.0181 34.7405 17.1374 34.5025 16.6455C34.439 16.4868 34.1138 15.8124 33.6853 15.8204Z" fill="#4F4131"/>
<path d="M41.4445 159.867C41.4604 159.819 41.5001 159.677 41.5715 159.462L38.4456 161.493L38.2789 162.041C39.2231 162.319 39.9768 162.517 40.2069 162.517C40.3417 162.517 40.7305 162.081 41.2938 161.359C42.0078 160.438 42.9996 159.05 44.0627 157.495C44.6736 156.598 45.3083 155.654 45.9272 154.718C46.7999 153.401 47.6409 152.1 48.3311 150.981C48.5771 150.6 48.7992 150.235 48.9975 149.902C49.7195 148.704 50.1797 147.871 50.1797 147.689C50.1797 146.919 49.4656 146.157 47.9423 145.062L46.4984 144.555C47.0934 145.15 47.5298 145.681 47.5774 146.181C47.7123 147.696 42.3966 151.917 42.5791 153.925C42.7219 155.535 41.9047 158.399 41.5794 159.462L41.9523 159.216L41.4525 159.867H41.4445Z" fill="#DFB957"/>
<path d="M39.7073 10.2749L40.2786 19.1211L44.6898 20.1684C44.8405 19.8907 45.0151 19.5416 45.2293 19.1211C46.0464 17.4788 44.4041 12.5281 43.579 10.0527C42.7539 10.8779 39.7153 10.2749 39.7153 10.2749H39.7073Z" fill="#DFB957"/>
<path d="M42.4442 161.598C43.5311 161.86 46.0461 162.439 46.0461 162.185L46.2048 161.987L46.8633 162.511L48.2676 160.678L44.0547 157.48C42.9916 159.035 41.9999 160.424 41.2858 161.344L41.4445 161.463L42.4442 161.59V161.598Z" fill="#DFB957"/>
<path d="M52.6402 155.923L53.0527 154.305L48.3242 150.973C47.6339 152.091 46.7929 153.392 45.9202 154.71C45.9202 154.71 51.8151 155.923 52.6402 155.923Z" fill="#DFB957"/>
<path d="M28.7419 38.0744C28.7419 38.0744 28.9244 37.3287 28.9482 36.448C28.964 35.4959 28.7815 34.3852 27.9168 33.9568C26.2665 33.1316 22.1489 27.3638 22.1489 27.3638C22.1489 27.3638 21.3237 19.9456 21.3237 15.828C21.3237 11.7103 24.6242 8.40985 26.2665 7.58474C26.2665 7.58474 26.9806 5.43466 31.0824 5.14905C31.3759 5.12525 31.6933 5.10938 32.0344 5.10938C35.1286 5.10938 38.5402 6.0773 40.8648 7.40225C42.2611 8.19563 43.2608 9.12389 43.5702 10.0521C44.3953 12.5275 46.0456 17.4782 45.2204 19.1205C45.0062 19.541 44.8317 19.8901 44.6809 20.1678C44.2366 21.0088 44.0462 21.3182 44.0462 21.3182" stroke="#4F4131" stroke-linecap="round" stroke-linejoin="round"/>
<path d="M42.7445 20.7637C43.2126 20.9223 43.649 21.1048 44.0536 21.319C45.7911 22.2156 46.8701 23.5485 46.8701 24.8893C46.8701 26.5316 44.3948 27.9993 42.7445 28.0945C41.1022 28.1897 40.2692 26.5395 40.2692 26.5395C40.2692 26.5395 40.2692 27.3646 39.452 29.0149C39.095 29.7289 38.2778 30.2843 37.4685 30.6889C36.3975 31.2205 35.3264 31.4823 35.3264 31.4823" stroke="#4F4131" stroke-linecap="round" stroke-linejoin="round"/>
<path d="M37.041 31.4824L37.0093 33.5452L36.9934 34.2593L36.9855 35.6001" stroke="#4F4131" stroke-linecap="round" stroke-linejoin="round"/>
<path d="M37.0413 33.543L39.707 35.5978L28.9488 49.8232" stroke="#4F4131" stroke-linecap="round" stroke-linejoin="round"/>
<path d="M27.9164 36.4336C26.2661 37.2508 27.0913 38.9089 27.0913 38.9089L28.8367 49.8497L30.3838 59.5052" stroke="#4F4131" stroke-linecap="round" stroke-linejoin="round"/>
<path d="M23.5783 41.6934C22.9753 43.0183 25.8553 62.7101 26.8867 63.5828" stroke="#4F4131" stroke-linecap="round" stroke-linejoin="round"/>
<path d="M41.1025 39.1777C41.1025 39.1777 32.2325 51.5386 32.1294 52.6335C32.0342 53.7363 32.1294 55.7277 32.1294 55.7277" stroke="#4F4131" stroke-linecap="round" stroke-linejoin="round"/>
<path d="M37.803 32.3066C38.0172 32.4098 38.2631 32.5446 38.517 32.6954C39.7864 33.4412 41.5239 34.6471 42.7933 35.5357C43.317 35.9006 43.7533 36.218 44.0469 36.4322" stroke="#4F4131" stroke-linecap="round" stroke-linejoin="round"/>
<path d="M44.0547 38.0749C44.6894 37.6306 45.2368 37.1863 46.0461 37.1387C46.7443 37.0832 47.6487 37.3133 48.9657 38.0749C51.814 39.7172 56.7568 46.3182 56.7568 46.3182C59.2321 47.9605 60.8823 48.7935 60.8823 51.2609C60.8823 53.7284 60.0572 57.0289 60.0572 57.0289C60.0572 57.0289 65 71.04 65 72.6823C65 73.5867 64.2542 74.2452 63.5798 74.6499C63.0324 74.9831 62.5326 75.1497 62.5326 75.1497" stroke="#4F4131" stroke-linecap="round" stroke-linejoin="round"/>
<path d="M60.0566 76.8083L60.0408 76.8241C59.6282 77.086 52.5433 81.7273 49.346 80.9259C47.8465 80.5531 47.0372 77.1336 46.585 73.4999C46.2915 71.0801 46.1566 68.565 46.101 66.8037C46.0455 65.3836 46.0455 64.4395 46.0455 64.4395" stroke="#4F4131" stroke-linecap="round" stroke-linejoin="round"/>
<path d="M46.047 58.8045C46.8722 57.8525 48.5224 57.0273 48.5224 57.0273L53.0605 64.0012" stroke="#4F4131" stroke-linecap="round" stroke-linejoin="round"/>
<path d="M40.928 49.127C40.928 49.127 42.7449 54.5537 44.3951 55.3868C44.8632 55.6168 49.7187 55.3867 51.6228 55.7279C54.2807 56.2039 55.9785 59.5044 55.9785 59.5044" stroke="#4F4131" stroke-linecap="round" stroke-linejoin="round"/>
<path d="M42.7445 67.7405C42.7445 65.2651 44.3948 57.8549 44.3948 57.8549L46.8701 55.7207" stroke="#4F4131" stroke-linecap="round" stroke-linejoin="round"/>
<path d="M46.0459 66.8027L41.9282 68.572" stroke="#4F4131" stroke-linecap="round" stroke-linejoin="round"/>
<path d="M46.0459 73.5394C45.6333 73.5235 44.3877 74.0947 43.2532 74.658C42.3408 75.1182 41.4919 75.5625 41.2063 75.7212C41.1428 75.7609 41.1031 75.7767 41.1031 75.7767" stroke="#4F4131" stroke-linecap="round" stroke-linejoin="round"/>
<path d="M40.9276 69.4682C40.9594 69.1191 41.007 68.8097 41.0467 68.532C41.2053 67.4213 41.2212 66.7707 39.7058 66.1042C37.8017 65.2712 32.1449 67.0008 32.0894 67.7862C32.0418 68.3654 31.5737 69.4444 31.3436 69.9442C31.2642 70.1109 31.2087 70.214 31.2087 70.214" stroke="#4F4131" stroke-linecap="round" stroke-linejoin="round"/>
<path d="M36.5898 70.3574L35.368 71.2143L32.0914 73.5389" stroke="#4F4131" stroke-linecap="round" stroke-linejoin="round"/>
<path d="M37.8018 71.9453L32.978 75.1585" stroke="#4F4131" stroke-linecap="round" stroke-linejoin="round"/>
<path d="M39.707 75.1582C39.5801 75.3565 39.4532 75.539 39.3341 75.7215C38.4376 77.0465 37.7156 77.8478 36.597 77.7526C35.3355 77.6336 32.9792 76.4594 32.9792 76.4594" stroke="#4F4131" stroke-linecap="round" stroke-linejoin="round"/>
<path d="M20.0634 49.127C19.6746 50.436 15.0572 65.1612 15.7157 67.6842C15.7712 67.9222 15.8664 68.1364 15.9775 68.3268C17.0327 70.2151 20.0634 70.2151 20.0634 70.2151L31.2104 72.135C31.2104 72.135 32.2339 71.4527 33.3684 70.6594C33.7254 70.4134 34.0904 70.1595 34.4395 69.9136C35.2011 69.3662 35.8755 68.8584 36.1611 68.5728" stroke="#4F4131" stroke-linecap="round" stroke-linejoin="round"/>
<path d="M18.1035 70.2148V72.1348C18.7699 71.8968 29.4409 74.507 31.6862 75.0545C31.948 75.1179 32.0908 75.1576 32.0908 75.1576" stroke="#4F4131" stroke-linecap="round" stroke-linejoin="round"/>
<path d="M11.2327 47.4457C10.5028 46.9855 9.93159 46.3588 9.50316 45.6447C9.15407 45.0655 8.89226 44.4388 8.70978 43.7803C8.13854 41.7571 8.29722 39.5119 8.83672 38.0758C9.63011 35.9892 10.9313 32.7284 12.7957 31.2686C13.1448 30.9989 13.5097 30.7926 13.8985 30.6656C16.3739 29.8405 17.6829 30.6657 19.4998 32.308C21.0707 33.736 21.8958 35.1641 21.5546 37.1158C21.507 37.4253 21.4198 37.7426 21.3087 38.0758C20.4915 40.5512 17.3973 46.3191 15.6439 47.9614C14.4935 49.0562 12.9385 48.4771 12.0103 47.9614C11.6453 47.7551 11.3835 47.5647 11.2803 47.4853" stroke="#4F4131" stroke-linecap="round" stroke-linejoin="round"/>
<path d="M9.78902 53.7289L12.0264 47.9689L11.2885 47.4929L11.233 47.4453L8.353 53.7289" stroke="#4F4131" stroke-linecap="round" stroke-linejoin="round"/>
<path d="M6.55937 69.1589C6.55937 69.2621 6.55937 69.7222 6.53557 70.8726C6.51176 72.1262 7.11472 73.0307 7.90017 73.6812C9.26479 74.8237 11.1768 75.1569 11.1768 75.1569C11.1768 75.1569 13.8981 76.6326 14.3107 74.665C14.6043 73.2607 13.319 69.1907 12.5653 66.9375C12.2479 66.0171 12.0178 65.4062 12.0178 65.4062" stroke="#4F4131" stroke-linecap="round" stroke-linejoin="round"/>
<path d="M13.0801 58.6722L10.1922 54.3086C10.1922 54.3086 9.37497 54.1499 8.33564 54.0706C7.42325 54.0151 6.33633 54.0309 5.47947 54.3086C5.47947 54.3086 5.16211 54.8243 4.70195 55.6098C3.38493 57.8709 0.933386 62.4011 1.54429 63.6229C2.36147 65.2652 6.5426 70.208 6.5426 70.208C6.5426 70.208 6.55847 69.2877 6.5664 69.1528V69.1369" stroke="#4F4131" stroke-linecap="round" stroke-linejoin="round"/>
<path d="M5.48138 56.1406C8.13921 57.0292 10.2099 57.8543 11.2334 59.4966" stroke="#4F4131" stroke-linecap="round" stroke-linejoin="round"/>
<path d="M4.91807 58.6719C7.16334 58.6719 9.46415 59.9334 10.0909 60.5125C10.1385 60.5601 10.1623 60.5919 10.1941 60.6236C10.6066 61.1472 11.2334 62.5912 11.2334 62.5912" stroke="#4F4131" stroke-linecap="round" stroke-linejoin="round"/>
<path d="M3.79702 60.5116C5.66147 60.3291 7.12923 60.7496 9.2793 62.5982" stroke="#4F4131" stroke-linecap="round" stroke-linejoin="round"/>
<path d="M3.79771 62.5977C5.66216 63.6211 10.1924 64.4383 10.1924 64.4383" stroke="#4F4131" stroke-linecap="round" stroke-linejoin="round"/>
<path d="M9.27977 69.1913C10.6047 66.9223 12.0249 65.4069 12.0249 65.4069L12.5802 62.8998L13.0801 60.6387" stroke="#4F4131" stroke-linecap="round" stroke-linejoin="round"/>
<path d="M12.0245 52.6341C13.9048 52.0867 15.6582 57.0295 15.6582 57.0295" stroke="#4F4131" stroke-linecap="round" stroke-linejoin="round"/>
<path d="M27.918 33.957C26.2677 34.7742 21.6502 37.1226 21.6502 37.1226" stroke="#4F4131" stroke-linecap="round" stroke-linejoin="round"/>
<path d="M8.69336 46.7559C6.95585 48.5172 5.48017 54.3168 5.48017 54.3168" stroke="#4F4131" stroke-linecap="round" stroke-linejoin="round"/>
<path d="M9.2793 46.3262C9.09694 46.3975 8.91458 46.5403 8.7243 46.7147" stroke="#4F4131" stroke-linecap="round" stroke-linejoin="round"/>
<path d="M13.0797 66.8027C13.4923 67.247 13.8652 67.8341 14.1825 68.4688C15.1425 70.365 15.6582 72.6817 15.6582 72.6817" stroke="#4F4131" stroke-linecap="round" stroke-linejoin="round"/>
<path d="M7.90802 73.6816C8.1381 76.8076 9.28057 81.3457 11.1847 82.3692C12.5096 83.0832 13.8584 81.425 14.5407 80.3619C14.8342 79.9097 15.0088 79.5685 15.0088 79.5685" stroke="#4F4131" stroke-linecap="round" stroke-linejoin="round"/>
<path d="M18.1032 72.1348C16.9528 73.0551 15.4136 77.3473 14.5409 80.3701C14.0887 81.8854 13.8189 83.0676 13.8427 83.3611C13.9062 84.2338 7.76541 135.605 8.36045 138.35C8.86821 140.651 16.4688 143.912 20.3723 145.396C21.1339 145.681 21.7448 145.903 22.1494 146.038C22.9825 146.316 24.6248 146.142 26.4575 145.784C30.0595 145.086 34.3437 143.682 34.3437 143.682C34.3437 143.682 34.7404 143.523 35.391 143.262C37.0492 142.587 40.3258 141.207 42.5711 139.921C44.1658 139.017 45.2369 138.16 44.8164 137.652C43.5787 136.153 36.2161 129.108 36.5969 127.275C36.9857 125.442 42.7536 112.669 42.7536 109.17C42.7536 106.48 43.0471 87.6454 43.1899 78.9975C43.2296 76.3635 43.2534 74.6736 43.2534 74.6736" stroke="#4F4131" stroke-linecap="round" stroke-linejoin="round"/>
<path d="M34.3449 82.5527C35.3366 85.8691 31.2189 130.068 31.2189 130.068" stroke="#4F4131" stroke-linecap="round" stroke-linejoin="round"/>
<path d="M35.3906 155.717C35.0812 156.399 34.7797 156.947 34.4941 157.28L32.8597 159.216C32.8597 159.216 30.4875 159.866 32.0902 160.366" stroke="#4F4131" stroke-linecap="round" stroke-linejoin="round"/>
<path d="M35.3918 143.262L38.4463 146.173C38.4463 146.173 36.8675 152.441 35.3918 155.71" stroke="#4F4131" stroke-linecap="round" stroke-linejoin="round"/>
<path d="M36.9863 159.215L35.0029 161.024L34.4951 161.492" stroke="#4F4131" stroke-linecap="round" stroke-linejoin="round"/>
<path d="M38.4463 159.383L36.3676 161.461L36.3438 161.493" stroke="#4F4131" stroke-linecap="round" stroke-linejoin="round"/>
<path d="M41.4355 159.883L40.1979 161.493" stroke="#4F4131" stroke-linecap="round" stroke-linejoin="round"/>
<path d="M40.4062 159.215L38.4465 161.492L41.5724 159.461L41.9453 159.215L41.4455 159.865" stroke="#4F4131" stroke-linecap="round" stroke-linejoin="round"/>
<path d="M46.4829 144.547C47.078 145.142 47.5143 145.673 47.5619 146.173C47.6968 147.689 42.3811 151.909 42.5636 153.917C42.7064 155.527 41.8892 158.391 41.564 159.455C41.5005 159.669 41.4529 159.819 41.437 159.859V159.875" stroke="#4F4131" stroke-linecap="round" stroke-linejoin="round"/>
<path d="M42.571 139.912C43.2534 141.816 45.2289 143.316 46.4824 144.545" stroke="#4F4131" stroke-linecap="round" stroke-linejoin="round"/>
<path d="M26.6084 146.76C24.617 150.155 24.7519 155.098 25.093 157.978C25.4421 160.866 25.2993 161.287 24.133 161.485C22.9668 161.691 18.8412 161.691 17.1989 161.691C16.5721 161.691 15.8263 161.596 15.0567 161.54C13.8032 161.453 12.4782 161.477 11.4469 162.183" stroke="#4F4131" stroke-linecap="round" stroke-linejoin="round"/>
<path d="M10.668 160.438L8.9622 162.516" stroke="#4F4131" stroke-linecap="round" stroke-linejoin="round"/>
<path d="M8.96387 159.883L6.87727 161.493" stroke="#4F4131" stroke-linecap="round" stroke-linejoin="round"/>
<path d="M7.90723 159.215L5.75715 160.683" stroke="#4F4131" stroke-linecap="round" stroke-linejoin="round"/>
<path d="M6.82812 158.408L6.48696 158.662L6.06647 158.979L4.77327 159.955" stroke="#4F4131" stroke-linecap="round" stroke-linejoin="round"/>
<path d="M3.58325 158.574C4.14655 159.003 4.78125 159.217 4.78125 159.217" stroke="#4F4131" stroke-linecap="round" stroke-linejoin="round"/>
<path d="M20.0635 146.174C19.6747 146.856 20.0317 153.037 19.0321 154.481C18.0324 155.924 17.1994 155.099 13.9068 155.925C11.4632 156.527 8.58322 156.686 6.90919 156.726C6.32208 156.742 5.8778 156.742 5.66358 156.742C4.83846 156.742 3.25964 155.099 2.81534 156.742C2.5932 157.543 3.06129 158.162 3.58492 158.566" stroke="#4F4131" stroke-linecap="round" stroke-linejoin="round"/>
<path d="M3.37729 159.176C3.37729 159.176 3.33763 159.676 3.36143 160.35C3.40904 161.596 3.66291 163.452 4.78158 163.73C5.17034 163.833 6.32868 163.904 7.90751 163.952C8.93098 163.992 10.129 164.007 11.4143 164.007C11.9617 164.007 12.5171 164.007 13.0804 164.007C15.0876 164.007 17.1821 163.96 19.0307 163.896C20.8158 163.833 22.3709 163.73 23.4102 163.595C23.9894 163.523 24.4099 163.436 24.6161 163.333C26.2584 162.508 24.1401 161.485 24.1401 161.485" stroke="#4F4131" stroke-linecap="round" stroke-linejoin="round"/>
<path d="M35.391 159.383L32.9792 160.367C32.9792 160.367 33.352 160.494 33.9391 160.676C34.2406 160.78 34.6135 160.899 35.0102 161.025C35.4307 161.168 35.9067 161.311 36.3748 161.462C37.0254 161.66 37.6918 161.866 38.2789 162.041C39.2231 162.319 39.9768 162.517 40.2069 162.517C40.3417 162.517 40.7305 162.081 41.2938 161.359C42.0078 160.438 42.9996 159.05 44.0627 157.495C44.6736 156.598 45.3083 155.654 45.9272 154.718C46.7999 153.401 47.6409 152.1 48.3311 150.981C48.5771 150.6 48.7992 150.235 48.9975 149.902C49.7195 148.704 50.1797 147.871 50.1797 147.689C50.1797 146.919 49.4656 146.157 47.9423 145.063C47.8233 144.983 47.6964 144.896 47.5774 144.801" stroke="#4F4131" stroke-linecap="round" stroke-linejoin="round"/>
<path d="M47.5625 152.694C49.3397 153.456 52.6402 155.923 52.6402 155.923L53.0527 154.305L48.3242 150.973" stroke="#4F4131" stroke-linecap="round" stroke-linejoin="round"/>
<path d="M43.5708 159.882L46.2048 161.993L46.8633 162.516L48.2676 160.684L44.0547 157.486" stroke="#4F4131" stroke-linecap="round" stroke-linejoin="round"/>
<path d="M52.6396 155.925C51.8145 155.925 45.9197 154.711 45.9197 154.711" stroke="#4F4131" stroke-linecap="round" stroke-linejoin="round"/>
<path d="M46.0459 162.191C46.0459 162.444 43.5309 161.857 42.4439 161.604C42.1425 161.532 41.952 161.477 41.952 161.477" stroke="#4F4131" stroke-linecap="round" stroke-linejoin="round"/>
<path d="M23.4111 163.596V163.604L22.1417 168.285H20.6264L21.1976 164.334" stroke="#4F4131" stroke-linecap="round" stroke-linejoin="round"/>
<path d="M19.0313 164.016L20.626 168.284" stroke="#4F4131" stroke-linecap="round" stroke-linejoin="round"/>
<path d="M13.0801 164.016L12.493 168.284H10.6682L11.406 164.016" stroke="#4F4131" stroke-linecap="round" stroke-linejoin="round"/>
<path d="M7.907 164.016L10.668 168.284" stroke="#4F4131" stroke-linecap="round" stroke-linejoin="round"/>
<path d="M13.6839 32.3066C15.5483 32.3066 19.428 34.782 18.3173 36.4322C17.2065 38.0745 14.1203 36.1704 12.7794 37.1225C11.4386 38.0745 15.2707 40.5499 15.0088 42.6047C14.7391 44.6675 10.6135 43.8424 10.6135 43.8424" stroke="#4F4131" stroke-linecap="round" stroke-linejoin="round"/>
<path d="M44.6816 20.1684L40.2704 19.1211L39.6992 10.2749C39.6992 10.2749 42.7379 10.8779 43.563 10.0527" stroke="#4F4131" stroke-linecap="round" stroke-linejoin="round"/>
<path d="M40.9291 6.9107C41.0957 5.10972 40.2706 4.2846 38.6283 2.6423C36.986 0.999994 32.8604 1 32.8604 1L31.0832 5.11766" stroke="#4F4131" stroke-linecap="round" stroke-linejoin="round"/>
<path d="M26.2588 18.2969C26.2588 19.122 26.2588 21.5973 27.0839 22.4225C27.909 23.2396 28.9404 23.0413 28.9404 23.0413" stroke="#4F4131" stroke-linecap="round" stroke-linejoin="round"/>
<path d="M26.2584 25.4922C26.2584 25.4922 31.4312 27.5153 33.375 26.6109" stroke="#4F4131" stroke-linecap="round" stroke-linejoin="round"/>
<path d="M33.6853 15.8204C33.1934 15.8362 32.6143 16.7328 32.8602 17.4706C33.1062 18.2005 34.09 18.5734 34.5025 18.2878C34.8992 18.0181 34.7405 17.1374 34.5025 16.6455C34.439 16.4868 34.1138 15.8124 33.6853 15.8204Z" stroke="#4F4131" stroke-linecap="round" stroke-linejoin="round"/>
<path d="M26.6629 14.8364C26.4329 14.5349 25.4491 14.7095 24.9651 15.3045C24.4891 15.8837 24.6239 16.7247 25.0365 16.804C25.4411 16.8834 26.0758 16.2724 26.3694 15.8282C26.4567 15.6933 26.8613 15.0982 26.655 14.8364H26.6629Z" stroke="#4F4131" stroke-linecap="round" stroke-linejoin="round"/>
<path d="M6.87667 159.176C8.65385 157.684 13.073 159.382 13.073 159.382L15.0564 161.54L15.6436 162.183" stroke="#4F4131" stroke-linecap="round" stroke-linejoin="round"/>
<path d="M5.75768 158.565C5.73388 158.153 6.30511 157.407 6.90808 156.725C7.59039 155.971 8.32031 155.312 8.32031 155.312" stroke="#4F4131" stroke-linecap="round" stroke-linejoin="round"/>
<path d="M35.3902 155.709L36.3422 159.176C38.175 157.685 38.8652 157.367 41.1025 156.423" stroke="#4F4131" stroke-linecap="round" stroke-linejoin="round"/>
<path d="M3.58398 158.574V158.566" stroke="#4F4131" stroke-linecap="round" stroke-linejoin="round"/>
</svg>
