<svg width="82" height="141" viewBox="0 0 82 141" fill="none" xmlns="http://www.w3.org/2000/svg">
<path d="M14.1258 121.642C11.7139 122.898 9.5559 124.621 7.80181 126.696C6.00732 128.816 4.59943 131.651 5.41301 134.301C6.04771 136.364 7.94029 137.856 9.98865 138.554C12.037 139.251 14.2412 139.291 16.4049 139.303C23.7791 139.326 31.2917 139.061 38.2446 136.606C42.1509 135.223 46.1611 132.74 47.1997 128.735C48.2787 124.592 45.6187 120.167 41.9085 118.024C38.1984 115.88 33.7093 115.592 29.4337 115.811C25.5447 116.013 21.6326 116.612 18.0552 118.156C14.4777 119.7 11.2581 122.259 9.4405 125.699" fill="#D3B25B"/>
<path d="M9.0957 125.52C9.11304 125.595 9.2286 125.618 9.28638 125.462L9.1766 125.266L9.0957 125.52Z" fill="#C6B08D"/>
<path d="M9.96764 124.736C9.99072 124.523 9.97918 124.241 9.76569 124.252C9.81185 124.517 9.72529 124.517 9.80031 124.811C9.73107 124.961 9.59258 125.024 9.55219 124.967C9.56373 125.042 9.39063 125.174 9.44833 125.307C9.67913 125.191 9.81762 124.961 9.87532 124.656C9.94456 124.627 9.9561 124.702 9.97341 124.736H9.96764Z" fill="#C6B08D"/>
<path d="M33.1049 116.15C33.0298 116.15 33.0009 116.168 32.9951 116.185C33.0645 116.173 33.1222 116.168 33.1049 116.15Z" fill="#C6B08D"/>
<path d="M34.7496 116.472C34.7149 116.467 34.686 116.455 34.6514 116.449C34.686 116.472 34.7207 116.484 34.7496 116.472Z" fill="#C6B08D"/>
<path d="M23.3018 116.819H23.5733C23.5791 116.762 23.4347 116.808 23.3018 116.819Z" fill="#C6B08D"/>
<path d="M10.9352 122.662C10.9066 122.714 10.8894 122.76 10.8779 122.806L10.9524 122.685L10.9352 122.656V122.662Z" fill="#C6B08D"/>
<path d="M19.1938 118.15L19.1187 118.179C19.1187 118.179 19.0955 118.243 19.084 118.277L19.1938 118.156V118.15Z" fill="#C6B08D"/>
<path d="M16.2341 119.568C16.3035 119.534 16.2457 119.384 16.2341 119.309C16.2341 119.384 16.1995 119.441 16.1475 119.487C16.159 119.516 16.1879 119.539 16.2341 119.568Z" fill="#C6B08D"/>
<path d="M11.9345 122.541L11.8887 122.622C11.8887 122.622 11.923 122.564 11.9345 122.541Z" fill="#C6B08D"/>
<path d="M21.4492 117.453C21.4492 117.453 21.4776 117.493 21.4947 117.499C21.4947 117.482 21.472 117.465 21.4492 117.453Z" fill="#C6B08D"/>
<path d="M10.3887 123.151C10.3887 123.151 10.4 123.163 10.4056 123.174C10.4112 123.151 10.4056 123.134 10.3887 123.151Z" fill="#C6B08D"/>
<path d="M14.1444 121.682L14.0986 121.716C14.1101 121.745 14.1158 121.774 14.133 121.803L14.1444 121.682Z" fill="#C6B08D"/>
<path d="M37.6681 117.187C37.6681 117.187 37.6624 117.187 37.6568 117.182C37.5772 117.182 37.6227 117.187 37.6681 117.187Z" fill="#C6B08D"/>
<path d="M39.0081 135.592C39.3548 135.609 38.6037 135.961 39.1006 135.926C39.037 135.886 39.4068 135.528 39.0081 135.592Z" fill="#C6B08D"/>
<path d="M11.0117 122.61L11.1042 122.5C11.0579 122.546 11.0291 122.581 11.0117 122.61Z" fill="#C6B08D"/>
<path d="M43.6346 120.196C43.6462 120.167 43.6346 120.132 43.6346 120.098C43.6231 120.109 43.6231 120.138 43.6346 120.196Z" fill="#C6B08D"/>
<path d="M39.4463 117.389L39.5619 117.452C39.5214 117.423 39.481 117.406 39.4463 117.389Z" fill="#C6B08D"/>
<path d="M45.4765 122.074C45.5054 122.138 45.4996 122.167 45.5632 122.236C45.5632 122.224 45.5632 122.213 45.5632 122.201C45.5285 122.184 45.4938 122.149 45.4707 122.074H45.4765Z" fill="#C6B08D"/>
<path d="M46.6246 124.556C46.6246 124.556 46.6361 124.516 46.6418 124.499C46.6303 124.476 46.6189 124.441 46.6074 124.418L46.6246 124.556Z" fill="#C6B08D"/>
<path d="M4.90039 130.325C4.96395 130.273 5.02751 130.25 5.08529 130.238C4.95817 130.244 5.06796 129.8 4.90039 130.325Z" fill="#C6B08D"/>
<path d="M11.0114 122.719C10.9942 122.679 10.9942 122.644 11.0114 122.609L10.9541 122.69C10.9541 122.69 10.9827 122.731 11.0056 122.725L11.0114 122.719Z" fill="#C6B08D"/>
<path d="M46.624 121.492L46.8494 121.931C46.7974 121.804 46.7107 121.642 46.624 121.492Z" fill="#C6B08D"/>
<path d="M20.2495 139.936L20.1455 139.959C20.186 139.959 20.2264 139.959 20.2495 139.936Z" fill="#C6B08D"/>
<path d="M47.5132 123.225C47.4902 123.328 47.496 123.427 47.5132 123.525C47.5303 123.542 47.5475 123.559 47.5704 123.565L47.5189 123.225H47.5132Z" fill="#C6B08D"/>
<path d="M6.22817 127.231C5.95698 127.611 6.27433 127.525 6.32626 127.675C6.08392 128.164 6.05507 127.801 5.86465 127.899C5.73194 128.228 5.76656 128.55 5.64539 128.769C5.605 128.769 5.57038 128.81 5.55884 128.735C5.52999 129.121 5.09724 129.72 5.15494 130.193C5.12609 130.216 5.10301 130.227 5.0857 130.227C5.20687 130.198 5.31073 130.227 5.37997 130.262C5.32227 130.458 5.39151 130.654 5.23572 130.688C5.27611 130.573 5.22995 130.544 5.20687 130.475V130.694C4.94722 130.821 5.21841 130.4 5.07993 130.354C4.99915 130.775 5.05685 131.287 4.94722 131.587C4.73373 131.622 5.028 130.832 4.76835 131.224C4.82605 131.063 4.90106 130.907 4.96453 130.751C4.56639 131.045 5.06262 130.458 4.65294 130.717C4.53177 131.04 4.52023 131.236 4.51446 131.431C4.49715 131.627 4.50292 131.817 4.43945 132.163C4.53177 132.325 4.60101 132.123 4.69911 132.284C4.77412 132.762 4.66448 132.947 4.56639 133.114C4.45676 133.281 4.36444 133.431 4.55485 133.777C4.71065 133.944 4.9703 133.949 4.97607 134.468C4.88375 134.433 4.80297 134.399 4.71642 134.364C4.90683 135.021 5.12032 134.629 5.2588 135.315C5.12609 135.246 4.97607 134.866 4.99338 134.969C5.01646 135.459 5.23572 135.217 5.39728 135.517L5.2588 135.678C5.63962 136.3 6.25125 136.807 6.83402 137.286C6.76478 137.303 6.6263 137.257 6.71862 137.424C7.50912 138 8.37462 138.663 9.21128 139.118C9.34399 139.118 9.4767 139.101 9.60364 139.089C9.67865 139.118 9.72482 139.216 9.62672 139.216C9.94985 139.4 9.67865 139.124 9.8633 139.118C10.0595 139.17 10.0883 139.291 9.94985 139.302C10.6019 139.377 11.7386 139.446 12.356 139.7L12.2232 139.734C12.7195 139.867 12.8291 139.464 13.2734 139.66L13.1811 139.683C14.2601 139.85 15.4487 139.706 16.2565 139.965C16.4123 139.723 17.3067 140.074 17.3759 139.734C17.9818 139.902 17.8087 139.965 18.6626 140.069C18.8934 140.08 19.003 139.855 19.28 139.815L19.2916 139.994L19.6724 139.804L19.8801 140.011L20.1455 139.959C20.0417 139.948 19.9205 139.884 19.9378 139.832C20.3475 139.746 20.9476 139.936 20.9591 140.028L21.9342 139.85C21.9169 139.919 21.7496 139.948 21.6227 139.999C22.142 139.804 21.7207 140.184 22.1997 139.999C22.1362 139.959 22.2285 139.89 22.24 139.855C22.4824 139.953 23.0248 139.936 23.4287 139.873L23.3594 139.999C24.0922 139.994 24.8943 139.861 25.7078 139.798C25.4078 139.763 25.4655 139.544 25.7021 139.51L25.8117 139.688C25.956 139.562 25.5578 139.636 25.8636 139.469C26.1694 139.469 26.0829 139.665 25.9156 139.74L26.2791 139.648C26.3079 139.7 26.2214 139.74 26.2041 139.815C26.3483 139.683 26.8619 139.948 27.0638 139.723L27.0927 139.775C27.912 139.706 28.2755 139.585 28.9391 139.504C28.9333 139.343 29.193 139.343 29.3776 139.187C29.868 139.176 30.4277 139.227 31.0105 139.112C31.4086 138.968 31.1086 138.957 31.2759 138.83C31.3279 138.968 31.9106 138.864 31.6279 139.014C32.3203 138.859 32.5165 138.824 33.3762 138.524C33.2666 138.484 33.157 138.484 33.2031 138.421C33.3589 138.363 33.5782 138.403 33.5724 138.473L33.532 138.496C34.461 138.075 35.9093 138.369 36.6017 137.839L36.5613 137.868C36.8152 137.735 37.0691 137.614 37.3114 137.47C37.6865 137.372 37.1268 137.649 37.4268 137.643C38.2058 137.13 38.8001 137.228 39.4406 136.79C40.156 136.992 41.3216 135.943 42.1352 135.782L42.0428 135.713C42.1756 135.528 42.291 135.643 42.4294 135.586C42.3717 135.528 42.1929 135.62 42.2736 135.505C43.6931 134.526 45.3606 133.604 46.5666 132.123C46.7916 131.858 46.7166 131.691 46.6993 131.535C46.6704 131.374 46.6993 131.236 46.9993 130.919L47.0512 131.23C47.2878 130.567 47.6052 129.945 47.8013 129.265C48.0264 128.602 48.136 127.888 48.0899 127.219C48.1245 127.3 48.1822 127.306 48.1706 127.438C48.3553 127.162 48.1879 126.372 48.0841 126.378C48.0841 126.171 48.1822 126.326 48.2283 126.194C48.2745 125.9 47.9918 125.497 48.0841 125.335C48.1014 125.306 48.1418 125.404 48.1649 125.456C48.0668 125.283 48.0148 124.598 47.8937 124.811C47.8475 124.304 47.5821 123.906 47.5244 123.514C47.3917 123.428 47.3397 123.221 47.2763 123.042C47.207 122.863 47.1378 122.714 47.0051 122.731C47.132 122.69 47.0859 122.472 46.9705 122.235C46.8435 122.005 46.6531 121.763 46.5262 121.659C46.6473 121.705 46.4512 121.383 46.6127 121.429C46.4108 121.129 46.1857 120.887 46.1107 121.02C46.0588 120.656 45.7876 120.443 45.5683 120.242C45.3433 120.051 45.1356 119.896 45.1587 119.619C44.3278 118.939 43.52 118.404 42.7122 117.937C42.8968 117.724 43.5661 118.519 43.7046 118.277C42.9084 117.822 42.3602 117.718 41.6216 117.263C41.437 117.124 41.789 117.222 41.8755 117.222C41.0504 116.894 40.3349 116.45 39.5444 116.329C39.556 116.306 39.6425 116.312 39.7233 116.318C39.5733 116.277 39.3944 116.162 39.3771 116.283L39.5271 116.3C39.7002 116.542 38.8405 116.439 38.7885 116.531C39.1347 116.283 38.0846 116.231 38.5981 115.937C38.4943 115.932 38.3558 115.949 38.3616 116.03C38.2231 115.972 38.1885 115.914 38.3616 115.863C37.8076 115.793 37.9692 115.955 37.4903 115.839C37.5018 115.782 37.6057 115.782 37.6749 115.73C37.4037 115.782 37.1383 115.845 36.7344 115.713C36.7633 115.684 36.7286 115.626 36.8498 115.655C36.1343 115.546 35.6035 115.747 34.8418 115.563C35.0957 115.338 34.5879 115.453 34.5649 115.24C34.4206 115.246 34.2821 115.258 34.1379 115.269L34.2994 115.384C33.9302 115.361 33.6013 115.482 33.2897 115.407L33.5666 115.332L32.8742 115.344L33.2608 115.442C32.8858 115.54 33.2897 115.713 32.805 115.638C32.9031 115.615 32.4415 115.626 32.2511 115.5C32.0664 115.563 31.8818 115.632 31.6164 115.58C31.5471 115.511 31.6741 115.344 31.6279 115.298C31.449 115.476 30.7682 115.355 30.5489 115.557C30.6239 115.511 30.6239 115.396 30.6008 115.373L30.4566 115.523C30.2835 115.482 30.2604 115.459 30.2835 115.367C29.7757 115.361 30.4566 115.632 29.8507 115.54C29.8969 115.528 29.8738 115.505 29.9719 115.476C29.3603 115.442 28.8064 115.626 28.2524 115.597C28.0736 115.396 28.7313 115.511 28.5352 115.338C27.7331 115.43 26.8965 115.73 26.1175 115.776H26.2618C26.1925 116.099 25.6675 115.701 25.2982 115.903C25.3905 115.868 25.402 115.718 25.379 115.753C24.8423 115.776 24.3057 115.989 23.5325 116.231L23.6133 116.133C23.2902 116.128 22.794 116.254 22.4535 116.3C22.3728 116.398 22.1823 116.433 22.3208 116.514C21.1841 116.323 20.4571 117.251 19.4704 117.205C19.5743 117.171 19.7012 117.055 19.6147 117.084C19.3723 117.188 19.13 117.303 18.8876 117.424C18.9915 117.528 19.0146 117.464 19.205 117.499C19.1415 117.608 18.9511 117.747 18.7722 117.81C19.0723 117.603 18.6915 117.608 18.5184 117.603C18.5588 117.631 18.5241 117.695 18.553 117.724C18.0798 117.66 18.5934 117.994 18.0106 118.064V117.989C17.8317 118.11 17.6932 118.271 17.4798 118.346C17.3297 118.248 17.6529 118.19 17.6125 118.069C17.3182 118.208 17.1682 118.599 16.8451 118.594C16.9489 118.496 17.122 118.409 17.2259 118.311C16.8624 118.288 16.8508 118.346 16.6258 118.427H16.6489L16.1296 118.605L16.2738 118.582C16.1123 119.124 15.593 119.043 15.2698 119.556C15.5814 119.066 15.2698 119.389 15.2064 119.216C15.0621 119.251 14.8544 119.32 14.8775 119.245C14.739 119.498 14.4505 119.383 14.2658 119.769C14.2197 119.735 14.035 119.925 14.0004 119.769C13.7523 120 14.1216 119.804 14.1389 119.879C13.8389 120.328 13.0137 120.42 12.6271 121.117C12.2175 121.625 12.2752 121.849 11.929 122.327C11.727 122.408 11.8944 122.068 11.8944 122.068C11.6174 122.247 11.4558 122.425 11.3058 122.696C11.3058 122.616 11.2366 122.639 11.1269 122.667C10.9769 122.863 11.1789 122.927 10.9019 123.111C10.8904 123.03 10.8557 122.909 10.8904 122.783C10.7346 123.03 10.648 123.33 10.5038 123.589C10.3768 123.589 10.498 123.359 10.5095 123.232C10.3307 123.52 10.0595 123.987 10.1287 124.16L10.2961 124.016C10.2326 124.119 10.1518 123.993 10.1806 123.9C10.2441 123.589 10.4692 123.595 10.5211 123.618C10.4865 123.682 10.4518 123.745 10.423 123.808C10.8154 123.831 10.8904 123.105 11.1904 122.794L11.2596 123.082L11.3924 122.627C11.502 122.598 11.6405 122.644 11.5308 122.823C11.8193 122.679 11.6462 122.569 11.9174 122.472C11.9521 122.466 11.9521 122.483 11.9405 122.506L12.0905 122.247C12.0905 122.322 12.2463 122.333 12.0963 122.437C12.5579 122.166 12.5694 121.717 12.8406 121.722L12.8176 121.763C13.3022 121.221 12.7483 121.584 13.0253 121.066L13.5907 121.164L13.533 120.979C13.5965 120.939 13.7177 120.852 13.7408 120.927C13.885 120.662 13.6542 120.893 13.7119 120.708C14.0927 120.616 14.4736 120.051 14.7044 120.236C14.7332 120.051 14.3639 120.351 14.6236 120.051C14.8832 120.236 14.964 119.758 15.3218 119.694C15.3218 119.879 15.0159 119.977 15.3679 119.919C15.391 119.585 15.9392 119.637 16.1526 119.452C16.0603 119.262 16.6316 119.083 17.0182 118.813C17.0182 118.882 17.8548 118.53 18.2818 118.432V118.467C18.2818 118.242 18.703 118.098 18.9915 117.948C19.0261 118.069 18.9915 118.139 18.8473 118.254L19.13 118.144C19.1704 118.058 19.2512 117.989 19.4243 117.897L19.407 118.069C19.782 117.925 20.1109 117.62 20.6475 117.568C20.636 117.418 20.1224 117.303 20.6302 117.038C20.6706 117.107 20.7341 117.234 20.6014 117.309C20.6417 117.286 20.7456 117.194 20.8437 117.199L20.6706 117.395C20.9129 117.384 20.7571 117.251 20.9476 117.211C20.9764 117.32 21.1091 117.251 21.1033 117.343C21.0572 117.366 20.9302 117.343 20.8725 117.407C21.086 117.366 21.3515 117.361 21.4553 117.424C21.4207 117.366 21.4149 117.274 21.5592 117.217C21.9515 117.107 21.7265 117.315 21.9746 117.315C22.0496 117.217 22.3208 117.228 22.2862 117.061C22.4016 117.038 22.442 117.107 22.4997 117.142C22.6843 117.015 23.4518 116.911 23.1863 116.784H23.1286C23.1286 116.784 23.1517 116.773 23.1633 116.767C23.8095 116.456 24.5942 116.594 25.2578 116.421V116.479C25.6617 116.352 26.1637 116.318 26.4406 116.162C26.5618 116.145 26.7349 116.237 26.6945 116.306C27.0003 116.231 27.0292 116.162 27.4908 116.214C27.185 116.341 27.6062 116.289 27.1734 116.318C27.5831 116.329 27.6812 116.41 28.1024 116.22C27.9639 116.375 28.4198 116.381 28.6102 116.323L28.3159 116.243C28.5294 116.208 28.7198 116.202 28.916 116.208L28.8237 116.404C29.6603 116.583 30.3066 115.932 30.947 116.306C31.1663 116.168 30.497 116.226 30.6874 116.064C31.074 116.076 31.4721 116.352 31.5875 116.352C32.1068 116.456 32.0722 116.076 32.6204 116.156C32.5511 116.087 32.4876 115.897 32.9031 115.851C33.2897 115.891 33.3589 116.156 33.1166 116.202C33.0243 116.202 32.9839 116.179 32.9839 116.156C32.8569 116.174 32.6954 116.197 32.8454 116.277L32.8973 116.208C33.082 116.283 33.607 116.3 33.4743 116.41C33.7628 116.364 33.6013 116.306 33.3935 116.26C33.8725 116.393 34.1552 116.306 34.6456 116.427C34.5706 116.381 34.5072 116.295 34.5822 116.306C35.3034 116.462 34.9168 116.208 35.4188 116.237C35.6843 116.375 35.2861 116.473 35.7939 116.45C36.0824 116.571 35.8285 116.64 35.7016 116.675C36.1689 116.617 36.5209 116.888 36.7633 116.969H36.5209C36.6652 116.969 36.7748 116.998 36.8902 117.021L36.7863 116.859C36.919 116.911 37.0344 116.934 37.0171 116.992C37.1787 116.934 36.9537 116.75 37.2652 116.686C37.4326 116.79 37.8365 116.75 37.8538 116.94C37.2999 116.738 37.8711 117.13 37.3864 117.044C37.4845 117.044 37.5941 117.073 37.7211 117.13C37.7384 117.153 37.6922 117.159 37.6518 117.165C38.1481 117.453 37.9519 117.026 38.5058 117.194C38.4077 117.268 38.575 117.418 38.6731 117.424C38.4539 117.355 38.6154 117.228 38.8462 117.217C39.1694 117.413 39.2444 117.292 39.429 117.366L39.2328 117.257C39.3367 117.188 39.5156 117.257 39.7694 117.326C39.7637 117.407 39.5329 117.286 39.6021 117.355C39.9368 117.303 40.1445 117.758 40.5484 117.827C40.6869 117.971 40.4849 118.012 40.6061 118.121C41.0677 118.185 40.9638 118.461 41.4254 118.582C41.3735 118.404 41.3389 118.415 41.6909 118.461C41.4543 118.357 41.2062 118.271 40.9696 118.179L41.5005 118.236C41.2927 118.127 41.0273 118.075 40.9119 117.994C41.1773 117.994 41.1369 118.023 41.0908 117.868C41.2754 118.208 41.7255 118.052 41.9678 118.381L41.7832 118.663C42.1582 119.072 42.7006 119.043 43.1969 119.573L43.0584 119.377C43.2142 119.337 43.4103 119.648 43.6238 119.758C43.5315 119.827 43.6065 119.959 43.6238 120.075C43.67 120.005 43.9931 120.438 44.1951 120.334L44.2989 120.674C44.6394 121.135 44.9683 120.973 45.2914 121.446C45.0952 121.383 45.1818 121.63 44.8817 121.388C44.9971 121.532 45.0721 121.682 45.1356 121.636C45.1356 121.763 45.551 121.976 45.551 122.178C45.6318 122.218 45.7472 122.178 45.8453 122.368C45.8395 122.397 45.7934 122.397 45.7934 122.397C45.8395 122.368 46.0242 122.644 46.0415 122.425C46.0415 122.76 46.203 123.123 46.3877 123.474C46.5377 123.837 46.705 124.189 46.6185 124.477C46.7801 124.845 46.907 125.318 46.982 125.681C46.9474 125.664 46.9301 125.687 46.9301 125.618C46.8781 126.13 47.2994 125.888 47.2243 126.488C47.0455 126.793 47.1205 126.182 47.0512 126.372C46.8666 126.424 46.8781 126.591 46.9128 126.799C46.9301 126.902 46.9532 127.018 46.9532 127.127C46.9474 127.237 46.9185 127.346 46.8551 127.433L46.8435 127.34C46.7685 127.479 46.7858 127.652 46.8147 127.859C46.8204 128.061 46.8378 128.291 46.7743 128.522C46.7743 128.522 46.7454 128.493 46.7224 128.504C46.832 128.862 46.6935 129.495 46.5435 129.945C46.4685 129.749 46.555 129.714 46.3819 129.737C46.3185 129.939 46.6358 129.778 46.4858 130.181C46.3473 130.267 46.1396 130.504 45.9838 130.458L46.1569 130.112C45.8742 130.187 45.9376 130.561 45.7876 130.711L45.7241 130.642C45.4356 131.155 45.603 131.287 45.1875 131.794L45.2798 131.783C45.2221 132.204 44.9856 131.927 44.8702 132.307L44.6336 132.232C44.5124 132.434 44.2066 132.976 43.895 133.281C43.9816 132.999 44.2816 132.601 44.4259 132.319C44.2643 132.48 43.8719 132.872 43.8431 133.027C43.9008 132.947 43.9527 132.832 44.0508 132.797C43.947 133.108 43.7219 133.442 43.3353 133.719C43.1449 133.321 42.2736 134.353 41.7832 134.214C41.16 134.779 40.3234 134.952 39.4579 135.355C39.9079 135.534 39.204 135.476 39.3944 135.776C39.1924 135.885 39.1117 135.908 39.0828 135.897C38.8462 135.92 38.6039 135.937 38.3673 135.949C38.1769 135.908 38.5404 135.799 38.4943 135.736C38.0211 135.88 38.2462 135.666 37.9115 135.69C38.0154 135.787 37.8076 135.914 37.5249 135.96L37.9577 135.989C37.3576 136.387 37.2941 135.897 36.6882 136.295L36.8613 136.122C36.544 136.3 35.5977 136.496 35.3323 136.865C35.2573 136.842 35.1534 136.767 35.2977 136.704C34.8764 136.79 34.4322 136.986 34.0052 137.147C33.5724 137.303 33.157 137.441 32.8165 137.424L32.8627 137.326C32.7127 137.384 32.6204 137.539 32.4069 137.493C32.4069 137.458 32.453 137.395 32.378 137.407C32.303 137.453 31.9857 137.637 31.7664 137.626L31.928 137.499C31.0855 137.551 30.6932 137.948 30.0008 138.121C29.9661 137.868 29.2968 137.879 28.9621 137.879V137.844C27.9928 137.931 27.3408 138.248 26.4349 138.426C25.8463 138.208 24.5134 138.461 23.596 138.346C23.7345 138.386 23.5845 138.542 23.4229 138.576C23.2094 138.536 22.8401 138.778 22.8632 138.542H22.9382C22.7651 138.323 22.3324 138.398 21.9862 138.409L21.94 138.715C21.0283 138.3 19.5858 138.934 19.0896 138.542C18.8703 138.617 18.6049 138.622 18.3914 138.697L18.403 138.536C17.8029 138.501 17.5028 138.478 16.7527 138.519L16.9028 138.403C16.4815 138.392 16.3719 138.876 15.9853 138.882L15.8699 138.64C15.1371 138.64 14.4159 138.409 13.7004 138.582C13.7119 138.547 13.7408 138.478 13.8562 138.478C13.5157 138.461 12.5925 138.207 12.6733 138.542C12.6906 138.329 11.9578 138.426 11.5597 138.444L11.6462 138.3C11.2943 138.438 11.2654 138.49 10.8154 138.438C10.7173 138.386 10.7577 138.288 10.8846 138.363C10.5672 138.184 10.573 138.444 10.1864 138.225L10.3711 138.179C10.0306 138.058 10.0422 138.115 9.81137 138.156C9.56902 138.138 9.18243 137.85 9.20551 137.695C9.12473 137.758 8.88816 137.77 8.72083 137.631C8.72083 137.568 8.80738 137.579 8.84777 137.579C8.38039 137.199 7.97649 137.268 7.73415 136.888C7.763 136.842 7.75723 136.807 7.73415 136.773C8.10343 137.067 8.42656 137.274 8.38616 137.268C8.46118 137.142 8.17267 136.911 8.52465 136.905C8.21883 136.848 7.65337 136.721 7.42834 136.416C7.42834 136.392 7.42257 136.369 7.42834 136.346L7.46873 136.358C7.4168 136.289 7.35333 136.248 7.28409 136.22C7.22062 136.122 7.186 136.053 7.11098 135.972C7.16868 135.862 6.88595 135.615 6.78786 135.465C6.66669 135.574 6.54552 135.361 6.5686 135.626C6.56283 135.597 6.60322 135.643 6.684 135.741C6.70708 135.759 6.73016 135.782 6.74747 135.793H6.73016C6.81671 135.88 6.9148 136.006 7.04174 136.139C6.87441 136.093 6.72439 136.006 6.66092 135.793C6.52244 135.782 6.37242 135.753 6.29164 135.73C6.30895 135.384 6.18201 134.894 6.28587 134.779C5.94544 134.33 5.80695 133.604 5.47229 133.269C5.42036 133.108 5.5473 133.068 5.58769 133.004C5.62808 133.097 5.62231 133.206 5.67424 133.252C5.55884 132.941 5.61077 132.301 5.42036 132.204C5.55884 131.794 5.58769 132.457 5.61654 131.881L5.67424 131.967C5.91659 131.443 5.8935 130.993 5.93967 130.492C5.98583 130.002 6.09546 129.467 6.59745 129.006C6.52821 129.069 6.49936 129.104 6.45897 129.104C6.89172 128.499 7.27832 127.847 7.72838 127.231C8.17844 126.614 8.69775 126.032 9.32668 125.623C9.66712 125.376 9.60941 125.249 9.72482 124.995L9.90946 125.064L10.0999 124.621C10.4807 124.096 11.1904 124.258 11.652 123.572L11.502 123.537C11.7386 123.382 12.1944 122.961 12.2348 123.1C12.2463 123.065 12.2463 122.944 12.3675 122.938L12.4252 123.007C12.5868 122.835 12.7599 122.667 12.9272 122.5C13.4234 122.281 13.0426 122.846 13.7235 122.472C13.9543 122.299 14.3235 121.843 14.1966 121.843C14.0927 121.895 13.9023 121.936 13.8504 121.861L14.0639 121.694C13.9773 121.434 14.0466 121.089 13.3542 121.244L13.0195 121.619L12.8233 121.584L13.1695 121.377C12.9099 121.383 12.8349 121.55 12.7368 121.699C12.6675 121.659 12.5868 121.653 12.4887 121.682L12.229 122.149C12.1252 122.091 12.2925 121.861 11.9982 121.982C11.877 122.201 12.304 122.068 12.0444 122.327C11.7905 122.351 11.7847 122.235 11.6232 122.466C11.5539 122.431 11.577 122.362 11.6462 122.276C11.4962 122.477 11.1442 122.667 11.1327 122.852C10.85 122.869 10.5153 123.365 10.3768 123.151C10.3538 123.244 10.1749 123.572 10.0133 123.716C10.1229 123.226 9.37861 124.229 9.2459 123.924C9.20551 124.321 8.53619 124.742 8.27653 125.232C8.27653 125.197 8.28807 125.122 8.33423 125.099C8.11497 125.295 7.9938 125.301 7.82647 125.404C7.96495 125.589 7.69376 125.958 7.64183 126.24C7.23793 126.372 7.58413 125.9 7.35333 125.848C7.50335 125.952 7.07636 126.447 7.27832 126.453C6.99558 126.586 7.07636 126.597 6.83979 126.591C7.0302 126.805 6.71862 126.828 6.71862 127.121C6.36665 127.369 6.44166 127.052 6.25125 127.467C6.05507 127.594 6.20509 127.208 6.20509 127.208L6.22817 127.231ZM6.86864 137.245C6.7994 137.188 6.73593 137.136 6.70131 137.101C6.73593 137.13 6.78786 137.17 6.87441 137.245H6.86864ZM7.57836 137.81C7.49181 137.741 7.38218 137.66 7.26678 137.574C7.27832 137.51 7.34179 137.487 7.41103 137.539C7.34756 137.539 7.49758 137.695 7.57836 137.81ZM7.02443 135.799C7.11675 135.874 7.12252 135.926 7.10521 135.96C7.06482 135.92 7.01866 135.874 6.95519 135.811C6.94942 135.811 6.93788 135.811 6.93211 135.811C6.96096 135.799 6.99558 135.793 7.02443 135.793V135.799Z" fill="#C6B08D"/>
<path d="M6.71818 135.759C6.71818 135.759 6.69507 135.742 6.67773 135.725C6.67773 135.753 6.68351 135.782 6.69507 135.805C6.71818 135.805 6.74129 135.805 6.76441 135.805C6.74707 135.788 6.73552 135.771 6.71818 135.753V135.759Z" fill="#C6B08D"/>
<path d="M23.18 116.818H23.197C23.197 116.818 23.1686 116.812 23.1572 116.801C23.1686 116.801 23.1686 116.812 23.18 116.818Z" fill="#C6B08D"/>
<path d="M19.2912 140.029V139.988L19.2168 140.029H19.2912Z" fill="#C6B08D"/>
<path d="M18.5012 117.631C18.5012 117.631 18.4668 117.613 18.4268 117.613C18.4325 117.625 18.4611 117.625 18.5012 117.631Z" fill="#C6B08D"/>
<path d="M16.6083 118.449L16.3252 118.536C16.4523 118.507 16.539 118.472 16.6083 118.449Z" fill="#C6B08D"/>
<path d="M15.1826 119.164C15.1826 119.199 15.1826 119.222 15.1941 119.239L15.1826 119.164Z" fill="#C6B08D"/>
<path d="M39.7168 116.334C39.7168 116.334 39.7572 116.346 39.7804 116.346C39.9306 116.363 39.8324 116.346 39.7168 116.334Z" fill="#C6B08D"/>
<path d="M32.2334 115.511C32.3143 115.482 32.3894 115.453 32.4761 115.436C32.3432 115.424 32.2392 115.419 32.2334 115.511Z" fill="#C6B08D"/>
<path d="M46.6005 121.445H46.5947L46.6237 121.49L46.6005 121.445Z" fill="#C6B08D"/>
<path d="M32.8223 115.448C32.6894 115.407 32.5796 115.413 32.4756 115.436C32.5854 115.448 32.7125 115.465 32.8223 115.448Z" fill="#C6B08D"/>
<path d="M10.0359 123.779L9.98438 123.837C9.98438 123.837 9.99583 123.849 10.0016 123.86L10.0359 123.779Z" fill="#C6B08D"/>
<path d="M10.0012 123.865L9.9668 123.946C9.9897 123.911 10.0069 123.883 10.0012 123.865Z" fill="#C6B08D"/>
<path d="M9.89794 124.12L9.96667 123.947C9.93231 123.999 9.88076 124.057 9.89794 124.12Z" fill="#C6B08D"/>
<path d="M11.4495 122.189L11.4209 122.131C11.4209 122.131 11.4266 122.165 11.4495 122.189Z" fill="#C6B08D"/>
<path d="M11.8877 121.711C11.7666 121.803 11.5244 121.895 11.4033 122.079L11.4264 122.126C11.4322 121.987 11.8531 121.878 11.8935 121.711H11.8877Z" fill="#C6B08D"/>
<path d="M14.3697 120.564L13.9248 120.841C14.0346 120.841 14.179 120.83 14.0057 120.986C14.6413 120.743 13.815 120.957 14.3697 120.564Z" fill="#C6B08D"/>
<path d="M15.761 119.751C15.5356 119.919 15.813 119.826 15.8187 119.867C15.9401 119.728 15.969 119.694 15.761 119.751Z" fill="#C6B08D"/>
<path d="M26.8094 116.387L26.7979 116.537C27.0116 116.491 26.7979 116.479 26.8094 116.387Z" fill="#C6B08D"/>
<path d="M28.9966 115.442L28.777 115.361L28.6846 115.506L28.9966 115.442Z" fill="#C6B08D"/>
<path d="M30.3766 116.427L30.2842 116.45L30.6424 116.387L30.3766 116.427Z" fill="#C6B08D"/>
<path d="M46.341 124.143L46.4912 124.022C46.4103 123.901 46.2081 123.947 46.341 124.143Z" fill="#C6B08D"/>
<path d="M45.1758 131.701C45.0544 131.718 44.8522 131.845 44.8291 132.007C44.962 131.88 45.1411 131.793 45.1758 131.701Z" fill="#C6B08D"/>
<path d="M21.5359 138.53L21.7035 138.461L21.3799 138.524L21.5359 138.53Z" fill="#C6B08D"/>
<path d="M64.1182 24.265L64.8394 54.1754L67.4244 52.5217L67.1013 23.7637" fill="#C67B7B"/>
<path d="M67.7414 39.4868C67.7414 39.4868 70.0436 39.1181 70.6091 39.7692C71.5727 40.8755 70.8572 45.6291 70.8572 45.6291L66.9393 48.804L66.7432 39.4868" fill="#C67B7B"/>
<path d="M40.2192 21.0195C41.3906 20.1725 41.4886 21.7685 41.102 22.1892C40.7097 22.6155 39.8961 22.6501 39.4518 22.4657C39.4518 22.4657 39.0421 21.8665 40.2192 21.0195Z" fill="#4F4131"/>
<path d="M78.578 1.52734L80.6148 2.77193C80.5283 3.7918 80.0494 9.68631 80.0494 11.2651C80.0494 12.6768 80.436 19.378 80.5745 21.7922L78.5549 23.1578L64.2856 26.6438L54.9151 28.9371H54.9035L50.6337 28.7354C50.3856 26.5747 50.0567 20.4612 49.8143 15.5462C49.6355 11.7491 49.5028 8.6722 49.5028 8.6722C49.5028 8.6722 48.8911 8.9603 50.0451 7.80791C50.5702 7.28357 56.6115 5.91797 63.0278 4.59272C64.2625 4.33343 65.5146 4.0799 66.7437 3.8379C72.2425 2.72584 77.2913 1.76935 78.578 1.52734Z" fill="#F5CF24"/>
<path d="M59.2658 45.4216L59.2543 45.122L62.1624 43.5317C62.1624 42.9555 61.5854 41.2269 62.7394 40.6507C63.2068 40.4202 63.8819 40.3741 64.5627 40.4087C65.561 40.449 66.5649 40.6507 66.8592 40.6507C67.3554 40.6507 66.94 41.4689 66.8592 41.636C66.7784 41.8031 64.5627 42.6674 64.5627 42.6674L64.8512 48.0433L60.8007 48.9883L60.9738 48.7463C58.6715 49.9102 55.0537 51.5985 53.5304 51.5985H51.4532C51.4474 49.5299 51.3378 47.1906 51.2686 45.8307C51.2686 45.8307 55.8673 45.5887 59.2658 45.4216Z" fill="#C67B7B"/>
<path d="M66.7433 3.83187C65.5142 4.07964 64.2621 4.33316 63.0273 4.59245V1.98804C63.0273 1.98804 65.6239 0.893259 65.9931 1.0085C66.3567 1.12374 66.7779 2.62185 66.7433 3.83187Z" fill="#C67B7B"/>
<path d="M40.6338 54.2373L43.1207 70.7626L40.2357 72.9176L39.6587 75.2224C39.6587 75.2224 38.8624 75.5624 37.9103 75.8793C36.7159 76.2826 35.2619 76.6572 34.8176 76.2826C34.506 76.0233 34.356 74.6347 34.2925 73.0386C34.1944 70.5495 34.3041 67.559 34.3041 67.559C34.3041 67.559 35.6196 45.2601 35.6196 43.5315C35.6196 41.8029 33.8886 34.8885 33.779 35.1594L33.2539 35.1248C33.4962 34.5659 33.7559 33.8917 34.0329 33.3789C36.1966 33.7419 39.6529 38.3457 39.6529 38.3457L51.193 44.6839C51.193 44.6839 51.2218 45.1218 51.2622 45.8306C51.3315 47.1904 51.4411 49.5297 51.4469 51.5983C51.4526 53.2405 51.3892 54.7155 51.193 55.3897C50.616 57.3603 50.039 56.7841 50.039 56.7841L40.628 54.2373H40.6338Z" fill="#C67B7B"/>
<path d="M26.5675 21.2444V21.3136L28.1197 23.3648C28.1197 23.3648 26.5502 23.8892 26.5502 23.9929L24.6634 24.0678C23.6998 22.9269 22.3496 19.2565 22.3496 18.1791C22.3496 17.0267 24.6576 12.9933 25.8116 11.8409C26.9656 10.6885 31.0047 9.53608 32.1587 9.39203C33.3127 9.25374 33.8897 10.1123 33.8897 10.1123L34.3225 10.1238C34.3571 10.118 34.3917 10.1123 34.4263 10.1123H39.0827C40.8138 10.1123 43.6988 12.4171 44.6912 14.1457C45.0144 14.7103 45.1413 15.2808 45.1701 15.7821C45.2278 16.8192 44.8528 17.6029 44.8528 17.6029L42.9948 18.496L40.0752 19.9076L39.6597 18.1791L37.9287 19.9076C37.9287 19.9076 37.9287 14.7219 36.7747 14.1457L35.0437 14.7219C33.8897 15.2981 33.3127 20.576 33.3127 20.576C33.3127 20.576 31.5817 20.4838 29.8507 21.06C28.9621 21.3539 27.7677 21.3481 26.8214 21.2675C26.7348 21.2617 26.6483 21.2502 26.5675 21.2444Z" fill="#C67B7B"/>
<path d="M43.1215 95.5511C43.6985 98.2708 44.2755 106.436 43.1215 108.4C41.9675 110.371 40.8135 110.371 40.2365 111.523C39.6595 112.676 36.8264 119.763 35.3608 119.965C35.0665 120.005 34.6684 120.063 34.2126 120.126C32.3892 120.374 29.6196 120.743 28.6964 120.743C27.577 120.743 27.2712 118.328 27.2539 118.173C28.5637 116.986 29.6427 115.799 29.8504 114.981C30.4274 112.676 32.1584 98.847 31.8699 98.2996C31.5814 97.7522 32.7354 95.966 32.7354 94.2374C32.7354 92.5088 31.0044 76.2831 31.0044 76.2831L29.2561 76.3464C29.5504 76.1621 29.7581 75.9777 29.8504 75.7991C29.9197 75.6608 29.9889 75.2344 30.0581 74.6063L30.4736 74.6467L34.2934 73.0391C34.3568 74.6351 34.5069 76.0238 34.8184 76.2831C35.2627 76.6576 36.7168 76.2831 37.9112 75.8797L38.0497 76.2831C39.0825 80.4086 42.5445 92.8372 43.1215 95.5511Z" fill="#C67B7B"/>
<path d="M25.1708 24.6045L24.8476 24.2588C24.7899 24.2069 24.7265 24.1435 24.663 24.0686L26.5498 23.9937C26.5498 23.89 28.1193 23.3657 28.1193 23.3657L26.5613 21.3144V21.2452C26.6479 21.251 26.7344 21.2625 26.821 21.2683C27.7673 21.349 28.9617 21.3547 29.8503 21.0609C31.5813 20.4847 33.3123 20.5769 33.3123 20.5769C33.3123 20.5769 33.8893 15.2989 35.0433 14.7227L36.7743 14.1465C37.9283 14.7227 37.9283 19.9085 37.9283 19.9085L39.6593 18.1799L40.0748 19.9085L42.9944 18.4968L43.1214 18.7561V25.6244C43.1214 25.6244 42.5444 29.1276 40.2364 30.8562C38.9439 31.8242 36.5724 32.2506 34.7317 32.435L34.7433 32.5906C34.5009 32.6482 34.2644 32.9594 34.0393 33.38C33.7624 33.8928 33.5027 34.567 33.2604 35.1259L33.7854 35.1604C33.8951 34.8896 35.6261 41.804 35.6261 43.5326C35.6261 45.2612 34.3105 67.5601 34.3105 67.5601C34.3105 67.5601 34.2009 70.5505 34.299 73.0397C34.299 73.0397 30.4792 74.63 30.4792 74.6473L30.0638 74.607C30.5658 70.078 31.01 54.7281 31.01 54.7281V38.3468C31.01 37.1944 25.24 33.7372 23.7744 33.7372L27.8942 32.2391L28.702 31.4324C28.702 31.4324 28.702 28.5514 27.548 29.1276C26.394 29.7038 25.24 28.5514 24.663 27.9752C24.086 27.399 24.6168 25.2959 25.1765 24.6045H25.1708ZM41.1019 22.1902C41.4885 21.7696 41.3904 20.1735 40.219 21.0205C39.042 21.8675 39.4516 22.4668 39.4516 22.4668C39.8959 22.6512 40.7095 22.6166 41.1019 22.1902ZM38.5053 29.6981C39.0823 28.5514 38.915 27.9291 38.915 27.9291C37.9283 27.9752 35.0433 27.399 34.4663 27.9752C33.8893 28.5514 33.8893 29.9113 34.4663 30.3838C35.0433 30.8562 36.1742 31.5765 36.4743 31.2135C36.7743 30.8562 37.9283 30.8389 38.5053 29.6981ZM34.6336 22.6627C34.4663 22.2133 33.8893 21.6371 33.3123 21.6371C32.7353 21.6371 31.6332 22.7895 33.0526 23.0776C34.4663 23.3657 34.6336 22.6627 34.6336 22.6627Z" fill="#C67B7B"/>
<path d="M41.9679 125.927C43.6989 126.504 39.781 128.071 39.781 128.071C39.781 128.071 41.0446 129.494 34.2937 127.132C27.5427 124.775 26.4234 123.623 26.4234 123.623L25.1309 119.964C25.8406 119.399 26.5791 118.783 27.2542 118.172C27.2715 118.327 27.5774 120.742 28.6967 120.742C29.62 120.742 32.3896 120.373 34.2129 120.125L34.2937 120.742C35.6208 121.894 40.2368 125.351 41.9679 125.927Z" fill="#C67B7B"/>
<path d="M38.9137 27.9285C38.9137 27.9285 39.081 28.5508 38.504 29.6975C37.927 30.8383 36.773 30.8556 36.473 31.2129C36.1729 31.5759 35.042 30.8556 34.465 30.3831C33.888 29.9107 33.888 28.5508 34.465 27.9746C35.042 27.3984 37.927 27.9746 38.9137 27.9285Z" fill="#C67B7B"/>
<path d="M33.3118 21.6367C33.8888 21.6367 34.4658 22.2129 34.6332 22.6624C34.6332 22.6624 34.4658 23.3653 33.0522 23.0772C31.6328 22.7891 32.7348 21.6367 33.3118 21.6367Z" fill="#4F4131"/>
<path d="M25.1306 119.965C25.1306 119.965 23.6996 122.708 22.8456 124.079C22.6379 124.413 22.4648 124.661 22.3494 124.776C21.7724 125.352 18.8874 125.352 18.8874 125.352L17.1564 123.624H15.4253C15.1657 123.491 14.9349 123.071 14.7329 122.471C14.0405 120.42 13.6943 116.317 13.6943 114.981C13.6943 113.252 20.0414 104.609 19.8971 102.909C19.7529 101.21 20.6184 99.4233 19.8741 98.2018C19.1297 96.9802 20.0414 94.2375 19.8741 92.2208C19.8279 91.6792 19.7356 90.7919 19.6144 89.7432C18.6508 87.8245 15.258 80.9735 14.2713 77.5278L14.2944 77.159C17.7161 77.3434 23.7688 76.9458 23.7688 76.9458V78.2653C23.7688 78.2653 27.6867 77.3319 29.2561 76.3466L31.0045 76.2832C31.0045 76.2832 32.7355 92.5089 32.7355 94.2375C32.7355 95.9661 31.5815 97.7524 31.87 98.2997C32.1585 98.8471 30.4275 112.676 29.8505 114.981C29.6427 115.799 28.5637 116.986 27.2539 118.167C26.5788 118.784 25.8403 119.4 25.1306 119.965Z" fill="#C67B7B"/>
<path d="M17.1965 46.2859H17.2138L20.1508 44.2347C20.1508 44.2347 20.3239 43.7622 19.9719 42.9843H20.5316C20.5316 42.9843 21.7722 41.2269 22.3492 40.1379C22.9262 39.0546 22.3492 37.1935 22.3492 35.9201C22.3492 35.4073 22.7011 34.6006 23.1224 33.8228L23.7686 33.7363C25.2342 33.7363 31.0042 37.1935 31.0042 38.3459V54.7272C31.0042 54.7272 30.5599 70.0772 30.0579 74.6061C29.9887 75.2341 29.9195 75.6605 29.8502 75.7988C29.7579 75.9774 29.5502 76.1618 29.2559 76.3462C27.6865 77.3315 23.7686 78.2649 23.7686 78.2649V76.9454C23.7686 76.9454 17.7158 77.343 14.2942 77.1586C13.5614 77.1183 12.944 77.0549 12.5401 76.9512C11.3745 76.6573 10.5033 76.3692 9.92626 76.156L9.32041 74.7962L9.65507 74.6464L11.4265 60.4777C9.18192 61.9758 7.22588 63.1167 6.77005 63.1167C5.61604 63.1052 1 55.0557 1 53.3271C1 51.5985 3.88502 48.1413 3.88502 48.1413L4.63513 48.1182C3.75231 49.6624 3.30802 52.7509 3.30802 52.7509C3.30802 52.7509 6.04879 53.3271 7.56631 52.7509C8.3395 52.457 10.711 50.544 12.8401 48.7521C14.8596 47.0523 16.6541 45.462 16.6541 45.462L17.0753 45.2949C17.2658 45.7731 17.2369 46.1131 17.1965 46.2859Z" fill="#C67B7B"/>
<path d="M29.8502 132.266C31.0042 132.266 28.6962 133.418 28.6962 133.418C28.6962 133.418 24.9168 133.995 24.5013 133.418C24.0801 132.842 16.5791 127.656 14.8481 127.08C13.117 126.504 13.1632 125.352 13.1632 125.352L14.7327 122.471C14.9346 123.07 15.1654 123.491 15.4251 123.623H17.1561L18.8871 125.352C18.8871 125.352 21.7721 125.352 22.3491 124.775C22.4645 124.66 22.6376 124.412 22.8453 124.078C25.2341 126.504 28.6962 132.266 29.8502 132.266Z" fill="#C67B7B"/>
<path d="M16.5789 37.3035V32.5844L18.8004 29.0293L19.9486 29.7323L21.2007 30.4928L22.7586 31.4378L24.08 32.2445C23.8088 32.6593 23.4453 33.2355 23.1221 33.8233C22.7009 34.6011 22.3489 35.4078 22.3489 35.9206C22.3489 37.194 22.9259 39.0551 22.3489 40.1384C21.7719 41.2274 20.5314 42.9848 20.5314 42.9848H19.9717C19.7467 42.4778 19.3081 41.8439 18.4599 41.1237C16.2962 39.2856 16.5789 40.075 16.0019 40.075L13.1169 42.3798C13.5035 42.3798 13.5035 42.0283 14.1035 42.3395C14.1035 42.3395 10.6992 44.0911 8.02769 45.6238L7.92383 45.2608C7.92383 45.2608 9.07784 42.956 10.4396 41.6365C11.7955 40.317 15.4249 37.7702 16.1115 37.3035H16.5789Z" fill="#C67B7B"/>
<path d="M19.972 42.9846C20.324 43.7625 20.1509 44.2349 20.1509 44.2349L17.2139 46.292H17.1966C17.237 46.1133 17.2659 45.7734 17.0754 45.2951C16.8793 44.8054 16.4523 44.1716 15.5752 43.4283C14.854 42.8117 14.4039 42.4948 14.1039 42.3392C13.5038 42.0281 13.5038 42.3796 13.1172 42.3796L16.0022 40.0748C16.5792 40.0748 16.2965 39.2854 18.4602 41.1235C19.3084 41.8437 19.747 42.4775 19.972 42.9846Z" fill="#F5CF24"/>
<path d="M17.0749 45.2957L16.6537 45.4628C16.6537 45.4628 14.8593 47.0531 12.8397 48.7529C10.7106 50.5449 8.3391 52.4579 7.56591 52.7517C6.04839 53.3279 3.30762 52.7517 3.30762 52.7517C3.30762 52.7517 3.75191 49.6633 4.63473 48.1191C4.76167 47.9002 4.89438 47.71 5.03863 47.566C5.43676 47.1684 6.63116 46.4251 8.02751 45.6242C10.699 44.0915 14.1034 42.3398 14.1034 42.3398C14.4034 42.4954 14.8535 42.8123 15.5747 43.4289C16.4518 44.1722 16.8788 44.806 17.0749 45.2957Z" fill="#C67B7B"/>
<path d="M43.1213 18.7559V25.6241C43.1213 25.6241 42.5443 29.1274 40.2363 30.856C38.9438 31.824 36.5723 32.2504 34.7316 32.4348C33.2776 32.5846 32.1582 32.5846 32.1582 32.5846" stroke="#4F4131" stroke-linecap="round" stroke-linejoin="round"/>
<path d="M26.9652 24.5178C26.9652 24.5178 25.8285 23.9416 25.2457 24.5178C25.2226 24.5409 25.1938 24.5697 25.1707 24.6042C24.611 25.2957 24.1032 27.4218 24.6572 27.975C25.2111 28.5281 26.3882 29.7036 27.5422 29.1274C28.6962 28.5512 28.6962 31.4322 28.6962 31.4322L27.8884 32.2389L26.9652 33.1608" stroke="#4F4131" stroke-linecap="round" stroke-linejoin="round"/>
<path d="M36.7736 14.1447C37.9276 14.7209 37.9276 19.9067 37.9276 19.9067L39.6586 18.1781L40.074 19.9067L42.9937 18.495L44.8516 17.6019C44.8516 17.6019 45.2267 16.8183 45.169 15.7811C45.1401 15.2798 45.0132 14.7094 44.6901 14.1447C43.6976 12.4161 40.8126 10.1113 39.0816 10.1113H34.4251C34.3905 10.1113 34.3559 10.1171 34.3213 10.1229C33.8193 10.2496 33.3115 11.2637 33.3115 11.2637" stroke="#4F4131" stroke-linecap="round" stroke-linejoin="round"/>
<path d="M33.8897 10.1123C33.8897 10.1123 33.3127 9.25374 32.1587 9.39203C31.0047 9.53608 26.9656 10.6885 25.8116 11.8409C24.6576 12.9933 22.3496 17.0267 22.3496 18.1791C22.3496 19.2565 23.6998 22.9269 24.6634 24.0678C24.7269 24.1427 24.7903 24.2061 24.848 24.2579" stroke="#4F4131" stroke-linecap="round" stroke-linejoin="round"/>
<path d="M35.0425 14.7207C33.8885 15.2969 33.3115 20.5749 33.3115 20.5749C33.3115 20.5749 31.5805 20.4827 29.8495 21.0589C28.9609 21.3527 27.7665 21.347 26.8202 21.2663C26.7337 21.2606 26.6471 21.249 26.5663 21.2433C25.7932 21.1684 25.245 21.0589 25.245 21.0589C25.245 21.0589 24.0795 18.7541 24.6565 17.0255" stroke="#4F4131" stroke-linecap="round" stroke-linejoin="round"/>
<path d="M26.5613 24.0053C26.5613 24.0053 26.5498 23.9995 26.5498 23.9938C26.5498 23.8901 28.1193 23.3657 28.1193 23.3657L26.5613 21.3145" stroke="#4F4131" stroke-linecap="round" stroke-linejoin="round"/>
<path d="M39.2444 23.7617C39.2444 23.7617 39.6599 25.6689 38.5059 26.2451" stroke="#4F4131" stroke-linecap="round" stroke-linejoin="round"/>
<path d="M38.9137 27.9285C37.927 27.9746 35.042 27.3984 34.465 27.9746C33.888 28.5508 33.888 29.9107 34.465 30.3831C35.042 30.8556 36.1729 31.5759 36.473 31.2129C36.773 30.8556 37.927 30.8383 38.504 29.6975C39.081 28.5508 38.9137 27.9285 38.9137 27.9285Z" stroke="#4F4131" stroke-linecap="round" stroke-linejoin="round"/>
<path d="M16.5791 39.4986V37.3033V32.5842L18.8006 29.0291L19.4641 27.9746" stroke="#4F4131" stroke-linecap="round" stroke-linejoin="round"/>
<path d="M18.4659 32.5848C18.3621 32.5848 19.3026 30.8851 19.9488 29.7327C20.2777 29.1507 20.5316 28.707 20.5316 28.707" stroke="#4F4131" stroke-linecap="round" stroke-linejoin="round"/>
<path d="M19.8389 33.7372L21.2006 30.4932L21.6103 29.5137" stroke="#4F4131" stroke-linecap="round" stroke-linejoin="round"/>
<path d="M21.6104 34.2553L22.7586 31.4377L23.0817 30.6426" stroke="#4F4131" stroke-linecap="round" stroke-linejoin="round"/>
<path d="M24.501 31.6211C24.501 31.6211 24.3279 31.8689 24.0798 32.2434C23.8086 32.6583 23.4451 33.2344 23.122 33.8222C22.7008 34.6 22.3488 35.4067 22.3488 35.9195C22.3488 37.1929 22.9258 39.054 22.3488 40.1373C21.7718 41.2263 20.5312 42.9837 20.5312 42.9837" stroke="#4F4131" stroke-linecap="round" stroke-linejoin="round"/>
<path d="M17.1562 46.413C17.1562 46.413 17.1793 46.3726 17.1966 46.2862C17.237 46.1133 17.2659 45.7734 17.0754 45.2951C16.8793 44.8054 16.4523 44.1716 15.5752 43.4283C14.854 42.8117 14.4039 42.4948 14.1039 42.3392C13.5038 42.0281 13.5038 42.3796 13.1172 42.3796L16.0022 40.0748C16.5792 40.0748 16.2965 39.2854 18.4602 41.1235C19.3084 41.8437 19.747 42.4775 19.972 42.9846C20.324 43.7625 20.1509 44.2349 20.1509 44.2349L17.2139 46.292" stroke="#4F4131" stroke-linecap="round" stroke-linejoin="round"/>
<path d="M14.1034 42.3398C14.1034 42.3398 10.699 44.0915 8.02751 45.6242C6.63116 46.4251 5.43676 47.1684 5.03863 47.566C4.89438 47.71 4.76167 47.9002 4.63473 48.1191C3.75191 49.6633 3.30762 52.7517 3.30762 52.7517C3.30762 52.7517 6.04839 53.3279 7.56591 52.7517C8.3391 52.4579 10.7106 50.5449 12.8397 48.7529C14.8592 47.0531 16.6537 45.4628 16.6537 45.4628" stroke="#4F4131" stroke-linecap="round" stroke-linejoin="round"/>
<path d="M6.77051 59.0889C7.92452 58.5127 9.98442 54.4333 9.98442 54.4333L12.8406 48.752" stroke="#4F4131" stroke-linecap="round" stroke-linejoin="round"/>
<path d="M3.88502 48.1426C3.88502 48.1426 1 51.5998 1 53.3284C1 55.057 5.61604 63.1065 6.77005 63.118C7.22588 63.118 9.18192 61.9771 11.4265 60.479C14.9173 58.1569 19.1122 54.9821 19.4641 53.9218C20.0412 52.176 19.8392 49.5082 19.8392 49.5082" stroke="#4F4131" stroke-linecap="round" stroke-linejoin="round"/>
<path d="M16.1115 37.3027C15.4249 37.7695 11.7955 40.3162 10.4396 41.6357C9.07784 42.9552 7.92383 45.26 7.92383 45.26" stroke="#4F4131" stroke-linecap="round" stroke-linejoin="round"/>
<path d="M9.6543 74.6472L11.4257 60.4785" stroke="#4F4131" stroke-linecap="round" stroke-linejoin="round"/>
<path d="M26.9359 46.4141C26.9647 46.9903 26.7282 56.8548 26.5608 58.2607C26.3877 59.6666 25.7588 63.1181 25.7588 63.1181" stroke="#4F4131" stroke-linecap="round" stroke-linejoin="round"/>
<path d="M25.7598 67.0879L24.502 76.284" stroke="#4F4131" stroke-linecap="round" stroke-linejoin="round"/>
<path d="M23.082 36.6348C23.082 36.6348 26.6364 37.7699 27.3807 39.4985C28.1193 41.2271 28.0443 42.3391 28.0443 42.3391" stroke="#4F4131" stroke-linecap="round" stroke-linejoin="round"/>
<path d="M34.0391 33.3786C34.2639 32.9583 34.5004 32.6473 34.7425 32.5897C34.7656 32.584 34.7944 32.584 34.8175 32.584" stroke="#4F4131" stroke-linecap="round" stroke-linejoin="round"/>
<path d="M32.7354 36.0409C32.8969 35.8796 33.07 35.5339 33.2547 35.1248C33.497 34.5659 33.7566 33.8917 34.0336 33.3789" stroke="#4F4131" stroke-linecap="round" stroke-linejoin="round"/>
<path d="M33.7793 35.1601C33.8889 34.8893 35.6199 41.8036 35.6199 43.5322C35.6199 45.2608 34.3044 67.5597 34.3044 67.5597C34.3044 67.5597 34.1947 70.5502 34.2928 73.0394C34.3563 74.6354 34.5063 76.0241 34.8179 76.2833C35.2622 76.6579 36.7163 76.2834 37.9106 75.88C38.8627 75.5631 39.659 75.2231 39.659 75.2231L40.236 72.9184L43.121 70.7634L40.6341 54.238L40.236 51.599C40.236 51.599 39.659 51.599 39.659 51.0228" stroke="#4F4131" stroke-linecap="round" stroke-linejoin="round"/>
<path d="M36.7734 51.5977C36.7734 51.5977 38.9718 71.2864 39.318 72.675" stroke="#4F4131" stroke-linecap="round" stroke-linejoin="round"/>
<path d="M34.0322 33.3789C36.196 33.7419 39.6522 38.3457 39.6522 38.3457L51.1923 44.6839C51.1923 44.6839 51.2212 45.1218 51.2616 45.8306C51.3308 47.1904 51.4405 49.5297 51.4462 51.5983C51.452 53.2405 51.3885 54.7155 51.1923 55.3897C50.6153 57.3603 50.0383 56.7841 50.0383 56.7841L40.6274 54.2373" stroke="#4F4131" stroke-linecap="round" stroke-linejoin="round"/>
<path d="M62.8086 45.2617C62.5836 45.2617 61.1007 45.3309 59.2658 45.4231C55.8673 45.5902 51.2686 45.8322 51.2686 45.8322" stroke="#4F4131" stroke-linecap="round" stroke-linejoin="round"/>
<path d="M63.0279 47.6758C63.0279 47.6758 62.1797 48.1367 60.9738 48.7475C58.6715 49.9114 55.0537 51.5997 53.5304 51.5997H51.2686" stroke="#4F4131" stroke-linecap="round" stroke-linejoin="round"/>
<path d="M70.0271 39.9082C70.2406 40.6515 67.7422 41.9595 67.7422 41.9595" stroke="#4F4131" stroke-linecap="round" stroke-linejoin="round"/>
<path d="M71.2041 42.3398C70.8175 44.685 68.2613 45.8316 68.2613 45.8316H67.1016" stroke="#4F4131" stroke-linecap="round" stroke-linejoin="round"/>
<path d="M68.8847 47.1445C68.2673 47.496 67.7422 47.6746 67.7422 47.6746" stroke="#4F4131" stroke-linecap="round" stroke-linejoin="round"/>
<path d="M70.8582 44.084C71.1929 45.5302 69.9119 46.5616 68.8906 47.1378" stroke="#4F4131" stroke-linecap="round" stroke-linejoin="round"/>
<path d="M67.1016 26.6328L67.742 41.2798" stroke="#4F4131" stroke-linecap="round" stroke-linejoin="round"/>
<path d="M67.4244 48.1419V49.6342V52.521L65.1684 53.9211L64.851 48.0439L64.5625 42.668" stroke="#4F4131" stroke-linecap="round" stroke-linejoin="round"/>
<path d="M64.563 40.3917L64.4707 27.3984" stroke="#4F4131" stroke-linecap="round" stroke-linejoin="round"/>
<path d="M78.8954 1.46875C78.8954 1.46875 78.7857 1.4918 78.578 1.52637C77.2913 1.76837 72.2425 2.72486 66.7437 3.83692C65.5146 4.07893 64.2625 4.33246 63.0278 4.59174C56.6115 5.917 50.5702 7.28259 50.0451 7.80693C48.8911 8.95933 49.5028 8.67123 49.5028 8.67123C49.5028 8.67123 49.6355 11.7481 49.8143 15.5453C50.0567 20.4602 50.3856 26.5737 50.6337 28.7344C50.6856 29.1608 50.7376 29.4374 50.7779 29.5123" stroke="#4F4131" stroke-linecap="round" stroke-linejoin="round"/>
<path d="M54.9039 28.9375L52.5439 29.5137" stroke="#4F4131" stroke-linecap="round" stroke-linejoin="round"/>
<path d="M78.8963 23.0781L78.5559 23.1588L64.2866 26.6448L54.916 28.9381" stroke="#4F4131" stroke-linecap="round" stroke-linejoin="round"/>
<path d="M80.6268 2.62109C80.6268 2.62109 80.621 2.67295 80.6153 2.77091C80.5287 3.79078 80.0498 9.68528 80.0498 11.2641C80.0498 12.6758 80.4364 19.3769 80.5749 21.7912C80.6095 22.3386 80.6268 22.6613 80.6268 22.6613" stroke="#4F4131" stroke-linecap="round" stroke-linejoin="round"/>
<path d="M66.7433 3.83187C66.7779 2.62185 66.3567 1.12374 65.9931 1.0085C65.6239 0.893259 63.0273 1.98804 63.0273 1.98804V4.58669" stroke="#4F4131" stroke-linecap="round" stroke-linejoin="round"/>
<path d="M30.4736 74.6467L34.2934 73.0391" stroke="#4F4131" stroke-linecap="round" stroke-linejoin="round"/>
<path d="M27.254 118.172C26.5789 118.783 25.8403 119.399 25.1306 119.964C23.3592 121.37 21.7725 122.47 21.7725 122.47" stroke="#4F4131" stroke-linecap="round" stroke-linejoin="round"/>
<path d="M31.0044 76.2832C31.0044 76.2832 32.7355 92.5089 32.7355 94.2375C32.7355 95.9661 31.5814 97.7524 31.8699 98.2997C32.1584 98.8471 30.4274 112.676 29.8504 114.981C29.6427 115.799 28.5637 116.986 27.2539 118.167" stroke="#4F4131" stroke-linecap="round" stroke-linejoin="round"/>
<path d="M14.2715 77.5273C15.2582 80.973 18.6509 87.824 19.6145 89.7427C19.7819 90.0712 19.8742 90.2556 19.8742 90.2556" stroke="#4F4131" stroke-linecap="round" stroke-linejoin="round"/>
<path d="M18.3104 81.5605C18.7316 82.8282 19.2855 86.8789 19.6144 89.7426C19.7356 90.7912 19.8279 91.6786 19.8741 92.2202C20.0414 94.2369 19.1297 96.9796 19.8741 98.2012C20.6184 99.4227 19.7529 101.209 19.8971 102.909C20.0414 104.608 13.6943 113.251 13.6943 114.98C13.6943 116.317 14.0405 120.419 14.7329 122.471C14.9349 123.07 15.1657 123.49 15.4253 123.623" stroke="#4F4131" stroke-linecap="round" stroke-linejoin="round"/>
<path d="M22.8453 124.078C25.2341 126.504 28.6962 132.266 29.8502 132.266C31.0042 132.266 28.6962 133.418 28.6962 133.418C28.6962 133.418 24.9168 133.995 24.5013 133.418C24.0801 132.842 16.5791 127.656 14.8481 127.08C13.117 126.504 13.1632 125.352 13.1632 125.352L14.7327 122.471" stroke="#4F4131" stroke-linecap="round" stroke-linejoin="round"/>
<path d="M38.0497 76.2832C39.0825 80.4088 42.5445 92.8374 43.1215 95.5513C43.6985 98.2709 44.2755 106.436 43.1215 108.4C41.9675 110.371 40.8135 110.371 40.2365 111.523C39.6595 112.676 36.8264 119.763 35.3608 119.965C35.0665 120.005 34.6684 120.063 34.2126 120.126C32.3892 120.374 29.6196 120.743 28.6964 120.743C27.577 120.743 27.2712 118.328 27.2539 118.173" stroke="#4F4131" stroke-linecap="round" stroke-linejoin="round"/>
<path d="M34.2933 120.743C35.6204 121.895 40.2364 125.352 41.9674 125.928C43.6985 126.505 39.7806 128.072 39.7806 128.072C39.7806 128.072 41.0442 129.495 34.2933 127.133C27.5423 124.776 26.4229 123.624 26.4229 123.624L25.1305 119.965C25.1305 119.965 23.6995 122.708 22.8455 124.079C22.6378 124.413 22.4647 124.661 22.3493 124.776C21.7723 125.352 18.8873 125.352 18.8873 125.352L17.1562 123.624" stroke="#4F4131" stroke-linecap="round" stroke-linejoin="round"/>
<path d="M34.6332 22.6624C34.4658 22.2129 33.8888 21.6367 33.3118 21.6367C32.7348 21.6367 31.6328 22.7891 33.0522 23.0772C34.4658 23.3653 34.6332 22.6624 34.6332 22.6624Z" stroke="#4F4131" stroke-linecap="round" stroke-linejoin="round"/>
<path d="M39.4518 22.4657C39.8961 22.6501 40.7097 22.6155 41.102 22.1892C41.4886 21.7685 41.3906 20.1725 40.2192 21.0195C39.0421 21.8665 39.4518 22.4657 39.4518 22.4657Z" stroke="#4F4131" stroke-linecap="round" stroke-linejoin="round"/>
<path d="M59.2549 45.122L62.163 43.5317C62.163 42.9555 61.586 41.2269 62.74 40.6507C63.2074 40.4202 63.8825 40.3741 64.5633 40.4087C65.5615 40.449 66.5655 40.6507 66.8598 40.6507C67.356 40.6507 66.9406 41.4689 66.8598 41.636C66.779 41.8031 64.5633 42.6674 64.5633 42.6674L64.0613 43.5317" stroke="#4F4131" stroke-linecap="round" stroke-linejoin="round"/>
<path d="M27.8885 32.2383L23.7687 33.7364C25.2343 33.7364 31.0043 37.1936 31.0043 38.346V54.7273C31.0043 54.7273 30.56 70.0772 30.058 74.6061C29.9888 75.2342 29.9195 75.6606 29.8503 75.7989C29.758 75.9775 29.5502 76.1619 29.256 76.3463C27.6865 77.3316 23.7687 78.265 23.7687 78.265V76.9455C23.7687 76.9455 17.7159 77.3431 14.2942 77.1587C13.5615 77.1184 12.9441 77.055 12.5402 76.9513C11.3746 76.6574 10.5033 76.3693 9.92632 76.1561C9.36086 75.9372 9.07812 75.7989 9.07812 75.7989" stroke="#4F4131" stroke-linecap="round" stroke-linejoin="round"/>
<path d="M70.909 41.5742C70.3204 42.9398 67.7412 44.0864 67.7412 44.0864" stroke="#4F4131" stroke-linecap="round" stroke-linejoin="round"/>
</svg>
