<svg width="60" height="160" viewBox="0 0 60 160" fill="none" xmlns="http://www.w3.org/2000/svg">
<path d="M14.654 67.7107L16.2855 68.9245L16.4487 69.0551C16.8272 68.5982 17.1926 68.2132 17.5059 67.9522L17.5255 66.9798C16.6771 66.9472 16.1811 66.9406 16.1811 66.9406L16.416 64.7479C15.8156 64.8654 15.4502 64.9502 15.4502 64.9502C15.4502 64.9502 14.1907 64.2845 13.525 62.9532C12.8659 61.6284 14.8563 56.9819 14.6475 56.6034C14.4778 56.2706 16.7293 49.5814 17.3493 47.7737L16.9055 47.6954L17.5059 41.2281L18.7197 40.8365C16.5922 35.446 14.654 30.4993 14.654 30.4993L14.0406 30.2383L13.636 31.178C13.636 31.178 9.55066 32.4376 8.88501 34.4345C8.22588 36.4249 3.57936 51.0171 3.57936 51.6828C3.57936 52.3484 0.923264 53.0076 0.923264 53.0076L2.79623 56.3293C2.79623 56.3293 1.58892 57.8368 0.923264 59.0702C0.25761 60.3037 0.923264 62.9532 0.923264 62.9532L7.08383 65.0938L13.0812 67.1756L14.6475 67.7237L14.654 67.7107Z" fill="#C7B96A"/>
<path d="M14.2035 88.0296L13.6292 92.0626L13.4008 92.03L11.4299 94.4055L10.934 93.0285L10.5359 93.1003L9.78538 88.8257L9.63528 87.9708H9.43298L8.3366 87.4944L7.47517 85.876C7.41644 86.1435 5.5761 94.8101 5.73272 95.7629C5.89587 96.7287 0.929568 112.045 2.92 113.37C4.1991 114.225 10.4967 113.337 14.843 112.587C17.2642 112.169 19.085 111.797 19.085 111.797C19.085 111.797 18.1844 99.4436 17.5187 97.3487C16.8596 95.2539 16.8596 95.4627 16.8596 95.4627C16.8596 95.4627 16.1939 86.1762 14.8692 84.2445L14.1774 84.1074C14.0077 84.9623 13.7467 85.8042 13.577 86.3197L13.7401 87.9708L14.2035 88.0361V88.0296Z" fill="#F5CF24"/>
<path d="M13.571 86.3158C13.7407 85.8002 14.0017 84.9583 14.1714 84.1034C14.3802 83.105 14.4716 82.0869 14.1975 81.5322C13.9887 81.121 13.6819 80.6446 13.3556 80.1878C12.6443 79.1828 11.8416 78.2561 11.8416 78.2561L12.1483 75.4956L13.0881 67.1619L7.09066 65.0801L8.25229 75.2933L7.97167 78.8826C7.41696 81.245 7.08413 85.1411 7.08413 85.1411L7.46917 85.8589L8.3306 87.4839L9.42697 87.9603H9.62928L9.77938 88.8152L12.1744 87.3925L13.1011 86.8313H13.3948C13.3948 86.8313 13.4666 86.6355 13.571 86.3092V86.3158Z" fill="#C7B96A"/>
<path d="M14.1389 153.682C12.1811 152.716 10.5953 151.881 10.5953 151.881L10.2037 152.638C10.2037 152.638 11.5481 153.832 14.2042 155.053C16.8603 156.273 20.8411 159.138 24.0585 158.988C27.2758 158.838 27.2236 157.63 27.2236 157.63V155.053L26.8385 154.87C25.4942 156.645 22.5314 157.284 19.8427 156.279C18.3612 155.718 16.0706 154.635 14.1454 153.676L14.1389 153.682Z" fill="#C7B96A"/>
<path d="M11.8673 147.73L10.5882 151.881C10.5882 151.881 12.174 152.71 14.1318 153.682C13.9295 153.447 13.7076 153.108 13.5249 152.645C13.3487 152.22 13.1986 151.692 13.0942 151.033C12.9767 150.269 13.0028 149.329 13.1268 148.337L11.8608 147.73H11.8673Z" fill="#C7B96A"/>
<path d="M30.2646 84.2405C33.2797 84.7887 35.5246 85.1411 35.5246 85.1411L35.7791 83.105C36.2098 83.1246 39.1661 83.2159 41.6787 82.9288C43.6626 82.7004 45.3724 82.2305 45.3789 81.3038C45.3789 79.1306 41.5155 69.2372 41.398 68.9239C39.6947 67.7819 22.5052 67.1358 17.5258 66.9727L17.5063 67.945C17.193 68.2061 16.8276 68.5911 16.4491 69.0479C14.8567 70.9666 12.8989 74.2165 12.1419 75.4891L11.8352 78.2496C11.8352 78.2496 12.6379 79.1763 13.3492 80.1813L14.8567 80.1944C16.0771 81.4147 23.6342 83.0071 29.2596 84.0578C29.6055 84.123 29.9383 84.1818 30.2646 84.2405Z" fill="#C7B96A"/>
<path d="M22.9557 2.98545C21.3568 2.25453 18.6746 1.17774 17.5065 0.903647C16.3252 0.623028 18.6616 3.55321 19.1836 4.19276L18.0416 5.32176C17.513 5.48491 17.4412 5.86342 16.9061 6.43771C16.1817 7.22084 16.8473 8.88497 14.1912 9.70725C11.5351 10.5295 11.5351 11.8608 12.2008 12.5265C12.8665 13.1856 15.516 14.5169 15.516 14.5169H16.9061C16.9061 14.5169 16.8865 14.0144 16.9648 13.2705L17.5065 13.3227H21.5395L23.5691 7.79513C22.5968 7.4884 21.9507 6.45077 20.8282 5.89605C19.014 4.98894 22.91 4.34939 25.9707 4.32328L22.9557 2.97892V2.98545Z" fill="#C7B96A"/>
<path d="M13.1341 148.33C13.0166 149.322 12.984 150.262 13.1014 151.025C13.1993 151.684 13.3494 152.213 13.5322 152.637C13.5322 152.637 14.8635 151.175 16.9126 150.183C16.9322 150.183 16.9453 150.164 16.9648 150.157L13.1341 148.33Z" fill="#C7B96A"/>
<path d="M13.1333 148.332L16.9641 150.159C18.9937 149.245 20.8275 152.495 20.5534 151.027C20.4164 150.296 21.2713 149.8 22.1719 149.474C21.6759 148.919 21.069 148.299 20.3707 147.725C18.5826 146.263 18.178 143.874 19.0851 142.217V141.114L14.7518 140.592L14.5625 141.088L14.8693 141.205C14.3798 142.667 13.4466 145.708 13.1399 148.332H13.1333Z" fill="#C7B96A"/>
<path d="M14.7384 140.598L19.0717 141.12L19.8287 141.212C19.8287 141.212 23.4833 127.964 24.7558 123.259C26.0349 118.553 29.448 88.8273 29.2262 84.246L29.2588 84.0698C23.6334 83.0257 16.0762 81.4333 14.8559 80.2064L13.3483 80.1934C13.6747 80.6502 13.9814 81.1266 14.1902 81.5377C14.4708 82.0924 14.3729 83.1105 14.1641 84.109L14.8559 84.246C16.1806 86.1777 16.8463 95.4642 16.8463 95.4642C16.8463 95.4642 16.8463 95.2489 17.5054 97.3503C18.1711 99.4451 19.0717 111.799 19.0717 111.799C19.0717 111.799 17.2574 112.171 14.8298 112.589L14.8559 112.732C16.1806 115.408 14.1902 140.539 14.1902 140.539L14.7384 140.605V140.598Z" fill="#C7B96A"/>
<path d="M24.7169 63.1758C27.2424 63.9133 30.3684 64.9379 30.8579 64.9379L30.9492 64.8791C29.2394 62.2687 24.6973 55.4033 24.1491 54.32C23.7967 53.6217 21.1406 46.9391 18.726 40.8242L17.5121 41.2158L16.9117 47.6831L17.3555 47.7614C16.7355 49.5756 14.4841 56.2583 14.6537 56.5911C14.8626 56.9696 12.8721 61.6161 13.5313 62.9409C14.1969 64.2722 15.4564 64.9379 15.4564 64.9379C15.4564 64.9379 15.8219 64.853 16.4223 64.7356C18.5694 64.2983 23.6335 63.3129 24.5994 63.5609L24.7103 63.1758H24.7169Z" fill="#C7B96A"/>
<path d="M19.138 28.0849V28.0719C17.389 28.3525 14.6546 28.7963 14.6546 28.7963L14.0412 30.232L14.6546 30.493C14.6546 30.493 16.5994 35.4332 18.7204 40.8302C21.135 46.9386 23.7911 53.6213 24.1435 54.3261C24.6917 55.4159 29.2338 62.2813 30.9436 64.8852C31.3221 65.4595 31.5701 65.8314 31.5897 65.8771C31.7398 66.1512 36.7517 65.603 37.4631 64.9439L38.6639 65.2506L38.7422 64.9439C38.7422 64.9439 30.1213 56.323 28.79 53.7518C27.9547 52.1333 24.8809 42.5858 22.7339 35.7856C21.4809 31.8243 20.5476 28.7963 20.5476 28.7963L20.4693 27.9609L19.138 28.0849Z" fill="#C7B96A"/>
<path d="M13.532 152.637C13.7147 153.101 13.9366 153.44 14.1389 153.675C16.0641 154.634 18.3547 155.718 19.8361 156.279C22.5249 157.29 25.4877 156.644 26.832 154.869L23.4124 153.238V154.249L22.5444 152.827L16.9647 150.164C16.9647 150.164 16.9321 150.184 16.9125 150.19C14.8633 151.182 13.532 152.644 13.532 152.644V152.637Z" fill="#C7B96A"/>
<path d="M28.4295 27.1271H30.1133C30.1133 27.1271 30.7724 27.1271 32.1037 25.7958C33.435 24.4645 36.0846 13.8597 35.4189 10.538C34.7598 7.22275 30.7724 5.23231 28.7819 4.56666C28.2207 4.38393 27.1635 4.30562 25.9692 4.3252C22.9085 4.35783 19.0125 4.99085 20.8267 5.89797C21.9492 6.45921 22.5953 7.49032 23.5677 7.79704L21.5381 13.3246H17.505L16.9633 13.2724C16.885 14.0163 16.9046 14.5188 16.9046 14.5188H15.5145C15.5145 14.5188 14.1898 17.1684 14.1898 18.4997C14.1898 19.831 15.5145 19.8245 17.505 20.4445V23.1462C18.1706 25.1367 19.5019 25.7958 22.1515 26.4615L22.0536 27.7667V27.8058H22.0406L20.4678 27.9559L20.5461 28.7912C20.5461 28.7912 21.4793 31.8193 22.7323 35.7806C23.9657 37.1446 32.1102 36.4071 33.4024 35.7806H33.8527V31.1667H33.4024C33.4024 31.1667 32.7759 31.1015 31.5947 31.1667C30.42 31.2255 28.7885 29.111 28.3251 27.8515L28.4361 27.1206L28.4295 27.1271Z" fill="#C7B96A"/>
<path d="M24.5989 63.5621C23.633 63.3206 18.5688 64.2995 16.4218 64.7368L16.1868 66.9295C16.1868 66.9295 16.6828 66.9426 17.5312 66.9687C22.5106 67.1318 39.7001 67.7844 41.4034 68.92C43.3808 70.2317 41.4034 65.9441 41.4034 65.9441L40.6529 65.7548L38.6755 65.2523L37.4747 64.9456C36.7634 65.6048 31.7514 66.1529 31.6013 65.8788C31.5752 65.8332 31.3337 65.4612 30.9552 64.8869L30.8639 64.9456C30.3744 64.9456 27.2484 63.921 24.7229 63.1836L24.6119 63.5686L24.5989 63.5621Z" fill="#C7B96A"/>
<path d="M22.5363 152.821L23.4043 153.238V151.026C23.4043 151.026 22.9344 150.334 22.1644 149.473C21.2703 149.799 20.4154 150.301 20.5459 151.026C20.8265 152.494 18.9927 149.244 16.9566 150.158L22.5363 152.821Z" fill="#C7B96A"/>
<path d="M22.5363 152.822L23.4043 154.251V153.24L22.5363 152.822Z" fill="#C7B96A"/>
<path d="M23.405 151.034V153.246L26.8246 154.878C26.8638 154.832 26.9029 154.78 26.9355 154.721L25.2518 152.639L23.3984 151.027L23.405 151.034Z" fill="#C7B96A"/>
<path d="M22.7329 35.7858C24.8799 42.5859 27.9537 52.14 28.789 53.752L33.8467 47.3108V35.7793H33.3964C32.1108 36.4058 23.9663 37.1432 22.7263 35.7793L22.7329 35.7858Z" fill="#C7B96A"/>
<path d="M44.2102 63.7283L47.3688 66.7368C47.3688 66.7368 50.684 68.9165 53.3988 67.4155C55.3501 66.3322 55.833 64.1525 55.957 62.4427L55.3958 58.6446H55.3827C55.0825 60.0803 54.7171 61.1832 54.2994 61.5421C52.681 62.9452 50.6905 62.9452 50.6905 62.9452L48.7001 61.6204L48.0279 62.2665C47.0882 61.1375 46.2985 60.0281 46.0114 59.3951C45.7895 58.9056 46.1354 57.5351 46.7097 55.8841L48.0344 56.3148L51.9174 47.6874L52.6744 47.3154C52.6744 47.3154 52.3351 45.4555 52.3873 43.6086L51.4671 43.589C51.304 43.4781 51.1017 43.2236 50.8994 42.9103H48.0344C48.0344 42.9103 43.3879 35.7448 42.2785 34.2177C41.1756 32.6841 39.8378 33.6238 39.8378 33.6238L39.4984 32.1293L37.3513 29.5189C37.3513 29.5189 34.754 28.3769 32.3981 28.7423V28.7228L29.233 29.2579L28.3193 27.8613C28.7892 29.1209 30.4142 31.2353 31.5889 31.1765C32.7701 31.1113 33.3966 31.1765 33.3966 31.1765H33.8469V47.3219L28.7892 53.7631C30.1205 56.3278 38.7414 64.9552 38.7414 64.9552L38.6631 65.262L40.6405 65.7645C40.7775 65.7514 42.7157 65.5426 42.7157 63.7022C42.7157 63.4869 42.6962 63.141 42.6766 62.6972L44.2037 63.7349L44.2102 63.7283Z" fill="#C7B96A"/>
<path d="M49.0392 149.186C48.6085 148.906 45.861 147.242 43.8967 147.809C42.3892 148.24 42.4218 149.741 42.4153 151.098C42.4153 151.666 42.4022 152.208 42.2717 152.639L42.213 152.88C41.7953 152.815 41.2732 152.73 40.6402 152.639C37.2401 152.11 35.4194 151.842 33.8466 149.506C33.07 149.01 32.9525 147.62 33.0961 145.852L31.3145 147.803C31.4385 148.514 33.3963 153.389 33.3963 153.389C33.3963 153.389 37.9906 154.681 41.6844 154.916C45.3781 155.151 51.3494 155.145 52.6742 154.159C53.5748 153.48 53.3203 151.888 53.0592 150.942L52.0346 148.932L51.9172 148.991C51.9172 148.991 50.0246 147.855 49.1044 147.803C48.1843 147.757 50.8991 150.178 50.8991 150.178L49.1044 149.219C49.1044 149.219 49.0718 149.193 49.0522 149.186H49.0392Z" fill="#C7B96A"/>
<path d="M33.7359 138.731C34.9236 138.959 36.8749 139.247 38.0626 138.868L39.4788 136.343L39.7529 136.356C41.0059 127.741 43.2639 86.549 41.6846 82.9336C39.172 83.2273 36.2223 83.1294 35.785 83.1098L35.5305 85.1459C35.5305 85.1459 33.2856 84.787 30.2705 84.2453C31.4452 88.8657 32.7243 138.503 32.7243 138.503C32.7243 138.503 33.1289 138.607 33.7424 138.731H33.7359Z" fill="#C7B96A"/>
<path d="M33.1024 145.852C32.9588 147.62 33.0697 149.01 33.8529 149.513C34.8252 150.133 38.9888 150.648 42.4215 151.105C42.4215 149.748 42.3889 148.247 43.9029 147.816C45.8673 147.255 48.6147 148.912 49.0454 149.193C49.0716 149.206 49.0846 149.219 49.0977 149.226L47.4531 146.674C46.0108 146.191 44.4707 145.597 43.3874 144.945C40.7313 143.339 40.0656 142.563 38.7409 139.861L38.0622 138.875C36.8744 139.254 34.9231 138.973 33.7354 138.738L33.5853 139.828L33.8463 139.861C33.6375 141.89 33.2394 144.064 33.0959 145.858L33.1024 145.852Z" fill="#C7B96A"/>
<path d="M33.8473 149.514C35.4201 151.85 37.2409 152.118 40.6409 152.646C41.274 152.744 41.796 152.822 42.2137 152.888L42.2724 152.646C42.403 152.215 42.4095 151.68 42.416 151.106C38.9833 150.649 34.8197 150.134 33.8473 149.514Z" fill="#C7B96A"/>
<path d="M43.3557 16.5723L42.318 18.6541L47.3692 19.1566V23.8031L47.3365 24.1424L49.1899 24.2991L49.2291 23.8031C49.3531 22.4783 49.2291 17.9558 49.2291 17.9558C49.2291 17.9558 45.2286 16.8398 43.3557 16.5723Z" fill="#C7B96A"/>
<path d="M43.3884 23.8047L44.0475 25.7951L45.3853 25.88L54.2934 26.4151L55.083 26.4608V24.8032L49.19 24.3007L47.3366 24.144L43.3884 23.8047Z" fill="#C7B96A"/>
<path d="M54.228 29.6509L54.2932 29.2529V26.414L45.3852 25.8789L46.7035 37.7367C46.7035 37.7367 47.1211 38.8787 49.2356 39.6358C49.2356 39.6358 50.1296 41.7437 50.8997 42.9053C51.1085 43.2185 51.3043 43.4665 51.4675 43.584L52.3876 43.6036C52.4072 42.8857 52.4855 42.1613 52.6748 41.5544C53.3404 39.4008 55.3309 39.7271 55.3309 38.4023C55.3309 38.1935 55.233 37.9716 55.0763 37.7432L55.9965 37.071C55.3896 35.8702 52.1657 34.0103 51.5653 33.671L53.1512 33.1097C54.365 33.8211 55.9117 34.7217 56.6622 35.1132L57.3213 33.7558L58.6787 33.5796C58.3589 32.0329 57.9021 30.7277 57.3213 30.4406C56.7144 30.1404 55.4353 29.8728 54.2345 29.6509H54.228Z" fill="#C7B96A"/>
<path d="M46.7101 55.893C46.1358 57.5441 45.7899 58.9145 46.0118 59.404C46.2989 60.0305 47.0886 61.1464 48.0283 62.2755L48.7005 61.6294L50.691 62.9542C50.691 62.9542 52.6814 62.9542 54.2998 61.5511C54.7175 61.1856 55.0764 60.0892 55.3832 58.6535C56.2577 54.5421 56.6688 47.6963 56.6688 47.6963L57.3279 46.3715C57.3279 46.3715 59.3184 41.0594 59.3184 39.0689C59.3184 37.953 59.1095 35.571 58.6919 33.5871L57.3344 33.7633L56.6753 35.1207C55.9248 34.7291 54.3782 33.835 53.1643 33.1172L51.5785 33.6784C52.1789 34.0178 55.4027 35.8777 56.0097 37.0785L55.0895 37.7507C55.2526 37.9791 55.344 38.201 55.344 38.4098C55.344 39.7346 53.3536 39.4083 52.6879 41.5619C52.5052 42.1688 52.4204 42.8932 52.4008 43.611C52.3486 45.4579 52.6879 47.3178 52.6879 47.3178L51.9309 47.6898L48.0479 56.3172L46.7231 55.8865L46.7101 55.893Z" fill="#C7B96A"/>
<path d="M47.4467 146.667L49.0913 149.218L50.886 150.184C50.886 150.184 48.1711 147.763 49.0913 147.809C50.0115 147.861 51.904 148.996 51.904 148.996L52.0215 148.938L51.4537 147.809C51.4537 147.809 49.5481 147.358 47.4402 146.66L47.4467 146.667Z" fill="#C7B96A"/>
<path d="M26.0554 27.1271H30.1211C30.1211 27.1271 30.7802 27.1271 32.1115 25.7958C33.4428 24.4645 36.0924 13.8597 35.4267 10.538C34.7676 7.22275 30.7802 5.23231 28.7898 4.56666C28.2285 4.38393 27.1713 4.30562 25.977 4.3252C22.9163 4.35783 19.0203 4.99085 20.8345 5.89797C21.957 6.45921 22.6031 7.49032 23.5755 7.79704C23.7517 7.85577 23.9409 7.8884 24.1432 7.8884" stroke="#4F4131" stroke-linecap="round" stroke-linejoin="round"/>
<path d="M22.1533 26.4597C19.5038 25.7941 18.1724 25.135 17.5068 23.1445" stroke="#4F4131" stroke-linecap="round" stroke-linejoin="round"/>
<path d="M17.5137 20.4413C15.5233 19.8213 14.1985 19.8213 14.1985 18.4965C14.1985 17.1717 15.5233 14.5156 15.5233 14.5156H18.0488" stroke="#4F4131" stroke-linecap="round" stroke-linejoin="round"/>
<path d="M19.8301 6.4375C19.5038 6.55497 18.1725 8.70203 17.5068 10.6142C17.1805 11.5735 17.0304 12.5393 16.9652 13.2768C16.8868 14.0207 16.9064 14.5232 16.9064 14.5232" stroke="#4F4131" stroke-linecap="round" stroke-linejoin="round"/>
<path d="M17.5135 13.329H21.5466L23.5762 7.79492" stroke="#4F4131" stroke-linecap="round" stroke-linejoin="round"/>
<path d="M23.5762 3.27912C23.4 3.18775 23.1911 3.09639 22.9562 2.98545C21.3573 2.25453 18.6751 1.17774 17.507 0.903647C16.3258 0.623028 18.6621 3.55321 19.1842 4.19276C19.2494 4.2776 19.282 4.31676 19.282 4.31676" stroke="#4F4131" stroke-linecap="round" stroke-linejoin="round"/>
<path d="M18.8389 5.23047C18.4865 5.23047 18.2319 5.2631 18.0427 5.32183C17.5141 5.48498 17.4423 5.86349 16.9072 6.43778C16.1828 7.22091 16.8484 8.88504 14.1923 9.70732C11.5362 10.5296 11.5362 11.8609 12.2019 12.5266C12.8676 13.1857 15.5171 14.517 15.5171 14.517" stroke="#4F4131" stroke-linecap="round" stroke-linejoin="round"/>
<path d="M30.3312 15.001C30.8337 14.8052 32.8633 14.0352 32.8633 14.0352" stroke="#4F4131" stroke-linecap="round" stroke-linejoin="round"/>
<path d="M25.9707 14.4727C25.4943 14.4922 23.5495 13.3828 23.5495 13.3828" stroke="#4F4131" stroke-linecap="round" stroke-linejoin="round"/>
<path d="M29.6719 17.4785C29.45 17.8374 30.1156 19.8214 28.7843 19.8214" stroke="#4F4131" stroke-linecap="round" stroke-linejoin="round"/>
<path d="M29.6719 22.3613C28.7843 23.1445 25.3712 22.903 24.7578 22.3613" stroke="#4F4131" stroke-linecap="round" stroke-linejoin="round"/>
<path d="M45.3863 25.88L44.0485 25.7951L43.3894 23.8047L47.3376 24.144L49.191 24.3007L55.084 24.8032V26.4608L54.2943 26.4151L45.3863 25.88Z" stroke="#4F4131" stroke-linecap="round" stroke-linejoin="round"/>
<path d="M45.3865 25.8789L46.7048 37.7367C46.7048 37.7367 47.1224 38.8787 49.2369 39.6358C51.3513 40.3928 52.8262 39.6358 52.8262 39.6358" stroke="#4F4131" stroke-linecap="round" stroke-linejoin="round"/>
<path d="M54.2949 26.459V29.2521" stroke="#4F4131" stroke-linecap="round" stroke-linejoin="round"/>
<path d="M49.23 23.8032C49.354 22.4785 49.23 17.9559 49.23 17.9559C49.23 17.9559 45.2296 16.84 43.3566 16.5724C43.1021 16.5398 42.8802 16.5137 42.7236 16.5137" stroke="#4F4131" stroke-linecap="round" stroke-linejoin="round"/>
<path d="M42.7236 17.4785L42.319 18.6532L47.3701 19.1622V23.8022" stroke="#4F4131" stroke-linecap="round" stroke-linejoin="round"/>
<path d="M51.4686 29.252C51.4686 29.252 52.7999 29.4086 54.2291 29.65C55.4364 29.8719 56.709 30.146 57.3159 30.4397C57.8967 30.7334 58.3535 32.0386 58.6733 33.5787C59.0975 35.5626 59.2998 37.9446 59.2998 39.0606C59.2998 41.051 57.3094 46.3632 57.3094 46.3632" stroke="#4F4131" stroke-linecap="round" stroke-linejoin="round"/>
<path d="M56.6572 47.6875C56.6572 47.6875 56.2461 54.5333 55.3716 58.6447C55.0714 60.0804 54.7059 61.1833 54.2883 61.5422C52.6698 62.9453 50.6794 62.9453 50.6794 62.9453L48.689 61.6206" stroke="#4F4131" stroke-linecap="round" stroke-linejoin="round"/>
<path d="M57.3154 33.7617C55.9906 32.4304 52.2512 30.5444 51.4681 30.4922" stroke="#4F4131" stroke-linecap="round" stroke-linejoin="round"/>
<path d="M56.6572 35.1204C55.9067 34.7289 54.3601 33.8348 53.1462 33.117C52.2 32.5622 51.4625 32.125 51.4625 32.125" stroke="#4F4131" stroke-linecap="round" stroke-linejoin="round"/>
<path d="M55.9912 37.0714C55.3843 35.8706 52.1604 34.0107 51.56 33.6713C51.5013 33.6387 51.4622 33.6191 51.4622 33.6191" stroke="#4F4131" stroke-linecap="round" stroke-linejoin="round"/>
<path d="M51.4693 35.1191C51.4693 35.1191 54.2167 36.5092 55.0717 37.7426C55.2348 37.971 55.3262 38.1929 55.3262 38.4017C55.3262 39.7265 53.3357 39.4002 52.6701 41.5538C52.4874 42.1607 52.4025 42.8851 52.3829 43.603C52.3307 45.4498 52.6701 47.3097 52.6701 47.3097" stroke="#4F4131" stroke-linecap="round" stroke-linejoin="round"/>
<path d="M51.4688 43.5908C51.3056 43.4799 51.1033 43.2254 50.901 42.9121C50.1374 41.7505 49.2369 39.6426 49.2369 39.6426" stroke="#4F4131" stroke-linecap="round" stroke-linejoin="round"/>
<path d="M51.9189 47.6875L48.036 56.3149" stroke="#4F4131" stroke-linecap="round" stroke-linejoin="round"/>
<path d="M50.3525 47.3105C50.3525 47.3105 47.9771 52.2703 46.711 55.8857C46.1367 57.5368 45.7908 58.9073 46.0127 59.3967C46.2999 60.0232 47.0895 61.1392 48.0293 62.2682C49.3997 63.9062 51.0835 65.5769 51.9253 65.8314C53.348 66.2621 54.3008 62.9469 54.3008 62.9469" stroke="#4F4131" stroke-linecap="round" stroke-linejoin="round"/>
<path d="M55.9914 60.7539C55.9914 61.1846 56.0045 61.7785 55.9588 62.4441C55.8348 64.154 55.3519 66.3337 53.4006 67.417C50.6858 68.918 47.3706 66.7383 47.3706 66.7383L44.212 63.7298L43.3897 62.9466" stroke="#4F4131" stroke-linecap="round" stroke-linejoin="round"/>
<path d="M28.3212 27.8555C28.7911 29.115 30.416 31.2294 31.5907 31.1707C32.7719 31.1054 33.3984 31.1707 33.3984 31.1707" stroke="#4F4131" stroke-linecap="round" stroke-linejoin="round"/>
<path d="M22.1533 27.125L22.0554 27.7645L22.0424 27.8102L21.7683 29.5135" stroke="#4F4131" stroke-linecap="round" stroke-linejoin="round"/>
<path d="M20.5486 28.7949C20.5486 28.7949 21.4818 31.823 22.7348 35.7843C24.8819 42.5844 27.9556 52.1385 28.791 53.7504C30.1223 56.3152 38.7432 64.9426 38.7432 64.9426" stroke="#4F4131" stroke-linecap="round" stroke-linejoin="round"/>
<path d="M20.5485 27.8575C20.6464 27.8314 20.0199 27.9358 19.1389 28.0729C17.3899 28.3535 14.6555 28.7973 14.6555 28.7973L14.0421 30.233L13.6375 31.1728C13.6375 31.1728 9.55217 32.4323 8.88652 34.4292C8.22739 36.4197 3.58087 51.0119 3.58087 51.6775C3.58087 52.3432 0.924775 53.0023 0.924775 53.0023L2.79774 56.324C2.79774 56.324 1.59043 57.8316 0.924775 59.065C0.259121 60.2984 0.924775 62.948 0.924775 62.948L7.08534 65.0885L13.0828 67.1703L14.649 67.7185L15.3342 67.9534" stroke="#4F4131" stroke-linecap="round" stroke-linejoin="round"/>
<path d="M8.33099 52.002L13.5322 57.6404" stroke="#4F4131" stroke-linecap="round" stroke-linejoin="round"/>
<path d="M5.73363 55.3184L13.5322 60.7545" stroke="#4F4131" stroke-linecap="round" stroke-linejoin="round"/>
<path d="M17.5137 41.2227L16.9133 47.6899" stroke="#4F4131" stroke-linecap="round" stroke-linejoin="round"/>
<path d="M30.8594 64.9441C30.3699 64.9441 27.244 63.9195 24.7184 63.1821C23.4328 62.8101 22.3103 62.5034 21.7752 62.4512" stroke="#4F4131" stroke-linecap="round" stroke-linejoin="round"/>
<path d="M24.7637 63.6987C24.7637 63.6399 24.7115 63.6008 24.6005 63.5682C23.6347 63.3267 18.5705 64.3056 16.4234 64.7428C15.823 64.8603 15.4576 64.9451 15.4576 64.9451C15.4576 64.9451 14.198 64.2795 13.5324 62.9482C12.8733 61.6234 14.8637 56.9769 14.6549 56.5984C14.4852 56.2655 16.7367 49.5764 17.3566 47.7687C17.4545 47.4815 17.5133 47.3184 17.5133 47.3184" stroke="#4F4131" stroke-linecap="round" stroke-linejoin="round"/>
<path d="M40.6426 65.7523L38.6652 65.2498L37.4644 64.9431C36.7531 65.6022 31.7411 66.1504 31.591 65.8763C31.5649 65.8306 31.3234 65.4586 30.9449 64.8843C29.2351 62.2739 24.693 55.4085 24.1448 54.3252C23.7924 53.6269 21.1363 46.9443 18.7217 40.8294C16.5942 35.4389 14.656 30.4922 14.656 30.4922" stroke="#4F4131" stroke-linecap="round" stroke-linejoin="round"/>
<path d="M41.4053 68.9256C43.3827 70.2308 41.4053 65.9432 41.4053 65.9432L40.6548 65.7539" stroke="#4F4131" stroke-linecap="round" stroke-linejoin="round"/>
<path d="M16.4246 64.7422L16.1897 66.9349C16.1897 66.9349 16.6857 66.948 17.5341 66.9741C22.5134 67.1372 39.703 67.7898 41.4062 68.9254" stroke="#4F4131" stroke-linecap="round" stroke-linejoin="round"/>
<path d="M41.5294 49.8301C41.5294 49.8301 42.4691 59.2275 42.6845 62.6863C42.7106 63.1236 42.7236 63.476 42.7236 63.6913C42.7236 65.5317 40.7854 65.7405 40.6484 65.7536" stroke="#4F4131" stroke-linecap="round" stroke-linejoin="round"/>
<path d="M33.8486 29.5137V31.1713V35.7852V47.3101L28.791 53.7513" stroke="#4F4131" stroke-linecap="round" stroke-linejoin="round"/>
<path d="M30.8603 29.2518C31.3432 28.9777 31.8653 28.821 32.4069 28.7362C34.7628 28.3707 37.3602 29.5128 37.3602 29.5128L39.5072 32.1232L39.8466 33.6177C39.8466 33.6177 41.1844 32.6779 42.2873 34.2115C43.3968 35.7451 48.0433 42.9042 48.0433 42.9042H50.9082" stroke="#4F4131" stroke-linecap="round" stroke-linejoin="round"/>
<path d="M48.6953 44.9414C46.7049 45.0393 45.3931 47.9956 45.3866 49.8294" stroke="#4F4131" stroke-linecap="round" stroke-linejoin="round"/>
<path d="M38.7432 33.7617C38.7432 33.7617 38.0775 50.3443 36.0871 53.0004C34.0966 55.6565 32.7196 55.3237 32.7196 55.3237" stroke="#4F4131" stroke-linecap="round" stroke-linejoin="round"/>
<path d="M33.3984 35.7852C32.1128 36.4117 23.9683 37.1491 22.7284 35.7852" stroke="#4F4131" stroke-linecap="round" stroke-linejoin="round"/>
<path d="M41.399 68.918C41.5165 69.2312 45.3864 79.1247 45.3799 81.3044C45.3799 82.2311 43.6635 82.7009 41.6796 82.9293C39.1671 83.223 36.2173 83.1251 35.7801 83.1055H35.7279" stroke="#4F4131" stroke-linecap="round" stroke-linejoin="round"/>
<path d="M37.4121 70.2422L35.7871 83.105L35.5326 85.1411C35.5326 85.1411 33.2877 84.7822 30.2726 84.2405C29.9463 84.1818 29.6135 84.123 29.2676 84.0578C23.6422 83.0136 16.0851 81.4213 14.8647 80.1944" stroke="#4F4131" stroke-linecap="round" stroke-linejoin="round"/>
<path d="M17.5137 67.9453C17.2004 68.2064 16.835 68.5914 16.4565 69.0482C14.8641 70.9669 12.9063 74.2168 12.1493 75.4894C11.9535 75.8287 11.8426 76.0245 11.8426 76.0245" stroke="#4F4131" stroke-linecap="round" stroke-linejoin="round"/>
<path d="M13.0893 67.1621L12.1495 75.4958L11.8428 78.2563C11.8428 78.2563 12.6455 79.183 13.3568 80.188C13.6831 80.6449 13.9899 81.1213 14.1987 81.5324C14.4793 82.0871 14.3814 83.1052 14.1726 84.1037C14.0029 84.9586 13.7419 85.8004 13.5722 86.316C13.4678 86.6423 13.396 86.8381 13.396 86.8381" stroke="#4F4131" stroke-linecap="round" stroke-linejoin="round"/>
<path d="M12.1741 87.3984C12.1938 87.4578 12.207 87.4974 12.207 87.4974" stroke="#4F4131" stroke-linecap="round" stroke-linejoin="round"/>
<path d="M10.9274 83.1367C10.8882 83.4761 11.965 86.7717 12.1738 87.3917" stroke="#4F4131" stroke-linecap="round" stroke-linejoin="round"/>
<path d="M9.6346 84.2402L10.9268 87.4902" stroke="#4F4131" stroke-linecap="round" stroke-linejoin="round"/>
<path d="M8.32956 84.2402L9.63477 87.4902" stroke="#4F4131" stroke-linecap="round" stroke-linejoin="round"/>
<path d="M7.08459 65.0801L8.25274 75.2998L8.33105 76.0307" stroke="#4F4131" stroke-linecap="round" stroke-linejoin="round"/>
<path d="M14.8623 84.2402C16.1871 86.1719 16.8527 95.4585 16.8527 95.4585C16.8527 95.4585 16.8528 95.2431 17.5119 97.3445C18.1775 99.4393 19.0781 111.793 19.0781 111.793C19.0781 111.793 17.2639 112.165 14.8362 112.583C10.4964 113.333 4.19227 114.221 2.91317 113.366C0.922729 112.041 5.89556 96.731 5.72588 95.7587C5.56273 94.7993 7.4096 86.1393 7.46833 85.8717" stroke="#4F4131" stroke-linecap="round" stroke-linejoin="round"/>
<path d="M9.63564 87.9648L9.78575 88.8198L10.5297 93.0943L10.7646 94.406" stroke="#4F4131" stroke-linecap="round" stroke-linejoin="round"/>
<path d="M14.3662 86.8379L14.2031 88.0321L13.6222 92.0652L13.4656 93.2138L13.1002 95.759" stroke="#4F4131" stroke-linecap="round" stroke-linejoin="round"/>
<path d="M8.98294 97.335L11.4237 94.4048L13.3945 92.0293" stroke="#4F4131" stroke-linecap="round" stroke-linejoin="round"/>
<path d="M29.2329 84.2402C29.4547 88.828 26.0351 118.554 24.7625 123.253C23.4834 127.965 19.8354 141.206 19.8354 141.206L19.0784 141.115L14.7451 140.592L14.1969 140.527C14.1969 140.527 16.1873 115.395 14.8626 112.72" stroke="#4F4131" stroke-linecap="round" stroke-linejoin="round"/>
<path d="M30.2639 84.2402C31.4386 88.8672 32.7177 138.504 32.7177 138.504C32.7177 138.504 33.1223 138.609 33.7358 138.733C34.9235 138.961 36.8748 139.248 38.0625 138.87C38.3366 138.785 38.565 138.661 38.7412 138.504" stroke="#4F4131" stroke-linecap="round" stroke-linejoin="round"/>
<path d="M41.6846 82.9277C43.2639 86.5432 41.0059 127.742 39.7529 136.35C39.655 137.022 39.5636 137.498 39.4788 137.74" stroke="#4F4131" stroke-linecap="round" stroke-linejoin="round"/>
<path d="M33.1031 145.857C32.9595 147.619 33.0704 149.009 33.8536 149.512C34.8259 150.132 38.9895 150.648 42.4222 151.104C44.5562 151.385 46.4096 151.639 47.0361 151.881" stroke="#4F4131" stroke-linecap="round" stroke-linejoin="round"/>
<path d="M33.8467 139.854C33.6378 141.883 33.2398 144.056 33.0962 145.851" stroke="#4F4131" stroke-linecap="round" stroke-linejoin="round"/>
<path d="M47.0363 150.184C48.0348 150.51 49.6924 151.874 49.6924 151.874" stroke="#4F4131" stroke-linecap="round" stroke-linejoin="round"/>
<path d="M49.0994 149.225L50.894 150.185C50.894 150.185 48.1792 147.764 49.0994 147.809C50.0196 147.861 51.9121 148.997 51.9121 148.997" stroke="#4F4131" stroke-linecap="round" stroke-linejoin="round"/>
<path d="M48.3673 148.828L49.0391 149.187" stroke="#4F4131" stroke-linecap="round" stroke-linejoin="round"/>
<path d="M38.7411 139.854C40.0658 142.555 40.7315 143.332 43.3876 144.937C44.4709 145.59 46.0045 146.184 47.4533 146.667C49.5612 147.358 51.4668 147.815 51.4668 147.815" stroke="#4F4131" stroke-linecap="round" stroke-linejoin="round"/>
<path d="M14.8633 141.205C14.3738 142.667 13.4406 145.708 13.1339 148.331C13.0164 149.323 12.9838 150.263 13.1013 151.027C13.1991 151.686 13.3492 152.214 13.532 152.639C13.7147 153.102 13.9366 153.441 14.1389 153.676C14.5239 154.14 14.8633 154.244 14.8633 154.244" stroke="#4F4131" stroke-linecap="round" stroke-linejoin="round"/>
<path d="M14.8625 153.402L17.2119 154.929" stroke="#4F4131" stroke-linecap="round" stroke-linejoin="round"/>
<path d="M19.0786 153.402L19.8291 154.929" stroke="#4F4131" stroke-linecap="round" stroke-linejoin="round"/>
<path d="M19.8289 151.881L21.9629 154.929" stroke="#4F4131" stroke-linecap="round" stroke-linejoin="round"/>
<path d="M21.964 151.884L22.5383 152.823L23.4062 154.252V153.241V151.035L25.2596 152.641L26.1406 153.404" stroke="#4F4131" stroke-linecap="round" stroke-linejoin="round"/>
<path d="M19.0785 142.223C18.1779 143.88 18.5825 146.269 20.3641 147.731C21.0559 148.298 21.6694 148.925 22.1653 149.48C22.9354 150.348 23.4053 151.033 23.4053 151.033" stroke="#4F4131" stroke-linecap="round" stroke-linejoin="round"/>
<path d="M42.278 152.637C42.4085 152.207 42.415 151.672 42.4215 151.097C42.4215 149.74 42.3889 148.239 43.9029 147.808C45.8673 147.247 48.6147 148.905 49.0454 149.185C49.0716 149.198 49.0846 149.211 49.0977 149.218L47.4531 146.666L46.0108 144.428" stroke="#4F4131" stroke-linecap="round" stroke-linejoin="round"/>
<path d="M24.0518 148.996C24.0518 148.996 23.0924 149.14 22.1657 149.472C21.2717 149.799 20.4168 150.301 20.5473 151.026C20.8279 152.494 18.9941 149.244 16.958 150.158C16.9384 150.158 16.9253 150.177 16.9058 150.184C14.8566 151.176 13.5253 152.638 13.5253 152.638" stroke="#4F4131" stroke-linecap="round" stroke-linejoin="round"/>
<path d="M53.0596 150.94C52.9422 150.49 52.8248 150.184 52.8248 150.184" stroke="#4F4131" stroke-linecap="round" stroke-linejoin="round"/>
<path d="M31.3213 147.809C31.4453 148.52 33.4031 153.395 33.4031 153.395C33.4031 153.395 37.9975 154.687 41.6912 154.922C45.3849 155.157 51.3562 155.15 52.681 154.165C53.5816 153.486 53.3271 151.894 53.0661 150.948" stroke="#4F4131" stroke-linecap="round" stroke-linejoin="round"/>
<path d="M27.2168 154.249C27.1385 154.412 27.0536 154.568 26.9427 154.719C26.9101 154.771 26.8709 154.823 26.8318 154.875C25.4874 156.65 22.5246 157.29 19.8359 156.285C18.3545 155.724 16.0638 154.64 14.1386 153.681C12.1808 152.715 10.595 151.88 10.595 151.88L11.8741 147.729L12.2135 146.633" stroke="#4F4131" stroke-linecap="round" stroke-linejoin="round"/>
<path d="M27.2167 155.06V157.638C27.2167 157.638 27.269 158.852 24.0516 158.996C20.8343 159.139 16.8534 156.274 14.1973 155.06C11.5412 153.84 10.1969 152.646 10.1969 152.646L10.5884 151.889" stroke="#4F4131" stroke-linecap="round" stroke-linejoin="round"/>
<path d="M33.8472 149.514C35.42 151.85 37.2407 152.118 40.6408 152.646C41.2738 152.744 41.7959 152.822 42.2136 152.888L44.0409 153.175C44.0409 153.175 49.588 154.108 51.4609 152.646" stroke="#4F4131" stroke-linecap="round" stroke-linejoin="round"/>
<path d="M34.502 70.2422L31.3238 81.3038" stroke="#4F4131" stroke-linecap="round" stroke-linejoin="round"/>
<path d="M33.1035 145.858V145.852" stroke="#4F4131" stroke-linecap="round" stroke-linejoin="round"/>
</svg>
