<svg width="33" height="124" viewBox="0 0 33 124" fill="none" xmlns="http://www.w3.org/2000/svg">
<path d="M9.49602 54.0263H9.49001L8.67383 51.1636C10.7443 48.7271 12.9468 43.1338 14.2251 42.6117C15.1613 42.2276 15.9115 40.2471 16.3616 38.6987L16.5236 38.7108L17.7479 39.869C19.0742 40.1391 21.8709 39.611 23.1371 38.7108L23.7373 37.0724L24.0494 36.2202V28.2323L24.5535 26.4439L24.5655 26.42C24.5955 26.3599 24.6795 26.2039 24.7215 26.0178V26.0059H24.7275L26.1438 27.2661H26.1498L26.786 27.8363L26.798 27.8483C29.0605 30.4409 32.3072 39.1969 32.3072 39.1969L30.3508 40.7932L27.5542 43.0678L27.3081 43.0978L27.6502 45.6544L25.7837 54.2903L24.5535 54.0263L19.2062 53.3121C19.2062 53.3121 13.847 56.4568 13.1509 56.7809C12.6527 57.0149 11.3864 57.363 10.4022 57.219C10.0061 57.165 9.65805 57.0269 9.424 56.7809C9.02791 56.3608 9.20195 55.1605 9.49602 54.0263Z" fill="#99B3C1"/>
<path d="M10.3307 60.7535L10.4027 57.2188C11.3869 57.3628 12.6532 57.0147 13.1513 56.7806C13.8475 56.4566 19.2067 53.3119 19.2067 53.3119L24.5539 54.026L25.7842 54.2901L27.6506 45.6541L27.3085 43.0975L27.5546 43.0675L30.3512 40.793L30.5793 42.8155L30.5913 42.8695C31.1434 46.4463 30.9694 54.17 29.0609 57.7229L29.379 61.2937V61.3117C30.1112 64.2523 30.1592 76.2611 30.1592 76.2611C30.1592 76.2611 27.0505 79.8619 26.4504 79.8019C26.3003 79.7899 26.1743 79.7119 26.0663 79.6159C25.7242 79.2978 25.5621 78.7157 25.5621 78.7157L19.7468 80.8882L19.4467 79.1538L11.0568 80.4801L10.6547 78.7157H7.67205L6.92188 76.0931C7.31196 72.2462 9.49046 64.4324 10.3307 60.7656V60.7535Z" fill="#99B3C1"/>
<path d="M19.6627 112.804C20.6049 114.094 21.9132 115.138 22.8494 115.726C24.0497 116.47 25.34 115.984 27.0924 116.83C28.8508 117.671 28.8508 119.357 27.6505 120.011C26.8223 120.467 22.7894 120.539 20.3769 120.539L18.0243 121.037C17.4062 118.997 16.2479 120.071 14.1954 118.991C13.5113 118.631 12.9772 117.959 12.5391 117.155L12.8331 114.448L13.2832 111.909V111.897L13.9674 109.467L14.4235 109.593C15.0476 110.469 16.806 111.669 18.0243 111.669H18.9605C19.1526 112.065 19.3926 112.443 19.6627 112.804Z" fill="#99B3C1"/>
<path d="M25.4355 82.4977L25.3935 82.6957C24.9014 85.1083 23.7791 89.4953 22.5548 94.0923L21.4266 93.9843C19.6141 94.9445 16.8595 95.8327 16.2654 94.4824L15.7192 94.4344L15.7733 93.8643L15.5332 93.7863C17.5137 87.6829 19.224 82.2576 19.206 81.8075L19.7462 80.8893L25.5615 78.7168C25.5615 78.7168 25.7235 79.2989 26.0656 79.617L25.4355 82.4977Z" fill="#99B3C1"/>
<path d="M7.03593 5.21171C8.67431 3.4233 11.495 2.66114 13.1513 2.00099C15.0478 1.24482 18.4565 0.644676 20.353 1.24481C22.2494 1.84495 24.98 2.78715 25.7182 4.41953C26.1143 5.29573 26.0843 6.27995 25.9703 7.00011L24.4399 10.4449C24.62 12.0893 24.674 14.2798 24.0318 16.0262C23.1736 18.3727 21.9854 20.2812 20.9411 21.1454L19.0207 21.6495L17.8324 17.6346H16.8542L17.7664 21.6675L17.8984 22.2676L17.8324 22.2856H15.5459C14.1176 22.2856 11.513 22.0756 10.2467 20.6592C9.48449 19.8071 8.83034 19.531 8.32623 19.501L7.83411 21.3854L7.67808 21.9916C7.11995 23.4439 5.34955 24.6442 4.85143 24.6082C4.25129 24.5602 0.0503306 24.05 1.25061 23.4499C2.03078 23.0598 2.81096 21.6615 3.27907 20.2391L2.82297 15.6001C2.04879 13.5596 0.74649 10.5649 1.05256 9.64674C1.40664 8.5965 2.66693 6.63404 4.67739 6.15393L6.65785 5.04369L7.04193 5.21171H7.03593ZM21.4272 11.8432C22.1114 11.9152 21.4092 9.78477 20.8931 9.75476H20.8211C20.311 9.98281 20.1909 10.835 20.6531 11.2131C20.9111 11.4651 21.2412 11.7832 21.4272 11.8432ZM14.1656 12.4374C14.6757 12.9055 15.3778 10.781 14.9878 10.4449L14.9277 10.4029C14.3816 10.2829 13.7755 10.895 13.9195 11.4771C13.9735 11.8312 14.0515 12.2813 14.1656 12.4374Z" fill="#99B3C1"/>
<path d="M25.2503 24.6502L24.7281 26.0005C24.8062 25.6644 24.7522 25.2503 24.05 25.2503C22.8497 25.2503 19.849 25.2503 18.0246 25.6404C16.2062 26.0305 14.2257 28.437 14.2257 28.437L13.8477 25.8504C13.9977 25.5504 14.3818 25.2143 14.8799 24.8722C16.3562 23.858 18.8108 22.8438 18.8108 22.8438C18.8108 22.8438 24.05 22.8498 25.2503 24.6502Z" fill="#F5CF24"/>
<path d="M17.1783 30.1171C16.5781 30.3752 15.7739 30.8253 15.0358 31.3234L14.7417 30.2611L14.6997 30.1051L14.2256 28.4367C14.2256 28.4367 16.206 26.0302 18.0245 25.6401C19.8489 25.25 22.8496 25.25 24.0498 25.25C24.752 25.25 24.806 25.6641 24.728 26.0002H24.722V26.0182L24.566 26.4203L24.554 26.4443L24.0498 28.2327V36.2205L23.7378 37.0727L22.9576 36.7846C21.6493 36.0525 18.8106 36.3345 17.8264 37.0907L17.2203 36.4366L19.4468 34.3541C19.3928 34.3241 19.1947 33.988 18.9367 33.5139C18.7986 33.2678 18.6426 32.9738 18.4866 32.6737C18.2705 32.2596 18.0485 31.8275 17.8444 31.4374C17.4723 30.6992 17.1783 30.1171 17.1783 30.1171Z" fill="#F5CF24"/>
<path d="M23.738 37.0739L23.1379 38.7122C21.8716 39.6124 19.0749 40.1405 17.7486 39.8705L16.5243 38.7122L16.3623 38.7002C16.6744 37.644 16.8484 36.7858 16.8484 36.7858L17.2205 36.4377L17.8266 37.0918C18.8109 36.3357 21.6495 36.0536 22.9578 36.7858L23.738 37.0739Z" fill="#F5CF24"/>
<path d="M14.5369 107.415L15.7192 94.4345L16.2653 94.4825C16.8595 95.8328 19.6141 94.9446 21.4265 93.9844L22.5548 94.0924C21.0424 99.7697 19.38 105.765 18.5518 108.73L19.6621 112.805C19.392 112.445 19.152 112.067 18.9599 111.67H18.0237C16.8054 111.67 15.047 110.47 14.4229 109.594L13.9668 109.468L14.5369 107.415Z" fill="#99B3C1"/>
<path d="M20.8938 9.75405C21.4099 9.78406 22.1121 11.9145 21.4279 11.8425C21.2419 11.7825 20.9118 11.4644 20.6537 11.2124C20.1916 10.8343 20.3116 9.9821 20.8218 9.74805H20.8938V9.75405Z" fill="#4F4131"/>
<path d="M11.0567 81.8249V80.4806L19.4466 79.1543L19.7467 80.8887L19.2066 81.8069C19.2246 82.257 17.5142 87.6823 15.5337 93.7857C15.4917 93.9177 15.4437 94.0497 15.4017 94.1817L14.4235 93.8637C12.6471 94.8659 11.0627 94.6619 10.6546 93.8637L10.2285 93.7256C10.4926 92.9214 10.6546 92.4353 10.6546 92.4353C10.6546 92.4353 10.8046 84.9036 11.0567 81.8249Z" fill="#99B3C1"/>
<path d="M15.0357 31.323C15.7738 30.8248 16.578 30.3747 17.1782 30.1167C17.1782 30.1167 17.4722 30.6988 17.8443 31.437C18.0484 31.8271 18.2704 32.2592 18.4865 32.6733C18.6425 32.9733 18.7985 33.2674 18.9366 33.5135C19.1946 33.9876 19.3927 34.3236 19.4467 34.3536L17.2202 36.4361L16.8481 36.7842C16.8481 36.7842 16.6741 37.6424 16.362 38.6986C15.9119 40.247 15.1617 42.2275 14.2255 42.6115C12.9472 43.1337 10.7447 48.7269 8.67422 51.1635C8.18811 51.7396 7.708 52.1417 7.24589 52.2558C4.84534 52.8559 4.84534 51.6556 4.84534 51.6556L5.58951 40.6911L5.61352 40.5831L4.03516 40.253C4.03516 40.253 6.64575 28.8504 7.84603 27.6501C8.71623 26.7799 10.5406 25.9037 11.897 25.4536L12.6051 25.2436L12.6531 25.2316L14.7416 24.6074L14.8796 24.8715C14.3815 25.2136 13.9974 25.5496 13.8474 25.8497L14.2255 28.4363L14.6996 30.1047L14.7416 30.2607L15.0357 31.323Z" fill="#99B3C1"/>
<path d="M10.337 109.6L11.0572 113.267C11.4533 114.479 11.8914 115.962 12.5395 117.156C12.9776 117.96 13.5117 118.632 14.1959 118.992C16.2484 120.073 17.4066 118.998 18.0248 121.039C18.6489 123.073 13.6558 123.289 13.1516 123.181C12.6475 123.073 12.2634 122.665 10.6551 122.569C9.04671 122.473 3.39941 120.529 3.39941 120.529L4.98978 109.87L6.35809 106.389L6.37009 106.359C7.18028 103.095 9.31677 96.5112 10.229 93.7266L10.6551 93.8646C11.0632 94.6628 12.6475 94.8668 14.4239 93.8646L15.4022 94.1827C13.5057 100.022 11.3992 106.401 10.337 109.594V109.6Z" fill="#99B3C1"/>
<path d="M14.9872 10.4439C15.3773 10.78 14.6752 12.9045 14.165 12.4364C14.051 12.2803 13.973 11.8302 13.919 11.4762C13.7749 10.894 14.3811 10.2819 14.9272 10.4019L14.9872 10.4439Z" fill="#4F4131"/>
<path d="M16.5227 22.2496C16.5227 22.2496 16.1326 22.2856 15.5384 22.2856C14.1101 22.2856 11.5055 22.0755 10.2392 20.6592C9.47705 19.807 8.82291 19.5309 8.31879 19.5009C7.64063 19.4529 7.24454 19.849 7.24454 19.849C7.24454 19.849 5.24008 20.3772 5.64218 17.1124C6.04427 13.8477 7.84468 13.8477 7.84468 13.8477" stroke="#4F4131" stroke-linecap="round" stroke-linejoin="round"/>
<path d="M18.6471 4.41992C19.2472 6.04629 18.047 9.04699 16.8467 9.64713" stroke="#4F4131" stroke-linecap="round" stroke-linejoin="round"/>
<path d="M15.2929 5.04297C15.0468 6.64534 15.2929 7.02942 15.2929 7.02942L13.1504 10.8883" stroke="#4F4131" stroke-linecap="round" stroke-linejoin="round"/>
<path d="M11.0556 7.0293C11.4457 9.04576 11.0556 11.4643 11.0556 11.4643L9.77734 8.74568" stroke="#4F4131" stroke-linecap="round" stroke-linejoin="round"/>
<path d="M8.85918 9.64648C8.85918 9.64648 8.073 10.2346 8.85918 12.041" stroke="#4F4131" stroke-linecap="round" stroke-linejoin="round"/>
<path d="M20.3527 7.0293C20.3527 7.0293 21.613 8.26556 24.0316 8.05551C24.0316 8.05551 24.2837 9.05176 24.4397 10.4441C24.6197 12.0885 24.6737 14.279 24.0316 16.0254C23.1734 18.3719 21.9851 20.2803 20.9409 21.1445C20.5508 21.4686 20.1787 21.6486 19.8486 21.6486" stroke="#4F4131" stroke-linecap="round" stroke-linejoin="round"/>
<path d="M6.41105 13.5716C5.44483 11.4471 4.97072 8.44646 6.41105 6.04591C6.59109 5.74584 6.80114 5.46977 7.03519 5.21171C8.67357 3.4233 11.4942 2.66114 13.1506 2.00099C15.047 1.24482 18.4558 0.644676 20.3522 1.24481C22.2487 1.84495 24.9793 2.78715 25.7175 4.41953C26.1136 5.29573 26.0836 6.27995 25.9695 7.00011C25.8735 7.62425 25.7175 8.05636 25.7175 8.05636" stroke="#4F4131" stroke-linecap="round" stroke-linejoin="round"/>
<path d="M5.58877 6.04492C5.26469 6.04492 4.95862 6.08093 4.67055 6.15294C2.66009 6.63305 1.39981 8.59551 1.04572 9.64575C0.739654 10.564 2.04195 13.5586 2.81613 15.5991C3.05619 16.2232 3.24223 16.7514 3.32025 17.1115" stroke="#4F4131" stroke-linecap="round" stroke-linejoin="round"/>
<path d="M19.0132 21.6497L17.8249 17.6348H16.8467L17.7589 21.6677L17.8909 22.2678H17.8969L18.0229 22.844" stroke="#4F4131" stroke-linecap="round" stroke-linejoin="round"/>
<path d="M19.0195 21.6566V21.6504" stroke="#4F4131" stroke-linecap="round" stroke-linejoin="round"/>
<path d="M19.2052 22.285L19.0312 21.6973" stroke="#4F4131" stroke-linecap="round" stroke-linejoin="round"/>
<path d="M24.5527 26.4462L24.5648 26.4222L24.721 26.0195" stroke="#4F4131" stroke-linecap="round" stroke-linejoin="round"/>
<path d="M24.7217 26.0195C24.6796 26.2058 24.5955 26.3621 24.5654 26.4222" stroke="#4F4131" stroke-linecap="round" stroke-linejoin="round"/>
<path d="M24.7207 26.0179V26.0059H24.7267" stroke="#4F4131" stroke-linecap="round" stroke-linejoin="round"/>
<path d="M24.7272 26.0005L25.2493 24.6502C24.049 22.8498 18.8098 22.8438 18.8098 22.8438C18.8098 22.8438 16.3553 23.858 14.8789 24.8722C14.3808 25.2143 13.9967 25.5504 13.8467 25.8504L14.2248 28.437C14.2248 28.437 16.2052 26.0305 18.0236 25.6404C19.8481 25.2503 22.8487 25.2503 24.049 25.2503C24.7512 25.2503 24.8052 25.6644 24.7272 26.0005Z" stroke="#4F4131" stroke-linecap="round" stroke-linejoin="round"/>
<path d="M12.0459 40.2531C12.0459 40.2531 12.454 34.0596 13.1502 32.9554C13.4322 32.5053 14.1944 31.8872 15.0346 31.323C15.7728 30.8249 16.5769 30.3748 17.1771 30.1168C17.5732 29.9427 17.8792 29.8527 18.0233 29.8887" stroke="#4F4131" stroke-linecap="round" stroke-linejoin="round"/>
<path d="M14.4473 33.6533C14.8734 33.2272 16.6798 32.123 17.844 31.4388C18.3182 31.1628 18.6842 30.9527 18.8103 30.8867" stroke="#4F4131" stroke-linecap="round" stroke-linejoin="round"/>
<path d="M15.293 34.644C15.545 34.3679 17.4295 33.2757 18.4857 32.6755C18.9118 32.4355 19.2059 32.2734 19.2059 32.2734" stroke="#4F4131" stroke-linecap="round" stroke-linejoin="round"/>
<path d="M15.7734 35.7897C16.1155 35.9817 17.9579 34.3974 18.9362 33.5152C19.3022 33.1851 19.5483 32.957 19.5483 32.957" stroke="#4F4131" stroke-linecap="round" stroke-linejoin="round"/>
<path d="M20.2022 33.6523L19.4461 34.3545L17.2196 36.437L16.8475 36.785C16.8475 36.785 16.6734 37.6432 16.3614 38.6995C15.9113 40.2478 15.1611 42.2283 14.2249 42.6124C12.9466 43.1345 10.7441 48.7278 8.6736 51.1644C8.18749 51.7405 7.70738 52.1426 7.24528 52.2566C4.84473 52.8567 4.84473 51.6565 4.84473 51.6565L5.5889 40.6919" stroke="#4F4131" stroke-linecap="round" stroke-linejoin="round"/>
<path d="M12.0463 41.6152C12.0463 41.6152 5.7329 46.5363 5.58887 47.8926" stroke="#4F4131" stroke-linecap="round" stroke-linejoin="round"/>
<path d="M12.6051 25.2441C12.3951 25.2982 12.155 25.3702 11.897 25.4542C10.5406 25.9043 8.71623 26.7805 7.84603 27.6507C6.64575 28.851 4.03516 40.2536 4.03516 40.2536L5.61352 40.5837L10.5046 41.6159L11.2308 39.5454" stroke="#4F4131" stroke-linecap="round" stroke-linejoin="round"/>
<path d="M13.1501 25.1426C13.0122 25.1546 12.8443 25.1845 12.6523 25.2325" stroke="#4F4131" stroke-linecap="round" stroke-linejoin="round"/>
<path d="M24.0488 26.4512V28.2336V36.2214V36.7855" stroke="#4F4131" stroke-linecap="round" stroke-linejoin="round"/>
<path d="M23.4484 38.4531C23.3584 38.5431 23.2564 38.6272 23.1364 38.7112C21.8701 39.6114 19.0734 40.1395 17.7471 39.8694C17.5431 39.8334 17.3751 39.7734 17.249 39.6954" stroke="#4F4131" stroke-linecap="round" stroke-linejoin="round"/>
<path d="M22.9564 36.7858C21.6481 36.0536 18.8094 36.3357 17.8252 37.0918" stroke="#4F4131" stroke-linecap="round" stroke-linejoin="round"/>
<path d="M14.7412 30.2617L15.0353 31.324" stroke="#4F4131" stroke-linecap="round" stroke-linejoin="round"/>
<path d="M14.4473 29.2051L14.6992 30.1047" stroke="#4F4131" stroke-linecap="round" stroke-linejoin="round"/>
<path d="M18.8096 13.1152C19.2477 13.8474 19.7578 15.3538 19.2057 16.1039" stroke="#4F4131" stroke-linecap="round" stroke-linejoin="round"/>
<path d="M14.9862 10.4439C15.3763 10.78 14.6742 12.9045 14.1641 12.4364C14.05 12.2803 13.972 11.8302 13.918 11.4762C13.774 10.894 14.3801 10.2819 14.9262 10.4019L14.9862 10.4439Z" stroke="#4F4131" stroke-linecap="round" stroke-linejoin="round"/>
<path d="M20.8918 9.75405C21.4079 9.78406 22.1101 11.9145 21.4259 11.8425C21.2399 11.7825 20.9098 11.4644 20.6518 11.2124C20.1897 10.8343 20.3097 9.9821 20.8198 9.74805H20.8918V9.75405Z" stroke="#4F4131" stroke-linecap="round" stroke-linejoin="round"/>
<path d="M3.72838 18.0664C3.69838 18.6966 3.53034 19.4707 3.27228 20.2389C2.80417 21.6612 2.02399 23.0596 1.24381 23.4497C0.0435395 24.0498 4.2445 24.5599 4.84464 24.6079C5.34275 24.6439 7.11316 23.4437 7.67129 21.9913C7.74931 21.7933 7.80332 21.5892 7.82732 21.3852C7.84533 21.2712 7.85133 21.1631 7.84533 21.0491" stroke="#4F4131" stroke-linecap="round" stroke-linejoin="round"/>
<path d="M26.7979 27.8477C29.0604 30.4403 32.3071 39.1962 32.3071 39.1962L30.3507 40.7926L27.554 43.0671" stroke="#4F4131" stroke-linecap="round" stroke-linejoin="round"/>
<path d="M26.1494 27.2734C26.3533 27.3934 26.5632 27.5853 26.7851 27.8372" stroke="#4F4131" stroke-linecap="round" stroke-linejoin="round"/>
<path d="M26.041 27.2129C26.0771 27.2309 26.1131 27.2489 26.1432 27.267" stroke="#4F4131" stroke-linecap="round" stroke-linejoin="round"/>
<path d="M26.0412 33.6523L27.3075 43.0985L27.6496 45.6551L25.7831 54.2911L25.249 56.7816" stroke="#4F4131" stroke-linecap="round" stroke-linejoin="round"/>
<path d="M29.0602 57.7285C28.8141 58.1786 28.5501 58.5567 28.25 58.8568" stroke="#4F4131" stroke-linecap="round" stroke-linejoin="round"/>
<path d="M30.5899 42.8711C31.142 46.4479 30.968 54.1717 29.0596 57.7245" stroke="#4F4131" stroke-linecap="round" stroke-linejoin="round"/>
<path d="M30.3145 41.6152C30.4165 41.9213 30.5065 42.3294 30.5785 42.8155" stroke="#4F4131" stroke-linecap="round" stroke-linejoin="round"/>
<path d="M23.4489 56.7812C22.0866 57.2794 21.3064 58.0716 20.8863 58.6657C20.5623 59.1218 20.4482 59.4579 20.4482 59.4579" stroke="#4F4131" stroke-linecap="round" stroke-linejoin="round"/>
<path d="M22.956 58.8574C21.0476 60.6578 21.0236 64.6548 21.0356 65.0569" stroke="#4F4131" stroke-linecap="round" stroke-linejoin="round"/>
<path d="M22.8487 62.459L21.6484 65.4597" stroke="#4F4131" stroke-linecap="round" stroke-linejoin="round"/>
<path d="M24.0486 63.0586L21.9961 66.4374" stroke="#4F4131" stroke-linecap="round" stroke-linejoin="round"/>
<path d="M25.249 63.0586L23.7246 66.4374" stroke="#4F4131" stroke-linecap="round" stroke-linejoin="round"/>
<path d="M28.2497 59.459L25.249 66.6606" stroke="#4F4131" stroke-linecap="round" stroke-linejoin="round"/>
<path d="M24.5533 54.0262L19.206 53.3121L12.5205 52.4238" stroke="#4F4131" stroke-linecap="round" stroke-linejoin="round"/>
<path d="M10.2453 51.6562C10.2453 51.6562 9.8012 52.8025 9.49513 54.0268C9.20106 55.1611 9.02702 56.3613 9.42311 56.7814C9.65717 57.0275 10.0052 57.1655 10.4013 57.2195C11.3856 57.3636 12.6519 57.0155 13.15 56.7814C13.8461 56.4573 19.2054 53.3126 19.2054 53.3126" stroke="#4F4131" stroke-linecap="round" stroke-linejoin="round"/>
<path d="M15.7734 56.3736C16.2475 56.4576 23.3952 54.8552 23.7253 54.4531" stroke="#4F4131" stroke-linecap="round" stroke-linejoin="round"/>
<path d="M10.3291 60.7676C9.48891 64.4344 7.31042 72.2482 6.92033 76.0951C6.83631 76.9653 6.83631 77.6255 6.96834 77.9975" stroke="#4F4131" stroke-linecap="round" stroke-linejoin="round"/>
<path d="M10.6482 58.8574C10.6842 59.0735 10.5581 59.7636 10.3301 60.7538" stroke="#4F4131" stroke-linecap="round" stroke-linejoin="round"/>
<path d="M29.3777 61.2954C29.3118 61.0495 29.2458 60.8695 29.1738 60.7676" stroke="#4F4131" stroke-linecap="round" stroke-linejoin="round"/>
<path d="M7.37695 78.7165H10.6537L11.0558 80.4809L19.4457 79.1546L19.7458 80.889L25.5611 78.7165C25.5611 78.7165 25.7232 79.2986 26.0652 79.6167C26.1733 79.7127 26.2993 79.7907 26.4493 79.8027C27.0495 79.8627 30.1582 76.2619 30.1582 76.2619C30.1582 76.2619 30.1102 64.2532 29.384 61.3125" stroke="#4F4131" stroke-linecap="round" stroke-linejoin="round"/>
<path d="M13.5102 58.8574L12.0459 77.5217" stroke="#4F4131" stroke-linecap="round" stroke-linejoin="round"/>
<path d="M19.2051 57.2559L19.7452 77.5225" stroke="#4F4131" stroke-linecap="round" stroke-linejoin="round"/>
<path d="M25.249 67.3848C25.249 67.3848 26.2332 75.5466 26.0412 76.8009" stroke="#4F4131" stroke-linecap="round" stroke-linejoin="round"/>
<path d="M10.3366 109.6L9.64648 111.67" stroke="#4F4131" stroke-linecap="round" stroke-linejoin="round"/>
<path d="M19.206 81.8066C19.224 82.2567 17.5136 87.682 15.5331 93.7854C15.4911 93.9174 15.4431 94.0494 15.4011 94.1815C13.5047 100.021 11.3982 106.4 10.3359 109.593" stroke="#4F4131" stroke-linecap="round" stroke-linejoin="round"/>
<path d="M6.35699 106.389C6.16495 107.187 6.04492 107.781 6.04492 108.069" stroke="#4F4131" stroke-linecap="round" stroke-linejoin="round"/>
<path d="M11.1573 80.8887C11.1213 81.1107 11.0912 81.4348 11.0552 81.8249C10.8032 84.9036 10.6531 92.4353 10.6531 92.4353C10.6531 92.4353 10.4911 92.9214 10.227 93.7256C9.31484 96.5103 7.17835 103.094 6.36816 106.359" stroke="#4F4131" stroke-linecap="round" stroke-linejoin="round"/>
<path d="M15.7732 93.8652L15.7191 94.4353L14.5369 107.416L14.4229 108.677" stroke="#4F4131" stroke-linecap="round" stroke-linejoin="round"/>
<path d="M25.3931 82.6953C24.901 85.1079 23.7788 89.4949 22.5545 94.0919C21.0421 99.7692 19.3797 105.765 18.5516 108.729C18.2215 109.912 18.0234 110.614 18.0234 110.614" stroke="#4F4131" stroke-linecap="round" stroke-linejoin="round"/>
<path d="M25.6566 80.8887C25.6806 81.1167 25.5966 81.6749 25.4346 82.4971" stroke="#4F4131" stroke-linecap="round" stroke-linejoin="round"/>
<path d="M21.6479 93.8652C21.5759 93.9072 21.4978 93.9492 21.4258 93.9852C19.6134 94.9455 16.8588 95.8337 16.2646 94.4834" stroke="#4F4131" stroke-linecap="round" stroke-linejoin="round"/>
<path d="M14.4222 93.8652C12.6458 94.8675 11.0614 94.6634 10.6533 93.8652" stroke="#4F4131" stroke-linecap="round" stroke-linejoin="round"/>
<path d="M5.58887 109.594C6.04497 111.67 7.53931 113.663 9.18969 112.967" stroke="#4F4131" stroke-linecap="round" stroke-linejoin="round"/>
<path d="M14.4229 109.594C15.047 110.47 16.8054 111.67 18.0237 111.67" stroke="#4F4131" stroke-linecap="round" stroke-linejoin="round"/>
<path d="M10.6541 112.15C10.7861 112.474 10.9182 112.852 11.0562 113.267C11.4523 114.479 11.8904 115.961 12.5385 117.156C12.9766 117.96 13.5108 118.632 14.1949 118.992C16.2474 120.072 17.4056 118.998 18.0238 121.038C18.6479 123.073 13.6548 123.289 13.1507 123.181C12.6466 123.073 12.2625 122.665 10.6541 122.569C9.04573 122.473 3.39844 120.528 3.39844 120.528L4.9888 109.87L5.03081 109.594" stroke="#4F4131" stroke-linecap="round" stroke-linejoin="round"/>
<path d="M7.84473 114.07C8.44486 115.271 9.66915 118.325 11.1575 119.195C12.6458 120.072 13.51 119.195 13.51 119.195" stroke="#4F4131" stroke-linecap="round" stroke-linejoin="round"/>
<path d="M18.9601 111.67C19.1522 112.066 19.3922 112.444 19.6623 112.804C20.6045 114.094 21.9128 115.139 22.849 115.727C24.0493 116.471 25.3396 115.985 27.092 116.831C28.8504 117.671 28.8504 119.358 27.6501 120.012C26.8219 120.468 22.789 120.54 20.3765 120.54C19.2962 120.54 18.54 120.528 18.54 120.528" stroke="#4F4131" stroke-linecap="round" stroke-linejoin="round"/>
<path d="M13.2823 111.91L12.8322 114.449L12.5381 116.105" stroke="#4F4131" stroke-linecap="round" stroke-linejoin="round"/>
<path d="M13.5103 110.631L13.2822 111.897" stroke="#4F4131" stroke-linecap="round" stroke-linejoin="round"/>
<path d="M16.8467 112.27C16.8467 113.47 19.2232 116.639 21.0356 117.155C22.8481 117.671 24.4864 116.398 24.4864 116.398" stroke="#4F4131" stroke-linecap="round" stroke-linejoin="round"/>
<path d="M18.0232 41.6152L17.249 52.0816" stroke="#4F4131" stroke-linecap="round" stroke-linejoin="round"/>
<path d="M19.8479 40.2539L19.5479 52.0826" stroke="#4F4131" stroke-linecap="round" stroke-linejoin="round"/>
</svg>
