<svg width="204" height="187" viewBox="0 0 204 187" fill="none" xmlns="http://www.w3.org/2000/svg">
<path d="M126.066 182.377C121.432 183.226 116.804 184.075 112.169 184.923C108.814 185.537 105.407 186.157 102.006 185.896C96.9537 185.511 92.2669 183.246 87.7042 181.039C76.2093 175.497 64.5838 170.132 52.4035 166.326C34.7075 160.804 14.7595 157.945 2.10922 144.4C12.3117 139.139 22.5272 133.898 32.7558 128.676C34.4856 127.795 36.2545 126.9 38.1671 126.567C40.4713 126.163 42.8277 126.6 45.1123 127.096C60.3214 130.399 74.7602 136.463 89.1076 142.494C102.045 147.938 115.394 153.656 124.983 163.911C127.861 166.986 130.453 170.726 130.557 174.936C130.662 179.146 127.293 183.624 123.09 183.298" fill="#D3B25B"/>
<path d="M123.051 183.733C122.901 183.661 122.992 183.557 123.442 183.577L123.769 183.792L123.051 183.727V183.733Z" fill="#C6B08D"/>
<path d="M125.897 182.821C126.393 182.71 127.013 182.54 126.817 182.886C126.53 182.925 126.374 182.977 126.21 183.029C126.041 183.069 125.864 183.095 125.564 183.082C125.153 183.219 124.846 183.362 124.938 183.428C124.781 183.434 124.252 183.604 124.004 183.499C124.565 183.271 125.238 183.134 125.982 182.938C126.112 182.834 125.943 182.84 125.891 182.821H125.897Z" fill="#C6B08D"/>
<path d="M109.375 152.363L109.623 152.474C109.551 152.448 109.466 152.409 109.375 152.363Z" fill="#C6B08D"/>
<path d="M85.8893 141.605C86.0723 141.684 86.1377 141.736 86.1377 141.762C85.9743 141.677 85.8435 141.605 85.8893 141.605Z" fill="#C6B08D"/>
<path d="M81.7184 140.125C81.8099 140.158 81.8818 140.184 81.9668 140.21C81.8687 140.19 81.7707 140.164 81.7184 140.125Z" fill="#C6B08D"/>
<path d="M109.375 152.362L108.742 152.082C108.736 151.997 109.075 152.212 109.375 152.362Z" fill="#C6B08D"/>
<path d="M130.264 178.924C130.198 179.061 130.113 179.166 130.041 179.257C130.107 179.146 130.179 179.048 130.224 178.93C130.238 178.93 130.251 178.93 130.264 178.924Z" fill="#C6B08D"/>
<path d="M118.702 158.812L118.866 158.943C118.899 159.002 118.925 159.061 118.944 159.12C118.866 159.015 118.781 158.917 118.702 158.812Z" fill="#C6B08D"/>
<path d="M125.035 164.733C124.897 164.596 124.989 164.42 124.995 164.309C125.015 164.439 125.087 164.57 125.191 164.707C125.165 164.733 125.119 164.74 125.035 164.727V164.733Z" fill="#C6B08D"/>
<path d="M130.179 176.795L130.1 177.024C130.12 176.965 130.153 176.86 130.179 176.795Z" fill="#C6B08D"/>
<path d="M113.632 155.215C113.632 155.215 113.566 155.234 113.527 155.228C113.54 155.208 113.58 155.208 113.632 155.215Z" fill="#C6B08D"/>
<path d="M116.235 185.052C116.235 185.052 116.235 185.033 116.235 185.02C116.288 185.026 116.307 185.039 116.235 185.052Z" fill="#C6B08D"/>
<path d="M126.06 182.331L125.923 182.344C125.923 182.344 125.883 182.279 125.877 182.246L126.066 182.325L126.06 182.331Z" fill="#C6B08D"/>
<path d="M74.1456 137.303C74.1456 137.303 74.1653 137.303 74.1784 137.316C74.3688 137.414 74.2572 137.368 74.1456 137.303Z" fill="#C6B08D"/>
<path d="M5.91458 143.304C6.58691 142.775 4.60255 143.741 5.64042 143.003C5.56862 143.121 6.79579 142.729 5.91458 143.304Z" fill="#C6B08D"/>
<path d="M130.335 178.689C130.38 178.571 130.433 178.454 130.479 178.336C130.42 178.499 130.374 178.604 130.335 178.689Z" fill="#C6B08D"/>
<path d="M5.63984 143.002L5.75098 142.924C5.70522 142.957 5.67907 142.976 5.64639 143.002H5.63984Z" fill="#C6B08D"/>
<path d="M56.6987 130.965C56.7445 130.945 56.8229 130.945 56.9014 130.945C56.8883 130.958 56.8425 130.971 56.6987 130.965Z" fill="#C6B08D"/>
<path d="M69.8643 135.243L69.5309 135.145C69.6616 135.177 69.7727 135.21 69.8643 135.243Z" fill="#C6B08D"/>
<path d="M49.8574 128.771C49.6748 128.738 49.603 128.751 49.3682 128.66C49.3943 128.66 49.4204 128.66 49.4465 128.66C49.5313 128.706 49.6422 128.745 49.8574 128.771Z" fill="#C6B08D"/>
<path d="M42.5851 127.146C42.6243 127.139 42.6766 127.133 42.7224 127.133C42.7943 127.146 42.8793 127.165 42.9512 127.179L42.5851 127.146Z" fill="#C6B08D"/>
<path d="M93.4289 184.497C93.605 184.51 93.7224 184.497 93.8138 184.471C93.6572 184.549 94.6814 184.999 93.4289 184.497Z" fill="#C6B08D"/>
<path d="M130.172 178.878C130.23 178.852 130.276 178.8 130.335 178.695C130.296 178.78 130.263 178.859 130.224 178.937C130.191 178.95 130.165 178.937 130.172 178.885V178.878Z" fill="#C6B08D"/>
<path d="M49.917 127.289L48.7486 127.021C49.075 127.087 49.5058 127.185 49.917 127.289Z" fill="#C6B08D"/>
<path d="M43.6103 164.562L43.8652 164.654C43.7606 164.628 43.6691 164.602 43.6103 164.562Z" fill="#C6B08D"/>
<path d="M45.2822 126.195C45.0604 126.214 44.8256 126.201 44.5908 126.175C44.5451 126.149 44.4929 126.13 44.4603 126.104L45.2757 126.195H45.2822Z" fill="#C6B08D"/>
<path d="M101.523 186.9C100.335 186.789 100.994 186.599 100.766 186.436C99.3947 186.168 100.1 186.514 99.6036 186.56C98.742 186.345 98.148 185.966 97.5213 185.809C97.4626 185.836 97.3386 185.816 97.4691 185.901C96.6336 185.49 94.8646 185.091 93.9704 184.471C93.8921 184.465 93.8464 184.471 93.8203 184.471C94.0226 184.419 94.0944 184.315 94.0944 184.223C93.6179 184.041 93.2719 183.727 93.0304 183.799C93.3242 183.916 93.3242 183.982 93.4417 184.086L92.9717 183.819C92.4364 183.845 93.6179 184.171 93.5591 184.328C92.6061 183.871 91.5683 183.205 90.8176 182.924C90.5696 183.061 92.5017 183.76 91.4377 183.505L92.6127 183.923C91.6009 183.871 93.3176 184.197 92.3646 184.197C90.8241 183.603 90.7262 183.355 89.2249 182.722C88.9442 182.454 89.4142 182.611 89.1335 182.343C87.1492 181.149 87.2536 182.056 85.8567 181.064C85.5238 180.744 85.4977 180.411 84.3423 180.033L84.6034 180.437C83.1739 179.785 83.9507 179.726 82.3906 179.171C82.6125 179.386 83.4676 179.772 83.2457 179.7C82.2013 179.419 82.6256 179.249 81.888 178.897L81.64 179.027C80.1452 178.283 78.5394 177.363 76.8749 176.553C76.9402 176.658 77.2013 176.854 76.777 176.73C74.7012 175.659 72.2273 174.713 70.1059 173.949L69.3878 173.44C69.2051 173.362 69.0158 173.375 69.1986 173.492C68.363 173.218 69.1985 173.362 68.8461 173.127C68.3891 172.918 68.1998 172.97 68.4675 173.146C67.1097 172.389 64.5249 171.142 62.9322 170.751L63.2063 170.92C61.9922 170.542 62.0118 170.032 60.8499 169.791L61.0522 169.902C58.4478 169.008 55.6279 167.852 53.5391 167.487C53.2454 167.089 50.9085 166.788 50.8498 166.377C49.2897 166.109 49.7075 166.286 47.5403 165.803C46.9659 165.659 46.757 165.333 46.0651 165.091L45.9933 165.28L45.0925 164.811L44.5181 164.902L43.8719 164.667C44.1395 164.726 44.4594 164.732 44.4333 164.667C43.4215 164.295 41.8745 164.106 41.8223 164.197L39.4136 163.361C39.4462 163.453 39.8509 163.596 40.1577 163.733C38.9045 163.179 39.864 163.871 38.7152 163.361C38.8849 163.361 38.6629 163.224 38.6434 163.172C38.0102 163.12 36.6525 162.741 35.6603 162.415L35.817 162.604C33.9893 162.115 31.9984 161.449 29.9748 160.809C30.7255 160.972 30.6276 160.692 30.0401 160.483L29.7399 160.613C29.3939 160.372 30.3861 160.731 29.642 160.333C28.8782 160.124 29.061 160.404 29.4722 160.607L28.5714 160.248C28.4996 160.293 28.702 160.391 28.7346 160.483C28.3952 160.248 27.0832 160.156 26.6132 159.758L26.5414 159.804C24.5179 159.145 23.6497 158.688 22.0178 158.087C22.0505 157.911 21.4043 157.689 20.9865 157.35C19.7854 156.919 18.4147 156.521 17.0308 155.822C16.0909 155.28 16.8089 155.548 16.4173 155.241C16.2671 155.365 14.8898 154.673 15.5556 155.137C14.7397 154.693 14.224 154.399 13.6561 154.073C13.0948 153.74 12.4681 153.394 11.5151 152.702C11.7697 152.774 12.0243 152.904 11.9263 152.774C11.5804 152.526 11.0712 152.323 11.0778 152.428L11.1626 152.5C9.02812 150.992 5.8623 149.432 4.485 147.774L4.56333 147.865C4.02808 147.369 3.57115 146.788 3.09464 146.24C2.35704 145.554 3.43407 146.755 2.83355 146.305C2.73564 146.181 2.66383 146.09 2.54634 145.953C2.38968 145.776 2.23302 145.613 2.08289 145.443C1.78262 145.13 1.49541 144.83 1.21472 144.543L1.00584 144.334L0.901413 144.229C0.901413 144.229 0.973206 144.184 1.00584 144.158C1.18208 144.066 1.35179 143.981 1.51498 143.896C1.84789 143.72 2.17426 143.55 2.49411 143.381C2.95103 143.139 3.40144 142.898 3.85837 142.656C4.24349 142.46 4.64165 142.271 5.08552 142.095C6.17561 140.985 9.75921 139.732 11.3911 138.544L11.3389 138.701C11.848 138.57 11.8611 138.355 12.1874 138.159C12.1809 138.263 11.737 138.505 12.0504 138.42C15.993 136.553 19.9813 134.157 23.9173 132.023C25.3599 131.246 25.014 132.134 26.7242 130.946L26.104 131.024C27.6315 130.385 29.1328 129.614 30.6211 128.844C32.1159 128.087 33.5715 127.264 35.1707 126.716C34.9684 126.749 34.9358 126.69 34.6355 126.82C34.9292 126.605 35.5363 126.344 36.0976 126.187C36.659 126.024 37.1616 125.978 37.1812 126.037C37.7034 125.9 37.2726 125.894 37.5859 125.757C38.3105 125.495 39.4528 125.698 39.8248 125.554C39.8901 125.528 39.616 125.508 39.4789 125.502C39.9684 125.522 41.6917 125.541 41.2282 125.698C42.5076 125.711 43.5977 126.096 44.5769 126.181C45.1643 126.501 46.6395 126.546 46.7701 126.866C46.7505 126.553 48.9111 127.114 49.6161 127.454C49.3876 127.304 50.2884 127.525 50.0273 127.336C50.8824 127.552 51.6461 127.819 51.4568 127.924C52.2858 127.969 53.0495 128.25 53.7349 128.498C54.4138 128.759 55.0143 128.981 55.5169 128.896C57.9713 129.804 60.2363 130.639 62.4361 131.448C62.4557 131.135 59.9817 130.606 60.1776 130.339C62.2598 131.148 63.3891 131.808 65.4909 132.473C66.0392 132.63 65.2298 132.245 65.0667 132.127C67.1163 132.989 69.1137 133.57 70.9088 134.425C70.9088 134.399 70.726 134.294 70.5432 134.197C70.9022 134.347 71.4048 134.484 71.3135 134.588L70.974 134.418C70.3278 134.379 72.273 135.352 72.2991 135.476C71.8226 134.875 74.1529 136.09 73.35 135.261C73.5785 135.378 73.8527 135.554 73.7678 135.62C74.1333 135.737 74.2639 135.731 73.944 135.496C75.2169 136.076 74.7012 136.024 75.8762 136.488C75.8958 136.422 75.6673 136.305 75.5759 136.187C76.1242 136.54 76.6725 136.899 77.6843 137.245C77.6386 137.186 77.7757 137.186 77.4754 137.069C79.166 137.774 80.2431 138.557 82.1426 139.21C81.7052 138.72 82.8084 139.386 83.0042 139.203L83.9768 139.686L83.5329 139.627C84.4076 139.986 85.1126 140.476 85.8893 140.718L85.2823 140.352L86.9011 141.077L85.9416 140.776C86.7771 141.259 85.7262 141.018 86.9142 141.442C86.6857 141.318 87.7888 141.808 88.298 141.866C88.6962 142.114 89.1139 142.382 89.7797 142.597C89.9756 142.597 89.7471 142.291 89.8776 142.291C90.2236 142.656 91.8946 143.205 92.3516 143.635C92.1949 143.511 92.2341 143.387 92.2993 143.394L92.5931 143.701C93.0174 143.825 93.0892 143.825 93.0631 143.701C94.2902 144.19 92.5539 143.818 94.0487 144.314C93.9377 144.255 94.003 144.255 93.7811 144.131C95.2498 144.693 96.5292 145.43 97.8804 145.953C98.3699 145.9 96.7511 145.385 97.2798 145.391C99.1663 146.279 101.098 147.434 102.933 148.27L102.58 148.133C102.678 148.564 104.01 148.629 104.845 149.242C104.636 149.105 104.636 148.923 104.682 148.988C105.948 149.556 107.169 150.352 108.944 151.462L108.762 151.253C109.506 151.592 110.661 152.258 111.431 152.695C111.608 152.911 112.045 153.159 111.719 153.107C113.018 153.583 114.069 154.367 115.074 155.117C115.57 155.502 116.046 155.9 116.549 156.259C117.052 156.612 117.554 156.945 118.096 157.239C117.868 157.062 117.593 156.756 117.776 156.899L119.362 158.218C119.14 158.237 119.088 158.126 118.677 157.957C118.827 158.185 119.251 158.583 119.63 158.916C118.99 158.244 119.787 158.733 120.152 158.923C120.074 158.916 120.146 159.04 120.087 159.06C121.079 159.543 120.028 159.406 121.268 160.209V160.098C121.64 160.496 121.941 160.914 122.391 161.299C122.691 161.338 122.019 160.842 122.084 160.711C122.685 161.286 123.076 162.043 123.71 162.467C123.501 162.18 123.142 161.821 122.913 161.553C123.664 161.951 123.67 162.082 124.127 162.487L124.082 162.448L125.139 163.388L124.845 163.172C125.25 164.217 126.249 164.778 126.889 166.064C126.255 164.824 126.875 165.783 126.967 165.581C127.234 165.829 127.62 166.227 127.567 166.07C127.835 166.703 128.351 166.899 128.664 167.839C128.749 167.839 129.043 168.453 129.101 168.244C129.506 169.034 128.899 168.12 128.873 168.224C129.127 168.858 129.558 169.523 129.956 170.3C130.355 171.077 130.701 171.997 130.746 172.989C130.851 173.831 130.792 174.341 130.733 174.824C130.661 175.307 130.57 175.764 130.407 176.508C130.407 176.769 130.485 176.677 130.563 176.514C130.629 176.351 130.694 176.116 130.694 176.116C130.694 176.971 130.492 177.604 130.146 178.322C130.257 178.192 130.237 178.362 130.211 178.616C129.943 179.217 129.826 178.916 129.519 179.706C129.656 179.621 129.839 179.504 130.048 179.256C129.663 179.935 129.114 180.49 128.579 181.064C128.533 181.299 129.01 180.803 129.238 180.614C129.088 180.783 128.925 180.992 128.742 181.181C128.547 181.364 128.357 181.56 128.161 181.723C127.757 182.037 127.398 182.265 127.228 182.265C127.372 182.141 127.509 182.01 127.633 181.867C127.391 182.069 127.607 182.095 127.809 181.958C128.148 181.762 128.331 181.547 128.429 181.377C128.527 181.214 128.54 181.103 128.533 181.064L128.122 181.443C128.155 181.273 128.266 181.09 128.422 180.901C128.573 180.705 128.762 180.483 128.971 180.255C129.362 179.778 129.806 179.223 130.009 178.701C129.872 178.812 129.721 178.91 129.565 179.001C129.806 178.708 130.002 178.381 130.218 178.048C130.218 177.794 130.133 177.598 129.924 178.087C130.035 177.311 130.25 177.461 130.237 176.775C130.231 176.697 130.211 176.73 130.185 176.795C130.276 176.56 130.329 176.312 130.387 176.064C130.315 176.201 130.211 175.92 130.198 176.377C130.218 175.705 130.283 175.183 130.302 174.745C130.329 174.308 130.329 173.969 130.185 173.727V173.838C130.1 172.911 130.094 172.859 130.178 172.852C130.237 172.852 130.368 172.905 130.289 172.174C130.054 171.899 129.787 171.651 129.532 171.41L129.663 171.168C129.584 170.992 129.428 170.64 129.375 170.737C129.225 170.013 129.506 170.816 129.46 170.378C128.938 169.582 128.318 168.029 127.92 168.029C127.868 167.663 128.501 168.727 128.05 167.82C127.613 167.767 127.45 166.814 126.791 166.227C126.823 166.54 127.372 167.141 126.738 166.547C126.66 165.953 125.642 165.287 125.204 164.719C125.368 164.523 124.199 163.505 123.39 162.585C123.409 162.676 121.64 161.09 120.733 160.411V160.463C120.72 160.143 119.793 159.425 119.173 158.838C119.108 158.968 119.193 159.112 119.499 159.458L118.886 158.942C118.781 158.766 118.612 158.583 118.213 158.244L118.266 158.505C117.848 158.179 117.456 157.807 117.019 157.428C116.582 157.056 116.086 156.69 115.492 156.344C115.524 156.162 116.653 156.599 115.524 155.659C115.426 155.705 115.296 155.796 115.589 156.051C115.492 155.972 115.27 155.731 115.041 155.62L115.433 156.083C114.884 155.776 115.243 155.783 114.819 155.515C114.754 155.626 114.46 155.391 114.46 155.515C114.558 155.6 114.858 155.705 114.982 155.861C114.506 155.561 113.886 155.261 113.644 155.215C113.723 155.182 113.742 155.071 113.403 154.83C112.515 154.236 113.018 154.758 112.456 154.477C112.28 154.269 111.653 153.994 111.738 153.818C111.471 153.655 111.373 153.701 111.242 153.688C110.824 153.316 109.029 152.363 109.676 152.493L109.806 152.552C109.806 152.552 109.76 152.519 109.734 152.5C108.259 151.423 106.392 150.757 104.826 149.876L104.799 149.934C103.879 149.373 102.678 148.825 102.045 148.374C101.758 148.237 101.32 148.152 101.405 148.283C100.687 147.885 100.628 147.787 99.5057 147.382C100.211 147.832 99.2054 147.356 100.237 147.813C99.2446 147.421 98.99 147.402 98.0109 146.775C98.2981 147.082 97.195 146.638 96.7511 146.383L97.4822 146.579C96.973 146.325 96.5096 146.135 96.0396 145.94L96.2028 146.246C94.1009 145.613 92.7628 144.268 91.0591 144.027C90.5826 143.661 92.1949 144.393 91.7902 144.027C90.8502 143.661 89.7667 143.544 89.4729 143.42C88.1544 142.996 88.409 142.63 87.0447 142.147C87.2471 142.147 87.4886 142.023 86.5225 141.54C85.5826 141.174 85.2562 141.364 85.8175 141.664C86.0395 141.762 86.157 141.788 86.157 141.755C86.4442 141.906 86.8293 142.101 86.4246 142.03L86.3332 141.906C85.8437 141.788 84.5643 141.24 84.8188 141.488C84.1465 141.129 84.5708 141.246 85.106 141.423C83.8724 141.024 83.2457 140.646 81.9859 140.208C82.1948 140.248 82.4102 140.241 82.2144 140.163C80.3736 139.503 81.4768 139.693 80.2692 139.164C79.5316 138.988 80.4128 139.53 79.2183 138.929C78.4349 138.694 78.9833 139.053 79.2574 139.236C78.1934 138.635 77.1229 138.472 76.4767 138.244L77.0446 138.537C76.7052 138.361 76.418 138.244 76.1177 138.126H76.5159C76.1569 138.002 75.8631 137.885 75.8501 137.95C75.5302 137.708 76.2221 137.819 75.5629 137.408C75.0668 137.297 74.179 136.768 73.944 136.899C75.4323 137.408 73.709 137.03 74.9297 137.545C74.7012 137.428 74.4075 137.317 74.0485 137.199C73.9897 137.199 74.0811 137.258 74.1725 137.304C72.7103 136.925 73.6177 136.827 72.162 136.272C72.3056 136.449 71.7443 136.351 71.5158 136.233C72.1033 136.455 71.8683 136.161 71.3592 135.874C70.3931 135.6 70.3735 135.424 69.8774 135.247L70.4518 135.424C70.3017 135.241 69.8317 135.078 69.192 134.804C69.1072 134.869 69.7599 135.084 69.5184 135.032C68.8656 134.575 67.8082 134.614 66.8487 134.118C66.3526 134.02 66.7312 134.308 66.3003 134.21C65.2168 133.661 65.021 133.909 63.8656 133.374C64.2638 133.348 64.3095 133.407 63.5196 132.969C64.1659 133.231 64.8055 133.492 65.4452 133.766L64.2638 133.1C64.8578 133.302 65.4844 133.642 65.8434 133.74C65.2886 133.407 65.3343 133.465 65.6607 133.446C64.7729 133.368 64.094 132.741 63.1019 132.571L63.004 132.943C61.5353 132.61 60.5496 131.905 58.6762 131.396L59.2898 131.52C59.094 131.285 58.154 131.142 57.5731 130.894C57.5927 131.037 57.201 130.959 56.9203 130.959C56.9791 130.874 55.5626 130.548 55.4647 130.26L54.5835 130.182C53.0626 129.804 52.9647 129.34 51.496 128.981C51.9007 129.236 51.2153 129.144 52.1618 129.503C51.6788 129.373 51.2349 129.275 51.248 129.19C50.9477 129.19 49.9424 128.668 49.4659 128.674C49.2766 128.57 49.2375 128.42 48.6892 128.289C48.6239 128.302 48.6761 128.354 48.6761 128.354C48.6892 128.289 47.8406 128.054 48.3497 128.035C46.7505 128.067 44.1199 126.997 42.7426 127.147C41.6852 126.925 40.3927 126.781 39.4267 126.84C39.4919 126.873 39.4267 126.899 39.616 126.879C38.9567 126.971 38.7543 126.912 38.5128 126.853C38.2778 126.801 37.9971 126.736 37.2661 126.997C36.5676 127.401 38.0755 126.899 37.6251 127.101C37.5729 127.33 37.1355 127.421 36.6003 127.571C36.065 127.715 35.4253 127.917 35.001 128.25L35.236 128.172C34.5833 128.616 33.4214 128.864 32.2595 129.497C32.2595 129.497 32.3313 129.497 32.2986 129.549C31.3978 129.771 29.8443 130.482 28.6889 131.011C29.1132 130.979 29.2438 130.828 29.1067 131.089C28.591 131.331 29.1328 130.77 28.1015 131.246C27.8143 131.494 27.1223 131.938 27.1093 132.147L28.0688 131.664C27.6837 132.121 26.8286 132.291 26.3456 132.584L26.4565 132.643C24.9813 133.361 24.8442 133.146 23.2842 133.968L23.4082 133.818C22.4356 134.033 22.7554 134.314 21.8155 134.582L21.6719 134.941C21.0779 135.176 19.5766 135.737 18.5387 136.214C19.198 136.09 20.4317 135.567 21.2215 135.293C20.6601 135.58 19.3089 136.253 18.9564 136.292C19.1914 136.201 19.5048 136.109 19.7136 135.959C18.9303 136.129 17.9839 136.507 16.8677 137.088C17.2919 137.434 14.0086 138.694 13.3754 139.458C11.3128 140.306 9.48505 141.54 7.16779 142.695C7.80749 141.932 6.48895 143.028 6.44978 142.604C5.90147 142.859 5.69911 142.97 5.66647 143.015L4.15209 144.06C3.81919 144.36 4.70042 143.877 4.69389 143.981C4.11294 144.295 4.00848 144.399 3.96279 144.484C3.93668 144.523 3.92365 144.562 3.87795 144.621C3.88448 144.647 3.89753 144.673 3.91711 144.693C3.86489 144.641 3.82572 144.601 3.76698 144.601C3.72781 144.601 3.61031 144.628 3.68211 144.667C3.53851 144.621 3.58421 144.569 3.61032 144.471C3.51894 144.49 3.43407 144.517 3.37532 144.543C3.34268 144.556 3.31657 144.569 3.29046 144.582C3.2513 144.595 3.31657 144.614 3.32962 144.634C3.42754 144.706 3.53197 144.745 3.61684 144.771C3.70822 144.804 3.75392 144.784 3.83225 144.836C4.03461 145.006 4.25655 145.241 4.55028 145.594L4.23042 145.097C4.55027 145.437 5.11816 146.083 5.78397 146.638C6.42366 147.212 7.04378 147.813 7.29835 148.231C7.45501 148.302 7.68999 148.355 7.38972 148.067C8.27094 148.753 9.26311 149.51 10.1835 150.267C11.143 150.972 12.0895 151.592 12.8793 151.971L12.7814 151.795C13.1209 152.043 13.3167 152.336 13.8324 152.493C13.8324 152.447 13.7279 152.33 13.9042 152.415C14.0804 152.552 14.805 153.094 15.3206 153.309L14.9551 152.989C15.4512 153.218 15.8755 153.453 16.2671 153.681C16.6653 153.89 17.0178 154.099 17.3637 154.314C18.0491 154.732 18.6758 155.182 19.5178 155.574C19.6288 155.306 21.2672 155.887 22.0831 156.175L22.0701 156.122C24.4722 157.023 26.0649 157.885 28.3038 158.74C29.8051 158.916 33.1407 160.117 35.4841 160.6C35.1185 160.548 35.4841 160.835 35.8822 160.979C36.4371 161.077 37.3248 161.586 37.3052 161.312L37.1094 161.26C37.5859 161.122 38.676 161.501 39.5442 161.736L39.5964 162.108C42.005 162.252 45.5038 163.916 46.868 163.844C47.3902 164.086 48.0756 164.275 48.5913 164.517L48.6108 164.334C50.1448 164.726 50.9085 164.941 52.7689 165.548L52.4229 165.307C53.4804 165.62 53.5913 166.24 54.5574 166.553L54.936 166.384C56.7571 166.997 58.6893 167.408 60.3864 168.303C60.3734 168.257 60.3473 168.159 60.0535 168.042C60.9086 168.342 63.4021 169.099 62.9583 169.341C63.0692 169.112 64.8186 170.032 65.739 170.522L65.6541 170.294C66.3852 170.829 66.3852 170.907 67.4883 171.429C67.7625 171.521 67.7821 171.39 67.4035 171.286C68.3304 171.566 68.0367 171.73 69.1529 172.095L68.7938 171.821C69.7142 172.193 69.6163 172.219 70.0667 172.559C70.615 172.865 71.8161 173.264 72.0184 173.172C72.1033 173.316 72.5472 173.655 73.102 173.851C73.1999 173.825 73.0171 173.707 72.9323 173.642C74.5054 174.204 75.1059 174.837 76.2156 175.144C76.2613 175.098 76.3396 175.104 76.4375 175.124C75.2365 174.582 74.2574 174.158 74.3422 174.217C74.4075 174.066 75.3997 174.471 74.7143 173.916C75.4454 174.38 76.666 175.235 77.6451 175.594C77.6973 175.594 77.7496 175.607 77.7953 175.594L77.7039 175.529C77.9258 175.614 78.1151 175.718 78.2913 175.829C78.6047 175.94 78.807 176.012 79.0942 176.142C79.2639 176.064 80.2365 176.593 80.7196 176.808C80.6021 176.958 81.2418 177.226 80.589 177.082C80.6739 177.108 80.5042 177.017 80.1908 176.867C80.119 176.828 80.0342 176.788 79.995 176.756C80.0015 176.762 80.0146 176.775 80.0211 176.788C79.7078 176.638 79.2966 176.442 78.8266 176.221C79.1726 176.482 79.5316 176.736 80.106 176.893C80.3018 177.115 80.5238 177.35 80.6543 177.474C81.4245 177.546 82.7496 178.022 82.9911 177.963C84.4141 178.747 86.4116 179.667 87.1818 180.424C87.58 180.666 87.704 180.568 87.8802 180.594C87.6583 180.45 87.3711 180.313 87.2601 180.209C88.0565 180.692 89.7014 181.423 89.7993 181.73C90.8959 182.128 89.3032 181.253 90.7262 181.965L90.563 181.808C92.0578 182.291 93.1479 182.937 94.3098 183.544C95.4717 184.145 96.725 184.726 98.4482 184.902C98.2133 184.876 98.0958 184.856 98.037 184.883C99.9561 185.281 101.934 185.607 103.944 185.614C105.955 185.62 107.965 185.366 109.852 184.869C110.929 184.615 111.079 184.739 111.764 184.732L111.967 184.497L113.148 184.51C114.8 184.38 115.864 183.518 117.972 183.453L117.73 183.629C118.462 183.473 120.074 183.277 119.924 183.153C120.002 183.166 120.191 183.244 120.465 183.127V183.022L122.313 182.866C123.703 182.533 122.019 182.5 124.062 182.108C124.832 182.01 126.281 182.004 126.007 182.128C125.701 182.187 125.237 182.337 125.231 182.441L125.936 182.369C126.118 182.644 126.706 182.852 125.035 183.375L123.814 183.407L123.455 183.623L124.46 183.446C123.919 183.688 123.533 183.629 123.116 183.623C123.037 183.714 122.874 183.799 122.646 183.871L121.425 183.799C121.308 183.943 121.993 183.936 121.216 184.145C120.642 184.112 121.693 183.786 120.772 183.864C120.23 184.106 120.413 184.184 119.728 184.191C119.65 184.282 119.8 184.308 120.067 184.295C119.454 184.315 118.488 184.543 118.148 184.439C117.587 184.713 116.131 184.765 116.242 185.033C116.04 185 115.152 185 114.604 185.091C115.661 185.248 112.561 185.483 112.894 185.803C112.104 185.633 110.198 186.162 108.833 186.195C108.912 186.208 109.068 186.234 109.179 186.195C108.435 186.338 108.226 186.456 107.75 186.58C107.619 186.345 106.438 186.423 105.785 186.312C104.871 186.625 106.373 186.567 106.105 186.828C106.138 186.632 104.454 186.73 104.767 186.534C104.055 186.71 104.153 186.632 103.781 186.847C103.657 186.527 103.102 186.795 102.508 186.567C101.451 186.658 102.215 186.854 101.072 186.652C100.511 186.691 101.529 186.906 101.529 186.906L101.523 186.9ZM76.8945 176.488C77.0968 176.593 77.2731 176.677 77.384 176.73C77.2796 176.677 77.1425 176.612 76.8945 176.488ZM74.8709 175.568C75.119 175.679 75.4258 175.816 75.7522 175.959C75.8501 175.933 75.7979 175.842 75.5955 175.751C75.6869 175.842 75.1973 175.659 74.8709 175.568ZM79.6882 176.371C79.3814 176.194 79.2574 176.181 79.1987 176.194C79.3488 176.273 79.5185 176.358 79.747 176.475C79.7535 176.488 79.7666 176.501 79.7731 176.514C79.76 176.469 79.7339 176.423 79.6882 176.371Z" fill="#C6B08D"/>
<path d="M80.1649 176.86C80.2106 176.887 80.2302 176.906 80.2891 176.932C80.2172 176.913 80.1518 176.9 80.0799 176.88C80.0472 176.841 80.0211 176.808 79.9884 176.775C80.0472 176.802 80.106 176.834 80.1583 176.86H80.1649Z" fill="#C6B08D"/>
<path d="M109.663 152.492L109.617 152.473C109.656 152.486 109.689 152.499 109.715 152.499C109.682 152.492 109.682 152.499 109.656 152.499L109.663 152.492Z" fill="#C6B08D"/>
<path d="M45.9735 165.313L45.9866 165.273L46.1631 165.365L45.9735 165.313Z" fill="#C6B08D"/>
<path d="M120.145 158.916C120.145 158.916 120.217 158.936 120.302 158.981C120.289 158.981 120.223 158.955 120.145 158.916Z" fill="#C6B08D"/>
<path d="M124.121 162.48L124.695 162.976C124.441 162.767 124.258 162.611 124.121 162.48Z" fill="#C6B08D"/>
<path d="M126.967 165.457C126.974 165.516 126.967 165.549 126.954 165.568L126.974 165.464L126.967 165.457Z" fill="#C6B08D"/>
<path d="M70.5625 134.19C70.5102 134.17 70.4644 134.151 70.4187 134.125C70.0853 133.961 70.3141 134.059 70.5625 134.19Z" fill="#C6B08D"/>
<path d="M88.2979 141.859C88.1218 141.748 87.9456 141.643 87.763 141.539C88.0826 141.656 88.3305 141.761 88.2979 141.859Z" fill="#C6B08D"/>
<path d="M50.0469 127.323C50.0009 127.317 49.9615 127.303 49.9156 127.297L50.0469 127.323Z" fill="#C6B08D"/>
<path d="M86.9284 141.193C87.2611 141.291 87.522 141.409 87.7568 141.539C87.4894 141.441 87.1828 141.33 86.9284 141.193Z" fill="#C6B08D"/>
<path d="M128.024 182.043L127.874 182.187C127.874 182.187 127.854 182.174 127.835 182.187L128.024 182.049V182.043Z" fill="#C6B08D"/>
<path d="M127.835 182.188L127.645 182.325C127.724 182.253 127.796 182.194 127.835 182.188Z" fill="#C6B08D"/>
<path d="M127.221 182.573L127.646 182.324C127.508 182.422 127.338 182.553 127.221 182.573Z" fill="#C6B08D"/>
<path d="M130.791 177.135L130.87 177.082C130.87 177.082 130.824 177.135 130.791 177.135Z" fill="#C6B08D"/>
<path d="M131.04 175.424C131.053 175.633 131.066 175.894 131.053 176.181C131.053 176.468 131.027 176.775 130.936 177.049L130.87 177.088C131.04 176.84 130.949 175.802 131.04 175.424Z" fill="#C6B08D"/>
<path d="M128.455 169.041C128.69 169.426 128.918 169.818 129.114 170.222C128.951 170.04 128.736 169.805 128.977 170.36C128.044 168.937 129.304 170.595 128.455 169.041Z" fill="#C6B08D"/>
<path d="M125.962 165.673C126.405 166.253 125.877 165.731 125.87 165.79C125.622 165.399 125.564 165.301 125.962 165.673Z" fill="#C6B08D"/>
<path d="M101.085 148.211V148.394C100.576 148.132 101.105 148.329 101.085 148.211Z" fill="#C6B08D"/>
<path d="M96.0731 144.992L96.6276 145.116L96.8037 145.364L96.0731 144.992Z" fill="#C6B08D"/>
<path d="M92.4107 144.705L92.626 144.829L91.778 144.398L92.4107 144.705Z" fill="#C6B08D"/>
<path d="M43.8455 127.539L44.0547 127.369C44.4207 127.48 44.4534 127.722 43.8455 127.539Z" fill="#C6B08D"/>
<path d="M23.4932 133.969C23.3234 134.171 22.7947 134.517 22.4031 134.602C22.8404 134.36 23.2516 134.06 23.4932 133.969Z" fill="#C6B08D"/>
<path d="M40.7069 162.147L40.2894 161.965L41.0918 162.239L40.7069 162.147Z" fill="#C6B08D"/>
<path d="M136.074 109.088L136.107 109.362L137.706 108.553L136.074 109.088Z" fill="#625B71"/>
<path d="M131.211 75.3269L132.406 85.203L135.728 109.198L136.074 109.087L131.988 75.34L132.327 74.5567L131.681 74.5371L131.459 74.759L131.211 75.3269Z" fill="#7F5D8F"/>
<path d="M127.967 75.2744L127.653 104.145L126.72 106.287L133.411 109.198L134.396 109.629L135.343 109.511L132.405 85.2027L131.022 75.183L131.459 74.7587L131.733 74.1125L128.992 72.918L127.967 75.2744Z" fill="#7F5D8F"/>
<path d="M131.987 75.3415L136.074 109.089L137.705 108.553L184.762 84.8259L190.382 81.9995L203 75.6352L194.749 47.5931V47.5866L193.666 44.9103L193.32 45.0539L192.275 44.6035L191.747 45.8176L132.784 74.5712L132.327 74.5582L131.987 75.3415Z" fill="#7F5D8F"/>
<path d="M132.405 85.2038L131.211 75.3277L131.459 74.7598L131.021 75.1841L132.405 85.2038Z" fill="#7F5D8F"/>
<path d="M135.728 109.198L132.405 85.2031L135.343 109.512L135.356 109.622L135.663 109.583L136.106 109.361L136.074 109.087L135.728 109.198Z" fill="#625B71"/>
<path d="M131.733 74.1133L131.458 74.7595L131.68 74.5376L132.327 74.5572L132.398 74.4005L131.733 74.1133Z" fill="#625B71"/>
<path d="M30.4065 30.1501L12.0643 56.3384L29.2381 63.8124L34.682 66.1949L126.086 106.013L126.72 106.287L127.653 104.146L127.966 75.2747L128.991 72.9183L31.4901 30.4178L31.1833 29.752L30.4457 30.0914L30.4065 30.1501Z" fill="#7F5D8F"/>
<path d="M27.4168 126.699L27.2405 138.396L27.5016 138.84L40.6806 144.578L40.9026 144.082L41.0723 132.665L27.4168 126.699Z" fill="#E0CDAF"/>
<path d="M27.5538 117.527L27.4167 126.698L41.0722 132.665L41.2158 123.252L28.1282 117.54L27.5538 117.527Z" fill="#E0CDAF"/>
<path d="M27.7042 107.736L27.554 117.528L28.1285 117.541L41.2161 123.252L41.3662 113.461L28.2786 107.749L27.7042 107.736Z" fill="#E0CDAF"/>
<path d="M41.3665 113.46L43.3117 114.309L43.3574 111.385L43.6055 110.817L33.1876 106.235L28.54 104.198L27.7567 104.191L27.7045 107.736L28.2789 107.749L41.3665 113.46Z" fill="#E0CDAF"/>
<path d="M28.37 64.0077L27.7564 104.191L28.5397 104.197L33.1872 106.234L33.1938 106.221L33.7943 66.4294L33.9053 66.1814L28.4613 63.7988L28.37 64.0077Z" fill="#E0CDAF"/>
<path d="M33.52 28.2967L31.0396 29.4455L31.1832 29.7523L31.8163 29.4586L32.2667 30.4312L36.0918 32.0957L36.3073 31.6126L38.1676 30.7053L94.9437 3.08098L95.1787 2.53267L92.5351 1.38383L92.7374 0.861629L90.5638 0L90.3027 0.665804L33.52 28.2967Z" fill="#7F5D8F"/>
<path d="M31.1838 29.7527L31.4906 30.4185L128.992 72.919L131.733 74.1136L132.399 74.4008L132.517 74.1266L126.55 71.5221L118.189 67.8863V67.8798L109.827 64.2375L100.519 60.1774L91.2237 56.1303L83.2471 52.6512L75.5447 49.296L69.1608 46.5088L62.3918 43.5584L56.0144 40.7777L48.5796 37.54L41.5364 34.4656L36.0925 32.1026V32.0961L32.2674 30.4316L31.817 29.459L31.1838 29.7527Z" fill="#625B71"/>
<path d="M33.1934 106.221L33.1869 106.234L43.6048 110.817L59.1468 117.638L71.5359 123.075L72.143 83.4273L72.3584 82.9312L33.905 66.1816L33.794 66.4297L33.1934 106.221Z" fill="#D3B25B"/>
<path d="M36.0919 32.0962V32.1027L41.5358 34.4657L41.7251 34.0414L43.592 33.1341L100.375 5.50321L100.636 4.89616L95.1788 2.5332L94.9438 3.08151L38.1677 30.7059L36.3073 31.6132L36.0919 32.0962Z" fill="#7F5D8F"/>
<path d="M41.7252 34.0417L41.5359 34.466L48.5791 37.5405L48.7031 37.2663L50.57 36.359L107.346 8.72812L107.686 7.94482L100.636 4.89648L100.375 5.50354L43.5921 33.1344L41.7252 34.0417Z" fill="#7F5D8F"/>
<path d="M43.0178 133.515L41.0726 132.666L40.9028 144.083L40.6809 144.579L56.2424 151.367L56.4644 150.845L56.6406 139.455L43.0178 133.515Z" fill="#E0CDAF"/>
<path d="M41.2159 123.252L41.0723 132.665L43.0175 133.513L43.1611 124.101L41.2159 123.252Z" fill="#E0CDAF"/>
<path d="M41.3663 113.461L41.2162 123.252L43.1614 124.101L43.3115 114.31L41.3663 113.461Z" fill="#E0CDAF"/>
<path d="M43.1613 124.102L43.0177 133.514L56.6406 139.454L56.7842 130.048L43.1613 124.102Z" fill="#E0CDAF"/>
<path d="M43.3114 114.309L43.1613 124.1L56.7841 130.046L56.9277 120.255L43.3114 114.309Z" fill="#E0CDAF"/>
<path d="M56.9281 120.257L58.8798 121.106L58.919 118.149L59.1475 117.64L43.6055 110.818L43.3575 111.386L43.3118 114.311L56.9281 120.257Z" fill="#E0CDAF"/>
<path d="M48.7029 37.2649L48.5789 37.539L56.0137 40.7766L56.4706 39.7257L58.3309 38.8184L115.114 11.1875L115.12 11.1679L107.685 7.94336L107.346 8.72666L50.5697 36.3575L48.7029 37.2649Z" fill="#7F5D8F"/>
<path d="M56.4705 39.7257L56.0136 40.7767L62.3909 43.5574L62.6651 42.9438L64.5254 42.0365L121.302 14.4056L121.504 13.9356L115.12 11.168L115.113 11.1876L58.3308 38.8184L56.4705 39.7257Z" fill="#7F5D8F"/>
<path d="M58.5859 140.308L56.6407 139.453L56.4645 150.844L56.2425 151.366L73.6905 158.964L73.9777 158.291L74.1475 147.097L58.5859 140.308Z" fill="#E0CDAF"/>
<path d="M56.7843 130.047L56.6407 139.453L58.5859 140.308L58.7295 130.895L56.7843 130.047Z" fill="#E0CDAF"/>
<path d="M56.9282 120.256L56.7846 130.047L58.7297 130.896L58.8799 121.104L56.9282 120.256Z" fill="#E0CDAF"/>
<path d="M58.7295 130.896L58.5859 140.309L74.1474 147.098L74.291 137.692L58.7295 130.896Z" fill="#E0CDAF"/>
<path d="M58.8799 121.105L58.7297 130.897L74.2913 137.692L74.4414 127.901L58.8799 121.105Z" fill="#E0CDAF"/>
<path d="M74.4414 127.9L76.3866 128.748L76.4323 125.596L76.5693 125.289L71.5366 123.076L59.1475 117.639L58.919 118.148L58.8798 121.105L74.4414 127.9Z" fill="#E0CDAF"/>
<path d="M62.6656 42.9437L62.3915 43.5573L69.1605 46.5077L69.65 45.3915L71.5104 44.4777L128.273 16.8664L121.504 13.9355L121.302 14.4055L64.526 42.0364L62.6656 42.9437Z" fill="#7F5D8F"/>
<path d="M69.6496 45.3923L69.16 46.5085L75.5439 49.2958L75.8442 48.6104L77.7045 47.6965L134.487 20.0722L134.67 19.6414L128.273 16.8672L71.5099 44.4785L69.6496 45.3923Z" fill="#7F5D8F"/>
<path d="M72.1437 83.4277L71.5366 123.076L76.5693 125.289L79.9701 126.783L80.5772 86.8155L80.6816 86.5674L72.3591 82.9316L72.1437 83.4277Z" fill="#E0CDAF"/>
<path d="M76.0925 147.953L74.1473 147.098L73.9776 158.292L73.6904 158.965L90.5835 166.328L90.8381 165.734L91.0078 154.467L76.0925 147.953Z" fill="#E0CDAF"/>
<path d="M75.8445 48.6096L75.5442 49.295L83.2467 52.6502L83.5992 51.8473L85.4595 50.9399L142.242 23.3091L142.386 22.9827L134.67 19.6406L134.487 20.0714L77.7048 47.6958L75.8445 48.6096Z" fill="#7F5D8F"/>
<path d="M74.2911 137.691L74.1475 147.098L76.0927 147.953L76.2363 138.54L74.2911 137.691Z" fill="#E0CDAF"/>
<path d="M74.4406 127.898L74.2904 137.69L76.2356 138.538L76.3857 128.747L74.4406 127.898Z" fill="#E0CDAF"/>
<path d="M76.2361 138.541L76.0924 147.954L91.0078 154.468L91.1514 145.055L76.2361 138.541Z" fill="#E0CDAF"/>
<path d="M76.3855 128.748L76.2353 138.539L91.1506 145.054L91.3008 135.262L76.3855 128.748Z" fill="#E0CDAF"/>
<path d="M91.3014 135.261L93.2466 136.11L93.2922 133.035L93.4424 132.696L79.9696 126.782L76.5688 125.287L76.4317 125.594L76.386 128.747L91.3014 135.261Z" fill="#E0CDAF"/>
<path d="M80.5767 86.8145L79.9696 126.782L93.4424 132.696L111.654 140.692L124.67 146.404L125.283 106.064L125.31 105.999L80.6811 86.5664L80.5767 86.8145Z" fill="#D3B25B"/>
<path d="M83.5984 51.847L83.246 52.6499L91.2225 56.129L91.34 55.8679L93.2004 54.9541L149.983 27.3297L150.368 26.442L142.385 22.9824L142.241 23.3088L85.4588 50.9397L83.5984 51.847Z" fill="#7F5D8F"/>
<path d="M91.3404 55.8693L91.2229 56.1304L100.518 60.1774L100.642 59.9098L102.509 59.0025L159.285 31.3781L159.677 30.4773L150.369 26.4434L149.983 27.3311L93.2008 54.9554L91.3404 55.8693Z" fill="#7F5D8F"/>
<path d="M92.9527 155.309L91.0075 154.467L90.8378 165.733L90.5832 166.327L108.808 174.271L108.997 173.84L109.167 162.391L92.9527 155.309Z" fill="#E0CDAF"/>
<path d="M91.1515 145.055L91.0079 154.467L92.9531 155.309L93.0967 145.897L91.1515 145.055Z" fill="#E0CDAF"/>
<path d="M91.3019 135.264L91.1517 145.055L93.0969 145.897L93.2471 136.112L91.3019 135.264Z" fill="#E0CDAF"/>
<path d="M93.0963 145.896L92.9527 155.309L109.167 162.391L109.311 152.979L93.0963 145.896Z" fill="#E0CDAF"/>
<path d="M93.2466 136.111L93.0965 145.896L109.311 152.978L109.461 143.194L93.2466 136.111Z" fill="#E0CDAF"/>
<path d="M109.461 143.193L111.406 144.036L111.452 141.144L111.654 140.693L93.4426 132.697L93.2925 133.037L93.2468 136.111L109.461 143.193Z" fill="#E0CDAF"/>
<path d="M100.642 59.909L100.518 60.1767L109.826 64.2368L109.95 63.9495L111.811 63.0487L168.587 35.4113L168.979 34.504L159.677 30.4766L159.285 31.3774L102.509 59.0017L100.642 59.909Z" fill="#7F5D8F"/>
<path d="M109.951 63.9494L109.827 64.2366L118.188 67.879L118.482 67.2001L120.342 66.2993L177.125 38.6619L177.354 38.1332L168.979 34.5039L168.587 35.4112L111.811 63.0486L109.951 63.9494Z" fill="#7F5D8F"/>
<path d="M111.113 163.239L109.167 162.391L108.998 173.84L108.808 174.271L128.796 182.978L131.132 183.246L131.309 171.568L130.153 171.549L111.113 163.239Z" fill="#E0CDAF"/>
<path d="M109.311 152.979L109.167 162.391L111.112 163.24L111.256 153.827L109.311 152.979Z" fill="#E0CDAF"/>
<path d="M109.461 143.193L109.311 152.978L111.256 153.827L111.406 144.035L109.461 143.193Z" fill="#E0CDAF"/>
<path d="M111.256 153.826L111.112 163.239L130.153 171.548L131.309 171.568L131.322 170.883L131.452 162.429L130.95 162.423L111.256 153.826Z" fill="#E0CDAF"/>
<path d="M111.406 144.035L111.256 153.826L130.949 162.423L131.452 162.43L131.459 161.744L131.596 152.638L131.093 152.632L111.406 144.035Z" fill="#E0CDAF"/>
<path d="M124.67 146.405L111.654 140.693L111.451 141.144L111.406 144.035L131.093 152.632L131.595 152.639V152.606L131.647 149.466L131.308 149.329L124.67 146.405Z" fill="#E0CDAF"/>
<path d="M118.189 67.8786V67.8851L126.55 71.5209L127.02 70.4504L128.881 69.5431L185.657 41.9188L185.729 41.7621L177.354 38.1328L177.125 38.6615L120.343 66.2989L118.482 67.1997L118.189 67.8786Z" fill="#7F5D8F"/>
<path d="M125.284 106.065L124.67 146.405L131.308 149.329L131.648 149.153L132.248 110.067L132.627 109.185L125.31 106L125.284 106.065Z" fill="#E0CDAF"/>
<path d="M127.02 70.452L126.55 71.5225L132.516 74.127L132.399 74.4011L132.784 74.5708L191.747 45.8172L192.275 44.6031L185.728 41.7637L185.657 41.9203L128.88 69.5447L127.02 70.452Z" fill="#7F5D8F"/>
<path d="M131.308 171.568L131.132 183.246L131.504 183.291L131.55 182.9L141.746 177.932L141.576 177.599L141.759 165.941L137.483 168.024L131.974 170.706L131.635 170.876L131.609 170.889L131.321 170.883L131.308 171.568Z" fill="#E0CDAF"/>
<path d="M131.452 162.431L131.322 170.884L131.609 170.891L131.635 170.878L131.975 170.708L137.484 168.025L141.759 165.943L141.896 156.805L137.621 158.887L132.118 161.57L131.772 161.739L131.746 161.753L131.459 161.746L131.452 162.431Z" fill="#E0CDAF"/>
<path d="M131.596 152.639L131.459 161.745L131.746 161.752L131.772 161.739L132.118 161.569L137.621 158.886L141.896 156.804L142.033 147.672L137.758 149.754L132.255 152.43L131.909 152.6L131.883 152.613L131.596 152.607V152.639Z" fill="#E0CDAF"/>
<path d="M144.005 146.712L153.874 141.914L155.845 140.955L166.368 135.831L168.339 134.878L168.385 131.992L168.104 131.418L137.157 146.477L131.648 149.153V149.466L131.596 152.606L131.883 152.613L131.909 152.6L132.255 152.43L137.758 149.754L142.033 147.671L144.005 146.712Z" fill="#E0CDAF"/>
<path d="M132.248 110.067L131.648 149.154L137.157 146.477L137.731 108.592L137.705 108.553L136.106 109.362L136.126 109.525L135.662 109.584L135.368 109.728L135.355 109.623L134.585 109.721L134.396 109.63L133.808 109.708L132.627 109.186L132.248 110.067Z" fill="#E0CDAF"/>
<path d="M134.396 109.629L134.585 109.721L135.355 109.623L135.342 109.512L134.396 109.629Z" fill="#FFFFC9"/>
<path d="M135.355 109.623L135.368 109.728L135.662 109.584L135.355 109.623Z" fill="#625B71"/>
<path d="M135.662 109.584L136.126 109.525L136.106 109.361L135.662 109.584Z" fill="#FFFFC9"/>
<path d="M137.706 108.552L137.732 108.591L137.158 146.476L168.105 131.417L184.554 123.415L184.332 122.958L184.913 85.118L184.763 84.8242L137.706 108.552Z" fill="#D3B25B"/>
<path d="M143.731 164.989L141.759 165.942L141.577 177.6L141.746 177.933L153.555 172.189L153.418 171.902L153.594 160.191L143.731 164.989Z" fill="#E0CDAF"/>
<path d="M141.896 156.803L141.759 165.941L143.73 164.988L143.867 155.85L141.896 156.803Z" fill="#E0CDAF"/>
<path d="M142.033 147.67L141.896 156.802L143.867 155.849L144.004 146.711L142.033 147.67Z" fill="#E0CDAF"/>
<path d="M143.867 155.85L143.73 164.989L153.593 160.191L153.73 151.053L143.867 155.85Z" fill="#E0CDAF"/>
<path d="M144.004 146.712L143.867 155.85L153.73 151.053L153.874 141.914L144.004 146.712Z" fill="#E0CDAF"/>
<path d="M155.565 159.225L153.594 160.191L153.418 171.901L153.555 172.189L166.159 166.059L165.918 165.563L166.094 154.107L155.565 159.225Z" fill="#E0CDAF"/>
<path d="M153.73 151.052L153.593 160.191L155.564 159.224L155.708 150.086L153.73 151.052Z" fill="#E0CDAF"/>
<path d="M153.874 141.915L153.731 151.053L155.709 150.087L155.846 140.955L153.874 141.915Z" fill="#E0CDAF"/>
<path d="M155.708 150.086L155.565 159.225L166.093 154.107L166.23 144.969L155.708 150.086Z" fill="#E0CDAF"/>
<path d="M155.846 140.954L155.709 150.086L166.231 144.969L166.368 135.83L155.846 140.954Z" fill="#E0CDAF"/>
<path d="M168.065 153.148L166.093 154.108L165.917 165.563L166.159 166.059L177.967 160.309L177.751 159.871L177.928 148.344L168.065 153.148Z" fill="#E0CDAF"/>
<path d="M166.231 144.969L166.094 154.108L168.065 153.148L168.202 144.01L166.231 144.969Z" fill="#E0CDAF"/>
<path d="M166.368 135.83L166.23 144.968L168.202 144.009L168.339 134.877L166.368 135.83Z" fill="#E0CDAF"/>
<path d="M178.208 130.065L180.18 129.112L185.16 126.691L190.291 124.19L190.304 120.803H189.925L184.553 123.414L168.104 131.416L168.384 131.991L168.339 134.876L178.208 130.065Z" fill="#E0CDAF"/>
<path d="M168.202 144.009L168.065 153.148L177.928 148.344L178.065 139.205L168.202 144.009Z" fill="#E0CDAF"/>
<path d="M168.338 134.877L168.201 144.009L178.064 139.205L178.208 130.066L168.338 134.877Z" fill="#E0CDAF"/>
<path d="M179.899 147.39L177.928 148.343L177.752 159.871L177.967 160.308L190.193 154.361L190.232 142.357L184.88 144.962L179.899 147.39Z" fill="#E0CDAF"/>
<path d="M178.065 139.205L177.928 148.343L179.899 147.39L180.043 138.252L178.065 139.205Z" fill="#E0CDAF"/>
<path d="M178.208 130.066L178.065 139.205L180.043 138.252L180.18 129.113L178.208 130.066Z" fill="#E0CDAF"/>
<path d="M180.043 138.251L179.9 147.39L184.88 144.962L190.233 142.357L190.259 133.277L185.017 135.823L180.043 138.251Z" fill="#E0CDAF"/>
<path d="M180.18 129.113L180.043 138.252L185.017 135.823L190.258 133.278L190.291 124.191L185.16 126.691L180.18 129.113Z" fill="#E0CDAF"/>
<path d="M184.763 84.8244L184.913 85.1182L184.332 122.958L184.554 123.415L189.926 120.804H190.304L190.422 82.0764L190.383 81.998L184.763 84.8244Z" fill="#E0CDAF"/>
<path d="M131.458 74.7598L131.21 75.3273" stroke="#603813" stroke-linecap="round" stroke-linejoin="round"/>
<path d="M132.784 74.5717L132.327 74.5586" stroke="#603813" stroke-linecap="round" stroke-linejoin="round"/>
<path d="M192.275 44.6035L191.747 45.8176" stroke="#603813" stroke-linecap="round" stroke-linejoin="round"/>
<path d="M193.319 45.0537L192.275 44.6033L185.728 41.7638L177.353 38.1345L168.978 34.5053L159.677 30.4778L150.368 26.4438L142.385 22.9842L134.67 19.6422L128.273 16.868L121.504 13.9371L115.12 11.1695L107.685 7.9449L100.635 4.89656L95.1785 2.5336L92.5349 1.38477" stroke="#603813" stroke-linecap="round" stroke-linejoin="round"/>
<path d="M31.4906 30.418L128.992 72.9185L131.733 74.113L132.399 74.4002L132.784 74.5699" stroke="#603813" stroke-linecap="round" stroke-linejoin="round"/>
<path d="M132.248 110.066L131.648 149.153V149.466L131.595 152.606V152.639L131.458 161.745L131.452 162.43L131.321 170.883L131.308 171.568L131.132 183.246V183.409" stroke="#603813" stroke-linecap="round" stroke-linejoin="round"/>
<path d="M191.746 45.8164L132.783 74.57" stroke="#603813" stroke-linecap="round" stroke-linejoin="round"/>
<path d="M90.3027 0.666016L33.5201 28.2969L31.6532 29.2042" stroke="#603813" stroke-linecap="round" stroke-linejoin="round"/>
<path d="M94.9443 3.08008L38.1682 30.7044L36.3079 31.6117" stroke="#603813" stroke-linecap="round" stroke-linejoin="round"/>
<path d="M100.375 5.50391L43.5923 33.1348L41.7255 34.0421" stroke="#603813" stroke-linecap="round" stroke-linejoin="round"/>
<path d="M107.346 8.72656L50.5696 36.3574L48.7027 37.2648" stroke="#603813" stroke-linecap="round" stroke-linejoin="round"/>
<path d="M115.113 11.1895L58.3306 38.8203L56.4703 39.7276" stroke="#603813" stroke-linecap="round" stroke-linejoin="round"/>
<path d="M121.302 14.4062L64.5256 42.0371L62.6653 42.9444" stroke="#603813" stroke-linecap="round" stroke-linejoin="round"/>
<path d="M128.293 16.8535L128.273 16.8666L71.5103 44.4779L69.65 45.3917" stroke="#603813" stroke-linecap="round" stroke-linejoin="round"/>
<path d="M134.487 20.0723L77.7047 47.6966L75.8443 48.6105" stroke="#603813" stroke-linecap="round" stroke-linejoin="round"/>
<path d="M142.242 23.3086L85.4595 50.9395L83.5992 51.8468" stroke="#603813" stroke-linecap="round" stroke-linejoin="round"/>
<path d="M152.667 28.8008L96.0345 57.6784" stroke="#603813" stroke-linecap="round" stroke-linejoin="round"/>
<path d="M146.831 26.1035L90.1985 54.9746" stroke="#603813" stroke-linecap="round" stroke-linejoin="round"/>
<path d="M159.285 31.377L102.509 59.0013L100.642 59.9086" stroke="#603813" stroke-linecap="round" stroke-linejoin="round"/>
<path d="M168.587 35.4121L111.811 63.0495L109.95 63.9503" stroke="#603813" stroke-linecap="round" stroke-linejoin="round"/>
<path d="M177.125 38.6621L120.342 66.2995L118.482 67.2003" stroke="#603813" stroke-linecap="round" stroke-linejoin="round"/>
<path d="M185.656 41.9199L128.88 69.5443L127.02 70.4516" stroke="#603813" stroke-linecap="round" stroke-linejoin="round"/>
<path d="M194.749 47.5918L203 75.6339L190.382 81.9982L184.762 84.8246L137.706 108.552L136.106 109.361L135.662 109.583L135.369 109.727L135.356 109.623L135.343 109.512L132.405 85.2032L131.211 75.3271" stroke="#603813" stroke-linecap="round" stroke-linejoin="round"/>
<path d="M194.259 45.9277L194.749 47.5857" stroke="#603813" stroke-linecap="round" stroke-linejoin="round"/>
<path d="M27.5013 138.84L40.6803 144.578L56.2418 151.366L73.6898 158.964L90.583 166.327L108.808 174.271L128.795 182.979" stroke="#603813" stroke-linecap="round" stroke-linejoin="round"/>
<path d="M28.5392 104.197L33.1868 106.234L43.6046 110.816L59.1466 117.637L71.5358 123.075L76.5685 125.288L79.9693 126.782L93.442 132.696L111.654 140.692L124.67 146.404L131.308 149.328L131.647 149.465" stroke="#603813" stroke-linecap="round" stroke-linejoin="round"/>
<path d="M189.926 120.805L184.554 123.416L168.104 131.418L137.158 146.477L131.648 149.154L131.309 149.33L131.283 149.343" stroke="#603813" stroke-linecap="round" stroke-linejoin="round"/>
<path d="M190.526 124.074L190.291 124.192L185.161 126.692L180.18 129.113L178.209 130.066L168.339 134.877L166.368 135.83L155.846 140.954L153.874 141.914L144.005 146.712L142.034 147.671L137.758 149.753L132.255 152.43L131.909 152.599L131.883 152.612" stroke="#603813" stroke-linecap="round" stroke-linejoin="round"/>
<path d="M190.389 133.213L190.258 133.278L185.017 135.824L180.043 138.252L178.065 139.205L168.202 144.009L166.23 144.969L155.708 150.086L153.73 151.053L143.867 155.85L141.896 156.803L137.62 158.886L132.118 161.568L131.772 161.738L131.746 161.751" stroke="#603813" stroke-linecap="round" stroke-linejoin="round"/>
<path d="M190.245 142.352L190.232 142.358L184.88 144.963L179.899 147.391L177.928 148.344L168.065 153.148L166.093 154.108L155.565 159.225L153.593 160.191L143.73 164.989L141.759 165.942L137.483 168.024L131.974 170.707L131.635 170.877L131.609 170.89" stroke="#603813" stroke-linecap="round" stroke-linejoin="round"/>
<path d="M30.4066 30.1504L12.0643 56.3387L12.0187 56.3974L28.4614 63.7996L33.9053 66.1821L72.3588 82.9317L80.6813 86.5675L125.31 106L132.627 109.185L133.809 109.707" stroke="#603813" stroke-linecap="round" stroke-linejoin="round"/>
<path d="M190.422 82.0762L190.304 120.804L190.291 124.192L190.259 133.278L190.233 142.358L190.193 154.362L177.967 160.308L166.159 166.059L153.555 172.188L141.746 177.932L131.55 182.9" stroke="#603813" stroke-linecap="round" stroke-linejoin="round"/>
<path d="M28.3701 64.0098L27.7565 104.193L27.7043 107.737L27.5542 117.529L27.4171 126.7L27.2409 138.397" stroke="#603813" stroke-linecap="round" stroke-linejoin="round"/>
<path d="M33.7939 66.4297L33.1934 106.221" stroke="#603813" stroke-linecap="round" stroke-linejoin="round"/>
<path d="M125.283 106.064L124.67 146.404L124.657 147.024" stroke="#603813" stroke-linecap="round" stroke-linejoin="round"/>
<path d="M137.731 108.592L137.157 146.477L137.144 147.215" stroke="#603813" stroke-linecap="round" stroke-linejoin="round"/>
<path d="M184.913 85.1191L184.332 122.959" stroke="#603813" stroke-linecap="round" stroke-linejoin="round"/>
<path d="M28.2782 107.75L41.3659 113.462L43.3111 114.31L56.9274 120.257L58.8791 121.105L74.4407 127.9L76.3859 128.749L91.3012 135.263L93.2464 136.112L109.461 143.194L111.406 144.036L131.093 152.633" stroke="#603813" stroke-linecap="round" stroke-linejoin="round"/>
<path d="M28.1282 117.541L41.2158 123.253L43.161 124.101L56.7839 130.048L58.729 130.896L74.2906 137.691L76.2358 138.54L91.1511 145.054L93.0963 145.896L109.311 152.979L111.256 153.827L130.949 162.424" stroke="#603813" stroke-linecap="round" stroke-linejoin="round"/>
<path d="M27.3388 126.666L27.4171 126.699L41.0726 132.665L43.0178 133.513L56.6407 139.453L58.5859 140.308L74.1474 147.097L76.0926 147.952L91.0079 154.467L92.9531 155.309L109.167 162.391L111.113 163.24L130.153 171.549" stroke="#603813" stroke-linecap="round" stroke-linejoin="round"/>
<path d="M72.1436 83.4277L71.5365 123.076L71.53 123.781" stroke="#603813" stroke-linecap="round" stroke-linejoin="round"/>
<path d="M80.5771 86.8145L79.9701 126.782L79.9636 127.174" stroke="#603813" stroke-linecap="round" stroke-linejoin="round"/>
<path d="M180.226 126.295L180.18 129.115L180.043 138.253L179.899 147.392L179.729 158.599" stroke="#603813" stroke-linecap="round" stroke-linejoin="round"/>
<path d="M178.248 127.572L178.209 130.066L178.065 139.204L177.928 148.343L177.752 159.87" stroke="#603813" stroke-linecap="round" stroke-linejoin="round"/>
<path d="M168.385 131.992L168.339 134.877L168.202 144.009L168.065 153.148L167.895 164.29" stroke="#603813" stroke-linecap="round" stroke-linejoin="round"/>
<path d="M166.407 133.266L166.368 135.831L166.231 144.969L166.094 154.108L165.918 165.564" stroke="#603813" stroke-linecap="round" stroke-linejoin="round"/>
<path d="M155.885 138.33L155.846 140.954L155.709 150.086L155.565 159.225L155.395 170.628" stroke="#603813" stroke-linecap="round" stroke-linejoin="round"/>
<path d="M153.906 139.604L153.874 141.914L153.73 151.053L153.593 160.191L153.417 171.902" stroke="#603813" stroke-linecap="round" stroke-linejoin="round"/>
<path d="M144.05 144.023L144.004 146.713L143.867 155.851L143.73 164.99L143.554 176.328" stroke="#603813" stroke-linecap="round" stroke-linejoin="round"/>
<path d="M111.452 141.145L111.406 144.036L111.256 153.827L111.113 163.24L110.943 174.526" stroke="#603813" stroke-linecap="round" stroke-linejoin="round"/>
<path d="M109.5 140.465L109.461 143.193L109.311 152.978L109.167 162.391L108.997 173.84" stroke="#603813" stroke-linecap="round" stroke-linejoin="round"/>
<path d="M93.292 133.037L93.2463 136.112L93.0962 145.896L92.9526 155.309L92.7894 166.412" stroke="#603813" stroke-linecap="round" stroke-linejoin="round"/>
<path d="M91.3477 132.352L91.302 135.263L91.1518 145.054L91.0082 154.467L90.8385 165.733" stroke="#603813" stroke-linecap="round" stroke-linejoin="round"/>
<path d="M76.4316 125.596L76.3859 128.748L76.2358 138.54L76.0922 147.952L75.929 158.977" stroke="#603813" stroke-linecap="round" stroke-linejoin="round"/>
<path d="M74.4873 124.916L74.4416 127.899L74.2915 137.69L74.1479 147.096L73.9782 158.291" stroke="#603813" stroke-linecap="round" stroke-linejoin="round"/>
<path d="M58.9189 118.148L58.8798 121.105L58.7296 130.897L58.586 140.309L58.4163 151.53" stroke="#603813" stroke-linecap="round" stroke-linejoin="round"/>
<path d="M56.9736 117.469L56.9279 120.256L56.7843 130.047L56.6407 139.453L56.4645 150.844" stroke="#603813" stroke-linecap="round" stroke-linejoin="round"/>
<path d="M43.3574 111.385L43.3117 114.309L43.1616 124.1L43.018 133.513L42.8483 144.76" stroke="#603813" stroke-linecap="round" stroke-linejoin="round"/>
<path d="M41.4053 110.699L41.3661 113.46L41.216 123.252L41.0724 132.664L40.9027 144.081" stroke="#603813" stroke-linecap="round" stroke-linejoin="round"/>
<path d="M142.072 145.303L142.033 147.672L141.896 156.804L141.759 165.943L141.576 177.601" stroke="#603813" stroke-linecap="round" stroke-linejoin="round"/>
<path d="M192.171 48.918L199.893 74.8125" stroke="#603813" stroke-linecap="round" stroke-linejoin="round"/>
<path d="M189.024 50.4258L196.746 76.3269" stroke="#603813" stroke-linecap="round" stroke-linejoin="round"/>
<path d="M185.102 51.9258L192.824 77.8269" stroke="#603813" stroke-linecap="round" stroke-linejoin="round"/>
<path d="M181.172 53.4277L188.9 79.3288" stroke="#603813" stroke-linecap="round" stroke-linejoin="round"/>
<path d="M177.243 55.7129L184.965 81.6074" stroke="#603813" stroke-linecap="round" stroke-linejoin="round"/>
<path d="M173.306 57.998L181.021 83.8861" stroke="#603813" stroke-linecap="round" stroke-linejoin="round"/>
<path d="M169.364 60.2754L177.093 86.1699" stroke="#603813" stroke-linecap="round" stroke-linejoin="round"/>
<path d="M165.434 62.5605L173.156 88.4486" stroke="#603813" stroke-linecap="round" stroke-linejoin="round"/>
<path d="M161.505 64.0547L169.227 89.9558" stroke="#603813" stroke-linecap="round" stroke-linejoin="round"/>
<path d="M158.366 65.5703L166.081 91.4714" stroke="#603813" stroke-linecap="round" stroke-linejoin="round"/>
<path d="M154.435 67.0703L162.157 92.9649" stroke="#603813" stroke-linecap="round" stroke-linejoin="round"/>
<path d="M150.499 69.3555L158.228 95.2435" stroke="#603813" stroke-linecap="round" stroke-linejoin="round"/>
<path d="M147.34 71.6465L155.062 97.541" stroke="#603813" stroke-linecap="round" stroke-linejoin="round"/>
<path d="M144.37 74.2109L152.092 100.105" stroke="#603813" stroke-linecap="round" stroke-linejoin="round"/>
<path d="M141.041 75.4512L147.203 101.326" stroke="#603813" stroke-linecap="round" stroke-linejoin="round"/>
<path d="M137.901 76.9648L143.267 103.604" stroke="#603813" stroke-linecap="round" stroke-linejoin="round"/>
<path d="M133.985 77.6895L139.344 105.105" stroke="#603813" stroke-linecap="round" stroke-linejoin="round"/>
<path d="M127.967 75.2754L127.653 104.146" stroke="#603813" stroke-linecap="round" stroke-linejoin="round"/>
<path d="M124.271 73.6641L120.681 100.923" stroke="#603813" stroke-linecap="round" stroke-linejoin="round"/>
<path d="M120.839 72.4297L116.015 99.2903" stroke="#603813" stroke-linecap="round" stroke-linejoin="round"/>
<path d="M117.229 71.209L111.373 96.8751" stroke="#603813" stroke-linecap="round" stroke-linejoin="round"/>
<path d="M114.05 70.2559L107.483 96.0329" stroke="#603813" stroke-linecap="round" stroke-linejoin="round"/>
<path d="M110.636 68.3828L102.835 93.6246" stroke="#603813" stroke-linecap="round" stroke-linejoin="round"/>
<path d="M106.373 66.3652L98.181 91.9922" stroke="#603813" stroke-linecap="round" stroke-linejoin="round"/>
<path d="M101.753 65.0859L93.5805 89.1593" stroke="#603813" stroke-linecap="round" stroke-linejoin="round"/>
<path d="M97.6396 63.3047L89.4672 87.365" stroke="#603813" stroke-linecap="round" stroke-linejoin="round"/>
<path d="M93.7627 61.6797L85.5903 85.7466" stroke="#603813" stroke-linecap="round" stroke-linejoin="round"/>
<path d="M89.8789 60.0527L81.713 84.1261" stroke="#603813" stroke-linecap="round" stroke-linejoin="round"/>
<path d="M86.0078 58.4336L77.8354 82.507" stroke="#603813" stroke-linecap="round" stroke-linejoin="round"/>
<path d="M81.3604 56.0332L73.1879 80.0935" stroke="#603813" stroke-linecap="round" stroke-linejoin="round"/>
<path d="M77.4697 55.1836L69.2973 79.257" stroke="#603813" stroke-linecap="round" stroke-linejoin="round"/>
<path d="M72.8291 52.7812L64.6567 76.8416" stroke="#603813" stroke-linecap="round" stroke-linejoin="round"/>
<path d="M68.6904 51.1816L60.518 75.242" stroke="#603813" stroke-linecap="round" stroke-linejoin="round"/>
<path d="M64.3691 49.1133L56.2033 73.1736" stroke="#603813" stroke-linecap="round" stroke-linejoin="round"/>
<path d="M60.4922 47.4941L52.3263 71.5545" stroke="#603813" stroke-linecap="round" stroke-linejoin="round"/>
<path d="M56.6211 45.8691L48.4487 69.936" stroke="#603813" stroke-linecap="round" stroke-linejoin="round"/>
<path d="M52.7373 44.25L43.9252 67.7555" stroke="#603813" stroke-linecap="round" stroke-linejoin="round"/>
<path d="M48.9453 42.0176L39.2781 65.3468" stroke="#603813" stroke-linecap="round" stroke-linejoin="round"/>
<path d="M44.9365 40.4785L35.3542 63.1942" stroke="#603813" stroke-linecap="round" stroke-linejoin="round"/>
<path d="M40.335 38.6035L30.7395 62.096" stroke="#603813" stroke-linecap="round" stroke-linejoin="round"/>
<path d="M36.458 36.9844L26.8626 60.4768" stroke="#603813" stroke-linecap="round" stroke-linejoin="round"/>
<path d="M33.3633 35.3652L22.2078 58.8446" stroke="#603813" stroke-linecap="round" stroke-linejoin="round"/>
<path d="M30.2764 32.9844L16.7906 55.6348" stroke="#603813" stroke-linecap="round" stroke-linejoin="round"/>
</svg>
