<svg width="51" height="141" viewBox="0 0 51 141" fill="none" xmlns="http://www.w3.org/2000/svg">
<path d="M36.1476 24.3068L37.1604 23.658L37.22 23.2277C37.6569 23.2675 38.1865 23.2277 38.716 22.9563C39.9936 22.3208 41.2712 19.1235 39.987 17.8459C39.6494 17.5083 39.2258 17.323 38.7822 17.2435C37.551 17.0052 36.1873 17.5215 36.1873 17.5215L35.1414 17.4553C35.2076 16.3962 35.1877 15.2377 34.8898 14.642C34.2477 13.3644 32.9701 10.167 31.0703 9.53154C29.177 8.88943 27.2639 9.53154 27.2639 9.53154L23.7687 8.77027C23.7687 8.77027 23.3781 8.88943 22.6897 8.77027C22.0012 8.65112 20.1808 10.167 19.6446 11.5969L18.9893 12.7222C18.698 13.7483 18.5259 15.4032 18.5193 17.1906C18.5193 19.8715 18.9032 22.8637 19.8564 24.5715C21.0943 26.7759 25.8738 27.6762 27.9788 27.9741L27.906 28.4639V31.8069L27.5552 31.8731C28.0252 32.8131 28.8593 34.6931 29.8191 36.9173C29.8191 36.9173 32.8973 33.4618 34.3801 31.9459L34.1021 31.8069L33.2415 30.2645L32.0301 28.0932C32.0301 28.0932 35.7636 25.7432 36.1343 24.2935L36.1476 24.3068ZM21.4584 15.3304C21.3393 15.2841 20.8097 15.0987 20.8229 14.8472C20.8229 14.5559 21.5246 14.2183 22.1005 14.3639C22.6698 14.5096 22.9677 15.0921 22.7426 15.337C22.5242 15.5687 21.849 15.476 21.4584 15.337V15.3304ZM27.8464 15.3966C27.8464 15.1252 28.5415 14.6486 29.1307 14.6486C29.7198 14.6486 30.4083 15.1252 30.4083 15.3966C30.4083 15.668 29.7132 15.9262 29.1307 15.9262C28.5481 15.9262 27.8464 15.6614 27.8464 15.3966Z" fill="#E2C392"/>
<path d="M38.1656 3.84545L38.1921 3.7263L36.3982 3.15039C36.557 4.22941 36.2393 6.11603 36.1863 6.42715C36.7027 6.53307 37.2521 6.73165 37.8082 7.04278C38.8673 7.63194 40.1913 8.96251 41.2703 10.3593C41.2703 10.3593 41.9124 8.26081 41.2703 6.34109C40.7606 4.82518 39.4565 4.10362 38.1656 3.84545Z" fill="#E2C392"/>
<path d="M17.4008 14.2659L18.1157 17.1985H18.5195C18.5195 15.4111 18.6983 13.7562 18.9895 12.7368L19.6449 11.6114C20.1811 10.1816 22.0015 8.66563 22.69 8.78478C23.3784 8.90394 23.769 8.78478 23.769 8.78478L27.2642 9.54605C27.2642 9.54605 29.1773 8.90394 31.0705 9.54605C32.9704 10.1815 34.248 13.3789 34.8901 14.6565C35.188 15.2589 35.2079 16.4107 35.1417 17.4699L36.1876 17.5361C36.1876 17.5361 37.5579 17.0131 38.7825 17.258L38.7957 17.1918C38.7957 17.1918 41.2781 17.2117 42.0593 17.1918C42.8404 17.1654 43.1979 15.9407 43.2641 14.2725C43.2905 13.4186 42.43 11.8497 41.2848 10.3669C40.2057 8.97014 38.8818 7.64619 37.8226 7.05042C37.2666 6.73267 36.7171 6.5407 36.2008 6.43478C36.2538 6.11703 36.5715 4.23041 36.4126 3.15802C36.3663 2.87337 36.2935 2.64168 36.1677 2.5159C35.5322 1.87379 26.5824 0.596189 25.5298 1.14563C24.4707 1.70168 22.7495 3.1514 21.8294 3.81337C21.4521 4.08478 21.3263 4.66732 21.2998 5.30281H21.227L19.9957 6.30239C18.877 7.13647 17.0632 8.65239 17.2552 9.54605C17.4471 10.4927 17.2022 12.5183 17.4008 14.2725V14.2659Z" fill="#E2C392"/>
<path d="M27.5947 29.7227C27.5947 29.7227 25.7081 30.0801 23.5501 30.5237L23.7619 31.8145C24.6556 32.5427 29.766 50.4358 29.766 50.4358L29.5145 51.1441C30.1632 51.3956 30.9642 51.7068 31.8314 52.0378L32.0432 51.4287L35.5781 50.5285C35.5781 50.5285 32.2947 42.6113 29.8256 36.9249C28.8657 34.7073 28.0316 32.8207 27.5616 31.8807L27.9125 31.8145V29.7227H27.5947Z" fill="#E2C392"/>
<path d="M23.5502 30.5242C21.2532 30.981 18.6516 31.5304 17.705 31.815C15.878 32.3645 13.7862 39.5667 12.4093 41.6321C12.0716 42.1418 11.6281 43.5452 11.178 45.412C9.78121 51.1446 8.20572 61.2265 8.73529 62.9807C8.98684 63.8214 9.72827 66.2045 10.569 68.8855C12.0253 73.5789 13.7928 79.2056 13.7928 79.2056C13.7928 79.2056 15.0969 79.2057 16.8114 79.1064C19.7439 78.9475 23.8746 78.4973 24.7286 77.2926C25.1125 76.7564 25.1721 75.5913 25.0463 74.1482C24.9735 73.1287 24.8014 71.9703 24.6028 70.7854C24.1593 68.111 23.5436 65.3042 23.3781 63.6625C23.3517 63.4044 23.3318 63.1793 23.3318 62.9807C23.3185 61.8289 23.4973 60.0018 23.7224 58.241L24.4174 58.3337L28.2039 57.301L27.8994 56.1889C27.1977 55.5468 27.8994 50.5224 27.8994 50.5224C27.8994 50.5224 28.5283 50.7673 29.5014 51.138L29.7529 50.4297C29.7529 50.4297 24.6425 32.5366 23.7488 31.8084L23.537 30.5176L23.5502 30.5242Z" fill="#E2C392"/>
<path d="M32.2085 63.967L32.9102 64.1258V62.9806L33.5986 61.948L32.2813 61.1867L32.9102 60.1077L28.9979 57.0957L28.2168 57.3075L24.4303 58.3402L23.7352 58.2475C23.5102 60.0018 23.3314 61.8354 23.3447 62.9873C23.3447 63.1792 23.3645 63.4109 23.391 63.6691L24.4303 63.5632C24.4303 63.5632 26.5751 64.5098 27.6012 65.0592C28.0248 65.2843 28.892 65.3373 29.779 65.377C30.5734 65.3968 31.3744 65.4101 31.8643 65.5028L32.2151 63.9736L32.2085 63.967Z" fill="#E2C392"/>
<path d="M39.3582 69.6137C37.4385 70.2558 29.7662 65.7809 29.7662 65.7809L29.7794 65.3704C28.8924 65.3373 28.0252 65.2778 27.6016 65.0527C26.5755 64.5033 24.4307 63.5566 24.4307 63.5566L23.3914 63.6626C23.5569 65.3043 24.1725 68.1176 24.616 70.7854C24.808 71.9703 24.9801 73.1288 25.0596 74.1482L25.94 74.082C25.94 74.082 37.0479 75.6641 39.9341 75.0352C40.2254 74.969 40.4306 74.8896 40.5365 74.7771C41.6023 73.6649 40.8079 72.394 40.1724 71.4473L40.5365 71.1892V69.0245C40.1062 69.2827 39.709 69.4879 39.3714 69.6005L39.3582 69.6137Z" fill="#E2C392"/>
<path d="M7.46351 68.4404C6.21238 70.6117 2.24055 77.8537 3.4321 80.2301C4.61703 82.6 12.746 84.2615 15.2681 84.7249L15.7382 84.811L17.6182 85.1618C17.0621 82.4874 16.7113 80.4486 16.8569 79.9058L16.8172 79.1114C15.1027 79.2107 13.7986 79.2107 13.7986 79.2107C13.7986 79.2107 12.0377 73.5839 10.5748 68.8905L10.2967 68.9766C10.2967 68.9766 9.35013 68.0829 8.1652 66.8848L7.47674 68.4404H7.46351Z" fill="#E2C392"/>
<path d="M7.79506 66.5217L8.26506 66.6343L8.15914 66.8858C9.35069 68.084 10.2907 68.9777 10.2907 68.9777L10.5687 68.8916C9.72803 66.2106 8.9866 63.8275 8.73505 62.9868C8.20548 61.2326 9.78097 51.1507 11.1777 45.4181H10.2841C7.39125 45.332 4.27999 45.332 3.92252 46.9274C3.56506 48.5227 0.963502 60.6633 0.983361 61.9475C1.00322 62.8875 2.92955 64.6881 3.95561 65.5817L7.79506 66.5217Z" fill="#E2C392"/>
<path d="M46.0771 51.4289H45.2099V65.3237C45.2099 65.3237 43.224 67.164 41.3903 68.4681L41.4035 68.4879L43.2571 73.7374C43.2571 73.7374 45.1106 72.1817 47.5003 69.6861C49.8834 67.1905 50.2276 63.2319 49.89 60.0412C49.6054 57.2807 48.6323 55.4802 47.0369 53.8054L46.2161 50.9258C46.2359 51.2634 46.0837 51.4421 46.0837 51.4421L46.0771 51.4289Z" fill="#E2C392"/>
<path d="M45.2096 50.5286V51.4289H46.0767C46.0767 51.4289 46.229 51.2502 46.2092 50.9126L46.0767 50.4359C45.7656 49.8004 44.4615 44.0413 43.2501 41.1286C42.2108 38.6396 40.1124 35.0848 38.8944 33.5225L38.1927 32.139L33.486 30.1465L33.2543 30.2789L34.1149 31.8213L34.3929 31.9603C32.9101 33.4762 29.8319 36.9317 29.8319 36.9317C32.3011 42.618 35.5845 50.5352 35.5845 50.5352L32.0496 51.4355L31.8377 52.0445C35.28 53.3618 39.7682 55.0433 40.0991 54.9969C40.6353 54.9175 45.2162 50.5352 45.2162 50.5352L45.2096 50.5286Z" fill="#E2C392"/>
<path d="M45.21 51.4296V50.5293C45.21 50.5293 40.6291 54.9115 40.0929 54.991C39.7619 55.0373 35.2671 53.3559 31.8315 52.0386C30.9643 51.7076 30.1633 51.3965 29.5146 51.1449C28.5415 50.7742 27.9126 50.5293 27.9126 50.5293C27.9126 50.5293 27.2109 55.5537 27.9126 56.1958L28.2171 57.3079L28.9983 57.0961L32.9105 60.108L32.2816 61.187L33.599 61.9483L32.9105 62.981V64.1262L32.2088 63.9673L31.858 65.4965C31.3747 65.4038 30.5738 65.3906 29.7728 65.3707L29.7595 65.7811C29.7595 65.7811 37.4318 70.2561 39.3515 69.614C39.6891 69.5014 40.0929 69.2962 40.5166 69.038C40.7946 68.8659 41.0859 68.6739 41.3838 68.4687C43.2174 67.1713 45.2033 65.3244 45.2033 65.3244V51.4296H45.21Z" fill="#F5CF24"/>
<path d="M32.9494 136.883C34.889 136.843 36.7028 136.651 37.1595 136.042C38.1591 134.712 39.5029 129.681 39.5029 129.681L38.126 128.787C37.8943 129.145 37.4707 129.76 36.6829 130.66C35.2862 132.256 13.7919 136.095 12.5143 135.963C11.7266 135.883 8.26445 134.255 6.36459 132.779L6.86769 134.904C6.86769 134.904 6.76178 136.095 8.64178 137.188C10.5152 138.28 14.4406 138.644 16.8568 138.942C19.2797 139.233 26.5812 136.724 27.6007 136.737C28.1633 136.737 30.6457 136.929 32.9494 136.883Z" fill="#E2C392"/>
<path d="M38.1204 128.788L39.4973 129.682C39.4973 129.682 38.1601 134.719 37.1539 136.043C36.6971 136.652 34.8833 136.844 32.9437 136.884C36.386 137.632 46.9378 141.028 46.2163 139.532C45.4021 137.864 45.2101 120.05 45.2101 120.05C45.2101 120.05 46.3818 118.19 47.2953 116.131C48.2022 114.072 47.666 99.6545 47.2953 95.729C46.918 91.8101 41.9135 77.9219 39.9938 75.3667L39.9276 75.0489C37.0414 75.6778 25.9335 74.0957 25.9335 74.0957L25.053 74.1619C25.1722 75.605 25.1192 76.7635 24.7353 77.3063C23.8747 78.5111 19.744 78.9612 16.8181 79.1201L16.8578 79.9144C16.7122 80.4506 17.063 82.4961 17.6191 85.1705C18.9761 91.7307 21.5512 102.077 20.9819 103.203C20.1875 104.785 17.9302 115.714 16.8247 116.965C15.7126 118.21 8.35809 129.715 5.644 130.668C4.61132 131.032 5.18061 131.879 6.36555 132.793C8.26541 134.262 11.7275 135.897 12.5153 135.977C13.7995 136.109 35.2871 132.27 36.6839 130.674C37.465 129.774 37.8953 129.165 38.127 128.801L38.1204 128.788Z" fill="#E2C392"/>
<path d="M20.8223 14.8491C20.8091 15.1073 21.3386 15.2926 21.4578 15.3323C21.8484 15.4713 22.5236 15.564 22.742 15.3323C22.9671 15.0874 22.6692 14.5115 22.0999 14.3592C21.5306 14.2136 20.8289 14.5512 20.8223 14.8425V14.8491Z" fill="#4F4131"/>
<path d="M29.1306 15.928C29.7131 15.928 30.4082 15.6632 30.4082 15.3984C30.4082 15.1336 29.7131 14.6504 29.1306 14.6504C28.5481 14.6504 27.8464 15.127 27.8464 15.3984C27.8464 15.6698 28.5414 15.928 29.1306 15.928Z" fill="#4F4131"/>
<path d="M18.9878 12.7324C18.6966 13.7585 18.5245 15.4134 18.5178 17.2007C18.5178 19.8817 18.9018 22.8738 19.855 24.5817C21.0929 26.7861 25.8723 27.6864 27.9774 27.9843C28.5997 28.0703 28.9902 28.1034 28.9902 28.1034" stroke="#4F4131" stroke-linecap="round" stroke-linejoin="round"/>
<path d="M19.6439 11.6067C20.1801 10.1768 22.0005 8.66088 22.689 8.78004C23.3774 8.89919 23.768 8.78004 23.768 8.78004L27.2632 9.5413C27.2632 9.5413 29.1763 8.89919 31.0695 9.5413C32.9694 10.1768 34.247 13.3741 34.8891 14.6517C35.187 15.2541 35.2069 16.406 35.1407 17.4651C35.0745 18.6765 34.8891 19.7622 34.8891 19.7622" stroke="#4F4131" stroke-linecap="round" stroke-linejoin="round"/>
<path d="M36.1797 17.525C36.1797 17.525 37.55 17.002 38.7746 17.2469C39.2182 17.3264 39.6418 17.5117 39.9794 17.8493C41.2637 19.1269 39.9794 22.3243 38.7085 22.9598C38.1789 23.2312 37.6427 23.2775 37.2124 23.2312C36.6034 23.1716 36.1797 22.9598 36.1797 22.9598" stroke="#4F4131" stroke-linecap="round" stroke-linejoin="round"/>
<path d="M36.1797 24.0977C36.1797 24.1639 36.1664 24.2367 36.1466 24.3095C35.7759 25.7592 32.0424 28.1092 32.0424 28.1092L33.2538 30.2805L34.1143 31.8229" stroke="#4F4131" stroke-linecap="round" stroke-linejoin="round"/>
<path d="M27.9111 28.4805V29.725V31.8234" stroke="#4F4131" stroke-linecap="round" stroke-linejoin="round"/>
<path d="M17.797 15.9286C17.5918 15.4454 17.4727 14.8695 17.3999 14.2605C17.2013 12.5063 17.4462 10.4806 17.2542 9.534C17.0623 8.64034 18.8761 7.12442 19.9948 6.29695C20.478 5.93949 20.8223 5.70117 20.8223 5.70117" stroke="#4F4131" stroke-linecap="round" stroke-linejoin="round"/>
<path d="M21.384 7.62124C21.4304 7.24391 21.2516 6.21124 21.2913 5.29109C21.3112 4.6556 21.437 4.07306 21.8209 3.80166C22.7411 3.1463 24.4622 1.68996 25.5214 1.13391C26.5739 0.58447 35.5238 1.86207 36.1592 2.50419C36.285 2.62996 36.3578 2.86165 36.4042 3.1463C36.563 4.22531 36.2453 6.11194 36.1923 6.42307C36.1923 6.44955 36.1791 6.4694 36.1791 6.4694" stroke="#4F4131" stroke-linecap="round" stroke-linejoin="round"/>
<path d="M33.1278 7.04523C33.4787 6.51565 34.6901 6.10524 36.1862 6.4296C36.7025 6.53552 37.2519 6.7341 37.808 7.04523C38.8671 7.63439 40.1911 8.96496 41.2701 10.3617C42.4153 11.8512 43.2759 13.42 43.2494 14.2674C43.1832 15.9355 42.8324 17.1602 42.0446 17.1867C41.2635 17.2065 38.7811 17.1867 38.7811 17.1867" stroke="#4F4131" stroke-linecap="round" stroke-linejoin="round"/>
<path d="M37.1594 3.72266C37.4838 3.7359 37.8214 3.77561 38.1656 3.84181C39.4565 4.09998 40.7606 4.82153 41.2703 6.33745C41.9124 8.25717 41.2703 10.3556 41.2703 10.3556" stroke="#4F4131" stroke-linecap="round" stroke-linejoin="round"/>
<path d="M23.7613 18.2207C24.0129 19.7631 25.3037 20.9149 25.3037 20.9149" stroke="#4F4131" stroke-linecap="round" stroke-linejoin="round"/>
<path d="M23.7603 22.0645C24.654 22.9581 27.8447 22.9581 29.1289 22.3226" stroke="#4F4131" stroke-linecap="round" stroke-linejoin="round"/>
<path d="M27.9117 56.1977C27.21 55.5556 27.9117 50.5312 27.9117 50.5312C27.9117 50.5312 28.5405 50.7762 29.5136 51.1469C30.1624 51.3984 30.9633 51.7096 31.8305 52.0405C35.2728 53.3579 39.761 55.0393 40.0919 54.9929C40.6281 54.9135 45.209 50.5312 45.209 50.5312V65.3263C45.209 65.3263 43.2231 67.1666 41.3894 68.4707C41.0981 68.6759 40.8069 68.8745 40.5222 69.04C40.0919 69.2982 39.6948 69.5034 39.3572 69.6159C37.4374 70.258 29.7652 65.7831 29.7652 65.7831" stroke="#4F4131" stroke-linecap="round" stroke-linejoin="round"/>
<path d="M24.4227 58.3422L28.2158 57.3095L28.9969 57.0977L32.9092 60.1096" stroke="#4F4131" stroke-linecap="round" stroke-linejoin="round"/>
<path d="M28.6726 59.0957L32.2803 61.1875L33.5977 61.9488" stroke="#4F4131" stroke-linecap="round" stroke-linejoin="round"/>
<path d="M28.6726 61.3066L32.9092 62.9814" stroke="#4F4131" stroke-linecap="round" stroke-linejoin="round"/>
<path d="M27.9113 62.9824L32.2075 63.9688L32.9092 64.1276" stroke="#4F4131" stroke-linecap="round" stroke-linejoin="round"/>
<path d="M32.3203 65.7828C32.3203 65.6372 32.1416 65.5511 31.8569 65.4982C31.3737 65.4055 30.5727 65.3923 29.7717 65.3724C28.8847 65.3393 28.0175 65.2797 27.5938 65.0547C26.5678 64.5052 24.423 63.5586 24.423 63.5586" stroke="#4F4131" stroke-linecap="round" stroke-linejoin="round"/>
<path d="M18.5183 51.4299C18.8956 51.7212 22.9271 51.8536 24.4231 53.3894C24.4231 53.3894 24.0326 55.7394 23.728 58.2482C23.503 60.0025 23.3242 61.8361 23.3375 62.988C23.3375 63.1799 23.3573 63.4116 23.3838 63.6698C23.5493 65.3115 24.1649 68.1249 24.6085 70.7926C24.8004 71.9776 24.9726 73.136 25.052 74.1555C25.1711 75.5986 25.1182 76.757 24.7342 77.2998C23.8737 78.5046 19.743 78.9547 16.817 79.1136C15.1025 79.2129 13.7985 79.2129 13.7985 79.2129C13.7985 79.2129 12.0376 73.5861 10.5746 68.8928C9.73394 66.2118 8.99254 63.8287 8.74099 62.988C8.21141 61.2337 9.78691 51.1519 11.1837 45.4192C11.6338 43.5525 12.0773 42.1491 12.4149 41.6393C13.7918 39.574 15.8903 32.3717 17.7107 31.8223C18.6573 31.5377 21.2523 30.9882 23.5559 30.5314C25.714 30.0879 27.6006 29.7305 27.6006 29.7305" stroke="#4F4131" stroke-linecap="round" stroke-linejoin="round"/>
<path d="M27.21 31.2656C27.2762 31.3318 27.3954 31.5437 27.5675 31.8879C28.0375 32.8279 28.8716 34.7079 29.8314 36.9321C32.3006 42.6185 35.584 50.5356 35.584 50.5356L32.0491 51.4359" stroke="#4F4131" stroke-linecap="round" stroke-linejoin="round"/>
<path d="M23.7606 31.8242C24.6542 32.5524 29.7646 50.4455 29.7646 50.4455" stroke="#4F4131" stroke-linecap="round" stroke-linejoin="round"/>
<path d="M20.9749 39.7734C21.4582 40.8525 21.7693 47.9819 20.9749 48.571" stroke="#4F4131" stroke-linecap="round" stroke-linejoin="round"/>
<path d="M19.5039 48.5786C17.6239 47.248 16.0683 46.8906 14.6119 47.7114C13.149 48.5322 12.5069 53.0072 12.5069 53.0072" stroke="#4F4131" stroke-linecap="round" stroke-linejoin="round"/>
<path d="M19.0215 49.5449C17.6181 49.8097 15.0629 53.7948 14.7385 54.9996C14.4208 56.2044 15.1754 60.5204 15.1754 60.5204" stroke="#4F4131" stroke-linecap="round" stroke-linejoin="round"/>
<path d="M35.1602 31.2656C35.094 31.2656 34.8093 31.537 34.3923 31.9607C32.9094 33.4766 29.8313 36.9321 29.8313 36.9321" stroke="#4F4131" stroke-linecap="round" stroke-linejoin="round"/>
<path d="M35.1605 30.7383L38.1924 32.1417" stroke="#4F4131" stroke-linecap="round" stroke-linejoin="round"/>
<path d="M37.1592 33.7227L32.9093 41.3486" stroke="#4F4131" stroke-linecap="round" stroke-linejoin="round"/>
<path d="M38.3508 32.9082C38.4964 33.0472 38.6818 33.2524 38.9002 33.5239C40.1182 35.0861 42.2167 38.6409 43.256 41.1299C44.4674 44.0492 45.7715 49.8017 46.0826 50.4372C46.1687 50.6226 46.2084 50.7815 46.215 50.9139C46.2349 51.2515 46.0826 51.4302 46.0826 51.4302" stroke="#4F4131" stroke-linecap="round" stroke-linejoin="round"/>
<path d="M42.8193 50.1325C40.6348 49.8082 39.9861 52.9989 39.9861 52.9989" stroke="#4F4131" stroke-linecap="round" stroke-linejoin="round"/>
<path d="M46.2152 53C46.4998 53.2648 46.7779 53.5296 47.0294 53.7944C48.6248 55.4692 49.5979 57.2763 49.8825 60.0301C50.2201 63.2209 49.8825 67.1861 47.4928 69.6751C45.1097 72.1707 43.2496 73.7264 43.2496 73.7264L41.396 68.4769" stroke="#4F4131" stroke-linecap="round" stroke-linejoin="round"/>
<path d="M44.4676 68.9784C44.4676 68.9784 47.5259 62.9876 47.2744 62.1535C47.0228 61.3128 45.6922 60.0352 45.6922 60.0352" stroke="#4F4131" stroke-linecap="round" stroke-linejoin="round"/>
<path d="M39.0063 51.5557C39.2975 49.4705 41.2702 49.166 42.2764 49.166L44.4609 50.5363" stroke="#4F4131" stroke-linecap="round" stroke-linejoin="round"/>
<path d="M39.9863 56.3359L39.0066 67.8145" stroke="#4F4131" stroke-linecap="round" stroke-linejoin="round"/>
<path d="M39.9856 71.2031C40.0452 71.2826 40.0982 71.3686 40.1578 71.4613C40.7933 72.4079 41.5876 73.6789 40.5218 74.791C40.4159 74.8969 40.2107 74.983 39.9194 75.0492C37.0332 75.6781 25.9254 74.0959 25.9254 74.0959" stroke="#4F4131" stroke-linecap="round" stroke-linejoin="round"/>
<path d="M32.3203 68.4844L24.6083 70.7947" stroke="#4F4131" stroke-linecap="round" stroke-linejoin="round"/>
<path d="M27.9111 65.782C27.8449 65.1399 26.5739 66.2123 25.9318 66.636" stroke="#4F4131" stroke-linecap="round" stroke-linejoin="round"/>
<path d="M10.2832 45.42C7.39038 45.334 4.27912 45.334 3.92166 46.9293C3.56419 48.5247 0.96264 60.6652 0.982499 61.9495C1.00236 62.8895 2.92869 64.69 3.95475 65.5837C4.32545 65.9014 4.577 66.1133 4.577 66.1133" stroke="#4F4131" stroke-linecap="round" stroke-linejoin="round"/>
<path d="M3.4318 61.3066C3.86871 62.3923 6.01349 64.7092 7.7942 66.5164C7.91336 66.6421 8.0325 66.7613 8.15165 66.8804C9.3432 68.0786 10.2832 68.9723 10.2832 68.9723" stroke="#4F4131" stroke-linecap="round" stroke-linejoin="round"/>
<path d="M15.7311 84.8066C15.9101 84.8332 16.0029 84.853 16.0029 84.853" stroke="#4F4131" stroke-linecap="round" stroke-linejoin="round"/>
<path d="M7.83364 67.8145C7.83364 67.8145 7.69463 68.0462 7.46294 68.4433C6.21181 70.6146 2.23998 77.8566 3.43153 80.2331C4.61646 82.6029 12.7455 84.2645 15.2676 84.7278" stroke="#4F4131" stroke-linecap="round" stroke-linejoin="round"/>
<path d="M16.8507 79.9082C16.7051 80.4444 17.0559 82.4899 17.612 85.1643C18.969 91.7244 21.5441 102.071 20.9748 103.196C20.1804 104.779 17.9231 115.708 16.8176 116.959C15.7055 118.203 8.35097 129.708 5.63689 130.662C4.60421 131.026 5.1735 131.873 6.35844 132.787C8.2583 134.256 11.7204 135.891 12.5082 135.971C13.7924 136.103 35.28 132.264 36.6768 130.668C37.4579 129.768 37.8882 129.159 38.1199 128.795C38.2986 128.517 38.3516 128.384 38.3516 128.384" stroke="#4F4131" stroke-linecap="round" stroke-linejoin="round"/>
<path d="M39.9863 123.473L38.7153 126.504" stroke="#4F4131" stroke-linecap="round" stroke-linejoin="round"/>
<path d="M39.9928 75.3672C41.9125 77.9224 46.917 91.8106 47.2943 95.7295C47.665 99.655 48.2012 114.066 47.2943 116.131C46.3874 118.19 45.2091 120.05 45.2091 120.05C45.2091 120.05 45.4011 137.857 46.2153 139.532C46.9369 141.028 36.3916 137.632 32.9428 136.884C32.5323 136.792 32.2146 136.739 32.0359 136.739" stroke="#4F4131" stroke-linecap="round" stroke-linejoin="round"/>
<path d="M39.4961 129.676C39.4961 129.676 38.1589 134.713 37.1527 136.037C36.6959 136.646 34.8821 136.838 32.9426 136.878C30.6389 136.924 28.1499 136.739 27.5938 136.732C26.5678 136.719 19.2662 139.228 16.85 138.937C14.4272 138.639 10.5017 138.275 8.63493 137.183C6.75493 136.09 6.86085 134.899 6.86085 134.899" stroke="#4F4131" stroke-linecap="round" stroke-linejoin="round"/>
<path d="M38.3516 40.959C37.747 41.3164 37.4447 41.707 37.4447 42.1307V52.3581" stroke="#4F4131" stroke-linecap="round" stroke-linejoin="round"/>
<path d="M27.8454 15.4004C27.8454 15.129 28.5405 14.6523 29.1296 14.6523C29.7188 14.6523 30.4072 15.129 30.4072 15.4004C30.4072 15.6718 29.7122 15.9299 29.1296 15.9299C28.5471 15.9299 27.8454 15.6652 27.8454 15.4004Z" stroke="#4F4131" stroke-linecap="round" stroke-linejoin="round"/>
<path d="M20.8213 14.8503C20.8213 14.559 21.523 14.2214 22.0989 14.367C22.6682 14.5127 22.9661 15.0952 22.741 15.3401C22.5226 15.5718 21.8474 15.4791 21.4568 15.3401C21.3377 15.2938 20.8081 15.1084 20.8213 14.8569V14.8503Z" stroke="#4F4131" stroke-linecap="round" stroke-linejoin="round"/>
</svg>
