<svg width="33" height="136" viewBox="0 0 33 136" fill="none" xmlns="http://www.w3.org/2000/svg">
<path d="M6.25714 116.826C3.86259 119.25 2.29623 122.479 1.87013 125.864C1.7381 126.902 1.7201 127.988 2.1462 128.949C2.63831 130.059 3.65854 130.845 4.69678 131.475C9.98999 134.674 16.6155 135.016 22.6709 133.762C24.7774 133.324 26.8839 132.693 28.6543 131.475C30.4247 130.257 31.829 128.378 32.0691 126.242C32.2431 124.694 31.805 123.145 31.3669 121.651C30.7848 119.67 30.1486 117.612 28.7023 116.142C26.0557 113.453 21.7467 113.639 17.9958 114.011C15.3792 114.269 12.7566 114.533 10.14 114.791" fill="#D3B25B"/>
<path d="M10.0985 114.388C10.0624 114.442 10.0985 114.557 10.2067 114.527L10.2668 114.322L10.0985 114.394V114.388Z" fill="#C6B08D"/>
<path d="M10.8961 114.677C11.022 114.569 11.154 114.383 11.052 114.209C10.9381 114.413 10.9021 114.335 10.7821 114.575C10.6682 114.611 10.5782 114.533 10.5902 114.455C10.5542 114.509 10.4103 114.431 10.3623 114.557C10.5242 114.695 10.7102 114.683 10.8961 114.539C10.9441 114.581 10.9081 114.635 10.8961 114.671V114.677Z" fill="#C6B08D"/>
<path d="M21.9813 114.077L21.9092 114.053C21.9092 114.053 21.9512 114.077 21.9813 114.077Z" fill="#C6B08D"/>
<path d="M28.1447 116.149C28.1026 116.119 28.0786 116.119 28.0605 116.131C28.1026 116.149 28.1387 116.167 28.1447 116.149Z" fill="#C6B08D"/>
<path d="M28.7322 117.091C28.7322 117.091 28.7142 117.055 28.7021 117.031C28.7021 117.061 28.7082 117.085 28.7322 117.091Z" fill="#C6B08D"/>
<path d="M21.9814 114.078L22.1617 114.144C22.1738 114.078 22.0716 114.096 21.9814 114.078Z" fill="#C6B08D"/>
<path d="M12.3735 114.047C12.3374 114.059 12.3074 114.083 12.2773 114.107L12.3675 114.077V114.047H12.3735Z" fill="#C6B08D"/>
<path d="M18.9868 114.354H18.9327C18.9327 114.354 18.9026 114.414 18.8906 114.444L18.9868 114.354Z" fill="#C6B08D"/>
<path d="M16.6698 114.606C16.7239 114.606 16.7239 114.437 16.736 114.365C16.7119 114.437 16.6759 114.473 16.6338 114.491C16.6338 114.522 16.6458 114.564 16.6698 114.606Z" fill="#C6B08D"/>
<path d="M12.9615 114.678L12.9014 114.708C12.9014 114.708 12.9434 114.69 12.9615 114.678Z" fill="#C6B08D"/>
<path d="M20.6309 114.287C20.6309 114.287 20.6429 114.335 20.6549 114.347C20.6549 114.323 20.6429 114.305 20.6309 114.287Z" fill="#C6B08D"/>
<path d="M3.88672 118.459C3.88672 118.459 3.90448 118.471 3.9104 118.477C3.90448 118.453 3.89856 118.447 3.88672 118.459Z" fill="#C6B08D"/>
<path d="M6.28756 116.855L6.26953 116.892C6.26953 116.892 6.3116 116.94 6.32963 116.964L6.28756 116.855Z" fill="#C6B08D"/>
<path d="M29.5482 118.907C29.5482 118.907 29.5482 118.907 29.5482 118.896C29.5069 118.854 29.5246 118.884 29.5482 118.907Z" fill="#C6B08D"/>
<path d="M23.5173 132.85C23.7697 132.946 23.2168 133.12 23.5774 133.21C23.5353 133.15 23.8058 132.886 23.5173 132.85Z" fill="#C6B08D"/>
<path d="M12.4395 114.065C12.4695 114.065 12.4996 114.053 12.5356 114.053C12.4935 114.053 12.4635 114.053 12.4395 114.065Z" fill="#C6B08D"/>
<path d="M23.5713 133.205L23.6067 133.211C23.589 133.211 23.5831 133.211 23.5713 133.205Z" fill="#C6B08D"/>
<path d="M31.1094 123.457C31.1094 123.457 31.1514 123.415 31.1695 123.391C31.1514 123.391 31.1334 123.415 31.1094 123.457Z" fill="#C6B08D"/>
<path d="M30.3105 119.904V119.994C30.3226 119.958 30.3166 119.928 30.3105 119.904Z" fill="#C6B08D"/>
<path d="M31.6133 125.209C31.6013 125.257 31.5772 125.275 31.6073 125.335C31.6133 125.329 31.6193 125.323 31.6253 125.317C31.6013 125.293 31.5893 125.263 31.6133 125.209Z" fill="#C6B08D"/>
<path d="M31.415 127.041C31.415 127.041 31.4451 127.023 31.4571 127.017C31.4571 126.999 31.4571 126.975 31.4631 126.957L31.415 127.041Z" fill="#C6B08D"/>
<path d="M1.42676 124.286C1.48085 124.25 1.54094 124.237 1.59503 124.225C1.46883 124.225 1.49888 123.919 1.42676 124.286Z" fill="#C6B08D"/>
<path d="M12.3851 114.143C12.3911 114.101 12.4091 114.076 12.4392 114.064L12.373 114.083C12.373 114.083 12.373 114.131 12.3851 114.143Z" fill="#C6B08D"/>
<path d="M32.9458 125.24C32.9458 125.36 32.9337 125.481 32.9277 125.595C32.9398 125.499 32.9578 125.366 32.9458 125.24Z" fill="#C6B08D"/>
<path d="M10.1826 134.416H10.1045C10.1045 134.416 10.1586 134.428 10.1826 134.416Z" fill="#C6B08D"/>
<path d="M32.8622 126.662C32.7961 126.716 32.748 126.776 32.7119 126.842C32.7239 126.86 32.7299 126.878 32.748 126.89C32.79 126.818 32.8321 126.74 32.8622 126.662Z" fill="#C6B08D"/>
<path d="M1.84665 122.011C1.73262 122.311 1.99668 122.227 2.0927 122.335C2.02069 122.708 1.87666 122.443 1.72662 122.528C1.70862 122.774 1.84665 123.008 1.78663 123.17C1.74462 123.17 1.72662 123.2 1.69061 123.152C1.79264 123.44 1.49857 123.866 1.6546 124.202C1.6306 124.22 1.61259 124.226 1.59459 124.226C1.71462 124.208 1.82264 124.226 1.90066 124.25C1.87065 124.388 1.97868 124.526 1.82864 124.55C1.85265 124.466 1.79864 124.448 1.76263 124.4L1.79264 124.556C1.55858 124.64 1.76263 124.346 1.6186 124.316C1.6186 124.61 1.73262 124.97 1.6306 125.168C1.42055 125.18 1.66061 124.652 1.42655 124.91L1.56458 124.592C1.1985 124.784 1.6246 124.394 1.24051 124.562C1.09648 125 1.24051 125.078 1.12048 125.516C1.2165 125.63 1.28852 125.504 1.39054 125.624C1.51057 126.272 0.814412 126.068 1.04847 126.578C1.1805 126.716 1.43255 126.764 1.29452 127.107L1.06647 126.987C1.04847 127.455 1.39054 127.239 1.27652 127.725C1.17449 127.647 1.17449 127.371 1.15049 127.443C0.988452 127.773 1.29452 127.659 1.32453 127.893L1.13248 127.971C1.23451 128.475 1.53458 128.997 1.84065 129.465C1.77463 129.465 1.66661 129.411 1.67861 129.561C2.11071 130.155 2.56681 130.809 3.01692 131.326L3.32299 131.344C3.365 131.38 3.35899 131.47 3.28698 131.464C3.45502 131.668 3.365 131.38 3.50303 131.398C3.62306 131.47 3.59905 131.59 3.49102 131.584C3.94113 131.734 4.6973 131.98 5.00337 132.358H4.90135C5.17741 132.592 5.41147 132.244 5.62751 132.532H5.5555C5.87957 132.73 6.24566 132.892 6.58173 133.048C6.92981 133.192 7.24188 133.354 7.46394 133.588C7.64998 133.396 8.13609 133.942 8.29813 133.63C8.65221 133.936 8.50817 133.966 9.0663 134.248C9.22234 134.308 9.36037 134.104 9.56442 134.122L9.52241 134.302L9.83448 134.188L9.9185 134.434H10.1165C10.0445 134.404 9.97851 134.314 10.0025 134.266C10.3086 134.248 10.6687 134.554 10.6567 134.65C10.8967 134.65 11.1308 134.65 11.3708 134.632C11.3408 134.704 11.2208 134.704 11.1248 134.74C11.5269 134.62 11.1548 134.944 11.5269 134.836C11.4909 134.788 11.5689 134.734 11.5869 134.698C11.7369 134.836 12.115 134.914 12.4091 134.896L12.3371 135.016C12.8472 135.118 13.4293 135.1 14.0054 135.142C13.8014 135.064 13.8734 134.848 14.0414 134.842L14.0955 135.04C14.2155 134.926 13.9274 134.95 14.1615 134.824C14.3715 134.866 14.2875 135.058 14.1615 135.112L14.4255 135.064C14.4375 135.124 14.3715 135.148 14.3535 135.22C14.4675 135.112 14.7976 135.442 14.9657 135.238L14.9777 135.298C15.5598 135.328 15.8239 135.268 16.298 135.25C16.31 135.082 16.49 135.118 16.628 134.98C16.9701 135.04 17.3602 135.142 17.7743 135.118C18.0624 135.022 17.8523 134.974 17.9783 134.866C18.0084 135.022 18.4224 134.974 18.2124 135.1C18.7045 135.034 18.8485 135.028 19.4607 134.836C19.3887 134.782 19.3107 134.764 19.3407 134.704C19.4487 134.668 19.6047 134.74 19.5927 134.812L19.5627 134.83C20.2289 134.53 21.2431 135.064 21.7532 134.656L21.7232 134.68L22.2633 134.41C22.5334 134.386 22.1253 134.554 22.3413 134.608C22.9115 134.242 23.3256 134.452 23.7937 134.164C24.2978 134.512 25.174 133.774 25.7801 133.864L25.7141 133.774C25.8161 133.63 25.9002 133.774 26.0082 133.762C25.9662 133.69 25.8281 133.72 25.8942 133.636C26.9864 133.12 28.2827 132.826 29.417 132.124C29.8251 131.854 29.2969 131.53 29.9091 131.35V131.614C30.4792 130.827 31.3374 130.239 31.6735 129.315C31.6795 129.387 31.7335 129.417 31.6795 129.495C31.9195 129.405 32.0696 128.853 31.9615 128.799C32.0396 128.673 32.0696 128.817 32.1656 128.763C32.3396 128.619 32.2136 128.223 32.3876 128.181C32.4177 128.175 32.4057 128.253 32.4057 128.289C32.4057 128.145 32.6457 127.713 32.4417 127.779C32.6397 127.461 32.5677 127.101 32.7177 126.842C32.5737 126.632 32.9038 126.242 32.6397 126.152C32.9158 126.206 32.8978 125.534 32.7597 125.318C32.8438 125.39 32.8377 125.12 32.9518 125.204C32.9398 124.946 32.8618 124.718 32.7297 124.772C33.0118 124.262 32.3516 123.902 32.7057 123.578C32.4177 122.906 32.1596 122.293 31.9075 121.705C32.1776 121.651 32.1236 122.365 32.3936 122.263C32.1236 121.711 31.8055 121.453 31.6975 120.865C31.6915 120.709 31.8355 120.913 31.8955 120.949C31.6195 120.409 31.5775 119.827 31.2534 119.371C31.2774 119.365 31.3254 119.407 31.3614 119.455C31.3194 119.359 31.3134 119.209 31.2054 119.263L31.2714 119.347C31.1634 119.563 30.7733 119.083 30.6773 119.101C31.0733 119.137 30.5572 118.579 31.0793 118.675C31.0313 118.615 30.9413 118.561 30.8753 118.603C30.8573 118.495 30.8873 118.447 31.0133 118.507C30.7913 118.177 30.7313 118.357 30.5872 118.038C30.6412 118.014 30.6953 118.068 30.7733 118.068C30.5872 117.954 30.4132 117.852 30.3112 117.564C30.3532 117.564 30.3772 117.51 30.4192 117.588C30.1491 117.138 29.723 116.994 29.477 116.49C29.7831 116.46 29.423 116.286 29.573 116.124C29.489 116.058 29.405 115.992 29.3149 115.932V116.094C29.1409 115.89 28.8588 115.836 28.7388 115.632L28.9489 115.698L28.5468 115.392L28.6968 115.644C28.4207 115.548 28.5288 115.872 28.3127 115.596C28.3847 115.62 28.1147 115.434 28.0847 115.248C27.9346 115.23 27.7966 115.206 27.6646 115.062C27.6646 114.978 27.8326 114.876 27.8326 114.816C27.6166 114.912 27.2745 114.528 27.0284 114.642C27.1004 114.624 27.1544 114.522 27.1484 114.492L26.9804 114.582C26.8964 114.486 26.8844 114.456 26.9444 114.384C26.6263 114.198 26.9264 114.69 26.5903 114.396C26.6263 114.396 26.6203 114.372 26.6923 114.378C26.3143 114.144 25.8822 114.15 25.5281 113.976C25.4801 113.723 25.8762 114.024 25.8041 113.802C25.228 113.663 24.5799 113.754 24.0517 113.627L24.1478 113.67C24.0277 113.97 23.7697 113.447 23.4696 113.573C23.5416 113.555 23.5776 113.405 23.5536 113.441C23.1815 113.345 22.7734 113.441 22.2093 113.525L22.2813 113.447C22.0653 113.369 21.6992 113.387 21.4651 113.357C21.3931 113.441 21.2611 113.429 21.3451 113.543C20.6009 113.081 19.9708 113.838 19.3046 113.495C19.3827 113.489 19.4847 113.411 19.4187 113.417L18.8786 113.537C18.9326 113.669 18.9566 113.615 19.0826 113.711C19.0226 113.802 18.8726 113.874 18.7345 113.886C18.9686 113.772 18.7105 113.663 18.6025 113.597C18.6265 113.639 18.5905 113.687 18.6025 113.73C18.2964 113.513 18.5785 114.012 18.1764 113.886L18.1884 113.814C18.0444 113.862 17.9243 113.976 17.7623 113.97C17.6843 113.814 17.9063 113.88 17.9063 113.747C17.6903 113.777 17.5042 114.096 17.2882 113.952C17.3782 113.898 17.5102 113.886 17.6003 113.832C17.3662 113.663 17.3422 113.718 17.1802 113.7H17.1982L16.8201 113.651L16.9221 113.693C16.6881 114.138 16.37 113.826 16.0279 114.138C16.364 113.844 16.0699 113.982 16.0819 113.802C15.9799 113.76 15.8359 113.718 15.8719 113.663C15.7098 113.826 15.5658 113.579 15.3437 113.814C15.3257 113.76 15.1577 113.826 15.1817 113.675C14.9597 113.741 15.2477 113.772 15.2357 113.844C14.9056 114.078 14.3895 113.682 13.9154 114.006C13.4953 114.162 13.4293 114.366 13.0392 114.504C12.8952 114.426 13.1292 114.282 13.1292 114.282C12.9012 114.216 12.7391 114.252 12.5351 114.336C12.5711 114.282 12.5231 114.24 12.4571 114.186C12.295 114.216 12.3671 114.408 12.139 114.342C12.169 114.276 12.205 114.162 12.283 114.09C12.091 114.162 11.911 114.294 11.7129 114.366C11.6469 114.27 11.8209 114.198 11.887 114.126C11.6649 114.192 11.3048 114.276 11.2508 114.444L11.4008 114.486C11.3168 114.504 11.3468 114.354 11.4008 114.318C11.5809 114.174 11.6889 114.348 11.7069 114.402L11.5689 114.456C11.7489 114.78 12.145 114.342 12.4331 114.336L12.3371 114.594L12.6131 114.36C12.6851 114.42 12.7391 114.552 12.6011 114.606C12.8232 114.708 12.7752 114.498 12.9672 114.618C12.9912 114.636 12.9792 114.648 12.9672 114.66L13.1652 114.564C13.1292 114.618 13.2193 114.738 13.0872 114.714C13.4653 114.822 13.6574 114.468 13.8134 114.642L13.7834 114.66C14.2815 114.528 13.8134 114.474 14.1735 114.222L14.4735 114.648L14.5035 114.462C14.5576 114.462 14.6596 114.462 14.6476 114.54C14.8276 114.396 14.6056 114.462 14.7076 114.336C14.9777 114.474 15.3918 114.192 15.4758 114.474C15.5538 114.324 15.2237 114.39 15.4818 114.27C15.5898 114.576 15.7878 114.186 16.0279 114.306C15.9739 114.474 15.7458 114.408 15.9919 114.534C16.1059 114.246 16.448 114.552 16.634 114.48C16.622 114.264 17.0481 114.348 17.3662 114.246C17.3542 114.324 17.9903 114.3 18.2964 114.354V114.39C18.3264 114.168 18.6445 114.174 18.8665 114.114C18.8665 114.246 18.8305 114.3 18.7165 114.372L18.9266 114.354C18.9686 114.282 19.0346 114.24 19.1666 114.198L19.1246 114.366C19.4067 114.33 19.6767 114.132 20.0488 114.216C20.0608 114.06 19.7307 113.808 20.1148 113.681C20.1328 113.766 20.1568 113.904 20.0548 113.946C20.0848 113.934 20.1688 113.868 20.2409 113.904L20.0968 114.054C20.2649 114.108 20.1748 113.934 20.3129 113.94C20.3129 114.06 20.4149 114.018 20.4029 114.114C20.3669 114.126 20.2829 114.072 20.2349 114.114C20.3849 114.132 20.5709 114.192 20.631 114.276C20.6129 114.21 20.625 114.114 20.733 114.096C21.015 114.078 20.835 114.234 20.997 114.294C21.0631 114.21 21.2431 114.294 21.2431 114.114C21.3271 114.114 21.3391 114.198 21.3751 114.246C21.5192 114.162 22.0533 114.228 21.8912 114.036L21.8552 114.024C21.8552 114.024 21.8672 114.024 21.8792 114.018C22.3654 113.85 22.8695 114.15 23.3436 114.126V114.186C23.6256 114.144 23.9617 114.222 24.1778 114.126C24.2618 114.138 24.3518 114.264 24.3038 114.33C24.5198 114.324 24.5619 114.27 24.8379 114.426C24.6039 114.48 24.8919 114.534 24.6099 114.456C24.8679 114.57 24.9039 114.66 25.228 114.588C25.096 114.708 25.372 114.828 25.5041 114.822L25.354 114.666C25.4981 114.69 25.6241 114.726 25.7381 114.786L25.6121 114.948C25.8221 115.164 26.0862 115.134 26.3263 115.158C26.5603 115.188 26.8004 115.212 26.8724 115.5C27.0644 115.446 26.6623 115.266 26.8544 115.188C27.0704 115.338 27.1364 115.722 27.2025 115.758C27.4125 116.034 27.6226 115.704 27.8686 115.974C27.8686 115.896 27.9646 115.704 28.2167 115.842C28.3967 116.04 28.2467 116.274 28.0967 116.214C28.0487 116.178 28.0427 116.142 28.0607 116.124C27.9826 116.088 27.8866 116.04 27.9106 116.166L27.9826 116.136C28.0246 116.274 28.2767 116.496 28.1387 116.526C28.3247 116.598 28.2827 116.496 28.2047 116.376C28.3667 116.658 28.5468 116.73 28.7028 117.024C28.7028 116.958 28.7328 116.868 28.7688 116.91C28.9969 117.348 29.0089 116.994 29.2309 117.252C29.2489 117.474 28.9789 117.342 29.2369 117.57C29.2789 117.786 29.0989 117.702 29.0089 117.672C29.2849 117.852 29.2129 118.195 29.2729 118.351L29.1469 118.243C29.2189 118.309 29.2609 118.375 29.2909 118.447L29.375 118.303C29.399 118.399 29.429 118.471 29.375 118.495C29.501 118.537 29.555 118.321 29.753 118.441C29.747 118.585 29.9871 118.765 29.8371 118.879C29.729 118.489 29.681 118.993 29.513 118.705C29.561 118.753 29.591 118.825 29.609 118.921C29.597 118.945 29.567 118.921 29.549 118.909C29.549 119.317 29.8131 118.981 29.9631 119.353C29.8431 119.347 29.8071 119.515 29.8551 119.563C29.8011 119.413 29.9931 119.425 30.1251 119.533C30.1371 119.803 30.2812 119.773 30.3172 119.905L30.2992 119.743C30.4192 119.755 30.4492 119.881 30.5392 120.049C30.4672 120.091 30.4312 119.911 30.4192 119.983C30.6653 120.115 30.3832 120.475 30.5872 120.709C30.5572 120.859 30.4012 120.781 30.3892 120.907C30.6172 121.171 30.3472 121.279 30.5572 121.567C30.6653 121.435 30.6292 121.429 30.8273 121.615L30.5752 121.117L30.8753 121.399C30.8273 121.237 30.6893 121.087 30.6833 120.985C30.8453 121.111 30.8033 121.105 30.8933 120.997C30.7553 121.279 31.1454 121.393 31.0793 121.693L30.7373 121.783C30.6953 122.209 31.1094 122.407 31.1574 122.924L31.1754 122.75C31.3314 122.78 31.2774 123.05 31.3674 123.194C31.2474 123.206 31.2294 123.32 31.1754 123.404C31.2594 123.374 31.2474 123.758 31.4874 123.758L31.3794 124.004C31.3794 124.406 31.7935 124.4 31.7935 124.796C31.6495 124.694 31.5895 124.874 31.4694 124.634C31.4814 124.76 31.4694 124.874 31.5535 124.868C31.4874 124.946 31.7395 125.204 31.6315 125.33C31.6855 125.384 31.8115 125.396 31.7995 125.54C31.7755 125.558 31.7395 125.54 31.7395 125.54C31.7995 125.54 31.8175 125.768 31.9495 125.642C31.5895 126.02 31.8715 126.764 31.4634 127.029C31.4334 127.299 31.3554 127.629 31.2594 127.863C31.2354 127.833 31.2054 127.839 31.2354 127.803C31.0013 128.073 31.4574 128.139 31.1694 128.451C30.9053 128.541 31.1754 128.217 31.0553 128.295C30.6893 128.157 30.8753 128.739 30.5332 128.841L30.5452 128.775C30.3292 128.865 30.3952 129.261 30.1551 129.507C30.1551 129.507 30.1371 129.471 30.1131 129.471C30.1251 129.771 29.8791 130.149 29.675 130.413C29.645 130.233 29.729 130.251 29.573 130.185C29.483 130.299 29.777 130.335 29.591 130.569C29.465 130.575 29.2549 130.659 29.1289 130.551L29.3269 130.365C29.0809 130.299 29.0689 130.599 28.9309 130.665L28.8888 130.581C28.5888 130.857 28.7208 131.055 28.3367 131.296L28.4147 131.326C28.3307 131.662 28.1687 131.332 28.0487 131.608L27.8626 131.446C27.7546 131.584 27.4785 131.932 27.2325 132.106C27.3045 131.872 27.5685 131.632 27.6946 131.44C27.5565 131.518 27.2265 131.716 27.2025 131.86C27.2505 131.812 27.2985 131.722 27.3705 131.722C27.2805 131.98 27.0824 132.184 26.7824 132.316C26.6503 131.878 25.9542 132.55 25.6001 132.286C25.12 132.64 24.5018 132.574 23.8657 132.772C24.1838 133.06 23.6797 132.832 23.8057 133.174C23.6556 133.234 23.5956 133.24 23.5776 133.222L23.0615 133.12C22.9295 133.042 23.1875 133.006 23.1575 132.928C22.8155 132.976 22.9835 132.808 22.7434 132.76C22.8155 132.88 22.6654 132.97 22.4674 132.958L22.7734 133.066C22.3413 133.36 22.3053 132.844 21.8672 133.126L21.9933 132.982C21.7652 133.102 21.0991 133.144 20.901 133.468C20.853 133.432 20.781 133.342 20.883 133.3C20.2949 133.354 19.6107 133.786 19.1306 133.66L19.1666 133.564C19.0586 133.6 18.9926 133.75 18.8425 133.666C18.8425 133.63 18.8786 133.576 18.8305 133.57C18.7765 133.606 18.5485 133.75 18.3984 133.708L18.5185 133.6C17.9363 133.534 17.6483 133.9 17.1562 133.984C17.1502 133.726 16.6941 133.648 16.466 133.6V133.564C15.8058 133.54 15.3317 133.768 14.7016 133.846C14.3355 133.534 13.3993 133.63 12.8112 133.378C12.9012 133.438 12.7692 133.582 12.6551 133.594C12.5171 133.522 12.229 133.72 12.289 133.486L12.3371 133.498C12.265 133.246 11.965 133.252 11.7369 133.204L11.6409 133.51C11.3768 133.234 10.9867 133.192 10.6207 133.15C10.2546 133.12 9.9185 133.084 9.81647 132.838C9.65444 132.874 9.4804 132.82 9.31836 132.856L9.37237 132.694C8.99429 132.544 8.82025 132.442 8.33414 132.322L8.47217 132.244C8.21411 132.142 7.96205 132.592 7.71599 132.496L7.734 132.232C7.50595 132.142 7.2959 131.992 7.07985 131.878C6.8698 131.746 6.64775 131.644 6.37769 131.638C6.40169 131.608 6.4497 131.548 6.52172 131.572C6.31167 131.476 5.80756 131.019 5.71754 131.356C5.81956 131.151 5.28544 131.085 4.99737 131.043L5.1174 130.923C4.81133 130.995 4.77532 131.037 4.48125 130.917C4.43324 130.857 4.49926 130.767 4.55927 130.857C4.40323 130.647 4.30721 130.881 4.11517 130.635L4.2652 130.611C4.06716 130.455 4.05515 130.515 3.86911 130.527C3.69507 130.485 3.52703 130.185 3.60505 130.053C3.52103 130.101 3.33499 130.095 3.26297 129.963C3.29298 129.909 3.35299 129.921 3.383 129.927C3.19096 129.567 2.83087 129.603 2.80687 129.273C2.84888 129.237 2.86688 129.207 2.86688 129.183C3.02892 129.441 3.19096 129.639 3.16695 129.627C3.28098 129.525 3.15495 129.321 3.43701 129.333C3.23297 129.273 2.82487 129.141 2.78286 128.889C2.78886 128.871 2.80087 128.853 2.81887 128.835L2.84288 128.847C2.83688 128.793 2.80087 128.757 2.75886 128.727C2.74685 128.649 2.75886 128.601 2.72885 128.535C2.83688 128.463 2.70484 128.265 2.68684 128.151C2.5248 128.205 2.5128 128.037 2.41678 128.217C2.42278 128.193 2.44078 128.235 2.47079 128.313C2.48279 128.331 2.4888 128.349 2.5008 128.361H2.48279C2.5068 128.433 2.54881 128.535 2.59082 128.643C2.47679 128.589 2.36877 128.505 2.42278 128.349C2.29675 128.319 2.17672 128.271 2.11071 128.241C2.29075 128.007 2.37477 127.665 2.5188 127.605C2.38077 127.239 2.42878 126.698 2.14072 126.41C2.11071 126.29 2.24274 126.284 2.29675 126.242C2.32076 126.314 2.30875 126.392 2.35076 126.434C2.28475 126.194 2.39877 125.738 2.18873 125.648C2.33276 125.366 2.36877 125.846 2.39277 125.432L2.45279 125.498C2.9269 124.784 2.14672 124.07 2.84888 123.314C2.80087 123.368 2.78286 123.392 2.74085 123.392C3.22696 122.479 3.29898 121.303 4.07316 120.547C4.2712 120.325 4.16318 120.229 4.15718 120.019L4.34322 120.055L4.32522 119.689C4.42724 119.233 5.09339 119.305 5.17741 118.711L5.03938 118.693C5.17141 118.549 5.35745 118.153 5.44747 118.267C5.44747 118.237 5.38746 118.135 5.48348 118.117L5.5615 118.171C5.61551 118.008 5.68153 117.852 5.74754 117.696C6.04761 117.462 5.9936 117.984 6.35968 117.6C6.46771 117.432 6.55173 116.994 6.4557 117.006C6.39569 117.06 6.26966 117.114 6.19765 117.054L6.29367 116.886C6.11363 116.67 6.0176 116.352 5.5495 116.568L5.44147 116.928L5.26743 116.916C5.32745 116.844 5.38746 116.772 5.45347 116.7C5.24943 116.73 5.26143 116.886 5.24943 117.018C5.17741 116.988 5.1114 116.994 5.04538 117.024L5.03338 117.444C4.92535 117.408 4.96136 117.192 4.77532 117.324C4.77532 117.522 5.05738 117.366 4.96136 117.612C4.76332 117.654 4.7093 117.558 4.6793 117.768C4.60728 117.744 4.59528 117.684 4.61928 117.606C4.57727 117.786 4.37323 117.978 4.44524 118.141C4.21719 118.183 4.14517 118.621 3.94113 118.459C3.96513 118.537 3.94713 118.819 3.86911 118.951C3.75509 118.543 3.54504 119.425 3.29898 119.191C3.43101 119.515 3.02292 119.911 2.99291 120.313C2.98091 120.283 2.9629 120.229 2.99291 120.205C2.87888 120.379 2.77086 120.397 2.66284 120.493C2.85488 120.619 2.77086 120.937 2.83087 121.153C2.5188 121.291 2.64483 120.901 2.41078 120.877C2.59082 120.949 2.39877 121.357 2.57882 121.345C2.37477 121.471 2.45279 121.471 2.23674 121.489C2.4948 121.633 2.21273 121.675 2.32076 121.891C2.0867 122.101 2.03869 121.861 2.01469 122.185C1.87666 122.293 1.87666 121.993 1.87666 121.993L1.84665 122.011ZM1.88866 129.435C1.85265 129.381 1.82264 129.327 1.80464 129.297C1.82264 129.327 1.84665 129.369 1.88866 129.435ZM2.24874 129.987C2.20673 129.915 2.14672 129.837 2.0927 129.753C2.12871 129.699 2.18873 129.693 2.22473 129.747C2.17072 129.741 2.23074 129.885 2.24874 129.993V129.987ZM2.70484 128.385C2.75286 128.451 2.72885 128.481 2.70484 128.505C2.69284 128.469 2.66884 128.433 2.63883 128.385H2.61482C2.64483 128.385 2.68084 128.379 2.70484 128.385Z" fill="#C6B08D"/>
<path d="M2.45238 128.313C2.45238 128.313 2.43435 128.301 2.42834 128.283C2.41632 128.301 2.41031 128.325 2.4043 128.343L2.46439 128.355L2.44637 128.313H2.45238Z" fill="#C6B08D"/>
<path d="M21.8966 114.047H21.9085C21.9085 114.047 21.8907 114.035 21.8848 114.029C21.8907 114.035 21.8907 114.041 21.8966 114.047Z" fill="#C6B08D"/>
<path d="M9.49827 134.333L9.51029 134.291L9.4502 134.309L9.49827 134.333Z" fill="#C6B08D"/>
<path d="M18.6024 113.614C18.6024 113.614 18.5785 113.584 18.5547 113.578C18.5547 113.59 18.5785 113.602 18.6024 113.614Z" fill="#C6B08D"/>
<path d="M17.1926 113.718L16.9883 113.676C17.0784 113.7 17.1445 113.712 17.1926 113.718Z" fill="#C6B08D"/>
<path d="M16.0989 113.742C16.0869 113.772 16.0869 113.796 16.0869 113.814L16.0989 113.742Z" fill="#C6B08D"/>
<path d="M31.3496 119.455C31.3496 119.455 31.3616 119.485 31.3736 119.491C31.4398 119.575 31.4037 119.515 31.3496 119.455Z" fill="#C6B08D"/>
<path d="M28.0781 115.264C28.1442 115.276 28.2043 115.282 28.2644 115.307C28.1923 115.24 28.1382 115.192 28.0781 115.264Z" fill="#C6B08D"/>
<path d="M28.4628 115.465C28.4147 115.369 28.3426 115.333 28.2705 115.309C28.3246 115.363 28.3907 115.429 28.4628 115.465Z" fill="#C6B08D"/>
<path d="M11.4072 114.131H11.3535C11.3535 114.131 11.3535 114.149 11.3535 114.155L11.4072 114.131Z" fill="#C6B08D"/>
<path d="M11.3525 114.156L11.2988 114.18C11.2988 114.18 11.3465 114.174 11.3525 114.156Z" fill="#C6B08D"/>
<path d="M11.1797 114.234L11.2999 114.18C11.2578 114.18 11.2037 114.18 11.1797 114.234Z" fill="#C6B08D"/>
<path d="M12.8477 114.066L12.8597 114.006C12.8597 114.006 12.8477 114.042 12.8477 114.066Z" fill="#C6B08D"/>
<path d="M13.2799 114.006C13.1717 114.006 13.0035 113.904 12.8652 113.952V114C12.9133 113.904 13.1898 114.115 13.2799 114V114.006Z" fill="#C6B08D"/>
<path d="M15.1705 114.576L14.7979 114.564C14.87 114.625 14.9601 114.703 14.7979 114.733C15.2786 114.883 14.6897 114.594 15.1705 114.576Z" fill="#C6B08D"/>
<path d="M16.3094 114.559C16.1171 114.607 16.3214 114.655 16.3094 114.691C16.4296 114.619 16.4537 114.601 16.3094 114.559Z" fill="#C6B08D"/>
<path d="M24.3762 114.406L24.3281 114.556C24.4724 114.563 24.3401 114.496 24.3762 114.406Z" fill="#C6B08D"/>
<path d="M26.0975 114.049L25.9833 113.904L25.8691 114.012C25.9473 114.012 26.0194 114.037 26.0975 114.049Z" fill="#C6B08D"/>
<path d="M26.5122 115.41L26.4521 115.404L26.6805 115.452L26.5122 115.41Z" fill="#C6B08D"/>
<path d="M31.3496 126.686H31.5419C31.5299 126.584 31.3256 126.524 31.3496 126.686Z" fill="#C6B08D"/>
<path d="M28.3122 131.163C28.204 131.121 28.0418 131.157 28.0117 131.289C28.1259 131.235 28.2701 131.223 28.3122 131.163Z" fill="#C6B08D"/>
<path d="M11.3823 133.222L11.5085 133.18L11.2861 133.192L11.3823 133.222Z" fill="#C6B08D"/>
<path d="M9.61809 54.0263H9.61209L8.7959 51.1636C10.8664 48.7271 13.0689 43.1338 14.3472 42.6117C15.2834 42.2276 16.0336 40.2471 16.4837 38.6987L16.6457 38.7108L17.87 39.869C19.1963 40.1391 21.9929 39.611 23.2592 38.7108L23.8593 37.0724L24.1714 36.2202V28.2323L24.6755 26.4439L24.6875 26.42C24.7175 26.3599 24.8016 26.2039 24.8436 26.0178V26.0059H24.8496L26.2659 27.2661H26.2719L26.908 27.8363L26.9201 27.8483C29.1826 30.4409 32.4293 39.1969 32.4293 39.1969L30.4729 40.7932L27.6762 43.0678L27.4302 43.0978L27.7722 45.6544L25.9058 54.2903L24.6755 54.0263L19.3283 53.3121C19.3283 53.3121 13.9691 56.4568 13.2729 56.7809C12.7748 57.0149 11.5085 57.363 10.5243 57.219C10.1282 57.165 9.78012 57.0269 9.54607 56.7809C9.14998 56.3608 9.32402 55.1605 9.61809 54.0263Z" fill="#99B3C1"/>
<path d="M10.4527 60.7535L10.5247 57.2188C11.509 57.3628 12.7753 57.0147 13.2734 56.7806C13.9695 56.4566 19.3288 53.3119 19.3288 53.3119L24.676 54.026L25.9063 54.2901L27.7727 45.6541L27.4306 43.0975L27.6767 43.0675L30.4733 40.793L30.7014 42.8155L30.7134 42.8695C31.2655 46.4463 31.0915 54.17 29.183 57.7229L29.5011 61.2937V61.3117C30.2333 64.2523 30.2813 76.2611 30.2813 76.2611C30.2813 76.2611 27.1726 79.8619 26.5724 79.8019C26.4224 79.7899 26.2964 79.7119 26.1883 79.6159C25.8463 79.2978 25.6842 78.7157 25.6842 78.7157L19.8689 80.8882L19.5688 79.1538L11.1789 80.4801L10.7768 78.7157H7.79412L7.04395 76.0931C7.43403 72.2462 9.61253 64.4324 10.4527 60.7656V60.7535Z" fill="#99B3C1"/>
<path d="M19.7848 112.804C20.727 114.094 22.0353 115.138 22.9715 115.726C24.1718 116.47 25.4621 115.984 27.2145 116.83C28.9729 117.671 28.9729 119.357 27.7726 120.011C26.9444 120.467 22.9115 120.539 20.4989 120.539L18.1464 121.037C17.5282 118.997 16.37 120.071 14.3175 118.991C13.6334 118.631 13.0992 117.959 12.6611 117.155L12.9552 114.448L13.4053 111.909V111.897L14.0895 109.467L14.5456 109.593C15.1697 110.469 16.9281 111.669 18.1464 111.669H19.0826C19.2746 112.065 19.5147 112.443 19.7848 112.804Z" fill="#99B3C1"/>
<path d="M25.5575 82.4977L25.5155 82.6957C25.0234 85.1083 23.9012 89.4953 22.6769 94.0923L21.5486 93.9843C19.7362 94.9445 16.9816 95.8327 16.3874 94.4824L15.8413 94.4344L15.8953 93.8643L15.6553 93.7863C17.6357 87.6829 19.3461 82.2576 19.3281 81.8075L19.8682 80.8893L25.6836 78.7168C25.6836 78.7168 25.8456 79.2989 26.1877 79.617L25.5575 82.4977Z" fill="#99B3C1"/>
<path d="M7.158 5.21171C8.79638 3.4233 11.617 2.66114 13.2734 2.00099C15.1698 1.24482 18.5786 0.644676 20.4751 1.24481C22.3715 1.84495 25.1021 2.78715 25.8403 4.41953C26.2364 5.29573 26.2064 6.27995 26.0923 7.00011L24.562 10.4449C24.742 12.0893 24.796 14.2798 24.1539 16.0262C23.2957 18.3727 22.1074 20.2812 21.0632 21.1454L19.1427 21.6495L17.9545 17.6346H16.9763L17.8885 21.6675L18.0205 22.2676L17.9545 22.2856H15.668C14.2396 22.2856 11.635 22.0756 10.3687 20.6592C9.60656 19.8071 8.95241 19.531 8.4483 19.501L7.95618 21.3854L7.80015 21.9916C7.24202 23.4439 5.47162 24.6442 4.9735 24.6082C4.37336 24.5602 0.172401 24.05 1.37268 23.4499C2.15285 23.0598 2.93303 21.6615 3.40114 20.2391L2.94504 15.6001C2.17086 13.5596 0.86856 10.5649 1.17463 9.64674C1.52871 8.5965 2.789 6.63404 4.79946 6.15393L6.77992 5.04369L7.164 5.21171H7.158ZM21.5493 11.8432C22.2335 11.9152 21.5313 9.78477 21.0152 9.75476H20.9432C20.433 9.98281 20.313 10.835 20.7751 11.2131C21.0332 11.4651 21.3633 11.7832 21.5493 11.8432ZM14.2876 12.4374C14.7978 12.9055 15.4999 10.781 15.1098 10.4449L15.0498 10.4029C14.5037 10.2829 13.8975 10.895 14.0416 11.4771C14.0956 11.8312 14.1736 12.2813 14.2876 12.4374Z" fill="#99B3C1"/>
<path d="M25.3723 24.6502L24.8502 26.0005C24.9282 25.6644 24.8742 25.2503 24.1721 25.2503C22.9718 25.2503 19.9711 25.2503 18.1467 25.6404C16.3283 26.0305 14.3478 28.437 14.3478 28.437L13.9697 25.8504C14.1198 25.5504 14.5038 25.2143 15.002 24.8722C16.4783 23.858 18.9329 22.8438 18.9329 22.8438C18.9329 22.8438 24.1721 22.8498 25.3723 24.6502Z" fill="#F5CF24"/>
<path d="M17.3003 30.1171C16.7002 30.3752 15.896 30.8253 15.1578 31.3234L14.8638 30.2611L14.8218 30.1051L14.3477 28.4367C14.3477 28.4367 16.3281 26.0302 18.1465 25.6401C19.9709 25.25 22.9716 25.25 24.1719 25.25C24.8741 25.25 24.9281 25.6641 24.8501 26.0002H24.8441V26.0182L24.688 26.4203L24.676 26.4443L24.1719 28.2327V36.2205L23.8598 37.0727L23.0797 36.7846C21.7714 36.0525 18.9327 36.3345 17.9485 37.0907L17.3423 36.4366L19.5689 34.3541C19.5148 34.3241 19.3168 33.988 19.0587 33.5139C18.9207 33.2678 18.7647 32.9738 18.6086 32.6737C18.3926 32.2596 18.1705 31.8275 17.9665 31.4374C17.5944 30.6992 17.3003 30.1171 17.3003 30.1171Z" fill="#F5CF24"/>
<path d="M23.8601 37.0739L23.2599 38.7122C21.9936 39.6124 19.197 40.1405 17.8707 39.8705L16.6464 38.7122L16.4844 38.7002C16.7964 37.644 16.9705 36.7858 16.9705 36.7858L17.3426 36.4377L17.9487 37.0918C18.9329 36.3357 21.7716 36.0536 23.0799 36.7858L23.8601 37.0739Z" fill="#F5CF24"/>
<path d="M14.659 107.415L15.8413 94.4345L16.3874 94.4825C16.9815 95.8328 19.7362 94.9446 21.5486 93.9844L22.6768 94.0924C21.1645 99.7697 19.5021 105.765 18.6739 108.73L19.7842 112.805C19.5141 112.445 19.2741 112.067 19.082 111.67H18.1458C16.9275 111.67 15.1691 110.47 14.545 109.594L14.0889 109.468L14.659 107.415Z" fill="#99B3C1"/>
<path d="M21.0159 9.75405C21.532 9.78406 22.2341 11.9145 21.55 11.8425C21.3639 11.7825 21.0339 11.4644 20.7758 11.2124C20.3137 10.8343 20.4337 9.9821 20.9438 9.74805H21.0159V9.75405Z" fill="#4F4131"/>
<path d="M11.1788 81.8249V80.4806L19.5687 79.1543L19.8688 80.8887L19.3286 81.8069C19.3466 82.257 17.6363 87.6823 15.6558 93.7857C15.6138 93.9177 15.5658 94.0497 15.5238 94.1817L14.5455 93.8637C12.7691 94.8659 11.1848 94.6619 10.7767 93.8637L10.3506 93.7256C10.6146 92.9214 10.7767 92.4353 10.7767 92.4353C10.7767 92.4353 10.9267 84.9036 11.1788 81.8249Z" fill="#99B3C1"/>
<path d="M15.1577 31.323C15.8959 30.8248 16.7001 30.3747 17.3002 30.1167C17.3002 30.1167 17.5943 30.6988 17.9664 31.437C18.1704 31.8271 18.3925 32.2592 18.6085 32.6733C18.7646 32.9733 18.9206 33.2674 19.0586 33.5135C19.3167 33.9876 19.5147 34.3236 19.5688 34.3536L17.3422 36.4361L16.9702 36.7842C16.9702 36.7842 16.7961 37.6424 16.4841 38.6986C16.0339 40.247 15.2838 42.2275 14.3476 42.6115C13.0693 43.1337 10.8668 48.7269 8.79629 51.1635C8.31018 51.7396 7.83007 52.1417 7.36796 52.2558C4.96741 52.8559 4.96741 51.6556 4.96741 51.6556L5.71158 40.6911L5.73559 40.5831L4.15723 40.253C4.15723 40.253 6.76782 28.8504 7.9681 27.6501C8.8383 26.7799 10.6627 25.9037 12.019 25.4536L12.7272 25.2436L12.7752 25.2316L14.8637 24.6074L15.0017 24.8715C14.5036 25.2136 14.1195 25.5496 13.9695 25.8497L14.3476 28.4363L14.8217 30.1047L14.8637 30.2607L15.1577 31.323Z" fill="#99B3C1"/>
<path d="M10.4591 109.6L11.1792 113.267C11.5753 114.479 12.0134 115.962 12.6616 117.156C13.0997 117.96 13.6338 118.632 14.318 118.992C16.3704 120.073 17.5287 118.998 18.1468 121.039C18.771 123.073 13.7778 123.289 13.2737 123.181C12.7696 123.073 12.3855 122.665 10.7771 122.569C9.16878 122.473 3.52148 120.529 3.52148 120.529L5.11185 109.87L6.48016 106.389L6.49217 106.359C7.30235 103.095 9.43884 96.5112 10.351 93.7266L10.7771 93.8646C11.1852 94.6628 12.7696 94.8668 14.546 93.8646L15.5242 94.1827C13.6278 100.022 11.5213 106.401 10.4591 109.594V109.6Z" fill="#99B3C1"/>
<path d="M15.1093 10.4439C15.4994 10.78 14.7972 12.9045 14.2871 12.4364C14.1731 12.2803 14.0951 11.8302 14.0411 11.4762C13.897 10.894 14.5032 10.2819 15.0493 10.4019L15.1093 10.4439Z" fill="#4F4131"/>
<path d="M16.6447 22.2496C16.6447 22.2496 16.2547 22.2856 15.6605 22.2856C14.2322 22.2856 11.6276 22.0755 10.3613 20.6592C9.59913 19.807 8.94498 19.5309 8.44086 19.5009C7.7627 19.4529 7.36661 19.849 7.36661 19.849C7.36661 19.849 5.36215 20.3772 5.76425 17.1124C6.16634 13.8477 7.96675 13.8477 7.96675 13.8477" stroke="#4F4131" stroke-linecap="round" stroke-linejoin="round"/>
<path d="M18.7692 4.41992C19.3693 6.04629 18.169 9.04699 16.9688 9.64713" stroke="#4F4131" stroke-linecap="round" stroke-linejoin="round"/>
<path d="M15.415 5.04297C15.1689 6.64534 15.415 7.02942 15.415 7.02942L13.2725 10.8883" stroke="#4F4131" stroke-linecap="round" stroke-linejoin="round"/>
<path d="M11.1777 7.0293C11.5678 9.04576 11.1777 11.4643 11.1777 11.4643L9.89941 8.74568" stroke="#4F4131" stroke-linecap="round" stroke-linejoin="round"/>
<path d="M8.98125 9.64648C8.98125 9.64648 8.19507 10.2346 8.98125 12.041" stroke="#4F4131" stroke-linecap="round" stroke-linejoin="round"/>
<path d="M20.4748 7.0293C20.4748 7.0293 21.7351 8.26556 24.1537 8.05551C24.1537 8.05551 24.4057 9.05176 24.5618 10.4441C24.7418 12.0885 24.7958 14.279 24.1537 16.0254C23.2955 18.3719 22.1072 20.2803 21.063 21.1445C20.6729 21.4686 20.3008 21.6486 19.9707 21.6486" stroke="#4F4131" stroke-linecap="round" stroke-linejoin="round"/>
<path d="M6.53312 13.5716C5.5669 11.4471 5.09279 8.44646 6.53312 6.04591C6.71316 5.74584 6.92321 5.46977 7.15726 5.21171C8.79564 3.4233 11.6163 2.66114 13.2727 2.00099C15.1691 1.24482 18.5779 0.644676 20.4743 1.24481C22.3708 1.84495 25.1014 2.78715 25.8395 4.41953C26.2356 5.29573 26.2056 6.27995 26.0916 7.00011C25.9956 7.62425 25.8395 8.05636 25.8395 8.05636" stroke="#4F4131" stroke-linecap="round" stroke-linejoin="round"/>
<path d="M5.71084 6.04492C5.38676 6.04492 5.08069 6.08093 4.79263 6.15294C2.78216 6.63305 1.52188 8.59551 1.16779 9.64575C0.861725 10.564 2.16402 13.5586 2.9382 15.5991C3.17826 16.2232 3.3643 16.7514 3.44232 17.1115" stroke="#4F4131" stroke-linecap="round" stroke-linejoin="round"/>
<path d="M19.1352 21.6497L17.947 17.6348H16.9688L17.881 21.6677L18.013 22.2678H18.019L18.145 22.844" stroke="#4F4131" stroke-linecap="round" stroke-linejoin="round"/>
<path d="M19.1416 21.6566V21.6504" stroke="#4F4131" stroke-linecap="round" stroke-linejoin="round"/>
<path d="M19.3272 22.285L19.1533 21.6973" stroke="#4F4131" stroke-linecap="round" stroke-linejoin="round"/>
<path d="M24.6748 26.4462L24.6868 26.4222L24.8431 26.0195" stroke="#4F4131" stroke-linecap="round" stroke-linejoin="round"/>
<path d="M24.8438 26.0195C24.8017 26.2058 24.7175 26.3621 24.6875 26.4222" stroke="#4F4131" stroke-linecap="round" stroke-linejoin="round"/>
<path d="M24.8428 26.0179V26.0059H24.8488" stroke="#4F4131" stroke-linecap="round" stroke-linejoin="round"/>
<path d="M24.8492 26.0005L25.3714 24.6502C24.1711 22.8498 18.9319 22.8438 18.9319 22.8438C18.9319 22.8438 16.4773 23.858 15.001 24.8722C14.5029 25.2143 14.1188 25.5504 13.9688 25.8504L14.3468 28.437C14.3468 28.437 16.3273 26.0305 18.1457 25.6404C19.9701 25.2503 22.9708 25.2503 24.1711 25.2503C24.8732 25.2503 24.9273 25.6644 24.8492 26.0005Z" stroke="#4F4131" stroke-linecap="round" stroke-linejoin="round"/>
<path d="M12.168 40.2531C12.168 40.2531 12.5761 34.0596 13.2722 32.9554C13.5543 32.5053 14.3165 31.8872 15.1567 31.323C15.8948 30.8249 16.699 30.3748 17.2991 30.1168C17.6952 29.9427 18.0013 29.8527 18.1453 29.8887" stroke="#4F4131" stroke-linecap="round" stroke-linejoin="round"/>
<path d="M14.5693 33.6533C14.9954 33.2272 16.8018 32.123 17.9661 31.4388C18.4402 31.1628 18.8063 30.9527 18.9323 30.8867" stroke="#4F4131" stroke-linecap="round" stroke-linejoin="round"/>
<path d="M15.415 34.644C15.6671 34.3679 17.5515 33.2757 18.6078 32.6755C19.0339 32.4355 19.3279 32.2734 19.3279 32.2734" stroke="#4F4131" stroke-linecap="round" stroke-linejoin="round"/>
<path d="M15.8955 35.7897C16.2376 35.9817 18.08 34.3974 19.0582 33.5152C19.4243 33.1851 19.6704 32.957 19.6704 32.957" stroke="#4F4131" stroke-linecap="round" stroke-linejoin="round"/>
<path d="M20.3243 33.6523L19.5681 34.3545L17.3416 36.437L16.9695 36.785C16.9695 36.785 16.7955 37.6432 16.4834 38.6995C16.0333 40.2478 15.2832 42.2283 14.3469 42.6124C13.0687 43.1345 10.8661 48.7278 8.79567 51.1644C8.30956 51.7405 7.82945 52.1426 7.36735 52.2566C4.9668 52.8567 4.9668 51.6565 4.9668 51.6565L5.71097 40.6919" stroke="#4F4131" stroke-linecap="round" stroke-linejoin="round"/>
<path d="M12.1684 41.6152C12.1684 41.6152 5.85497 46.5363 5.71094 47.8926" stroke="#4F4131" stroke-linecap="round" stroke-linejoin="round"/>
<path d="M12.7272 25.2441C12.5171 25.2982 12.2771 25.3702 12.019 25.4542C10.6627 25.9043 8.8383 26.7805 7.9681 27.6507C6.76782 28.851 4.15723 40.2536 4.15723 40.2536L5.73559 40.5837L10.6267 41.6159L11.3529 39.5454" stroke="#4F4131" stroke-linecap="round" stroke-linejoin="round"/>
<path d="M13.2722 25.1426C13.1343 25.1546 12.9663 25.1845 12.7744 25.2325" stroke="#4F4131" stroke-linecap="round" stroke-linejoin="round"/>
<path d="M24.1709 26.4512V28.2336V36.2214V36.7855" stroke="#4F4131" stroke-linecap="round" stroke-linejoin="round"/>
<path d="M23.5705 38.4531C23.4805 38.5431 23.3785 38.6272 23.2584 38.7112C21.9922 39.6114 19.1955 40.1395 17.8692 39.8694C17.6652 39.8334 17.4971 39.7734 17.3711 39.6954" stroke="#4F4131" stroke-linecap="round" stroke-linejoin="round"/>
<path d="M23.0784 36.7858C21.7701 36.0536 18.9315 36.3357 17.9473 37.0918" stroke="#4F4131" stroke-linecap="round" stroke-linejoin="round"/>
<path d="M14.8633 30.2617L15.1573 31.324" stroke="#4F4131" stroke-linecap="round" stroke-linejoin="round"/>
<path d="M14.5693 29.2051L14.8212 30.1047" stroke="#4F4131" stroke-linecap="round" stroke-linejoin="round"/>
<path d="M18.9316 13.1152C19.3697 13.8474 19.8799 15.3538 19.3277 16.1039" stroke="#4F4131" stroke-linecap="round" stroke-linejoin="round"/>
<path d="M15.1083 10.4439C15.4984 10.78 14.7962 12.9045 14.2861 12.4364C14.1721 12.2803 14.0941 11.8302 14.0401 11.4762C13.896 10.894 14.5022 10.2819 15.0483 10.4019L15.1083 10.4439Z" stroke="#4F4131" stroke-linecap="round" stroke-linejoin="round"/>
<path d="M21.0139 9.75405C21.53 9.78406 22.2322 11.9145 21.548 11.8425C21.362 11.7825 21.0319 11.4644 20.7738 11.2124C20.3117 10.8343 20.4318 9.9821 20.9419 9.74805H21.0139V9.75405Z" stroke="#4F4131" stroke-linecap="round" stroke-linejoin="round"/>
<path d="M3.85045 18.0664C3.82045 18.6966 3.65241 19.4707 3.39435 20.2389C2.92624 21.6612 2.14606 23.0596 1.36588 23.4497C0.16561 24.0498 4.36657 24.5599 4.96671 24.6079C5.46482 24.6439 7.23523 23.4437 7.79336 21.9913C7.87138 21.7933 7.92539 21.5892 7.94939 21.3852C7.9674 21.2712 7.9734 21.1631 7.9674 21.0491" stroke="#4F4131" stroke-linecap="round" stroke-linejoin="round"/>
<path d="M26.9199 27.8477C29.1824 30.4403 32.4292 39.1962 32.4292 39.1962L30.4727 40.7926L27.6761 43.0671" stroke="#4F4131" stroke-linecap="round" stroke-linejoin="round"/>
<path d="M26.2715 27.2734C26.4754 27.3934 26.6853 27.5853 26.9072 27.8372" stroke="#4F4131" stroke-linecap="round" stroke-linejoin="round"/>
<path d="M26.1631 27.2129C26.1991 27.2309 26.2352 27.2489 26.2653 27.267" stroke="#4F4131" stroke-linecap="round" stroke-linejoin="round"/>
<path d="M26.1633 33.6523L27.4296 43.0985L27.7716 45.6551L25.9052 54.2911L25.3711 56.7816" stroke="#4F4131" stroke-linecap="round" stroke-linejoin="round"/>
<path d="M29.1823 57.7285C28.9362 58.1786 28.6721 58.5567 28.3721 58.8568" stroke="#4F4131" stroke-linecap="round" stroke-linejoin="round"/>
<path d="M30.712 42.8711C31.2641 46.4479 31.0901 54.1717 29.1816 57.7245" stroke="#4F4131" stroke-linecap="round" stroke-linejoin="round"/>
<path d="M30.4365 41.6152C30.5385 41.9213 30.6286 42.3294 30.7006 42.8155" stroke="#4F4131" stroke-linecap="round" stroke-linejoin="round"/>
<path d="M23.571 56.7812C22.2087 57.2794 21.4285 58.0716 21.0084 58.6657C20.6843 59.1218 20.5703 59.4579 20.5703 59.4579" stroke="#4F4131" stroke-linecap="round" stroke-linejoin="round"/>
<path d="M23.0781 58.8574C21.1696 60.6578 21.1456 64.6548 21.1576 65.0569" stroke="#4F4131" stroke-linecap="round" stroke-linejoin="round"/>
<path d="M22.9708 62.459L21.7705 65.4597" stroke="#4F4131" stroke-linecap="round" stroke-linejoin="round"/>
<path d="M24.1706 63.0586L22.1182 66.4374" stroke="#4F4131" stroke-linecap="round" stroke-linejoin="round"/>
<path d="M25.371 63.0586L23.8467 66.4374" stroke="#4F4131" stroke-linecap="round" stroke-linejoin="round"/>
<path d="M28.3718 59.459L25.3711 66.6606" stroke="#4F4131" stroke-linecap="round" stroke-linejoin="round"/>
<path d="M24.6753 54.0262L19.3281 53.3121L12.6426 52.4238" stroke="#4F4131" stroke-linecap="round" stroke-linejoin="round"/>
<path d="M10.3674 51.6562C10.3674 51.6562 9.92327 52.8025 9.6172 54.0268C9.32313 55.1611 9.14909 56.3613 9.54518 56.7814C9.77924 57.0275 10.1273 57.1655 10.5234 57.2195C11.5076 57.3636 12.7739 57.0155 13.272 56.7814C13.9682 56.4573 19.3274 53.3126 19.3274 53.3126" stroke="#4F4131" stroke-linecap="round" stroke-linejoin="round"/>
<path d="M15.8955 56.3736C16.3696 56.4576 23.5173 54.8552 23.8473 54.4531" stroke="#4F4131" stroke-linecap="round" stroke-linejoin="round"/>
<path d="M10.4512 60.7676C9.61098 64.4344 7.43249 72.2482 7.0424 76.0951C6.95838 76.9653 6.95838 77.6255 7.09041 77.9975" stroke="#4F4131" stroke-linecap="round" stroke-linejoin="round"/>
<path d="M10.7702 58.8574C10.8062 59.0735 10.6802 59.7636 10.4521 60.7538" stroke="#4F4131" stroke-linecap="round" stroke-linejoin="round"/>
<path d="M29.4998 61.2954C29.4338 61.0495 29.3679 60.8695 29.2959 60.7676" stroke="#4F4131" stroke-linecap="round" stroke-linejoin="round"/>
<path d="M7.49902 78.7165H10.7758L11.1779 80.4809L19.5678 79.1546L19.8679 80.889L25.6832 78.7165C25.6832 78.7165 25.8452 79.2986 26.1873 79.6167C26.2953 79.7127 26.4214 79.7907 26.5714 79.8027C27.1715 79.8627 30.2802 76.2619 30.2802 76.2619C30.2802 76.2619 30.2322 64.2532 29.5061 61.3125" stroke="#4F4131" stroke-linecap="round" stroke-linejoin="round"/>
<path d="M13.6323 58.8574L12.168 77.5217" stroke="#4F4131" stroke-linecap="round" stroke-linejoin="round"/>
<path d="M19.3271 57.2559L19.8673 77.5225" stroke="#4F4131" stroke-linecap="round" stroke-linejoin="round"/>
<path d="M25.3711 67.3848C25.3711 67.3848 26.3553 75.5466 26.1633 76.8009" stroke="#4F4131" stroke-linecap="round" stroke-linejoin="round"/>
<path d="M10.4587 109.6L9.76855 111.67" stroke="#4F4131" stroke-linecap="round" stroke-linejoin="round"/>
<path d="M19.328 81.8066C19.346 82.2567 17.6357 87.682 15.6552 93.7854C15.6132 93.9174 15.5652 94.0494 15.5232 94.1815C13.6267 100.021 11.5203 106.4 10.458 109.593" stroke="#4F4131" stroke-linecap="round" stroke-linejoin="round"/>
<path d="M6.47906 106.389C6.28702 107.187 6.16699 107.781 6.16699 108.069" stroke="#4F4131" stroke-linecap="round" stroke-linejoin="round"/>
<path d="M11.2793 80.8887C11.2433 81.1107 11.2133 81.4348 11.1773 81.8249C10.9253 84.9036 10.7752 92.4353 10.7752 92.4353C10.7752 92.4353 10.6132 92.9214 10.3491 93.7256C9.43691 96.5103 7.30042 103.094 6.49023 106.359" stroke="#4F4131" stroke-linecap="round" stroke-linejoin="round"/>
<path d="M15.8952 93.8652L15.8412 94.4353L14.6589 107.416L14.5449 108.677" stroke="#4F4131" stroke-linecap="round" stroke-linejoin="round"/>
<path d="M25.5152 82.6953C25.0231 85.1079 23.9008 89.4949 22.6765 94.0919C21.1642 99.7692 19.5018 105.765 18.6736 108.729C18.3436 109.912 18.1455 110.614 18.1455 110.614" stroke="#4F4131" stroke-linecap="round" stroke-linejoin="round"/>
<path d="M25.7787 80.8887C25.8027 81.1167 25.7187 81.6749 25.5566 82.4971" stroke="#4F4131" stroke-linecap="round" stroke-linejoin="round"/>
<path d="M21.77 93.8652C21.6979 93.9072 21.6199 93.9492 21.5479 93.9852C19.7355 94.9455 16.9809 95.8337 16.3867 94.4834" stroke="#4F4131" stroke-linecap="round" stroke-linejoin="round"/>
<path d="M14.5443 93.8652C12.7678 94.8675 11.1835 94.6634 10.7754 93.8652" stroke="#4F4131" stroke-linecap="round" stroke-linejoin="round"/>
<path d="M5.71094 109.594C6.16704 111.67 7.66138 113.663 9.31176 112.967" stroke="#4F4131" stroke-linecap="round" stroke-linejoin="round"/>
<path d="M14.5449 109.594C15.1691 110.47 16.9275 111.67 18.1457 111.67" stroke="#4F4131" stroke-linecap="round" stroke-linejoin="round"/>
<path d="M10.7762 112.15C10.9082 112.474 11.0402 112.852 11.1783 113.267C11.5744 114.479 12.0125 115.961 12.6606 117.156C13.0987 117.96 13.6328 118.632 14.317 118.992C16.3695 120.072 17.5277 118.998 18.1459 121.038C18.77 123.073 13.7769 123.289 13.2727 123.181C12.7686 123.073 12.3845 122.665 10.7762 122.569C9.1678 122.473 3.52051 120.528 3.52051 120.528L5.11087 109.87L5.15288 109.594" stroke="#4F4131" stroke-linecap="round" stroke-linejoin="round"/>
<path d="M7.9668 114.07C8.56693 115.271 9.79122 118.325 11.2796 119.195C12.7679 120.072 13.6321 119.195 13.6321 119.195" stroke="#4F4131" stroke-linecap="round" stroke-linejoin="round"/>
<path d="M19.0822 111.67C19.2743 112.066 19.5143 112.444 19.7844 112.804C20.7266 114.094 22.0349 115.139 22.9711 115.727C24.1714 116.471 25.4617 115.985 27.2141 116.831C28.9725 117.671 28.9725 119.358 27.7722 120.012C26.944 120.468 22.9111 120.54 20.4985 120.54C19.4183 120.54 18.6621 120.528 18.6621 120.528" stroke="#4F4131" stroke-linecap="round" stroke-linejoin="round"/>
<path d="M13.4043 111.91L12.9542 114.449L12.6602 116.105" stroke="#4F4131" stroke-linecap="round" stroke-linejoin="round"/>
<path d="M13.6323 110.631L13.4043 111.897" stroke="#4F4131" stroke-linecap="round" stroke-linejoin="round"/>
<path d="M16.9688 112.27C16.9688 113.47 19.3453 116.639 21.1577 117.155C22.9701 117.671 24.6085 116.398 24.6085 116.398" stroke="#4F4131" stroke-linecap="round" stroke-linejoin="round"/>
<path d="M18.1453 41.6152L17.3711 52.0816" stroke="#4F4131" stroke-linecap="round" stroke-linejoin="round"/>
<path d="M19.97 40.2539L19.6699 52.0826" stroke="#4F4131" stroke-linecap="round" stroke-linejoin="round"/>
</svg>
