<svg width="201" height="186" viewBox="0 0 201 186" fill="none" xmlns="http://www.w3.org/2000/svg">
<path d="M125.338 180.809C120.703 181.658 116.075 182.506 111.441 183.355C108.086 183.968 104.678 184.588 101.277 184.327C96.2252 183.942 91.5384 181.677 86.9757 179.471C75.4808 173.929 63.8553 168.563 51.675 164.758C33.979 159.236 14.031 156.377 1.38071 142.832C11.5832 137.571 21.7987 132.329 32.0273 127.107C33.7571 126.226 35.526 125.332 37.4386 124.999C39.7428 124.594 42.0992 125.032 44.3838 125.528C59.5929 128.831 74.0317 134.895 88.3791 140.926C101.317 146.37 114.665 152.088 124.254 162.343C127.133 165.417 129.724 169.157 129.829 173.368C129.933 177.578 126.565 182.056 122.361 181.729" fill="#D3B25B"/>
<path d="M122.318 182.161C122.168 182.089 122.259 181.985 122.709 182.004L123.035 182.22L122.318 182.154V182.161Z" fill="#C6B08D"/>
<path d="M125.164 181.254C125.66 181.143 126.28 180.973 126.084 181.319C125.797 181.359 125.64 181.411 125.477 181.463C125.307 181.502 125.131 181.528 124.831 181.515C124.42 181.652 124.113 181.796 124.204 181.861C124.047 181.868 123.519 182.037 123.271 181.933C123.832 181.705 124.504 181.567 125.249 181.372C125.379 181.267 125.209 181.274 125.157 181.254H125.164Z" fill="#C6B08D"/>
<path d="M108.642 150.797L108.891 150.908C108.819 150.882 108.734 150.843 108.642 150.797Z" fill="#C6B08D"/>
<path d="M85.1627 140.039C85.3458 140.118 85.4111 140.17 85.4111 140.196C85.2477 140.111 85.117 140.039 85.1627 140.039Z" fill="#C6B08D"/>
<path d="M80.9918 138.559C81.0834 138.591 81.1553 138.617 81.2402 138.644C81.1422 138.624 81.0441 138.598 80.9918 138.559Z" fill="#C6B08D"/>
<path d="M108.643 150.796L108.01 150.515C108.003 150.43 108.343 150.646 108.643 150.796Z" fill="#C6B08D"/>
<path d="M129.536 177.357C129.471 177.495 129.386 177.599 129.314 177.691C129.379 177.58 129.451 177.482 129.497 177.364C129.51 177.364 129.523 177.364 129.536 177.357Z" fill="#C6B08D"/>
<path d="M117.977 157.246L118.14 157.377C118.173 157.436 118.199 157.494 118.219 157.553C118.14 157.449 118.055 157.351 117.977 157.246Z" fill="#C6B08D"/>
<path d="M124.302 163.167C124.165 163.03 124.256 162.853 124.263 162.742C124.282 162.873 124.354 163.004 124.459 163.141C124.433 163.167 124.387 163.174 124.302 163.161V163.167Z" fill="#C6B08D"/>
<path d="M129.445 175.223L129.367 175.451C129.386 175.393 129.419 175.288 129.445 175.223Z" fill="#C6B08D"/>
<path d="M112.898 153.65C112.898 153.65 112.833 153.67 112.794 153.663C112.807 153.644 112.846 153.644 112.898 153.65Z" fill="#C6B08D"/>
<path d="M115.509 183.488C115.509 183.488 115.509 183.468 115.509 183.455C115.561 183.462 115.581 183.475 115.509 183.488Z" fill="#C6B08D"/>
<path d="M125.326 180.765L125.189 180.778C125.189 180.778 125.15 180.712 125.143 180.68L125.333 180.758L125.326 180.765Z" fill="#C6B08D"/>
<path d="M73.419 135.738C73.419 135.738 73.4387 135.738 73.4518 135.751C73.6422 135.85 73.5306 135.804 73.419 135.738Z" fill="#C6B08D"/>
<path d="M5.18118 141.737C5.85351 141.208 3.86915 142.174 4.90702 141.437C4.83522 141.554 6.06239 141.163 5.18118 141.737Z" fill="#C6B08D"/>
<path d="M129.602 177.123C129.648 177.005 129.7 176.887 129.746 176.77C129.687 176.933 129.642 177.038 129.602 177.123Z" fill="#C6B08D"/>
<path d="M4.91428 141.436L5.02539 141.357C4.97963 141.39 4.95351 141.41 4.92082 141.436H4.91428Z" fill="#C6B08D"/>
<path d="M55.9653 129.4C56.0111 129.381 56.0895 129.381 56.168 129.381C56.1549 129.394 56.1091 129.407 55.9653 129.4Z" fill="#C6B08D"/>
<path d="M69.1309 133.676L68.7975 133.578C68.9282 133.611 69.0393 133.643 69.1309 133.676Z" fill="#C6B08D"/>
<path d="M49.125 127.199C48.9424 127.166 48.8706 127.179 48.6358 127.088C48.6619 127.088 48.6879 127.088 48.714 127.088C48.7988 127.134 48.9097 127.173 49.125 127.199Z" fill="#C6B08D"/>
<path d="M41.8586 125.581C41.8978 125.575 41.9501 125.568 41.9958 125.568C42.0677 125.581 42.1527 125.601 42.2246 125.614L41.8586 125.581Z" fill="#C6B08D"/>
<path d="M92.6955 182.932C92.8716 182.945 92.989 182.932 93.0804 182.906C92.9238 182.985 93.948 183.435 92.6955 182.932Z" fill="#C6B08D"/>
<path d="M129.439 177.312C129.498 177.286 129.544 177.233 129.603 177.129C129.563 177.214 129.531 177.292 129.491 177.371C129.459 177.384 129.433 177.371 129.439 177.318V177.312Z" fill="#C6B08D"/>
<path d="M49.1895 125.725L48.021 125.457C48.3474 125.522 48.7782 125.62 49.1895 125.725Z" fill="#C6B08D"/>
<path d="M42.8779 162.998L43.1328 163.09C43.0282 163.063 42.9367 163.037 42.8779 162.998Z" fill="#C6B08D"/>
<path d="M44.5557 124.623C44.3339 124.642 44.099 124.629 43.8642 124.603C43.8185 124.577 43.7664 124.557 43.7337 124.531L44.5491 124.623H44.5557Z" fill="#C6B08D"/>
<path d="M100.789 185.327C99.6013 185.216 100.261 185.027 100.032 184.864C98.6613 184.596 99.3663 184.942 98.8702 184.988C98.0086 184.772 97.4146 184.394 96.7879 184.237C96.7292 184.263 96.6052 184.244 96.7357 184.329C95.9002 183.917 94.1312 183.519 93.237 182.899C93.1587 182.893 93.113 182.899 93.0869 182.899C93.2892 182.847 93.361 182.742 93.361 182.651C92.8845 182.468 92.5385 182.155 92.297 182.227C92.5908 182.344 92.5908 182.409 92.7083 182.514L92.2383 182.246C91.703 182.272 92.8845 182.599 92.8257 182.755C91.8727 182.299 90.8349 181.633 90.0842 181.352C89.8362 181.489 91.7683 182.188 90.7043 181.933L91.8793 182.351C90.8675 182.299 92.5842 182.625 91.6312 182.625C90.0907 182.031 89.9928 181.783 88.4915 181.15C88.2108 180.882 88.6808 181.039 88.4001 180.771C86.4158 179.577 86.5202 180.484 85.1233 179.492C84.7904 179.172 84.7643 178.839 83.6089 178.46L83.87 178.865C82.4405 178.212 83.2173 178.154 81.6572 177.599C81.8791 177.814 82.7342 178.199 82.5123 178.127C81.4679 177.847 81.8922 177.677 81.1546 177.325L80.9066 177.455C79.4118 176.711 77.806 175.791 76.1415 174.981C76.2068 175.086 76.4679 175.281 76.0436 175.157C73.9678 174.087 71.4939 173.14 69.3725 172.377L68.6544 171.868C68.4717 171.789 68.2824 171.802 68.4652 171.92C67.6296 171.646 68.4651 171.789 68.1127 171.554C67.6557 171.345 67.4664 171.398 67.7341 171.574C66.3764 170.817 63.7915 169.57 62.1988 169.178L62.4729 169.348C61.2588 168.969 61.2784 168.46 60.1165 168.219L60.3188 168.33C57.7144 167.435 54.8945 166.28 52.8057 165.915C52.512 165.516 50.1751 165.216 50.1164 164.805C48.5563 164.537 48.9741 164.713 46.8069 164.23C46.2325 164.087 46.0236 163.76 45.3317 163.519L45.2599 163.708L44.3591 163.238L43.7847 163.33L43.1385 163.095C43.4061 163.153 43.726 163.16 43.6999 163.095C42.6881 162.723 41.1411 162.533 41.0889 162.625L38.6802 161.789C38.7128 161.881 39.1175 162.024 39.4243 162.161C38.1711 161.606 39.1306 162.298 37.9818 161.789C38.1515 161.789 37.9295 161.652 37.91 161.6C37.2768 161.548 35.9191 161.169 34.9269 160.843L35.0836 161.032C33.2559 160.542 31.265 159.877 29.2414 159.237C29.9921 159.4 29.8942 159.119 29.3067 158.911L29.0065 159.041C28.6605 158.8 29.6527 159.159 28.9086 158.76C28.1448 158.552 28.3276 158.832 28.7388 159.035L27.838 158.676C27.7662 158.721 27.9686 158.819 28.0012 158.911C27.6618 158.676 26.3498 158.584 25.8798 158.186L25.808 158.232C23.7845 157.572 22.9163 157.115 21.2844 156.515C21.3171 156.339 20.6709 156.117 20.2531 155.777C19.052 155.347 17.6813 154.948 16.2974 154.25C15.3575 153.708 16.0755 153.976 15.6839 153.669C15.5337 153.793 14.1564 153.101 14.8222 153.564C14.0063 153.121 13.4906 152.827 12.9227 152.501C12.3614 152.168 11.7347 151.822 10.7817 151.13C11.0363 151.202 11.2909 151.332 11.1929 151.202C10.847 150.954 10.3378 150.751 10.3444 150.856L10.4292 150.927C8.29472 149.42 5.12891 147.859 3.7516 146.201L3.82993 146.293C3.29468 145.797 2.83775 145.216 2.36124 144.668C1.62364 143.982 2.70068 145.183 2.10015 144.733C2.00224 144.609 1.93044 144.517 1.81294 144.38C1.65628 144.204 1.49962 144.041 1.34949 143.871C1.04922 143.558 0.762009 143.258 0.481323 142.97L0.272446 142.762L0.167999 142.657C0.167999 142.657 0.239807 142.611 0.272446 142.585C0.448685 142.494 0.618393 142.409 0.781586 142.324C1.11449 142.148 1.44086 141.978 1.76071 141.808C2.21763 141.567 2.66805 141.325 3.12497 141.084C3.51009 140.888 3.90825 140.699 4.35212 140.523C5.44221 139.413 9.02581 138.16 10.6577 136.972L10.6055 137.128C11.1146 136.998 11.1277 136.782 11.454 136.586C11.4475 136.691 11.0036 136.932 11.317 136.848C15.2596 134.981 19.2479 132.585 23.1839 130.451C24.6265 129.674 24.2806 130.562 25.9908 129.374L25.3707 129.452C26.8981 128.812 28.3994 128.042 29.8877 127.272C31.3825 126.515 32.8381 125.692 34.4373 125.144C34.235 125.176 34.2023 125.118 33.9021 125.248C34.1958 125.033 34.8029 124.772 35.3642 124.615C35.9256 124.452 36.4282 124.406 36.4478 124.465C36.97 124.328 36.5392 124.321 36.8525 124.184C37.5771 123.923 38.7194 124.126 39.0914 123.982C39.1567 123.956 38.8826 123.936 38.7455 123.93C39.235 123.949 40.9583 123.969 40.4949 124.126C41.7742 124.139 42.8643 124.524 43.8435 124.609C44.4309 124.928 45.9061 124.974 46.0367 125.294C46.0171 124.981 48.1777 125.542 48.8827 125.881C48.6542 125.731 49.555 125.953 49.2939 125.764C50.149 125.979 50.9127 126.247 50.7234 126.351C51.5524 126.397 52.3161 126.678 53.0015 126.926C53.6804 127.187 54.2809 127.409 54.7835 127.324C57.2379 128.231 59.5029 129.067 61.7027 129.876C61.7223 129.563 59.2483 129.034 59.4442 128.767C61.5264 129.576 62.6557 130.235 64.7575 130.901C65.3058 131.058 64.4964 130.673 64.3333 130.555C66.3829 131.417 68.3803 131.998 70.1754 132.853C70.1754 132.827 69.9926 132.722 69.8098 132.624C70.1688 132.774 70.6714 132.912 70.5801 133.016L70.2406 132.846C69.5944 132.807 71.5396 133.78 71.5657 133.904C71.0892 133.303 73.4195 134.517 72.6166 133.688C72.8451 133.806 73.1193 133.982 73.0344 134.047C73.3999 134.165 73.5305 134.158 73.2106 133.923C74.4835 134.504 73.9678 134.452 75.1428 134.915C75.1624 134.85 74.9339 134.733 74.8425 134.615C75.3908 134.968 75.9391 135.327 76.9509 135.673C76.9052 135.614 77.0423 135.614 76.742 135.496C78.4326 136.201 79.5097 136.985 81.4092 137.637C80.9718 137.148 82.075 137.814 82.2708 137.631L83.2434 138.114L82.7995 138.055C83.6742 138.414 84.3792 138.904 85.1559 139.145L84.5489 138.78L86.1677 139.504L85.2082 139.204C86.0437 139.687 84.9928 139.446 86.1808 139.87C85.9523 139.746 87.0555 140.235 87.5646 140.294C87.9628 140.542 88.3805 140.81 89.0463 141.025C89.2422 141.025 89.0137 140.718 89.1442 140.718C89.4902 141.084 91.1612 141.632 91.6182 142.063C91.4615 141.939 91.5007 141.815 91.5659 141.822L91.8597 142.128C92.284 142.252 92.3558 142.252 92.3297 142.128C93.5568 142.618 91.8205 142.246 93.3153 142.742C93.2109 142.683 93.2696 142.683 93.0477 142.559C94.5164 143.121 95.7958 143.858 97.1469 144.38C97.6365 144.328 96.0177 143.812 96.5464 143.819C98.4329 144.707 100.365 145.862 102.199 146.698L101.847 146.561C101.945 146.991 103.276 147.057 104.112 147.67C103.903 147.533 103.903 147.35 103.949 147.416C105.215 147.983 106.436 148.78 108.211 149.89L108.028 149.681C108.772 150.02 109.928 150.686 110.698 151.123C110.874 151.339 111.312 151.587 110.985 151.534C112.284 152.011 113.335 152.794 114.34 153.545C114.836 153.93 115.313 154.328 115.816 154.687C116.318 155.04 116.821 155.373 117.363 155.666C117.134 155.49 116.86 155.183 117.043 155.327L118.629 156.645C118.407 156.665 118.355 156.554 117.944 156.384C118.094 156.613 118.518 157.011 118.897 157.344C118.257 156.672 119.053 157.161 119.419 157.35C119.34 157.344 119.412 157.468 119.353 157.488C120.346 157.971 119.295 157.833 120.535 158.636V158.525C120.907 158.924 121.207 159.341 121.658 159.726C121.958 159.766 121.286 159.27 121.351 159.139C121.951 159.713 122.343 160.471 122.976 160.895C122.767 160.608 122.408 160.249 122.18 159.981C122.931 160.379 122.937 160.51 123.394 160.914L123.348 160.875L124.406 161.815L124.112 161.6C124.517 162.644 125.515 163.206 126.155 164.492C125.522 163.251 126.142 164.211 126.233 164.008C126.501 164.257 126.886 164.655 126.834 164.498C127.102 165.131 127.617 165.327 127.931 166.267C128.015 166.267 128.309 166.881 128.368 166.672C128.773 167.462 128.166 166.548 128.139 166.652C128.394 167.285 128.825 167.951 129.223 168.728C129.621 169.505 129.967 170.425 130.013 171.417C130.117 172.259 130.059 172.768 130 173.251C129.928 173.734 129.837 174.191 129.673 174.936C129.673 175.197 129.752 175.105 129.83 174.942C129.895 174.779 129.961 174.544 129.961 174.544C129.961 175.399 129.758 176.032 129.412 176.75C129.523 176.62 129.504 176.789 129.478 177.044C129.21 177.644 129.092 177.344 128.786 178.134C128.923 178.049 129.106 177.932 129.314 177.684C128.929 178.362 128.381 178.917 127.846 179.492C127.8 179.727 128.277 179.231 128.505 179.041C128.355 179.211 128.192 179.42 128.009 179.609C127.813 179.792 127.624 179.988 127.428 180.151C127.023 180.464 126.664 180.693 126.495 180.693C126.638 180.569 126.775 180.438 126.899 180.295C126.658 180.497 126.873 180.523 127.075 180.386C127.415 180.19 127.598 179.975 127.696 179.805C127.794 179.642 127.807 179.531 127.8 179.492L127.389 179.87C127.421 179.701 127.532 179.518 127.689 179.329C127.839 179.133 128.029 178.911 128.237 178.682C128.629 178.206 129.073 177.651 129.275 177.129C129.138 177.24 128.988 177.338 128.831 177.429C129.073 177.135 129.269 176.809 129.484 176.476C129.484 176.221 129.399 176.026 129.19 176.515C129.301 175.738 129.517 175.889 129.504 175.203C129.497 175.125 129.478 175.157 129.452 175.223C129.543 174.988 129.595 174.74 129.654 174.492C129.582 174.629 129.478 174.348 129.465 174.805C129.484 174.133 129.549 173.61 129.569 173.173C129.595 172.736 129.595 172.396 129.452 172.155V172.266C129.367 171.339 129.36 171.287 129.445 171.28C129.504 171.28 129.634 171.332 129.556 170.601C129.321 170.327 129.053 170.079 128.799 169.838L128.929 169.596C128.851 169.42 128.694 169.067 128.642 169.165C128.492 168.441 128.773 169.244 128.727 168.806C128.205 168.01 127.585 166.456 127.186 166.456C127.134 166.091 127.767 167.155 127.317 166.247C126.88 166.195 126.716 165.242 126.057 164.655C126.09 164.968 126.638 165.569 126.005 164.975C125.927 164.381 124.908 163.715 124.471 163.147C124.634 162.951 123.466 161.933 122.656 161.012C122.676 161.104 120.907 159.518 120 158.839V158.891C119.987 158.571 119.06 157.853 118.44 157.266C118.374 157.396 118.459 157.54 118.766 157.886L118.152 157.37C118.048 157.194 117.878 157.011 117.48 156.672L117.532 156.933C117.115 156.606 116.723 156.234 116.286 155.856C115.848 155.484 115.352 155.118 114.758 154.772C114.791 154.589 115.92 155.027 114.791 154.087C114.693 154.132 114.562 154.224 114.856 154.478C114.758 154.4 114.536 154.159 114.308 154.048L114.699 154.511C114.151 154.204 114.51 154.211 114.086 153.943C114.021 154.054 113.727 153.819 113.727 153.943C113.825 154.028 114.125 154.132 114.249 154.289C113.772 153.989 113.152 153.689 112.911 153.643C112.989 153.61 113.009 153.499 112.669 153.258C111.782 152.664 112.284 153.186 111.723 152.905C111.553 152.696 110.92 152.422 111.005 152.246C110.737 152.083 110.639 152.128 110.509 152.115C110.091 151.743 108.296 150.79 108.942 150.921L109.073 150.98C109.073 150.98 109.027 150.947 109.001 150.927C107.526 149.85 105.659 149.185 104.092 148.303L104.066 148.362C103.146 147.801 101.945 147.252 101.311 146.802C101.024 146.665 100.587 146.58 100.672 146.711C99.9538 146.312 99.895 146.215 98.7723 145.81C99.4773 146.26 98.472 145.784 99.5034 146.241C98.5112 145.849 98.2566 145.829 97.2775 145.203C97.5647 145.51 96.4616 145.066 96.0177 144.811L96.7488 145.007C96.2396 144.752 95.7762 144.563 95.3062 144.367L95.4694 144.674C93.3675 144.041 92.0294 142.696 90.3257 142.455C89.8492 142.089 91.4615 142.82 91.0568 142.455C90.1168 142.089 89.0333 141.972 88.7395 141.848C87.421 141.423 87.6756 141.058 86.3113 140.575C86.5137 140.575 86.7552 140.451 85.7891 139.968C84.8492 139.602 84.5228 139.791 85.0841 140.092C85.3061 140.19 85.4236 140.216 85.4236 140.183C85.7108 140.333 86.0959 140.529 85.6912 140.457L85.5998 140.333C85.1103 140.216 83.8309 139.667 84.0854 139.916C83.4131 139.557 83.8374 139.674 84.3727 139.85C83.139 139.452 82.5123 139.073 81.2525 138.636C81.4614 138.675 81.6768 138.669 81.481 138.59C79.6402 137.931 80.7434 138.12 79.5358 137.592C78.7982 137.415 79.6794 137.957 78.4849 137.357C77.7015 137.122 78.2499 137.481 78.524 137.664C77.46 137.063 76.3895 136.9 75.7433 136.671L76.3112 136.965C75.9718 136.789 75.6846 136.671 75.3843 136.554H75.7825C75.4235 136.43 75.1297 136.312 75.1167 136.378C74.7968 136.136 75.4887 136.247 74.8295 135.836C74.3334 135.725 73.4456 135.196 73.2106 135.327C74.6989 135.836 72.9757 135.457 74.1963 135.973C73.9678 135.855 73.6741 135.744 73.3151 135.627C73.2563 135.627 73.3477 135.686 73.4391 135.731C71.9769 135.353 72.8843 135.255 71.4286 134.7C71.5722 134.876 71.0109 134.778 70.7824 134.661C71.3699 134.883 71.1349 134.589 70.6258 134.302C69.6597 134.028 69.6401 133.851 69.144 133.675L69.7184 133.851C69.5683 133.669 69.0983 133.506 68.4586 133.231C68.3738 133.297 69.0265 133.512 68.785 133.46C68.1322 133.003 67.0748 133.042 66.1153 132.546C65.6192 132.448 65.9978 132.735 65.5669 132.637C64.4834 132.089 64.2876 132.337 63.1322 131.802C63.5304 131.776 63.5761 131.834 62.7862 131.397C63.4324 131.658 64.0722 131.919 64.7118 132.193L63.5304 131.528C64.1244 131.73 64.751 132.069 65.11 132.167C64.5552 131.834 64.6009 131.893 64.9273 131.874C64.0395 131.795 63.3606 131.169 62.3685 130.999L62.2706 131.371C60.8019 131.038 59.8162 130.333 57.9428 129.824L58.5564 129.948C58.3606 129.713 57.4206 129.569 56.8397 129.321C56.8593 129.465 56.4676 129.387 56.1869 129.387C56.2457 129.302 54.8292 128.975 54.7313 128.688L53.8501 128.61C52.3292 128.231 52.2313 127.768 50.7626 127.409C51.1673 127.663 50.4819 127.572 51.4284 127.931C50.9454 127.8 50.5015 127.703 50.5146 127.618C50.2143 127.618 49.209 127.096 48.7325 127.102C48.5432 126.998 48.5041 126.847 47.9558 126.717C47.8905 126.73 47.9427 126.782 47.9427 126.782C47.9558 126.717 47.1072 126.482 47.6163 126.462C46.0171 126.495 43.3865 125.424 42.0092 125.575C40.9518 125.353 39.6593 125.209 38.6933 125.268C38.7585 125.3 38.6933 125.327 38.8826 125.307C38.2233 125.398 38.0209 125.34 37.7794 125.281C37.5444 125.229 37.2637 125.163 36.5327 125.424C35.8342 125.829 37.3421 125.327 36.8917 125.529C36.8395 125.757 36.4021 125.849 35.8669 125.999C35.3316 126.143 34.6919 126.345 34.2676 126.678L34.5026 126.599C33.8499 127.043 32.688 127.291 31.5261 127.925C31.5261 127.925 31.5979 127.925 31.5652 127.977C30.6644 128.199 29.1109 128.91 27.9555 129.439C28.3798 129.406 28.5104 129.256 28.3733 129.517C27.8576 129.759 28.3994 129.197 27.3681 129.674C27.0809 129.922 26.3889 130.366 26.3759 130.575L27.3354 130.092C26.9503 130.549 26.0952 130.718 25.6122 131.012L25.7231 131.071C24.2479 131.789 24.1108 131.573 22.5508 132.396L22.6748 132.246C21.7022 132.461 22.022 132.742 21.0821 133.009L20.9385 133.368C20.3445 133.603 18.8432 134.165 17.8053 134.641C18.4646 134.517 19.6983 133.995 20.4881 133.721C19.9267 134.008 18.5755 134.68 18.223 134.72C18.458 134.628 18.7714 134.537 18.9802 134.387C18.1969 134.556 17.2505 134.935 16.1343 135.516C16.5585 135.862 13.2752 137.122 12.642 137.885C10.5794 138.734 8.75166 139.968 6.43439 141.123C7.07409 140.359 5.75553 141.456 5.71636 141.032C5.16805 141.286 4.96571 141.397 4.93307 141.443L3.41869 142.487C3.08579 142.788 3.96702 142.305 3.96049 142.409C3.37954 142.722 3.27509 142.827 3.22939 142.912C3.20329 142.951 3.19025 142.99 3.14455 143.049C3.15108 143.075 3.16413 143.101 3.18372 143.121C3.13149 143.068 3.09232 143.029 3.03358 143.029C2.99441 143.029 2.87691 143.055 2.94872 143.094C2.80511 143.049 2.85081 142.996 2.87692 142.899C2.78554 142.918 2.70067 142.944 2.64192 142.97C2.60928 142.983 2.58317 142.996 2.55706 143.01C2.5179 143.023 2.58317 143.042 2.59622 143.062C2.69414 143.134 2.79858 143.173 2.88344 143.199C2.97482 143.231 3.02052 143.212 3.09885 143.264C3.30121 143.434 3.52315 143.669 3.81688 144.021L3.49702 143.525C3.81687 143.865 4.38477 144.511 5.05057 145.066C5.69026 145.64 6.31038 146.241 6.56495 146.658C6.72161 146.73 6.95659 146.782 6.65633 146.495C7.53754 147.181 8.52972 147.938 9.45009 148.695C10.4096 149.4 11.3561 150.02 12.146 150.399L12.048 150.222C12.3875 150.47 12.5833 150.764 13.099 150.921C13.099 150.875 12.9945 150.758 13.1708 150.843C13.347 150.98 14.0716 151.521 14.5938 151.737L14.2282 151.417C14.7243 151.645 15.1486 151.88 15.5403 152.109C15.9384 152.318 16.2909 152.527 16.6369 152.742C17.3223 153.16 17.9489 153.61 18.7909 154.002C18.9019 153.734 20.5403 154.315 21.3562 154.602L21.3432 154.55C23.7453 155.451 25.338 156.313 27.577 157.168C29.0783 157.344 32.4138 158.545 34.7572 159.028C34.3916 158.976 34.7572 159.263 35.1554 159.407C35.7102 159.505 36.5979 160.014 36.5784 159.74L36.3825 159.687C36.859 159.55 37.9491 159.929 38.8173 160.164L38.8695 160.536C41.2781 160.679 44.7769 162.344 46.1411 162.272C46.6633 162.514 47.3487 162.703 47.8644 162.945L47.884 162.762C49.4179 163.153 50.1816 163.369 52.042 163.976L51.696 163.734C52.7535 164.048 52.8644 164.668 53.8305 164.981L54.2091 164.811C56.0303 165.425 57.9624 165.836 59.6596 166.73C59.6465 166.685 59.6204 166.587 59.3267 166.469C60.1818 166.77 62.6753 167.527 62.2314 167.768C62.3424 167.54 64.0917 168.46 65.0121 168.95L64.9273 168.721C65.6583 169.257 65.6583 169.335 66.7615 169.857C67.0356 169.949 67.0552 169.818 66.6766 169.714C67.6035 169.994 67.3098 170.157 68.426 170.523L68.067 170.249C68.9874 170.621 68.8894 170.647 69.3398 170.986C69.8881 171.293 71.0892 171.691 71.2916 171.6C71.3764 171.744 71.8203 172.083 72.3751 172.279C72.473 172.253 72.2903 172.135 72.2054 172.07C73.7785 172.631 74.3791 173.264 75.4887 173.571C75.5344 173.526 75.6128 173.532 75.7107 173.552C74.5096 173.01 73.5305 172.586 73.6153 172.644C73.6806 172.494 74.6728 172.899 73.9874 172.344C74.7185 172.808 75.9391 173.663 76.9183 174.022C76.9705 174.022 77.0227 174.035 77.0684 174.022L76.977 173.956C77.1989 174.041 77.3882 174.146 77.5645 174.257C77.8778 174.368 78.0802 174.439 78.3674 174.57C78.5371 174.492 79.5097 175.02 79.9927 175.236C79.8752 175.386 80.5149 175.654 79.8622 175.51C79.947 175.536 79.7773 175.445 79.464 175.295C79.3922 175.255 79.3073 175.216 79.2681 175.184C79.2747 175.19 79.2877 175.203 79.2943 175.216C78.9809 175.066 78.5697 174.87 78.0997 174.648C78.4457 174.909 78.8047 175.164 79.3791 175.321C79.5749 175.543 79.7969 175.778 79.9274 175.902C80.6977 175.973 82.0228 176.45 82.2643 176.391C83.6873 177.174 85.6847 178.095 86.4549 178.852C86.8531 179.094 86.9771 178.996 87.1534 179.022C86.9314 178.878 86.6442 178.741 86.5332 178.637C87.3296 179.12 88.9745 179.851 89.0724 180.158C90.1691 180.556 88.5764 179.681 89.9993 180.392L89.8362 180.236C91.331 180.719 92.421 181.365 93.5829 181.972C94.7448 182.573 95.9981 183.154 97.7214 183.33C97.4864 183.304 97.3689 183.284 97.3101 183.31C99.2292 183.708 101.207 184.035 103.218 184.041C105.228 184.048 107.238 183.793 109.125 183.297C110.202 183.043 110.352 183.167 111.037 183.16L111.24 182.925L112.421 182.938C114.073 182.808 115.137 181.946 117.245 181.881L117.004 182.057C117.735 181.9 119.347 181.705 119.197 181.58C119.275 181.594 119.464 181.672 119.739 181.554V181.45L121.586 181.293C122.976 180.96 121.292 180.928 123.335 180.536C124.105 180.438 125.555 180.432 125.28 180.556C124.974 180.614 124.51 180.765 124.504 180.869L125.209 180.797C125.391 181.071 125.979 181.28 124.308 181.802L123.087 181.835L122.728 182.05L123.733 181.874C123.192 182.116 122.807 182.057 122.389 182.05C122.31 182.142 122.147 182.227 121.919 182.299L120.698 182.227C120.581 182.37 121.266 182.364 120.489 182.573C119.915 182.54 120.966 182.214 120.045 182.292C119.504 182.534 119.686 182.612 119.001 182.618C118.923 182.71 119.073 182.736 119.34 182.723C118.727 182.742 117.761 182.971 117.421 182.866C116.86 183.141 115.404 183.193 115.515 183.46C115.313 183.428 114.425 183.428 113.877 183.519C114.934 183.676 111.834 183.911 112.167 184.231C111.377 184.061 109.471 184.59 108.107 184.622C108.185 184.635 108.342 184.661 108.453 184.622C107.708 184.766 107.5 184.883 107.023 185.007C106.892 184.772 105.711 184.851 105.058 184.74C104.144 185.053 105.646 184.994 105.378 185.255C105.411 185.06 103.727 185.158 104.04 184.962C103.328 185.138 103.426 185.06 103.054 185.275C102.93 184.955 102.375 185.223 101.781 184.994C100.724 185.086 101.488 185.282 100.345 185.079C99.7841 185.118 100.802 185.334 100.802 185.334L100.789 185.327ZM76.1676 174.922C76.3699 175.027 76.5462 175.112 76.6572 175.164C76.5527 175.112 76.4156 175.046 76.1676 174.922ZM74.1375 174.002C74.3856 174.113 74.6924 174.25 75.0188 174.394C75.1167 174.368 75.0644 174.276 74.8621 174.185C74.9535 174.276 74.4639 174.093 74.1375 174.002ZM78.9614 174.805C78.6546 174.629 78.5305 174.616 78.4718 174.629C78.6219 174.707 78.7916 174.792 79.0201 174.909C79.0266 174.922 79.0397 174.936 79.0462 174.949C79.0332 174.903 79.0071 174.857 78.9614 174.805Z" fill="#C6B08D"/>
<path d="M79.4315 175.294C79.4772 175.32 79.4968 175.34 79.5557 175.366C79.4838 175.346 79.4184 175.333 79.3465 175.314C79.3138 175.274 79.2877 175.242 79.255 175.209C79.3138 175.235 79.3726 175.268 79.4249 175.294H79.4315Z" fill="#C6B08D"/>
<path d="M108.929 150.928L108.883 150.908C108.923 150.921 108.955 150.934 108.981 150.934C108.949 150.928 108.949 150.934 108.923 150.934L108.929 150.928Z" fill="#C6B08D"/>
<path d="M45.247 163.747L45.26 163.701L45.4365 163.799L45.247 163.747Z" fill="#C6B08D"/>
<path d="M119.412 157.344C119.412 157.344 119.484 157.363 119.569 157.409C119.556 157.409 119.491 157.383 119.412 157.344Z" fill="#C6B08D"/>
<path d="M123.388 160.914L123.962 161.41C123.708 161.201 123.525 161.045 123.388 160.914Z" fill="#C6B08D"/>
<path d="M126.241 163.891C126.247 163.949 126.241 163.982 126.227 164.002L126.247 163.897L126.241 163.891Z" fill="#C6B08D"/>
<path d="M69.8301 132.624C69.7778 132.604 69.732 132.584 69.6863 132.558C69.3529 132.395 69.5817 132.493 69.8301 132.624Z" fill="#C6B08D"/>
<path d="M87.5655 140.294C87.3893 140.183 87.2132 140.079 87.0306 139.975C87.3502 140.092 87.5981 140.196 87.5655 140.294Z" fill="#C6B08D"/>
<path d="M49.3203 125.757C49.2744 125.75 49.235 125.737 49.189 125.73L49.3203 125.757Z" fill="#C6B08D"/>
<path d="M86.2009 139.629C86.5335 139.727 86.7945 139.844 87.0293 139.975C86.7618 139.877 86.4553 139.766 86.2009 139.629Z" fill="#C6B08D"/>
<path d="M127.298 180.477L127.148 180.62C127.148 180.62 127.128 180.607 127.108 180.62L127.298 180.483V180.477Z" fill="#C6B08D"/>
<path d="M127.102 180.621L126.912 180.758C126.99 180.686 127.062 180.628 127.102 180.621Z" fill="#C6B08D"/>
<path d="M126.488 181.006L126.913 180.758C126.776 180.856 126.606 180.987 126.488 181.006Z" fill="#C6B08D"/>
<path d="M130.065 175.568L130.144 175.516C130.144 175.516 130.098 175.568 130.065 175.568Z" fill="#C6B08D"/>
<path d="M130.314 173.852C130.32 174.06 130.34 174.322 130.327 174.609C130.327 174.896 130.301 175.203 130.209 175.477L130.144 175.516C130.314 175.268 130.222 174.23 130.314 173.852Z" fill="#C6B08D"/>
<path d="M127.728 167.475C127.963 167.86 128.192 168.251 128.388 168.656C128.225 168.473 128.009 168.238 128.251 168.793C127.317 167.37 128.577 169.028 127.728 167.475Z" fill="#C6B08D"/>
<path d="M125.236 164.1C125.68 164.681 125.151 164.159 125.145 164.218C124.897 163.826 124.838 163.728 125.236 164.1Z" fill="#C6B08D"/>
<path d="M100.353 146.639V146.822C99.8431 146.56 100.373 146.756 100.353 146.639Z" fill="#C6B08D"/>
<path d="M95.3466 143.428L95.8945 143.552L96.0771 143.8L95.3466 143.428Z" fill="#C6B08D"/>
<path d="M91.6776 143.139L91.8994 143.256L91.0514 142.832L91.6776 143.139Z" fill="#C6B08D"/>
<path d="M43.118 125.967L43.3271 125.797C43.6932 125.908 43.7259 126.15 43.118 125.967Z" fill="#C6B08D"/>
<path d="M22.7666 132.396C22.5969 132.599 22.0682 132.945 21.6765 133.03C22.1138 132.788 22.5251 132.488 22.7666 132.396Z" fill="#C6B08D"/>
<path d="M39.9804 160.582L39.5629 160.393L40.3652 160.673L39.9804 160.582Z" fill="#C6B08D"/>
<path d="M26.7336 31.0636L8.78954 57.526L26.0809 64.7389L31.5574 67.0366L123.556 105.457L124.196 105.725L125.096 103.571L124.966 74.6999L125.958 72.3239L27.8237 31.3116L27.5038 30.6523L26.7728 31.0048L26.7336 31.0636Z" fill="#625B71"/>
<path d="M25.2131 127.645V139.342L25.4807 139.779L38.7511 145.321L38.96 144.818V133.402L25.2131 127.645Z" fill="#E0CDAF"/>
<path d="M25.2131 118.475V127.646L38.96 133.403V123.99L25.7875 118.475H25.2131Z" fill="#E0CDAF"/>
<path d="M25.2131 108.684V118.475H25.7875L38.96 123.991V114.199L25.7875 108.684H25.2131Z" fill="#E0CDAF"/>
<path d="M38.9604 114.198L40.9186 115.013V112.089L41.1602 111.515L30.6705 107.096L25.9968 105.131H25.2135V108.682H25.7879L38.9604 114.198Z" fill="#E0CDAF"/>
<path d="M25.2133 64.9491V105.132H25.9966L30.6703 107.097L30.6768 107.084V67.286L30.7812 67.0379L25.3047 64.7402L25.2133 64.9491Z" fill="#E0CDAF"/>
<path d="M29.8215 29.1583L27.3541 30.3463L27.5043 30.6531L28.1309 30.3463L28.6009 31.3124L32.4521 32.9181L32.6545 32.4351L34.5017 31.5017L90.8536 3.0157L91.082 2.46086L88.4188 1.35119L88.6146 0.828991L86.4279 0L86.1734 0.672332L29.8215 29.1583Z" fill="#625B71"/>
<path d="M27.5043 30.6544L27.8242 31.3137L125.959 72.326L128.72 73.4813L129.385 73.7555L129.503 73.4813L123.498 70.9682L115.077 67.4564V67.4499L106.663 63.9381L97.2963 60.0216L87.9424 56.1117L79.9136 52.7565L72.1589 49.5189L65.7359 46.8296L58.9212 43.9836L52.4981 41.3008L45.0176 38.1741L37.9288 35.2106L32.4522 32.926V32.9195L28.601 31.3137L28.131 30.3477L27.5043 30.6544Z" fill="#625B71"/>
<path d="M30.6765 107.085L30.67 107.098L41.1596 111.517L56.7995 118.104L69.2735 123.352V83.6972L69.4824 83.2011L30.7809 67.0391L30.6765 67.2871V107.085Z" fill="#D3B25B"/>
<path d="M32.4517 32.9182V32.9247L37.9283 35.2094L38.1111 34.7785L39.9649 33.8451L96.3167 5.35262L96.5713 4.73903L91.0817 2.46094L90.8532 3.01577L34.5014 31.5017L32.6541 32.4352L32.4517 32.9182Z" fill="#625B71"/>
<path d="M38.1114 34.7778L37.9286 35.2086L45.0175 38.1721L45.135 37.8979L46.9888 36.9645L103.341 8.47201L103.667 7.68218L96.5716 4.73828L96.317 5.35187L39.9652 33.8444L38.1114 34.7778Z" fill="#625B71"/>
<path d="M40.9182 134.218L38.96 133.402V144.819L38.7511 145.322L54.4106 151.869L54.626 151.346V139.956L40.9182 134.218Z" fill="#E0CDAF"/>
<path d="M38.9607 123.99V133.403L40.9189 134.219V124.806L38.9607 123.99Z" fill="#E0CDAF"/>
<path d="M38.9607 114.199V123.99L40.9189 124.806V115.015L38.9607 114.199Z" fill="#E0CDAF"/>
<path d="M40.9182 124.805V134.217L54.626 139.955V130.542L40.9182 124.805Z" fill="#E0CDAF"/>
<path d="M40.9182 115.014V124.805L54.626 130.543V120.751L40.9182 115.014Z" fill="#E0CDAF"/>
<path d="M54.6261 120.752L56.5844 121.574V118.618L56.7998 118.102L41.1599 111.516L40.9184 112.09V115.014L54.6261 120.752Z" fill="#E0CDAF"/>
<path d="M45.1359 37.8994L45.0184 38.1735L52.4989 41.3002L52.9428 40.2427L54.7901 39.3028L111.142 10.8168L111.148 10.7972L103.668 7.68359L103.342 8.47342L46.9897 36.9659L45.1359 37.8994Z" fill="#625B71"/>
<path d="M52.9419 40.2424L52.498 41.2998L58.9211 43.9826L59.1822 43.3625L61.0295 42.4291L117.381 13.9366L117.577 13.4666L111.148 10.7969L111.141 10.8165L54.7892 39.3024L52.9419 40.2424Z" fill="#625B71"/>
<path d="M56.585 140.778L54.6267 139.955V151.346L54.4114 151.868L71.9703 159.205L72.251 158.526V147.331L56.585 140.778Z" fill="#E0CDAF"/>
<path d="M54.6257 130.545V139.958L56.584 140.78V131.367L54.6257 130.545Z" fill="#E0CDAF"/>
<path d="M54.6257 120.752V130.543L56.584 131.366V121.574L54.6257 120.752Z" fill="#E0CDAF"/>
<path d="M56.585 131.367V140.78L72.251 147.333V137.921L56.585 131.367Z" fill="#E0CDAF"/>
<path d="M56.585 121.574V131.365L72.251 137.919V128.128L56.585 121.574Z" fill="#E0CDAF"/>
<path d="M69.2745 123.35L56.8005 118.102L56.5851 118.617V121.574L72.251 128.128L74.2093 128.95V125.797L74.3398 125.484L69.2745 123.35Z" fill="#E0CDAF"/>
<path d="M59.1826 43.3627L58.9215 43.9828L65.7362 46.8288L66.2062 45.7061L68.0535 44.7661L124.386 16.2932L117.578 13.4668L117.382 13.9368L61.0299 42.4293L59.1826 43.3627Z" fill="#625B71"/>
<path d="M66.206 45.7058L65.736 46.8286L72.159 49.5179L72.4462 48.826L74.2935 47.886L130.652 19.4001L130.828 18.9692L124.385 16.293L68.0532 44.7659L66.206 45.7058Z" fill="#625B71"/>
<path d="M69.2741 83.6953V123.35L74.3394 125.484L77.7598 126.927V86.9591L77.8643 86.7045L69.483 83.1992L69.2741 83.6953Z" fill="#E0CDAF"/>
<path d="M74.2084 148.154L72.2502 147.332V158.527L71.9695 159.206L88.9736 166.307L89.2217 165.707V154.44L74.2084 148.154Z" fill="#E0CDAF"/>
<path d="M72.4458 48.8255L72.1586 49.5174L79.9132 52.755L80.2527 51.9456L82.1 51.0122L138.452 22.5197L138.589 22.1933L130.828 18.9688L130.651 19.3996L74.2931 47.8855L72.4458 48.8255Z" fill="#625B71"/>
<path d="M72.2507 137.92V147.333L74.209 148.155V138.742L72.2507 137.92Z" fill="#E0CDAF"/>
<path d="M72.2507 128.127V137.918L74.209 138.741V128.949L72.2507 128.127Z" fill="#E0CDAF"/>
<path d="M74.2084 138.742V148.155L89.2217 154.441V145.028L74.2084 138.742Z" fill="#E0CDAF"/>
<path d="M74.2084 128.949V138.74L89.2217 145.026V135.235L74.2084 128.949Z" fill="#E0CDAF"/>
<path d="M77.7591 126.927L74.3387 125.484L74.2082 125.798V128.95L89.2214 135.236L91.1796 136.052V132.978L91.3232 132.639L77.7591 126.927Z" fill="#E0CDAF"/>
<path d="M77.433 87.2858V127.254L90.9971 132.965L109.326 140.681L122.427 146.196V105.85L122.453 105.785L77.5375 87.0312L77.433 87.2858Z" fill="#D3B25B"/>
<path d="M80.2525 51.9457L79.9131 52.7551L87.9419 56.1102L88.0528 55.8491L89.9001 54.9091L146.252 26.4232L146.624 25.5289L138.589 22.1934L138.452 22.5197L82.0998 51.0122L80.2525 51.9457Z" fill="#625B71"/>
<path d="M88.0534 55.8495L87.9424 56.1106L97.2963 60.0206L97.4138 59.7464L99.2676 58.813L155.619 30.327L155.998 29.4197L146.625 25.5293L146.253 26.4236L89.9007 54.9095L88.0534 55.8495Z" fill="#625B71"/>
<path d="M91.1803 155.257L89.222 154.441V165.708L88.974 166.308L107.316 173.972L107.499 173.541V162.092L91.1803 155.257Z" fill="#E0CDAF"/>
<path d="M89.2224 145.027V154.44L91.1807 155.256V145.843L89.2224 145.027Z" fill="#E0CDAF"/>
<path d="M89.2224 135.236V145.028L91.1807 145.844V136.052L89.2224 135.236Z" fill="#E0CDAF"/>
<path d="M91.1803 145.844V155.256L107.499 162.091V152.678L91.1803 145.844Z" fill="#E0CDAF"/>
<path d="M91.1803 136.053V145.844L107.499 152.678V142.887L91.1803 136.053Z" fill="#E0CDAF"/>
<path d="M107.498 142.887L109.457 143.703V140.811L109.652 140.354L91.3231 132.639L91.1795 132.978V136.053L107.498 142.887Z" fill="#E0CDAF"/>
<path d="M97.4147 59.7466L97.2972 60.0208L106.664 63.9373L106.782 63.6501L108.629 62.7167L164.981 34.2242L165.359 33.3103L155.999 29.4199L155.62 30.3272L99.2685 58.8132L97.4147 59.7466Z" fill="#625B71"/>
<path d="M106.78 63.6484L106.663 63.9356L115.077 67.4474L115.364 66.7685L117.211 65.8351L173.563 37.3426L173.785 36.8073L165.358 33.3086L164.98 34.2224L108.628 62.7149L106.78 63.6484Z" fill="#625B71"/>
<path d="M109.457 162.908L107.499 162.092V173.541L107.316 173.972L127.434 182.379L129.777 182.608V170.93H128.622L109.457 162.908Z" fill="#E0CDAF"/>
<path d="M107.499 152.678V162.09L109.457 162.906V153.494L107.499 152.678Z" fill="#E0CDAF"/>
<path d="M107.499 142.887V152.678L109.457 153.494V143.703L107.499 142.887Z" fill="#E0CDAF"/>
<path d="M109.457 153.494V162.907L128.622 170.929H129.777V170.244V161.791H129.275L109.457 153.494Z" fill="#E0CDAF"/>
<path d="M109.457 143.703V153.494L129.275 161.791H129.777V161.105V152H129.275L109.457 143.703Z" fill="#E0CDAF"/>
<path d="M122.754 145.869L109.653 140.354L109.457 140.81V143.702L129.275 151.999H129.777V151.966V148.826L129.438 148.689L122.754 145.869Z" fill="#E0CDAF"/>
<path d="M115.077 67.4486V67.4552L123.497 70.967L123.948 69.8899L125.795 68.9565L182.147 40.4705L182.212 40.3139L173.785 36.8086L173.563 37.3438L117.211 65.8364L115.364 66.7698L115.077 67.4486Z" fill="#625B71"/>
<path d="M122.754 105.524V145.871L129.439 148.691L129.778 148.514V109.421L130.144 108.533L122.781 105.459L122.754 105.524Z" fill="#E0CDAF"/>
<path d="M123.949 69.8905L123.498 70.9676L129.503 73.4806L129.386 73.7548L129.778 73.918L188.297 44.2701L188.806 43.0495L182.213 40.3145L182.148 40.4711L125.796 68.9571L123.949 69.8905Z" fill="#625B71"/>
<path d="M125.097 103.571L124.196 105.725L130.926 108.532L131.918 108.95L132.864 108.819L129.561 84.5567L128.021 74.5566L128.452 74.1258L128.719 73.4796L125.958 72.3242L124.966 74.7002L125.097 103.571Z" fill="#625B71"/>
<path d="M128.021 74.5578L129.562 84.5579L128.217 74.7014L128.452 74.127L128.021 74.5578Z" fill="#625B71"/>
<path d="M128.452 74.1262L128.217 74.7007L129.561 84.5572L133.243 108.5L133.589 108.383L128.994 74.7007L129.32 73.9108L128.674 73.9043L128.452 74.1262Z" fill="#625B71"/>
<path d="M128.72 73.4805L128.452 74.1267L128.674 73.9048L129.32 73.9113L129.386 73.7546L128.72 73.4805Z" fill="#625B71"/>
<path d="M129.32 73.9108L128.994 74.7006L133.589 108.382L135.215 107.821L181.906 83.3822L187.48 80.4709L200 73.9173L191.325 45.9993V45.9927L190.202 43.336L189.856 43.4862L188.805 43.0488L188.296 44.2695L129.777 73.9173L129.32 73.9108Z" fill="#625B71"/>
<path d="M133.243 108.499L129.561 84.5566L132.864 108.819L132.877 108.93L133.184 108.885L133.628 108.656L133.589 108.382L133.243 108.499Z" fill="#625B71"/>
<path d="M129.777 170.928V182.606L130.149 182.645L130.188 182.253L140.306 177.136L140.136 176.803V165.145L135.893 167.292L130.43 170.053L130.09 170.229L130.064 170.243H129.777V170.928Z" fill="#E0CDAF"/>
<path d="M129.778 161.791V170.244H130.065L130.091 170.231L130.43 170.055L135.894 167.294L140.137 165.146V156.008L135.894 158.155L130.43 160.916L130.091 161.093L130.065 161.106H129.778V161.791Z" fill="#E0CDAF"/>
<path d="M129.778 152V161.106H130.065L130.091 161.093L130.43 160.916L135.894 158.155L140.137 156.008V146.869L135.894 149.017L130.43 151.778L130.091 151.954L130.065 151.967H129.778V152Z" fill="#E0CDAF"/>
<path d="M142.094 145.884L151.886 140.936L153.844 139.944L164.288 134.663L166.246 133.678V130.792L165.959 130.225L135.241 145.754L129.777 148.515V148.828V151.968H130.064L130.09 151.955L130.43 151.778L135.893 149.017L140.136 146.87L142.094 145.884Z" fill="#E0CDAF"/>
<path d="M129.778 109.42V148.513L135.241 145.752V107.859L135.215 107.82L133.629 108.656L133.649 108.819L133.185 108.884L132.898 109.034L132.878 108.93L132.115 109.034L131.919 108.95L131.338 109.034L130.143 108.532L129.778 109.42Z" fill="#E0CDAF"/>
<path d="M131.918 108.949L132.114 109.034L132.878 108.929L132.865 108.818L131.918 108.949Z" fill="#FFFFC9"/>
<path d="M132.877 108.931L132.897 109.035L133.185 108.885L132.877 108.931Z" fill="#625B71"/>
<path d="M133.184 108.885L133.648 108.82L133.629 108.656L133.184 108.885Z" fill="#FFFFC9"/>
<path d="M133.589 108.382L133.628 108.656L135.214 107.82L133.589 108.382Z" fill="#625B71"/>
<path d="M134.888 108.148L134.914 108.187V146.079L165.633 130.55L181.958 122.3L181.73 121.843V84.0027L181.579 83.709L134.888 108.148Z" fill="#D3B25B"/>
<path d="M142.094 164.161L140.136 165.146V176.804L140.306 177.137L152.029 171.21L151.886 170.93V159.213L142.094 164.161Z" fill="#E0CDAF"/>
<path d="M140.136 156.007V165.146L142.095 164.16V155.021L140.136 156.007Z" fill="#E0CDAF"/>
<path d="M140.136 146.868V156.007L142.095 155.021V145.883L140.136 146.868Z" fill="#E0CDAF"/>
<path d="M142.095 155.022V164.161L151.886 159.213V150.074L142.095 155.022Z" fill="#E0CDAF"/>
<path d="M142.095 145.883V155.022L151.886 150.074V140.936L142.095 145.883Z" fill="#E0CDAF"/>
<path d="M153.844 158.22L151.886 159.212V170.929L152.029 171.21L164.536 164.891L164.288 164.402V152.939L153.844 158.22Z" fill="#E0CDAF"/>
<path d="M151.886 150.074V159.213L153.844 158.221V149.082L151.886 150.074Z" fill="#E0CDAF"/>
<path d="M151.886 140.936V150.074L153.844 149.082V139.943L151.886 140.936Z" fill="#E0CDAF"/>
<path d="M153.844 149.082V158.22L164.288 152.939V143.801L153.844 149.082Z" fill="#E0CDAF"/>
<path d="M153.844 139.943V149.081L164.288 143.801V134.662L153.844 139.943Z" fill="#E0CDAF"/>
<path d="M166.247 151.954L164.288 152.94V164.402L164.536 164.892L176.26 158.965L176.038 158.528V147L166.247 151.954Z" fill="#E0CDAF"/>
<path d="M164.288 143.8V152.939L166.246 151.953V142.814L164.288 143.8Z" fill="#E0CDAF"/>
<path d="M164.288 134.661V143.8L166.246 142.814V133.676L164.288 134.661Z" fill="#E0CDAF"/>
<path d="M176.038 128.723L177.997 127.738L182.938 125.238L188.029 122.659L187.99 119.271L187.612 119.278L182.285 121.974L165.96 130.225L166.247 130.793V133.678L176.038 128.723Z" fill="#E0CDAF"/>
<path d="M166.247 142.816V151.954L176.038 147V137.861L166.247 142.816Z" fill="#E0CDAF"/>
<path d="M166.247 133.677V142.816L176.038 137.861V128.723L166.247 133.677Z" fill="#E0CDAF"/>
<path d="M177.995 146.014L176.037 146.999V158.527L176.259 158.964L188.394 152.828L188.25 140.824L182.937 143.514L177.995 146.014Z" fill="#E0CDAF"/>
<path d="M176.038 137.861V146.999L177.996 146.013V136.875L176.038 137.861Z" fill="#E0CDAF"/>
<path d="M176.038 128.722V137.86L177.996 136.875V127.736L176.038 128.722Z" fill="#E0CDAF"/>
<path d="M177.995 136.875V146.013L182.937 143.513L188.25 140.824L188.139 131.744L182.937 134.375L177.995 136.875Z" fill="#E0CDAF"/>
<path d="M177.996 127.737V136.875L182.937 134.375L188.14 131.744L188.029 122.658L182.937 125.237L177.996 127.737Z" fill="#E0CDAF"/>
<path d="M181.906 83.382L182.056 83.6757V121.516L182.284 121.972L187.611 119.277L187.989 119.27L187.519 80.549L187.48 80.4707L181.906 83.382Z" fill="#E0CDAF"/>
<path d="M128.452 74.125L128.217 74.699" stroke="#603813" stroke-linecap="round" stroke-linejoin="round"/>
<path d="M129.777 73.9167L129.32 73.9102" stroke="#603813" stroke-linecap="round" stroke-linejoin="round"/>
<path d="M188.806 43.0469L188.297 44.2675" stroke="#603813" stroke-linecap="round" stroke-linejoin="round"/>
<path d="M189.856 43.4865L188.806 43.0492L182.213 40.3142L173.786 36.8089L165.359 33.3102L155.998 29.4198L146.625 25.5294L138.59 22.1938L130.828 18.9693L124.386 16.293L117.578 13.4666L111.148 10.7968L103.667 7.68323L96.5721 4.73933L91.0824 2.46124L88.4192 1.35156" stroke="#603813" stroke-linecap="round" stroke-linejoin="round"/>
<path d="M27.8245 31.3105L125.959 72.3228L128.72 73.4781L129.386 73.7523L129.777 73.9155" stroke="#603813" stroke-linecap="round" stroke-linejoin="round"/>
<path d="M129.777 109.42V148.513V148.826V151.966V151.999V161.105V161.79V170.243V170.928V182.606V182.769" stroke="#603813" stroke-linecap="round" stroke-linejoin="round"/>
<path d="M188.296 44.2676L129.777 73.9154" stroke="#603813" stroke-linecap="round" stroke-linejoin="round"/>
<path d="M86.1738 0.671875L29.822 29.1579L27.9682 30.0978" stroke="#603813" stroke-linecap="round" stroke-linejoin="round"/>
<path d="M90.8535 3.01367L34.5017 31.4996L32.6544 32.4331" stroke="#603813" stroke-linecap="round" stroke-linejoin="round"/>
<path d="M96.3174 5.35156L39.9655 33.8441L38.1117 34.7775" stroke="#603813" stroke-linecap="round" stroke-linejoin="round"/>
<path d="M103.341 8.4707L46.989 36.9632L45.1352 37.8966" stroke="#603813" stroke-linecap="round" stroke-linejoin="round"/>
<path d="M111.142 10.8164L54.7898 39.3024L52.9425 40.2423" stroke="#603813" stroke-linecap="round" stroke-linejoin="round"/>
<path d="M117.382 13.9355L61.03 42.4281L59.1827 43.3615" stroke="#603813" stroke-linecap="round" stroke-linejoin="round"/>
<path d="M124.405 16.2793L124.386 16.2924L68.0534 44.7653L66.2062 45.7052" stroke="#603813" stroke-linecap="round" stroke-linejoin="round"/>
<path d="M130.651 19.3984L74.293 47.8844L72.4457 48.8244" stroke="#603813" stroke-linecap="round" stroke-linejoin="round"/>
<path d="M138.452 22.5195L82.1003 51.012L80.253 51.9455" stroke="#603813" stroke-linecap="round" stroke-linejoin="round"/>
<path d="M146.253 26.4219L89.9011 54.9079L88.0538 55.8478" stroke="#603813" stroke-linecap="round" stroke-linejoin="round"/>
<path d="M155.62 30.3262L99.2683 58.8121L97.4145 59.7456" stroke="#603813" stroke-linecap="round" stroke-linejoin="round"/>
<path d="M164.979 34.2227L108.628 62.7152L106.78 63.6486" stroke="#603813" stroke-linecap="round" stroke-linejoin="round"/>
<path d="M173.563 37.3438L117.212 65.8363L115.364 66.7697" stroke="#603813" stroke-linecap="round" stroke-linejoin="round"/>
<path d="M182.148 40.4707L125.797 68.9567L123.949 69.8901" stroke="#603813" stroke-linecap="round" stroke-linejoin="round"/>
<path d="M191.325 45.998L200 73.9161L187.48 80.4697L181.906 83.381L135.215 107.82L133.628 108.655L133.185 108.884L132.897 109.034L132.878 108.93L132.865 108.819L129.562 84.5559L128.217 74.6994" stroke="#603813" stroke-linecap="round" stroke-linejoin="round"/>
<path d="M190.81 44.3457L191.325 45.9906" stroke="#603813" stroke-linecap="round" stroke-linejoin="round"/>
<path d="M25.4807 139.779L38.7511 145.321L54.4105 151.868L71.9695 159.205L88.9736 166.307L107.316 173.97L127.434 182.378" stroke="#603813" stroke-linecap="round" stroke-linejoin="round"/>
<path d="M25.9967 105.131L30.6704 107.096L41.1601 111.515L56.8 118.101L69.274 123.349L74.3394 125.484L77.7598 126.926L91.3239 132.638L109.653 140.353L122.754 145.869L129.438 148.689L129.777 148.826" stroke="#603813" stroke-linecap="round" stroke-linejoin="round"/>
<path d="M187.61 119.275L182.284 121.971L165.959 130.222L135.24 145.751L129.777 148.512L129.437 148.688L129.411 148.701" stroke="#603813" stroke-linecap="round" stroke-linejoin="round"/>
<path d="M188.264 122.539L188.029 122.657L182.937 125.235L177.996 127.735L176.038 128.721L166.246 133.675L164.288 134.661L153.844 139.941L151.886 140.934L142.095 145.881L140.136 146.867L135.894 149.015L130.43 151.776L130.091 151.952L130.065 151.965" stroke="#603813" stroke-linecap="round" stroke-linejoin="round"/>
<path d="M188.264 131.678L188.14 131.743L182.937 134.374L177.996 136.874L176.038 137.859L166.246 142.814L164.288 143.799L153.844 149.08L151.886 150.072L142.095 155.02L140.136 156.006L135.894 158.153L130.43 160.914L130.091 161.091L130.065 161.104" stroke="#603813" stroke-linecap="round" stroke-linejoin="round"/>
<path d="M188.264 140.816L188.251 140.823L182.937 143.512L177.996 146.012L176.038 146.998L166.246 151.952L164.288 152.938L153.844 158.219L151.886 159.211L142.095 164.159L140.136 165.144L135.894 167.292L130.43 170.053L130.091 170.229L130.065 170.242" stroke="#603813" stroke-linecap="round" stroke-linejoin="round"/>
<path d="M26.7339 31.0625L8.78979 57.5249L8.75063 57.5837L25.3043 64.7378L30.7809 67.0355L69.4824 83.1976L77.8637 86.7028L122.779 105.456L130.142 108.531L131.337 109.033" stroke="#603813" stroke-linecap="round" stroke-linejoin="round"/>
<path d="M187.519 80.5488L187.989 119.27L188.028 122.658L188.139 131.744L188.25 140.824L188.394 152.828L176.259 158.964L164.536 164.891L152.029 171.209L140.306 177.136L130.188 182.254" stroke="#603813" stroke-linecap="round" stroke-linejoin="round"/>
<path d="M25.2139 64.9492V105.132V108.683V118.475V127.646V139.343" stroke="#603813" stroke-linecap="round" stroke-linejoin="round"/>
<path d="M30.6768 67.2852V107.083" stroke="#603813" stroke-linecap="round" stroke-linejoin="round"/>
<path d="M122.754 105.523V145.87V146.49" stroke="#603813" stroke-linecap="round" stroke-linejoin="round"/>
<path d="M135.241 107.859V145.751V146.489" stroke="#603813" stroke-linecap="round" stroke-linejoin="round"/>
<path d="M182.056 83.6758V121.516" stroke="#603813" stroke-linecap="round" stroke-linejoin="round"/>
<path d="M25.7876 108.682L38.96 114.197L40.9183 115.013L54.626 120.751L56.5843 121.573L72.2502 128.127L74.2085 128.95L89.2217 135.235L91.18 136.051L107.499 142.886L109.457 143.702L129.274 151.998" stroke="#603813" stroke-linecap="round" stroke-linejoin="round"/>
<path d="M25.7876 118.473L38.96 123.988L40.9183 124.804L54.626 130.542L56.5843 131.364L72.2502 137.918L74.2085 138.741L89.2217 145.026L91.18 145.842L107.499 152.677L109.457 153.493L129.274 161.789" stroke="#603813" stroke-linecap="round" stroke-linejoin="round"/>
<path d="M25.1352 127.611L25.2136 127.644L38.9604 133.401L40.9187 134.217L54.6264 139.955L56.5847 140.777L72.2506 147.331L74.2089 148.153L89.2221 154.439L91.1804 155.255L107.499 162.09L109.457 162.905L128.622 170.928" stroke="#603813" stroke-linecap="round" stroke-linejoin="round"/>
<path d="M69.2744 83.6953V123.35V124.055" stroke="#603813" stroke-linecap="round" stroke-linejoin="round"/>
<path d="M77.7598 86.959V126.927V127.318" stroke="#603813" stroke-linecap="round" stroke-linejoin="round"/>
<path d="M177.996 124.916V127.736V136.874V146.013V157.221" stroke="#603813" stroke-linecap="round" stroke-linejoin="round"/>
<path d="M176.038 126.221V128.721V137.859V146.998V158.525" stroke="#603813" stroke-linecap="round" stroke-linejoin="round"/>
<path d="M166.246 130.791V133.676V142.815V151.953V163.096" stroke="#603813" stroke-linecap="round" stroke-linejoin="round"/>
<path d="M164.288 132.096V134.661V143.8V152.938V164.4" stroke="#603813" stroke-linecap="round" stroke-linejoin="round"/>
<path d="M153.844 137.318V139.942V149.081V158.219V169.623" stroke="#603813" stroke-linecap="round" stroke-linejoin="round"/>
<path d="M151.886 138.623V140.934V150.072V159.211V170.928" stroke="#603813" stroke-linecap="round" stroke-linejoin="round"/>
<path d="M142.095 143.193V145.883V155.021V164.16V175.498" stroke="#603813" stroke-linecap="round" stroke-linejoin="round"/>
<path d="M109.457 140.811V143.702V153.493V162.906V174.192" stroke="#603813" stroke-linecap="round" stroke-linejoin="round"/>
<path d="M107.499 140.158V142.887V152.678V162.091V173.54" stroke="#603813" stroke-linecap="round" stroke-linejoin="round"/>
<path d="M91.1807 132.977V136.051V145.842V155.255V166.358" stroke="#603813" stroke-linecap="round" stroke-linejoin="round"/>
<path d="M89.2217 132.324V135.235V145.027V154.439V165.706" stroke="#603813" stroke-linecap="round" stroke-linejoin="round"/>
<path d="M74.209 125.797V128.95V138.741V148.154V159.178" stroke="#603813" stroke-linecap="round" stroke-linejoin="round"/>
<path d="M72.251 125.145V128.128V137.919V147.331V158.526" stroke="#603813" stroke-linecap="round" stroke-linejoin="round"/>
<path d="M56.584 118.617V121.574V131.365V140.778V151.999" stroke="#603813" stroke-linecap="round" stroke-linejoin="round"/>
<path d="M54.626 117.963V120.75V130.541V139.954V151.344" stroke="#603813" stroke-linecap="round" stroke-linejoin="round"/>
<path d="M40.9189 112.09V115.014V124.805V134.218V145.471" stroke="#603813" stroke-linecap="round" stroke-linejoin="round"/>
<path d="M38.96 111.438V114.199V123.99V133.403V144.819" stroke="#603813" stroke-linecap="round" stroke-linejoin="round"/>
<path d="M140.137 144.498V146.868V156.006V165.145V176.803" stroke="#603813" stroke-linecap="round" stroke-linejoin="round"/>
<path d="M188.766 47.3633L196.88 73.1403" stroke="#603813" stroke-linecap="round" stroke-linejoin="round"/>
<path d="M185.646 48.9219L193.76 74.6989" stroke="#603813" stroke-linecap="round" stroke-linejoin="round"/>
<path d="M181.743 50.4824L189.856 76.2595" stroke="#603813" stroke-linecap="round" stroke-linejoin="round"/>
<path d="M177.839 52.043L185.959 77.82" stroke="#603813" stroke-linecap="round" stroke-linejoin="round"/>
<path d="M173.942 54.3867L182.056 80.1638" stroke="#603813" stroke-linecap="round" stroke-linejoin="round"/>
<path d="M170.039 56.7305L178.152 82.501" stroke="#603813" stroke-linecap="round" stroke-linejoin="round"/>
<path d="M166.136 59.0664L174.256 84.8435" stroke="#603813" stroke-linecap="round" stroke-linejoin="round"/>
<path d="M162.238 61.4102L170.352 87.1807" stroke="#603813" stroke-linecap="round" stroke-linejoin="round"/>
<path d="M158.335 62.9707L166.448 88.7478" stroke="#603813" stroke-linecap="round" stroke-linejoin="round"/>
<path d="M155.215 64.5312L163.329 90.3083" stroke="#603813" stroke-linecap="round" stroke-linejoin="round"/>
<path d="M151.311 66.0898L159.425 91.8669" stroke="#603813" stroke-linecap="round" stroke-linejoin="round"/>
<path d="M147.408 68.4336L155.528 94.2041" stroke="#603813" stroke-linecap="round" stroke-linejoin="round"/>
<path d="M144.288 70.7695L152.401 96.5466" stroke="#603813" stroke-linecap="round" stroke-linejoin="round"/>
<path d="M141.357 73.3809L149.471 99.1579" stroke="#603813" stroke-linecap="round" stroke-linejoin="round"/>
<path d="M138.047 74.6738L144.601 100.451" stroke="#603813" stroke-linecap="round" stroke-linejoin="round"/>
<path d="M134.928 76.2344L140.698 102.788" stroke="#603813" stroke-linecap="round" stroke-linejoin="round"/>
<path d="M131.024 77.0176L136.801 104.348" stroke="#603813" stroke-linecap="round" stroke-linejoin="round"/>
<path d="M124.966 74.7012L125.097 103.572" stroke="#603813" stroke-linecap="round" stroke-linejoin="round"/>
<path d="M121.253 73.1387L118.074 100.45" stroke="#603813" stroke-linecap="round" stroke-linejoin="round"/>
<path d="M117.799 71.959L113.386 98.8914" stroke="#603813" stroke-linecap="round" stroke-linejoin="round"/>
<path d="M114.17 70.7969L108.706 96.5478" stroke="#603813" stroke-linecap="round" stroke-linejoin="round"/>
<path d="M110.979 69.8887L104.804 95.7637" stroke="#603813" stroke-linecap="round" stroke-linejoin="round"/>
<path d="M107.538 68.0684L100.123 93.4277" stroke="#603813" stroke-linecap="round" stroke-linejoin="round"/>
<path d="M103.243 66.1152L95.4428 91.8662" stroke="#603813" stroke-linecap="round" stroke-linejoin="round"/>
<path d="M98.6016 64.9082L90.7947 89.0991" stroke="#603813" stroke-linecap="round" stroke-linejoin="round"/>
<path d="M94.4639 63.1855L86.657 87.3699" stroke="#603813" stroke-linecap="round" stroke-linejoin="round"/>
<path d="M90.5605 61.6191L82.7602 85.81" stroke="#603813" stroke-linecap="round" stroke-linejoin="round"/>
<path d="M86.6562 60.0586L78.8559 84.2495" stroke="#603813" stroke-linecap="round" stroke-linejoin="round"/>
<path d="M82.7598 58.5L74.9529 82.6909" stroke="#603813" stroke-linecap="round" stroke-linejoin="round"/>
<path d="M78.0732 56.1621L70.2729 80.3465" stroke="#603813" stroke-linecap="round" stroke-linejoin="round"/>
<path d="M74.1768 55.3789L66.3699 79.5698" stroke="#603813" stroke-linecap="round" stroke-linejoin="round"/>
<path d="M69.4961 53.043L61.6892 77.2273" stroke="#603813" stroke-linecap="round" stroke-linejoin="round"/>
<path d="M65.3311 51.5078L57.5307 75.6922" stroke="#603813" stroke-linecap="round" stroke-linejoin="round"/>
<path d="M60.9834 49.5039L53.183 73.6883" stroke="#603813" stroke-linecap="round" stroke-linejoin="round"/>
<path d="M57.0801 47.9434L49.2797 72.1277" stroke="#603813" stroke-linecap="round" stroke-linejoin="round"/>
<path d="M53.1836 46.377L45.3767 70.5678" stroke="#603813" stroke-linecap="round" stroke-linejoin="round"/>
<path d="M49.2803 44.8164L40.8206 68.4525" stroke="#603813" stroke-linecap="round" stroke-linejoin="round"/>
<path d="M45.4482 42.6426L36.14 66.1154" stroke="#603813" stroke-linecap="round" stroke-linejoin="round"/>
<path d="M41.4209 41.168L32.1845 64.0272" stroke="#603813" stroke-linecap="round" stroke-linejoin="round"/>
<path d="M36.793 39.3594L27.5566 62.9954" stroke="#603813" stroke-linecap="round" stroke-linejoin="round"/>
<path d="M32.8896 37.8008L23.6533 61.4368" stroke="#603813" stroke-linecap="round" stroke-linejoin="round"/>
<path d="M29.7695 36.2344L18.9731 59.877" stroke="#603813" stroke-linecap="round" stroke-linejoin="round"/>
<path d="M26.6494 33.8965L13.5096 56.7492" stroke="#603813" stroke-linecap="round" stroke-linejoin="round"/>
</svg>
