<svg width="73" height="165" viewBox="0 0 73 165" fill="none" xmlns="http://www.w3.org/2000/svg">
<path d="M41.7363 143.547C40.0874 141.94 38.0438 140.749 35.8382 140.108C33.3578 139.389 30.7365 139.361 28.1575 139.488C22.795 139.749 17.3127 140.7 12.7536 143.54C8.20147 146.38 4.73454 151.425 4.97412 156.787C5.03754 158.246 5.38987 159.74 6.28479 160.896C7.9196 163.017 10.8792 163.503 13.5498 163.693C21.3786 164.25 29.292 163.602 36.9305 161.776C39.4109 161.185 41.9265 160.438 43.9489 158.887C47.134 156.442 48.6631 152.024 47.6554 148.134C46.6477 144.244 43.1879 141.109 39.2136 140.51" fill="#D3B25B"/>
<path d="M39.1441 140.974C39.0947 140.904 39.1441 140.77 39.3064 140.833L39.377 141.087L39.1441 140.981V140.974Z" fill="#C6B08D"/>
<path d="M40.2993 140.784C40.4614 140.947 40.6094 141.193 40.4262 141.362C40.3134 141.102 40.243 141.179 40.1161 140.869C39.9681 140.799 39.8202 140.869 39.8342 140.961C39.792 140.89 39.5806 140.961 39.5242 140.806C39.7638 140.665 40.0456 140.714 40.2711 140.939C40.3416 140.904 40.3064 140.834 40.2993 140.784Z" fill="#C6B08D"/>
<path d="M47.8885 153.49C47.8885 153.455 47.8885 153.419 47.8885 153.377C47.8955 153.412 47.8885 153.447 47.8885 153.49Z" fill="#C6B08D"/>
<path d="M41.1874 160.953C41.2651 160.932 41.3003 160.939 41.3145 160.953C41.2439 160.967 41.1804 160.974 41.1874 160.953Z" fill="#C6B08D"/>
<path d="M39.6163 161.79C39.6163 161.79 39.6798 161.761 39.708 161.74C39.6798 161.776 39.6445 161.797 39.6163 161.79Z" fill="#C6B08D"/>
<path d="M47.8887 153.49L47.8746 153.78C47.7969 153.78 47.8604 153.624 47.8887 153.49Z" fill="#C6B08D"/>
<path d="M42.0962 142.108C42.0539 142.073 42.0257 142.031 42.0045 141.988L42.1104 142.073V142.108H42.0962Z" fill="#C6B08D"/>
<path d="M48.3474 148.929L48.3333 148.844C48.3333 148.844 48.3827 148.788 48.418 148.76L48.3474 148.929Z" fill="#C6B08D"/>
<path d="M47.2047 145.555C47.254 145.618 47.0917 145.738 47.0282 145.809C47.0776 145.731 47.0847 145.661 47.0635 145.59C47.0988 145.569 47.1411 145.555 47.2047 145.555Z" fill="#C6B08D"/>
<path d="M43.1465 141.785L43.0759 141.707C43.0759 141.707 43.1253 141.756 43.1465 141.785Z" fill="#C6B08D"/>
<path d="M48.4734 151.488C48.4734 151.488 48.5298 151.509 48.5439 151.524C48.5157 151.524 48.4945 151.509 48.4734 151.488Z" fill="#C6B08D"/>
<path d="M38.1227 142.046C38.1227 142.046 38.1367 142.025 38.1367 142.018C38.1367 142.046 38.1367 142.06 38.1227 142.046Z" fill="#C6B08D"/>
<path d="M41.7723 143.512L41.7371 143.469C41.7371 143.469 41.7794 143.406 41.8076 143.385L41.7723 143.519V143.512Z" fill="#C6B08D"/>
<path d="M36.5786 162.848C36.5786 162.848 36.5857 162.848 36.5927 162.848C36.6774 162.848 36.6351 162.855 36.5786 162.848Z" fill="#C6B08D"/>
<path d="M7.4832 163.002C7.87836 163.03 7.10215 162.515 7.65961 162.614C7.56788 162.649 7.92776 163.129 7.4832 163.002Z" fill="#C6B08D"/>
<path d="M42.1879 142.123C42.2232 142.144 42.2655 142.165 42.3008 142.187C42.2443 142.165 42.209 142.144 42.1879 142.123Z" fill="#C6B08D"/>
<path d="M7.65979 162.615L7.71582 162.622C7.69481 162.622 7.6808 162.622 7.65979 162.615Z" fill="#C6B08D"/>
<path d="M29.3564 164.038C29.3635 164.003 29.3917 163.975 29.4199 163.939C29.4199 163.961 29.4058 163.989 29.3564 164.038Z" fill="#C6B08D"/>
<path d="M34.6768 162.854L34.5497 162.91C34.5991 162.882 34.6415 162.868 34.6768 162.854Z" fill="#C6B08D"/>
<path d="M26.5166 164.088C26.446 164.109 26.4249 164.137 26.319 164.123C26.3261 164.109 26.3331 164.102 26.3472 164.095C26.3825 164.116 26.4319 164.13 26.5166 164.095V164.088Z" fill="#C6B08D"/>
<path d="M23.5923 164.314C23.5923 164.314 23.6275 164.286 23.6417 164.271C23.6699 164.271 23.7052 164.271 23.7334 164.271L23.5852 164.307L23.5923 164.314Z" fill="#C6B08D"/>
<path d="M29.9973 140.27C30.0608 140.214 30.0961 140.15 30.1313 140.094C30.089 140.235 30.5053 140.284 29.9973 140.27Z" fill="#C6B08D"/>
<path d="M42.1532 142.01C42.1461 142.059 42.1532 142.094 42.1885 142.123L42.1109 142.073C42.1109 142.073 42.132 142.017 42.1532 142.01Z" fill="#C6B08D"/>
<path d="M26.249 162.537L25.7974 162.608C25.9244 162.579 26.0867 162.551 26.249 162.537Z" fill="#C6B08D"/>
<path d="M10.9073 145.928L10.999 145.879C10.999 145.879 10.9426 145.928 10.9073 145.928Z" fill="#C6B08D"/>
<path d="M24.4443 162.691C24.3667 162.769 24.282 162.811 24.1974 162.847C24.1762 162.833 24.155 162.818 24.1409 162.797L24.4443 162.691Z" fill="#C6B08D"/>
<path d="M33.0418 140.707C32.6261 140.664 32.8727 140.432 32.8023 140.277C32.3019 140.157 32.5486 140.446 32.3724 140.566C32.0694 140.474 31.8369 140.22 31.5973 140.22C31.5761 140.263 31.5339 140.277 31.5832 140.333C31.252 140.108 30.5826 140.291 30.188 140.037C30.1598 140.058 30.1457 140.079 30.1386 140.101C30.2021 139.974 30.2091 139.84 30.195 139.741C29.9977 139.741 29.8286 139.579 29.7581 139.748C29.8779 139.748 29.892 139.812 29.9484 139.861L29.744 139.791C29.5608 140.037 30.0259 139.875 30.0259 140.051C29.6313 139.974 29.1592 139.783 28.8491 139.868C28.7927 140.108 29.5679 139.924 29.1662 140.15L29.6383 140.044C29.286 140.432 29.9202 140.009 29.6031 140.425C28.99 140.509 28.9125 140.319 28.2924 140.425C28.1444 140.298 28.3277 140.227 28.1797 140.101C27.2777 139.917 27.5173 140.735 26.8549 140.467C26.6788 140.319 26.5871 140.023 26.1362 140.22L26.3123 140.474C25.7204 140.552 25.9389 140.115 25.3258 140.354C25.4456 140.453 25.805 140.397 25.7204 140.439C25.3329 140.693 25.4174 140.312 25.1074 140.347L25.0651 140.594C24.4309 140.629 23.7051 140.545 23.0004 140.608C23.0498 140.671 23.1836 140.728 23.0286 140.826C22.1266 140.841 21.1613 141.193 20.372 141.524L20.0056 141.404C19.9352 141.425 19.8929 141.531 19.9845 141.545C19.6815 141.7 19.9352 141.425 19.759 141.383C19.5687 141.418 19.5476 141.559 19.6815 141.587C19.0684 141.559 17.9621 141.693 17.4547 142.109L17.5886 142.13C17.1729 142.37 16.9333 141.919 16.581 142.257H16.6726C15.7354 142.722 14.6079 143.06 14.0653 143.716C13.7835 143.532 13.255 144.343 12.9802 144.033C12.6067 144.54 12.7688 144.484 12.1909 145.083C12.0289 145.231 11.7752 145.068 11.5286 145.202L11.6554 145.379L11.2255 145.442L11.2396 145.766L11.0071 145.886C11.0776 145.808 11.1058 145.674 11.0564 145.632C10.6759 145.808 10.4363 146.407 10.4997 146.485C10.2249 146.647 9.97125 146.837 9.71053 147.02C9.78804 147.063 9.92193 146.971 10.0417 146.922C9.53436 147.133 10.1474 147.147 9.68234 147.337C9.68234 147.26 9.56255 147.274 9.52731 147.253C9.47094 147.514 9.13975 147.908 8.85084 148.169L9.01292 148.204C8.62535 148.775 8.08276 149.325 7.70225 150.001C7.77976 149.726 7.52608 149.642 7.39219 149.832L7.54722 150.029C7.34991 150.086 7.5895 149.776 7.2865 149.959C7.15966 150.227 7.42038 150.255 7.56131 150.149L7.31468 150.417C7.36401 150.466 7.43447 150.417 7.52608 150.438C7.31468 150.494 7.46266 151.079 7.14557 151.15L7.20194 151.199C6.89189 151.897 6.68753 152.186 6.49023 152.777C6.29997 152.728 6.25769 152.975 6.05334 153.116C5.99696 153.588 6.02515 154.116 5.94059 154.659C5.77852 155.032 5.75034 154.751 5.61645 154.913C5.79262 154.962 5.72919 155.512 5.88422 155.237C5.79261 155.892 5.79262 156.075 5.66578 156.921C5.58826 156.836 5.54599 156.731 5.48961 156.787C5.46847 156.942 5.58826 157.132 5.67282 157.104L5.68692 157.062C5.58826 157.548 5.79966 158.084 6.03925 158.527C6.27883 158.986 6.5466 159.345 6.53955 159.732V159.69C6.58888 159.93 6.65935 160.169 6.75096 160.402C6.9694 160.649 6.75096 160.162 6.97645 160.289C7.08215 160.677 7.31468 160.895 7.54722 161.071C7.7868 161.24 8.01934 161.367 8.24483 161.628C8.59716 161.529 8.96358 161.741 9.40047 161.945C9.83032 162.142 10.3165 162.34 10.7041 162.255L10.6336 162.368C10.7887 162.53 10.8732 162.347 11.0071 162.347C10.9719 162.438 10.7887 162.417 10.8873 162.509C12.4235 162.995 14.2485 162.727 15.9609 162.692C16.588 162.685 16.2921 163.361 17.0954 163.08L16.8769 162.84C18.1383 163.157 19.463 162.868 20.7032 163.08C20.6257 163.03 20.6257 162.96 20.5059 162.96C20.7667 162.791 21.4713 162.925 21.4854 163.066C21.6757 163.044 21.5277 162.939 21.6404 162.868C21.9012 162.755 22.3099 163.066 22.4437 162.889C22.4649 162.861 22.3662 162.84 22.3169 162.826C22.4931 162.896 23.1132 162.762 22.9581 162.967C23.4162 162.847 23.8531 163.009 24.2195 162.861C24.4802 163.058 25.0087 162.699 25.1074 163.002C25.051 162.692 25.8966 162.678 26.2066 162.798C26.1009 162.713 26.4533 162.678 26.3264 162.551C26.6576 162.53 26.9747 162.551 26.9324 162.72C27.5032 162.269 28.2079 162.896 28.4968 162.361C29.5044 162.41 30.4416 162.389 31.3436 162.319C31.259 162.016 30.3571 162.438 30.343 162.1C31.2027 162.107 31.7312 162.283 32.5556 162.072C32.767 161.987 32.4076 161.959 32.3231 161.917C33.1828 161.896 33.9368 161.593 34.7119 161.6C34.7048 161.572 34.6203 161.558 34.5357 161.55C34.6837 161.529 34.8669 161.438 34.881 161.579H34.733C34.5428 161.825 35.4095 161.875 35.4588 161.98C35.1206 161.635 36.1705 161.713 35.6632 161.29C35.7618 161.29 35.9028 161.332 35.9028 161.431C36.0366 161.367 36.0719 161.304 35.9028 161.233C36.4453 161.191 36.2903 161.381 36.7624 161.269C36.7413 161.198 36.6427 161.198 36.5722 161.128C36.84 161.205 37.1148 161.283 37.5023 161.128C37.4671 161.092 37.5023 161.029 37.3825 161.057C38.0661 160.909 38.6368 161.107 39.3345 160.754C39.0315 160.536 39.5529 160.578 39.5106 160.317L39.9193 160.261L39.8066 160.437C40.1448 160.317 40.5042 160.388 40.7649 160.19H40.476C40.6874 160.12 40.9058 160.057 41.1102 159.979L40.8001 160.219C41.1877 160.205 40.8918 160.543 41.3075 160.289C41.2089 160.31 41.6387 160.141 41.7444 159.916C41.9417 159.916 42.146 159.909 42.3504 159.725C42.3715 159.62 42.1672 159.493 42.1742 159.422C42.435 159.535 42.9212 159.07 43.2312 159.133C43.1396 159.133 43.0621 159.014 43.0621 158.978L43.2806 159.049C43.3863 158.908 43.3933 158.873 43.3017 158.795C43.6822 158.478 43.3651 159.162 43.7597 158.697C43.7104 158.711 43.7174 158.675 43.6188 158.711C43.8372 158.506 44.0557 158.337 44.2953 158.182C44.5137 158.013 44.7322 157.837 44.8872 157.611C44.8097 157.323 44.5137 157.9 44.4785 157.611C45.0422 157.118 45.768 156.618 46.1133 155.934L46.064 156.068C46.4515 156.174 46.1908 155.483 46.522 155.244C46.4586 155.314 46.2824 155.258 46.3317 155.258C46.5009 154.772 46.8673 154.363 47.2126 153.637L47.0928 153.701C47.1139 153.39 47.2619 152.918 47.2901 152.587C47.4099 152.51 47.4169 152.319 47.5367 152.46C47.3605 151.911 47.4803 151.46 47.586 150.995C47.6917 150.53 47.7692 150.057 47.5015 149.628C47.5156 149.733 47.431 149.888 47.431 149.804C47.4451 149.55 47.431 149.296 47.431 149.043C47.6001 149.078 47.5437 149.127 47.6917 149.268C47.7692 149.163 47.8327 148.923 47.7833 148.733C47.7551 149.099 47.5226 148.775 47.4028 148.648C47.4592 148.662 47.5015 148.599 47.5508 148.606C47.1773 148.275 47.8749 148.465 47.5297 147.965L47.4592 148.014C47.438 147.803 47.5015 147.584 47.4028 147.373C47.1985 147.345 47.3958 147.612 47.2478 147.676C47.1703 147.38 47.3605 146.971 47.0928 146.767C47.0928 146.915 47.1632 147.091 47.1632 147.239C46.8391 147.034 46.8955 146.978 46.7616 146.788L46.7757 146.809L46.4586 146.386L46.5713 146.478C46.7122 146.196 46.6277 146.006 46.522 145.815C46.4163 145.625 46.2824 145.435 46.2613 145.125C46.2965 145.724 46.1626 145.294 46.0076 145.442C45.8807 145.364 45.7187 145.238 45.6975 145.315C45.7046 145.012 45.3523 145.076 45.3452 144.646C45.2818 144.674 45.1761 144.448 45.0774 144.603C44.9083 144.336 45.2184 144.582 45.2677 144.505C45.1127 143.969 44.3023 143.842 43.9782 143.166C43.5906 142.673 43.6329 142.426 43.203 141.996C42.9775 141.982 43.203 142.292 43.203 142.292C42.8789 142.215 42.7027 142.06 42.4772 141.855C42.4984 141.933 42.4209 141.954 42.3081 141.975C42.1108 141.848 42.287 141.679 41.9628 141.623C41.9769 141.714 41.984 141.855 42.0474 141.975C41.843 141.785 41.6387 141.573 41.3991 141.397C41.2864 141.475 41.4907 141.637 41.5471 141.75C41.2864 141.559 40.8283 141.348 40.7931 141.136H41.0115C40.8988 141.094 40.8988 141.277 40.9693 141.341C41.1736 141.573 41.3639 141.411 41.4062 141.362C41.3498 141.32 41.2864 141.284 41.23 141.249C41.5823 140.953 41.984 141.623 42.3434 141.806L42.3222 141.461L42.59 141.876C42.7098 141.855 42.8507 141.742 42.6816 141.602C43.0269 141.623 42.8648 141.827 43.1749 141.827C43.2101 141.827 43.2101 141.799 43.1889 141.778L43.4003 142.01C43.3863 141.926 43.5554 141.862 43.3792 141.799C43.9359 141.961 43.9711 142.482 44.2671 142.433L44.2459 142.391C44.7603 142.954 44.1684 142.609 44.4291 143.159C44.6405 143.102 44.8449 143.067 45.0633 143.025L44.9647 143.229C45.0281 143.279 45.1479 143.37 45.1902 143.293C45.2959 143.596 45.0915 143.328 45.1127 143.539C45.5143 143.673 45.7257 144.35 46.0358 144.209C45.9864 144.413 45.7187 144.004 45.8737 144.392C46.2331 144.258 46.1133 144.787 46.4304 144.977C46.529 144.787 46.2613 144.568 46.5995 144.758C46.4515 145.104 47.0364 145.28 47.121 145.583C46.9166 145.717 47.3323 146.189 47.4521 146.675C47.5226 146.612 47.9243 147.478 48.1216 147.908L48.1568 147.887C47.9454 148.035 48.0793 148.486 48.1004 148.831C48.2484 148.789 48.2977 148.719 48.3259 148.521C48.3471 148.627 48.3752 148.733 48.3893 148.845C48.3189 148.937 48.2907 149.043 48.2907 149.254L48.4739 149.148C48.5303 149.592 48.34 150.043 48.4739 150.593C48.2907 150.614 47.9806 150.17 47.8468 150.727C47.9454 150.748 48.1075 150.776 48.1498 150.621C48.1357 150.671 48.0652 150.797 48.1075 150.896L48.2766 150.671C48.3471 150.924 48.1357 150.797 48.1498 150.995C48.2907 150.995 48.2484 151.15 48.3541 151.122C48.3682 151.072 48.2977 150.945 48.3541 150.868C48.3823 151.093 48.4316 151.375 48.5303 151.474C48.4528 151.446 48.34 151.46 48.3118 151.622C48.2625 152.052 48.4739 151.791 48.5021 152.052C48.3893 152.143 48.4457 152.432 48.2414 152.404C48.2202 152.531 48.3118 152.566 48.3612 152.629C48.2273 152.834 48.1004 153.651 47.9454 153.348V153.292C47.9454 153.292 47.9313 153.313 47.9243 153.327C47.5367 153.961 47.586 154.8 47.1773 155.42L47.2407 155.448C46.98 155.8 46.7475 156.28 46.4515 156.449C46.3811 156.554 46.3952 156.766 46.4938 156.773C46.2754 157.027 46.1767 156.991 45.9794 157.449C46.2754 157.259 45.9935 157.611 46.2542 157.231C46.0428 157.611 46.064 157.766 45.6059 157.992C45.8455 157.992 45.5566 158.394 45.3593 158.499L45.4861 158.196C45.3029 158.344 45.169 158.492 45.0281 158.654L45.2677 158.746C45.0422 159.176 44.6194 159.338 44.2671 159.493C43.9007 159.641 43.5836 159.768 43.4144 160.148C43.1255 160.134 43.7668 159.796 43.4849 159.747C43.1678 159.993 42.9564 160.493 42.8437 160.557C42.3997 160.937 42.2236 160.493 41.7373 160.818C41.7726 160.712 41.7373 160.486 41.3216 160.578C40.9693 160.761 40.9975 161.085 41.2652 161.057C41.3568 161.029 41.3921 160.987 41.378 160.959C41.5119 160.937 41.681 160.902 41.5682 161.05L41.4837 160.994C41.3357 161.156 40.8072 161.346 40.9763 161.431C40.6592 161.459 40.8072 161.353 40.9975 161.226C40.5535 161.529 40.2364 161.515 39.7572 161.755C39.8207 161.684 39.87 161.572 39.7854 161.593C39.0737 161.924 39.412 161.543 38.9046 161.656C38.658 161.861 39.0878 161.917 38.5523 161.959C38.2634 162.128 38.5452 162.192 38.6862 162.22C38.1788 162.192 37.8406 162.551 37.5869 162.643H37.8476C37.6926 162.643 37.5728 162.678 37.446 162.706L37.5446 162.509C37.4107 162.572 37.2839 162.6 37.305 162.671C37.1289 162.6 37.3544 162.375 37.0232 162.297C36.854 162.424 36.4242 162.34 36.4031 162.572C36.9879 162.361 36.389 162.805 36.9034 162.72C36.7977 162.72 36.6779 162.748 36.544 162.805C36.5299 162.833 36.5722 162.847 36.6145 162.847C36.0789 163.171 36.2903 162.664 35.6984 162.805C35.8041 162.91 35.6068 163.066 35.5081 163.058C35.7477 163.002 35.5786 162.833 35.339 162.784C34.9726 162.96 34.9092 162.798 34.7119 162.854L34.9303 162.763C34.8246 162.657 34.6414 162.713 34.3666 162.727C34.3666 162.826 34.6203 162.741 34.5357 162.805C34.1975 162.657 33.9086 163.164 33.4646 163.094C33.2885 163.213 33.4928 163.326 33.3307 163.418C32.8375 163.347 32.8586 163.686 32.3372 163.636C32.4499 163.446 32.4781 163.481 32.1117 163.383L32.9361 163.361L32.3795 163.213C32.619 163.171 32.9079 163.228 33.0489 163.171C32.7811 163.08 32.8093 163.122 32.9009 162.96C32.612 163.27 32.2174 162.932 31.8651 163.164L31.9426 163.573C31.3929 163.855 30.8785 163.531 30.1386 163.742L30.3712 163.636C30.2443 163.488 29.9061 163.686 29.6524 163.65C29.6947 163.784 29.5467 163.855 29.4551 163.953C29.4551 163.848 28.8984 164.038 28.7998 163.77L28.4827 163.996C27.8767 164.144 27.7357 163.679 27.1579 163.791C27.3482 163.925 27.0945 164.052 27.4962 164.115C27.2989 164.137 27.1227 164.186 27.1156 164.087C27.0099 164.186 26.5519 163.953 26.3828 164.101C26.2912 164.045 26.256 163.904 26.0375 163.939C26.0164 163.967 26.0446 164.01 26.0446 164.01C26.0375 163.939 25.6922 163.946 25.8684 163.777C25.2976 164.27 24.1772 163.876 23.6769 164.285C23.2471 164.263 22.7256 164.242 22.331 164.249C22.3592 164.292 22.331 164.32 22.4085 164.299C21.873 164.447 22.0632 163.911 21.4572 164.073C21.1542 164.306 21.7884 164.186 21.5911 164.278C21.5206 164.736 20.8512 164.242 20.4425 164.51L20.5412 164.538C20.2241 164.7 19.766 164.383 19.2516 164.411C19.2516 164.411 19.2798 164.454 19.2516 164.482C18.8993 164.242 18.2299 164.172 17.7366 164.094C17.8846 164.277 17.9621 164.193 17.8634 164.376C17.645 164.348 17.9339 164.087 17.49 164.024C17.342 164.115 17.0249 164.2 16.9756 164.39L17.3913 164.411C17.1729 164.658 16.8487 164.39 16.6303 164.433L16.6585 164.545C16.0172 164.489 16.0172 164.207 15.3267 164.2L15.4042 164.122C15.0448 163.834 15.08 164.263 14.7207 164.038L14.5938 164.306C14.3472 164.221 13.7412 163.989 13.3043 163.904C13.5439 164.13 14.0512 164.263 14.3683 164.411C14.1217 164.397 13.5298 164.341 13.41 164.193C13.5086 164.228 13.6284 164.306 13.7271 164.263C13.4382 164.031 13.0506 163.89 12.5644 163.848C12.5926 164.404 11.2678 163.834 10.8309 164.158C9.99239 163.784 9.03405 163.841 8.02639 163.312C8.56193 163.108 7.74453 163.157 8.00525 162.805C7.8009 162.657 7.71634 162.615 7.68815 162.629C7.42743 162.579 7.1667 162.495 6.90598 162.41C6.68048 162.396 7.04691 162.643 6.97645 162.699C6.48318 162.375 6.67344 162.699 6.27883 162.53C6.4409 162.467 6.26474 162.227 5.98287 162.023L6.46204 162.213C6.2436 161.846 6.06039 161.79 5.87717 161.706C5.69396 161.628 5.48961 161.543 5.34164 161.128C5.34868 161.226 5.36982 161.325 5.38391 161.431C5.27821 161.233 5.05977 160.888 4.90474 160.515C4.74972 160.141 4.6722 159.754 4.77085 159.507C4.70039 159.458 4.55946 159.401 4.58764 159.584C4.19303 158.626 4.4608 157.407 4.24236 156.695L4.13666 156.773C4.16485 156.597 4.33397 156.463 4.22827 156.244C4.18599 156.258 4.12257 156.315 4.11552 156.23C4.1578 156.132 4.29169 155.765 4.25646 155.533L4.12257 155.723C4.04506 154.779 4.54537 154.342 4.75677 153.623C4.45376 153.567 4.51718 152.834 4.57355 152.467H4.52423C4.81314 151.417 5.36982 150.826 5.91241 150.015C5.87717 149.311 6.78619 148.148 7.25126 147.281C7.20898 147.436 7.45561 147.408 7.58245 147.288C7.66701 147.063 8.14618 146.943 7.89955 146.788L7.85022 146.851C7.75157 146.548 8.09686 146.217 8.35758 145.949L8.67467 146.161C8.79447 145.625 9.28773 145.216 9.74576 144.871C10.2179 144.54 10.6407 144.258 10.7041 143.913C10.9437 143.849 11.1762 143.673 11.4088 143.617L11.2819 143.462C11.7822 143.06 12.0359 142.835 12.7406 142.482L12.5292 142.44C12.9097 142.2 13.2972 142.644 13.6566 142.468L13.6214 142.151C14.2979 141.785 14.9039 141.221 15.7142 141.179C15.686 141.144 15.6297 141.073 15.5099 141.108C15.834 140.946 16.7501 140.411 16.7642 140.833C16.6796 140.573 17.5041 140.545 17.9269 140.53L17.8071 140.361C18.2158 140.488 18.244 140.566 18.7231 140.488C18.8288 140.432 18.7795 140.312 18.6456 140.397C18.9839 140.192 18.9768 140.488 19.3996 140.277L19.2023 140.199C19.5758 140.087 19.5687 140.157 19.8083 140.249C20.062 140.256 20.513 140.03 20.5341 139.847C20.6116 139.939 20.8512 140.037 21.0626 139.939C21.0767 139.868 20.9921 139.84 20.9428 139.833C21.5629 139.579 21.9364 139.861 22.3451 139.607C22.3451 139.544 22.3662 139.502 22.4015 139.48C21.8871 139.565 21.4784 139.664 21.5206 139.671C21.4854 139.495 21.8941 139.382 21.5206 139.199C21.88 139.262 22.5001 139.466 22.8947 139.311C22.9088 139.29 22.93 139.269 22.937 139.241L22.8947 139.227C22.9863 139.192 23.0709 139.199 23.1555 139.22C23.2823 139.17 23.3598 139.142 23.4866 139.121C23.5148 138.966 23.9517 138.973 24.1631 138.945C24.1702 139.142 24.4379 139.079 24.2054 139.269C24.2336 139.255 24.1631 139.248 24.0222 139.262C23.9869 139.262 23.9517 139.262 23.9306 139.255L23.9447 139.269C23.8108 139.283 23.6276 139.304 23.4303 139.325C23.6064 139.403 23.7896 139.459 24.001 139.325C24.1208 139.438 24.2547 139.558 24.3322 139.607C24.5789 139.304 25.1144 139.086 25.1708 138.91C25.8191 138.952 26.6788 138.853 27.1015 139.192C27.2848 139.227 27.2989 139.072 27.3623 139.008C27.2566 138.98 27.1297 138.987 27.0734 138.938C27.4398 139.015 28.1444 138.91 28.2431 139.17C28.6941 139.03 27.9753 138.945 28.6025 138.959L28.5179 138.882C29.7511 138.424 30.5262 139.481 31.9003 139.015C31.8016 139.044 31.7523 139.058 31.7312 139.1C33.3307 138.938 34.9021 139.636 36.4876 139.769C36.9386 139.84 36.9245 140.023 37.1359 140.234L37.305 140.072L37.6362 140.481C38.1436 140.904 38.9046 140.495 39.4613 141.228L39.2922 141.299C39.567 141.425 40.0391 141.876 40.0884 141.714C40.1025 141.757 40.0884 141.89 40.2223 141.897L40.2928 141.813C40.4549 142.01 40.6169 142.201 40.7649 142.405C41.2582 142.701 40.9763 141.996 41.6316 142.525C41.8501 142.764 42.0615 143.37 41.9276 143.335C41.836 143.25 41.6528 143.166 41.5682 143.243L41.7303 143.476C41.54 143.751 41.4484 144.117 40.8283 143.849L40.624 143.405L40.4126 143.434L40.6874 143.687C40.4337 143.659 40.4126 143.476 40.3562 143.307C40.2787 143.349 40.1871 143.356 40.1025 143.328C40.0532 143.159 40.0039 142.983 39.9475 142.814C39.8277 142.884 39.9475 143.131 39.6727 143.018C39.5952 142.778 40.0039 142.905 39.7854 142.623C39.5247 142.623 39.5036 142.757 39.3697 142.511C39.2922 142.56 39.3063 142.637 39.3697 142.722C39.2428 142.511 38.9046 142.363 38.8976 142.158C38.6157 142.2 38.2634 141.735 38.1365 142.024C38.1083 141.926 37.904 141.623 37.7208 141.524C37.8969 142.017 37.0161 141.214 36.9457 141.637C36.8259 141.214 36.086 141.136 35.6773 140.826C35.6984 140.862 35.7336 140.925 35.7759 140.925C35.5081 140.869 35.4024 140.953 35.2192 140.967C35.2545 140.685 34.8528 140.523 34.6555 140.312C34.2679 140.502 34.7894 140.671 34.6344 140.897C34.6978 140.678 34.1059 140.559 34.2539 140.404C33.9649 140.523 34.0143 140.446 33.8451 140.643C33.8522 140.291 33.6197 140.552 33.4294 140.305C33.0277 140.425 33.2955 140.615 32.8939 140.46C32.6895 140.545 33.0348 140.707 33.0348 140.707H33.0418ZM22.9863 140.53C23.0709 140.53 23.1484 140.516 23.1977 140.509C23.1554 140.509 23.092 140.516 22.9863 140.53ZM22.1407 140.671C22.2394 140.643 22.3662 140.622 22.5072 140.601C22.5283 140.53 22.479 140.467 22.3944 140.481C22.4508 140.516 22.2535 140.587 22.1407 140.671ZM23.7474 139.03C23.6064 139.022 23.5642 139.065 23.5501 139.107C23.6135 139.107 23.691 139.1 23.7967 139.1L23.8178 139.121C23.7967 139.086 23.7826 139.051 23.7474 139.03Z" fill="#C6B08D"/>
<path d="M24.0285 139.254C24.0285 139.254 24.0638 139.261 24.085 139.261C24.0567 139.282 24.0356 139.296 24.0073 139.317L23.9509 139.261C23.9509 139.261 24.0003 139.261 24.0285 139.254Z" fill="#C6B08D"/>
<path d="M47.8887 153.363V153.384C47.8887 153.384 47.8816 153.349 47.8675 153.342C47.8675 153.356 47.8816 153.356 47.8887 153.37V153.363Z" fill="#C6B08D"/>
<path d="M11.676 145.408L11.6477 145.372L11.7324 145.365L11.676 145.408Z" fill="#C6B08D"/>
<path d="M47.374 148.641C47.374 148.641 47.3317 148.62 47.3105 148.592C47.3246 148.592 47.3458 148.613 47.374 148.641Z" fill="#C6B08D"/>
<path d="M46.7266 146.781L46.5431 146.562C46.6278 146.654 46.6842 146.725 46.7266 146.781Z" fill="#C6B08D"/>
<path d="M45.9152 145.506C45.9152 145.506 45.9505 145.45 45.9717 145.436L45.9152 145.506Z" fill="#C6B08D"/>
<path d="M34.5146 161.53C34.5146 161.53 34.4723 161.53 34.4511 161.53C34.303 161.523 34.4017 161.516 34.5146 161.53Z" fill="#C6B08D"/>
<path d="M41.708 159.894C41.6233 159.894 41.5387 159.894 41.454 159.908C41.5669 159.838 41.6516 159.795 41.708 159.894Z" fill="#C6B08D"/>
<path d="M26.2979 162.529V162.536H26.2488L26.2979 162.529Z" fill="#C6B08D"/>
<path d="M41.1514 160.057C41.2573 159.972 41.3561 159.937 41.4619 159.916C41.3702 159.972 41.2643 160.043 41.1514 160.057Z" fill="#C6B08D"/>
<path d="M40.877 141.581L40.8064 141.567C40.8064 141.567 40.8064 141.545 40.8064 141.531L40.877 141.581Z" fill="#C6B08D"/>
<path d="M40.8145 141.532L40.7439 141.482C40.7439 141.482 40.8074 141.504 40.8145 141.532Z" fill="#C6B08D"/>
<path d="M40.602 141.377L40.7432 141.483C40.6867 141.462 40.6161 141.448 40.602 141.377Z" fill="#C6B08D"/>
<path d="M42.6953 142.363L42.6741 142.434C42.6741 142.434 42.6741 142.392 42.6953 142.363Z" fill="#C6B08D"/>
<path d="M43.1963 142.714C43.0695 142.637 42.809 142.644 42.6681 142.496L42.6822 142.439C42.7034 142.58 43.154 142.524 43.1963 142.714Z" fill="#C6B08D"/>
<path d="M45.7322 143.822L45.3238 143.456C45.4435 143.477 45.6055 143.498 45.4505 143.301C46.0914 143.667 45.2322 143.308 45.7393 143.829L45.7322 143.822Z" fill="#C6B08D"/>
<path d="M46.8459 145.132C46.7118 144.864 46.9447 145.076 46.9729 145.04C47.0152 145.245 47.0223 145.287 46.8459 145.132Z" fill="#C6B08D"/>
<path d="M46.4227 156.922L46.585 156.999C46.4368 157.183 46.5285 156.964 46.4227 156.922Z" fill="#C6B08D"/>
<path d="M44.2315 158.027L44.295 157.801L44.4785 157.857L44.2315 158.027Z" fill="#C6B08D"/>
<path d="M43.942 159.881L44.0479 159.846L43.6809 160.015L43.942 159.881Z" fill="#C6B08D"/>
<path d="M24.1207 164.454L24.17 164.229C24.3253 164.257 24.3747 164.504 24.1207 164.454Z" fill="#C6B08D"/>
<path d="M15.3828 164.313C15.2842 164.419 15.0307 164.482 14.8899 164.363C15.087 164.363 15.2842 164.278 15.3828 164.313Z" fill="#C6B08D"/>
<path d="M8.77892 145.633L8.60251 145.711L8.88477 145.506L8.77892 145.633Z" fill="#C6B08D"/>
<path d="M42.5049 136.513V134.174L42.4556 133.793C41.2365 134.011 39.8342 134.103 38.8547 134.145V134.174L39.0309 136.661C40.2359 136.478 41.5465 136.499 42.5049 136.555V136.513Z" fill="#E49E6B"/>
<path d="M33.3238 116.008L37.6433 134.174C37.6786 134.174 38.1577 134.174 38.8554 134.146C39.8348 134.104 41.2371 134.012 42.4562 133.794C43.4075 133.617 44.239 133.371 44.6688 133.004C46.057 131.835 41.1666 107.404 40.7086 104.325C40.2506 101.245 41.97 84.8549 41.97 84.8549L41.829 84.418C40.9834 84.6716 40.2153 84.8549 39.7573 84.8549C39.2993 84.8549 36.8682 84.6998 33.7607 84.425L31.8933 84.8549L30.0964 108.447C30.0964 108.447 30.3853 110.004 30.8081 112.323L30.9913 112.287C31.1957 112.781 32.4641 114.718 33.3238 116.008Z" fill="#E49E6B"/>
<path d="M2.40949 90.541L1.78939 90.9568L1.95146 91.1964L3.55105 93.557L5.04492 92.4013L2.40949 90.541Z" fill="#E49E6B"/>
<path d="M6.22204 65.2012L5.22847 67.4279L5.10163 67.3856L1.70517 78.5122L1.00051 89.7868L1.78973 90.9565L2.40983 90.5407L5.04526 92.401L6.20795 91.4991L7.63841 90.3928L8.75177 89.526C7.94846 88.1731 6.65893 85.8266 6.70826 84.8542C6.75054 83.9381 6.11634 81.5422 5.65831 79.9708C5.41873 79.1182 5.22847 78.5122 5.22847 78.5122L8.75177 70.5425L9.76649 69.1331L10.3584 69.1191C8.98431 67.8155 7.51862 66.4273 6.22204 65.2012Z" fill="#E49E6B"/>
<path d="M67.8941 32.7794L65.3855 32.9485C64.9486 33.6321 63.7155 35.5558 63.7155 35.6685L62.3061 36.9369L60.5163 37.3808L59.4875 37.6416C59.4875 37.6416 57.5779 38.7902 56.6195 39.9529L57.0212 40.3264V42.4756L54.9565 43.7369C56.4856 44.8714 58.3953 46.5837 59.1563 48.2538L60.2838 46.3089L60.5022 45.9354C61.3408 44.4416 62.6373 42.2712 63.2927 41.1649L65.766 40.3264C65.8435 40.1643 66.0197 39.9529 66.2452 39.7063C67.2458 38.614 69.3457 36.9369 69.3457 36.9369C69.3457 36.9369 69.3457 36.2323 68.641 36.2323C68.3803 36.2323 67.8236 36.5282 67.2317 36.8946L68.9511 32.709L67.8871 32.7794H67.8941Z" fill="#E49E6B"/>
<path d="M60.6927 34.8448L60.5165 37.3815L62.3064 36.9376L63.7157 35.6692C63.7157 35.5565 64.9489 33.6327 65.3857 32.9492L62.3064 33.1536C61.4185 32.9915 60.9323 34.0344 60.6927 34.8236V34.8448Z" fill="#E49E6B"/>
<path d="M39.0307 136.659C38.9673 136.666 38.9109 136.68 38.8545 136.687L34.1192 138.668V144.967L45.6475 146.045L43.9492 136.687C43.9492 136.687 43.3644 136.603 42.5047 136.554C41.5463 136.497 40.2357 136.476 39.0307 136.659Z" fill="#E49E6B"/>
<path d="M5.04414 92.4018L3.55026 93.5574L1.95068 91.1968L4.52269 97.5388L16.2553 89.9284L16.3398 89.2872L16.2553 87.3916L14.6557 76.5117L14.7332 76.2862L12.7179 75.6309C11.2945 75.7295 5.66424 79.9715 5.66424 79.9715H5.65719C6.11522 81.5429 6.74942 83.9388 6.70714 84.8549C6.65781 85.8273 7.94734 88.1738 8.75065 89.5267L7.63729 90.3935L6.20683 91.4998L5.04414 92.4018Z" fill="#F5CF24"/>
<path d="M16.3339 73.9033H16.6228L16.5382 76.7854L16.503 77.8071C16.503 77.8071 15.7984 79.2165 17.2288 81.3304C17.6164 81.9083 19.3921 82.4367 21.7809 82.8948C25.2338 83.5642 29.9902 84.0856 33.7602 84.4239C36.8677 84.6987 39.2917 84.8537 39.7568 84.8537C40.2219 84.8537 40.9829 84.6705 41.8285 84.4168C42.6177 84.1843 43.4704 83.8883 44.168 83.6347L47.5997 80.8019C47.7618 78.998 47.4799 73.3114 47.0853 67.4275L50.3831 68.3999H50.4042C51.3132 68.5408 52.4759 68.6465 53.85 68.6465C57.3733 68.6465 58.7826 61.5999 58.7826 61.5999C58.7826 61.5999 59.4873 52.4394 59.4873 49.6207C59.4873 49.1838 59.3675 48.7258 59.1561 48.2607C58.3951 46.5836 56.4855 44.8713 54.9563 43.7368C54.2024 43.1801 53.54 42.7714 53.1454 42.5741C51.736 41.8695 46.8034 40.4601 46.8034 40.4601C46.8034 40.4601 43.2801 35.5275 41.1661 33.4135C40.0457 32.2931 39.3199 31.7646 38.7844 31.4123L36.6774 28.4668L35.6698 29.1856H24.9589C24.2543 29.1856 22.1403 29.8902 20.731 30.4257L19.5612 29.7352L18.3069 31.8562L18.2929 31.8844C17.8842 32.4129 17.4825 33.1175 17.1372 33.9631C16.799 34.7876 15.6574 39.1776 14.389 43.2788H14.382L12.0848 45.435L12.4512 45.8296C10.3302 47.5842 2.40981 61.5999 2.40981 61.5999C2.40981 61.5999 4.07985 63.1784 6.22202 65.2008C7.5186 66.4269 8.98429 67.815 10.3584 69.1187C12.6978 71.3313 14.7625 73.2902 15.2487 73.7694C16.2282 74.7207 16.3339 74.1852 16.3339 73.9033Z" fill="#E49E6B"/>
<path d="M20.195 140.523C17.9119 141.227 10.8653 142.7 12.9793 144.427C15.0933 146.16 34.1191 146.047 34.1191 146.047V136.689C32.7098 137 28.651 136.689 28.651 136.689C28.651 136.689 25.6632 140.523 24.9586 140.523C24.2539 140.523 22.4852 139.818 20.195 140.523Z" fill="#E49E6B"/>
<path d="M24.9592 22.8436L25.4243 24.7815C26.897 24.5348 29.3844 24.1331 31.2095 24.4432L31.2307 24.3305V22.8225C32.5554 22.7097 34.5426 22.2588 36.2337 20.7297C38.8058 18.3972 39.6514 14.4864 38.3477 10.8644L38.5168 10.7869L36.9455 7.39041L36.8679 7.40451C36.6847 6.61529 36.1492 5.23418 34.8244 3.81781C33.4362 2.32393 31.8508 1.15418 29.9059 1.50651L29.8918 1.44307L25.3256 1.02734C24.1136 1.14714 21.9785 1.55585 20.0266 3.11315C16.6301 5.8261 15.8761 10.343 16.5033 13.6831C17.3066 17.9533 20.5903 21.4625 24.9592 22.8436Z" fill="#E49E6B"/>
<path d="M20.4132 28.2903L19.5606 29.7348L20.7303 30.4254C22.1396 29.8898 24.2536 29.1852 24.9583 29.1852H35.6691L36.6768 28.4664L36.1764 27.7688V27.7547C35.3661 27.0148 34.0272 25.8451 32.6743 24.9572C32.2797 24.7036 31.7794 24.5344 31.2086 24.4428C29.3835 24.1328 26.8961 24.5345 25.4233 24.7811C24.8385 24.8797 24.4157 24.9572 24.2536 24.9572C23.5489 24.9572 20.7303 28.4805 20.7303 28.4805L20.4132 28.2903Z" fill="#E49E6B"/>
<path d="M21.7805 82.8945L20.9208 109.883L26.4947 132.066C26.4947 132.066 26.8964 132.178 27.5165 132.319C28.6792 132.594 30.6099 132.989 32.0756 133.003C33.2383 133.017 34.1191 132.785 34.1191 132.066C34.1191 130.523 31.9699 118.614 30.8072 112.321C30.3844 110.003 30.0955 108.446 30.0955 108.446L31.8924 84.8535L33.7598 84.4236C29.9898 84.0854 25.2334 83.564 21.7805 82.8945Z" fill="#E49E6B"/>
<path d="M32.6182 134.843L32.0756 133.011C30.6099 132.99 28.6792 132.595 27.5165 132.32L28.651 136.689C28.651 136.689 32.7098 136.999 34.1191 136.689L32.6182 134.843Z" fill="#E49E6B"/>
<path d="M70.2542 34.8296L68.6476 36.2319C69.3523 36.2319 69.3523 36.9366 69.3523 36.9366C69.3523 36.9366 67.2524 38.6137 66.2518 39.7059L69.3523 39.0506H69.6764C70.0569 38.3459 72.1709 35.5273 72.1709 34.8226C72.1709 34.1179 70.9236 33.9629 70.9236 33.9629L70.2613 34.8226H70.2542V34.8296Z" fill="#E49E6B"/>
<path d="M68.2317 34.8242L67.2381 36.8959C67.8301 36.5295 68.3867 36.2335 68.6475 36.2335L68.2317 34.8242Z" fill="#E49E6B"/>
<path d="M25.6628 1C25.5571 1.00705 25.4444 1.01408 25.3246 1.02817C24.1125 1.14796 21.9774 1.55668 20.0255 3.11398C16.6291 5.82692 15.8751 10.3438 16.5022 13.6839C17.3055 17.9541 20.5892 21.4633 24.9581 22.8445L27.0721 23.5491V21.4352L28.4814 22.1398" stroke="#4F4131" stroke-linecap="round" stroke-linejoin="round"/>
<path d="M29.1862 1.70385C29.4328 1.61929 29.6724 1.5488 29.905 1.50652C31.8498 1.15419 33.4353 2.32395 34.8235 3.81783C36.1483 5.2342 36.6838 6.61531 36.867 7.40453C36.9375 7.72867 36.9516 7.95419 36.9375 8.04579" stroke="#4F4131" stroke-linecap="round" stroke-linejoin="round"/>
<path d="M38.3477 10.8652C39.6514 14.4872 38.8058 18.3981 36.2337 20.7305C34.5426 22.2596 32.5554 22.7106 31.2307 22.8233C30.5965 22.8797 30.1173 22.8586 29.8918 22.8445" stroke="#4F4131" stroke-linecap="round" stroke-linejoin="round"/>
<path d="M36.1772 27.7695C36.649 28.1991 36.9307 28.4808 36.9307 28.4808" stroke="#4F4131" stroke-linecap="round" stroke-linejoin="round"/>
<path d="M20.7308 28.4805C20.7308 28.4805 23.5495 24.9572 24.2541 24.9572C24.4162 24.9572 24.839 24.8797 25.4239 24.7811C26.8966 24.5345 29.384 24.1328 31.2091 24.4428C31.7799 24.5344 32.2802 24.7036 32.6748 24.9572C34.0278 25.8451 35.3666 27.0148 36.1699 27.7547" stroke="#4F4131" stroke-linecap="round" stroke-linejoin="round"/>
<path d="M20.7311 30.4257C22.1404 29.8902 24.2544 29.1855 24.9591 29.1855H35.6699" stroke="#4F4131" stroke-linecap="round" stroke-linejoin="round"/>
<path d="M50.3828 68.4014C48.9876 68.2041 48.2125 67.9434 48.2125 67.9434" stroke="#4F4131" stroke-linecap="round" stroke-linejoin="round"/>
<path d="M59.1561 48.2617C59.3675 48.7268 59.4873 49.1849 59.4873 49.6218C59.4873 52.4404 58.7826 61.601 58.7826 61.601C58.7826 61.601 57.3733 68.6476 53.85 68.6476C52.4759 68.6476 51.3132 68.5419 50.4042 68.408" stroke="#4F4131" stroke-linecap="round" stroke-linejoin="round"/>
<path d="M37.643 30.5957C37.9742 30.9269 38.3053 31.103 38.7845 31.4131C39.3201 31.7654 40.0459 32.2939 41.1663 33.4143C43.2802 35.5283 46.8036 40.4609 46.8036 40.4609C46.8036 40.4609 51.7362 41.8703 53.1455 42.5749C53.5401 42.7722 54.2025 43.1809 54.9565 43.7376C56.4856 44.8721 58.3952 46.5844 59.1562 48.2545" stroke="#4F4131" stroke-linecap="round" stroke-linejoin="round"/>
<path d="M48.5642 42.4199C48.5642 42.4199 53.1445 44.689 53.1445 46.8029V51.6862" stroke="#4F4131" stroke-linecap="round" stroke-linejoin="round"/>
<path d="M46.7322 42.4199C47.5074 43.2796 50.8545 48.8958 50.8545 48.8958" stroke="#4F4131" stroke-linecap="round" stroke-linejoin="round"/>
<path d="M46.0979 47.5078C46.0979 48.2125 45.3933 50.2208 45.7456 51.6864C45.9288 52.4475 46.5912 60.093 47.0845 67.4285C47.4791 73.3125 47.7609 78.9991 47.5989 80.803C47.5848 81.0637 47.5496 81.247 47.5073 81.3315" stroke="#4F4131" stroke-linecap="round" stroke-linejoin="round"/>
<path d="M45.6475 83.0797C45.6475 83.0797 45.0274 83.3264 44.1677 83.6364C43.4701 83.8901 42.6174 84.186 41.8282 84.4186C40.9826 84.6723 40.2145 84.8555 39.7565 84.8555C39.2985 84.8555 36.8674 84.7004 33.7598 84.4256C29.9899 84.0874 25.2334 83.566 21.7806 82.8965C19.3918 82.4385 17.6161 81.91 17.2285 81.3322C15.798 79.2182 16.5027 77.8089 16.5027 77.8089L16.5379 76.7871L16.6225 73.9121L17.2074 55.2598" stroke="#4F4131" stroke-linecap="round" stroke-linejoin="round"/>
<path d="M55.2589 43.28L57.0206 42.223L58.7822 41.166" stroke="#4F4131" stroke-linecap="round" stroke-linejoin="round"/>
<path d="M60.5016 45.9361C61.3401 44.4422 62.6367 42.2719 63.292 41.1656C63.5528 40.7287 63.7148 40.4609 63.7148 40.4609" stroke="#4F4131" stroke-linecap="round" stroke-linejoin="round"/>
<path d="M59.6913 47.5085C59.6349 47.5085 59.8886 47.0293 60.2832 46.3105" stroke="#4F4131" stroke-linecap="round" stroke-linejoin="round"/>
<path d="M66.2441 39.707C66.0188 39.9535 65.8427 40.1648 65.7653 40.3267C65.7371 40.376 65.723 40.4253 65.716 40.4605" stroke="#4F4131" stroke-linecap="round" stroke-linejoin="round"/>
<path d="M65.1236 38.3464C65.1236 38.3464 66.237 37.5149 67.2376 36.8948C67.8295 36.5283 68.3862 36.2324 68.6469 36.2324C69.3516 36.2324 69.3516 36.9371 69.3516 36.9371C69.3516 36.9371 67.2517 38.6142 66.2511 39.7064" stroke="#4F4131" stroke-linecap="round" stroke-linejoin="round"/>
<path d="M56.0906 41.1655C56.0553 40.792 56.2738 40.3762 56.6191 39.9534C57.5774 38.7907 59.487 37.6422 59.487 37.6422L60.5158 37.3814L62.3057 36.9375" stroke="#4F4131" stroke-linecap="round" stroke-linejoin="round"/>
<path d="M70.2539 34.8301L69.6765 35.5765" stroke="#4F4131" stroke-linecap="round" stroke-linejoin="round"/>
<path d="M69.6764 39.0525C70.0569 38.3479 72.1709 35.5292 72.1709 34.8246C72.1709 34.1199 70.9236 33.9648 70.9236 33.9648L70.2613 34.8246" stroke="#4F4131" stroke-linecap="round" stroke-linejoin="round"/>
<path d="M65.5395 36.2323C66.4274 34.9709 67.6464 33.1529 67.8931 32.7794C67.9283 32.7301 67.9424 32.709 67.9424 32.709" stroke="#4F4131" stroke-linecap="round" stroke-linejoin="round"/>
<path d="M67.9433 35.6685L68.2322 34.823L68.958 32.709" stroke="#4F4131" stroke-linecap="round" stroke-linejoin="round"/>
<path d="M63.715 35.6685C63.715 35.5558 64.9481 33.6321 65.385 32.9485C65.4837 32.8006 65.54 32.709 65.54 32.709" stroke="#4F4131" stroke-linecap="round" stroke-linejoin="round"/>
<path d="M60.692 34.8236C60.9316 34.0344 61.4178 32.9915 62.3057 33.1535" stroke="#4F4131" stroke-linecap="round" stroke-linejoin="round"/>
<path d="M60.5023 35.6676C60.5023 35.6676 60.5515 35.3015 60.6924 34.8438" stroke="#4F4131" stroke-linecap="round" stroke-linejoin="round"/>
<path d="M14.3818 43.2871C13.2544 46.9513 12.0283 50.376 11.2038 50.8129" stroke="#4F4131" stroke-linecap="round" stroke-linejoin="round"/>
<path d="M18.293 31.8848C17.8843 32.4133 17.4826 33.1179 17.1373 33.9635C16.7991 34.788 15.6575 39.178 14.3891 43.2792" stroke="#4F4131" stroke-linecap="round" stroke-linejoin="round"/>
<path d="M19.2998 30.9609C18.9898 31.116 18.6445 31.419 18.3062 31.8559" stroke="#4F4131" stroke-linecap="round" stroke-linejoin="round"/>
<path d="M12.8238 45.6544C12.7392 45.6332 12.6124 45.6967 12.4503 45.8305C10.3293 47.5852 2.40892 61.6009 2.40892 61.6009C2.40892 61.6009 4.07896 63.1793 6.22113 65.2017C7.51771 66.4278 8.9834 67.8159 10.3575 69.1196C12.697 71.3322 14.7616 73.2911 15.2478 73.7703C16.2273 74.7216 16.333 74.1861 16.333 73.9042C16.333 73.8267 16.326 73.7703 16.326 73.7703" stroke="#4F4131" stroke-linecap="round" stroke-linejoin="round"/>
<path d="M9.37109 69.1328L8.75099 70.5421L5.22769 78.5119C5.22769 78.5119 5.41795 79.1179 5.65754 79.9705C6.11556 81.5419 6.74976 83.9378 6.70748 84.8538C6.65815 85.8263 7.94768 88.1727 8.75099 89.5257C9.11037 90.1317 9.37109 90.5404 9.37109 90.5404" stroke="#4F4131" stroke-linecap="round" stroke-linejoin="round"/>
<path d="M5.22865 88.6523L7.63859 90.3929L8.75195 91.1962" stroke="#4F4131" stroke-linecap="round" stroke-linejoin="round"/>
<path d="M3.91743 89.9277L6.20758 91.4992L7.2998 92.2531" stroke="#4F4131" stroke-linecap="round" stroke-linejoin="round"/>
<path d="M2.40924 90.541L5.04467 92.4013L5.6084 92.7959" stroke="#4F4131" stroke-linecap="round" stroke-linejoin="round"/>
<path d="M5.6084 65.7168L5.10104 67.3868L1.70458 78.5135L0.999918 89.788L1.78914 90.9577L1.95121 91.1973L3.55079 93.5579L4.00882 94.2344" stroke="#4F4131" stroke-linecap="round" stroke-linejoin="round"/>
<path d="M5.66512 79.9719C5.66512 79.9719 11.2954 75.7298 12.7188 75.6312C12.8386 75.6171 12.9231 75.6382 12.9795 75.6946" stroke="#4F4131" stroke-linecap="round" stroke-linejoin="round"/>
<path d="M12.9786 76.5117L16.3398 89.2872L16.2553 87.3917L15.7973 77.1037" stroke="#4F4131" stroke-linecap="round" stroke-linejoin="round"/>
<path d="M14.6563 76.5117L16.2559 87.3917" stroke="#4F4131" stroke-linecap="round" stroke-linejoin="round"/>
<path d="M16.2559 89.9277L4.52326 97.5381L1.95125 91.1962" stroke="#4F4131" stroke-linecap="round" stroke-linejoin="round"/>
<path d="M31.8924 84.8535L30.0955 108.446C30.0955 108.446 30.3844 110.003 30.8072 112.321C31.9699 118.614 34.1191 130.523 34.1191 132.066C34.1191 132.785 33.2383 133.017 32.0756 133.003C30.6099 132.989 28.6792 132.594 27.5165 132.319C26.8964 132.178 26.4947 132.066 26.4947 132.066L20.9208 109.883L21.7805 82.8945" stroke="#4F4131" stroke-linecap="round" stroke-linejoin="round"/>
<path d="M41.969 84.8555C41.969 84.8555 40.2496 101.246 40.7076 104.325C41.1657 107.405 46.056 131.835 44.6678 133.005C44.238 133.371 43.4065 133.618 42.4552 133.794C41.2361 134.013 39.8339 134.104 38.8544 134.146C38.1568 134.175 37.6776 134.175 37.6424 134.175L33.3228 116.008L32.7943 113.789" stroke="#4F4131" stroke-linecap="round" stroke-linejoin="round"/>
<path d="M34.1191 136.689C32.7098 137 28.651 136.689 28.651 136.689C28.651 136.689 25.6632 140.523 24.9586 140.523C24.2539 140.523 22.4852 139.818 20.195 140.523C17.9119 141.227 10.8653 142.7 12.9793 144.427C15.0933 146.16 34.1191 146.047 34.1191 146.047V136.689Z" stroke="#4F4131" stroke-linecap="round" stroke-linejoin="round"/>
<path d="M34.1192 144.969L45.6475 146.047L43.9492 136.689C43.9492 136.689 43.3644 136.605 42.5047 136.556C41.5463 136.499 40.2357 136.478 39.0307 136.661C38.9673 136.668 38.9109 136.682 38.8545 136.689L34.1192 138.67" stroke="#4F4131" stroke-linecap="round" stroke-linejoin="round"/>
<path d="M38.8545 134.174L39.0306 136.661L39.0518 137" stroke="#4F4131" stroke-linecap="round" stroke-linejoin="round"/>
<path d="M42.5049 134.174V136.513" stroke="#4F4131" stroke-linecap="round" stroke-linejoin="round"/>
<path d="M32.0756 134.174L32.6182 134.843L34.1191 136.689" stroke="#4F4131" stroke-linecap="round" stroke-linejoin="round"/>
<path d="M27.5169 132.328L28.6514 136.69" stroke="#4F4131" stroke-linecap="round" stroke-linejoin="round"/>
<path d="M36.1697 27.7559L36.1768 27.77L36.6768 28.4671" stroke="#4F4131" stroke-linecap="round" stroke-linejoin="round"/>
<path d="M70.2607 34.8242L70.2539 34.831" stroke="#4F4131" stroke-linecap="round" stroke-linejoin="round"/>
</svg>
