<svg width="50" height="127" viewBox="0 0 50 127" fill="none" xmlns="http://www.w3.org/2000/svg">
<path d="M19.9638 1.37728C19.5797 1.72536 20.3599 2.28949 20.2039 3.15969V3.26172C19.4237 3.1897 18.7695 3.15969 18.4034 3.15969C17.9533 3.15969 17.0831 3.24371 16.0989 3.42375L16.0869 3.15969L16.435 2.47554L16.603 2.55955C17.1131 1.53932 17.8873 1.0352 18.7335 1.0532H18.7455C19.1836 1.18523 19.6757 1.32927 19.9638 1.37728Z" fill="#F5CF24"/>
<path d="M23.2477 1.682C23.2597 1.75402 23.2777 1.80202 23.2777 1.80202C23.2777 1.80202 23.2777 1.75402 23.2477 1.682ZM20.205 3.15834C20.3611 2.28814 19.5809 1.72401 19.965 1.37593C20.115 1.23789 20.4271 1.12986 21.0272 1.05185C22.7256 0.823794 23.1457 1.40593 23.2477 1.67599C23.2177 1.42994 23.3017 0.925821 24.562 1.11186C26.2064 1.35792 26.6445 3.15834 26.6445 3.15834L26.2304 3.8545L25.8283 4.53266L25.6363 4.7667C25.5282 4.68268 25.4202 4.60467 25.3182 4.53266C24.286 3.81849 21.9394 3.43441 20.199 3.26037V3.15834H20.205Z" fill="#F5CF24"/>
<path d="M14.2026 13.9607C14.4186 14.1767 15.3849 13.8467 15.4029 13.3605C15.4149 13.0725 15.0908 12.7484 14.8027 12.7604C14.3166 12.7784 13.9866 13.7446 14.2026 13.9607ZM21.4043 13.3605C21.4163 13.0725 21.0922 12.7484 20.8041 12.7604C20.318 12.7784 19.9879 13.7446 20.204 13.9607C20.42 14.1767 21.3862 13.8467 21.4043 13.3605ZM11.802 19.3619C10.9859 17.7295 11.2799 14.4348 11.724 11.9862L10.9559 10.1438C10.6018 8.19337 10.7098 6.28491 11.73 5.15665C12.5222 4.28045 14.4667 3.72233 16.099 3.42227C17.0833 3.24222 17.9535 3.1582 18.4036 3.1582C18.7696 3.1582 19.4238 3.18822 20.198 3.26023C21.9384 3.43427 24.2849 3.81836 25.3171 4.53252C25.4192 4.60454 25.5272 4.68255 25.6352 4.76657C27.0455 5.88882 28.6059 8.04332 28.894 9.15958C29.002 9.56767 29.068 10.2278 29.116 10.918C29.206 12.2443 29.206 13.6846 29.206 13.6846C29.7402 13.8347 29.9202 14.7349 29.8902 15.7491C29.8722 17.0034 29.5361 18.4317 29.206 18.7618C28.6059 19.3619 26.2354 18.1796 26.2354 18.1796C26.2354 18.1796 23.8048 21.7625 23.4807 22.3986C23.3967 22.5546 23.0366 22.7107 22.5085 22.8487C22.0884 22.9627 21.5543 23.0648 20.9662 23.1548C19.3578 23.4008 17.3233 23.5629 16.003 23.5629C15.4029 23.5629 14.9168 23.4489 14.5027 23.2448C13.2664 22.6267 12.7023 21.1623 11.802 19.3619Z" fill="#C7B96A"/>
<path d="M28.8945 9.15904C28.6064 8.04278 27.0461 5.88828 25.6357 4.76603L25.8278 4.53198L26.2299 3.85382L27.4302 4.1779C28.8285 3.47574 29.4646 2.82759 29.8967 4.08188C30.3828 5.4982 29.9387 6.98654 29.8967 7.11257C29.9567 7.00454 30.6889 5.73825 31.133 7.11257C31.6011 8.5529 31.133 9.8552 31.133 9.8552L30.6529 10.1193L29.2006 10.9054H29.1105C29.0625 10.2213 28.9965 9.56112 28.8885 9.15303L28.8945 9.15904Z" fill="#F5CF24"/>
<path d="M30.6586 10.127L31.4087 10.9071H31.4147C32.2669 11.6753 32.393 12.0834 31.7508 13.2297C31.2887 14.0578 30.8866 15.0121 30.6526 15.6122L30.4065 15.7622L29.8904 15.7502C29.9204 14.736 29.7404 13.8358 29.2062 13.6858C29.2062 13.6858 29.2062 12.2454 29.1162 10.9191H29.2062L30.6586 10.127Z" fill="#F5CF24"/>
<path d="M10.0444 121.961L5.47134 121.001L5.06925 120.917L3.61091 120.611C3.05279 119.993 3.90498 117.682 4.78718 117.166C4.8652 117.118 4.94922 117.076 5.03924 117.028C6.08348 116.476 7.69785 115.882 8.8081 114.784C9.30022 114.297 9.59428 113.907 9.76232 113.619V112.293C10.8966 112.791 12.2109 113.283 13.5912 113.619L13.2491 114.874C13.6032 116.266 13.5912 118.408 13.5912 118.408C13.5912 118.408 13.0811 119.915 12.2349 120.977C11.7728 121.553 11.2147 121.997 10.5785 121.997C10.4105 121.997 10.2304 121.985 10.0384 121.961H10.0444Z" fill="#C7B96A"/>
<path d="M2.80078 122.238L10.8546 123.535L10.8126 123.787L10.0024 125.587L2.80078 123.787V122.238Z" fill="#C7B96A"/>
<path d="M10.8537 123.534L2.79986 122.238L1.31152 121.998L1.59959 120.186L3.61005 120.612C3.69407 120.714 3.8201 120.768 3.98214 120.768C4.2462 120.768 4.62428 120.828 5.06838 120.918L5.47048 121.002C6.8628 121.314 8.72922 121.83 10.0435 121.962L13.0022 122.586L12.4021 123.786L10.8537 123.534Z" fill="#C7B96A"/>
<path d="M22.6646 120.732L34.3073 109.222L34.6854 108.844L35.8076 110.524L34.1212 112.289L32.4348 114.053L28.2279 118.458L26.6435 120.114L23.8049 123.091L21.3623 122.017L22.6646 120.732Z" fill="#C7B96A"/>
<path d="M37.0086 114.904L35.8863 116.362L32.4355 114.052L34.1219 112.287L37.0086 114.904Z" fill="#C7B96A"/>
<path d="M24.934 111.062C27.8806 109.334 30.6353 107.287 32.0336 106.213L32.1116 106.315C32.8258 106.351 33.606 106.951 34.0321 107.575L34.2301 108.769L34.3081 109.22L22.6654 120.73L22.3294 120.388L21.7652 119.314C21.7052 118.75 21.7292 118.012 22.0053 117.183C22.1013 116.889 22.2634 116.565 22.4614 116.223C23.4816 114.459 25.5101 112.19 25.006 111.182L24.934 111.062Z" fill="#C7B96A"/>
<path d="M31.8297 120.642L30.4254 122.322L26.6445 120.113L28.2289 118.457L31.8297 120.642Z" fill="#C7B96A"/>
<path d="M12.6494 35.9072C13.1775 31.8983 13.9397 26.5151 14.4378 24.6546H15.5721L15.7821 25.8069L16.0882 25.7529L16.0042 23.5624C17.3245 23.5624 19.359 23.4004 20.9673 23.1543L21.0273 23.5624C20.8053 24.1625 21.0273 24.7927 21.0273 24.7927H22.3296L12.7574 35.9192L12.6494 35.9072Z" fill="#C7B96A"/>
<path d="M31.3494 52.8363C29.891 52.0982 31.6074 45.1666 31.3494 43.1021C31.0913 41.0437 33.7319 38.8051 35.2083 37.9649C35.4543 37.8209 35.6944 37.6949 35.9164 37.5748C37.5308 36.7287 38.629 36.4166 39.3492 36.3326L41.3837 35.9185C41.4857 34.7602 41.7738 34.1421 42.2479 33.764C43.01 33.1638 43.6762 32.1076 44.2403 31.4354C44.6064 31.0033 45.4886 30.5952 46.2328 30.3672L47.211 30.9973C47.211 30.9973 46.4188 32.0356 45.6266 32.9598C45.5666 33.0318 45.5006 33.1038 45.4406 33.1698L47.9012 34.1841L49.2875 34.7542L48.8914 35.2403L46.4908 38.187L43.2981 40.4075C44.0963 41.3557 43.5562 40.5335 43.01 42.1659C42.4099 43.9663 40.0093 43.9663 38.0349 44.6565C37.4888 44.8425 36.9426 44.9685 36.3905 45.0585L36.4085 45.1666L35.2863 47.7712V47.7892C34.8842 49.1635 34.3501 50.8259 34.008 51.168C33.4799 51.6961 32.9457 53.1604 31.8295 52.9924C31.6794 52.9744 31.5174 52.9204 31.3494 52.8363Z" fill="#C7B96A"/>
<path d="M9.43193 55.082C9.37792 59.1629 6.44925 99.4921 6.44925 99.4921L4.52881 100.92L1 96.1794C1 96.1794 3.43056 52.1113 5.20096 54.7699C5.20096 54.7699 5.20096 54.7699 5.20696 54.7699C5.32099 54.944 5.45302 55.106 5.59705 55.244C5.59705 55.256 5.60906 55.268 5.63306 55.28C5.65107 55.304 5.67507 55.328 5.69908 55.352C6.85734 56.4323 8.54373 56.3663 9.22188 55.154C9.2879 55.124 9.35991 55.1 9.43193 55.076V55.082Z" fill="#C7B96A"/>
<path d="M23.8056 25.7543C23.8056 25.7543 23.4575 24.8361 22.4973 24.392L22.3292 24.794H21.0269C21.0269 24.794 20.8049 24.1639 21.0269 23.5638L20.9669 23.1557C21.5551 23.0657 22.0892 22.9636 22.5093 22.8496L22.4853 23.5698C25.0959 23.6178 27.3884 24.9621 27.6945 25.7543C28.0065 26.5645 33.5098 35.0744 34.362 35.9206L35.8083 37.3669L35.9163 37.577C35.6943 37.697 35.4542 37.823 35.2082 37.9671C33.7318 38.8073 31.0912 41.0458 31.3493 43.1043C31.6074 45.1687 29.891 52.1003 31.3493 52.8385C31.5173 52.9225 31.6794 52.9765 31.8294 52.9945V53.0125C31.8294 53.0125 31.2293 53.2466 30.4251 53.2586C30.4251 53.2586 31.6074 72.7751 31.8294 73.2912C32.0515 73.8073 35.2082 91.9795 34.608 93.7799C34.284 94.7581 31.9494 96.0904 29.897 97.1046L28.2646 99.8473C28.5647 101.18 29.2068 102.782 29.2068 102.782L32.9817 105.471C32.9817 105.471 32.6336 105.753 32.0335 106.215C30.6351 107.289 27.8805 109.335 24.9338 111.064C22.2092 112.666 19.3225 113.998 17.2041 114.053C16.0038 114.083 14.7735 113.908 13.5972 113.626C12.2169 113.284 10.9026 112.792 9.76835 112.294C7.48783 111.28 5.90947 110.218 5.90947 110.218L6.32357 105.074C6.25155 103.826 5.68142 102.518 5.62741 102.398L4.53516 100.922L6.4556 99.4932C6.4556 99.4932 9.38427 59.1639 9.43828 55.083C10.9806 54.5129 12.565 53.9847 12.763 53.0125C13.0091 51.7702 12.763 49.8558 12.763 49.8558C13.4292 49.2857 13.9873 48.7035 14.2094 48.3135C14.3354 48.0974 14.3534 47.8093 14.3054 47.4913C14.1374 46.243 12.9611 44.4426 12.763 43.9685C12.715 43.8544 12.655 43.6984 12.577 43.5243L13.0091 43.3683C13.0091 42.1681 13.0091 40.3676 13.6092 39.7675C13.6452 39.7315 13.6933 39.6895 13.7473 39.6475L13.3392 39.2634L19.7726 32.3858L20.3728 32.6379C21.369 30.1773 23.8116 25.7543 23.8116 25.7543H23.8056Z" fill="#C7B96A"/>
<path d="M8.36445 28.5494C9.72077 25.7347 11.8032 24.7625 14.3238 23.5622L14.5039 23.2441C14.918 23.4482 15.4041 23.5622 16.0042 23.5622L16.0882 25.7527L15.7822 25.8067L15.5721 24.6545H14.4378C13.9397 26.5149 13.1776 31.8981 12.6494 35.907L12.7575 35.919L22.3297 24.7925L22.4977 24.3904C23.4579 24.8345 23.806 25.7527 23.806 25.7527C23.806 25.7527 21.3634 30.1757 20.3672 32.6363L19.7671 32.3842L13.3336 39.2618L13.7417 39.6459C13.6877 39.6879 13.6397 39.7299 13.6037 39.7659C13.0035 40.3661 13.0035 42.1665 13.0035 43.3668L12.5714 43.5228C12.6494 43.6968 12.7094 43.8529 12.7575 43.9669C12.9555 44.441 14.1318 46.2414 14.2998 47.4897C14.3478 47.8078 14.3298 48.0958 14.2038 48.3119C13.9817 48.702 13.4236 49.2841 12.7575 49.8543C12.7575 49.8543 13.0035 51.7687 12.7575 53.0109C12.5594 53.9832 10.9751 54.5113 9.4327 55.0814C9.4327 54.8114 9.4267 54.6974 9.40269 54.7694C9.35468 54.9134 9.29467 55.0394 9.22265 55.1594C8.5445 56.3717 6.85811 56.4378 5.69984 55.3575C5.67584 55.3335 5.65183 55.3095 5.63383 55.2855C5.62183 55.2735 5.61582 55.2615 5.59782 55.2495C5.4898 55.1175 5.35777 54.9614 5.20773 54.7754C4.24151 53.5391 2.65115 51.1746 2.20104 49.3681C1.6009 46.9676 3.40132 40.9662 3.58736 39.3098C3.7794 37.6595 7.00214 31.364 8.36445 28.5494Z" fill="#C7B96A"/>
<path d="M21.4045 13.3602C21.3865 13.8463 20.4203 14.1764 20.2042 13.9604C19.9882 13.7443 20.3182 12.7781 20.8044 12.7601C21.0924 12.7481 21.4165 13.0722 21.4045 13.3602Z" fill="#4F4131"/>
<path d="M15.4035 13.3602C15.3855 13.8463 14.4193 14.1764 14.2032 13.9604C13.9872 13.7443 14.3173 12.7781 14.8034 12.7601C15.0914 12.7481 15.4155 13.0722 15.4035 13.3602Z" fill="#4F4131"/>
<path d="M18.2716 6.15768C16.0031 5.55754 12.8884 7.76004 12.3423 9.3564C12.1682 9.86652 11.9282 10.8327 11.7241 11.985C11.28 14.4336 10.9859 17.7283 11.8021 19.3607C12.7023 21.1611 13.2665 22.6255 14.5027 23.2436C14.9168 23.4476 15.403 23.5617 16.0031 23.5617C17.3234 23.5617 19.3579 23.3996 20.9662 23.1536C21.5544 23.0636 22.0885 22.9615 22.5086 22.8475C23.0367 22.7095 23.3968 22.5534 23.4808 22.3974C23.8049 21.7613 26.2354 18.1784 26.2354 18.1784C26.2354 18.1784 28.606 19.3607 29.2061 18.7606C29.5362 18.4305 29.8723 17.0022 29.8903 15.7479C29.9203 14.7337 29.7402 13.8334 29.2061 13.6834C28.0058 13.3593 26.2354 13.9595 26.2354 13.9595L25.6233 9.7585" stroke="#4F4131" stroke-linecap="round" stroke-linejoin="round"/>
<path d="M25.318 8.08008L23.8057 9.16032" stroke="#4F4131" stroke-linecap="round" stroke-linejoin="round"/>
<path d="M24.5622 7.14244L22.9718 8.07865V6.1582L21.0273 7.11843" stroke="#4F4131" stroke-linecap="round" stroke-linejoin="round"/>
<path d="M11.2859 11.5601C11.1539 11.092 11.0399 10.6179 10.9559 10.1438C10.6018 8.19337 10.7098 6.28491 11.73 5.15665C12.5222 4.28045 14.4667 3.72233 16.099 3.42227C17.0833 3.24222 17.9535 3.1582 18.4036 3.1582C18.7696 3.1582 19.4238 3.18822 20.198 3.26023C21.9384 3.43427 24.2849 3.81836 25.3171 4.53252C25.4192 4.60454 25.5272 4.68255 25.6352 4.76657C27.0455 5.88882 28.6059 8.04332 28.894 9.15958C29.002 9.56767 29.068 10.2278 29.116 10.918C29.206 12.2443 29.206 13.6846 29.206 13.6846" stroke="#4F4131" stroke-linecap="round" stroke-linejoin="round"/>
<path d="M18.7471 1.05273C18.8913 1.05874 19.0415 1.07678 19.1918 1.11284" stroke="#4F4131" stroke-linecap="round" stroke-linejoin="round"/>
<path d="M16.6035 2.55955C17.1136 1.53932 17.8878 1.0352 18.734 1.0532" stroke="#4F4131" stroke-linecap="round" stroke-linejoin="round"/>
<path d="M23.2477 1.67478C23.2177 1.42872 23.3017 0.924604 24.562 1.11065C26.2064 1.3567 26.6445 3.15712 26.6445 3.15712L26.2304 3.85328L25.8283 4.53144" stroke="#4F4131" stroke-linecap="round" stroke-linejoin="round"/>
<path d="M23.248 1.68164C23.2721 1.75376 23.2781 1.80183 23.2781 1.80183C23.2781 1.80183 23.2601 1.75376 23.248 1.68164Z" stroke="#4F4131" stroke-linecap="round" stroke-linejoin="round"/>
<path d="M23.248 1.68197V1.67578" stroke="#4F4131" stroke-linecap="round" stroke-linejoin="round"/>
<path d="M20.205 3.15834C20.3611 2.28814 19.5809 1.72401 19.965 1.37593C20.115 1.23789 20.4271 1.12986 21.0272 1.05185C22.7256 0.823794 23.1457 1.40593 23.2477 1.67599" stroke="#4F4131" stroke-linecap="round" stroke-linejoin="round"/>
<path d="M29.8973 7.12008C29.9573 7.00605 30.6895 5.73976 31.1336 7.12008C31.6017 8.56041 31.1336 9.86271 31.1336 9.86271L30.6535 10.1268L29.2012 10.913" stroke="#4F4131" stroke-linecap="round" stroke-linejoin="round"/>
<path d="M26.6445 4.53198C26.9326 4.41796 27.1907 4.29793 27.4307 4.1779C28.829 3.47574 29.4652 2.82759 29.8973 4.08188C30.3834 5.4982 29.9393 6.98654 29.8973 7.11257" stroke="#4F4131" stroke-linecap="round" stroke-linejoin="round"/>
<path d="M31.416 10.9121C32.2682 11.6743 32.3942 12.0824 31.7521 13.2286C31.29 14.0568 30.8879 15.011 30.6538 15.6112C30.5098 15.9773 30.4258 16.2173 30.4258 16.2173" stroke="#4F4131" stroke-linecap="round" stroke-linejoin="round"/>
<path d="M30.9355 10.498C31.1158 10.6483 31.2721 10.7805 31.4103 10.9067" stroke="#4F4131" stroke-linecap="round" stroke-linejoin="round"/>
<path d="M15.6141 14.8125C15.404 16.3609 16.0042 17.9332 16.6043 17.7472" stroke="#4F4131" stroke-linecap="round" stroke-linejoin="round"/>
<path d="M16.0039 19.9629H19.0046L17.8043 21.7633C17.8043 21.7633 16.1719 22.3274 16.0879 21.4452" stroke="#4F4131" stroke-linecap="round" stroke-linejoin="round"/>
<path d="M21.0267 23.5625C20.8047 24.1626 21.0267 24.7928 21.0267 24.7928H22.329L12.7568 35.9193" stroke="#4F4131" stroke-linecap="round" stroke-linejoin="round"/>
<path d="M16.0039 23.5625L16.0879 25.753" stroke="#4F4131" stroke-linecap="round" stroke-linejoin="round"/>
<path d="M16.6032 30.3756L15.781 25.8085L15.5709 24.6562H14.4367C13.9386 26.5167 13.1764 31.8999 12.6483 35.9088C12.2882 38.5974 12.0361 40.6679 12.0361 40.6679" stroke="#4F4131" stroke-linecap="round" stroke-linejoin="round"/>
<path d="M19.7665 32.3848L13.333 39.2623L13.291 39.3104" stroke="#4F4131" stroke-linecap="round" stroke-linejoin="round"/>
<path d="M21.4047 24.1641C21.8368 24.1641 22.1969 24.2541 22.497 24.3921C23.4572 24.8362 23.8053 25.7544 23.8053 25.7544C23.8053 25.7544 21.3627 30.1774 20.3665 32.638C20.1805 33.0941 20.0484 33.4842 19.9884 33.7663C19.6043 35.5667 19.7664 39.3115 19.7664 39.3115" stroke="#4F4131" stroke-linecap="round" stroke-linejoin="round"/>
<path d="M22.3291 23.5625C22.3831 23.5625 22.4311 23.5625 22.4851 23.5625C25.0957 23.6105 27.3883 24.9548 27.6943 25.747C28.0064 26.5572 33.5097 35.0671 34.3619 35.9133L35.8082 37.3597" stroke="#4F4131" stroke-linecap="round" stroke-linejoin="round"/>
<path d="M35.2803 47.7907C34.8842 49.165 34.3501 50.8274 34.008 51.1695C33.4799 51.6976 32.9457 53.1619 31.8295 52.9939C31.6794 52.9759 31.5174 52.9219 31.3494 52.8378C29.891 52.0997 31.6074 45.1681 31.3494 43.1036C31.0913 41.0452 33.7319 38.8066 35.2083 37.9664C35.4543 37.8224 35.6944 37.6964 35.9164 37.5763C37.5308 36.7302 38.629 36.4181 39.3492 36.3341C40.2494 36.226 40.5675 36.4721 40.5675 36.4721" stroke="#4F4131" stroke-linecap="round" stroke-linejoin="round"/>
<path d="M35.8083 45.8633C35.8083 45.8633 35.5862 46.7335 35.2861 47.7717" stroke="#4F4131" stroke-linecap="round" stroke-linejoin="round"/>
<path d="M24.4053 43.3672C25.6055 45.7677 27.586 52.4472 28.9963 53.0114C29.4884 53.2094 29.9866 53.2634 30.4247 53.2574C31.2288 53.2454 31.829 53.0114 31.829 53.0114" stroke="#4F4131" stroke-linecap="round" stroke-linejoin="round"/>
<path d="M32.9812 35.9199C31.0068 37.3663 29.2063 42.1674 28.6062 43.9678C28.0061 45.7682 28.9963 50.3052 28.9963 50.3052" stroke="#4F4131" stroke-linecap="round" stroke-linejoin="round"/>
<path d="M32.1592 45.6358C33.4975 45.2997 34.9438 45.2997 36.3901 45.0597C36.9423 44.9696 37.4884 44.8436 38.0345 44.6576C40.009 43.9674 42.4095 43.9674 43.0097 42.167C43.5558 40.5347 44.0959 41.3568 43.2977 40.4086C43.2197 40.3126 43.1237 40.1986 43.0097 40.0605" stroke="#4F4131" stroke-linecap="round" stroke-linejoin="round"/>
<path d="M41.4076 38.566C41.3356 37.4558 41.3296 36.5915 41.3836 35.9194C41.4856 34.7611 41.7737 34.143 42.2478 33.7649C43.01 33.1648 43.6761 32.1085 44.2402 31.4364C44.6063 31.0043 45.4885 30.5962 46.2327 30.3681C46.6348 30.2421 47.0009 30.1641 47.2109 30.1641" stroke="#4F4131" stroke-linecap="round" stroke-linejoin="round"/>
<path d="M45.9082 33.5605C46.2263 34.2507 47.9607 34.7488 46.4783 35.8951" stroke="#4F4131" stroke-linecap="round" stroke-linejoin="round"/>
<path d="M46.6699 36.8847C47.6301 35.9065 47.9962 34.8622 47.9002 34.1841C47.8882 34.1181 47.8762 34.0581 47.8582 33.998" stroke="#4F4131" stroke-linecap="round" stroke-linejoin="round"/>
<path d="M48.3389 36.8984C48.705 36.1782 48.843 35.6081 48.891 35.242C48.933 34.9299 48.915 34.7559 48.915 34.7559" stroke="#4F4131" stroke-linecap="round" stroke-linejoin="round"/>
<path d="M42.4814 35.9193C43.6097 35.5652 45.3861 34.437 45.6982 35.3012C46.0103 36.1654 44.0898 37.2036 44.0898 37.2036L43.6997 39.0461" stroke="#4F4131" stroke-linecap="round" stroke-linejoin="round"/>
<path d="M46.8812 37.3652C46.011 38.5655 43.4004 40.0599 43.4004 40.0599" stroke="#4F4131" stroke-linecap="round" stroke-linejoin="round"/>
<path d="M13.0029 43.3681C13.0029 42.1678 13.0029 40.3674 13.6031 39.7672C13.6391 39.7312 13.6871 39.6892 13.7411 39.6472C14.5693 39.023 17.2039 37.9668 17.2039 37.9668" stroke="#4F4131" stroke-linecap="round" stroke-linejoin="round"/>
<path d="M15.1035 41.213C15.4036 40.3668 17.204 38.5664 17.204 38.5664" stroke="#4F4131" stroke-linecap="round" stroke-linejoin="round"/>
<path d="M16.5312 41.9586C16.6033 41.5685 17.8035 39.168 17.8035 39.168" stroke="#4F4131" stroke-linecap="round" stroke-linejoin="round"/>
<path d="M17.2041 42.8513C17.2041 42.7672 18.3744 39.8926 18.3744 39.8926" stroke="#4F4131" stroke-linecap="round" stroke-linejoin="round"/>
<path d="M19.0042 40.3652C19.0042 40.9654 17.804 44.5842 17.804 44.5842L14.2991 47.4889L14.2031 47.5669" stroke="#4F4131" stroke-linecap="round" stroke-linejoin="round"/>
<path d="M6.01139 43.3681C7.00162 42.1678 9.74425 40.8655 10.7705 41.2136C11.6107 41.5016 12.2288 42.7439 12.5709 43.5241C12.6489 43.6981 12.7089 43.8542 12.7569 43.9682C12.955 44.4423 14.1313 46.2427 14.2993 47.491C14.3473 47.8091 14.3293 48.0971 14.2033 48.3132C13.9812 48.7033 13.4231 49.2854 12.7569 49.8556C11.6227 50.8218 10.1583 51.77 9.40217 51.77C8.45395 51.77 6.11942 50.8518 5.1832 50.4737C4.93714 50.3717 4.78711 50.3057 4.78711 50.3057" stroke="#4F4131" stroke-linecap="round" stroke-linejoin="round"/>
<path d="M4.78756 43.3672C4.00138 45.7677 3.13118 47.2561 3.86935 48.3123C4.24144 48.8464 4.76356 49.7346 5.18365 50.4728C5.59175 51.187 5.90982 51.7691 5.90982 51.7691" stroke="#4F4131" stroke-linecap="round" stroke-linejoin="round"/>
<path d="M12.7564 26.5645C12.4023 28.3649 9.70765 36.7668 9.55762 38.5672" stroke="#4F4131" stroke-linecap="round" stroke-linejoin="round"/>
<path d="M5.69922 55.3574C5.78937 55.4536 5.86148 55.5257 5.90956 55.5677" stroke="#4F4131" stroke-linecap="round" stroke-linejoin="round"/>
<path d="M14.3238 23.5625C11.8032 24.7628 9.72076 25.735 8.36445 28.5496C7.00214 31.3643 3.7794 37.6597 3.58736 39.3101C3.40132 40.9665 1.6009 46.9679 2.20104 49.3684C2.65115 51.1748 4.24151 53.5394 5.20773 54.7756C5.35777 54.9617 5.4898 55.1177 5.59782 55.2498C5.61582 55.2618 5.62183 55.2738 5.63383 55.2858" stroke="#4F4131" stroke-linecap="round" stroke-linejoin="round"/>
<path d="M8.20117 55.5688C8.52525 55.4247 8.86732 55.2927 9.22141 55.1607C9.28742 55.1307 9.35944 55.1066 9.43145 55.0826C10.9738 54.5125 12.5582 53.9844 12.7562 53.0122C13.0023 51.7699 12.7562 49.8555 12.7562 49.8555" stroke="#4F4131" stroke-linecap="round" stroke-linejoin="round"/>
<path d="M18.3748 44.8672C18.4048 46.9677 17.7387 76.7165 18.3748 79.8492C19.005 82.9759 19.7851 94.3785 20.5953 94.9787" stroke="#4F4131" stroke-linecap="round" stroke-linejoin="round"/>
<path d="M22.3291 97.3496C23.8054 100.38 23.8054 101.641 23.8054 101.641L25.3178 100.104" stroke="#4F4131" stroke-linecap="round" stroke-linejoin="round"/>
<path d="M26.6445 98.5742C26.6445 98.5742 28.1749 97.9501 29.8973 97.1039C31.9497 96.0896 34.2843 94.7573 34.6084 93.7791C35.2085 91.9787 32.0518 73.8065 31.8297 73.2904C31.6077 72.7743 30.4254 53.2578 30.4254 53.2578" stroke="#4F4131" stroke-linecap="round" stroke-linejoin="round"/>
<path d="M5.62106 102.391L4.52881 100.92L1 96.1794C1 96.1794 3.43056 52.1113 5.20096 54.7699C5.20096 54.7699 5.20096 54.7699 5.20696 54.7699C5.32099 54.944 5.45302 55.106 5.59705 55.244C5.59705 55.256 5.60906 55.268 5.63306 55.28C5.65107 55.304 5.67507 55.328 5.69908 55.352C6.85734 56.4323 8.54373 56.3663 9.22188 55.154C9.2939 55.034 9.35391 54.908 9.40192 54.7639C9.42593 54.6919 9.43193 54.8059 9.43193 55.076C9.37792 59.1569 6.44925 99.4861 6.44925 99.4861" stroke="#4F4131" stroke-linecap="round" stroke-linejoin="round"/>
<path d="M11.8335 55.3633C12.4036 55.9694 8.8028 102.78 8.8028 102.78H5.91014L5.62207 102.396" stroke="#4F4131" stroke-linecap="round" stroke-linejoin="round"/>
<path d="M21.6386 48.3125C21.6386 48.3125 20.9365 78.8655 21.7707 81.8182C22.6049 84.7768 25.3175 97.3497 25.3175 97.3497" stroke="#4F4131" stroke-linecap="round" stroke-linejoin="round"/>
<path d="M26.6439 25.875C26.6439 25.875 22.0588 41.7486 22.3289 44.6593" stroke="#4F4131" stroke-linecap="round" stroke-linejoin="round"/>
<path d="M9.76806 112.287C7.48754 111.278 5.90918 110.216 5.90918 110.216L6.32327 105.073L6.4493 103.477" stroke="#4F4131" stroke-linecap="round" stroke-linejoin="round"/>
<path d="M13.5974 113.619C12.2171 113.283 10.9028 112.791 9.76855 112.293" stroke="#4F4131" stroke-linecap="round" stroke-linejoin="round"/>
<path d="M28.121 98.5742C28.091 98.8983 28.157 99.3544 28.265 99.8465C28.5651 101.179 29.2072 102.781 29.2072 102.781L32.9821 105.47C32.9821 105.47 32.634 105.752 32.0339 106.214C30.6356 107.288 27.8809 109.335 24.9343 111.063C22.2096 112.665 19.323 113.998 17.2045 114.052C16.0042 114.082 14.7739 113.908 13.5977 113.626" stroke="#4F4131" stroke-linecap="round" stroke-linejoin="round"/>
<path d="M28.2279 118.458L32.4348 114.053L34.1212 112.289L35.8076 110.524L34.6854 108.844L34.3073 109.222L22.6646 120.732L21.3623 122.017L23.8049 123.091L26.6435 120.114" stroke="#4F4131" stroke-linecap="round" stroke-linejoin="round"/>
<path d="M26.6445 120.113L30.4254 122.322L31.8297 120.642L28.2289 118.457L26.6445 120.113Z" stroke="#4F4131" stroke-linecap="round" stroke-linejoin="round"/>
<path d="M32.4355 114.052L35.8863 116.362L37.0086 114.904L34.1219 112.287" stroke="#4F4131" stroke-linecap="round" stroke-linejoin="round"/>
<path d="M32.1113 106.316C32.8255 106.352 33.6057 106.953 34.0318 107.577C34.3438 108.033 34.4639 108.507 34.2298 108.771C34.2058 108.795 34.1818 108.819 34.1518 108.843" stroke="#4F4131" stroke-linecap="round" stroke-linejoin="round"/>
<path d="M25.006 111.184C25.5101 112.192 23.4816 114.46 22.4614 116.225C22.2634 116.567 22.1013 116.891 22.0053 117.185C21.7292 118.013 21.7052 118.751 21.7652 119.315C21.8313 119.976 22.0053 120.39 22.0053 120.39" stroke="#4F4131" stroke-linecap="round" stroke-linejoin="round"/>
<path d="M20.8047 117.183C21.1108 116.877 21.7769 116.457 22.4611 116.223C23.1212 116.001 23.7994 115.959 24.1955 116.361" stroke="#4F4131" stroke-linecap="round" stroke-linejoin="round"/>
<path d="M5.04492 117.027C6.08916 116.475 7.70353 115.881 8.81379 114.783C9.3059 114.297 9.59997 113.907 9.768 113.618C10.0201 113.198 10.0201 112.988 10.0201 112.988" stroke="#4F4131" stroke-linecap="round" stroke-linejoin="round"/>
<path d="M5.06925 120.916C4.62515 120.826 4.24706 120.766 3.983 120.766C3.82096 120.766 3.69493 120.712 3.61091 120.61C3.05279 119.992 3.90498 117.681 4.78718 117.165C4.8652 117.117 4.94922 117.075 5.03924 117.027" stroke="#4F4131" stroke-linecap="round" stroke-linejoin="round"/>
<path d="M13.0214 114.203C13.1114 114.389 13.1894 114.617 13.2555 114.875C13.6095 116.268 13.5975 118.41 13.5975 118.41C13.5975 118.41 13.0874 119.916 12.2412 120.979C11.7791 121.555 11.221 121.999 10.5849 121.999C10.4168 121.999 10.2368 121.987 10.0447 121.963C8.73043 121.831 6.864 121.315 5.47168 121.003" stroke="#4F4131" stroke-linecap="round" stroke-linejoin="round"/>
<path d="M10.8537 123.534L12.4021 123.786L13.0022 122.586L10.0435 121.962L5.47048 121.002L5.06838 120.918L3.61005 120.612L1.59959 120.186L1.31152 121.998L2.79986 122.238L10.8537 123.534Z" stroke="#4F4131" stroke-linecap="round" stroke-linejoin="round"/>
<path d="M10.8126 123.787L10.0024 125.587L2.80078 123.787V122.238" stroke="#4F4131" stroke-linecap="round" stroke-linejoin="round"/>
<path d="M7.1582 120.539C8.20244 120.185 9.82281 119.038 10.813 119.308C11.5032 119.5 12.0013 120.431 12.2414 120.977C12.3494 121.217 12.4034 121.385 12.4034 121.385" stroke="#4F4131" stroke-linecap="round" stroke-linejoin="round"/>
<path d="M6.62328 120.186C6.40123 118.986 6.08316 116.874 5.04492 117.03" stroke="#4F4131" stroke-linecap="round" stroke-linejoin="round"/>
<path d="M20.8044 12.7601C21.0924 12.7481 21.4165 13.0722 21.4045 13.3602C21.3865 13.8463 20.4203 14.1764 20.2042 13.9604C19.9882 13.7443 20.3182 12.7781 20.8044 12.7601Z" stroke="#4F4131" stroke-linecap="round" stroke-linejoin="round"/>
<path d="M14.8034 12.7601C15.0914 12.7481 15.4155 13.0722 15.4035 13.3602C15.3855 13.8463 14.4193 14.1764 14.2032 13.9604C13.9872 13.7443 14.3173 12.7781 14.8034 12.7601Z" stroke="#4F4131" stroke-linecap="round" stroke-linejoin="round"/>
<path d="M9.76855 112.287V112.293" stroke="#4F4131" stroke-linecap="round" stroke-linejoin="round"/>
<path d="M13.5977 113.619V113.625" stroke="#4F4131" stroke-linecap="round" stroke-linejoin="round"/>
</svg>
