<svg width="199" height="186" viewBox="0 0 199 186" fill="none" xmlns="http://www.w3.org/2000/svg">
<path d="M125.336 180.76C120.701 181.609 116.073 182.457 111.439 183.306C108.084 183.92 104.676 184.54 101.275 184.279C96.2232 183.893 91.5365 181.628 86.9738 179.422C75.4788 173.88 63.8534 168.515 51.6731 164.709C33.9771 159.187 14.029 156.328 1.37875 142.783C11.5812 137.522 21.7968 132.281 32.0253 127.059C33.7551 126.177 35.5241 125.283 37.4366 124.95C39.7408 124.545 42.0973 124.983 44.3819 125.479C59.5909 128.782 74.0297 134.846 88.3772 140.877C101.315 146.321 114.663 152.039 124.252 162.294C127.131 165.368 129.722 169.109 129.827 173.319C129.931 177.529 126.563 182.007 122.359 181.681" fill="#D3B25B"/>
<path d="M122.315 182.112C122.165 182.04 122.256 181.936 122.706 181.956L123.032 182.171L122.315 182.106V182.112Z" fill="#C6B08D"/>
<path d="M125.161 181.199C125.657 181.088 126.277 180.919 126.081 181.265C125.794 181.304 125.637 181.356 125.474 181.408C125.304 181.447 125.128 181.474 124.828 181.461C124.417 181.598 124.11 181.741 124.201 181.806C124.045 181.813 123.516 181.983 123.268 181.878C123.829 181.65 124.501 181.513 125.246 181.317C125.376 181.212 125.206 181.219 125.154 181.199H125.161Z" fill="#C6B08D"/>
<path d="M108.639 150.742L108.888 150.853C108.816 150.827 108.731 150.788 108.639 150.742Z" fill="#C6B08D"/>
<path d="M85.153 139.984C85.336 140.063 85.4014 140.115 85.4014 140.141C85.238 140.056 85.1072 139.984 85.153 139.984Z" fill="#C6B08D"/>
<path d="M80.9889 138.504C81.0804 138.537 81.1523 138.563 81.2373 138.589C81.1393 138.569 81.0412 138.543 80.9889 138.504Z" fill="#C6B08D"/>
<path d="M108.64 150.741L108.007 150.461C108 150.376 108.34 150.591 108.64 150.741Z" fill="#C6B08D"/>
<path d="M129.533 177.303C129.468 177.44 129.383 177.545 129.311 177.636C129.376 177.525 129.448 177.427 129.494 177.309C129.507 177.309 129.52 177.309 129.533 177.303Z" fill="#C6B08D"/>
<path d="M117.973 157.191L118.136 157.322C118.169 157.381 118.195 157.44 118.215 157.499C118.136 157.394 118.051 157.296 117.973 157.191Z" fill="#C6B08D"/>
<path d="M124.299 163.118C124.162 162.981 124.253 162.804 124.26 162.693C124.28 162.824 124.351 162.955 124.456 163.092C124.43 163.118 124.384 163.125 124.299 163.112V163.118Z" fill="#C6B08D"/>
<path d="M129.442 175.174L129.364 175.403C129.384 175.344 129.416 175.239 129.442 175.174Z" fill="#C6B08D"/>
<path d="M112.896 153.594C112.896 153.594 112.83 153.613 112.791 153.607C112.804 153.587 112.843 153.587 112.896 153.594Z" fill="#C6B08D"/>
<path d="M115.5 183.439C115.5 183.439 115.5 183.419 115.5 183.406C115.552 183.413 115.572 183.426 115.5 183.439Z" fill="#C6B08D"/>
<path d="M125.324 180.71L125.186 180.723C125.186 180.723 125.147 180.658 125.141 180.625L125.33 180.703L125.324 180.71Z" fill="#C6B08D"/>
<path d="M73.4161 135.682C73.4161 135.682 73.4358 135.682 73.4489 135.695C73.6393 135.793 73.5277 135.747 73.4161 135.682Z" fill="#C6B08D"/>
<path d="M5.17825 141.682C5.85058 141.154 3.86622 142.12 4.90409 141.382C4.83229 141.5 6.05946 141.108 5.17825 141.682Z" fill="#C6B08D"/>
<path d="M129.598 177.074C129.644 176.956 129.696 176.838 129.742 176.721C129.683 176.884 129.638 176.989 129.598 177.074Z" fill="#C6B08D"/>
<path d="M4.91037 141.381L5.02148 141.303C4.97573 141.335 4.9496 141.355 4.91692 141.381H4.91037Z" fill="#C6B08D"/>
<path d="M55.9614 129.35C56.0072 129.33 56.0856 129.33 56.1641 129.33C56.151 129.343 56.1052 129.356 55.9614 129.35Z" fill="#C6B08D"/>
<path d="M69.1279 133.621L68.7946 133.523C68.9253 133.556 69.0364 133.589 69.1279 133.621Z" fill="#C6B08D"/>
<path d="M49.1211 127.15C48.9384 127.117 48.8667 127.13 48.6319 127.039C48.6579 127.039 48.684 127.039 48.7101 127.039C48.7949 127.085 48.9058 127.124 49.1211 127.15Z" fill="#C6B08D"/>
<path d="M41.8488 125.525C41.888 125.518 41.9403 125.512 41.9861 125.512C42.058 125.525 42.1429 125.544 42.2148 125.557L41.8488 125.525Z" fill="#C6B08D"/>
<path d="M92.6926 182.876C92.8687 182.889 92.9861 182.876 93.0774 182.85C92.9209 182.928 93.945 183.378 92.6926 182.876Z" fill="#C6B08D"/>
<path d="M129.436 177.257C129.495 177.231 129.541 177.179 129.6 177.074C129.56 177.159 129.528 177.238 129.488 177.316C129.456 177.329 129.43 177.316 129.436 177.264V177.257Z" fill="#C6B08D"/>
<path d="M49.1865 125.676L48.0181 125.408C48.3445 125.473 48.7753 125.571 49.1865 125.676Z" fill="#C6B08D"/>
<path d="M42.874 162.941L43.1289 163.033C43.0243 163.007 42.9328 162.981 42.874 162.941Z" fill="#C6B08D"/>
<path d="M44.5527 124.574C44.3309 124.593 44.0961 124.58 43.8613 124.554C43.8156 124.528 43.7634 124.509 43.7308 124.482L44.5462 124.574H44.5527Z" fill="#C6B08D"/>
<path d="M100.786 185.278C99.5984 185.167 100.258 184.978 100.029 184.815C98.6584 184.547 99.3634 184.893 98.8673 184.939C98.0057 184.724 97.4117 184.345 96.785 184.188C96.7263 184.214 96.6022 184.195 96.7328 184.28C95.8973 183.869 94.1283 183.47 93.2341 182.85C93.1557 182.844 93.11 182.85 93.0839 182.85C93.2863 182.798 93.3581 182.694 93.3581 182.602C92.8816 182.419 92.5356 182.106 92.2941 182.178C92.5878 182.295 92.5878 182.361 92.7053 182.465L92.2353 182.197C91.7001 182.224 92.8816 182.55 92.8228 182.707C91.8698 182.25 90.8319 181.584 90.0813 181.303C89.8332 181.44 91.7654 182.139 90.7014 181.884L91.8763 182.302C90.8646 182.25 92.5813 182.576 91.6283 182.576C90.0878 181.982 89.9899 181.734 88.4886 181.101C88.2079 180.833 88.6779 180.99 88.3972 180.722C86.4128 179.528 86.5173 180.435 85.1204 179.443C84.7875 179.123 84.7614 178.79 83.606 178.412L83.8671 178.816C82.4376 178.163 83.2144 178.105 81.6543 177.55C81.8762 177.765 82.7313 178.15 82.5094 178.079C81.465 177.798 81.8893 177.628 81.1517 177.276L80.9036 177.406C79.4088 176.662 77.8031 175.742 76.1386 174.932C76.2038 175.037 76.4649 175.233 76.0406 175.109C73.9649 174.038 71.491 173.092 69.3695 172.328L68.6515 171.819C68.4688 171.74 68.2795 171.753 68.4622 171.871C67.6267 171.597 68.4622 171.74 68.1097 171.505C67.6528 171.297 67.4635 171.349 67.7311 171.525C66.3734 170.768 63.7885 169.521 62.1958 169.129L62.47 169.299C61.2559 168.921 61.2755 168.411 60.1136 168.17L60.3159 168.281C57.7114 167.387 54.8916 166.231 52.8028 165.866C52.509 165.468 50.1722 165.167 50.1134 164.756C48.5534 164.488 48.9711 164.665 46.804 164.182C46.2296 164.038 46.0207 163.712 45.3288 163.47L45.257 163.659L44.3562 163.189L43.7818 163.281L43.1356 163.046C43.4032 163.105 43.723 163.111 43.6969 163.046C42.6852 162.674 41.1381 162.484 41.0859 162.576L38.6773 161.74C38.7099 161.832 39.1146 161.975 39.4214 162.112C38.1681 161.558 39.1277 162.249 37.9788 161.74C38.1486 161.74 37.9266 161.603 37.907 161.551C37.2739 161.499 35.9162 161.12 34.924 160.794L35.0806 160.983C33.2529 160.494 31.262 159.828 29.2385 159.188C29.9892 159.351 29.8913 159.071 29.3038 158.862L29.0035 158.992C28.6576 158.751 29.6498 159.11 28.9056 158.712C28.1419 158.503 28.3247 158.783 28.7359 158.986L27.8351 158.627C27.7633 158.672 27.9657 158.77 27.9983 158.862C27.6589 158.627 26.3468 158.535 25.8769 158.137L25.8051 158.183C23.7815 157.524 22.9134 157.067 21.2815 156.466C21.3141 156.29 20.6679 156.068 20.2502 155.728C19.0491 155.298 17.6783 154.899 16.2945 154.201C15.3546 153.659 16.0726 153.927 15.6809 153.62C15.5308 153.744 14.1535 153.052 14.8193 153.516C14.0034 153.072 13.4877 152.778 12.9198 152.452C12.3584 152.119 11.7318 151.773 10.7788 151.081C11.0333 151.153 11.2879 151.283 11.19 151.153C10.8441 150.905 10.3349 150.702 10.3414 150.807L10.4263 150.879C8.29182 149.371 5.12598 147.811 3.74867 146.153L3.827 146.244C3.29175 145.748 2.83482 145.167 2.35831 144.619C1.62071 143.933 2.69775 145.134 2.09722 144.684C1.99931 144.56 1.92751 144.469 1.81001 144.331C1.65335 144.155 1.49669 143.992 1.34656 143.822C1.0463 143.509 0.759079 143.209 0.478394 142.922L0.269516 142.713L0.165085 142.608C0.165085 142.608 0.236877 142.563 0.269516 142.536C0.445755 142.445 0.615463 142.36 0.778656 142.275C1.11156 142.099 1.43793 141.929 1.75778 141.76C2.2147 141.518 2.66512 141.277 3.12204 141.035C3.50716 140.839 3.90532 140.65 4.34919 140.474C5.43929 139.364 9.02288 138.111 10.6548 136.923L10.6025 137.079C11.1117 136.949 11.1247 136.733 11.4511 136.538C11.4446 136.642 11.0007 136.884 11.314 136.799C15.2566 134.932 19.2449 132.536 23.181 130.402C24.6236 129.625 24.2776 130.513 25.9878 129.325L25.3677 129.403C26.8952 128.763 28.3965 127.993 29.8848 127.223C31.3796 126.466 32.8352 125.643 34.4344 125.095C34.2321 125.128 34.1994 125.069 33.8992 125.199C34.1929 124.984 34.7999 124.723 35.3613 124.566C35.9227 124.403 36.4253 124.357 36.4449 124.416C36.9671 124.279 36.5363 124.273 36.8496 124.135C37.5741 123.874 38.7164 124.077 39.0885 123.933C39.1538 123.907 38.8796 123.887 38.7426 123.881C39.2321 123.9 40.9554 123.92 40.4919 124.077C41.7713 124.09 42.8614 124.475 43.8405 124.56C44.428 124.88 45.9032 124.925 46.0338 125.245C46.0142 124.932 48.1748 125.493 48.8798 125.833C48.6513 125.682 49.5521 125.904 49.291 125.715C50.1461 125.93 50.9098 126.198 50.7205 126.303C51.5495 126.348 52.3132 126.629 52.9986 126.877C53.6775 127.138 54.278 127.36 54.7806 127.275C57.2349 128.182 59.5 129.018 61.6997 129.827C61.7193 129.514 59.2454 128.985 59.4412 128.718C61.5235 129.527 62.6528 130.186 64.7546 130.852C65.3029 131.009 64.4935 130.624 64.3303 130.506C66.38 131.368 68.3774 131.949 70.1724 132.804C70.1724 132.778 69.9897 132.673 69.8069 132.575C70.1659 132.726 70.6685 132.863 70.5771 132.967L70.2377 132.797C69.5915 132.758 71.5367 133.731 71.5628 133.855C71.0863 133.254 73.4166 134.468 72.6137 133.639C72.8422 133.757 73.1163 133.933 73.0315 133.998C73.397 134.116 73.5276 134.109 73.2077 133.874C74.4806 134.455 73.9649 134.403 75.1398 134.867C75.1594 134.801 74.931 134.684 74.8396 134.566C75.3879 134.919 75.9362 135.278 76.948 135.624C76.9023 135.565 77.0393 135.565 76.7391 135.448C78.4297 136.153 79.5067 136.936 81.4062 137.589C80.9689 137.099 82.072 137.765 82.2679 137.582L83.2405 138.065L82.7966 138.006C83.6713 138.365 84.3762 138.855 85.153 139.096L84.546 138.731L86.1648 139.455L85.2052 139.155C86.0408 139.638 84.9898 139.397 86.1778 139.821C85.9494 139.697 87.0525 140.187 87.5617 140.245C87.9598 140.493 88.3776 140.761 89.0434 140.976C89.2392 140.976 89.0108 140.67 89.1413 140.67C89.4873 141.035 91.1583 141.583 91.6152 142.014C91.4586 141.89 91.4977 141.766 91.563 141.773L91.8568 142.08C92.281 142.204 92.3528 142.204 92.3267 142.08C93.5539 142.569 91.8176 142.197 93.3124 142.693C93.2079 142.634 93.2667 142.634 93.0448 142.51C94.5134 143.072 95.7928 143.809 97.144 144.331C97.6336 144.279 96.0148 143.764 96.5435 143.77C98.4299 144.658 100.362 145.813 102.196 146.649L101.844 146.512C101.942 146.942 103.273 147.008 104.109 147.621C103.9 147.484 103.9 147.301 103.946 147.367C105.212 147.935 106.433 148.731 108.208 149.841L108.025 149.632C108.769 149.971 109.925 150.637 110.695 151.074C110.871 151.29 111.309 151.538 110.982 151.486C112.281 151.962 113.332 152.745 114.337 153.496C114.834 153.881 115.31 154.279 115.813 154.638C116.315 154.991 116.818 155.324 117.36 155.618C117.131 155.441 116.857 155.134 117.04 155.278L118.626 156.597C118.404 156.616 118.352 156.505 117.941 156.336C118.091 156.564 118.515 156.962 118.894 157.295C118.254 156.623 119.05 157.112 119.416 157.302C119.337 157.295 119.409 157.419 119.351 157.439C120.343 157.922 119.292 157.785 120.532 158.588V158.477C120.904 158.875 121.204 159.292 121.655 159.678C121.955 159.717 121.283 159.221 121.348 159.09C121.948 159.665 122.34 160.422 122.973 160.846C122.764 160.559 122.405 160.2 122.177 159.932C122.928 160.33 122.934 160.461 123.391 160.866L123.345 160.826L124.403 161.766L124.109 161.551C124.514 162.595 125.513 163.157 126.152 164.443C125.519 163.202 126.139 164.162 126.231 163.96C126.498 164.208 126.883 164.606 126.831 164.449C127.099 165.082 127.614 165.278 127.928 166.218C128.013 166.218 128.306 166.832 128.365 166.623C128.77 167.413 128.163 166.499 128.137 166.603C128.391 167.236 128.822 167.902 129.22 168.679C129.618 169.456 129.964 170.376 130.01 171.368C130.114 172.21 130.056 172.72 129.997 173.203C129.925 173.686 129.834 174.143 129.671 174.887C129.671 175.148 129.749 175.056 129.827 174.893C129.892 174.73 129.958 174.495 129.958 174.495C129.958 175.35 129.755 175.983 129.409 176.701C129.52 176.571 129.501 176.74 129.475 176.995C129.207 177.596 129.09 177.295 128.783 178.085C128.92 178 129.103 177.883 129.311 177.635C128.926 178.314 128.378 178.868 127.843 179.443C127.797 179.678 128.274 179.182 128.502 178.992C128.352 179.162 128.189 179.371 128.006 179.56C127.81 179.743 127.621 179.939 127.425 180.102C127.02 180.415 126.661 180.644 126.492 180.644C126.635 180.52 126.772 180.389 126.896 180.246C126.655 180.448 126.87 180.474 127.073 180.337C127.412 180.141 127.595 179.926 127.693 179.756C127.791 179.593 127.804 179.482 127.797 179.443L127.386 179.821C127.419 179.652 127.529 179.469 127.686 179.28C127.836 179.084 128.026 178.862 128.234 178.633C128.626 178.157 129.07 177.602 129.272 177.08C129.135 177.191 128.985 177.289 128.828 177.38C129.07 177.086 129.266 176.76 129.481 176.427C129.481 176.173 129.396 175.977 129.187 176.466C129.298 175.69 129.514 175.84 129.501 175.154C129.494 175.076 129.475 175.109 129.449 175.174C129.54 174.939 129.592 174.691 129.651 174.443C129.579 174.58 129.475 174.299 129.462 174.756C129.481 174.084 129.546 173.562 129.566 173.124C129.592 172.687 129.592 172.347 129.449 172.106V172.217C129.364 171.29 129.357 171.238 129.442 171.231C129.501 171.231 129.631 171.284 129.553 170.552C129.318 170.278 129.05 170.03 128.796 169.789L128.926 169.547C128.848 169.371 128.691 169.018 128.639 169.116C128.489 168.392 128.77 169.195 128.724 168.757C128.202 167.961 127.582 166.407 127.184 166.407C127.131 166.042 127.764 167.106 127.314 166.199C126.877 166.146 126.714 165.193 126.054 164.606C126.087 164.919 126.635 165.52 126.002 164.926C125.924 164.332 124.905 163.666 124.468 163.098C124.631 162.902 123.463 161.884 122.653 160.964C122.673 161.055 120.904 159.469 119.997 158.79V158.842C119.984 158.522 119.057 157.804 118.437 157.217C118.371 157.347 118.456 157.491 118.763 157.837L118.149 157.321C118.045 157.145 117.875 156.962 117.477 156.623L117.529 156.884C117.112 156.557 116.72 156.185 116.283 155.807C115.845 155.435 115.349 155.069 114.755 154.723C114.788 154.54 115.917 154.978 114.788 154.038C114.69 154.084 114.559 154.175 114.853 154.43C114.755 154.351 114.533 154.11 114.305 153.999L114.696 154.462C114.148 154.155 114.507 154.162 114.083 153.894C114.018 154.005 113.724 153.77 113.724 153.894C113.822 153.979 114.122 154.084 114.246 154.24C113.77 153.94 113.149 153.64 112.908 153.594C112.986 153.561 113.006 153.45 112.666 153.209C111.779 152.615 112.281 153.137 111.72 152.856C111.55 152.648 110.917 152.373 111.002 152.197C110.734 152.034 110.636 152.08 110.506 152.067C110.088 151.695 108.293 150.741 108.939 150.872L109.07 150.931C109.07 150.931 109.024 150.898 108.998 150.879C107.523 149.802 105.656 149.136 104.089 148.255L104.063 148.313C103.143 147.752 101.942 147.204 101.309 146.753C101.021 146.616 100.584 146.531 100.669 146.662C99.9508 146.264 99.8921 146.166 98.7694 145.761C99.4743 146.211 98.4691 145.735 99.5005 146.192C98.5083 145.8 98.2537 145.781 97.2746 145.154C97.5618 145.461 96.4586 145.017 96.0148 144.762L96.7458 144.958C96.2367 144.704 95.7732 144.514 95.3033 144.318L95.4665 144.625C93.3646 143.992 92.0265 142.647 90.3228 142.406C89.8463 142.04 91.4586 142.771 91.0539 142.406C90.1139 142.04 89.0303 141.923 88.7366 141.799C87.4181 141.375 87.6726 141.009 86.3084 140.526C86.5107 140.526 86.7523 140.402 85.7862 139.919C84.8462 139.553 84.5199 139.743 85.0812 140.043C85.3032 140.141 85.4206 140.167 85.4206 140.134C85.7079 140.284 86.093 140.48 85.6883 140.408L85.5969 140.284C85.1073 140.167 83.8279 139.619 84.0825 139.867C83.4102 139.508 83.8345 139.625 84.3697 139.801C83.136 139.403 82.5094 139.025 81.2496 138.587C81.4585 138.626 81.6739 138.62 81.478 138.542C79.6373 137.882 80.7404 138.072 79.5328 137.543C78.7952 137.367 79.6765 137.908 78.4819 137.308C77.6986 137.073 78.2469 137.432 78.5211 137.615C77.4571 137.014 76.3866 136.851 75.7404 136.623L76.3083 136.916C75.9688 136.74 75.6816 136.623 75.3814 136.505H75.7795C75.4205 136.381 75.1268 136.264 75.1137 136.329C74.7939 136.087 75.4858 136.198 74.8265 135.787C74.3304 135.676 73.4427 135.147 73.2077 135.278C74.696 135.787 72.9727 135.408 74.1934 135.924C73.9649 135.807 73.6712 135.696 73.3121 135.578C73.2534 135.578 73.3448 135.637 73.4362 135.683C71.974 135.304 72.8813 135.206 71.4257 134.651C71.5693 134.827 71.0079 134.73 70.7795 134.612C71.367 134.834 71.132 134.54 70.6228 134.253C69.6568 133.979 69.6372 133.803 69.1411 133.626L69.7155 133.803C69.5654 133.62 69.0954 133.457 68.4557 133.183C68.3708 133.248 69.0236 133.463 68.7821 133.411C68.1293 132.954 67.0719 132.993 66.1123 132.497C65.6162 132.399 65.9948 132.686 65.564 132.589C64.4805 132.04 64.2846 132.288 63.1293 131.753C63.5274 131.727 63.5731 131.786 62.7833 131.348C63.4295 131.609 64.0692 131.871 64.7089 132.145L63.5274 131.479C64.1214 131.681 64.7481 132.021 65.1071 132.119C64.5523 131.786 64.598 131.844 64.9243 131.825C64.0366 131.746 63.3577 131.12 62.3656 130.95L62.2676 131.322C60.799 130.989 59.8133 130.284 57.9399 129.775L58.5535 129.899C58.3577 129.664 57.4177 129.521 56.8368 129.273C56.8563 129.416 56.4647 129.338 56.184 129.338C56.2428 129.253 54.8263 128.927 54.7284 128.639L53.8472 128.561C52.3263 128.182 52.2283 127.719 50.7597 127.36C51.1644 127.615 50.479 127.523 51.4255 127.882C50.9424 127.752 50.4986 127.654 50.5116 127.569C50.2114 127.569 49.2061 127.047 48.7296 127.053C48.5403 126.949 48.5012 126.799 47.9529 126.668C47.8876 126.681 47.9398 126.733 47.9398 126.733C47.9528 126.668 47.1043 126.433 47.6134 126.414C46.0142 126.446 43.3836 125.376 42.0063 125.526C40.9489 125.304 39.6564 125.16 38.6903 125.219C38.7556 125.252 38.6903 125.278 38.8796 125.258C38.2204 125.35 38.018 125.291 37.7765 125.232C37.5415 125.18 37.2608 125.115 36.5297 125.376C35.8313 125.78 37.3391 125.278 36.8887 125.48C36.8365 125.709 36.3992 125.8 35.8639 125.95C35.3287 126.094 34.689 126.296 34.2647 126.629L34.4997 126.551C33.8469 126.994 32.685 127.243 31.5232 127.876C31.5232 127.876 31.595 127.876 31.5623 127.928C30.6615 128.15 29.108 128.861 27.9526 129.39C28.3769 129.357 28.5075 129.207 28.3704 129.468C27.8547 129.71 28.3965 129.149 27.3651 129.625C27.0779 129.873 26.386 130.317 26.373 130.526L27.3325 130.043C26.9474 130.5 26.0923 130.669 25.6092 130.963L25.7202 131.022C24.245 131.74 24.1079 131.525 22.5478 132.347L22.6719 132.197C21.6993 132.412 22.0191 132.693 21.0792 132.961L20.9355 133.32C20.3415 133.555 18.8402 134.116 17.8024 134.592C18.4616 134.468 19.6953 133.946 20.4852 133.672C19.9238 133.959 18.5726 134.632 18.2201 134.671C18.4551 134.579 18.7684 134.488 18.9773 134.338C18.194 134.508 17.2475 134.886 16.1313 135.467C16.5556 135.813 13.2723 137.073 12.6391 137.837C10.5764 138.685 8.74873 139.919 6.43147 141.074C7.07116 140.311 5.75262 141.407 5.71346 140.983C5.16515 141.237 4.96278 141.348 4.93015 141.394L3.41576 142.439C3.08286 142.739 3.96409 142.256 3.95756 142.36C3.37661 142.674 3.27216 142.778 3.22646 142.863C3.20036 142.902 3.18732 142.941 3.14162 143C3.14815 143.026 3.1612 143.052 3.18079 143.072C3.12856 143.019 3.08939 142.98 3.03065 142.98C2.99148 142.98 2.87399 143.006 2.94579 143.046C2.80218 143 2.84789 142.948 2.87399 142.85C2.78261 142.869 2.69774 142.895 2.63899 142.922C2.60635 142.935 2.58024 142.948 2.55413 142.961C2.51497 142.974 2.58026 142.993 2.59332 143.013C2.69122 143.085 2.79565 143.124 2.88051 143.15C2.97189 143.183 3.01759 143.163 3.09592 143.215C3.29828 143.385 3.52022 143.62 3.81395 143.972L3.49409 143.476C3.81394 143.816 4.38184 144.462 5.04764 145.017C5.68733 145.591 6.30745 146.192 6.56202 146.61C6.71868 146.681 6.95366 146.734 6.6534 146.446C7.53461 147.132 8.5268 147.889 9.44718 148.646C10.4067 149.351 11.3532 149.971 12.143 150.35L12.0451 150.174C12.3845 150.422 12.5804 150.715 13.096 150.872C13.096 150.826 12.9916 150.709 13.1678 150.794C13.3441 150.931 14.0686 151.473 14.5843 151.688L14.2188 151.368C14.7149 151.597 15.1391 151.832 15.5308 152.06C15.929 152.269 16.2815 152.478 16.6274 152.693C17.3128 153.111 17.9394 153.561 18.7815 153.953C18.8925 153.685 20.5308 154.266 21.3468 154.554L21.3337 154.501C23.7359 155.402 25.3286 156.264 27.5675 157.119C29.0688 157.295 32.4044 158.496 34.7477 158.979C34.3822 158.927 34.7477 159.214 35.1459 159.358C35.7007 159.456 36.5885 159.965 36.5689 159.691L36.3731 159.638C36.8496 159.501 37.9397 159.88 38.8078 160.115L38.86 160.487C41.2687 160.631 44.7674 162.295 46.1317 162.223C46.6539 162.465 47.3393 162.654 47.8549 162.896L47.8745 162.713C49.4085 163.105 50.1722 163.32 52.0325 163.927L51.6866 163.686C52.744 163.999 52.855 164.619 53.8211 164.932L54.1997 164.763C56.0208 165.376 57.953 165.787 59.6501 166.682C59.6371 166.636 59.6109 166.538 59.3172 166.421C60.1723 166.721 62.6658 167.478 62.2219 167.719C62.3329 167.491 64.0823 168.411 65.0027 168.901L64.9178 168.673C65.6489 169.208 65.6489 169.286 66.752 169.808C67.0262 169.9 67.0458 169.769 66.6672 169.665C67.5941 169.945 67.3003 170.109 68.4165 170.474L68.0575 170.2C68.9779 170.572 68.88 170.598 69.3304 170.938C69.8787 171.244 71.0797 171.643 71.2821 171.551C71.367 171.695 71.8108 172.034 72.3657 172.23C72.4636 172.204 72.2808 172.086 72.196 172.021C73.7691 172.582 74.3696 173.216 75.4793 173.522C75.525 173.477 75.6033 173.483 75.7012 173.503C74.5002 172.961 73.521 172.537 73.6059 172.596C73.6712 172.445 74.6633 172.85 73.978 172.295C74.709 172.759 75.9297 173.614 76.9088 173.973C76.961 173.973 77.0132 173.986 77.0589 173.973L76.9675 173.914C77.1895 173.999 77.3788 174.103 77.555 174.214C77.8683 174.325 78.0707 174.397 78.3579 174.528C78.5276 174.449 79.5002 174.978 79.9832 175.193C79.8657 175.344 80.5054 175.611 79.8527 175.468C79.9376 175.494 79.7678 175.402 79.4545 175.252C79.3827 175.213 79.2979 175.174 79.2587 175.141C79.2652 175.148 79.2783 175.161 79.2848 175.174C78.9715 175.024 78.5603 174.828 78.0903 174.606C78.4362 174.867 78.7952 175.122 79.3697 175.278C79.5655 175.5 79.7874 175.735 79.918 175.859C80.6882 175.931 82.0133 176.408 82.2548 176.349C83.6778 177.132 85.6752 178.053 86.4455 178.81C86.8436 179.051 86.9677 178.953 87.1439 178.979C86.922 178.836 86.6348 178.699 86.5238 178.594C87.3201 179.077 88.9651 179.808 89.063 180.115C90.1596 180.513 88.5669 179.639 89.9899 180.35L89.8267 180.194C91.3215 180.677 92.4116 181.323 93.5735 181.93C94.7354 182.53 95.9887 183.111 97.7119 183.288C97.4769 183.261 97.3594 183.242 97.3007 183.268C99.2198 183.666 101.198 183.993 103.208 183.999C105.219 184.006 107.229 183.751 109.115 183.255C110.192 183 110.343 183.124 111.028 183.118L111.23 182.883L112.412 182.896C114.063 182.765 115.127 181.904 117.236 181.838L116.994 182.015C117.725 181.858 119.337 181.662 119.187 181.538C119.266 181.551 119.455 181.63 119.729 181.512V181.408L121.576 181.251C122.967 180.918 121.283 180.885 123.326 180.494C124.096 180.396 125.545 180.389 125.271 180.513C124.964 180.572 124.501 180.722 124.494 180.827L125.199 180.755C125.382 181.029 125.969 181.238 124.298 181.76L123.078 181.793L122.719 182.008L123.724 181.832C123.182 182.073 122.797 182.015 122.379 182.008C122.301 182.1 122.138 182.184 121.909 182.256L120.689 182.184C120.571 182.328 121.257 182.321 120.48 182.53C119.905 182.498 120.956 182.171 120.036 182.25C119.494 182.491 119.677 182.57 118.992 182.576C118.913 182.667 119.063 182.694 119.331 182.68C118.717 182.7 117.751 182.929 117.412 182.824C116.851 183.098 115.395 183.15 115.506 183.418C115.304 183.385 114.416 183.385 113.867 183.477C114.925 183.634 111.824 183.869 112.157 184.188C111.367 184.019 109.461 184.554 108.097 184.58C108.175 184.593 108.332 184.619 108.443 184.58C107.699 184.724 107.49 184.841 107.014 184.965C106.883 184.73 105.702 184.808 105.049 184.698C104.135 185.011 105.636 184.952 105.369 185.213C105.401 185.017 103.717 185.115 104.031 184.919C103.319 185.096 103.417 185.017 103.045 185.233C102.921 184.913 102.366 185.181 101.772 184.952C100.715 185.043 101.478 185.239 100.336 185.037C99.7746 185.076 100.793 185.291 100.793 185.291L100.786 185.278ZM76.1647 174.867C76.367 174.972 76.5433 175.056 76.6542 175.109C76.5498 175.056 76.4127 174.991 76.1647 174.867ZM74.1346 173.947C74.3827 174.058 74.6894 174.195 75.0158 174.338C75.1137 174.312 75.0615 174.221 74.8592 174.129C74.9506 174.221 74.461 174.038 74.1346 173.947ZM78.9584 174.75C78.6516 174.573 78.5276 174.56 78.4689 174.573C78.619 174.652 78.7887 174.737 79.0172 174.854C79.0237 174.867 79.0368 174.88 79.0433 174.893C79.0302 174.848 79.0041 174.802 78.9584 174.75Z" fill="#C6B08D"/>
<path d="M79.4285 175.239C79.4743 175.265 79.4939 175.285 79.5527 175.311C79.4808 175.292 79.4155 175.278 79.3436 175.259C79.3109 175.22 79.2847 175.187 79.2521 175.154C79.3109 175.18 79.3697 175.213 79.422 175.239H79.4285Z" fill="#C6B08D"/>
<path d="M108.926 150.871L108.88 150.852C108.92 150.865 108.952 150.878 108.979 150.878C108.946 150.871 108.946 150.878 108.92 150.878L108.926 150.871Z" fill="#C6B08D"/>
<path d="M45.2375 163.698L45.2571 163.652L45.4336 163.744L45.2375 163.698Z" fill="#C6B08D"/>
<path d="M119.41 157.295C119.41 157.295 119.481 157.315 119.566 157.36C119.553 157.36 119.488 157.334 119.41 157.295Z" fill="#C6B08D"/>
<path d="M123.385 160.859L123.959 161.355C123.705 161.146 123.522 160.99 123.385 160.859Z" fill="#C6B08D"/>
<path d="M126.237 163.842C126.243 163.901 126.237 163.933 126.224 163.953L126.243 163.848L126.237 163.842Z" fill="#C6B08D"/>
<path d="M69.8271 132.575C69.7749 132.555 69.7291 132.536 69.6833 132.509C69.35 132.346 69.5788 132.444 69.8271 132.575Z" fill="#C6B08D"/>
<path d="M87.5616 140.238C87.3854 140.127 87.2093 140.022 87.0267 139.918C87.3463 140.035 87.5942 140.14 87.5616 140.238Z" fill="#C6B08D"/>
<path d="M49.3105 125.702C49.2646 125.695 49.2252 125.682 49.1792 125.676L49.3105 125.702Z" fill="#C6B08D"/>
<path d="M86.1979 139.572C86.5306 139.67 86.7915 139.788 87.0264 139.918C86.7589 139.82 86.4523 139.709 86.1979 139.572Z" fill="#C6B08D"/>
<path d="M127.294 180.428L127.144 180.572C127.144 180.572 127.124 180.558 127.104 180.572L127.294 180.434V180.428Z" fill="#C6B08D"/>
<path d="M127.099 180.566L126.909 180.704C126.988 180.632 127.059 180.573 127.099 180.566Z" fill="#C6B08D"/>
<path d="M126.485 180.952L126.91 180.703C126.773 180.801 126.603 180.932 126.485 180.952Z" fill="#C6B08D"/>
<path d="M130.062 175.519L130.141 175.467C130.141 175.467 130.095 175.519 130.062 175.519Z" fill="#C6B08D"/>
<path d="M130.311 173.803C130.317 174.012 130.337 174.273 130.324 174.56C130.324 174.847 130.298 175.154 130.206 175.428L130.141 175.467C130.311 175.219 130.219 174.181 130.311 173.803Z" fill="#C6B08D"/>
<path d="M127.725 167.42C127.96 167.805 128.189 168.197 128.385 168.601C128.222 168.419 128.006 168.184 128.248 168.738C127.314 167.315 128.574 168.973 127.725 167.42Z" fill="#C6B08D"/>
<path d="M125.232 164.051C125.676 164.632 125.147 164.11 125.141 164.169C124.893 163.778 124.834 163.68 125.232 164.051Z" fill="#C6B08D"/>
<path d="M100.35 146.59V146.773C99.8402 146.511 100.37 146.708 100.35 146.59Z" fill="#C6B08D"/>
<path d="M95.3436 143.371L95.8916 143.502L96.0742 143.749L95.3436 143.371Z" fill="#C6B08D"/>
<path d="M91.6747 143.09L91.8965 143.208L91.0485 142.777L91.6747 143.09Z" fill="#C6B08D"/>
<path d="M43.115 125.918L43.3242 125.748C43.6903 125.859 43.723 126.101 43.115 125.918Z" fill="#C6B08D"/>
<path d="M22.7637 132.348C22.594 132.55 22.0652 132.896 21.6736 132.981C22.1109 132.739 22.5222 132.439 22.7637 132.348Z" fill="#C6B08D"/>
<path d="M39.9709 160.526L39.56 160.344L40.3623 160.624L39.9709 160.526Z" fill="#C6B08D"/>
<path d="M24.7336 31.0636L6.78954 57.526L24.0809 64.7389L29.5574 67.0366L121.556 105.457L122.196 105.725L123.096 103.571L122.966 74.6999L123.958 72.3239L25.8237 31.3116L25.5038 30.6523L24.7728 31.0048L24.7336 31.0636Z" fill="#858561"/>
<path d="M23.2131 127.645V139.342L23.4807 139.779L36.7511 145.321L36.96 144.818V133.402L23.2131 127.645Z" fill="#E0CDAF"/>
<path d="M23.2131 118.475V127.646L36.96 133.403V123.99L23.7875 118.475H23.2131Z" fill="#E0CDAF"/>
<path d="M23.2131 108.684V118.475H23.7875L36.96 123.991V114.199L23.7875 108.684H23.2131Z" fill="#E0CDAF"/>
<path d="M36.9604 114.198L38.9186 115.013V112.089L39.1602 111.515L28.6705 107.096L23.9968 105.131H23.2135V108.682H23.7879L36.9604 114.198Z" fill="#E0CDAF"/>
<path d="M23.2133 64.9491V105.132H23.9966L28.6703 107.097L28.6768 107.084V67.286L28.7812 67.0379L23.3047 64.7402L23.2133 64.9491Z" fill="#E0CDAF"/>
<path d="M27.8225 29.1583L25.3551 30.3463L25.5052 30.6531L26.1319 30.3463L26.6019 31.3124L30.4531 32.9181L30.6554 32.4351L32.5027 31.5017L88.8545 3.0157L89.083 2.46086L86.4198 1.35119L86.6156 0.828991L84.4289 0L84.1743 0.672332L27.8225 29.1583Z" fill="#858561"/>
<path d="M25.5043 30.6544L25.8242 31.3137L123.959 72.326L126.72 73.4813L127.385 73.7555L127.503 73.4813L121.498 70.9682L113.077 67.4564V67.4499L104.663 63.9381L95.2963 60.0216L85.9424 56.1117L77.9136 52.7565L70.1589 49.5189L63.7359 46.8296L56.9212 43.9836L50.4981 41.3008L43.0176 38.1741L35.9288 35.2106L30.4522 32.926V32.9195L26.601 31.3137L26.131 30.3477L25.5043 30.6544Z" fill="#858561"/>
<path d="M28.6765 107.083L28.67 107.096L39.1596 111.515L54.7995 118.102L67.2735 123.35V83.6953L67.4824 83.1992L28.7809 67.0371L28.6765 67.2852V107.083Z" fill="#D3B25B"/>
<path d="M30.4517 32.9182V32.9247L35.9283 35.2094L36.1111 34.7785L37.9649 33.8451L94.3167 5.35262L94.5713 4.73903L89.0817 2.46094L88.8532 3.01577L32.5014 31.5017L30.6541 32.4352L30.4517 32.9182Z" fill="#858561"/>
<path d="M36.1114 34.7778L35.9286 35.2086L43.0175 38.1721L43.135 37.8979L44.9888 36.9645L101.341 8.47201L101.667 7.68218L94.5716 4.73828L94.317 5.35187L37.9652 33.8444L36.1114 34.7778Z" fill="#858561"/>
<path d="M38.9182 134.218L36.96 133.402V144.819L36.7511 145.322L52.4106 151.869L52.626 151.346V139.956L38.9182 134.218Z" fill="#E0CDAF"/>
<path d="M36.9607 123.99V133.403L38.9189 134.219V124.806L36.9607 123.99Z" fill="#E0CDAF"/>
<path d="M36.9607 114.197V123.989L38.9189 124.804V115.013L36.9607 114.197Z" fill="#E0CDAF"/>
<path d="M38.9182 124.805V134.217L52.626 139.955V130.542L38.9182 124.805Z" fill="#E0CDAF"/>
<path d="M38.9182 115.014V124.805L52.626 130.543V120.751L38.9182 115.014Z" fill="#E0CDAF"/>
<path d="M52.6261 120.752L54.5844 121.574V118.618L54.7998 118.102L39.1599 111.516L38.9184 112.09V115.014L52.6261 120.752Z" fill="#E0CDAF"/>
<path d="M43.1359 37.8994L43.0184 38.1735L50.4989 41.3002L50.9428 40.2427L52.7901 39.3028L109.142 10.8168L109.148 10.7972L101.668 7.68359L101.342 8.47342L44.9897 36.9659L43.1359 37.8994Z" fill="#858561"/>
<path d="M50.9419 40.2424L50.498 41.2998L56.9211 43.9826L57.1822 43.3625L59.0295 42.4291L115.381 13.9366L115.577 13.4666L109.148 10.7969L109.141 10.8165L52.7892 39.3024L50.9419 40.2424Z" fill="#858561"/>
<path d="M54.585 140.778L52.6267 139.955V151.346L52.4114 151.868L69.9703 159.205L70.251 158.526V147.331L54.585 140.778Z" fill="#E0CDAF"/>
<path d="M52.6267 130.543V139.956L54.585 140.778V131.365L52.6267 130.543Z" fill="#E0CDAF"/>
<path d="M52.6267 120.752V130.543L54.585 131.366V121.574L52.6267 120.752Z" fill="#E0CDAF"/>
<path d="M54.585 131.367V140.78L70.251 147.333V137.921L54.585 131.367Z" fill="#E0CDAF"/>
<path d="M54.585 121.574V131.365L70.251 137.919V128.128L54.585 121.574Z" fill="#E0CDAF"/>
<path d="M67.2745 123.35L54.8005 118.102L54.5851 118.617V121.574L70.251 128.128L72.2093 128.95V125.797L72.3398 125.484L67.2745 123.35Z" fill="#E0CDAF"/>
<path d="M57.1826 43.3627L56.9215 43.9828L63.7362 46.8288L64.2062 45.7061L66.0535 44.7661L122.386 16.2932L115.578 13.4668L115.382 13.9368L59.0299 42.4293L57.1826 43.3627Z" fill="#858561"/>
<path d="M64.206 45.7058L63.736 46.8286L70.159 49.5179L70.4462 48.826L72.2935 47.886L128.652 19.4001L128.828 18.9692L122.385 16.293L66.0532 44.7659L64.206 45.7058Z" fill="#858561"/>
<path d="M67.2741 83.6953V123.35L72.3394 125.484L75.7598 126.927V86.9591L75.8643 86.7045L67.483 83.1992L67.2741 83.6953Z" fill="#E0CDAF"/>
<path d="M72.2084 148.154L70.2502 147.332V158.527L69.9695 159.206L86.9736 166.307L87.2217 165.707V154.44L72.2084 148.154Z" fill="#E0CDAF"/>
<path d="M70.4458 48.8255L70.1586 49.5174L77.9132 52.755L78.2527 51.9456L80.1 51.0122L136.452 22.5197L136.589 22.1933L128.828 18.9688L128.651 19.3996L72.2931 47.8855L70.4458 48.8255Z" fill="#858561"/>
<path d="M70.2507 137.918V147.331L72.209 148.153V138.74L70.2507 137.918Z" fill="#E0CDAF"/>
<path d="M70.2507 128.127V137.918L72.209 138.741V128.949L70.2507 128.127Z" fill="#E0CDAF"/>
<path d="M72.2084 138.74V148.153L87.2217 154.439V145.026L72.2084 138.74Z" fill="#E0CDAF"/>
<path d="M72.2084 128.949V138.74L87.2217 145.026V135.235L72.2084 128.949Z" fill="#E0CDAF"/>
<path d="M75.7591 126.927L72.3387 125.484L72.2082 125.798V128.95L87.2214 135.236L89.1796 136.052V132.978L89.3232 132.639L75.7591 126.927Z" fill="#E0CDAF"/>
<path d="M76.0863 87.2858V127.254L89.6505 132.965L107.98 140.681L121.08 146.196V105.85L121.106 105.785L76.1908 87.0312L76.0863 87.2858Z" fill="#D3B25B"/>
<path d="M78.2525 51.9457L77.9131 52.7551L85.9419 56.1102L86.0528 55.8491L87.9001 54.9091L144.252 26.4232L144.624 25.5289L136.589 22.1934L136.452 22.5197L80.0998 51.0122L78.2525 51.9457Z" fill="#858561"/>
<path d="M86.0534 55.8495L85.9424 56.1106L95.2963 60.0206L95.4138 59.7464L97.2676 58.813L153.619 30.327L153.998 29.4197L144.625 25.5293L144.253 26.4236L87.9007 54.9095L86.0534 55.8495Z" fill="#858561"/>
<path d="M89.1803 155.257L87.222 154.441V165.708L86.974 166.308L105.316 173.972L105.499 173.541V162.092L89.1803 155.257Z" fill="#E0CDAF"/>
<path d="M87.2224 145.027V154.44L89.1807 155.256V145.843L87.2224 145.027Z" fill="#E0CDAF"/>
<path d="M87.2224 135.236V145.028L89.1807 145.844V136.052L87.2224 135.236Z" fill="#E0CDAF"/>
<path d="M89.1803 145.844V155.256L105.499 162.091V152.678L89.1803 145.844Z" fill="#E0CDAF"/>
<path d="M89.1803 136.053V145.844L105.499 152.678V142.887L89.1803 136.053Z" fill="#E0CDAF"/>
<path d="M105.498 142.887L107.457 143.703V140.811L107.652 140.354L89.3231 132.639L89.1795 132.978V136.053L105.498 142.887Z" fill="#E0CDAF"/>
<path d="M95.4147 59.7447L95.2972 60.0188L104.664 63.9353L104.782 63.6481L106.629 62.7147L162.981 34.2222L163.359 33.3084L153.999 29.418L153.62 30.3253L97.2685 58.8113L95.4147 59.7447Z" fill="#858561"/>
<path d="M104.78 63.6484L104.663 63.9356L113.077 67.4474L113.364 66.7685L115.211 65.8351L171.563 37.3426L171.785 36.8073L163.358 33.3086L162.98 34.2224L106.628 62.7149L104.78 63.6484Z" fill="#858561"/>
<path d="M107.457 162.906L105.499 162.09V173.539L105.316 173.97L125.434 182.377L127.777 182.606V170.928H126.622L107.457 162.906Z" fill="#E0CDAF"/>
<path d="M105.499 152.678V162.09L107.457 162.906V153.494L105.499 152.678Z" fill="#E0CDAF"/>
<path d="M105.499 142.887V152.678L107.457 153.494V143.703L105.499 142.887Z" fill="#E0CDAF"/>
<path d="M107.457 153.494V162.907L126.622 170.929H127.777V170.244V161.791H127.275L107.457 153.494Z" fill="#E0CDAF"/>
<path d="M107.457 143.703V153.494L127.275 161.791H127.777V161.105V152H127.275L107.457 143.703Z" fill="#E0CDAF"/>
<path d="M120.754 145.869L107.653 140.354L107.457 140.81V143.702L127.275 151.999H127.777V151.966V148.826L127.438 148.689L120.754 145.869Z" fill="#E0CDAF"/>
<path d="M113.078 67.4486V67.4552L121.498 70.967L121.949 69.8899L123.796 68.9565L180.148 40.4705L180.213 40.3139L171.786 36.8086L171.564 37.3438L115.212 65.8364L113.365 66.7698L113.078 67.4486Z" fill="#858561"/>
<path d="M120.753 105.524V145.871L127.438 148.691L127.777 148.514V109.421L128.143 108.533L120.78 105.459L120.753 105.524Z" fill="#E0CDAF"/>
<path d="M121.949 69.8905L121.498 70.9676L127.503 73.4806L127.386 73.7548L127.778 73.918L186.297 44.2701L186.806 43.0495L180.213 40.3145L180.148 40.4711L123.796 68.9571L121.949 69.8905Z" fill="#858561"/>
<path d="M123.097 103.571L122.196 105.725L128.926 108.532L129.918 108.95L130.864 108.819L127.561 84.5567L126.021 74.5566L126.452 74.1258L126.719 73.4796L123.958 72.3242L122.966 74.7002L123.097 103.571Z" fill="#858561"/>
<path d="M126.021 74.5578L127.562 84.5579L126.217 74.7014L126.452 74.127L126.021 74.5578Z" fill="#858561"/>
<path d="M126.452 74.1262L126.217 74.7007L127.561 84.5572L131.243 108.5L131.589 108.383L126.994 74.7007L127.32 73.9108L126.674 73.9043L126.452 74.1262Z" fill="#858561"/>
<path d="M126.72 73.4805L126.452 74.1267L126.674 73.9048L127.32 73.9113L127.386 73.7546L126.72 73.4805Z" fill="#858561"/>
<path d="M127.32 73.9108L126.994 74.7006L131.589 108.382L133.215 107.821L179.906 83.3822L185.48 80.4709L198 73.9173L189.325 45.9993V45.9927L188.202 43.336L187.856 43.4862L186.805 43.0488L186.296 44.2695L127.777 73.9173L127.32 73.9108Z" fill="#858561"/>
<path d="M131.243 108.499L127.561 84.5566L130.864 108.819L130.877 108.93L131.184 108.885L131.628 108.656L131.589 108.382L131.243 108.499Z" fill="#858561"/>
<path d="M127.777 170.928V182.606L128.149 182.645L128.188 182.253L138.306 177.136L138.136 176.803V165.145L133.893 167.292L128.43 170.053L128.09 170.229L128.064 170.243H127.777V170.928Z" fill="#E0CDAF"/>
<path d="M127.778 161.791V170.244H128.065L128.091 170.231L128.43 170.055L133.894 167.294L138.137 165.146V156.008L133.894 158.155L128.43 160.916L128.091 161.093L128.065 161.106H127.778V161.791Z" fill="#E0CDAF"/>
<path d="M127.778 152V161.106H128.065L128.091 161.093L128.43 160.916L133.894 158.155L138.137 156.008V146.869L133.894 149.017L128.43 151.778L128.091 151.954L128.065 151.967H127.778V152Z" fill="#E0CDAF"/>
<path d="M140.094 145.884L149.886 140.936L151.844 139.944L162.288 134.663L164.246 133.678V130.792L163.959 130.225L133.241 145.754L127.777 148.515V148.828V151.968H128.064L128.09 151.955L128.43 151.778L133.893 149.017L138.136 146.87L140.094 145.884Z" fill="#E0CDAF"/>
<path d="M127.778 109.42V148.513L133.241 145.752V107.859L133.215 107.82L131.629 108.656L131.649 108.819L131.185 108.884L130.898 109.034L130.878 108.93L130.115 109.034L129.919 108.95L129.338 109.034L128.143 108.532L127.778 109.42Z" fill="#E0CDAF"/>
<path d="M129.918 108.951L130.114 109.036L130.878 108.931L130.865 108.82L129.918 108.951Z" fill="#FFFFC9"/>
<path d="M130.877 108.931L130.897 109.035L131.185 108.885L130.877 108.931Z" fill="#858561"/>
<path d="M131.184 108.885L131.648 108.82L131.629 108.656L131.184 108.885Z" fill="#FFFFC9"/>
<path d="M131.589 108.382L131.628 108.656L133.214 107.82L131.589 108.382Z" fill="#858561"/>
<path d="M132.888 108.148L132.914 108.187V146.079L163.633 130.55L179.958 122.3L179.73 121.843V84.0027L179.579 83.709L132.888 108.148Z" fill="#D3B25B"/>
<path d="M140.094 164.161L138.136 165.146V176.804L138.306 177.137L150.029 171.21L149.886 170.93V159.213L140.094 164.161Z" fill="#E0CDAF"/>
<path d="M138.136 156.007V165.146L140.095 164.16V155.021L138.136 156.007Z" fill="#E0CDAF"/>
<path d="M138.136 146.868V156.007L140.095 155.021V145.883L138.136 146.868Z" fill="#E0CDAF"/>
<path d="M140.095 155.022V164.161L149.886 159.213V150.074L140.095 155.022Z" fill="#E0CDAF"/>
<path d="M140.095 145.881V155.02L149.886 150.072V140.934L140.095 145.881Z" fill="#E0CDAF"/>
<path d="M151.844 158.22L149.886 159.212V170.929L150.029 171.21L162.536 164.891L162.288 164.402V152.939L151.844 158.22Z" fill="#E0CDAF"/>
<path d="M149.886 150.074V159.213L151.844 158.221V149.082L149.886 150.074Z" fill="#E0CDAF"/>
<path d="M149.886 140.936V150.074L151.844 149.082V139.943L149.886 140.936Z" fill="#E0CDAF"/>
<path d="M151.844 149.082V158.22L162.288 152.939V143.801L151.844 149.082Z" fill="#E0CDAF"/>
<path d="M151.844 139.943V149.081L162.288 143.801V134.662L151.844 139.943Z" fill="#E0CDAF"/>
<path d="M164.247 151.954L162.288 152.94V164.402L162.536 164.892L174.26 158.965L174.038 158.528V147L164.247 151.954Z" fill="#E0CDAF"/>
<path d="M162.288 143.8V152.939L164.246 151.953V142.814L162.288 143.8Z" fill="#E0CDAF"/>
<path d="M162.288 134.661V143.8L164.246 142.814V133.676L162.288 134.661Z" fill="#E0CDAF"/>
<path d="M174.038 128.721L175.997 127.736L180.938 125.236L186.029 122.657L185.99 119.27L185.612 119.276L180.285 121.972L163.96 130.223L164.247 130.791V133.676L174.038 128.721Z" fill="#E0CDAF"/>
<path d="M164.247 142.816V151.954L174.038 147V137.861L164.247 142.816Z" fill="#E0CDAF"/>
<path d="M164.247 133.677V142.816L174.038 137.861V128.723L164.247 133.677Z" fill="#E0CDAF"/>
<path d="M175.996 146.014L174.038 146.999V158.527L174.26 158.964L186.395 152.828L186.251 140.824L180.938 143.514L175.996 146.014Z" fill="#E0CDAF"/>
<path d="M174.038 137.861V146.999L175.996 146.013V136.875L174.038 137.861Z" fill="#E0CDAF"/>
<path d="M174.038 128.722V137.86L175.996 136.875V127.736L174.038 128.722Z" fill="#E0CDAF"/>
<path d="M175.995 136.875V146.013L180.937 143.513L186.25 140.824L186.139 131.744L180.937 134.375L175.995 136.875Z" fill="#E0CDAF"/>
<path d="M175.996 127.737V136.875L180.937 134.375L186.14 131.744L186.029 122.658L180.937 125.237L175.996 127.737Z" fill="#E0CDAF"/>
<path d="M179.906 83.382L180.056 83.6757V121.516L180.284 121.972L185.611 119.277L185.989 119.27L185.519 80.549L185.48 80.4707L179.906 83.382Z" fill="#E0CDAF"/>
<path d="M126.452 74.125L126.217 74.699" stroke="#603813" stroke-linecap="round" stroke-linejoin="round"/>
<path d="M127.777 73.9167L127.32 73.9102" stroke="#603813" stroke-linecap="round" stroke-linejoin="round"/>
<path d="M186.806 43.0488L186.297 44.2695" stroke="#603813" stroke-linecap="round" stroke-linejoin="round"/>
<path d="M187.856 43.4865L186.806 43.0492L180.213 40.3142L171.786 36.8089L163.359 33.3102L153.998 29.4198L144.625 25.5294L136.59 22.1938L128.828 18.9693L122.386 16.293L115.578 13.4666L109.148 10.7968L101.667 7.68323L94.5721 4.73933L89.0824 2.46124L86.4192 1.35156" stroke="#603813" stroke-linecap="round" stroke-linejoin="round"/>
<path d="M25.8245 31.3125L123.959 72.3247L126.72 73.4801L127.386 73.7542L127.777 73.9174" stroke="#603813" stroke-linecap="round" stroke-linejoin="round"/>
<path d="M127.777 109.42V148.513V148.826V151.966V151.999V161.105V161.79V170.243V170.928V182.606V182.769" stroke="#603813" stroke-linecap="round" stroke-linejoin="round"/>
<path d="M186.296 44.2676L127.777 73.9154" stroke="#603813" stroke-linecap="round" stroke-linejoin="round"/>
<path d="M84.1738 0.671875L27.822 29.1579L25.9682 30.0978" stroke="#603813" stroke-linecap="round" stroke-linejoin="round"/>
<path d="M88.8535 3.01367L32.5017 31.4996L30.6544 32.4331" stroke="#603813" stroke-linecap="round" stroke-linejoin="round"/>
<path d="M94.3174 5.35156L37.9655 33.8441L36.1117 34.7775" stroke="#603813" stroke-linecap="round" stroke-linejoin="round"/>
<path d="M101.341 8.47266L44.989 36.9652L43.1352 37.8986" stroke="#603813" stroke-linecap="round" stroke-linejoin="round"/>
<path d="M109.142 10.8164L52.7898 39.3024L50.9425 40.2423" stroke="#603813" stroke-linecap="round" stroke-linejoin="round"/>
<path d="M115.382 13.9355L59.03 42.4281L57.1827 43.3615" stroke="#603813" stroke-linecap="round" stroke-linejoin="round"/>
<path d="M122.405 16.2793L122.386 16.2924L66.0534 44.7653L64.2062 45.7052" stroke="#603813" stroke-linecap="round" stroke-linejoin="round"/>
<path d="M128.651 19.3984L72.293 47.8844L70.4457 48.8244" stroke="#603813" stroke-linecap="round" stroke-linejoin="round"/>
<path d="M136.452 22.5195L80.1003 51.012L78.253 51.9455" stroke="#603813" stroke-linecap="round" stroke-linejoin="round"/>
<path d="M144.253 26.4238L87.9011 54.9098L86.0538 55.8498" stroke="#603813" stroke-linecap="round" stroke-linejoin="round"/>
<path d="M153.62 30.3262L97.2683 58.8121L95.4145 59.7456" stroke="#603813" stroke-linecap="round" stroke-linejoin="round"/>
<path d="M162.979 34.2227L106.628 62.7152L104.78 63.6486" stroke="#603813" stroke-linecap="round" stroke-linejoin="round"/>
<path d="M171.563 37.3438L115.212 65.8363L113.364 66.7697" stroke="#603813" stroke-linecap="round" stroke-linejoin="round"/>
<path d="M180.147 40.4707L123.796 68.9567L121.948 69.8901" stroke="#603813" stroke-linecap="round" stroke-linejoin="round"/>
<path d="M189.325 45.998L198 73.9161L185.48 80.4697L179.906 83.381L133.215 107.82L131.628 108.655L131.185 108.884L130.897 109.034L130.878 108.93L130.865 108.819L127.562 84.5559L126.217 74.6994" stroke="#603813" stroke-linecap="round" stroke-linejoin="round"/>
<path d="M188.81 44.3477L189.325 45.9926" stroke="#603813" stroke-linecap="round" stroke-linejoin="round"/>
<path d="M23.4807 139.779L36.7511 145.321L52.4105 151.868L69.9695 159.205L86.9736 166.307L105.316 173.97L125.434 182.378" stroke="#603813" stroke-linecap="round" stroke-linejoin="round"/>
<path d="M23.9967 105.131L28.6704 107.096L39.1601 111.515L54.8 118.101L67.274 123.349L72.3394 125.484L75.7598 126.926L89.3239 132.638L107.653 140.353L120.754 145.869L127.438 148.689L127.777 148.826" stroke="#603813" stroke-linecap="round" stroke-linejoin="round"/>
<path d="M185.61 119.275L180.284 121.971L163.959 130.222L133.24 145.751L127.777 148.512L127.437 148.688L127.411 148.701" stroke="#603813" stroke-linecap="round" stroke-linejoin="round"/>
<path d="M186.264 122.541L186.029 122.659L180.937 125.237L175.996 127.737L174.038 128.723L164.246 133.677L162.288 134.663L151.844 139.943L149.886 140.935L140.095 145.883L138.136 146.869L133.894 149.017L128.43 151.778L128.091 151.954L128.065 151.967" stroke="#603813" stroke-linecap="round" stroke-linejoin="round"/>
<path d="M186.264 131.68L186.14 131.745L180.937 134.376L175.996 136.876L174.038 137.861L164.246 142.816L162.288 143.801L151.844 149.082L149.886 150.074L140.095 155.022L138.136 156.008L133.894 158.155L128.43 160.916L128.091 161.093L128.065 161.106" stroke="#603813" stroke-linecap="round" stroke-linejoin="round"/>
<path d="M186.264 140.816L186.251 140.823L180.937 143.512L175.996 146.012L174.038 146.998L164.246 151.952L162.288 152.938L151.844 158.219L149.886 159.211L140.095 164.159L138.136 165.144L133.894 167.292L128.43 170.053L128.091 170.229L128.065 170.242" stroke="#603813" stroke-linecap="round" stroke-linejoin="round"/>
<path d="M24.7339 31.0645L6.78979 57.5269L6.75063 57.5857L23.3043 64.7398L28.7809 67.0375L67.4824 83.1995L75.8637 86.7048L120.779 105.458L128.142 108.533L129.337 109.035" stroke="#603813" stroke-linecap="round" stroke-linejoin="round"/>
<path d="M185.52 80.5488L185.99 119.27L186.029 122.658L186.14 131.744L186.251 140.824L186.395 152.828L174.26 158.964L162.537 164.891L150.03 171.209L138.306 177.136L128.189 182.254" stroke="#603813" stroke-linecap="round" stroke-linejoin="round"/>
<path d="M23.2139 64.9492V105.132V108.683V118.475V127.646V139.343" stroke="#603813" stroke-linecap="round" stroke-linejoin="round"/>
<path d="M28.6768 67.2852V107.083" stroke="#603813" stroke-linecap="round" stroke-linejoin="round"/>
<path d="M120.754 105.523V145.87V146.49" stroke="#603813" stroke-linecap="round" stroke-linejoin="round"/>
<path d="M133.241 107.859V145.751V146.489" stroke="#603813" stroke-linecap="round" stroke-linejoin="round"/>
<path d="M180.056 83.6758V121.516" stroke="#603813" stroke-linecap="round" stroke-linejoin="round"/>
<path d="M23.7876 108.682L36.96 114.197L38.9183 115.013L52.626 120.751L54.5843 121.573L70.2502 128.127L72.2085 128.95L87.2217 135.235L89.18 136.051L105.499 142.886L107.457 143.702L127.274 151.998" stroke="#603813" stroke-linecap="round" stroke-linejoin="round"/>
<path d="M23.7876 118.475L36.96 123.99L38.9183 124.806L52.626 130.544L54.5843 131.366L70.2502 137.92L72.2085 138.742L87.2217 145.028L89.18 145.844L105.499 152.679L107.457 153.495L127.274 161.791" stroke="#603813" stroke-linecap="round" stroke-linejoin="round"/>
<path d="M23.1342 127.613L23.2126 127.646L36.9595 133.403L38.9177 134.219L52.6254 139.957L54.5837 140.779L70.2497 147.333L72.2079 148.155L87.2211 154.441L89.1794 155.257L105.498 162.091L107.456 162.907L126.621 170.93" stroke="#603813" stroke-linecap="round" stroke-linejoin="round"/>
<path d="M67.2744 83.6953V123.35V124.055" stroke="#603813" stroke-linecap="round" stroke-linejoin="round"/>
<path d="M75.7598 86.959V126.927V127.318" stroke="#603813" stroke-linecap="round" stroke-linejoin="round"/>
<path d="M175.996 124.916V127.736V136.874V146.013V157.221" stroke="#603813" stroke-linecap="round" stroke-linejoin="round"/>
<path d="M174.038 126.221V128.721V137.859V146.998V158.525" stroke="#603813" stroke-linecap="round" stroke-linejoin="round"/>
<path d="M164.246 130.791V133.676V142.815V151.953V163.096" stroke="#603813" stroke-linecap="round" stroke-linejoin="round"/>
<path d="M162.288 132.096V134.661V143.8V152.938V164.4" stroke="#603813" stroke-linecap="round" stroke-linejoin="round"/>
<path d="M151.844 137.318V139.942V149.081V158.219V169.623" stroke="#603813" stroke-linecap="round" stroke-linejoin="round"/>
<path d="M149.886 138.625V140.936V150.074V159.213V170.93" stroke="#603813" stroke-linecap="round" stroke-linejoin="round"/>
<path d="M140.095 143.193V145.883V155.021V164.16V175.498" stroke="#603813" stroke-linecap="round" stroke-linejoin="round"/>
<path d="M107.457 140.811V143.702V153.493V162.906V174.192" stroke="#603813" stroke-linecap="round" stroke-linejoin="round"/>
<path d="M105.499 140.158V142.887V152.678V162.091V173.54" stroke="#603813" stroke-linecap="round" stroke-linejoin="round"/>
<path d="M89.1807 132.977V136.051V145.842V155.255V166.358" stroke="#603813" stroke-linecap="round" stroke-linejoin="round"/>
<path d="M87.2217 132.324V135.235V145.027V154.439V165.706" stroke="#603813" stroke-linecap="round" stroke-linejoin="round"/>
<path d="M72.209 125.797V128.95V138.741V148.154V159.178" stroke="#603813" stroke-linecap="round" stroke-linejoin="round"/>
<path d="M70.251 125.145V128.128V137.919V147.331V158.526" stroke="#603813" stroke-linecap="round" stroke-linejoin="round"/>
<path d="M54.585 118.617V121.574V131.365V140.778V151.999" stroke="#603813" stroke-linecap="round" stroke-linejoin="round"/>
<path d="M52.626 117.963V120.75V130.541V139.954V151.344" stroke="#603813" stroke-linecap="round" stroke-linejoin="round"/>
<path d="M38.9189 112.09V115.014V124.805V134.218V145.471" stroke="#603813" stroke-linecap="round" stroke-linejoin="round"/>
<path d="M36.96 111.438V114.199V123.99V133.403V144.819" stroke="#603813" stroke-linecap="round" stroke-linejoin="round"/>
<path d="M138.137 144.5V146.869V156.008V165.146V176.805" stroke="#603813" stroke-linecap="round" stroke-linejoin="round"/>
<path d="M186.766 47.3633L194.88 73.1403" stroke="#603813" stroke-linecap="round" stroke-linejoin="round"/>
<path d="M183.646 48.9238L191.76 74.7009" stroke="#603813" stroke-linecap="round" stroke-linejoin="round"/>
<path d="M179.743 50.4824L187.856 76.2595" stroke="#603813" stroke-linecap="round" stroke-linejoin="round"/>
<path d="M175.839 52.043L183.959 77.82" stroke="#603813" stroke-linecap="round" stroke-linejoin="round"/>
<path d="M171.942 54.3867L180.056 80.1638" stroke="#603813" stroke-linecap="round" stroke-linejoin="round"/>
<path d="M168.039 56.7305L176.152 82.501" stroke="#603813" stroke-linecap="round" stroke-linejoin="round"/>
<path d="M164.136 59.0664L172.256 84.8435" stroke="#603813" stroke-linecap="round" stroke-linejoin="round"/>
<path d="M160.239 61.4102L168.353 87.1807" stroke="#603813" stroke-linecap="round" stroke-linejoin="round"/>
<path d="M156.335 62.9707L164.448 88.7478" stroke="#603813" stroke-linecap="round" stroke-linejoin="round"/>
<path d="M153.215 64.5312L161.329 90.3083" stroke="#603813" stroke-linecap="round" stroke-linejoin="round"/>
<path d="M149.311 66.0898L157.425 91.8669" stroke="#603813" stroke-linecap="round" stroke-linejoin="round"/>
<path d="M145.408 68.4336L153.528 94.2041" stroke="#603813" stroke-linecap="round" stroke-linejoin="round"/>
<path d="M142.288 70.7715L150.401 96.5486" stroke="#603813" stroke-linecap="round" stroke-linejoin="round"/>
<path d="M139.357 73.3809L147.471 99.1579" stroke="#603813" stroke-linecap="round" stroke-linejoin="round"/>
<path d="M136.047 74.6738L142.601 100.451" stroke="#603813" stroke-linecap="round" stroke-linejoin="round"/>
<path d="M132.927 76.2344L138.697 102.788" stroke="#603813" stroke-linecap="round" stroke-linejoin="round"/>
<path d="M129.024 77.0176L134.801 104.348" stroke="#603813" stroke-linecap="round" stroke-linejoin="round"/>
<path d="M122.966 74.7012L123.097 103.572" stroke="#603813" stroke-linecap="round" stroke-linejoin="round"/>
<path d="M119.253 73.1406L116.074 100.452" stroke="#603813" stroke-linecap="round" stroke-linejoin="round"/>
<path d="M115.799 71.959L111.386 98.8914" stroke="#603813" stroke-linecap="round" stroke-linejoin="round"/>
<path d="M112.17 70.7969L106.706 96.5478" stroke="#603813" stroke-linecap="round" stroke-linejoin="round"/>
<path d="M108.979 69.8887L102.804 95.7637" stroke="#603813" stroke-linecap="round" stroke-linejoin="round"/>
<path d="M105.538 68.0684L98.1229 93.4277" stroke="#603813" stroke-linecap="round" stroke-linejoin="round"/>
<path d="M101.243 66.1152L93.4428 91.8662" stroke="#603813" stroke-linecap="round" stroke-linejoin="round"/>
<path d="M96.6016 64.9082L88.7947 89.0991" stroke="#603813" stroke-linecap="round" stroke-linejoin="round"/>
<path d="M92.4629 63.1855L84.656 87.3699" stroke="#603813" stroke-linecap="round" stroke-linejoin="round"/>
<path d="M88.5605 61.6191L80.7602 85.81" stroke="#603813" stroke-linecap="round" stroke-linejoin="round"/>
<path d="M84.6562 60.0586L76.8559 84.2495" stroke="#603813" stroke-linecap="round" stroke-linejoin="round"/>
<path d="M80.7598 58.5L72.9529 82.6909" stroke="#603813" stroke-linecap="round" stroke-linejoin="round"/>
<path d="M76.0732 56.1621L68.2729 80.3465" stroke="#603813" stroke-linecap="round" stroke-linejoin="round"/>
<path d="M72.1768 55.3789L64.3699 79.5698" stroke="#603813" stroke-linecap="round" stroke-linejoin="round"/>
<path d="M67.4961 53.043L59.6892 77.2273" stroke="#603813" stroke-linecap="round" stroke-linejoin="round"/>
<path d="M63.3311 51.5078L55.5307 75.6922" stroke="#603813" stroke-linecap="round" stroke-linejoin="round"/>
<path d="M58.9834 49.5039L51.183 73.6883" stroke="#603813" stroke-linecap="round" stroke-linejoin="round"/>
<path d="M55.0801 47.9434L47.2797 72.1277" stroke="#603813" stroke-linecap="round" stroke-linejoin="round"/>
<path d="M51.1836 46.377L43.3767 70.5678" stroke="#603813" stroke-linecap="round" stroke-linejoin="round"/>
<path d="M47.2803 44.8164L38.8206 68.4525" stroke="#603813" stroke-linecap="round" stroke-linejoin="round"/>
<path d="M43.4482 42.6426L34.14 66.1154" stroke="#603813" stroke-linecap="round" stroke-linejoin="round"/>
<path d="M39.4209 41.168L30.1845 64.0272" stroke="#603813" stroke-linecap="round" stroke-linejoin="round"/>
<path d="M34.793 39.3594L25.5566 62.9954" stroke="#603813" stroke-linecap="round" stroke-linejoin="round"/>
<path d="M30.8896 37.8008L21.6533 61.4368" stroke="#603813" stroke-linecap="round" stroke-linejoin="round"/>
<path d="M27.7695 36.2344L16.9731 59.877" stroke="#603813" stroke-linecap="round" stroke-linejoin="round"/>
<path d="M24.6494 33.8965L11.5096 56.7492" stroke="#603813" stroke-linecap="round" stroke-linejoin="round"/>
</svg>
