<svg width="41" height="120" viewBox="0 0 41 120" fill="none" xmlns="http://www.w3.org/2000/svg">
<path d="M1.20981 40.0998C1.12972 39.9625 1.08395 39.8309 1.10111 39.7051H1.09539C1.06678 39.7222 1.0439 39.7451 1.02101 39.768V40.2429L1.07822 40.6148C1.12399 40.7292 1.18121 40.8493 1.24414 40.9695L1.20981 40.0998Z" fill="#F5CF24"/>
<path d="M2.8125 42.6284V41.4727C2.26898 41.1352 1.49661 40.5916 1.21055 40.0996L1.24488 40.9692C1.64536 41.6844 2.33192 42.4511 2.76673 42.6112C2.7839 42.617 2.80106 42.6227 2.8125 42.6284Z" fill="#719EA4"/>
<path d="M1.02095 39.7676C0.878013 39.9334 0.918035 40.2478 1.07812 40.6138L1.02095 40.2421V39.7676Z" fill="#F5CF24"/>
<path d="M1.07835 40.6152L1.29004 41.9941L1.24427 40.97C1.18133 40.8498 1.12412 40.7297 1.07835 40.6152Z" fill="#F5CF24"/>
<path d="M1.10133 39.7035C1.08417 39.8292 1.12992 39.9607 1.20996 40.098L1.18709 39.4805C1.12992 39.5491 1.10133 39.6234 1.10133 39.7035Z" fill="#F5CF24"/>
<path d="M1.1007 39.7048C1.1007 39.6247 1.12931 39.5503 1.18652 39.4817L1.14647 38.6349C1.1007 38.5834 1.06066 38.532 1.02061 38.4805V39.7678C1.02061 39.7678 1.06637 39.722 1.09498 39.7048H1.1007Z" fill="#F5CF24"/>
<path d="M1.87318 37.1245C1.48414 36.5467 1.15231 35.9631 1.05504 35.5684L1.02072 35.5798L1.14659 38.635C1.69583 39.2872 2.56546 39.9852 2.81147 40.1854V38.7379L3.01172 38.675C2.70849 38.286 2.26795 37.7081 1.87318 37.1245Z" fill="#719EA4"/>
<path d="M4.83067 8.86165L6.23238 13.5188C6.79879 16.511 8.83555 19.9208 10.2201 20.8248C11.1183 21.4141 13.1437 21.7745 15.0374 21.8832C15.4436 21.9061 15.8384 21.9233 16.216 21.9233C17.5204 21.9347 18.6075 21.8031 18.9851 21.5342C19.357 21.2711 19.8433 20.6589 20.2952 20.0009C20.6442 19.5032 20.9703 18.9826 21.2335 18.5592L21.1248 18.5191L22.1146 15.6757C24.1914 16.1391 25.965 15.1779 25.5588 14.0279C25.124 12.815 25.1125 12.0255 23.6879 11.276C23.5907 11.2245 23.4934 11.1902 23.3904 11.173L23.4076 11.0987L23.6593 9.38228C23.9054 7.66591 23.4076 5.94953 20.8845 3.46078C18.3557 0.972031 14.2536 0.800393 12.7031 1.12078C11.1469 1.4469 8.53233 3.0889 7.29654 3.46078C6.28959 3.76401 5.08241 6.75623 4.83067 8.86165ZM7.9602 13.3872C7.70847 13.0153 8.13756 12.2486 8.53233 12.2429C8.79551 12.2429 9.01863 12.5747 9.10445 12.815C9.13878 12.918 9.23604 13.1869 9.10445 13.3872C8.89277 13.7133 8.17761 13.7076 7.9602 13.3872ZM14.2536 11.6708C14.2479 11.3676 14.717 10.578 14.8257 10.5265C15.169 10.3663 15.7754 10.824 15.97 11.0987C16.1702 11.3847 15.907 12.0713 15.3978 12.2429C14.8829 12.4146 14.2593 12.0141 14.2536 11.6708ZM15.5752 20.5387C14.8257 20.8248 12.5372 19.4059 12.5372 19.4059C12.5372 19.4059 15.3978 17.392 15.97 17.9642C16.5421 18.5363 16.3247 20.2527 15.5752 20.5387Z" fill="#719EA4"/>
<path d="M12.371 108.514C10.2199 109.653 11.0952 109.996 12.0049 110.259C12.125 110.294 12.2509 110.328 12.371 110.362C13.172 110.597 16.5819 110.637 18.8418 110.282C18.5557 109.579 18.1152 108.446 17.8635 107.582C17.6861 106.97 17.0568 106.604 16.3302 106.523C14.8941 107.227 13.378 107.982 12.371 108.514Z" fill="#719EA4"/>
<path d="M1.18766 39.4815L1.21055 40.0994C1.49661 40.5914 2.26898 41.135 2.8125 41.4725V40.1852C2.56649 39.985 1.69686 39.287 1.14762 38.6348L1.18766 39.4815Z" fill="#719EA4"/>
<path d="M1.02062 35.5801V38.4808C1.06066 38.5323 1.10071 38.5837 1.14648 38.6352L1.02062 35.5801Z" fill="#F5CF24"/>
<path d="M2.81193 40.1858V41.4731C2.88059 41.5132 2.94352 41.5532 3.00646 41.5876L2.83482 42.6345L2.81193 42.7661L2.38284 43.0064L2.88059 43.8875H2.91491L3.06367 46.5708C3.06367 46.5708 3.80171 46.8282 4.73427 47.1772C5.38078 47.4175 6.12454 47.7036 6.78249 47.9782C7.32029 48.2013 7.80087 48.4187 8.1327 48.5961L8.57324 47.715C8.04689 47.1429 7.22302 37.9145 7.22302 37.9145L7.1887 36.8446L6.21036 35.7976L2.2398 31.541V36.8446L1.87364 37.125C2.26841 37.7085 2.70895 38.2864 3.01218 38.6754L2.81193 38.7384V40.1858Z" fill="#F5CF24"/>
<path d="M2.81204 42.6289V42.7664L2.83496 42.6346C2.83496 42.6346 2.8235 42.6289 2.81204 42.6289Z" fill="#F5CF24"/>
<path d="M2.81133 42.5654V42.6284C2.81133 42.6284 2.8285 42.6341 2.83422 42.6341L3.00586 41.5871C2.94293 41.5528 2.87999 41.5127 2.81133 41.4727V42.5654Z" fill="#F5CF24"/>
<path d="M8.05842 51.3589L6.2505 48.2923L6.78258 47.9776C6.12463 47.703 5.38087 47.4169 4.73437 47.1766L4.75153 48.1035C5.02615 50.3405 8.60194 56.9085 9.67754 57.4406C10.8218 58.0127 13.6824 55.1521 13.6824 54.0078C13.6824 53.6073 13.711 52.589 13.7454 51.4218C13.8197 49.242 13.917 46.5702 13.917 46.5702L13.8712 46.4844C13.2476 46.8048 12.4867 47.2625 11.7544 47.7144L12.3723 48.5955C12.3723 48.5955 12.5382 50.003 11.966 51.1472C11.3939 52.2915 10.8218 52.2915 8.53329 51.0785L8.05842 51.3589Z" fill="#719EA4"/>
<path d="M14.8258 37.9895L14.883 38.5101C15.3808 38.4529 15.8213 38.493 16.0273 38.739C16.2561 39.0193 16.7138 39.3054 17.2173 39.643C17.9096 40.1121 18.6991 40.6728 19.1511 41.4566L21.0963 41.9829H21.1192L21.8744 42.126L21.9373 41.8056C22.0746 41.1877 23.4134 40.0606 24.9639 38.9392L24.386 38.7504C24.386 38.7504 22.8356 37.4174 21.9373 36.9997C21.4853 36.788 19.4829 33.258 17.5892 29.7795C16.2447 27.3079 14.9517 24.8649 14.3223 23.6577C14.0649 23.1657 13.9161 22.8797 13.9161 22.8797L13.8646 22.668L13.5442 22.7481L13.5786 22.8797C11.393 24.2585 9.19035 26.9017 8.57246 28.4407C7.96028 29.9797 6.34689 35.6724 6.34689 35.6724L6.20958 35.7983L7.18791 36.8453C7.18791 36.8453 9.67666 33.8301 10.8209 33.258C11.9652 32.6859 13.6815 32.6859 13.6815 32.6859L14.8258 37.9895Z" fill="#719EA4"/>
<path d="M6.25042 48.2927L8.05834 51.3593L8.53321 51.0789C10.8217 52.2919 11.3938 52.2919 11.966 51.1476C12.5381 50.0033 12.3722 48.5959 12.3722 48.5959L11.7543 47.7148C10.3755 48.573 9.10533 49.4312 9.10533 49.4312L8.53321 48.8591C8.46455 48.7904 8.32152 48.6989 8.13272 48.5959C7.80089 48.4186 7.3203 48.2012 6.7825 47.978L6.25042 48.2927Z" fill="#719EA4"/>
<path d="M12.9956 40.9337V39.1315L12.9498 38.9827C13.4132 38.8168 14.2085 38.5765 14.8836 38.5078L14.8264 37.9872L13.6822 32.6836C13.6822 32.6836 11.9658 32.6836 10.8215 33.2557C9.67727 33.8278 7.18852 36.843 7.18852 36.843L7.22285 37.9128C7.22285 37.9128 8.04671 47.1412 8.57306 47.7133L8.13253 48.5944C8.32133 48.6974 8.46436 48.7889 8.53302 48.8576L9.10514 49.4297C9.10514 49.4297 10.3753 48.5715 11.7541 47.7133C12.4864 47.2614 13.2473 46.8037 13.871 46.4833C14.4259 46.1858 14.8665 45.997 15.0781 45.997L15.6045 45.7853L15.3985 43.8858L15.5187 43.8687C15.4386 43.7714 15.3985 43.7085 15.3985 43.7085L15.0839 43.6284L12.9956 43.0791V40.9337Z" fill="#F5CF24"/>
<path d="M8.53286 12.2422C8.1381 12.2479 7.709 13.0146 7.96074 13.3864C8.17815 13.7068 8.8933 13.7126 9.10499 13.3864C9.23658 13.1862 9.13932 12.9173 9.10499 12.8143C9.01917 12.574 8.79604 12.2422 8.53286 12.2422Z" fill="#4F4131"/>
<path d="M12.0065 110.26L11.9264 110.546L12.3727 111.627H19.1123V110.946C19.1123 110.946 19.0036 110.683 18.8434 110.283C16.5835 110.637 13.1736 110.597 12.3727 110.363C12.2525 110.328 12.1266 110.294 12.0065 110.26Z" fill="#719EA4"/>
<path d="M12.9497 38.9842L12.9955 39.1329V39.8653C14.0024 39.9797 15.9019 40.1971 16.3138 40.2314L17.2178 39.6421C16.7143 39.3046 16.2566 39.0185 16.0278 38.7382C15.8218 38.4922 15.3812 38.4521 14.8835 38.5093C14.2084 38.578 13.4131 38.8183 12.9497 38.9842Z" fill="#719EA4"/>
<path d="M12.9958 41.627V43.0802L15.0841 43.6294L15.3301 42.6854C14.592 42.3993 13.5737 41.9073 12.9958 41.627Z" fill="#719EA4"/>
<path d="M19.4035 45.4268C19.4035 45.4268 20.9997 45.8273 22.9106 46.2907C25.5882 46.9372 28.8894 47.7153 29.3528 47.7153L30.0508 47.7382C29.9764 45.5469 29.8391 43.6589 29.9364 43.2298C30.1766 42.1828 25.9372 40.2776 25.9372 40.2776L23.7173 41.8052L23.5972 42.4517L21.8751 42.1313L21.1199 41.9883H21.097L19.1518 41.4562C18.6998 40.6724 17.9103 40.1117 17.218 39.6426L16.314 40.2319C15.9021 40.1975 14.0026 39.9801 12.9957 39.8657V41.6279C13.5735 41.9082 14.5919 42.4002 15.33 42.6863L15.084 43.6303L15.3986 43.7104C15.3986 43.7104 15.4387 43.7733 15.5188 43.8706C15.7934 44.2196 16.5257 45.0377 17.7157 45.5984L17.7901 45.4268H19.4035Z" fill="#719EA4"/>
<path d="M17.7154 45.5989C16.5253 45.0382 15.793 44.2201 15.5184 43.8711L15.3982 43.8883L15.6042 45.7877L15.0779 45.9994C14.8662 45.9994 14.4256 46.1882 13.8707 46.4857L13.9164 46.5715C13.9164 46.5715 13.8192 49.2434 13.7448 51.4232L14.2483 51.4403C14.4256 51.6577 14.603 51.8465 14.7746 52.001C15.0092 52.2127 15.238 52.3786 15.4497 52.4988C16.0848 52.8649 16.5425 52.8649 16.5425 52.8649L24.3863 52.0468L24.7754 51.8866C24.2261 50.5421 23.8199 49.3921 23.717 48.963C23.408 47.7158 22.8359 46.5715 22.8359 46.5715L22.9103 46.2912C20.9994 45.8278 19.4031 45.4273 19.4031 45.4273H17.7897L17.7154 45.5989Z" fill="#719EA4"/>
<path d="M13.865 22.6663L13.9165 22.878C13.9165 22.878 14.0652 23.1641 14.3227 23.6561L14.8262 22.4375L13.865 22.6663Z" fill="#719EA4"/>
<path d="M36.6645 98.7034L40 98.0626L36.264 56.7036L35.5031 53.5684C32.7912 55.9942 29.3012 58.4543 28.3687 58.071C27.6993 57.7964 26.7839 56.2574 25.9371 54.5009L14.6434 54.5867L14.2486 98.0912C14.2486 98.0912 15.9707 100.923 17.6871 102.64C18.408 103.36 19.3234 103.875 20.4218 104.247C21.9437 104.768 23.8031 105.002 25.9371 105.105C26.2346 105.123 26.5608 105.111 26.904 105.083C28.1169 104.991 29.5644 104.659 30.989 104.253C32.3335 103.87 33.6494 103.412 34.7193 103.017C36.1553 102.491 37.1394 102.067 37.1394 102.067L36.6645 98.7034Z" fill="#719EA4"/>
<path d="M14.8256 10.5273C14.7169 10.5788 14.2477 11.3683 14.2535 11.6716C14.2592 12.0148 14.8828 12.4153 15.3977 12.2437C15.9069 12.072 16.1701 11.3855 15.9698 11.0994C15.7753 10.8248 15.1689 10.3671 14.8256 10.5273Z" fill="#4F4131"/>
<path d="M14.8264 22.4378L14.3229 23.6564C14.9523 24.8636 16.2453 27.3066 17.5898 29.7782L18.2592 29.4063L19.0029 27.5755L18.2592 27.2722L17.79 26.1852L16.2052 22.5408L16.2167 21.9229C15.8391 21.9229 15.4443 21.9057 15.0381 21.8828V21.9229L14.8264 22.4378Z" fill="#719EA4"/>
<path d="M14.6437 54.5872L25.9375 54.5013C25.5198 53.6374 25.1251 52.7277 24.7761 51.8867L24.387 52.0469L16.5432 52.8651C16.5432 52.8651 16.0855 52.8651 15.4504 52.4989L14.8268 52.5447C14.8268 53.3628 14.6437 54.5872 14.6437 54.5872Z" fill="#719EA4"/>
<path d="M12.5387 19.4074C12.5387 19.4074 14.8272 20.8262 15.5767 20.5402C16.3262 20.2541 16.5436 18.5377 15.9715 17.9656C15.3994 17.3935 12.5387 19.4074 12.5387 19.4074Z" fill="#719EA4"/>
<path d="M15.9702 112.72V115.426H18.8308V112.016L19.1455 111.982L19.1112 111.627H15.9702V112.016V112.72Z" fill="#719EA4"/>
<path d="M16.2163 21.9242L16.2048 22.5421L17.7896 26.1865L18.9854 21.5352C18.6077 21.8041 17.5207 21.9356 16.2163 21.9242Z" fill="#719EA4"/>
<path d="M20.2897 104.618C20.2897 104.618 18.3902 105.522 16.3305 106.523C17.0571 106.603 17.6865 106.969 17.8638 107.582C18.1156 108.445 18.5561 109.578 18.8422 110.282C19.3514 110.196 19.8034 110.099 20.1523 109.973C22.0461 109.298 26.2684 109.504 26.9034 108.903C27.0522 108.76 27.1323 108.474 27.1666 108.119C27.2753 106.975 26.9034 105.11 26.9034 105.11V105.081C26.5602 105.11 26.234 105.121 25.9365 105.104C23.8025 105.001 21.9431 104.767 20.4212 104.246L20.2897 104.618Z" fill="#719EA4"/>
<path d="M30.051 47.739L29.353 47.7161C28.8896 47.7161 25.5885 46.938 22.9109 46.2915L22.8365 46.5718C22.8365 46.5718 23.4087 47.7161 23.7176 48.9633C23.8206 49.3924 24.2268 50.5424 24.776 51.8869C25.125 52.7279 25.5198 53.6376 25.9375 54.5015C26.7842 56.2579 27.6996 57.797 28.369 58.0716C29.3016 58.4549 32.7915 55.9948 35.5034 53.5689C37.2255 52.0185 38.6329 50.4852 38.8561 49.6957C39.4282 47.6646 37.1397 40.2785 35.9268 37.0002C34.7196 33.7162 30.2742 24.8311 28.9182 23.8413C27.5623 22.8458 21.7609 20.8262 21.7609 20.8262L21.7495 20.8491L19.0033 27.5773L18.2595 29.4081L17.5901 29.7799C19.4839 33.2585 21.4863 36.7885 21.9383 37.0002C22.8365 37.4178 24.387 38.7509 24.387 38.7509L24.9648 38.9397C23.4144 40.061 22.0756 41.1881 21.9383 41.806L21.8754 42.1264L23.5975 42.4525L23.7176 41.806L25.9375 40.2785C25.9375 40.2785 30.1769 42.1836 29.9366 43.2306C29.8394 43.6597 29.9767 45.5477 30.051 47.739Z" fill="#719EA4"/>
<path d="M17.7899 26.1847L18.2591 27.2717L19.0028 27.575L21.749 20.8467L21.6918 20.8239C21.3085 20.6351 20.9309 20.4405 20.5476 20.2517L20.2958 20C19.8438 20.6579 19.3575 21.2701 18.9857 21.5333L17.7899 26.1847Z" fill="#719EA4"/>
<path d="M18.8431 110.282C19.0033 110.682 19.112 110.946 19.112 110.946V111.626H27.1904V108.125H27.1675C27.1332 108.474 27.0531 108.76 26.9044 108.903C26.2693 109.504 22.047 109.298 20.1533 109.973C19.8043 110.099 19.3523 110.196 18.8431 110.282Z" fill="#719EA4"/>
<path d="M22.5389 111.627V115.134L24.5527 115.226V114.39V111.627H22.5389Z" fill="#719EA4"/>
<path d="M25.6914 114.391V116.983L27.1847 116.908L36.0755 116.456L37.1396 116.399V113.43L36.0755 113.624C35.286 113.802 33.6611 114.151 32.0592 114.391C31.0866 114.54 30.1197 114.643 29.353 114.648C26.8414 114.654 26.2693 115.226 26.2693 114.082L25.6914 114.391Z" fill="#719EA4"/>
<path d="M26.2687 114.083C26.2687 115.227 26.8408 114.655 29.3524 114.649C30.1191 114.643 31.086 114.54 32.0586 114.392C32.0586 114.392 30.9372 111.462 28.6487 110.633C28.3455 110.97 28.0365 111.325 27.739 111.674C26.9438 112.624 26.2687 113.545 26.2687 114.083Z" fill="#719EA4"/>
<path d="M27.1844 116.909L27.1901 116.983L27.7508 119.232H35.9951L36.0752 116.457L27.1844 116.909Z" fill="#719EA4"/>
<path d="M30.0964 108.903C29.8332 109.303 29.2611 109.933 28.6489 110.631C30.9374 111.46 32.0588 114.389 32.0588 114.389C32.0817 114.241 32.1046 114.092 32.1332 113.955C32.7053 111.289 34.9137 110.705 35.749 110.579C35.4057 109.486 35.0224 108.411 34.7192 108.022C34.0155 107.118 34.8508 104.927 34.7192 103.016C33.6493 103.41 32.3334 103.868 30.9889 104.251C30.9889 104.251 30.8459 107.787 30.0964 108.903Z" fill="#719EA4"/>
<path d="M32.1334 113.956C32.1048 114.093 32.0819 114.242 32.059 114.39C33.661 114.15 35.2858 113.801 36.0754 113.624C36.3843 113.555 36.5674 113.509 36.5674 113.509C36.5674 113.509 36.1955 112.028 35.7492 110.58C34.9139 110.706 32.7055 111.29 32.1334 113.956Z" fill="#719EA4"/>
<path d="M6.13026 11.2754C6.033 11.9562 6.07877 12.7229 6.23324 13.5181C6.79965 16.5103 8.83641 19.9202 10.221 20.8242C11.1192 21.4135 13.1445 21.7739 15.0383 21.8826C15.4445 21.9055 15.8392 21.9227 16.2168 21.9227C17.5213 21.9341 18.6083 21.8025 18.9859 21.5336C19.3578 21.2704 19.8441 20.6583 20.2961 20.0003C20.6451 19.5026 20.9712 18.9819 21.2344 18.5586C21.5491 18.0379 21.7607 17.666 21.7607 17.666" stroke="#4F4131" stroke-linecap="round" stroke-linejoin="round"/>
<path d="M21.7599 15.584C21.88 15.6183 22.0002 15.6526 22.1146 15.6755C24.1914 16.1389 25.965 15.1778 25.5588 14.0278C25.124 12.8149 25.1125 12.0253 23.6879 11.2759C23.5907 11.2244 23.4934 11.19 23.3904 11.1729C22.0459 10.8811 20.6271 13.2039 20.587 13.0151C20.547 12.8149 18.2585 6.52148 18.2585 6.52148" stroke="#4F4131" stroke-linecap="round" stroke-linejoin="round"/>
<path d="M16.7949 5.94274C15.9711 5.37634 14.0258 5.44499 12.996 5.41066C11.9662 5.37634 11.3941 7.09271 11.3941 7.09271C11.3941 7.09271 9.52892 5.94846 8.17298 6.52059C6.81704 7.09271 6.079 10.1078 6.079 10.1078" stroke="#4F4131" stroke-linecap="round" stroke-linejoin="round"/>
<path d="M4.81476 10.1089C4.76327 9.76561 4.76899 9.33652 4.83192 8.86165C5.08366 6.75623 6.29084 3.76401 7.29779 3.46078C8.53358 3.0889 11.1482 1.4469 12.7044 1.12078C14.2548 0.800393 18.357 0.972031 20.8858 3.46078C23.4089 5.94953 23.9066 7.66591 23.6606 9.38229L23.4089 11.0987" stroke="#4F4131" stroke-linecap="round" stroke-linejoin="round"/>
<path d="M16.2058 22.541L17.7906 26.1855L18.2598 27.2725" stroke="#4F4131" stroke-linecap="round" stroke-linejoin="round"/>
<path d="M18.9854 21.5352L17.7896 26.1865" stroke="#4F4131" stroke-linecap="round" stroke-linejoin="round"/>
<path d="M15.0381 21.9238L14.8264 22.4387L14.3229 23.6574L14.2486 23.8404" stroke="#4F4131" stroke-linecap="round" stroke-linejoin="round"/>
<path d="M13.9168 22.8789C13.9168 22.8789 14.0656 23.165 14.323 23.657C14.9524 24.8642 16.2454 27.3072 17.5899 29.7787C19.4836 33.2573 21.486 36.7873 21.938 36.999C22.8363 37.4166 24.3867 38.7497 24.3867 38.7497" stroke="#4F4131" stroke-linecap="round" stroke-linejoin="round"/>
<path d="M18.2595 29.4081L19.0033 27.5773L21.7495 20.8491L21.7609 20.8262C21.7609 20.8262 27.5623 22.8458 28.9182 23.8413C30.2742 24.8311 34.7196 33.7162 35.9268 37.0002C37.1397 40.2785 39.4282 47.6646 38.8561 49.6957C38.6329 50.4852 37.2255 52.0185 35.5034 53.5689C32.7915 55.9948 29.3016 58.4549 28.369 58.0716C27.6996 57.797 26.7842 56.2579 25.9375 54.5015C25.5198 53.6376 25.125 52.7279 24.776 51.8869C24.2268 50.5424 23.8206 49.3924 23.7176 48.9633C23.4087 47.7161 22.8365 46.5718 22.8365 46.5718" stroke="#4F4131" stroke-linecap="round" stroke-linejoin="round"/>
<path d="M21.9382 41.8051C22.0755 41.1872 23.4143 40.0601 24.9647 38.9387C27.2304 37.2967 29.9365 35.6719 29.9365 35.6719" stroke="#4F4131" stroke-linecap="round" stroke-linejoin="round"/>
<path d="M28.3684 37.9154L32.4248 37" stroke="#4F4131" stroke-linecap="round" stroke-linejoin="round"/>
<path d="M28.3684 38.75C28.3684 38.75 31.1375 39.1333 32.4248 40.8497" stroke="#4F4131" stroke-linecap="round" stroke-linejoin="round"/>
<path d="M23.7168 41.8049L25.9366 40.2773C25.9366 40.2773 30.1761 42.1825 29.9358 43.2295C29.8385 43.6586 29.9758 45.5466 30.0502 47.7379C30.1589 50.9017 30.1418 54.7121 29.1291 55.7247" stroke="#4F4131" stroke-linecap="round" stroke-linejoin="round"/>
<path d="M21.0967 41.982L20.1527 41.8047" stroke="#4F4131" stroke-linecap="round" stroke-linejoin="round"/>
<path d="M27.751 43.2298L23.5973 42.4517L21.8752 42.1313V42.1256L21.12 41.9883" stroke="#4F4131" stroke-linecap="round" stroke-linejoin="round"/>
<path d="M29.3525 47.7143C28.8891 47.7143 25.5879 46.9362 22.9104 46.2897C20.9995 45.8263 19.4033 45.4258 19.4033 45.4258" stroke="#4F4131" stroke-linecap="round" stroke-linejoin="round"/>
<path d="M19.4033 41.9936C19.3404 41.8048 19.2546 41.6274 19.1516 41.4558C18.6996 40.672 17.9101 40.1113 17.2178 39.6421C16.7143 39.3046 16.2566 39.0185 16.0278 38.7382C15.8218 38.4922 15.3813 38.4521 14.8835 38.5093C14.2084 38.578 13.4132 38.8183 12.9497 38.9842C12.698 39.07 12.5378 39.1329 12.5378 39.1329" stroke="#4F4131" stroke-linecap="round" stroke-linejoin="round"/>
<path d="M16.3945 40.2374H16.3888C16.3888 40.2374 16.3545 40.2374 16.3144 40.2317C15.9025 40.1974 14.003 39.98 12.9961 39.8655C12.6242 39.8255 12.3725 39.7969 12.3725 39.7969" stroke="#4F4131" stroke-linecap="round" stroke-linejoin="round"/>
<path d="M16.3945 41.4046L12.9961 40.9354C12.4697 40.8611 12.3725 40.8496 12.3725 40.8496" stroke="#4F4131" stroke-linecap="round" stroke-linejoin="round"/>
<path d="M16.395 41.4043H16.4004" stroke="#4F4131" stroke-linecap="round" stroke-linejoin="round"/>
<path d="M16.2051 42.9033C16.1364 42.9719 15.7817 42.8689 15.3297 42.6859C14.5917 42.3998 13.5733 41.9078 12.9955 41.6274C12.7208 41.4901 12.5435 41.4043 12.5377 41.4043" stroke="#4F4131" stroke-linecap="round" stroke-linejoin="round"/>
<path d="M12.3718 42.9199L12.9954 43.0801L15.0836 43.6294L15.3983 43.7095C15.3983 43.7095 15.4383 43.7724 15.5184 43.8697C15.7931 44.2187 16.5254 45.0368 17.7154 45.5975C18.053 45.7577 18.4248 45.895 18.8311 45.998" stroke="#4F4131" stroke-linecap="round" stroke-linejoin="round"/>
<path d="M14.8262 37.9889L13.6819 32.6853C13.6819 32.6853 11.9655 32.6853 10.8213 33.2574C9.67704 33.8295 7.18829 36.8446 7.18829 36.8446L6.20995 35.7976L2.2394 31.541V36.7931" stroke="#4F4131" stroke-linecap="round" stroke-linejoin="round"/>
<path d="M2.8804 43.2285L2.91472 43.8865L3.06348 46.5697C3.06348 46.5697 3.80152 46.8272 4.73409 47.1762C5.38059 47.4165 6.12435 47.7025 6.7823 47.9772C7.3201 48.2003 7.80068 48.4177 8.13252 48.5951C8.32132 48.698 8.46435 48.7896 8.533 48.8582L9.10513 49.4304C9.10513 49.4304 10.3752 48.5722 11.7541 47.714C12.4864 47.262 13.2473 46.8043 13.8709 46.4839C14.4259 46.1864 14.8664 45.9976 15.0781 45.9976" stroke="#4F4131" stroke-linecap="round" stroke-linejoin="round"/>
<path d="M15.6045 45.7862L15.3985 43.8867" stroke="#4F4131" stroke-linecap="round" stroke-linejoin="round"/>
<path d="M7.22302 37.9141C7.22302 37.9141 8.04689 47.1425 8.57324 47.7146" stroke="#4F4131" stroke-linecap="round" stroke-linejoin="round"/>
<path d="M1.09528 35.1289C1.00947 35.2147 0.998023 35.3692 1.05524 35.5694C1.1525 35.9642 1.48433 36.5478 1.87338 37.1256C2.26814 37.7092 2.70868 38.287 3.01191 38.6761C3.23504 38.9564 3.38379 39.1338 3.38379 39.1338" stroke="#4F4131" stroke-linecap="round" stroke-linejoin="round"/>
<path d="M1.14732 38.6348C1.69656 39.287 2.56619 39.985 2.8122 40.1852L2.88086 40.2367" stroke="#4F4131" stroke-linecap="round" stroke-linejoin="round"/>
<path d="M0.832682 37.457C0.523734 37.6458 0.68393 38.0406 1.02148 38.4811" stroke="#4F4131" stroke-linecap="round" stroke-linejoin="round"/>
<path d="M1.20971 40.0996C1.49578 40.5916 2.26814 41.1352 2.81166 41.4727C2.88032 41.5128 2.94325 41.5528 3.00619 41.5871C3.22932 41.7245 3.38379 41.8045 3.38379 41.8045" stroke="#4F4131" stroke-linecap="round" stroke-linejoin="round"/>
<path d="M1.19824 39.4648C1.19824 39.4648 1.18696 39.4761 1.18696 39.4818" stroke="#4F4131" stroke-linecap="round" stroke-linejoin="round"/>
<path d="M20.5472 20.252C20.9305 20.4408 21.3081 20.6353 21.6914 20.8241" stroke="#4F4131" stroke-linecap="round" stroke-linejoin="round"/>
<path d="M13.5791 22.8789C11.3936 24.2577 9.19089 26.901 8.573 28.44C7.96082 29.979 6.34743 35.6716 6.34743 35.6716" stroke="#4F4131" stroke-linecap="round" stroke-linejoin="round"/>
<path d="M4.74009 47.7146C4.72865 47.8233 4.72865 47.9549 4.75153 48.1036C5.02615 50.3406 8.60194 56.9086 9.67754 57.4407C10.8218 58.0128 13.6824 55.1522 13.6824 54.008C13.6824 53.6075 13.711 52.5891 13.7454 51.4219C13.8197 49.2421 13.917 46.5703 13.917 46.5703" stroke="#4F4131" stroke-linecap="round" stroke-linejoin="round"/>
<path d="M6.24407 48.2871L6.24979 48.2928L8.05771 51.3594L9.96289 54.5862" stroke="#4F4131" stroke-linecap="round" stroke-linejoin="round"/>
<path d="M8.53321 51.0787C10.8217 52.2916 11.3938 52.2916 11.966 51.1474C12.5381 50.0031 12.3722 48.5957 12.3722 48.5957" stroke="#4F4131" stroke-linecap="round" stroke-linejoin="round"/>
<path d="M14.2486 51.4395C14.426 51.6569 14.6034 51.8457 14.775 52.0001C15.0096 52.2118 15.2384 52.3777 15.4501 52.4979C16.0852 52.864 16.5429 52.864 16.5429 52.864L24.3867 52.0459" stroke="#4F4131" stroke-linecap="round" stroke-linejoin="round"/>
<path d="M14.8268 52.543C14.8268 53.3611 14.6437 54.5855 14.6437 54.5855L25.9375 54.4996" stroke="#4F4131" stroke-linecap="round" stroke-linejoin="round"/>
<path d="M13.1099 25.4023C12.5378 27.6908 14.2485 31.5413 14.2485 31.5413L19.4033 38.2237" stroke="#4F4131" stroke-linecap="round" stroke-linejoin="round"/>
<path d="M23.9521 23.8633C23.9521 23.8633 22.8365 30.786 21.6923 31.8158" stroke="#4F4131" stroke-linecap="round" stroke-linejoin="round"/>
<path d="M32.4253 57.5152C31.4184 58.5851 31.4184 61.4457 31.4184 61.4457L36.6648 98.7026L37.1396 102.067C37.1396 102.067 36.1556 102.49 34.7196 103.016C33.6497 103.411 32.3338 103.869 30.9893 104.252C29.5647 104.658 28.1172 104.99 26.9043 105.082C26.561 105.11 26.2349 105.122 25.9374 105.105C23.8034 105.002 21.944 104.767 20.4221 104.246C19.3236 103.875 18.4082 103.36 17.6874 102.639C15.971 100.922 14.2489 98.0904 14.2489 98.0904L14.6437 54.5859" stroke="#4F4131" stroke-linecap="round" stroke-linejoin="round"/>
<path d="M36.0752 54.5859L36.264 56.7028L40 98.0618L36.6645 98.7026" stroke="#4F4131" stroke-linecap="round" stroke-linejoin="round"/>
<path d="M34.7194 103.016C34.851 104.927 34.0157 107.118 34.7194 108.022C35.0226 108.411 35.406 109.486 35.7492 110.579C36.1955 112.027 36.5674 113.508 36.5674 113.508C36.5674 113.508 36.3843 113.554 36.0754 113.623C35.2858 113.8 33.661 114.149 32.059 114.389C31.0864 114.538 30.1195 114.641 29.3529 114.647C26.8412 114.653 26.2691 115.225 26.2691 114.081C26.2691 113.543 26.9442 112.622 27.7395 111.672C28.037 111.323 28.3459 110.968 28.6492 110.631C29.2613 109.933 29.8335 109.303 30.0966 108.903C30.8461 107.787 30.9892 104.251 30.9892 104.251" stroke="#4F4131" stroke-linecap="round" stroke-linejoin="round"/>
<path d="M26.9034 105.111C26.9034 105.111 27.2753 106.976 27.1666 108.121C27.1323 108.475 27.0522 108.761 26.9034 108.904C26.2684 109.505 22.0461 109.299 20.1523 109.974C19.8034 110.1 19.3514 110.197 18.8422 110.283C16.5823 110.638 13.1724 110.598 12.3714 110.363C12.2513 110.329 12.1254 110.295 12.0053 110.26C11.0956 109.997 10.2202 109.654 12.3714 108.515C13.3784 107.983 14.8945 107.228 16.3305 106.524C18.3902 105.523 20.2897 104.619 20.2897 104.619" stroke="#4F4131" stroke-linecap="round" stroke-linejoin="round"/>
<path d="M28.3687 110.547C28.4659 110.575 28.5575 110.604 28.649 110.633C30.9375 111.462 32.0589 114.392 32.0589 114.392C32.0818 114.243 32.1046 114.094 32.1332 113.957C32.7054 111.291 34.9138 110.707 35.7491 110.581C35.955 110.553 36.0752 110.547 36.0752 110.547" stroke="#4F4131" stroke-linecap="round" stroke-linejoin="round"/>
<path d="M13.9174 107.582C14.4209 106.753 15.445 106.421 16.3318 106.524C17.0584 106.604 17.6877 106.97 17.8651 107.582C18.1168 108.446 18.5573 109.579 18.8434 110.283C19.0036 110.683 19.1123 110.947 19.1123 110.947" stroke="#4F4131" stroke-linecap="round" stroke-linejoin="round"/>
<path d="M27.1904 110.547V111.628H24.5529H22.539H19.112H15.971H12.3724L11.9261 110.547" stroke="#4F4131" stroke-linecap="round" stroke-linejoin="round"/>
<path d="M15.9704 112.719V115.426H18.8311V112.016" stroke="#4F4131" stroke-linecap="round" stroke-linejoin="round"/>
<path d="M22.5389 111.627V115.134L24.5527 115.226V114.39V111.627" stroke="#4F4131" stroke-linecap="round" stroke-linejoin="round"/>
<path d="M26.2693 114.082L25.6914 114.391V116.983L27.1847 116.908L36.0755 116.456L37.1396 116.399V113.43L36.0755 113.624" stroke="#4F4131" stroke-linecap="round" stroke-linejoin="round"/>
<path d="M27.1901 116.983L27.7508 119.232H35.9951L36.0752 116.457" stroke="#4F4131" stroke-linecap="round" stroke-linejoin="round"/>
<path d="M10.8217 15.6758C10.8217 16.82 12.5381 17.3922 12.5381 17.3922" stroke="#4F4131" stroke-linecap="round" stroke-linejoin="round"/>
<path d="M12.5387 19.4074C12.5387 19.4074 15.3994 17.3935 15.9715 17.9656C16.5436 18.5377 16.3262 20.2541 15.5767 20.5402C14.8272 20.8262 12.5387 19.4074 12.5387 19.4074Z" stroke="#4F4131" stroke-linecap="round" stroke-linejoin="round"/>
<path d="M14.8256 10.5273C14.7169 10.5788 14.2477 11.3683 14.2535 11.6716C14.2592 12.0148 14.8828 12.4153 15.3977 12.2437C15.9069 12.072 16.1701 11.3855 15.9698 11.0994C15.7753 10.8248 15.1689 10.3671 14.8256 10.5273Z" stroke="#4F4131" stroke-linecap="round" stroke-linejoin="round"/>
<path d="M8.53286 12.2422C8.79604 12.2422 9.01917 12.574 9.10499 12.8143C9.13932 12.9173 9.23658 13.1862 9.10499 13.3864C8.8933 13.7126 8.17815 13.7068 7.96074 13.3864C7.709 13.0146 8.1381 12.2479 8.53286 12.2422Z" stroke="#4F4131" stroke-linecap="round" stroke-linejoin="round"/>
</svg>
