<svg width="56" height="157" viewBox="0 0 56 157" fill="none" xmlns="http://www.w3.org/2000/svg">
<path d="M39.0146 128.641C42.4635 130.442 45.8329 132.514 48.4742 135.374C51.1155 138.233 52.9624 141.98 52.8697 145.873C52.8366 147.216 52.5652 148.593 51.7973 149.699C50.6587 151.34 48.6529 152.122 46.7465 152.711C37.737 155.504 28.0722 156.179 18.7649 154.664C13.7802 153.856 8.68304 152.3 5.08853 148.759C1.49402 145.217 -0.101334 139.253 2.58628 134.976C4.73107 131.561 8.88826 130.045 12.8071 129.105C22.697 126.728 33.0966 126.516 43.0725 128.496" fill="#D3B25B"/>
<path d="M43.1526 128.06C43.2123 128.133 43.1526 128.246 42.9604 128.186L42.8676 127.947L43.1593 128.06H43.1526Z" fill="#C6B08D"/>
<path d="M41.7818 128.223C41.5766 128.078 41.3449 127.846 41.5236 127.674C41.709 127.925 41.7818 127.846 41.9804 128.137C42.1657 128.197 42.3312 128.131 42.3114 128.045C42.3709 128.111 42.6225 128.051 42.6953 128.203C42.4107 128.323 42.0995 128.27 41.7884 128.071C41.709 128.104 41.7686 128.177 41.7752 128.217L41.7818 128.223Z" fill="#C6B08D"/>
<path d="M22.8153 127.766L22.9346 127.727C22.9346 127.727 22.8617 127.753 22.8153 127.766Z" fill="#C6B08D"/>
<path d="M11.2846 129.946C11.3708 129.926 11.4106 129.939 11.4238 129.952C11.3377 129.959 11.2714 129.966 11.2846 129.946Z" fill="#C6B08D"/>
<path d="M9.47792 130.78C9.51769 130.76 9.55084 130.746 9.58398 130.727C9.55084 130.76 9.51106 130.786 9.47792 130.78Z" fill="#C6B08D"/>
<path d="M22.8164 127.768L22.5115 127.86C22.485 127.794 22.6639 127.794 22.8164 127.768Z" fill="#C6B08D"/>
<path d="M39.2601 127.285C39.3263 127.305 39.3794 127.332 39.4258 127.365C39.3727 127.345 39.3197 127.332 39.2667 127.318C39.2667 127.305 39.2667 127.298 39.2667 127.285H39.2601Z" fill="#C6B08D"/>
<path d="M27.9927 127.648H28.0855C28.0855 127.648 28.1385 127.701 28.165 127.735L27.9861 127.648H27.9927Z" fill="#C6B08D"/>
<path d="M31.9585 127.722C31.8657 127.722 31.8458 127.537 31.8126 127.457C31.859 127.537 31.9253 127.576 32.0049 127.596C32.0049 127.629 31.9916 127.676 31.9585 127.729V127.722Z" fill="#C6B08D"/>
<path d="M38.2728 127.912L38.3789 127.952C38.3789 127.952 38.306 127.925 38.2728 127.912Z" fill="#C6B08D"/>
<path d="M25.1602 127.807C25.1602 127.807 25.1403 127.86 25.127 127.873C25.127 127.846 25.1403 127.827 25.1602 127.807Z" fill="#C6B08D"/>
<path d="M43.5039 130.203C43.5039 130.203 43.4907 130.223 43.4842 130.23C43.4776 130.203 43.4776 130.184 43.5039 130.203Z" fill="#C6B08D"/>
<path d="M38.9948 128.682L39.0479 128.721C39.0346 128.755 39.028 128.788 39.0147 128.821L39.0015 128.682H38.9948Z" fill="#C6B08D"/>
<path d="M6.40571 132.507C6.40571 132.507 6.4057 132.507 6.41896 132.494C6.50514 132.467 6.45874 132.494 6.40571 132.507Z" fill="#C6B08D"/>
<path d="M17.8978 153.73C17.4935 153.823 18.4679 154.049 17.8713 154.128C17.9376 154.069 17.4139 153.744 17.8978 153.73Z" fill="#C6B08D"/>
<path d="M39.1543 127.291L38.9886 127.271C39.0615 127.271 39.1145 127.285 39.1543 127.291Z" fill="#C6B08D"/>
<path d="M17.8721 154.135L17.8124 154.141C17.8389 154.141 17.8522 154.141 17.8721 154.135Z" fill="#C6B08D"/>
<path d="M2.10938 138.644C2.10938 138.644 2.05635 138.591 2.03647 138.551C2.05635 138.551 2.07623 138.577 2.10938 138.644Z" fill="#C6B08D"/>
<path d="M4.55957 133.441L4.46675 133.561C4.4999 133.508 4.53305 133.475 4.55957 133.441Z" fill="#C6B08D"/>
<path d="M1.94512 141.723C1.97164 141.802 2.0048 141.822 1.99817 141.935C1.98491 141.928 1.97827 141.915 1.97164 141.908C1.99153 141.862 1.99153 141.809 1.95176 141.723H1.94512Z" fill="#C6B08D"/>
<path d="M2.95117 144.835C2.95117 144.835 2.91138 144.808 2.89149 144.795C2.87824 144.762 2.86498 144.728 2.85172 144.695L2.95117 144.835Z" fill="#C6B08D"/>
<path d="M51.1816 137.626C51.0955 137.586 51.0226 137.58 50.9496 137.58C51.0888 137.553 50.8502 137.082 51.1816 137.626Z" fill="#C6B08D"/>
<path d="M39.2467 127.384C39.2335 127.337 39.2069 127.311 39.1539 127.291C39.1937 127.298 39.2268 127.311 39.2666 127.318C39.2666 127.344 39.2666 127.371 39.2467 127.384Z" fill="#C6B08D"/>
<path d="M0.527547 142.133C0.560624 142.325 0.626765 142.51 0.679688 142.695C0.626765 142.543 0.554008 142.338 0.527547 142.133Z" fill="#C6B08D"/>
<path d="M40.8291 154.988H40.9551C40.9087 155.002 40.8623 155.002 40.8291 154.988Z" fill="#C6B08D"/>
<path d="M1.14926 144.355C1.2487 144.428 1.32824 144.515 1.39453 144.614C1.39453 144.641 1.39453 144.674 1.37465 144.694L1.14926 144.355Z" fill="#C6B08D"/>
<path d="M48.9846 134.374C49.3619 134.765 48.9846 134.725 48.9581 134.897C49.3354 135.42 49.2891 134.996 49.5274 135.082C49.7525 135.427 49.7657 135.817 49.9643 136.036C50.0106 136.029 50.057 136.069 50.057 135.983C50.1629 136.433 50.8116 137.002 50.8712 137.558C50.9109 137.578 50.9374 137.585 50.9573 137.578C50.8116 137.578 50.6991 137.638 50.6329 137.697C50.7587 137.902 50.7388 138.147 50.9175 138.141C50.8381 138.022 50.8844 137.975 50.8911 137.896L50.9639 138.141C51.275 138.214 50.8513 137.81 50.997 137.724C51.2022 138.18 51.3147 138.763 51.5398 139.061C51.7847 139.021 51.1889 138.253 51.606 138.597L51.2419 138.134C51.7715 138.339 51.0433 137.836 51.5729 138.002C52.023 138.644 51.9039 138.816 52.3011 139.485C52.2613 139.696 52.1091 139.511 52.0694 139.723C52.2944 140.802 52.9432 140.299 52.9366 141.173C52.8704 141.417 52.6122 141.583 52.9233 142.086L53.1087 141.828C53.3337 142.556 52.877 142.331 53.208 143.059C53.2874 142.9 53.1616 142.463 53.2146 142.569C53.5323 143.026 53.1484 142.953 53.2278 143.337L53.4661 143.377C53.572 144.185 53.4794 145.085 53.4198 145.972C53.486 145.926 53.5654 145.773 53.625 145.985C53.486 147.117 53.3933 148.434 52.9432 149.58C52.8174 149.686 52.6784 149.785 52.5526 149.877C52.4997 149.964 52.5195 150.089 52.6122 150.01C52.4136 150.44 52.4996 149.964 52.3077 150.103C52.1422 150.301 52.1885 150.447 52.3408 150.347C52.0296 150.632 51.5795 150.99 51.1161 151.307C50.6527 151.625 50.1894 151.91 49.8915 152.194L50.057 152.168C49.534 152.539 49.2626 152.135 48.8257 152.525L48.9382 152.512C47.7533 153.121 46.3433 153.306 45.496 153.863C45.2444 153.651 44.3111 154.306 44.1323 153.955C43.477 154.326 43.6954 154.346 42.7289 154.703C42.4641 154.783 42.2788 154.558 41.9412 154.597L41.9743 154.796L41.4778 154.683L41.2858 154.968L40.9615 154.981C41.0806 154.942 41.2064 154.836 41.1733 154.783C40.6702 154.789 40.0148 155.16 40.0215 155.266L38.8365 155.292C38.8763 155.372 39.0748 155.365 39.2337 155.392C38.5784 155.292 39.1543 155.623 38.5585 155.531C38.6247 155.471 38.4989 155.418 38.4791 155.378C38.2143 155.551 37.5722 155.637 37.0823 155.657L37.1948 155.782C36.3343 155.948 35.3612 155.941 34.3881 156.047C34.7323 155.954 34.6264 155.716 34.3417 155.716L34.2491 155.941C34.0505 155.822 34.5403 155.835 34.1498 155.703C33.7923 155.756 33.9247 155.968 34.1432 156.021L33.693 155.981C33.6732 156.047 33.7791 156.074 33.8122 156.153C33.6202 156.034 33.0641 156.438 32.7795 156.219L32.7596 156.285C31.7799 156.338 31.3364 156.305 30.5354 156.305C30.5155 156.12 30.2044 156.166 29.9661 156.027C29.3836 156.107 28.7348 156.246 28.0331 156.232C27.5367 156.14 27.8875 156.074 27.6691 155.961C27.6293 156.133 26.9277 156.093 27.2917 156.226C26.4444 156.166 26.2127 156.179 25.1536 155.968C25.2727 155.908 25.4051 155.882 25.3389 155.822C25.1469 155.782 24.8954 155.868 24.9219 155.948L24.9748 155.968C23.8031 155.657 22.1681 156.252 21.2546 155.782L21.3075 155.809L20.3477 155.504C19.8909 155.465 20.5992 155.67 20.255 155.723C19.2355 155.286 18.5736 155.524 17.7329 155.18C16.965 155.551 15.3564 154.67 14.3833 154.723L14.4627 154.624C14.2575 154.452 14.1648 154.611 13.9861 154.591C14.0324 154.511 14.2641 154.558 14.1384 154.458C12.2253 153.783 10.0672 153.313 8.13425 152.333C7.43919 151.956 8.05483 151.605 7.08835 151.301L7.20087 151.638C6.02918 150.566 4.57283 149.719 3.71889 148.342C3.73875 148.448 3.69242 148.494 3.78509 148.613C3.45411 148.461 2.99734 147.66 3.12312 147.574C2.97087 147.382 2.99735 147.594 2.85833 147.508C2.58031 147.289 2.56045 146.707 2.342 146.634C2.30228 146.621 2.342 146.74 2.36848 146.799C2.32214 146.574 1.83891 145.932 2.10369 146.025C1.75947 145.542 1.6734 144.992 1.40862 144.595C1.46819 144.251 0.971706 143.681 1.21664 143.503C0.925369 143.642 0.700302 142.576 0.766499 142.185C0.700302 142.324 0.620869 141.881 0.521572 142.053C0.455376 141.629 0.448765 141.232 0.614258 141.285C0.409046 140.914 0.428898 140.504 0.481857 140.153C0.541435 139.796 0.587776 139.498 0.362705 139.259C0.587776 137.975 0.984947 136.85 1.5079 135.837C1.36227 135.797 1.22989 136.089 1.10411 136.367C0.998196 136.658 0.912132 136.936 0.766499 136.87C1.2034 135.83 1.72637 135.387 2.22285 134.447C2.34862 134.195 2.02425 134.506 1.93158 134.559C2.61341 133.706 3.19593 132.845 4.03002 132.342C4.01016 132.322 3.91087 132.368 3.82481 132.415C3.97044 132.295 4.1227 132.09 4.19551 132.209C4.13593 132.236 4.08298 132.269 4.03002 132.302C3.93072 132.633 4.85749 132.15 4.95017 132.223C4.46031 132.09 5.63862 131.614 4.95017 131.501C5.06932 131.448 5.22819 131.415 5.25467 131.508C5.38707 131.382 5.40693 131.303 5.1951 131.322C5.79749 131.018 5.67171 131.276 6.18143 130.965C6.14833 130.905 6.02918 130.945 5.9365 130.912C6.26749 130.872 6.58523 130.833 7.0089 130.561C6.96255 130.541 6.99567 130.468 6.85666 130.535C7.6444 130.164 8.3196 130.23 9.14045 129.793C8.78298 129.615 9.40524 129.601 9.37214 129.35C9.53763 129.317 9.70975 129.284 9.87525 129.257L9.72298 129.436C10.14 129.297 10.5637 129.35 10.9013 129.171H10.5571L11.3581 128.986L10.941 129.204C11.3978 129.204 10.9807 129.515 11.5169 129.297C11.3978 129.303 11.934 129.178 12.1193 128.986C12.3444 129.012 12.5827 129.032 12.8806 128.9C12.9402 128.807 12.7548 128.648 12.7945 128.588C13.0461 128.741 13.8007 128.423 14.1119 128.575C14.0126 128.542 13.9795 128.416 14.0059 128.383L14.2178 128.509C14.4031 128.41 14.423 128.383 14.37 128.284C14.9526 128.125 14.2443 128.622 14.9195 128.35C14.8599 128.35 14.8798 128.317 14.7606 128.317C15.4557 128.112 16.1441 128.145 16.7796 127.953C16.9252 127.675 16.1971 127.993 16.3824 127.748C17.3357 127.635 18.3816 127.701 19.2885 127.523L19.123 127.576C19.3017 127.907 19.7783 127.304 20.2682 127.404C20.149 127.397 20.0961 127.231 20.1292 127.265C20.7514 127.132 21.4267 127.198 22.3865 127.205L22.2607 127.125C22.6248 127.013 23.2338 126.993 23.631 126.92C23.7568 127 23.9885 126.967 23.8561 127.106C25.0609 126.503 26.2326 127.231 27.3116 126.775C27.1792 126.775 26.9938 126.708 27.0998 126.702L28.0398 126.755C27.967 126.907 27.9206 126.847 27.722 126.973C27.8412 127.059 28.106 127.125 28.3377 127.125C27.914 127.026 28.3377 126.881 28.5164 126.795C28.4833 126.841 28.5495 126.894 28.5362 126.94C29.0261 126.662 28.6223 127.245 29.2843 127.059L29.2512 126.98C29.5027 127.02 29.7278 127.119 29.9992 127.106C30.1117 126.934 29.7344 127.02 29.7212 126.874C30.0985 126.887 30.4626 127.225 30.8068 127.053C30.6479 127 30.4162 126.993 30.2574 126.94C30.6347 126.742 30.6744 126.795 30.9524 126.768H30.926L31.5747 126.689L31.4092 126.742C31.866 127.205 32.3757 126.867 32.9979 127.192C32.3955 126.874 32.9053 127.02 32.8655 126.821C33.031 126.775 33.2826 126.722 33.2164 126.662C33.5077 126.834 33.7327 126.556 34.1432 126.828C34.1696 126.768 34.4675 126.847 34.4079 126.675C34.7985 126.755 34.3086 126.781 34.3351 126.861C34.9243 127.126 35.7782 126.695 36.6189 127.092C37.3537 127.291 37.4663 127.523 38.1415 127.721C38.3864 127.648 37.9826 127.463 37.9826 127.463C38.3732 127.417 38.6512 127.47 38.9954 127.589C38.9292 127.523 39.0087 127.483 39.1278 127.43C39.4125 127.483 39.2867 127.688 39.6706 127.648C39.6177 127.569 39.5515 127.443 39.4257 127.351C39.7501 127.463 40.0678 127.635 40.3988 127.741C40.5113 127.642 40.2134 127.543 40.1075 127.45C40.4915 127.562 41.1005 127.708 41.1932 127.9L40.935 127.926C41.074 127.96 41.0343 127.787 40.935 127.741C40.6239 127.549 40.4451 127.728 40.4187 127.787L40.657 127.867C40.3458 128.205 39.6839 127.648 39.1808 127.602L39.3463 127.9L38.8696 127.609C38.7505 127.668 38.6578 127.807 38.8961 127.88C38.5254 127.966 38.5916 127.741 38.2672 127.854C38.2275 127.874 38.2474 127.887 38.2739 127.9L37.9363 127.774C37.9958 127.84 37.8568 127.96 38.0753 127.946C37.4398 128.019 37.0955 127.622 36.8374 127.807L36.8903 127.827C36.0364 127.648 36.8308 127.615 36.2019 127.317L35.7186 127.768L35.6525 127.556C35.5598 127.556 35.381 127.556 35.4075 127.635C35.0832 127.47 35.4737 127.549 35.2884 127.41C34.8448 127.562 34.1034 127.238 33.9843 127.549C33.8386 127.384 34.4013 127.463 33.9512 127.317C33.7989 127.648 33.4216 127.225 33.0178 127.364C33.1303 127.549 33.5077 127.47 33.1039 127.609C32.8788 127.298 32.336 127.642 32.005 127.562C32.005 127.317 31.2901 127.437 30.734 127.351C30.7671 127.43 29.6815 127.456 29.1651 127.556L29.1784 127.595C29.0791 127.351 28.5429 127.404 28.1523 127.357C28.1722 127.503 28.2384 127.562 28.4502 127.622H28.0861C28 127.543 27.8809 127.503 27.6492 127.49L27.7485 127.668C27.2653 127.668 26.7622 127.49 26.1399 127.629C26.0936 127.463 26.6165 127.139 25.9479 127.053C25.9281 127.145 25.9082 127.304 26.0869 127.331C26.0274 127.317 25.8817 127.265 25.7692 127.311L26.0406 127.45C25.756 127.536 25.8884 127.331 25.6567 127.357C25.6699 127.49 25.4912 127.463 25.5309 127.562C25.5905 127.569 25.7295 127.496 25.8155 127.543C25.5574 127.582 25.2529 127.675 25.1602 127.781C25.18 127.708 25.1469 127.602 24.9616 127.602C24.4717 127.622 24.8027 127.768 24.5247 127.854C24.3989 127.768 24.101 127.88 24.0746 127.688C23.9355 127.701 23.9157 127.794 23.8627 127.854C23.6045 127.787 22.691 127.933 22.9558 127.701L23.022 127.682C23.022 127.682 22.9955 127.682 22.9823 127.682C22.135 127.549 21.2876 127.973 20.4602 127.979V128.046C19.9769 128.032 19.3878 128.152 19.0171 128.059C18.8714 128.079 18.6993 128.224 18.7722 128.291C18.3948 128.291 18.3419 128.231 17.8255 128.43C18.2161 128.483 17.713 128.549 18.2161 128.449C17.7461 128.588 17.66 128.708 17.1106 128.622C17.3158 128.761 16.7862 128.886 16.5545 128.88L16.8657 128.701C16.6075 128.714 16.3891 128.78 16.164 128.84L16.3295 129.032C15.416 129.482 14.4826 128.933 13.8471 129.542C13.5558 129.449 14.3502 129.317 14.0788 129.191C13.6353 129.323 13.2447 129.734 13.1123 129.767C12.5364 130.032 12.4702 129.588 11.8612 129.833C11.9207 129.734 11.9472 129.515 11.4507 129.568C11.0138 129.72 11.0072 130.038 11.2985 130.018C11.4044 129.992 11.4507 129.959 11.4375 129.932C11.5897 129.919 11.7817 129.906 11.6295 130.032L11.55 129.972C11.3581 130.111 10.7557 130.276 10.9344 130.363C10.5902 130.389 10.7557 130.276 10.9874 130.171C10.4644 130.449 10.1268 130.442 9.5906 130.713C9.66342 130.641 9.71638 130.528 9.63032 130.555C8.84257 130.945 9.21989 130.555 8.65059 130.727C8.3858 130.965 8.86905 130.938 8.28652 131.084C7.98863 131.303 8.29974 131.303 8.45861 131.309C7.90256 131.375 7.60468 131.812 7.35313 131.971C7.43919 131.945 7.53187 131.925 7.62454 131.905C7.45905 131.938 7.33989 132.011 7.22073 132.077L7.28693 131.865C7.15454 131.965 7.03539 132.031 7.06849 132.09C6.8699 132.084 7.05524 131.799 6.69116 131.839C6.53891 132.017 6.07552 132.117 6.12185 132.329C6.67129 131.912 6.16819 132.547 6.67791 132.276C6.57199 132.309 6.45947 132.382 6.33369 132.487C6.32707 132.521 6.37341 132.514 6.41975 132.501C5.98285 133.004 6.04243 132.461 5.49299 132.852C5.62539 132.891 5.50623 133.123 5.40693 133.169C5.61214 133.004 5.38707 132.931 5.13552 133.017C4.85087 133.348 4.73833 133.269 4.57284 133.427L4.73833 133.222C4.59932 133.196 4.44044 133.348 4.19551 133.533C4.23523 133.613 4.44045 133.388 4.38749 133.494C3.99693 133.593 4.00354 134.176 3.6196 134.447C3.54678 134.665 3.77848 134.599 3.70566 134.778C3.30186 135.109 3.50045 135.301 3.1496 135.691C3.08341 135.48 3.13636 135.473 2.81862 135.731C2.99073 135.486 3.16284 135.248 3.37467 135.029C3.20256 135.142 3.02382 135.255 2.87157 135.387C2.99072 135.135 3.26876 134.963 3.33496 134.811C3.07679 134.963 3.11651 134.963 3.09003 134.778C3.06355 135.208 2.5737 135.347 2.49426 135.811L2.85171 135.976C2.78551 136.294 2.65313 136.532 2.4744 136.79C2.32215 137.055 2.15665 137.36 2.09707 137.77C2.09045 137.677 2.09707 137.585 2.09707 137.492C1.89848 137.558 1.96468 137.995 1.85214 138.247C1.98454 138.247 1.99776 138.419 2.06396 138.538C1.97128 138.511 2.01764 139.14 1.74623 139.2C1.78595 139.326 1.84552 139.458 1.90509 139.584C1.96467 140.252 1.53439 140.365 1.64031 141.04C1.76608 140.828 1.87861 141.113 1.94481 140.669C1.96467 140.888 2.00439 141.08 1.91172 141.093C2.00439 141.206 1.8389 141.722 1.99115 141.901C1.95144 142.007 1.81904 142.06 1.89186 142.305C1.92496 142.324 1.95144 142.291 1.95144 142.291C1.88524 142.305 1.95806 142.695 1.76608 142.516C2.03749 142.808 2.1765 143.264 2.31551 143.715C2.46777 144.158 2.62004 144.602 2.9113 144.794C3.00398 145.019 3.10326 145.27 3.20255 145.508C3.32171 145.74 3.44086 145.972 3.5534 146.164C3.57326 146.117 3.60635 146.131 3.5534 146.065C3.97044 146.515 3.44749 146.581 3.95058 147.091C4.32129 147.256 3.83144 146.72 4.02341 146.852C4.41397 146.68 4.48018 147.554 4.97665 147.746L4.91708 147.647C5.26793 147.799 5.36721 148.395 5.83721 148.759C5.83721 148.759 5.83721 148.712 5.87693 148.706C5.94312 148.924 6.11523 149.176 6.32706 149.407C6.53228 149.652 6.77058 149.884 6.98904 150.076C6.9427 149.838 6.8368 149.851 7.02215 149.778C7.21412 149.95 6.79707 149.95 7.18102 150.295C7.36637 150.321 7.72383 150.453 7.86285 150.328C7.73045 150.235 7.59806 150.156 7.47228 150.056C7.80327 150.003 7.982 150.4 8.21369 150.506L8.24017 150.4C8.84257 150.798 8.71018 151.049 9.42511 151.4L9.31919 151.433C9.5906 151.857 9.70312 151.479 10.0076 151.837L10.2393 151.658C10.4644 151.844 11.0469 152.3 11.5037 152.539C11.3051 152.241 10.7888 151.936 10.5107 151.665C10.7623 151.791 11.3779 152.062 11.464 152.241C11.3713 152.175 11.2588 152.062 11.1396 152.055C11.3779 152.386 11.7685 152.645 12.3047 152.837C12.3775 152.333 13.7478 153.187 14.2575 152.916C15.1644 153.366 16.1838 153.34 17.3158 153.598C16.8326 153.909 17.6468 153.671 17.5012 154.055C17.7659 154.134 17.8652 154.147 17.8983 154.121L18.7523 154.021C18.9641 153.935 18.514 153.889 18.5537 153.803C19.1428 153.876 18.8251 153.677 19.2289 153.631C19.1296 153.763 19.401 153.863 19.7453 153.863L19.2422 153.975C20.0365 154.306 20.0034 153.75 20.7978 154.074L20.5529 153.916C20.9699 154.041 22.1217 154.101 22.5057 154.472C22.5851 154.432 22.6977 154.333 22.5057 154.286C23.022 154.306 23.5781 154.445 24.1143 154.558C24.6505 154.657 25.1668 154.736 25.5706 154.664L25.4978 154.558C25.6898 154.597 25.8222 154.763 26.0671 154.67C26.0538 154.63 25.9943 154.571 26.0803 154.564C26.1796 154.604 26.5834 154.756 26.8416 154.703L26.6298 154.584C27.636 154.491 28.1655 154.882 29.0129 154.955C29.0129 154.67 29.794 154.558 30.1846 154.498L30.1713 154.458C31.3298 154.399 32.1572 154.617 33.2495 154.657C33.8916 154.293 35.5068 154.326 36.5527 154.002C36.3939 154.074 36.6057 154.22 36.8043 154.227C37.0492 154.134 37.5258 154.326 37.4464 154.068L37.3603 154.088C37.5126 153.803 38.0356 153.803 38.4327 153.724L38.5585 154.055C39.5184 153.386 41.3388 153.73 41.8154 153.148C42.0868 153.174 42.3913 153.101 42.6627 153.128L42.6032 152.949C43.285 152.75 43.616 152.625 44.4765 152.446L44.2713 152.36C44.7479 152.227 45.0194 152.724 45.4629 152.598L45.5158 152.294C46.3565 152.055 47.1112 151.579 47.9585 151.519C47.932 151.486 47.8791 151.42 47.7467 151.453C48.1306 151.321 49.0309 150.698 49.0706 151.089C48.9713 150.864 49.7922 150.685 50.2026 150.5L50.0371 150.387C50.4608 150.361 50.527 150.407 50.9374 150.096C51.0102 149.99 50.9043 149.917 50.8249 150.063C51.0301 149.712 51.1823 149.957 51.4074 149.507L51.2022 149.58C51.4339 149.249 51.4603 149.308 51.6987 149.182C51.9105 148.99 52.0164 148.434 51.8708 148.328C51.9833 148.315 52.1951 148.143 52.215 147.878C52.162 147.832 52.1025 147.905 52.0694 147.945C52.1356 147.249 52.5063 146.952 52.3805 146.429C52.3209 146.415 52.2944 146.376 52.2746 146.336C52.2349 146.899 52.1554 147.342 52.1753 147.302C52.0098 147.269 52.0561 146.832 51.7649 147.13C51.9568 146.826 52.3011 146.23 52.2216 145.773C52.2018 145.753 52.1885 145.727 52.162 145.714L52.1422 145.76C52.1223 145.654 52.1422 145.568 52.1687 145.482C52.1422 145.343 52.1223 145.25 52.1157 145.118C51.9701 145.072 52.0098 144.602 51.9767 144.376C52.162 144.376 52.0958 144.079 52.2878 144.343C52.268 144.31 52.2746 144.39 52.2746 144.542C52.2746 144.575 52.2746 144.621 52.2613 144.641L52.2746 144.621C52.2746 144.774 52.2878 144.972 52.2944 145.197C52.3871 145.012 52.4467 144.813 52.3275 144.562C52.4401 144.429 52.546 144.284 52.5923 144.204C52.3011 143.906 52.0561 143.331 51.884 143.284C51.8509 142.576 51.5464 141.676 51.7053 141.133C51.6788 140.921 51.5266 140.947 51.4471 140.895C51.4604 141.014 51.5133 141.146 51.4868 141.219C51.4405 140.802 51.0632 140.1 51.2353 139.908C50.9175 139.491 51.1625 140.266 50.8844 139.61L50.8646 139.729C50.3747 139.207 50.2423 138.65 50.0371 138.081C49.8385 137.512 49.5804 136.923 48.8919 136.479C48.9846 136.545 49.0309 136.578 49.0773 136.565C47.8195 135.327 46.7074 133.725 45.0856 132.924C44.6487 132.679 44.695 132.527 44.5163 132.249L44.311 132.348L44.0132 131.859C43.4836 131.296 42.676 131.547 42.0471 130.786L42.2192 130.733C41.9147 130.574 41.3388 130.111 41.3057 130.276C41.2858 130.237 41.2792 130.098 41.127 130.098L41.0674 130.184L40.4319 129.615C39.8295 129.37 40.3194 130.025 39.4853 129.595C39.2006 129.396 38.7439 128.86 38.8961 128.86C39.0219 128.919 39.247 128.972 39.3065 128.886L39.0484 128.688C39.141 128.39 39.0616 127.993 39.8692 128.171L40.273 128.602L40.5047 128.555L40.0943 128.324C40.3922 128.324 40.4848 128.516 40.6106 128.681C40.6901 128.635 40.7827 128.622 40.8953 128.648L41.2329 129.171C41.352 129.098 41.1336 128.84 41.491 128.966C41.6433 129.211 41.1468 129.078 41.4646 129.37C41.7625 129.383 41.7558 129.244 41.9677 129.502C42.0471 129.456 42.014 129.376 41.9213 129.284C42.1133 129.509 42.537 129.694 42.5767 129.912C42.9077 129.912 43.3578 130.449 43.4902 130.19C43.5299 130.296 43.7815 130.647 43.9867 130.806C43.7881 130.25 44.8009 131.329 44.9068 130.958C45.0194 131.408 45.8601 131.819 46.2374 132.342C46.2241 132.302 46.2043 132.216 46.1513 132.196C46.4426 132.395 46.5816 132.388 46.7934 132.487C46.6677 132.713 47.0384 133.116 47.1575 133.427C47.6474 133.527 47.1642 133.03 47.4223 132.938C47.2701 133.077 47.8394 133.6 47.6143 133.626C47.9585 133.739 47.8725 133.758 48.1439 133.725C47.9585 133.997 48.3292 133.984 48.3822 134.315C48.8257 134.546 48.6867 134.189 48.978 134.639C49.2229 134.751 48.978 134.334 48.978 134.334L48.9846 134.374ZM53.3602 145.965C53.3668 145.859 53.3668 145.767 53.3734 145.707C53.3734 145.76 53.3735 145.839 53.3602 145.965ZM53.2742 147.031C53.2874 146.899 53.3006 146.74 53.3205 146.568C53.2609 146.528 53.1881 146.561 53.1815 146.667C53.2278 146.614 53.2411 146.866 53.2742 147.031ZM52.0429 144.866C52.0296 145.019 52.0694 145.065 52.1091 145.085C52.1091 145.012 52.1091 144.933 52.1091 144.82L52.1289 144.8C52.0958 144.82 52.0627 144.833 52.0429 144.866Z" fill="#C6B08D"/>
<path d="M52.2673 144.576C52.2673 144.576 52.2739 144.543 52.2739 144.51C52.2938 144.543 52.3071 144.569 52.3203 144.596L52.2673 144.656C52.2673 144.656 52.2673 144.596 52.2673 144.569V144.576Z" fill="#C6B08D"/>
<path d="M22.9558 127.722H22.9361C22.9361 127.722 22.969 127.708 22.9756 127.695C22.9624 127.708 22.9624 127.708 22.9558 127.722Z" fill="#C6B08D"/>
<path d="M41.9744 154.843L41.9677 154.797L42.0605 154.817L41.9744 154.843Z" fill="#C6B08D"/>
<path d="M28.5228 126.8C28.5228 126.8 28.5559 126.767 28.5957 126.754C28.5957 126.767 28.5626 126.78 28.5228 126.8Z" fill="#C6B08D"/>
<path d="M30.9512 126.775L31.2959 126.715C31.1434 126.748 31.0374 126.768 30.9512 126.775Z" fill="#C6B08D"/>
<path d="M32.8321 126.748C32.852 126.781 32.8586 126.808 32.8652 126.828L32.8387 126.748H32.8321Z" fill="#C6B08D"/>
<path d="M3.81738 132.436C3.81738 132.436 3.77761 132.469 3.75772 132.482C3.59863 132.575 3.69806 132.502 3.81738 132.436Z" fill="#C6B08D"/>
<path d="M12.1191 128.986C12.0197 128.973 11.9203 128.966 11.8208 128.973C11.9733 128.92 12.086 128.886 12.1191 128.986Z" fill="#C6B08D"/>
<path d="M0.508434 142.066H0.515049L0.52832 142.133L0.508434 142.066Z" fill="#C6B08D"/>
<path d="M11.4235 129.085C11.5694 129.006 11.6953 128.979 11.8213 128.973C11.702 129.019 11.5561 129.079 11.4235 129.085Z" fill="#C6B08D"/>
<path d="M40.915 127.516H41.0078C41.0078 127.516 41.0078 127.542 41.0078 127.555L40.9084 127.516H40.915Z" fill="#C6B08D"/>
<path d="M41.0136 127.555L41.1064 127.594C41.06 127.588 41.0203 127.581 41.0136 127.555Z" fill="#C6B08D"/>
<path d="M41.3115 127.675L41.1127 127.596C41.1856 127.609 41.2784 127.616 41.3115 127.675Z" fill="#C6B08D"/>
<path d="M38.4453 127.245L38.4254 127.172C38.4254 127.172 38.4453 127.212 38.4453 127.245Z" fill="#C6B08D"/>
<path d="M37.7047 127.131C37.8833 127.138 38.1678 127.045 38.4126 127.118L38.4258 127.171C38.3199 127.058 37.8569 127.263 37.6981 127.125L37.7047 127.131Z" fill="#C6B08D"/>
<path d="M34.5067 127.668H35.1352C35.0228 127.721 34.8706 127.807 35.1484 127.847C34.348 128.005 35.3204 127.701 34.5067 127.668Z" fill="#C6B08D"/>
<path d="M32.5668 127.656C32.8983 127.703 32.5602 127.762 32.5734 127.802C32.3613 127.729 32.3149 127.709 32.5668 127.656Z" fill="#C6B08D"/>
<path d="M18.6396 128.396L18.6992 128.562C18.4407 128.575 18.686 128.496 18.6396 128.396Z" fill="#C6B08D"/>
<path d="M15.839 127.992L16.071 127.84L16.2168 127.966L15.839 127.992Z" fill="#C6B08D"/>
<path d="M14.5289 129.488H14.6416L14.2107 129.521L14.5289 129.488Z" fill="#C6B08D"/>
<path d="M2.86523 144.238L2.64647 144.251C2.61332 144.079 2.81883 143.96 2.86523 144.238Z" fill="#C6B08D"/>
<path d="M9.38582 151.269C9.53136 151.229 9.80919 151.295 9.91504 151.467C9.70996 151.375 9.47843 151.348 9.38582 151.269Z" fill="#C6B08D"/>
<path d="M39.0015 153.724L38.7893 153.684L39.1738 153.678L39.0015 153.724Z" fill="#C6B08D"/>
<path d="M41.1476 24.3068L42.1604 23.658L42.22 23.2277C42.6569 23.2675 43.1865 23.2277 43.716 22.9563C44.9936 22.3208 46.2712 19.1235 44.987 17.8459C44.6494 17.5083 44.2258 17.323 43.7822 17.2435C42.551 17.0052 41.1873 17.5215 41.1873 17.5215L40.1414 17.4553C40.2076 16.3962 40.1877 15.2377 39.8898 14.642C39.2477 13.3644 37.9701 10.167 36.0703 9.53154C34.177 8.88943 32.2639 9.53154 32.2639 9.53154L28.7687 8.77027C28.7687 8.77027 28.3781 8.88943 27.6897 8.77027C27.0012 8.65112 25.1808 10.167 24.6446 11.5969L23.9893 12.7222C23.698 13.7483 23.5259 15.4032 23.5193 17.1906C23.5193 19.8715 23.9032 22.8637 24.8564 24.5715C26.0943 26.7759 30.8738 27.6762 32.9788 27.9741L32.906 28.4639V31.8069L32.5552 31.8731C33.0252 32.8131 33.8593 34.6931 34.8191 36.9173C34.8191 36.9173 37.8973 33.4618 39.3801 31.9459L39.1021 31.8069L38.2415 30.2645L37.0301 28.0932C37.0301 28.0932 40.7636 25.7432 41.1343 24.2935L41.1476 24.3068ZM26.4584 15.3304C26.3393 15.2841 25.8097 15.0987 25.8229 14.8472C25.8229 14.5559 26.5246 14.2183 27.1005 14.3639C27.6698 14.5096 27.9677 15.0921 27.7426 15.337C27.5242 15.5687 26.849 15.476 26.4584 15.337V15.3304ZM32.8464 15.3966C32.8464 15.1252 33.5415 14.6486 34.1307 14.6486C34.7198 14.6486 35.4083 15.1252 35.4083 15.3966C35.4083 15.668 34.7132 15.9262 34.1307 15.9262C33.5481 15.9262 32.8464 15.6614 32.8464 15.3966Z" fill="#E2C392"/>
<path d="M43.1656 3.84545L43.1921 3.7263L41.3982 3.15039C41.557 4.22941 41.2393 6.11603 41.1863 6.42715C41.7027 6.53307 42.2521 6.73165 42.8082 7.04278C43.8673 7.63194 45.1913 8.96251 46.2703 10.3593C46.2703 10.3593 46.9124 8.26081 46.2703 6.34109C45.7606 4.82518 44.4565 4.10362 43.1656 3.84545Z" fill="#E2C392"/>
<path d="M22.4008 14.2659L23.1157 17.1985H23.5195C23.5195 15.4111 23.6983 13.7562 23.9895 12.7368L24.6449 11.6114C25.1811 10.1816 27.0015 8.66563 27.69 8.78478C28.3784 8.90394 28.769 8.78478 28.769 8.78478L32.2642 9.54605C32.2642 9.54605 34.1773 8.90394 36.0705 9.54605C37.9704 10.1815 39.248 13.3789 39.8901 14.6565C40.188 15.2589 40.2079 16.4107 40.1417 17.4699L41.1876 17.5361C41.1876 17.5361 42.5579 17.0131 43.7825 17.258L43.7957 17.1918C43.7957 17.1918 46.2781 17.2117 47.0593 17.1918C47.8404 17.1654 48.1979 15.9407 48.2641 14.2725C48.2905 13.4186 47.43 11.8497 46.2848 10.3669C45.2057 8.97014 43.8818 7.64619 42.8226 7.05042C42.2666 6.73267 41.7171 6.5407 41.2008 6.43478C41.2538 6.11703 41.5715 4.23041 41.4126 3.15802C41.3663 2.87337 41.2935 2.64168 41.1677 2.5159C40.5322 1.87379 31.5824 0.596189 30.5298 1.14563C29.4707 1.70168 27.7495 3.1514 26.8294 3.81337C26.4521 4.08478 26.3263 4.66732 26.2998 5.30281H26.227L24.9957 6.30239C23.877 7.13647 22.0632 8.65239 22.2552 9.54605C22.4471 10.4927 22.2022 12.5183 22.4008 14.2725V14.2659Z" fill="#E2C392"/>
<path d="M32.5947 29.7227C32.5947 29.7227 30.7081 30.0801 28.5501 30.5237L28.7619 31.8145C29.6556 32.5427 34.766 50.4358 34.766 50.4358L34.5145 51.1441C35.1632 51.3956 35.9642 51.7068 36.8314 52.0378L37.0432 51.4287L40.5781 50.5285C40.5781 50.5285 37.2947 42.6113 34.8256 36.9249C33.8657 34.7073 33.0316 32.8207 32.5616 31.8807L32.9125 31.8145V29.7227H32.5947Z" fill="#E2C392"/>
<path d="M28.5502 30.5242C26.2532 30.981 23.6516 31.5304 22.705 31.815C20.878 32.3645 18.7862 39.5667 17.4093 41.6321C17.0716 42.1418 16.6281 43.5452 16.178 45.412C14.7812 51.1446 13.2057 61.2265 13.7353 62.9807C13.9868 63.8214 14.7283 66.2045 15.569 68.8855C17.0253 73.5789 18.7928 79.2056 18.7928 79.2056C18.7928 79.2056 20.0969 79.2057 21.8114 79.1064C24.7439 78.9475 28.8746 78.4973 29.7286 77.2926C30.1125 76.7564 30.1721 75.5913 30.0463 74.1482C29.9735 73.1287 29.8014 71.9703 29.6028 70.7854C29.1593 68.111 28.5436 65.3042 28.3781 63.6625C28.3517 63.4044 28.3318 63.1793 28.3318 62.9807C28.3185 61.8289 28.4973 60.0018 28.7224 58.241L29.4174 58.3337L33.2039 57.301L32.8994 56.1889C32.1977 55.5468 32.8994 50.5224 32.8994 50.5224C32.8994 50.5224 33.5283 50.7673 34.5014 51.138L34.7529 50.4297C34.7529 50.4297 29.6425 32.5366 28.7488 31.8084L28.537 30.5176L28.5502 30.5242Z" fill="#E2C392"/>
<path d="M37.2085 63.967L37.9102 64.1258V62.9806L38.5986 61.948L37.2813 61.1867L37.9102 60.1077L33.9979 57.0957L33.2168 57.3075L29.4303 58.3402L28.7352 58.2475C28.5102 60.0018 28.3314 61.8354 28.3447 62.9873C28.3447 63.1792 28.3645 63.4109 28.391 63.6691L29.4303 63.5632C29.4303 63.5632 31.5751 64.5098 32.6012 65.0592C33.0248 65.2843 33.892 65.3373 34.779 65.377C35.5734 65.3968 36.3744 65.4101 36.8643 65.5028L37.2151 63.9736L37.2085 63.967Z" fill="#E2C392"/>
<path d="M44.3582 69.6137C42.4385 70.2558 34.7662 65.7809 34.7662 65.7809L34.7794 65.3704C33.8924 65.3373 33.0252 65.2778 32.6016 65.0527C31.5755 64.5033 29.4307 63.5566 29.4307 63.5566L28.3914 63.6626C28.5569 65.3043 29.1725 68.1176 29.616 70.7854C29.808 71.9703 29.9801 73.1288 30.0596 74.1482L30.94 74.082C30.94 74.082 42.0479 75.6641 44.9341 75.0352C45.2254 74.969 45.4306 74.8896 45.5365 74.7771C46.6023 73.6649 45.8079 72.394 45.1724 71.4473L45.5365 71.1892V69.0245C45.1062 69.2827 44.709 69.4879 44.3714 69.6005L44.3582 69.6137Z" fill="#E2C392"/>
<path d="M12.4635 68.4404C11.2124 70.6117 7.24055 77.8537 8.4321 80.2301C9.61703 82.6 17.746 84.2615 20.2681 84.7249L20.7382 84.811L22.6182 85.1618C22.0621 82.4874 21.7113 80.4486 21.8569 79.9058L21.8172 79.1114C20.1027 79.2107 18.7986 79.2107 18.7986 79.2107C18.7986 79.2107 17.0377 73.5839 15.5748 68.8905L15.2967 68.9766C15.2967 68.9766 14.3501 68.0829 13.1652 66.8848L12.4767 68.4404H12.4635Z" fill="#E2C392"/>
<path d="M12.7951 66.5217L13.2651 66.6343L13.1591 66.8858C14.3507 68.084 15.2907 68.9777 15.2907 68.9777L15.5687 68.8916C14.728 66.2106 13.9866 63.8275 13.7351 62.9868C13.2055 61.2326 14.781 51.1507 16.1777 45.4181H15.2841C12.3912 45.332 9.27999 45.332 8.92252 46.9274C8.56506 48.5227 5.9635 60.6633 5.98336 61.9475C6.00322 62.8875 7.92955 64.6881 8.95561 65.5817L12.7951 66.5217Z" fill="#E2C392"/>
<path d="M51.0771 51.4289H50.2099V65.3237C50.2099 65.3237 48.224 67.164 46.3903 68.4681L46.4035 68.4879L48.2571 73.7374C48.2571 73.7374 50.1106 72.1817 52.5003 69.6861C54.8834 67.1905 55.2276 63.2319 54.89 60.0412C54.6054 57.2807 53.6323 55.4802 52.0369 53.8054L51.2161 50.9258C51.2359 51.2634 51.0837 51.4421 51.0837 51.4421L51.0771 51.4289Z" fill="#E2C392"/>
<path d="M50.2096 50.5286V51.4289H51.0767C51.0767 51.4289 51.229 51.2502 51.2092 50.9126L51.0767 50.4359C50.7656 49.8004 49.4615 44.0413 48.2501 41.1286C47.2108 38.6396 45.1124 35.0848 43.8944 33.5225L43.1927 32.139L38.486 30.1465L38.2543 30.2789L39.1149 31.8213L39.3929 31.9603C37.9101 33.4762 34.8319 36.9317 34.8319 36.9317C37.3011 42.618 40.5845 50.5352 40.5845 50.5352L37.0496 51.4355L36.8377 52.0445C40.28 53.3618 44.7682 55.0433 45.0991 54.9969C45.6353 54.9175 50.2162 50.5352 50.2162 50.5352L50.2096 50.5286Z" fill="#E2C392"/>
<path d="M50.21 51.4296V50.5293C50.21 50.5293 45.6291 54.9115 45.0929 54.991C44.7619 55.0373 40.2671 53.3559 36.8315 52.0386C35.9643 51.7076 35.1633 51.3965 34.5146 51.1449C33.5415 50.7742 32.9126 50.5293 32.9126 50.5293C32.9126 50.5293 32.2109 55.5537 32.9126 56.1958L33.2171 57.3079L33.9983 57.0961L37.9105 60.108L37.2816 61.187L38.599 61.9483L37.9105 62.981V64.1262L37.2088 63.9673L36.858 65.4965C36.3747 65.4038 35.5738 65.3906 34.7728 65.3707L34.7595 65.7811C34.7595 65.7811 42.4318 70.2561 44.3515 69.614C44.6891 69.5014 45.0929 69.2962 45.5166 69.038C45.7946 68.8659 46.0859 68.6739 46.3838 68.4687C48.2174 67.1713 50.2033 65.3244 50.2033 65.3244V51.4296H50.21Z" fill="#F5CF24"/>
<path d="M37.9494 136.883C39.889 136.843 41.7028 136.651 42.1595 136.042C43.1591 134.712 44.5029 129.681 44.5029 129.681L43.126 128.787C42.8943 129.145 42.4707 129.76 41.6829 130.66C40.2862 132.256 18.7919 136.095 17.5143 135.963C16.7266 135.883 13.2645 134.255 11.3646 132.779L11.8677 134.904C11.8677 134.904 11.7618 136.095 13.6418 137.188C15.5152 138.28 19.4406 138.644 21.8568 138.942C24.2797 139.233 31.5812 136.724 32.6007 136.737C33.1633 136.737 35.6457 136.929 37.9494 136.883Z" fill="#E2C392"/>
<path d="M43.1204 128.788L44.4973 129.682C44.4973 129.682 43.1601 134.719 42.1539 136.043C41.6971 136.652 39.8833 136.844 37.9437 136.884C41.386 137.632 51.9378 141.028 51.2163 139.532C50.4021 137.864 50.2101 120.05 50.2101 120.05C50.2101 120.05 51.3818 118.19 52.2953 116.131C53.2022 114.072 52.666 99.6545 52.2953 95.729C51.918 91.8101 46.9135 77.9219 44.9938 75.3667L44.9276 75.0489C42.0414 75.6778 30.9335 74.0957 30.9335 74.0957L30.053 74.1619C30.1722 75.605 30.1192 76.7635 29.7353 77.3063C28.8747 78.5111 24.744 78.9612 21.8181 79.1201L21.8578 79.9144C21.7122 80.4506 22.063 82.4961 22.6191 85.1705C23.9761 91.7307 26.5512 102.077 25.9819 103.203C25.1875 104.785 22.9302 115.714 21.8247 116.965C20.7126 118.21 13.3581 129.715 10.644 130.668C9.61132 131.032 10.1806 131.879 11.3655 132.793C13.2654 134.262 16.7275 135.897 17.5153 135.977C18.7995 136.109 40.2871 132.27 41.6839 130.674C42.465 129.774 42.8953 129.165 43.127 128.801L43.1204 128.788Z" fill="#E2C392"/>
<path d="M25.8223 14.8491C25.8091 15.1073 26.3386 15.2926 26.4578 15.3323C26.8484 15.4713 27.5236 15.564 27.742 15.3323C27.9671 15.0874 27.6692 14.5115 27.0999 14.3592C26.5306 14.2136 25.8289 14.5512 25.8223 14.8425V14.8491Z" fill="#4F4131"/>
<path d="M34.1306 15.928C34.7131 15.928 35.4082 15.6632 35.4082 15.3984C35.4082 15.1336 34.7131 14.6504 34.1306 14.6504C33.5481 14.6504 32.8464 15.127 32.8464 15.3984C32.8464 15.6698 33.5414 15.928 34.1306 15.928Z" fill="#4F4131"/>
<path d="M23.9878 12.7324C23.6966 13.7585 23.5245 15.4134 23.5178 17.2007C23.5178 19.8817 23.9018 22.8738 24.855 24.5817C26.0929 26.7861 30.8723 27.6864 32.9774 27.9843C33.5997 28.0703 33.9902 28.1034 33.9902 28.1034" stroke="#4F4131" stroke-linecap="round" stroke-linejoin="round"/>
<path d="M24.6439 11.6067C25.1801 10.1768 27.0005 8.66088 27.689 8.78004C28.3774 8.89919 28.768 8.78004 28.768 8.78004L32.2632 9.5413C32.2632 9.5413 34.1763 8.89919 36.0695 9.5413C37.9694 10.1768 39.247 13.3741 39.8891 14.6517C40.187 15.2541 40.2069 16.406 40.1407 17.4651C40.0745 18.6765 39.8891 19.7622 39.8891 19.7622" stroke="#4F4131" stroke-linecap="round" stroke-linejoin="round"/>
<path d="M41.1797 17.525C41.1797 17.525 42.55 17.002 43.7746 17.2469C44.2182 17.3264 44.6418 17.5117 44.9794 17.8493C46.2637 19.1269 44.9794 22.3243 43.7085 22.9598C43.1789 23.2312 42.6427 23.2775 42.2124 23.2312C41.6034 23.1716 41.1797 22.9598 41.1797 22.9598" stroke="#4F4131" stroke-linecap="round" stroke-linejoin="round"/>
<path d="M41.1797 24.0977C41.1797 24.1639 41.1664 24.2367 41.1466 24.3095C40.7759 25.7592 37.0424 28.1092 37.0424 28.1092L38.2538 30.2805L39.1143 31.8229" stroke="#4F4131" stroke-linecap="round" stroke-linejoin="round"/>
<path d="M32.9111 28.4805V29.725V31.8234" stroke="#4F4131" stroke-linecap="round" stroke-linejoin="round"/>
<path d="M22.797 15.9286C22.5918 15.4454 22.4727 14.8695 22.3999 14.2605C22.2013 12.5063 22.4462 10.4806 22.2542 9.534C22.0623 8.64034 23.8761 7.12442 24.9948 6.29695C25.478 5.93949 25.8223 5.70117 25.8223 5.70117" stroke="#4F4131" stroke-linecap="round" stroke-linejoin="round"/>
<path d="M26.384 7.62124C26.4304 7.24391 26.2516 6.21124 26.2913 5.29109C26.3112 4.6556 26.437 4.07306 26.8209 3.80166C27.7411 3.1463 29.4622 1.68996 30.5214 1.13391C31.5739 0.58447 40.5238 1.86207 41.1592 2.50419C41.285 2.62996 41.3578 2.86165 41.4042 3.1463C41.563 4.22531 41.2453 6.11194 41.1923 6.42307C41.1923 6.44955 41.1791 6.4694 41.1791 6.4694" stroke="#4F4131" stroke-linecap="round" stroke-linejoin="round"/>
<path d="M38.1278 7.04523C38.4787 6.51565 39.6901 6.10524 41.1862 6.4296C41.7025 6.53552 42.2519 6.7341 42.808 7.04523C43.8671 7.63439 45.1911 8.96496 46.2701 10.3617C47.4153 11.8512 48.2759 13.42 48.2494 14.2674C48.1832 15.9355 47.8324 17.1602 47.0446 17.1867C46.2635 17.2065 43.7811 17.1867 43.7811 17.1867" stroke="#4F4131" stroke-linecap="round" stroke-linejoin="round"/>
<path d="M42.1594 3.72266C42.4838 3.7359 42.8214 3.77561 43.1656 3.84181C44.4565 4.09998 45.7606 4.82153 46.2703 6.33745C46.9124 8.25717 46.2703 10.3556 46.2703 10.3556" stroke="#4F4131" stroke-linecap="round" stroke-linejoin="round"/>
<path d="M28.7613 18.2207C29.0129 19.7631 30.3037 20.9149 30.3037 20.9149" stroke="#4F4131" stroke-linecap="round" stroke-linejoin="round"/>
<path d="M28.7603 22.0645C29.654 22.9581 32.8447 22.9581 34.1289 22.3226" stroke="#4F4131" stroke-linecap="round" stroke-linejoin="round"/>
<path d="M32.9117 56.1977C32.21 55.5556 32.9117 50.5312 32.9117 50.5312C32.9117 50.5312 33.5405 50.7762 34.5136 51.1469C35.1624 51.3984 35.9633 51.7096 36.8305 52.0405C40.2728 53.3579 44.761 55.0393 45.0919 54.9929C45.6281 54.9135 50.209 50.5312 50.209 50.5312V65.3263C50.209 65.3263 48.2231 67.1666 46.3894 68.4707C46.0981 68.6759 45.8069 68.8745 45.5222 69.04C45.0919 69.2982 44.6948 69.5034 44.3572 69.6159C42.4374 70.258 34.7652 65.7831 34.7652 65.7831" stroke="#4F4131" stroke-linecap="round" stroke-linejoin="round"/>
<path d="M29.4227 58.3422L33.2158 57.3095L33.9969 57.0977L37.9092 60.1096" stroke="#4F4131" stroke-linecap="round" stroke-linejoin="round"/>
<path d="M33.6726 59.0957L37.2803 61.1875L38.5977 61.9488" stroke="#4F4131" stroke-linecap="round" stroke-linejoin="round"/>
<path d="M33.6726 61.3066L37.9092 62.9814" stroke="#4F4131" stroke-linecap="round" stroke-linejoin="round"/>
<path d="M32.9113 62.9824L37.2075 63.9688L37.9092 64.1276" stroke="#4F4131" stroke-linecap="round" stroke-linejoin="round"/>
<path d="M37.3203 65.7828C37.3203 65.6372 37.1416 65.5511 36.8569 65.4982C36.3737 65.4055 35.5727 65.3923 34.7717 65.3724C33.8847 65.3393 33.0175 65.2797 32.5938 65.0547C31.5678 64.5052 29.423 63.5586 29.423 63.5586" stroke="#4F4131" stroke-linecap="round" stroke-linejoin="round"/>
<path d="M23.5183 51.4299C23.8956 51.7212 27.9271 51.8536 29.4231 53.3894C29.4231 53.3894 29.0326 55.7394 28.728 58.2482C28.503 60.0025 28.3242 61.8361 28.3375 62.988C28.3375 63.1799 28.3573 63.4116 28.3838 63.6698C28.5493 65.3115 29.1649 68.1249 29.6085 70.7926C29.8004 71.9776 29.9726 73.136 30.052 74.1555C30.1711 75.5986 30.1182 76.757 29.7342 77.2998C28.8737 78.5046 24.743 78.9547 21.817 79.1136C20.1025 79.2129 18.7985 79.2129 18.7985 79.2129C18.7985 79.2129 17.0376 73.5861 15.5746 68.8928C14.7339 66.2118 13.9925 63.8287 13.741 62.988C13.2114 61.2337 14.7869 51.1519 16.1837 45.4192C16.6338 43.5525 17.0773 42.1491 17.4149 41.6393C18.7918 39.574 20.8903 32.3717 22.7107 31.8223C23.6573 31.5377 26.2523 30.9882 28.5559 30.5314C30.714 30.0879 32.6006 29.7305 32.6006 29.7305" stroke="#4F4131" stroke-linecap="round" stroke-linejoin="round"/>
<path d="M32.21 31.2656C32.2762 31.3318 32.3954 31.5437 32.5675 31.8879C33.0375 32.8279 33.8716 34.7079 34.8314 36.9321C37.3006 42.6185 40.584 50.5356 40.584 50.5356L37.0491 51.4359" stroke="#4F4131" stroke-linecap="round" stroke-linejoin="round"/>
<path d="M28.7606 31.8242C29.6542 32.5524 34.7646 50.4455 34.7646 50.4455" stroke="#4F4131" stroke-linecap="round" stroke-linejoin="round"/>
<path d="M25.9749 39.7734C26.4582 40.8525 26.7693 47.9819 25.9749 48.571" stroke="#4F4131" stroke-linecap="round" stroke-linejoin="round"/>
<path d="M24.5039 48.5786C22.6239 47.248 21.0683 46.8906 19.6119 47.7114C18.149 48.5322 17.5069 53.0072 17.5069 53.0072" stroke="#4F4131" stroke-linecap="round" stroke-linejoin="round"/>
<path d="M24.0215 49.5449C22.6181 49.8097 20.0629 53.7948 19.7385 54.9996C19.4208 56.2044 20.1754 60.5204 20.1754 60.5204" stroke="#4F4131" stroke-linecap="round" stroke-linejoin="round"/>
<path d="M40.1602 31.2656C40.094 31.2656 39.8093 31.537 39.3923 31.9607C37.9094 33.4766 34.8313 36.9321 34.8313 36.9321" stroke="#4F4131" stroke-linecap="round" stroke-linejoin="round"/>
<path d="M40.1605 30.7383L43.1924 32.1417" stroke="#4F4131" stroke-linecap="round" stroke-linejoin="round"/>
<path d="M42.1592 33.7227L37.9093 41.3486" stroke="#4F4131" stroke-linecap="round" stroke-linejoin="round"/>
<path d="M43.3508 32.9082C43.4964 33.0472 43.6818 33.2524 43.9002 33.5239C45.1182 35.0861 47.2167 38.6409 48.256 41.1299C49.4674 44.0492 50.7715 49.8017 51.0826 50.4372C51.1687 50.6226 51.2084 50.7815 51.215 50.9139C51.2349 51.2515 51.0826 51.4302 51.0826 51.4302" stroke="#4F4131" stroke-linecap="round" stroke-linejoin="round"/>
<path d="M47.8193 50.1325C45.6348 49.8082 44.9861 52.9989 44.9861 52.9989" stroke="#4F4131" stroke-linecap="round" stroke-linejoin="round"/>
<path d="M51.2152 53C51.4998 53.2648 51.7779 53.5296 52.0294 53.7944C53.6248 55.4692 54.5979 57.2763 54.8825 60.0301C55.2201 63.2209 54.8825 67.1861 52.4928 69.6751C50.1097 72.1707 48.2496 73.7264 48.2496 73.7264L46.396 68.4769" stroke="#4F4131" stroke-linecap="round" stroke-linejoin="round"/>
<path d="M49.4676 68.9784C49.4676 68.9784 52.5259 62.9876 52.2744 62.1535C52.0228 61.3128 50.6922 60.0352 50.6922 60.0352" stroke="#4F4131" stroke-linecap="round" stroke-linejoin="round"/>
<path d="M44.0063 51.5557C44.2975 49.4705 46.2702 49.166 47.2764 49.166L49.4609 50.5363" stroke="#4F4131" stroke-linecap="round" stroke-linejoin="round"/>
<path d="M44.9863 56.3359L44.0066 67.8145" stroke="#4F4131" stroke-linecap="round" stroke-linejoin="round"/>
<path d="M44.9856 71.2031C45.0452 71.2826 45.0982 71.3686 45.1578 71.4613C45.7933 72.4079 46.5876 73.6789 45.5218 74.791C45.4159 74.8969 45.2107 74.983 44.9194 75.0492C42.0332 75.6781 30.9254 74.0959 30.9254 74.0959" stroke="#4F4131" stroke-linecap="round" stroke-linejoin="round"/>
<path d="M37.3203 68.4844L29.6083 70.7947" stroke="#4F4131" stroke-linecap="round" stroke-linejoin="round"/>
<path d="M32.9111 65.782C32.8449 65.1399 31.5739 66.2123 30.9318 66.636" stroke="#4F4131" stroke-linecap="round" stroke-linejoin="round"/>
<path d="M15.2832 45.42C12.3904 45.334 9.27912 45.334 8.92166 46.9293C8.56419 48.5247 5.96264 60.6652 5.9825 61.9495C6.00236 62.8895 7.92869 64.69 8.95475 65.5837C9.32545 65.9014 9.577 66.1133 9.577 66.1133" stroke="#4F4131" stroke-linecap="round" stroke-linejoin="round"/>
<path d="M8.4318 61.3066C8.86871 62.3923 11.0135 64.7092 12.7942 66.5164C12.9134 66.6421 13.0325 66.7613 13.1517 66.8804C14.3432 68.0786 15.2832 68.9723 15.2832 68.9723" stroke="#4F4131" stroke-linecap="round" stroke-linejoin="round"/>
<path d="M20.7311 84.8066C20.9101 84.8332 21.0029 84.853 21.0029 84.853" stroke="#4F4131" stroke-linecap="round" stroke-linejoin="round"/>
<path d="M12.8336 67.8145C12.8336 67.8145 12.6946 68.0462 12.4629 68.4433C11.2118 70.6146 7.23998 77.8566 8.43153 80.2331C9.61646 82.6029 17.7455 84.2645 20.2676 84.7278" stroke="#4F4131" stroke-linecap="round" stroke-linejoin="round"/>
<path d="M21.8507 79.9082C21.7051 80.4444 22.0559 82.4899 22.612 85.1643C23.969 91.7244 26.5441 102.071 25.9748 103.196C25.1804 104.779 22.9231 115.708 21.8176 116.959C20.7055 118.203 13.351 129.708 10.6369 130.662C9.60421 131.026 10.1735 131.873 11.3584 132.787C13.2583 134.256 16.7204 135.891 17.5082 135.971C18.7924 136.103 40.28 132.264 41.6768 130.668C42.4579 129.768 42.8882 129.159 43.1199 128.795C43.2986 128.517 43.3516 128.384 43.3516 128.384" stroke="#4F4131" stroke-linecap="round" stroke-linejoin="round"/>
<path d="M44.9863 123.473L43.7153 126.504" stroke="#4F4131" stroke-linecap="round" stroke-linejoin="round"/>
<path d="M44.9928 75.3672C46.9125 77.9224 51.917 91.8106 52.2943 95.7295C52.665 99.655 53.2012 114.066 52.2943 116.131C51.3874 118.19 50.2091 120.05 50.2091 120.05C50.2091 120.05 50.4011 137.857 51.2153 139.532C51.9369 141.028 41.3916 137.632 37.9428 136.884C37.5323 136.792 37.2146 136.739 37.0359 136.739" stroke="#4F4131" stroke-linecap="round" stroke-linejoin="round"/>
<path d="M44.4961 129.676C44.4961 129.676 43.1589 134.713 42.1527 136.037C41.6959 136.646 39.8821 136.838 37.9426 136.878C35.6389 136.924 33.1499 136.739 32.5938 136.732C31.5678 136.719 24.2662 139.228 21.85 138.937C19.4272 138.639 15.5017 138.275 13.6349 137.183C11.7549 136.09 11.8608 134.899 11.8608 134.899" stroke="#4F4131" stroke-linecap="round" stroke-linejoin="round"/>
<path d="M43.3516 40.959C42.747 41.3164 42.4447 41.707 42.4447 42.1307V52.3581" stroke="#4F4131" stroke-linecap="round" stroke-linejoin="round"/>
<path d="M32.8454 15.4004C32.8454 15.129 33.5405 14.6523 34.1296 14.6523C34.7188 14.6523 35.4072 15.129 35.4072 15.4004C35.4072 15.6718 34.7122 15.9299 34.1296 15.9299C33.5471 15.9299 32.8454 15.6652 32.8454 15.4004Z" stroke="#4F4131" stroke-linecap="round" stroke-linejoin="round"/>
<path d="M25.8213 14.8503C25.8213 14.559 26.523 14.2214 27.0989 14.367C27.6682 14.5127 27.9661 15.0952 27.741 15.3401C27.5226 15.5718 26.8474 15.4791 26.4568 15.3401C26.3377 15.2938 25.8081 15.1084 25.8213 14.8569V14.8503Z" stroke="#4F4131" stroke-linecap="round" stroke-linejoin="round"/>
</svg>
