<svg width="52" height="138" viewBox="0 0 52 138" fill="none" xmlns="http://www.w3.org/2000/svg">
<path d="M10.0734 118.168C7.56485 119.477 5.32033 121.271 3.49592 123.432C1.62949 125.64 0.165152 128.593 1.01135 131.353C1.6715 133.502 3.63995 135.056 5.77044 135.782C7.90093 136.509 10.1935 136.551 12.444 136.563C20.1137 136.587 27.9275 136.31 35.1592 133.754C39.2221 132.314 43.3931 129.727 44.4733 125.556C45.5956 121.241 42.8289 116.632 38.97 114.399C35.1112 112.167 30.4421 111.867 25.9951 112.095C21.9501 112.305 17.8812 112.929 14.1604 114.537C10.4395 116.146 7.09074 118.81 5.20031 122.393" fill="#D3B25B"/>
<path d="M4.84277 122.214C4.8608 122.292 4.981 122.316 5.0411 122.154L4.92691 121.949L4.84277 122.214Z" fill="#C6B08D"/>
<path d="M5.74967 121.391C5.77368 121.169 5.76167 120.875 5.53962 120.887C5.58763 121.163 5.49761 121.163 5.57563 121.469C5.50362 121.625 5.35958 121.691 5.31757 121.631C5.32958 121.709 5.14953 121.847 5.20955 121.985C5.4496 121.865 5.59364 121.625 5.65365 121.307C5.72567 121.277 5.73767 121.355 5.75567 121.391H5.74967Z" fill="#C6B08D"/>
<path d="M29.8154 112.449C29.7372 112.449 29.7072 112.467 29.7012 112.485C29.7733 112.473 29.8334 112.467 29.8154 112.449Z" fill="#C6B08D"/>
<path d="M31.5309 112.79C31.4948 112.784 31.4648 112.772 31.4287 112.766C31.4648 112.79 31.5008 112.802 31.5309 112.79Z" fill="#C6B08D"/>
<path d="M19.6191 113.145H19.9016C19.9076 113.085 19.7574 113.133 19.6191 113.145Z" fill="#C6B08D"/>
<path d="M6.76322 119.231C6.73317 119.285 6.71514 119.333 6.70312 119.381L6.78125 119.255L6.76322 119.225V119.231Z" fill="#C6B08D"/>
<path d="M15.3456 114.537L15.2675 114.567C15.2675 114.567 15.2435 114.633 15.2314 114.669L15.3456 114.543V114.537Z" fill="#C6B08D"/>
<path d="M12.2669 116.015C12.339 115.985 12.2789 115.822 12.2669 115.744C12.2669 115.822 12.2308 115.882 12.1768 115.93C12.1888 115.96 12.2188 115.985 12.2669 116.015Z" fill="#C6B08D"/>
<path d="M7.79613 119.104L7.74805 119.188C7.74805 119.188 7.78411 119.128 7.79613 119.104Z" fill="#C6B08D"/>
<path d="M17.6924 113.811C17.6924 113.811 17.7222 113.852 17.7401 113.858C17.7401 113.84 17.7162 113.822 17.6924 113.811Z" fill="#C6B08D"/>
<path d="M6.19336 119.74C6.19336 119.74 6.20517 119.751 6.21107 119.763C6.21697 119.74 6.21107 119.722 6.19336 119.74Z" fill="#C6B08D"/>
<path d="M10.094 118.209L10.0459 118.245C10.0579 118.275 10.0639 118.305 10.082 118.335L10.094 118.209Z" fill="#C6B08D"/>
<path d="M34.5687 113.529C34.5687 113.529 34.5627 113.529 34.5567 113.523C34.4726 113.523 34.5206 113.529 34.5687 113.529Z" fill="#C6B08D"/>
<path d="M35.9548 132.703C36.3154 132.721 35.5341 133.088 36.051 133.052C35.9849 133.01 36.3695 132.637 35.9548 132.703Z" fill="#C6B08D"/>
<path d="M6.8418 119.175L6.93795 119.061C6.88988 119.109 6.85983 119.145 6.8418 119.175Z" fill="#C6B08D"/>
<path d="M40.7737 116.667C40.7857 116.637 40.7737 116.601 40.7737 116.564C40.7616 116.576 40.7616 116.607 40.7737 116.667Z" fill="#C6B08D"/>
<path d="M36.4111 113.738L36.5313 113.804C36.4893 113.774 36.4472 113.756 36.4111 113.738Z" fill="#C6B08D"/>
<path d="M42.6886 118.617C42.7187 118.683 42.7127 118.713 42.7788 118.785C42.7788 118.773 42.7788 118.761 42.7788 118.749C42.7427 118.731 42.7067 118.695 42.6826 118.617H42.6886Z" fill="#C6B08D"/>
<path d="M43.8764 121.205C43.8764 121.205 43.8884 121.163 43.8945 121.145C43.8824 121.121 43.8704 121.085 43.8584 121.061L43.8764 121.205Z" fill="#C6B08D"/>
<path d="M0.480469 127.211C0.546576 127.157 0.612684 127.133 0.672782 127.121C0.540567 127.127 0.654752 126.664 0.480469 127.211Z" fill="#C6B08D"/>
<path d="M6.83549 119.296C6.81746 119.254 6.81746 119.218 6.83549 119.182L6.77539 119.266C6.77539 119.266 6.80544 119.308 6.82948 119.302L6.83549 119.296Z" fill="#C6B08D"/>
<path d="M43.8828 118.012L44.1172 118.468C44.0631 118.336 43.973 118.168 43.8828 118.012Z" fill="#C6B08D"/>
<path d="M16.4441 137.221L16.3359 137.245C16.378 137.245 16.4201 137.245 16.4441 137.221Z" fill="#C6B08D"/>
<path d="M44.801 119.824C44.777 119.932 44.783 120.035 44.801 120.137C44.819 120.155 44.8371 120.173 44.8611 120.179L44.807 119.824H44.801Z" fill="#C6B08D"/>
<path d="M1.86043 123.989C1.57836 124.385 1.90844 124.295 1.96245 124.451C1.71039 124.961 1.68039 124.583 1.48234 124.685C1.34431 125.027 1.38032 125.363 1.25429 125.591C1.21228 125.591 1.17627 125.633 1.16427 125.555C1.13426 125.957 0.684157 126.581 0.744171 127.074C0.714164 127.098 0.690158 127.11 0.672154 127.11C0.798183 127.08 0.906208 127.11 0.978224 127.146C0.91821 127.35 0.990227 127.554 0.82819 127.59C0.870199 127.47 0.822188 127.44 0.798183 127.368V127.596C0.528121 127.728 0.810186 127.29 0.666153 127.242C0.582133 127.68 0.642147 128.214 0.528121 128.526C0.30607 128.562 0.61214 127.74 0.342078 128.148C0.402092 127.98 0.48011 127.818 0.546125 127.656C0.13203 127.962 0.648149 127.35 0.222051 127.62C0.096022 127.956 0.0840193 128.16 0.0780179 128.364C0.0600138 128.568 0.0660151 128.766 0 129.126C0.096022 129.294 0.168039 129.084 0.270062 129.252C0.34808 129.75 0.234054 129.942 0.13203 130.116C0.0180041 130.29 -0.0780179 130.446 0.120028 130.806C0.282065 130.98 0.552127 130.986 0.558128 131.527C0.462106 131.491 0.378087 131.455 0.288066 131.419C0.486111 132.103 0.708162 131.695 0.852195 132.409C0.714164 132.337 0.558128 131.941 0.576132 132.049C0.600138 132.559 0.82819 132.307 0.996228 132.619L0.852195 132.787C1.24829 133.435 1.88443 133.963 2.49057 134.461C2.41855 134.479 2.27452 134.431 2.37054 134.605C3.19273 135.205 4.09294 135.896 4.96314 136.37C5.10117 136.37 5.2392 136.352 5.37123 136.34C5.44925 136.37 5.49726 136.472 5.39524 136.472C5.73131 136.664 5.44925 136.376 5.64129 136.37C5.84534 136.424 5.87535 136.55 5.73131 136.562C6.40947 136.64 7.59174 136.712 8.23389 136.976L8.09585 137.012C8.61197 137.15 8.726 136.73 9.18811 136.934L9.09208 136.958C10.2143 137.132 11.4506 136.982 12.2908 137.252C12.4529 137 13.3831 137.366 13.4551 137.012C14.0852 137.186 13.9052 137.252 14.7934 137.36C15.0334 137.372 15.1475 137.138 15.4355 137.096L15.4475 137.282L15.8436 137.084L16.0597 137.3L16.3357 137.246C16.2277 137.234 16.1017 137.168 16.1197 137.114C16.5458 137.024 17.1699 137.222 17.1819 137.318L18.1962 137.132C18.1782 137.204 18.0041 137.234 17.8721 137.288C18.4122 137.084 17.9741 137.48 18.4722 137.288C18.4062 137.246 18.5022 137.174 18.5142 137.138C18.7663 137.24 19.3304 137.222 19.7505 137.156L19.6785 137.288C20.4407 137.282 21.2749 137.144 22.1211 137.078C21.809 137.042 21.869 136.814 22.1151 136.778L22.2291 136.964C22.3791 136.832 21.965 136.91 22.2831 136.736C22.6012 136.736 22.5112 136.94 22.3371 137.018L22.7152 136.922C22.7452 136.976 22.6552 137.018 22.6372 137.096C22.7872 136.958 23.3213 137.234 23.5314 137L23.5614 137.054C24.4136 136.982 24.7917 136.856 25.4818 136.772C25.4758 136.604 25.7459 136.604 25.9379 136.442C26.4481 136.43 27.0302 136.484 27.6363 136.364C28.0504 136.214 27.7384 136.202 27.9124 136.07C27.9664 136.214 28.5725 136.106 28.2785 136.262C28.9986 136.1 29.2027 136.064 30.0969 135.752C29.9829 135.71 29.8688 135.71 29.9169 135.644C30.0789 135.584 30.3069 135.626 30.3009 135.698L30.2589 135.722C31.2252 135.283 32.7315 135.59 33.4517 135.037L33.4097 135.067C33.6737 134.929 33.9378 134.803 34.1898 134.653C34.5799 134.551 33.9978 134.839 34.3099 134.833C35.12 134.299 35.7382 134.401 36.4043 133.945C37.1485 134.155 38.3608 133.063 39.207 132.895L39.111 132.823C39.249 132.631 39.369 132.751 39.5131 132.691C39.453 132.631 39.267 132.727 39.351 132.607C40.8274 131.587 42.5618 130.626 43.816 129.084C44.0501 128.808 43.9721 128.634 43.9541 128.472C43.9241 128.304 43.9541 128.16 44.2661 127.83L44.3202 128.154C44.5662 127.464 44.8963 126.816 45.1003 126.107C45.3344 125.417 45.4484 124.673 45.4004 123.977C45.4364 124.061 45.4964 124.067 45.4844 124.205C45.6765 123.917 45.5024 123.095 45.3944 123.101C45.3944 122.885 45.4964 123.047 45.5444 122.909C45.5924 122.603 45.2984 122.182 45.3944 122.014C45.4124 121.984 45.4544 122.086 45.4784 122.14C45.3764 121.96 45.3224 121.246 45.1964 121.468C45.1483 120.94 44.8723 120.526 44.8123 120.118C44.6742 120.028 44.6202 119.812 44.5542 119.626C44.4822 119.44 44.4102 119.284 44.2721 119.302C44.4042 119.26 44.3562 119.032 44.2361 118.786C44.1041 118.546 43.9061 118.294 43.774 118.186C43.9001 118.234 43.696 117.897 43.8641 117.945C43.654 117.633 43.42 117.381 43.3419 117.519C43.2879 117.141 43.0059 116.919 42.7778 116.709C42.5438 116.511 42.3277 116.349 42.3517 116.061C41.4875 115.353 40.6473 114.795 39.8071 114.309C39.9992 114.087 40.6953 114.915 40.8394 114.663C40.0112 114.189 39.441 114.081 38.6729 113.606C38.4808 113.462 38.8469 113.564 38.9369 113.564C38.0787 113.222 37.3346 112.76 36.5124 112.634C36.5244 112.61 36.6144 112.616 36.6984 112.622C36.5424 112.58 36.3563 112.46 36.3383 112.586L36.4944 112.604C36.6744 112.856 35.7802 112.748 35.7262 112.844C36.0863 112.586 34.994 112.532 35.5281 112.226C35.4201 112.22 35.2761 112.238 35.2821 112.322C35.1381 112.262 35.102 112.202 35.2821 112.148C34.706 112.076 34.874 112.244 34.3759 112.124C34.3879 112.064 34.4959 112.064 34.5679 112.01C34.2859 112.064 34.0098 112.13 33.5897 111.992C33.6197 111.962 33.5837 111.902 33.7097 111.932C32.9656 111.818 32.4134 112.028 31.6212 111.836C31.8853 111.602 31.3572 111.722 31.3332 111.5C31.1831 111.506 31.0391 111.518 30.8891 111.53L31.0571 111.65C30.673 111.626 30.331 111.752 30.0069 111.674L30.2949 111.596L29.5748 111.608L29.9769 111.71C29.5868 111.812 30.0069 111.992 29.5028 111.914C29.6048 111.89 29.1247 111.902 28.9266 111.77C28.7346 111.836 28.5425 111.908 28.2665 111.854C28.1945 111.782 28.3265 111.608 28.2785 111.56C28.0924 111.746 27.3843 111.62 27.1562 111.83C27.2342 111.782 27.2342 111.662 27.2102 111.638L27.0602 111.794C26.8802 111.752 26.8562 111.728 26.8802 111.632C26.352 111.626 27.0602 111.908 26.4301 111.812C26.4781 111.8 26.4541 111.776 26.5561 111.746C25.9199 111.71 25.3438 111.902 24.7677 111.872C24.5816 111.662 25.2658 111.782 25.0617 111.602C24.2276 111.698 23.3574 112.01 22.5472 112.058H22.6972C22.6252 112.394 22.0791 111.98 21.695 112.19C21.791 112.154 21.803 111.998 21.779 112.034C21.2209 112.058 20.6627 112.28 19.8586 112.532L19.9426 112.43C19.6065 112.424 19.0904 112.556 18.7363 112.604C18.6523 112.706 18.4542 112.742 18.5983 112.826C17.416 112.628 16.6598 113.594 15.6336 113.546C15.7416 113.51 15.8736 113.39 15.7836 113.42C15.5316 113.528 15.2795 113.648 15.0274 113.775C15.1355 113.883 15.1595 113.817 15.3575 113.853C15.2915 113.967 15.0935 114.111 14.9074 114.177C15.2195 113.961 14.8234 113.967 14.6434 113.961C14.6854 113.991 14.6494 114.057 14.6794 114.087C14.1873 114.021 14.7214 114.369 14.1152 114.441V114.363C13.9292 114.489 13.7852 114.657 13.5631 114.735C13.4071 114.633 13.7431 114.573 13.7011 114.447C13.3951 114.591 13.239 114.999 12.903 114.993C13.011 114.891 13.191 114.801 13.299 114.699C12.921 114.675 12.909 114.735 12.6749 114.819H12.6989L12.1588 115.005L12.3088 114.981C12.1408 115.545 11.6007 115.461 11.2646 115.995C11.5887 115.485 11.2646 115.821 11.1986 115.641C11.0485 115.677 10.8325 115.749 10.8565 115.671C10.7125 115.935 10.4124 115.815 10.2203 116.217C10.1723 116.181 9.98029 116.379 9.94428 116.217C9.68622 116.457 10.0703 116.253 10.0883 116.331C9.77624 116.799 8.91804 116.895 8.51595 117.621C8.08985 118.15 8.14987 118.384 7.78978 118.882C7.57974 118.966 7.75378 118.612 7.75378 118.612C7.46571 118.798 7.29767 118.984 7.14164 119.266C7.14164 119.182 7.06962 119.206 6.95559 119.236C6.79956 119.44 7.00961 119.506 6.72154 119.698C6.70954 119.614 6.67353 119.488 6.70954 119.356C6.5475 119.614 6.45748 119.926 6.30745 120.196C6.17542 120.196 6.30144 119.956 6.31345 119.824C6.1274 120.124 5.84534 120.61 5.91736 120.79L6.0914 120.64C6.02538 120.748 5.94136 120.616 5.97137 120.52C6.03738 120.196 6.27144 120.202 6.32545 120.226C6.28944 120.292 6.25343 120.358 6.22343 120.424C6.63152 120.448 6.70954 119.692 7.02161 119.368L7.09363 119.668L7.23166 119.194C7.34568 119.164 7.48972 119.212 7.37569 119.398C7.67576 119.248 7.49572 119.134 7.77778 119.032C7.81379 119.026 7.81379 119.044 7.80179 119.068L7.95782 118.798C7.95782 118.876 8.11986 118.888 7.96383 118.996C8.44394 118.714 8.45594 118.246 8.738 118.246L8.714 118.288C9.21811 117.723 8.64198 118.101 8.93005 117.561L9.51818 117.663L9.45817 117.471C9.52418 117.429 9.65021 117.339 9.67422 117.417C9.82425 117.141 9.5842 117.381 9.64421 117.189C10.0403 117.093 10.4364 116.505 10.6764 116.697C10.7065 116.505 10.3224 116.817 10.5924 116.505C10.8625 116.697 10.9465 116.199 11.3186 116.133C11.3186 116.325 11.0005 116.427 11.3666 116.367C11.3906 116.019 11.9607 116.073 12.1828 115.881C12.0868 115.683 12.6809 115.497 13.083 115.215C13.083 115.287 13.9532 114.921 14.3973 114.819V114.855C14.3973 114.621 14.8354 114.471 15.1355 114.315C15.1715 114.441 15.1355 114.513 14.9854 114.633L15.2795 114.519C15.3215 114.429 15.4055 114.357 15.5856 114.261L15.5676 114.441C15.9577 114.291 16.2997 113.973 16.8579 113.919C16.8459 113.763 16.3117 113.642 16.8399 113.366C16.8819 113.438 16.9479 113.57 16.8099 113.649C16.8519 113.624 16.9599 113.528 17.0679 113.534L16.8879 113.739C17.1399 113.726 16.9779 113.588 17.1759 113.546C17.2059 113.66 17.344 113.588 17.338 113.685C17.29 113.709 17.1579 113.685 17.0979 113.751C17.32 113.709 17.596 113.703 17.7041 113.769C17.668 113.709 17.662 113.612 17.8121 113.552C18.2202 113.438 17.9861 113.655 18.2442 113.655C18.3222 113.552 18.6043 113.564 18.5683 113.39C18.6883 113.366 18.7303 113.438 18.7903 113.474C18.9823 113.342 19.7805 113.234 19.5045 113.102H19.4445C19.4445 113.102 19.4685 113.09 19.4805 113.084C20.1526 112.76 20.9688 112.904 21.659 112.724V112.784C22.0791 112.652 22.6012 112.616 22.8892 112.454C23.0153 112.436 23.1953 112.532 23.1533 112.604C23.4714 112.526 23.5014 112.454 23.9815 112.508C23.6634 112.64 24.1015 112.586 23.6514 112.616C24.0775 112.628 24.1795 112.712 24.6176 112.514C24.4736 112.676 24.9477 112.682 25.1458 112.622L24.8397 112.538C25.0617 112.502 25.2598 112.496 25.4638 112.502L25.3678 112.706C26.238 112.892 26.9102 112.214 27.5763 112.604C27.8044 112.46 27.1082 112.52 27.3063 112.352C27.7083 112.364 28.1224 112.652 28.2425 112.652C28.7826 112.76 28.7466 112.364 29.3167 112.448C29.2447 112.376 29.1787 112.178 29.6108 112.13C30.0129 112.172 30.0849 112.448 29.8328 112.496C29.7368 112.496 29.6948 112.472 29.6948 112.448C29.5628 112.466 29.3947 112.49 29.5508 112.574L29.6048 112.502C29.7968 112.58 30.343 112.598 30.2049 112.712C30.505 112.664 30.337 112.604 30.1209 112.556C30.619 112.694 30.9131 112.604 31.4232 112.73C31.3452 112.682 31.2792 112.592 31.3572 112.604C32.1074 112.766 31.7053 112.502 32.2274 112.532C32.5034 112.676 32.0894 112.778 32.6175 112.754C32.9175 112.88 32.6535 112.952 32.5215 112.988C33.0076 112.928 33.3736 113.21 33.6257 113.294H33.3736C33.5237 113.294 33.6377 113.324 33.7577 113.348L33.6497 113.18C33.7877 113.234 33.9078 113.258 33.8898 113.318C34.0578 113.258 33.8238 113.066 34.1478 113C34.3219 113.108 34.742 113.066 34.76 113.264C34.1838 113.054 34.778 113.462 34.2739 113.372C34.3759 113.372 34.4899 113.402 34.6219 113.462C34.6399 113.486 34.5919 113.492 34.5499 113.498C35.066 113.799 34.862 113.354 35.4381 113.528C35.3361 113.606 35.5101 113.763 35.6122 113.769C35.3841 113.697 35.5521 113.564 35.7922 113.552C36.1283 113.757 36.2063 113.63 36.3983 113.709L36.1943 113.594C36.3023 113.522 36.4884 113.594 36.7524 113.666C36.7464 113.751 36.5064 113.624 36.5784 113.696C36.9265 113.642 37.1425 114.117 37.5626 114.189C37.7066 114.339 37.4966 114.381 37.6226 114.495C38.1027 114.561 37.9947 114.849 38.4748 114.975C38.4208 114.789 38.3848 114.801 38.7509 114.849C38.5048 114.741 38.2468 114.651 38.0007 114.555L38.5528 114.615C38.3368 114.501 38.0607 114.447 37.9407 114.363C38.2168 114.363 38.1747 114.393 38.1267 114.231C38.3188 114.585 38.7869 114.423 39.0389 114.765L38.8469 115.059C39.237 115.485 39.8011 115.455 40.3172 116.007L40.1732 115.803C40.3352 115.761 40.5393 116.085 40.7613 116.199C40.6653 116.271 40.7433 116.409 40.7613 116.529C40.8094 116.457 41.1454 116.907 41.3555 116.799L41.4635 117.153C41.8176 117.633 42.1597 117.465 42.4957 117.957C42.2917 117.891 42.3817 118.15 42.0696 117.897C42.1897 118.047 42.2677 118.204 42.3337 118.156C42.3337 118.288 42.7658 118.51 42.7658 118.72C42.8498 118.762 42.9698 118.72 43.0719 118.918C43.0659 118.948 43.0179 118.948 43.0179 118.948C43.0659 118.918 43.2579 119.206 43.2759 118.978C43.2759 119.326 43.444 119.704 43.636 120.07C43.792 120.448 43.9661 120.814 43.8761 121.114C44.0441 121.498 44.1761 121.99 44.2541 122.368C44.2181 122.35 44.2001 122.374 44.2001 122.302C44.1461 122.837 44.5842 122.585 44.5062 123.209C44.3202 123.527 44.3982 122.891 44.3262 123.089C44.1341 123.143 44.1461 123.317 44.1821 123.533C44.2001 123.641 44.2241 123.761 44.2241 123.875C44.2181 123.989 44.1881 124.103 44.1221 124.193L44.1101 124.097C44.0321 124.241 44.0501 124.421 44.0801 124.637C44.0861 124.847 44.1041 125.087 44.0381 125.327C44.0381 125.327 44.0081 125.297 43.9841 125.309C44.0981 125.681 43.9541 126.341 43.798 126.81C43.72 126.605 43.81 126.569 43.63 126.593C43.564 126.804 43.8941 126.635 43.738 127.056C43.594 127.146 43.3779 127.392 43.2159 127.344L43.3959 126.984C43.1019 127.062 43.1679 127.452 43.0119 127.608L42.9458 127.536C42.6458 128.07 42.8198 128.208 42.3877 128.736L42.4837 128.724C42.4237 129.162 42.1777 128.874 42.0576 129.27L41.8116 129.192C41.6856 129.402 41.3675 129.966 41.0434 130.284C41.1334 129.99 41.4455 129.576 41.5955 129.282C41.4275 129.45 41.0194 129.858 40.9894 130.02C41.0494 129.936 41.1034 129.816 41.2054 129.78C41.0974 130.104 40.8634 130.452 40.4613 130.74C40.2632 130.326 39.357 131.401 38.8469 131.257C38.1988 131.845 37.3286 132.025 36.4283 132.445C36.8965 132.631 36.1643 132.571 36.3623 132.883C36.1523 132.997 36.0683 133.021 36.0383 133.009C35.7922 133.033 35.5401 133.051 35.2941 133.063C35.096 133.021 35.4741 132.907 35.4261 132.841C34.934 132.991 35.1681 132.769 34.82 132.793C34.928 132.895 34.712 133.027 34.4179 133.075L34.868 133.105C34.2438 133.519 34.1778 133.009 33.5477 133.423L33.7277 133.243C33.3977 133.429 32.4134 133.633 32.1374 134.017C32.0593 133.993 31.9513 133.915 32.1014 133.849C31.6633 133.939 31.2012 134.143 30.757 134.311C30.3069 134.473 29.8748 134.617 29.5208 134.599L29.5688 134.497C29.4127 134.557 29.3167 134.719 29.0947 134.671C29.0947 134.635 29.1427 134.569 29.0647 134.581C28.9866 134.629 28.6566 134.821 28.4285 134.809L28.5966 134.677C27.7204 134.731 27.3123 135.145 26.5921 135.325C26.5561 135.061 25.8599 135.073 25.5118 135.073V135.037C24.5036 135.127 23.8255 135.457 22.8832 135.644C22.2711 135.415 20.8848 135.68 19.9306 135.56C20.0746 135.602 19.9186 135.764 19.7505 135.8C19.5285 135.758 19.1444 136.01 19.1684 135.764H19.2464C19.0664 135.536 18.6163 135.614 18.2562 135.626L18.2082 135.944C17.26 135.511 15.7596 136.172 15.2435 135.764C15.0154 135.842 14.7394 135.848 14.5173 135.926L14.5293 135.758C13.9052 135.722 13.5931 135.698 12.8129 135.74L12.969 135.62C12.5309 135.608 12.4168 136.112 12.0148 136.118L11.8947 135.866C11.1326 135.866 10.3824 135.626 9.63821 135.806C9.65021 135.77 9.68022 135.698 9.80025 135.698C9.44617 135.68 8.48594 135.415 8.56996 135.764C8.58797 135.542 7.82579 135.644 7.4117 135.662L7.50172 135.512C7.13564 135.656 7.10563 135.71 6.63752 135.656C6.5355 135.602 6.57751 135.499 6.70954 135.578C6.37946 135.391 6.38546 135.662 5.98337 135.433L6.17542 135.385C5.82133 135.259 5.83334 135.319 5.59328 135.361C5.34122 135.343 4.93913 135.043 4.96314 134.881C4.87912 134.947 4.63306 134.959 4.45902 134.815C4.45902 134.749 4.54904 134.761 4.59105 134.761C4.10494 134.365 3.68484 134.437 3.43279 134.041C3.46279 133.993 3.45679 133.957 3.43279 133.921C3.81687 134.227 4.15295 134.443 4.11094 134.437C4.18896 134.305 3.88889 134.065 4.25498 134.059C3.9369 133.999 3.34877 133.867 3.11471 133.549C3.11471 133.525 3.10871 133.501 3.11471 133.477L3.15672 133.489C3.10271 133.417 3.0367 133.375 2.96468 133.345C2.89866 133.243 2.86266 133.171 2.78464 133.087C2.84465 132.973 2.55058 132.715 2.44856 132.559C2.32253 132.673 2.1965 132.451 2.22051 132.727C2.21451 132.697 2.25652 132.745 2.34054 132.847C2.36454 132.865 2.38855 132.889 2.40655 132.901H2.38855C2.47857 132.991 2.58059 133.123 2.71262 133.261C2.53858 133.213 2.38255 133.123 2.31653 132.901C2.1725 132.889 2.01646 132.859 1.93244 132.835C1.95045 132.475 1.81842 131.965 1.92644 131.839C1.57236 131.371 1.42833 130.614 1.08025 130.266C1.02624 130.098 1.15827 130.056 1.20028 129.99C1.24228 130.086 1.23628 130.2 1.2903 130.248C1.17027 129.924 1.22428 129.258 1.02624 129.156C1.17027 128.73 1.20028 129.42 1.23028 128.82L1.2903 128.91C1.54235 128.364 1.51835 127.896 1.56636 127.374C1.61437 126.864 1.7284 126.305 2.25052 125.825C2.1785 125.891 2.14849 125.927 2.10648 125.927C2.55659 125.297 2.95868 124.619 3.42679 123.977C3.89489 123.335 4.43502 122.729 5.08917 122.302C5.44325 122.044 5.38323 121.912 5.50326 121.648L5.6953 121.72L5.89335 121.258C6.28944 120.712 7.02761 120.88 7.50772 120.166L7.35168 120.13C7.59774 119.968 8.07185 119.53 8.11386 119.674C8.12586 119.638 8.12586 119.512 8.25189 119.506L8.3119 119.578C8.47994 119.398 8.65998 119.224 8.83402 119.05C9.35014 118.822 8.95405 119.41 9.66221 119.02C9.90227 118.84 10.2864 118.366 10.1543 118.366C10.0463 118.42 9.84826 118.462 9.79424 118.384L10.0163 118.21C9.92628 117.939 9.99829 117.579 9.27813 117.741L8.93005 118.132L8.726 118.096L9.08608 117.879C8.81602 117.885 8.738 118.06 8.63598 118.216C8.56396 118.174 8.47994 118.168 8.37792 118.198L8.10786 118.684C7.99983 118.624 8.17387 118.384 7.8678 118.51C7.74177 118.738 8.18588 118.6 7.91581 118.87C7.65175 118.894 7.64575 118.774 7.47771 119.014C7.4057 118.978 7.4297 118.906 7.50172 118.816C7.34568 119.026 6.9796 119.224 6.9676 119.416C6.67353 119.434 6.32545 119.95 6.18142 119.728C6.15741 119.824 5.97137 120.166 5.80333 120.316C5.91736 119.806 5.14318 120.85 5.00515 120.532C4.96314 120.946 4.26698 121.384 3.99692 121.894C3.99692 121.858 4.00892 121.78 4.05693 121.756C3.82888 121.96 3.70285 121.966 3.52881 122.074C3.67284 122.266 3.39078 122.651 3.33676 122.945C2.91667 123.083 3.27675 122.591 3.0367 122.537C3.19273 122.645 2.74863 123.161 2.95868 123.167C2.66461 123.305 2.74863 123.317 2.50257 123.311C2.70062 123.533 2.37654 123.557 2.37654 123.863C2.01046 124.121 2.08848 123.791 1.89043 124.223C1.68639 124.355 1.84242 123.953 1.84242 123.953L1.86043 123.989ZM2.52658 134.425C2.45456 134.365 2.38855 134.311 2.35254 134.275C2.38855 134.305 2.44256 134.347 2.53258 134.425H2.52658ZM3.26475 135.007C3.17473 134.935 3.0607 134.851 2.94067 134.761C2.95268 134.695 3.01869 134.671 3.09071 134.725C3.02469 134.725 3.18073 134.887 3.26475 135.007ZM2.68862 132.913C2.78464 132.991 2.79064 133.045 2.77264 133.081C2.73063 133.039 2.68261 132.991 2.6166 132.925C2.6106 132.925 2.5986 132.925 2.59259 132.925C2.6226 132.913 2.65861 132.907 2.68862 132.907V132.913Z" fill="#C6B08D"/>
<path d="M2.37117 132.876C2.37117 132.876 2.34713 132.858 2.3291 132.84C2.3291 132.87 2.33511 132.9 2.34713 132.924C2.37117 132.924 2.39521 132.924 2.41925 132.924C2.40122 132.906 2.3892 132.888 2.37117 132.87V132.876Z" fill="#C6B08D"/>
<path d="M19.4925 113.145H19.5104C19.5104 113.145 19.4806 113.139 19.4688 113.127C19.4806 113.127 19.4806 113.139 19.4925 113.145Z" fill="#C6B08D"/>
<path d="M15.4482 137.323V137.275L15.3701 137.317L15.4482 137.323Z" fill="#C6B08D"/>
<path d="M14.6318 113.991C14.6318 113.991 14.5958 113.973 14.5537 113.973C14.5597 113.985 14.5898 113.985 14.6318 113.991Z" fill="#C6B08D"/>
<path d="M12.6626 114.85L12.3682 114.94C12.5004 114.91 12.5905 114.874 12.6626 114.85Z" fill="#C6B08D"/>
<path d="M11.1748 115.588C11.1748 115.624 11.1748 115.648 11.1868 115.666L11.1748 115.588Z" fill="#C6B08D"/>
<path d="M36.6914 112.641C36.6914 112.641 36.7335 112.653 36.7575 112.653C36.9138 112.671 36.8116 112.653 36.6914 112.641Z" fill="#C6B08D"/>
<path d="M28.9141 111.783C28.9982 111.753 29.0763 111.723 29.1665 111.705C29.0282 111.687 28.9201 111.687 28.9141 111.783Z" fill="#C6B08D"/>
<path d="M43.8517 117.963H43.8457L43.8815 118.011L43.8517 117.963Z" fill="#C6B08D"/>
<path d="M29.5266 111.716C29.3884 111.674 29.2742 111.68 29.166 111.704C29.2802 111.716 29.4124 111.734 29.5266 111.716Z" fill="#C6B08D"/>
<path d="M5.82069 120.4L5.7666 120.46C5.7666 120.46 5.77862 120.473 5.78463 120.485L5.82069 120.4Z" fill="#C6B08D"/>
<path d="M5.78606 120.484L5.75 120.568C5.77404 120.532 5.79207 120.502 5.78606 120.484Z" fill="#C6B08D"/>
<path d="M5.67741 120.749L5.74953 120.568C5.71347 120.622 5.65938 120.683 5.67741 120.749Z" fill="#C6B08D"/>
<path d="M7.29079 118.738L7.26074 118.678C7.26074 118.678 7.26675 118.714 7.29079 118.738Z" fill="#C6B08D"/>
<path d="M7.74792 118.246C7.62198 118.342 7.37009 118.438 7.24414 118.63L7.26213 118.678C7.26813 118.534 7.70594 118.42 7.74792 118.246Z" fill="#C6B08D"/>
<path d="M10.3299 117.045L9.86719 117.333C9.98137 117.333 10.1316 117.321 9.95132 117.484C10.6124 117.231 9.753 117.454 10.3299 117.045Z" fill="#C6B08D"/>
<path d="M11.7752 116.206C11.5409 116.38 11.8293 116.284 11.8353 116.326C11.9615 116.181 11.9916 116.145 11.7752 116.206Z" fill="#C6B08D"/>
<path d="M23.2669 112.693L23.2549 112.85C23.4772 112.802 23.2549 112.79 23.2669 112.693Z" fill="#C6B08D"/>
<path d="M25.5423 111.711L25.3139 111.633L25.2178 111.777L25.5423 111.711Z" fill="#C6B08D"/>
<path d="M26.976 112.743L26.8799 112.767L27.2525 112.701L26.976 112.743Z" fill="#C6B08D"/>
<path d="M43.582 120.772L43.7382 120.646C43.6541 120.519 43.4438 120.567 43.582 120.772Z" fill="#C6B08D"/>
<path d="M42.3762 128.652C42.25 128.67 42.0397 128.803 42.0156 128.971C42.1538 128.839 42.3402 128.749 42.3762 128.652Z" fill="#C6B08D"/>
<path d="M17.7822 135.758L17.9565 135.691L17.626 135.751L17.7822 135.758Z" fill="#C6B08D"/>
<path d="M22.041 1.37728C21.6569 1.72536 22.437 2.28949 22.281 3.15969V3.26172C21.5008 3.1897 20.8467 3.15969 20.4806 3.15969C20.0305 3.15969 19.1603 3.24371 18.1761 3.42375L18.1641 3.15969L18.5121 2.47554L18.6802 2.55955C19.1903 1.53932 19.9645 1.0352 20.8107 1.0532H20.8227C21.2608 1.18523 21.7529 1.32927 22.041 1.37728Z" fill="#F5CF24"/>
<path d="M25.3249 1.682C25.3369 1.75402 25.3549 1.80202 25.3549 1.80202C25.3549 1.80202 25.3549 1.75402 25.3249 1.682ZM22.2822 3.15834C22.4382 2.28814 21.658 1.72401 22.0421 1.37593C22.1922 1.23789 22.5042 1.12986 23.1044 1.05185C24.8028 0.823794 25.2229 1.40593 25.3249 1.67599C25.2949 1.42994 25.3789 0.925821 26.6392 1.11186C28.2836 1.35792 28.7217 3.15834 28.7217 3.15834L28.3076 3.8545L27.9055 4.53266L27.7134 4.7667C27.6054 4.68268 27.4974 4.60467 27.3953 4.53266C26.3631 3.81849 24.0166 3.43441 22.2762 3.26037V3.15834H22.2822Z" fill="#F5CF24"/>
<path d="M16.2797 13.9607C16.4958 14.1767 17.462 13.8467 17.48 13.3605C17.492 13.0725 17.168 12.7484 16.8799 12.7604C16.3938 12.7784 16.0637 13.7446 16.2797 13.9607ZM23.4814 13.3605C23.4934 13.0725 23.1693 12.7484 22.8813 12.7604C22.3952 12.7784 22.0651 13.7446 22.2811 13.9607C22.4972 14.1767 23.4634 13.8467 23.4814 13.3605ZM13.8792 19.3619C13.063 17.7295 13.3571 14.4348 13.8012 11.9862L13.033 10.1438C12.6789 8.19337 12.7869 6.28491 13.8072 5.15665C14.5994 4.28045 16.5438 3.72233 18.1762 3.42227C19.1604 3.24222 20.0306 3.1582 20.4807 3.1582C20.8468 3.1582 21.5009 3.18822 22.2751 3.26023C24.0155 3.43427 26.3621 3.81836 27.3943 4.53252C27.4963 4.60454 27.6043 4.68255 27.7124 4.76657C29.1227 5.88882 30.6831 8.04332 30.9711 9.15958C31.0791 9.56767 31.1452 10.2278 31.1932 10.918C31.2832 12.2443 31.2832 13.6846 31.2832 13.6846C31.8173 13.8347 31.9974 14.7349 31.9673 15.7491C31.9493 17.0034 31.6133 18.4317 31.2832 18.7618C30.6831 19.3619 28.3125 18.1796 28.3125 18.1796C28.3125 18.1796 25.8819 21.7625 25.5579 22.3986C25.4739 22.5546 25.1138 22.7107 24.5857 22.8487C24.1656 22.9627 23.6314 23.0648 23.0433 23.1548C21.4349 23.4008 19.4005 23.5629 18.0802 23.5629C17.48 23.5629 16.9939 23.4489 16.5798 23.2448C15.3435 22.6267 14.7794 21.1623 13.8792 19.3619Z" fill="#C7B96A"/>
<path d="M30.9716 9.15904C30.6836 8.04278 29.1232 5.88828 27.7129 4.76603L27.9049 4.53198L28.307 3.85382L29.5073 4.1779C30.9056 3.47574 31.5418 2.82759 31.9739 4.08188C32.46 5.4982 32.0159 6.98654 31.9739 7.11257C32.0339 7.00454 32.766 5.73825 33.2102 7.11257C33.6783 8.5529 33.2102 9.8552 33.2102 9.8552L32.73 10.1193L31.2777 10.9054H31.1877C31.1397 10.2213 31.0737 9.56112 30.9656 9.15303L30.9716 9.15904Z" fill="#F5CF24"/>
<path d="M32.7357 10.127L33.4859 10.9071H33.4919C34.3441 11.6753 34.4701 12.0834 33.828 13.2297C33.3659 14.0578 32.9638 15.0121 32.7297 15.6122L32.4837 15.7622L31.9675 15.7502C31.9975 14.736 31.8175 13.8358 31.2834 13.6858C31.2834 13.6858 31.2834 12.2454 31.1934 10.9191H31.2834L32.7357 10.127Z" fill="#F5CF24"/>
<path d="M12.1215 121.961L7.54849 121.001L7.1464 120.917L5.68806 120.611C5.12993 119.993 5.98213 117.682 6.86433 117.166C6.94235 117.118 7.02637 117.076 7.11639 117.028C8.16063 116.476 9.775 115.882 10.8853 114.784C11.3774 114.297 11.6714 113.907 11.8395 113.619V112.293C12.9737 112.791 14.288 113.283 15.6683 113.619L15.3263 114.874C15.6804 116.266 15.6683 118.408 15.6683 118.408C15.6683 118.408 15.1582 119.915 14.312 120.977C13.8499 121.553 13.2918 121.997 12.6557 121.997C12.4876 121.997 12.3076 121.985 12.1155 121.961H12.1215Z" fill="#C7B96A"/>
<path d="M4.87793 122.238L12.9318 123.535L12.8898 123.787L12.0796 125.587L4.87793 123.787V122.238Z" fill="#C7B96A"/>
<path d="M12.9309 123.534L4.87701 122.238L3.38867 121.998L3.67674 120.186L5.6872 120.612C5.77122 120.714 5.89725 120.768 6.05928 120.768C6.32334 120.768 6.70143 120.828 7.14553 120.918L7.54763 121.002C8.93994 121.314 10.8064 121.83 12.1207 121.962L15.0794 122.586L14.4792 123.786L12.9309 123.534Z" fill="#C7B96A"/>
<path d="M24.7418 120.732L36.3844 109.222L36.7625 108.844L37.8848 110.524L36.1984 112.289L34.512 114.053L30.305 118.458L28.7207 120.114L25.882 123.091L23.4395 122.017L24.7418 120.732Z" fill="#C7B96A"/>
<path d="M39.0857 114.904L37.9635 116.362L34.5127 114.052L36.1991 112.287L39.0857 114.904Z" fill="#C7B96A"/>
<path d="M27.0111 111.062C29.9578 109.334 32.7124 107.287 34.1107 106.213L34.1888 106.315C34.9029 106.351 35.6831 106.951 36.1092 107.575L36.3072 108.769L36.3853 109.22L24.7426 120.73L24.4065 120.388L23.8424 119.314C23.7824 118.75 23.8064 118.012 24.0824 117.183C24.1785 116.889 24.3405 116.565 24.5386 116.223C25.5588 114.459 27.5873 112.19 27.0831 111.182L27.0111 111.062Z" fill="#C7B96A"/>
<path d="M33.9069 120.642L32.5025 122.322L28.7217 120.113L30.306 118.457L33.9069 120.642Z" fill="#C7B96A"/>
<path d="M14.7266 35.9072C15.2547 31.8983 16.0169 26.5151 16.515 24.6546H17.6492L17.8593 25.8069L18.1653 25.7529L18.0813 23.5624C19.4016 23.5624 21.4361 23.4004 23.0445 23.1543L23.1045 23.5624C22.8824 24.1625 23.1045 24.7927 23.1045 24.7927H24.4068L14.8346 35.9192L14.7266 35.9072Z" fill="#C7B96A"/>
<path d="M33.4265 52.8363C31.9682 52.0982 33.6846 45.1666 33.4265 43.1021C33.1685 41.0437 35.8091 38.8051 37.2854 37.9649C37.5315 37.8209 37.7715 37.6949 37.9936 37.5748C39.6079 36.7287 40.7062 36.4166 41.4263 36.3326L43.4608 35.9185C43.5628 34.7602 43.8509 34.1421 44.325 33.764C45.0872 33.1638 45.7533 32.1076 46.3175 31.4354C46.6836 31.0033 47.5658 30.5952 48.3099 30.3672L49.2881 30.9973C49.2881 30.9973 48.496 32.0356 47.7038 32.9598C47.6438 33.0318 47.5778 33.1038 47.5177 33.1698L49.9783 34.1841L51.3646 34.7542L50.9685 35.2403L48.568 38.187L45.3753 40.4075C46.1734 41.3557 45.6333 40.5335 45.0872 42.1659C44.487 43.9663 42.0865 43.9663 40.112 44.6565C39.5659 44.8425 39.0198 44.9685 38.4677 45.0585L38.4857 45.1666L37.3634 47.7712V47.7892C36.9613 49.1635 36.4272 50.8259 36.0851 51.168C35.557 51.6961 35.0229 53.1604 33.9066 52.9924C33.7566 52.9744 33.5946 52.9204 33.4265 52.8363Z" fill="#C7B96A"/>
<path d="M11.5091 55.082C11.4551 59.1629 8.5264 99.4921 8.5264 99.4921L6.60596 100.92L3.07715 96.1794C3.07715 96.1794 5.50771 52.1113 7.27811 54.7699C7.27811 54.7699 7.27811 54.7699 7.28411 54.7699C7.39814 54.944 7.53017 55.106 7.6742 55.244C7.6742 55.256 7.6862 55.268 7.71021 55.28C7.72821 55.304 7.75222 55.328 7.77622 55.352C8.93449 56.4323 10.6209 56.3663 11.299 55.154C11.365 55.124 11.4371 55.1 11.5091 55.076V55.082Z" fill="#C7B96A"/>
<path d="M25.8827 25.7543C25.8827 25.7543 25.5346 24.8361 24.5744 24.392L24.4064 24.794H23.1041C23.1041 24.794 22.882 24.1639 23.1041 23.5638L23.0441 23.1557C23.6322 23.0657 24.1663 22.9636 24.5864 22.8496L24.5624 23.5698C27.173 23.6178 29.4655 24.9621 29.7716 25.7543C30.0837 26.5645 35.5869 35.0744 36.4391 35.9206L37.8855 37.3669L37.9935 37.577C37.7714 37.697 37.5314 37.823 37.2853 37.9671C35.809 38.8073 33.1684 41.0458 33.4264 43.1043C33.6845 45.1687 31.9681 52.1003 33.4264 52.8385C33.5945 52.9225 33.7565 52.9765 33.9066 52.9945V53.0125C33.9066 53.0125 33.3064 53.2466 32.5022 53.2586C32.5022 53.2586 33.6845 72.7751 33.9066 73.2912C34.1286 73.8073 37.2853 91.9795 36.6852 93.7799C36.3611 94.7581 34.0266 96.0904 31.9741 97.1046L30.3417 99.8473C30.6418 101.18 31.284 102.782 31.284 102.782L35.0588 105.471C35.0588 105.471 34.7107 105.753 34.1106 106.215C32.7123 107.289 29.9577 109.335 27.011 111.064C24.2864 112.666 21.3997 113.998 19.2812 114.053C18.0809 114.083 16.8506 113.908 15.6744 113.626C14.2941 113.284 12.9798 112.792 11.8455 112.294C9.56498 111.28 7.98662 110.218 7.98662 110.218L8.40071 105.074C8.3287 103.826 7.75857 102.518 7.70455 102.398L6.6123 100.922L8.53274 99.4932C8.53274 99.4932 11.4614 59.1639 11.5154 55.083C13.0578 54.5129 14.6421 53.9847 14.8402 53.0125C15.0862 51.7702 14.8402 49.8558 14.8402 49.8558C15.5063 49.2857 16.0645 48.7035 16.2865 48.3135C16.4125 48.0974 16.4306 47.8093 16.3825 47.4913C16.2145 46.243 15.0382 44.4426 14.8402 43.9685C14.7922 43.8544 14.7322 43.6984 14.6541 43.5243L15.0862 43.3683C15.0862 42.1681 15.0862 40.3676 15.6864 39.7675C15.7224 39.7315 15.7704 39.6895 15.8244 39.6475L15.4163 39.2634L21.8498 32.3858L22.4499 32.6379C23.4462 30.1773 25.8887 25.7543 25.8887 25.7543H25.8827Z" fill="#C7B96A"/>
<path d="M10.4416 28.5494C11.7979 25.7347 13.8804 24.7625 16.401 23.5622L16.581 23.2441C16.9951 23.4482 17.4812 23.5622 18.0814 23.5622L18.1654 25.7527L17.8593 25.8067L17.6493 24.6545H16.515C16.0169 26.5149 15.2547 31.8981 14.7266 35.907L14.8346 35.919L24.4068 24.7925L24.5748 24.3904C25.5351 24.8345 25.8831 25.7527 25.8831 25.7527C25.8831 25.7527 23.4406 30.1757 22.4444 32.6363L21.8442 32.3842L15.4107 39.2618L15.8188 39.6459C15.7648 39.6879 15.7168 39.7299 15.6808 39.7659C15.0807 40.3661 15.0807 42.1665 15.0807 43.3668L14.6486 43.5228C14.7266 43.6968 14.7866 43.8529 14.8346 43.9669C15.0327 44.441 16.2089 46.2414 16.377 47.4897C16.425 47.8078 16.407 48.0958 16.2809 48.3119C16.0589 48.702 15.5008 49.2841 14.8346 49.8543C14.8346 49.8543 15.0807 51.7687 14.8346 53.0109C14.6366 53.9832 13.0522 54.5113 11.5098 55.0814C11.5098 54.8114 11.5038 54.6974 11.4798 54.7694C11.4318 54.9134 11.3718 55.0394 11.2998 55.1594C10.6216 56.3717 8.93526 56.4378 7.77699 55.3575C7.75299 55.3335 7.72898 55.3095 7.71098 55.2855C7.69897 55.2735 7.69297 55.2615 7.67497 55.2495C7.56694 55.1175 7.43491 54.9614 7.28488 54.7754C6.31866 53.5391 4.72829 51.1746 4.27819 49.3681C3.67805 46.9676 5.47847 40.9662 5.66451 39.3098C5.85655 37.6595 9.07929 31.364 10.4416 28.5494Z" fill="#C7B96A"/>
<path d="M23.4816 13.3602C23.4636 13.8463 22.4974 14.1764 22.2814 13.9604C22.0653 13.7443 22.3954 12.7781 22.8815 12.7601C23.1696 12.7481 23.4936 13.0722 23.4816 13.3602Z" fill="#4F4131"/>
<path d="M17.4807 13.3602C17.4627 13.8463 16.4964 14.1764 16.2804 13.9604C16.0643 13.7443 16.3944 12.7781 16.8805 12.7601C17.1686 12.7481 17.4927 13.0722 17.4807 13.3602Z" fill="#4F4131"/>
<path d="M20.3488 6.15768C18.0802 5.55754 14.9655 7.76004 14.4194 9.3564C14.2454 9.86652 14.0053 10.8327 13.8013 11.985C13.3572 14.4336 13.0631 17.7283 13.8793 19.3607C14.7795 21.1611 15.3436 22.6255 16.5799 23.2436C16.994 23.4476 17.4801 23.5617 18.0802 23.5617C19.4005 23.5617 21.435 23.3996 23.0434 23.1536C23.6315 23.0636 24.1656 22.9615 24.5857 22.8475C25.1138 22.7095 25.4739 22.5534 25.558 22.3974C25.882 21.7613 28.3126 18.1784 28.3126 18.1784C28.3126 18.1784 30.6831 19.3607 31.2833 18.7606C31.6133 18.4305 31.9494 17.0022 31.9674 15.7479C31.9974 14.7337 31.8174 13.8334 31.2833 13.6834C30.083 13.3593 28.3126 13.9595 28.3126 13.9595L27.7004 9.7585" stroke="#4F4131" stroke-linecap="round" stroke-linejoin="round"/>
<path d="M27.3952 8.08008L25.8828 9.16032" stroke="#4F4131" stroke-linecap="round" stroke-linejoin="round"/>
<path d="M26.6393 7.14244L25.0489 8.07865V6.1582L23.1045 7.11843" stroke="#4F4131" stroke-linecap="round" stroke-linejoin="round"/>
<path d="M13.3631 11.5601C13.2311 11.092 13.117 10.6179 13.033 10.1438C12.6789 8.19337 12.7869 6.28491 13.8072 5.15665C14.5994 4.28045 16.5438 3.72233 18.1762 3.42227C19.1604 3.24222 20.0306 3.1582 20.4807 3.1582C20.8468 3.1582 21.5009 3.18822 22.2751 3.26023C24.0155 3.43427 26.3621 3.81836 27.3943 4.53252C27.4963 4.60454 27.6043 4.68255 27.7124 4.76657C29.1227 5.88882 30.683 8.04332 30.9711 9.15958C31.0791 9.56767 31.1452 10.2278 31.1932 10.918C31.2832 12.2443 31.2832 13.6846 31.2832 13.6846" stroke="#4F4131" stroke-linecap="round" stroke-linejoin="round"/>
<path d="M20.8242 1.05273C20.9685 1.05874 21.1187 1.07678 21.2689 1.11284" stroke="#4F4131" stroke-linecap="round" stroke-linejoin="round"/>
<path d="M18.6807 2.55955C19.1908 1.53932 19.965 1.0352 20.8112 1.0532" stroke="#4F4131" stroke-linecap="round" stroke-linejoin="round"/>
<path d="M25.3249 1.67478C25.2949 1.42872 25.3789 0.924604 26.6392 1.11065C28.2835 1.3567 28.7217 3.15712 28.7217 3.15712L28.3076 3.85328L27.9055 4.53144" stroke="#4F4131" stroke-linecap="round" stroke-linejoin="round"/>
<path d="M25.3252 1.68164C25.3492 1.75376 25.3552 1.80183 25.3552 1.80183C25.3552 1.80183 25.3372 1.75376 25.3252 1.68164Z" stroke="#4F4131" stroke-linecap="round" stroke-linejoin="round"/>
<path d="M25.3252 1.68197V1.67578" stroke="#4F4131" stroke-linecap="round" stroke-linejoin="round"/>
<path d="M22.2822 3.15834C22.4382 2.28814 21.658 1.72401 22.0421 1.37593C22.1922 1.23789 22.5042 1.12986 23.1044 1.05185C24.8028 0.823794 25.2229 1.40593 25.3249 1.67599" stroke="#4F4131" stroke-linecap="round" stroke-linejoin="round"/>
<path d="M31.9745 7.12008C32.0345 7.00605 32.7667 5.73976 33.2108 7.12008C33.6789 8.56041 33.2108 9.86271 33.2108 9.86271L32.7307 10.1268L31.2783 10.913" stroke="#4F4131" stroke-linecap="round" stroke-linejoin="round"/>
<path d="M28.7217 4.53198C29.0097 4.41796 29.2678 4.29793 29.5079 4.1779C30.9062 3.47574 31.5423 2.82759 31.9744 4.08188C32.4605 5.4982 32.0164 6.98654 31.9744 7.11257" stroke="#4F4131" stroke-linecap="round" stroke-linejoin="round"/>
<path d="M33.4932 10.9121C34.3454 11.6743 34.4714 12.0824 33.8292 13.2286C33.3671 14.0568 32.965 15.011 32.731 15.6112C32.5869 15.9773 32.5029 16.2173 32.5029 16.2173" stroke="#4F4131" stroke-linecap="round" stroke-linejoin="round"/>
<path d="M33.0127 10.498C33.193 10.6483 33.3492 10.7805 33.4875 10.9067" stroke="#4F4131" stroke-linecap="round" stroke-linejoin="round"/>
<path d="M17.6912 14.8125C17.4812 16.3609 18.0813 17.9332 18.6815 17.7472" stroke="#4F4131" stroke-linecap="round" stroke-linejoin="round"/>
<path d="M18.0811 19.9629H21.0817L19.8815 21.7633C19.8815 21.7633 18.2491 22.3274 18.1651 21.4452" stroke="#4F4131" stroke-linecap="round" stroke-linejoin="round"/>
<path d="M23.1039 23.5625C22.8818 24.1626 23.1039 24.7928 23.1039 24.7928H24.4062L14.834 35.9193" stroke="#4F4131" stroke-linecap="round" stroke-linejoin="round"/>
<path d="M18.0811 23.5625L18.1651 25.753" stroke="#4F4131" stroke-linecap="round" stroke-linejoin="round"/>
<path d="M18.6803 30.3756L17.8581 25.8085L17.6481 24.6562H16.5138C16.0157 26.5167 15.2535 31.8999 14.7254 35.9088C14.3653 38.5974 14.1133 40.6679 14.1133 40.6679" stroke="#4F4131" stroke-linecap="round" stroke-linejoin="round"/>
<path d="M21.8436 32.3848L15.4102 39.2623L15.3682 39.3104" stroke="#4F4131" stroke-linecap="round" stroke-linejoin="round"/>
<path d="M23.4819 24.1641C23.914 24.1641 24.2741 24.2541 24.5741 24.3921C25.5343 24.8362 25.8824 25.7544 25.8824 25.7544C25.8824 25.7544 23.4399 30.1774 22.4436 32.638C22.2576 33.0941 22.1256 33.4842 22.0656 33.7663C21.6815 35.5667 21.8435 39.3115 21.8435 39.3115" stroke="#4F4131" stroke-linecap="round" stroke-linejoin="round"/>
<path d="M24.4062 23.5625C24.4603 23.5625 24.5083 23.5625 24.5623 23.5625C27.1729 23.6105 29.4654 24.9548 29.7715 25.747C30.0836 26.5572 35.5868 35.0671 36.439 35.9133L37.8853 37.3597" stroke="#4F4131" stroke-linecap="round" stroke-linejoin="round"/>
<path d="M37.3574 47.7907C36.9613 49.165 36.4272 50.8274 36.0851 51.1695C35.557 51.6976 35.0229 53.1619 33.9066 52.9939C33.7566 52.9759 33.5946 52.9219 33.4265 52.8378C31.9682 52.0997 33.6846 45.1681 33.4265 43.1036C33.1685 41.0452 35.8091 38.8066 37.2854 37.9664C37.5315 37.8224 37.7715 37.6964 37.9936 37.5763C39.6079 36.7302 40.7062 36.4181 41.4263 36.3341C42.3266 36.226 42.6446 36.4721 42.6446 36.4721" stroke="#4F4131" stroke-linecap="round" stroke-linejoin="round"/>
<path d="M37.8854 45.8633C37.8854 45.8633 37.6633 46.7335 37.3633 47.7717" stroke="#4F4131" stroke-linecap="round" stroke-linejoin="round"/>
<path d="M26.4824 43.3672C27.6827 45.7677 29.6631 52.4472 31.0735 53.0114C31.5656 53.2094 32.0637 53.2634 32.5018 53.2574C33.306 53.2454 33.9061 53.0114 33.9061 53.0114" stroke="#4F4131" stroke-linecap="round" stroke-linejoin="round"/>
<path d="M35.0584 35.9199C33.0839 37.3663 31.2835 42.1674 30.6834 43.9678C30.0832 45.7682 31.0734 50.3052 31.0734 50.3052" stroke="#4F4131" stroke-linecap="round" stroke-linejoin="round"/>
<path d="M34.2363 45.6358C35.5746 45.2997 37.021 45.2997 38.4673 45.0597C39.0194 44.9696 39.5655 44.8436 40.1117 44.6576C42.0861 43.9674 44.4867 43.9674 45.0868 42.167C45.6329 40.5347 46.1731 41.3568 45.3749 40.4086C45.2969 40.3126 45.2008 40.1986 45.0868 40.0605" stroke="#4F4131" stroke-linecap="round" stroke-linejoin="round"/>
<path d="M43.4847 38.566C43.4127 37.4558 43.4067 36.5915 43.4607 35.9194C43.5628 34.7611 43.8508 34.143 44.3249 33.7649C45.0871 33.1648 45.7533 32.1085 46.3174 31.4364C46.6835 31.0043 47.5657 30.5962 48.3098 30.3681C48.7119 30.2421 49.078 30.1641 49.2881 30.1641" stroke="#4F4131" stroke-linecap="round" stroke-linejoin="round"/>
<path d="M47.9854 33.5605C48.3034 34.2507 50.0378 34.7488 48.5555 35.8951" stroke="#4F4131" stroke-linecap="round" stroke-linejoin="round"/>
<path d="M48.7471 36.8847C49.7073 35.9065 50.0734 34.8622 49.9773 34.1841C49.9653 34.1181 49.9533 34.0581 49.9353 33.998" stroke="#4F4131" stroke-linecap="round" stroke-linejoin="round"/>
<path d="M50.416 36.8984C50.7821 36.1782 50.9201 35.6081 50.9681 35.242C51.0102 34.9299 50.9921 34.7559 50.9921 34.7559" stroke="#4F4131" stroke-linecap="round" stroke-linejoin="round"/>
<path d="M44.5586 35.9193C45.6869 35.5652 47.4633 34.437 47.7753 35.3012C48.0874 36.1654 46.167 37.2036 46.167 37.2036L45.7769 39.0461" stroke="#4F4131" stroke-linecap="round" stroke-linejoin="round"/>
<path d="M48.9583 37.3652C48.0881 38.5655 45.4775 40.0599 45.4775 40.0599" stroke="#4F4131" stroke-linecap="round" stroke-linejoin="round"/>
<path d="M15.0801 43.3681C15.0801 42.1678 15.0801 40.3674 15.6802 39.7672C15.7162 39.7312 15.7642 39.6892 15.8182 39.6472C16.6464 39.023 19.281 37.9668 19.281 37.9668" stroke="#4F4131" stroke-linecap="round" stroke-linejoin="round"/>
<path d="M17.1807 41.213C17.4807 40.3668 19.2811 38.5664 19.2811 38.5664" stroke="#4F4131" stroke-linecap="round" stroke-linejoin="round"/>
<path d="M18.6084 41.9586C18.6804 41.5685 19.8807 39.168 19.8807 39.168" stroke="#4F4131" stroke-linecap="round" stroke-linejoin="round"/>
<path d="M19.2812 42.8513C19.2812 42.7672 20.4515 39.8926 20.4515 39.8926" stroke="#4F4131" stroke-linecap="round" stroke-linejoin="round"/>
<path d="M21.0814 40.3652C21.0814 40.9654 19.8811 44.5842 19.8811 44.5842L16.3763 47.4889L16.2803 47.5669" stroke="#4F4131" stroke-linecap="round" stroke-linejoin="round"/>
<path d="M8.08854 43.3681C9.07877 42.1678 11.8214 40.8655 12.8476 41.2136C13.6878 41.5016 14.306 42.7439 14.648 43.5241C14.7261 43.6981 14.7861 43.8542 14.8341 43.9682C15.0321 44.4423 16.2084 46.2427 16.3764 47.491C16.4244 47.8091 16.4064 48.0971 16.2804 48.3132C16.0584 48.7033 15.5002 49.2854 14.8341 49.8556C13.6998 50.8218 12.2355 51.77 11.4793 51.77C10.5311 51.77 8.19656 50.8518 7.26035 50.4737C7.01429 50.3717 6.86426 50.3057 6.86426 50.3057" stroke="#4F4131" stroke-linecap="round" stroke-linejoin="round"/>
<path d="M6.86471 43.3672C6.07853 45.7677 5.20833 47.2561 5.9465 48.3123C6.31859 48.8464 6.84071 49.7346 7.2608 50.4728C7.6689 51.187 7.98697 51.7691 7.98697 51.7691" stroke="#4F4131" stroke-linecap="round" stroke-linejoin="round"/>
<path d="M14.8335 26.5645C14.4794 28.3649 11.7848 36.7668 11.6348 38.5672" stroke="#4F4131" stroke-linecap="round" stroke-linejoin="round"/>
<path d="M7.77637 55.3574C7.86651 55.4536 7.93863 55.5257 7.98671 55.5677" stroke="#4F4131" stroke-linecap="round" stroke-linejoin="round"/>
<path d="M16.401 23.5625C13.8804 24.7628 11.7979 25.735 10.4416 28.5496C9.07929 31.3643 5.85655 37.6597 5.66451 39.3101C5.47847 40.9665 3.67805 46.9679 4.27819 49.3684C4.72829 51.1748 6.31866 53.5394 7.28488 54.7756C7.43491 54.9617 7.56694 55.1177 7.67497 55.2498C7.69297 55.2618 7.69897 55.2738 7.71098 55.2858" stroke="#4F4131" stroke-linecap="round" stroke-linejoin="round"/>
<path d="M10.2783 55.5688C10.6024 55.4247 10.9445 55.2927 11.2986 55.1607C11.3646 55.1307 11.4366 55.1066 11.5086 55.0826C13.051 54.5125 14.6353 53.9844 14.8334 53.0122C15.0794 51.7699 14.8334 49.8555 14.8334 49.8555" stroke="#4F4131" stroke-linecap="round" stroke-linejoin="round"/>
<path d="M20.452 44.8672C20.482 46.9677 19.8158 76.7165 20.452 79.8492C21.0821 82.9759 21.8623 94.3785 22.6725 94.9787" stroke="#4F4131" stroke-linecap="round" stroke-linejoin="round"/>
<path d="M24.4062 97.3496C25.8826 100.38 25.8826 101.641 25.8826 101.641L27.3949 100.104" stroke="#4F4131" stroke-linecap="round" stroke-linejoin="round"/>
<path d="M28.7217 98.5742C28.7217 98.5742 30.252 97.9501 31.9744 97.1039C34.0269 96.0896 36.3614 94.7573 36.6855 93.7791C37.2856 91.9787 34.1289 73.8065 33.9069 73.2904C33.6848 72.7743 32.5025 53.2578 32.5025 53.2578" stroke="#4F4131" stroke-linecap="round" stroke-linejoin="round"/>
<path d="M7.69821 102.391L6.60596 100.92L3.07715 96.1794C3.07715 96.1794 5.50771 52.1113 7.27811 54.7699C7.27811 54.7699 7.27811 54.7699 7.28411 54.7699C7.39814 54.944 7.53017 55.106 7.6742 55.244C7.6742 55.256 7.6862 55.268 7.71021 55.28C7.72821 55.304 7.75222 55.328 7.77622 55.352C8.93449 56.4323 10.6209 56.3663 11.299 55.154C11.371 55.034 11.4311 54.908 11.4791 54.7639C11.5031 54.6919 11.5091 54.8059 11.5091 55.076C11.4551 59.1569 8.5264 99.4861 8.5264 99.4861" stroke="#4F4131" stroke-linecap="round" stroke-linejoin="round"/>
<path d="M13.9106 55.3633C14.4808 55.9694 10.8799 102.78 10.8799 102.78H7.98729L7.69922 102.396" stroke="#4F4131" stroke-linecap="round" stroke-linejoin="round"/>
<path d="M23.7158 48.3125C23.7158 48.3125 23.0136 78.8655 23.8478 81.8182C24.682 84.7768 27.3946 97.3497 27.3946 97.3497" stroke="#4F4131" stroke-linecap="round" stroke-linejoin="round"/>
<path d="M28.721 25.875C28.721 25.875 24.1359 41.7486 24.406 44.6593" stroke="#4F4131" stroke-linecap="round" stroke-linejoin="round"/>
<path d="M11.8452 112.287C9.56469 111.278 7.98633 110.216 7.98633 110.216L8.40042 105.073L8.52645 103.477" stroke="#4F4131" stroke-linecap="round" stroke-linejoin="round"/>
<path d="M15.6746 113.619C14.2943 113.283 12.98 112.791 11.8457 112.293" stroke="#4F4131" stroke-linecap="round" stroke-linejoin="round"/>
<path d="M30.1981 98.5742C30.1681 98.8983 30.2341 99.3544 30.3422 99.8465C30.6422 101.179 31.2844 102.781 31.2844 102.781L35.0592 105.47C35.0592 105.47 34.7112 105.752 34.111 106.214C32.7127 107.288 29.9581 109.335 27.0114 111.063C24.2868 112.665 21.4001 113.998 19.2816 114.052C18.0814 114.082 16.8511 113.908 15.6748 113.626" stroke="#4F4131" stroke-linecap="round" stroke-linejoin="round"/>
<path d="M30.305 118.458L34.512 114.053L36.1984 112.289L37.8848 110.524L36.7625 108.844L36.3844 109.222L24.7418 120.732L23.4395 122.017L25.882 123.091L28.7207 120.114" stroke="#4F4131" stroke-linecap="round" stroke-linejoin="round"/>
<path d="M28.7217 120.113L32.5025 122.322L33.9069 120.642L30.306 118.457L28.7217 120.113Z" stroke="#4F4131" stroke-linecap="round" stroke-linejoin="round"/>
<path d="M34.5127 114.052L37.9635 116.362L39.0857 114.904L36.1991 112.287" stroke="#4F4131" stroke-linecap="round" stroke-linejoin="round"/>
<path d="M34.1885 106.316C34.9026 106.352 35.6828 106.953 36.1089 107.577C36.421 108.033 36.541 108.507 36.307 108.771C36.283 108.795 36.2589 108.819 36.2289 108.843" stroke="#4F4131" stroke-linecap="round" stroke-linejoin="round"/>
<path d="M27.0831 111.184C27.5873 112.192 25.5588 114.46 24.5386 116.225C24.3405 116.567 24.1785 116.891 24.0824 117.185C23.8064 118.013 23.7824 118.751 23.8424 119.315C23.9084 119.976 24.0824 120.39 24.0824 120.39" stroke="#4F4131" stroke-linecap="round" stroke-linejoin="round"/>
<path d="M22.8818 117.183C23.1879 116.877 23.8541 116.457 24.5382 116.223C25.1984 116.001 25.8765 115.959 26.2726 116.361" stroke="#4F4131" stroke-linecap="round" stroke-linejoin="round"/>
<path d="M7.12207 117.027C8.16631 116.475 9.78068 115.881 10.8909 114.783C11.383 114.297 11.6771 113.907 11.8452 113.618C12.0972 113.198 12.0972 112.988 12.0972 112.988" stroke="#4F4131" stroke-linecap="round" stroke-linejoin="round"/>
<path d="M7.1464 120.916C6.70229 120.826 6.32421 120.766 6.06015 120.766C5.89811 120.766 5.77208 120.712 5.68806 120.61C5.12993 119.992 5.98213 117.681 6.86433 117.165C6.94235 117.117 7.02637 117.075 7.11639 117.027" stroke="#4F4131" stroke-linecap="round" stroke-linejoin="round"/>
<path d="M15.0986 114.203C15.1886 114.389 15.2666 114.617 15.3326 114.875C15.6867 116.268 15.6747 118.41 15.6747 118.41C15.6747 118.41 15.1646 119.916 14.3184 120.979C13.8563 121.555 13.2981 121.999 12.662 121.999C12.494 121.999 12.3139 121.987 12.1219 121.963C10.8076 121.831 8.94115 121.315 7.54883 121.003" stroke="#4F4131" stroke-linecap="round" stroke-linejoin="round"/>
<path d="M12.9309 123.534L14.4792 123.786L15.0794 122.586L12.1207 121.962L7.54762 121.002L7.14553 120.918L5.6872 120.612L3.67674 120.186L3.38867 121.998L4.87701 122.238L12.9309 123.534Z" stroke="#4F4131" stroke-linecap="round" stroke-linejoin="round"/>
<path d="M12.8898 123.787L12.0796 125.587L4.87793 123.787V122.238" stroke="#4F4131" stroke-linecap="round" stroke-linejoin="round"/>
<path d="M9.23535 120.539C10.2796 120.185 11.9 119.038 12.8902 119.308C13.5803 119.5 14.0785 120.431 14.3185 120.977C14.4265 121.217 14.4806 121.385 14.4806 121.385" stroke="#4F4131" stroke-linecap="round" stroke-linejoin="round"/>
<path d="M8.70043 120.186C8.47838 118.986 8.16031 116.874 7.12207 117.03" stroke="#4F4131" stroke-linecap="round" stroke-linejoin="round"/>
<path d="M22.8815 12.7601C23.1696 12.7481 23.4936 13.0722 23.4816 13.3602C23.4636 13.8463 22.4974 14.1764 22.2814 13.9604C22.0653 13.7443 22.3954 12.7781 22.8815 12.7601Z" stroke="#4F4131" stroke-linecap="round" stroke-linejoin="round"/>
<path d="M16.8805 12.7601C17.1686 12.7481 17.4927 13.0722 17.4807 13.3602C17.4627 13.8463 16.4964 14.1764 16.2804 13.9604C16.0643 13.7443 16.3944 12.7781 16.8805 12.7601Z" stroke="#4F4131" stroke-linecap="round" stroke-linejoin="round"/>
<path d="M11.8457 112.287V112.293" stroke="#4F4131" stroke-linecap="round" stroke-linejoin="round"/>
<path d="M15.6748 113.619V113.625" stroke="#4F4131" stroke-linecap="round" stroke-linejoin="round"/>
</svg>
