<svg width="55" height="163" viewBox="0 0 55 163" fill="none" xmlns="http://www.w3.org/2000/svg">
<path d="M40.9152 144.115C37.8781 140.353 33.1498 138.168 28.344 137.661C23.5382 137.153 18.6549 138.203 14.1874 140.042C9.58595 141.938 5.20297 144.799 2.56754 149.027C0.615627 152.156 0.0166626 156.842 2.94101 159.082C4.13188 159.998 5.67509 160.301 7.16192 160.534C19.0214 162.373 31.3388 161.126 42.5923 156.954C43.6704 156.553 44.7626 156.116 45.6364 155.369C48.2789 153.121 48.0604 148.745 46.1015 145.884C44.1425 143.023 40.9433 141.304 37.871 139.697" fill="#D3B25B"/>
<path d="M37.6516 140.108C37.6234 140.023 37.7222 139.917 37.8633 140.023V140.284L37.6516 140.101V140.108Z" fill="#C6B08D"/>
<path d="M38.8788 140.268C39.0056 140.466 39.1184 140.747 38.8999 140.874C38.8294 140.578 38.7449 140.642 38.6744 140.303C38.5335 140.198 38.3714 140.226 38.3573 140.318C38.3291 140.233 38.0966 140.24 38.0825 140.064C38.3644 140.008 38.6251 140.134 38.8154 140.409C38.8929 140.395 38.8717 140.311 38.8788 140.268Z" fill="#C6B08D"/>
<path d="M47.44 153.362L47.4541 153.242C47.4541 153.242 47.4541 153.32 47.44 153.362Z" fill="#C6B08D"/>
<path d="M38.5117 158.794C38.5893 158.773 38.6316 158.794 38.6387 158.808C38.5611 158.815 38.4975 158.822 38.5117 158.794Z" fill="#C6B08D"/>
<path d="M36.8416 159.535C36.8769 159.52 36.9051 159.506 36.9404 159.492C36.9051 159.527 36.8699 159.549 36.8416 159.535Z" fill="#C6B08D"/>
<path d="M47.4395 153.361C47.4395 153.467 47.4112 153.566 47.3901 153.665C47.3054 153.651 47.4183 153.51 47.4395 153.361Z" fill="#C6B08D"/>
<path d="M40.6336 141.889C40.5912 141.846 40.563 141.804 40.5348 141.762L40.6406 141.853C40.6406 141.853 40.6406 141.875 40.6265 141.889H40.6336Z" fill="#C6B08D"/>
<path d="M47.8422 148.564L47.821 148.48C47.821 148.48 47.8634 148.416 47.8916 148.381L47.8422 148.564Z" fill="#C6B08D"/>
<path d="M46.2633 145.166C46.3197 145.23 46.1786 145.371 46.1292 145.448C46.1645 145.364 46.1645 145.286 46.1292 145.222C46.1574 145.201 46.1997 145.18 46.2633 145.166Z" fill="#C6B08D"/>
<path d="M41.7246 141.623L41.654 141.545C41.654 141.545 41.7034 141.601 41.7246 141.623Z" fill="#C6B08D"/>
<path d="M48.1306 151.248C48.1306 151.248 48.1871 151.269 48.2012 151.29C48.1729 151.29 48.1518 151.276 48.1306 151.248Z" fill="#C6B08D"/>
<path d="M37.3843 142.03C37.3843 142.03 37.3983 142.009 37.4053 142.002C37.4053 142.03 37.4053 142.044 37.3843 142.03Z" fill="#C6B08D"/>
<path d="M40.9565 144.082L40.9282 144.033C40.9282 144.033 40.9776 143.976 41.0059 143.955L40.9565 144.082Z" fill="#C6B08D"/>
<path d="M33.6781 160.578C33.6781 160.578 33.6852 160.578 33.6922 160.578C33.784 160.578 33.7346 160.585 33.6781 160.578Z" fill="#C6B08D"/>
<path d="M3.25791 160.253C3.67424 160.274 2.82747 159.752 3.42021 159.858C3.32848 159.9 3.73775 160.366 3.25791 160.253Z" fill="#C6B08D"/>
<path d="M40.7248 141.918L40.8447 141.996C40.7883 141.967 40.7459 141.946 40.7248 141.918Z" fill="#C6B08D"/>
<path d="M3.41956 159.859L3.47559 159.866C3.45458 159.866 3.44057 159.866 3.41956 159.859Z" fill="#C6B08D"/>
<path d="M26.1101 161.726C26.1242 161.69 26.1524 161.662 26.1807 161.627C26.1807 161.648 26.1665 161.676 26.1101 161.726Z" fill="#C6B08D"/>
<path d="M31.6904 160.584L31.5564 160.633C31.6058 160.605 31.6481 160.591 31.6904 160.584Z" fill="#C6B08D"/>
<path d="M23.1436 161.727C23.0659 161.748 23.0448 161.776 22.9389 161.762C22.946 161.748 22.9601 161.741 22.9671 161.734C23.0095 161.755 23.0589 161.769 23.1436 161.734V161.727Z" fill="#C6B08D"/>
<path d="M20.0703 161.882C20.0703 161.882 20.1056 161.854 20.1268 161.84C20.155 161.84 20.1903 161.84 20.2256 161.847L20.0703 161.882Z" fill="#C6B08D"/>
<path d="M29.3159 138.634C29.3865 138.591 29.4359 138.535 29.4782 138.479C29.4076 138.613 29.824 138.733 29.3159 138.634Z" fill="#C6B08D"/>
<path d="M40.6893 141.799C40.6752 141.848 40.6893 141.884 40.7246 141.919L40.647 141.855C40.647 141.855 40.6682 141.799 40.6964 141.799H40.6893Z" fill="#C6B08D"/>
<path d="M22.9043 160.182C22.7491 160.21 22.5868 160.217 22.4315 160.238C22.5656 160.21 22.7349 160.196 22.9043 160.182Z" fill="#C6B08D"/>
<path d="M9.12755 143.603L9.2334 143.561C9.2334 143.561 9.16283 143.603 9.12755 143.603Z" fill="#C6B08D"/>
<path d="M21.0146 160.281C20.93 160.358 20.8453 160.4 20.7536 160.429C20.7324 160.415 20.7112 160.4 20.6971 160.379L21.0146 160.273V160.281Z" fill="#C6B08D"/>
<path d="M32.3325 139.663C31.9168 139.536 32.2127 139.36 32.1704 139.191C31.6842 138.965 31.8815 139.303 31.6701 139.374C31.3742 139.219 31.191 138.93 30.9514 138.874C30.9232 138.909 30.8739 138.916 30.9161 138.979C30.6202 138.697 29.9085 138.74 29.5491 138.423C29.5139 138.437 29.4998 138.458 29.4857 138.479C29.5702 138.359 29.6055 138.232 29.6055 138.141C29.4082 138.106 29.2602 137.915 29.1545 138.07C29.2813 138.084 29.2813 138.155 29.3307 138.218L29.1333 138.113C28.9079 138.324 29.4082 138.239 29.38 138.423C28.9924 138.275 28.5344 138.021 28.2102 138.049C28.1257 138.275 28.936 138.218 28.4921 138.38L28.9854 138.352C28.5696 138.676 29.2813 138.366 28.8867 138.719C28.2596 138.704 28.2032 138.507 27.569 138.528C27.4351 138.38 27.6324 138.338 27.4985 138.19C26.5966 137.908 26.7586 138.747 26.1104 138.423C25.9412 138.268 25.8708 137.951 25.3916 138.127L25.5607 138.394C24.9477 138.444 25.1943 138.007 24.5531 138.225C24.6728 138.317 25.0463 138.296 24.9547 138.331C24.546 138.556 24.6517 138.19 24.3276 138.211L24.2782 138.458C23.6229 138.458 22.876 138.373 22.1431 138.43C22.1924 138.493 22.3263 138.549 22.1713 138.648C21.2412 138.669 20.2335 139.022 19.409 139.374L19.0285 139.261C18.951 139.282 18.9087 139.388 19.0003 139.402C18.6832 139.564 18.951 139.282 18.7678 139.24C18.5705 139.275 18.5493 139.423 18.6832 139.451C18.049 139.444 16.8863 139.585 16.3438 140.022L16.4847 140.036C16.0337 140.276 15.8012 139.832 15.4277 140.177H15.5264C14.5257 140.649 13.3278 140.966 12.7077 141.608C12.4329 141.41 11.7987 142.207 11.545 141.875C11.087 142.348 11.2773 142.326 10.5867 142.883C10.3964 143.017 10.1568 142.841 9.88202 142.954L9.98772 143.144L9.52969 143.158L9.49446 143.489L9.24078 143.588C9.32534 143.517 9.38171 143.383 9.33239 143.334C8.91664 143.482 8.55726 144.039 8.62068 144.137C8.31063 144.278 8.00763 144.426 7.71167 144.581C7.78214 144.638 7.93011 144.56 8.07104 144.525C7.51436 144.673 8.13447 144.765 7.62711 144.898C7.64825 144.821 7.52141 144.821 7.48618 144.793C7.38048 145.046 6.95768 145.399 6.61945 145.624L6.77447 145.681C6.26007 146.195 5.59769 146.674 5.06215 147.294C5.21012 147.034 4.97054 146.907 4.78733 147.069L4.89302 147.294C4.68163 147.315 4.99873 147.048 4.65344 147.174C4.47728 147.435 4.71687 147.506 4.88598 147.414L4.59002 147.647C4.6323 147.71 4.70982 147.661 4.79437 147.703C4.58297 147.731 4.56889 148.33 4.25179 148.358L4.29406 148.415C4.04744 148.732 3.87127 148.964 3.70215 149.183C3.52599 149.401 3.37096 149.606 3.21593 149.873C3.03977 149.789 2.94817 150.021 2.72268 150.127C2.5606 150.592 2.49014 151.135 2.29283 151.67C2.06734 152.023 2.09552 151.734 1.92641 151.875C2.08848 151.959 1.9264 152.509 2.12371 152.255C1.9264 152.91 1.87708 153.094 1.65159 153.939C1.58112 153.841 1.55999 153.728 1.48952 153.777C1.45428 153.939 1.54589 154.144 1.63045 154.129L1.65159 154.087C1.47542 154.573 1.65159 155.144 1.84185 155.63C2.0603 156.117 2.27874 156.511 2.27169 156.899V156.857L2.34216 157.237L2.46195 157.603C2.67335 157.871 2.46195 157.357 2.69449 157.505C2.80019 157.899 3.02568 158.139 3.26526 158.308C3.49075 158.498 3.73738 158.611 3.97697 158.865C4.3293 158.759 4.71686 158.949 5.18194 159.133C5.64701 159.316 6.17551 159.485 6.58421 159.386L6.52079 159.499C6.69696 159.654 6.77447 159.471 6.92245 159.471C6.88722 159.562 6.68991 159.548 6.80265 159.633C7.6412 159.851 8.55726 159.915 9.45923 159.964C10.3682 159.971 11.2843 159.985 12.1792 159.992C12.8346 160.006 12.5034 160.669 13.349 160.429L13.1305 160.183C13.7788 160.38 14.4553 160.401 15.1317 160.422C15.8012 160.45 16.4706 160.457 17.1189 160.57C17.0414 160.514 17.0414 160.443 16.9145 160.443C17.1894 160.274 17.9222 160.443 17.9292 160.584C18.1336 160.57 17.9786 160.457 18.0984 160.394C18.3732 160.302 18.7889 160.605 18.9299 160.429C18.951 160.401 18.8524 160.373 18.803 160.366C18.9862 160.443 19.6345 160.323 19.4654 160.528C19.9516 160.422 20.3956 160.598 20.7831 160.464C21.0438 160.669 21.6076 160.316 21.7062 160.619C21.6569 160.302 22.5448 160.316 22.8619 160.45C22.7491 160.366 23.1226 160.33 22.9887 160.204C23.341 160.175 23.6652 160.204 23.6159 160.38C24.2289 159.943 24.9406 160.584 25.2577 160.049C26.3077 160.098 27.2871 160.112 28.2243 160.035C28.1468 159.724 27.1885 160.161 27.1885 159.816C28.0834 159.816 28.633 160.013 29.4998 159.802C29.7182 159.717 29.3518 159.689 29.2672 159.64C30.1692 159.619 30.9514 159.309 31.7688 159.337C31.7617 159.309 31.6701 159.295 31.5856 159.288C31.7406 159.274 31.9309 159.168 31.9449 159.316H31.7899C31.5856 159.569 32.4875 159.612 32.5369 159.71C32.1916 159.358 33.2838 159.443 32.7623 159.02C32.868 159.02 33.009 159.062 33.009 159.168C33.1499 159.111 33.1851 159.041 33.009 158.97C33.5727 158.928 33.4106 159.126 33.9109 159.013C33.8969 158.949 33.7841 158.942 33.7207 158.872C34.0025 158.949 34.2844 159.013 34.6861 158.858C34.6508 158.823 34.6861 158.759 34.5592 158.787C35.278 158.625 35.8769 158.851 36.6168 158.498C36.3068 158.273 36.8564 158.329 36.8282 158.062L37.2651 158.019L37.1312 158.188C37.4977 158.083 37.8711 158.174 38.1671 158.005L37.8641 157.977C38.0966 157.928 38.3292 157.878 38.5617 157.822L38.2023 158.04C38.611 158.054 38.2587 158.372 38.7238 158.146C38.6181 158.146 39.0902 158.026 39.2311 157.822C39.4355 157.843 39.6469 157.871 39.9006 157.723C39.9428 157.618 39.7526 157.463 39.7808 157.399C40.0274 157.554 40.6475 157.181 40.9435 157.322C40.8519 157.293 40.8025 157.167 40.8166 157.131L41.021 157.251C41.1689 157.138 41.183 157.103 41.1196 157.012C41.6129 156.807 41.0703 157.385 41.6199 157.04C41.5706 157.04 41.5847 157.012 41.472 157.019C42.0427 156.737 42.6699 156.723 43.1772 156.427C43.2406 156.117 42.684 156.546 42.7826 156.272C43.5648 156.025 44.4809 155.912 45.0798 155.405L44.9812 155.511C45.2912 155.757 45.3405 155.031 45.714 154.891C45.6224 154.94 45.4815 154.827 45.5308 154.841C45.8549 154.461 46.2989 154.151 46.7569 153.474L46.6301 153.523C46.6935 153.22 46.9049 152.762 46.9331 152.431C47.0458 152.361 47.081 152.171 47.1867 152.311C47.0388 151.748 47.1515 151.29 47.2431 150.804C47.3206 150.324 47.3841 149.817 47.074 149.401C47.0951 149.514 47.0388 149.676 47.0247 149.584C47.0035 149.324 46.9965 149.056 46.9542 148.795C47.1304 148.816 47.074 148.873 47.2431 149.007C47.3136 148.887 47.3277 148.64 47.2713 148.443C47.2572 148.83 47.0176 148.506 46.8908 148.387C46.9472 148.394 46.9824 148.33 47.0317 148.33C46.616 148.02 47.3206 148.161 46.9401 147.668L46.8697 147.724C46.8274 147.513 46.8485 147.28 46.7287 147.069C46.5173 147.062 46.7428 147.322 46.6089 147.393C46.5032 147.097 46.6442 146.653 46.3341 146.477C46.3623 146.625 46.4469 146.808 46.468 146.949C46.1227 146.766 46.165 146.709 46.01 146.526L46.0241 146.54C45.8972 146.406 45.7845 146.273 45.6506 146.146L45.7774 146.223C45.9465 145.603 45.3687 145.497 45.256 144.877C45.3758 145.49 45.1785 145.061 45.0446 145.23C44.9107 145.159 44.7134 145.053 44.7134 145.138C44.6711 144.828 44.3329 144.92 44.2483 144.49C44.1919 144.525 44.051 144.299 43.9735 144.469C43.7621 144.208 44.1144 144.433 44.1497 144.356C43.9242 143.82 43.0645 143.764 42.6558 143.066C42.2048 142.58 42.233 142.319 41.782 141.882C41.5495 141.861 41.789 142.185 41.789 142.185C41.4508 142.094 41.2535 141.939 41.028 141.713C41.0492 141.798 40.9716 141.805 40.8448 141.826C40.6405 141.685 40.8307 141.523 40.4925 141.446C40.4995 141.544 40.5066 141.678 40.57 141.812C40.3445 141.608 40.1613 141.347 39.9217 141.143C39.7949 141.206 39.9992 141.389 40.0485 141.516C39.7737 141.298 39.3227 140.988 39.3157 140.769L39.5412 140.818C39.4355 140.748 39.4073 140.931 39.4707 141.002C39.6539 141.276 39.8724 141.15 39.9217 141.1L39.7526 140.952C40.1472 140.713 40.4925 141.439 40.88 141.65V141.305L41.1337 141.749C41.2535 141.735 41.4015 141.629 41.2324 141.481C41.5847 141.523 41.4156 141.72 41.7397 141.727C41.782 141.727 41.775 141.706 41.7538 141.678L41.9723 141.918C41.9511 141.833 42.1273 141.77 41.9441 141.706C42.5148 141.875 42.5783 142.397 42.8742 142.341L42.846 142.298C43.4239 142.834 42.7897 142.517 43.0997 143.066L43.741 142.89L43.6634 143.109C43.7339 143.151 43.8608 143.242 43.896 143.158C44.0299 143.461 43.7973 143.2 43.8396 143.412C44.2695 143.51 44.5654 144.187 44.8684 144.011C44.8543 144.222 44.5161 143.841 44.7275 144.208C45.0798 144.032 45.0164 144.588 45.3758 144.743C45.4462 144.539 45.1362 144.349 45.5097 144.504C45.4181 144.87 46.0241 144.997 46.165 145.279C45.9747 145.441 46.475 145.878 46.6653 146.364C46.7287 146.287 47.2431 147.153 47.4898 147.583L47.525 147.555C47.3065 147.738 47.5391 148.175 47.5602 148.542C47.7082 148.485 47.7505 148.408 47.7646 148.196L47.8491 148.534C47.7857 148.633 47.7787 148.746 47.7928 148.971L47.9689 148.845C48.0535 149.31 47.9125 149.789 48.0676 150.367C47.8844 150.402 47.5532 149.951 47.4475 150.543C47.5461 150.564 47.7152 150.578 47.7505 150.423C47.7364 150.472 47.673 150.606 47.7152 150.712L47.8703 150.465C47.9478 150.726 47.7364 150.606 47.7575 150.811C47.8985 150.811 47.8632 150.966 47.9689 150.937C47.983 150.881 47.9055 150.754 47.9619 150.67C48.0042 150.909 48.0535 151.205 48.1592 151.311C48.0817 151.283 47.9689 151.297 47.9407 151.473C47.8844 151.924 48.0887 151.649 48.1239 151.924C48.0112 152.023 48.0676 152.333 47.8562 152.304C47.828 152.438 47.9125 152.481 47.9548 152.544C47.835 152.762 47.5884 153.622 47.4757 153.284V153.22C47.4757 153.22 47.4757 153.242 47.4616 153.256C47.0176 153.883 46.8626 154.764 46.2425 155.278L46.2918 155.327C45.9113 155.609 45.4885 155.99 45.1291 156.025C45.0164 156.095 44.9248 156.3 45.0164 156.342C44.6852 156.469 44.6218 156.42 44.2201 156.744C44.5866 156.702 44.1567 156.899 44.5795 156.666C44.199 156.92 44.1426 157.068 43.6282 157.082C43.8467 157.188 43.4027 157.42 43.1843 157.441L43.4309 157.209C43.1984 157.272 43.0152 157.357 42.8249 157.448L43.0152 157.632C42.2612 158.202 41.331 157.716 40.8378 158.393C40.5629 158.315 41.2606 158.125 40.9998 158.012C40.6264 158.181 40.3163 158.625 40.1965 158.667C39.6962 158.963 39.5905 158.498 39.055 158.766C39.1043 158.66 39.1043 158.428 38.6604 158.484C38.2798 158.639 38.2798 158.963 38.5476 158.956C38.6463 158.935 38.6815 158.893 38.6674 158.865C38.8013 158.851 38.9775 158.837 38.8506 158.97L38.7731 158.907C38.604 159.055 38.0543 159.196 38.2235 159.295C37.8993 159.302 38.0543 159.196 38.2657 159.097C37.7866 159.358 37.4695 159.323 36.9692 159.548C37.0396 159.478 37.089 159.365 37.0115 159.386C36.2716 159.703 36.6309 159.337 36.1024 159.436C35.8347 159.633 36.2857 159.703 35.729 159.732C35.426 159.894 35.7149 159.964 35.8629 159.999C35.3414 159.964 34.982 160.323 34.7143 160.422H34.982C34.82 160.422 34.6931 160.457 34.5663 160.486L34.672 160.288C34.531 160.352 34.4042 160.387 34.4183 160.45C34.2421 160.38 34.4747 160.147 34.1364 160.077C33.9532 160.204 33.5093 160.119 33.4881 160.352C34.1012 160.14 33.467 160.584 34.0096 160.507C33.9039 160.507 33.7771 160.528 33.6291 160.591C33.615 160.619 33.6573 160.634 33.7066 160.634C33.1429 160.958 33.3754 160.45 32.7483 160.584C32.854 160.69 32.6496 160.845 32.5439 160.845C32.7976 160.789 32.6214 160.612 32.3748 160.57C31.9943 160.753 31.9238 160.591 31.7195 160.641L31.952 160.549C31.8463 160.443 31.649 160.493 31.3601 160.507C31.3601 160.605 31.6278 160.528 31.5362 160.584C31.1839 160.422 30.8739 160.937 30.4158 160.866C30.2256 160.986 30.437 161.099 30.2679 161.19C29.7534 161.12 29.7675 161.458 29.225 161.402C29.3447 161.211 29.38 161.254 28.9924 161.141C29.2813 161.141 29.5702 161.141 29.8591 161.127C29.6689 161.084 29.4716 161.021 29.2743 160.972C29.528 160.937 29.831 160.993 29.9789 160.937C29.6971 160.845 29.7323 160.887 29.831 160.725C29.528 161.035 29.1193 160.683 28.7458 160.915L28.8233 161.324C28.2384 161.592 27.717 161.289 26.9348 161.479L27.1814 161.38C27.0546 161.225 26.6882 161.416 26.4275 161.38C26.4697 161.514 26.3147 161.585 26.2161 161.683C26.2161 161.578 25.6382 161.761 25.5325 161.493L25.2013 161.719C24.5671 161.846 24.4333 161.387 23.8202 161.486C24.0175 161.62 23.7427 161.74 24.1655 161.817C23.9611 161.838 23.7779 161.881 23.7638 161.782C23.6511 161.881 23.179 161.641 23.0028 161.789C22.9112 161.74 22.876 161.592 22.6434 161.613C22.6223 161.641 22.6434 161.683 22.6434 161.683C22.6434 161.613 22.277 161.606 22.4673 161.444C21.8613 161.902 20.6986 161.521 20.163 161.895C19.712 161.86 19.1694 161.824 18.7607 161.824C18.7889 161.867 18.7607 161.895 18.8383 161.881C18.2745 162.022 18.4859 161.493 17.8517 161.627C17.5276 161.846 18.19 161.754 17.9856 161.838C17.894 162.296 17.2105 161.768 16.7806 162.029L16.8864 162.057C16.5552 162.212 16.083 161.881 15.5475 161.888C15.5475 161.888 15.5757 161.93 15.5475 161.958C15.1881 161.712 14.4975 161.606 13.9831 161.514C14.1311 161.698 14.2157 161.62 14.1029 161.796C13.8704 161.761 14.1875 161.514 13.7295 161.43C13.5744 161.514 13.2362 161.578 13.1798 161.768L13.6167 161.81C13.3771 162.043 13.053 161.761 12.8205 161.789L12.8416 161.902C12.1722 161.817 12.1863 161.543 11.4675 161.5L11.5521 161.423C11.1856 161.106 11.2068 161.543 10.8404 161.296L10.6924 161.564C10.4387 161.472 9.8186 161.204 9.36058 161.099C9.60016 161.331 10.1287 161.493 10.4528 161.655C10.1991 161.627 9.57902 161.543 9.46627 161.395C9.56493 161.43 9.69176 161.514 9.79747 161.479C9.50855 161.232 9.11395 161.07 8.60659 161C8.62068 161.543 7.26773 160.958 6.83084 161.31C5.95706 160.958 4.97758 161.084 3.88536 160.598C4.42795 160.373 3.57531 160.45 3.82195 160.084C3.6035 159.943 3.51189 159.908 3.47666 159.915C3.20184 159.858 2.92702 159.788 2.65221 159.689C2.41262 159.668 2.81428 159.922 2.73677 159.985C2.20827 159.64 2.41967 159.971 2.01097 159.788C2.18008 159.725 1.97573 159.485 1.68682 159.259C1.84185 159.351 2.02506 159.407 2.19418 159.471C1.9405 159.111 1.77843 159.013 1.58112 158.928C1.38382 158.844 1.17946 158.738 1.03853 158.294L1.08081 158.611C0.982162 158.393 0.749622 158.033 0.615738 157.625C0.467758 157.23 0.418434 156.807 0.524132 156.561C0.460712 156.497 0.319778 156.427 0.33387 156.624C0.178844 156.117 0.171803 155.518 0.228176 154.975C0.270454 154.432 0.355011 153.946 0.291592 153.545L0.178852 153.608C0.235222 153.425 0.41843 153.312 0.340919 153.065C0.298641 153.065 0.228172 153.122 0.235218 153.037C0.2775 152.939 0.51004 152.586 0.495945 152.333L0.340919 152.516C0.41843 151.515 0.996254 151.142 1.35563 150.451C1.05967 150.331 1.28516 149.591 1.41905 149.225H1.37677C1.90527 148.168 2.60993 147.738 3.32164 147.012C3.44143 146.294 4.61116 145.307 5.23127 144.504C5.15375 144.652 5.41448 144.666 5.56245 144.567C5.6893 144.356 6.1896 144.307 5.9782 144.109L5.91479 144.166C5.87251 143.841 6.28826 143.574 6.59126 143.341L6.87312 143.595C7.32411 142.538 9.07871 142.263 9.28306 141.601C9.52969 141.551 9.78337 141.403 10.037 141.368L9.9243 141.199C10.4739 140.826 10.7558 140.649 11.5027 140.325L11.2913 140.269C11.7 140.057 12.0665 140.53 12.447 140.36L12.4329 140.036C13.1516 139.705 13.7999 139.148 14.6314 139.113C14.6032 139.078 14.5539 139.007 14.4271 139.043C14.7653 138.888 15.7166 138.345 15.7237 138.775C15.6461 138.521 16.4917 138.472 16.9357 138.465L16.8088 138.296C17.2316 138.43 17.2598 138.486 17.7601 138.409C17.8658 138.352 17.8165 138.232 17.6756 138.324C18.0279 138.113 18.0209 138.416 18.4577 138.183L18.2534 138.113C18.641 137.986 18.6339 138.063 18.8876 138.148C19.1554 138.155 19.6275 137.915 19.6486 137.732C19.7261 137.824 19.9798 137.915 20.1983 137.817C20.2194 137.746 20.1207 137.725 20.0714 137.711C20.7197 137.443 21.1073 137.732 21.5371 137.471C21.5371 137.408 21.5582 137.366 21.5935 137.344C21.0509 137.429 20.6281 137.535 20.6704 137.542C20.6351 137.366 21.065 137.246 20.6704 137.07C21.0509 137.126 21.6992 137.33 22.1079 137.175C22.129 137.154 22.1431 137.133 22.1572 137.105L22.1079 137.091C22.2065 137.063 22.2981 137.063 22.3827 137.091C22.5166 137.041 22.6011 137.013 22.728 136.992C22.7632 136.83 23.2283 136.858 23.4467 136.83C23.4467 137.027 23.7286 136.971 23.4749 137.161C23.5102 137.147 23.4326 137.14 23.2847 137.147C23.2494 137.147 23.2142 137.147 23.186 137.133L23.2001 137.147C23.0521 137.154 22.8689 137.168 22.6575 137.197C22.8407 137.274 23.031 137.337 23.2635 137.204C23.3904 137.316 23.5242 137.436 23.5947 137.492C23.8625 137.182 24.4333 137.006 24.5108 136.83C25.1943 136.893 26.1174 136.858 26.5261 137.239C26.7164 137.288 26.7445 137.14 26.8221 137.084C26.7164 137.041 26.5825 137.041 26.5261 136.985C26.9066 137.091 27.6606 137.07 27.7311 137.344C28.2173 137.267 27.4774 137.084 28.1327 137.182L28.0482 137.098C28.7176 136.95 29.239 137.182 29.7534 137.429C30.2679 137.669 30.7823 137.908 31.5433 137.831C31.4376 137.831 31.3883 137.838 31.353 137.873C33.0231 138.049 34.4888 139.085 36.0813 139.529C36.5323 139.677 36.49 139.86 36.6662 140.107L36.8635 139.973C36.9621 140.128 37.0608 140.276 37.1453 140.431C37.6034 140.945 38.4349 140.656 38.907 141.481L38.7308 141.523C38.9915 141.699 39.4284 142.214 39.4919 142.066C39.4919 142.108 39.4637 142.242 39.6046 142.27L39.6892 142.193C39.8301 142.411 39.9781 142.629 40.1049 142.862C40.57 143.235 40.3586 142.481 40.9787 143.109C41.1619 143.39 41.3381 144.025 41.1971 143.975C41.1055 143.884 40.9294 143.771 40.8378 143.834L40.9787 144.088C40.7602 144.335 40.6264 144.701 40.0204 144.342C39.971 144.18 39.9217 144.018 39.8653 143.856H39.6469C39.7385 143.947 39.823 144.046 39.9076 144.152C39.6539 144.081 39.6469 143.898 39.6046 143.722C39.52 143.75 39.4284 143.75 39.3439 143.701C39.3157 143.517 39.2875 143.327 39.2382 143.151C39.1113 143.207 39.21 143.475 38.9352 143.32C38.8788 143.066 39.2875 143.25 39.0902 142.939C38.8224 142.897 38.7942 143.031 38.6815 142.756C38.5969 142.791 38.604 142.876 38.6533 142.968C38.5547 142.728 38.2094 142.538 38.2305 142.319C37.9416 142.305 37.6245 141.798 37.4624 142.059C37.4483 141.953 37.2792 141.615 37.096 141.488C37.2158 142.016 36.4125 141.051 36.2786 141.46C36.2081 141.023 35.4542 140.797 35.0807 140.403C35.0948 140.438 35.123 140.515 35.1652 140.522C34.8975 140.41 34.7706 140.473 34.5804 140.445C34.6649 140.184 34.2844 139.924 34.1153 139.677C33.6784 139.783 34.1928 140.057 33.9814 140.248C34.0871 140.05 33.4952 139.804 33.6784 139.677C33.3613 139.726 33.4318 139.663 33.2133 139.825C33.2908 139.487 32.9949 139.684 32.854 139.409C32.4241 139.437 32.6566 139.677 32.2761 139.444C32.0506 139.487 32.3748 139.712 32.3748 139.712L32.3325 139.663ZM22.1149 138.345C22.2065 138.345 22.284 138.338 22.3334 138.331C22.2911 138.331 22.2277 138.331 22.1149 138.345ZM21.2411 138.486C21.3468 138.458 21.4807 138.437 21.6217 138.416C21.6428 138.345 21.5935 138.282 21.5089 138.296C21.5653 138.331 21.3609 138.409 21.2411 138.486ZM22.9464 136.851C22.7985 136.837 22.7491 136.886 22.735 136.929C22.8055 136.929 22.883 136.922 22.9958 136.929L23.0169 136.95C22.9958 136.915 22.9817 136.879 22.9464 136.858V136.851Z" fill="#C6B08D"/>
<path d="M23.2353 137.084C23.2353 137.084 23.2706 137.091 23.2988 137.091C23.2706 137.112 23.2424 137.126 23.2142 137.148L23.1577 137.091C23.1577 137.091 23.2142 137.091 23.2353 137.091V137.084Z" fill="#C6B08D"/>
<path d="M47.4541 153.227V153.248C47.4541 153.248 47.4541 153.213 47.4401 153.199C47.4401 153.213 47.4471 153.22 47.4541 153.227Z" fill="#C6B08D"/>
<path d="M10.0009 143.165L9.97272 143.115H10.0645L10.0009 143.165Z" fill="#C6B08D"/>
<path d="M46.8477 148.337C46.8477 148.337 46.8053 148.323 46.7771 148.295C46.7912 148.295 46.8194 148.316 46.8477 148.337Z" fill="#C6B08D"/>
<path d="M45.9736 146.486L45.7619 146.281C45.8607 146.366 45.9242 146.429 45.9736 146.486Z" fill="#C6B08D"/>
<path d="M44.9665 145.265C44.9806 145.23 44.9947 145.209 45.0088 145.188L44.9594 145.265H44.9665Z" fill="#C6B08D"/>
<path d="M31.5498 159.266C31.5498 159.266 31.5075 159.266 31.4863 159.266C31.3311 159.252 31.4369 159.252 31.5498 159.266Z" fill="#C6B08D"/>
<path d="M39.1885 157.787C39.0967 157.78 39.0121 157.766 38.9203 157.773C39.0473 157.716 39.1532 157.681 39.1885 157.787Z" fill="#C6B08D"/>
<path d="M22.9609 160.168V160.175L22.9049 160.182L22.9609 160.168Z" fill="#C6B08D"/>
<path d="M38.582 157.884C38.7019 157.807 38.8148 157.779 38.9277 157.771C38.8219 157.821 38.7019 157.877 38.582 157.884Z" fill="#C6B08D"/>
<path d="M39.3574 141.185L39.2869 141.156C39.2869 141.156 39.2939 141.135 39.2869 141.121L39.3504 141.185H39.3574Z" fill="#C6B08D"/>
<path d="M39.2939 141.122L39.2304 141.059C39.2657 141.08 39.2939 141.094 39.2939 141.122Z" fill="#C6B08D"/>
<path d="M39.0893 140.924L39.2305 141.058C39.174 141.03 39.1035 140.994 39.0893 140.924Z" fill="#C6B08D"/>
<path d="M41.2676 142.199L41.2464 142.27C41.2464 142.27 41.2464 142.227 41.2676 142.199Z" fill="#C6B08D"/>
<path d="M41.8027 142.573C41.6689 142.496 41.3943 142.489 41.2394 142.334L41.2535 142.277C41.2816 142.418 41.7534 142.39 41.8027 142.573Z" fill="#C6B08D"/>
<path d="M44.5303 143.566L44.0655 143.228C44.1923 143.228 44.3613 143.242 44.1711 143.059C44.8683 143.368 43.9528 143.087 44.5303 143.566Z" fill="#C6B08D"/>
<path d="M45.8403 144.787C45.6709 144.526 45.925 144.716 45.9532 144.681C46.0238 144.878 46.0449 144.928 45.8403 144.787Z" fill="#C6B08D"/>
<path d="M44.9103 156.414L45.0303 156.555C44.7974 156.654 44.995 156.499 44.9103 156.414Z" fill="#C6B08D"/>
<path d="M42.3385 156.533L42.5078 156.35L42.6631 156.47L42.3385 156.533Z" fill="#C6B08D"/>
<path d="M41.4364 158.21L41.5352 158.203L41.1471 158.267L41.4364 158.21Z" fill="#C6B08D"/>
<path d="M20.627 162.042L20.6906 161.816C20.8529 161.845 20.8952 162.099 20.627 162.042Z" fill="#C6B08D"/>
<path d="M11.4951 161.578C11.3895 161.677 11.1219 161.719 10.974 161.599C11.1782 161.599 11.3895 161.543 11.4951 161.578Z" fill="#C6B08D"/>
<path d="M7.01383 143.039L6.81625 143.095L7.13379 142.926L7.01383 143.039Z" fill="#C6B08D"/>
<path d="M28.5476 69.8027C26.7648 70.1621 24.2773 70.6413 22.5438 70.8738L22.6284 71.4657C22.2902 72.875 22.6284 74.3196 22.6284 74.3196C22.6284 74.3196 27.5751 74.1646 30.7461 73.9532V69.9577L28.5476 69.8098V69.8027Z" fill="#D28689"/>
<path d="M27.2227 26.3672L25.8133 27.7765L26.0529 28.3896L27.9273 33.2447L32.1553 29.8905L28.2233 27.086V27.0789L27.2227 26.3672Z" fill="#D28689"/>
<path d="M37.1727 64.8134L41.2949 65.0459C41.1117 64.4258 39.8222 60.1485 38.7863 59.5707C38.1944 59.2395 37.1656 59.0352 36.1298 59.0352C36.0734 59.0352 36.01 59.0352 35.9536 59.0422C35.0798 59.1338 34.1426 59.8385 33.5648 60.1908V60.2049C34.6006 60.4445 35.3969 60.6841 35.5801 60.8955C36.1861 61.6001 37.0881 62.3048 37.2008 64.2497L37.1727 64.8134Z" fill="#F5CF24"/>
<path d="M28.5973 64.3274L37.173 64.8136L37.2012 64.2499C37.0884 62.3051 36.1865 61.6004 35.5805 60.8957C35.3972 60.6843 34.601 60.4448 33.5581 60.2052C33.544 60.2052 33.5369 60.1981 33.5228 60.1981C31.0354 59.6344 27.2232 59.0918 27.2232 59.0918L28.0265 61.7343L28.6325 63.7144L28.5973 64.3274Z" fill="#F5CF24"/>
<path d="M51.7734 35.839C51.7734 35.839 52.5908 32.7103 51.7734 31.301C50.956 29.8917 46.9535 27.7777 43.9799 28.1089C43.2259 28.1935 42.5424 28.8488 41.9646 29.8071H41.9575C40.513 32.1959 39.6815 36.4168 39.8294 38.2912L39.6251 38.3053C39.2023 37.6429 37.0954 36.3464 37.4477 35.233C37.793 34.1197 39.6251 33.2459 39.6251 33.2459V31.6533L41.2176 30.3074L41.1542 30.1806C41.0485 30.2299 40.9287 30.2863 40.8019 30.3497C39.6674 30.9064 38.0114 31.7943 37.201 32.6258C35.9045 33.9505 38.4976 39.7569 38.7865 40.4616C39.0754 41.1662 42.0209 39.7569 42.4155 39.7569L43.0497 39.9331C43.9235 38.7211 45.5442 37.6429 45.5442 37.6429L45.6429 37.3118C45.5513 37.3118 45.657 33.7814 45.657 33.7814L46.3687 33.725C46.3264 33.5418 46.2912 33.4009 46.27 33.3234L46.9958 33.1965C47.4327 34.1549 48.3065 36.0222 48.687 36.6494L50.202 36.5226C49.7017 35.5642 49.1521 33.4995 48.9055 32.5342L50.2161 32.6258H50.2302C50.5262 32.6258 51.1463 34.4649 51.7734 35.839Z" fill="#F5CF24"/>
<path d="M42.8672 141.642L41.937 138.696L41.472 138.83L40.9294 136.991L37.1735 135.828V140.352L37.2581 139.506C37.2581 139.506 37.089 141.93 39.9076 141.93C42.7263 141.93 42.5078 141.247 42.5078 141.247C42.5078 141.247 42.6417 141.395 42.8672 141.642Z" fill="#D28689"/>
<path d="M43.4295 70.76H42.7248L38.2502 70.457L38.222 70.9221V74.3045C40.9843 74.685 43.5352 75.1571 43.5352 75.1571L43.4295 70.76Z" fill="#D28689"/>
<path d="M42.8664 141.643C42.6409 141.396 42.507 141.248 42.507 141.248C42.507 141.248 42.7254 141.932 39.9068 141.932C37.0881 141.932 37.2573 139.508 37.2573 139.508L37.1727 140.353L36.3835 148.274L52.8373 150.606C52.8373 150.606 54 149.683 54 148.274C54 146.864 50.4767 146.864 48.3627 146.16C46.6433 145.589 43.8529 142.7 42.8664 141.643Z" fill="#D28689"/>
<path d="M42.7256 65.1238L41.2951 65.0463L37.1729 64.8137L28.5971 64.3275L27.2231 64.25C27.2231 64.25 33.565 67.2378 35.5803 67.2378C36.3343 67.2378 37.5252 66.9418 38.7231 66.5683C40.7243 65.9482 42.7256 65.1238 42.7256 65.1238Z" fill="#D28689"/>
<path d="M38.7862 15.8043C38.7862 15.8043 40.6112 15.7972 40.9777 15.0926C41.3441 14.3879 41.3159 10.8646 40.6112 8.75063C39.9066 6.63664 37.0879 4.52266 34.9739 3.11334C33.3814 2.0493 30.9856 1.7886 29.6044 1.72518V1.70402L27.2227 1.11914C25.0735 1.67582 20.0915 4.15624 19.4714 6.63664C18.7668 9.45529 17.6252 13.6832 18.5483 15.0926C19.4714 16.5019 20.8807 17.9112 20.8807 17.9112C21.5854 17.2066 23.6994 17.2066 23.6994 17.2066C23.6994 17.2066 22.2901 15.7972 22.2901 14.3879C22.2901 12.9786 24.404 5.93198 24.404 5.93198C24.404 5.93198 26.518 8.75063 27.9273 9.45529C29.3367 10.1599 33.8465 12.2739 35.8195 10.8646H37.7433C38.1238 11.5693 38.4832 13.6903 38.6664 15.8113H38.7862V15.8043Z" fill="#D28689"/>
<path d="M38.7227 66.5675C37.5248 66.941 36.3339 67.237 35.5799 67.237C33.5646 67.237 27.2227 64.2492 27.2227 64.2492L28.5967 64.3267L28.632 63.7137L28.026 61.7336L27.2227 59.0911C27.2227 59.0911 31.0349 59.6337 33.5223 60.1974L33.6703 59.5703C34.2411 59.2179 35.0867 59.0559 35.9534 59.0418C36.0098 59.0347 36.0732 59.0347 36.1296 59.0347L34.3256 58.0764C34.3256 58.0764 34.9739 53.1438 35.0303 48.9158C35.0867 44.6878 33.621 33.2442 33.621 33.2442L33.1418 31.6093C34.1072 31.3275 37.2006 29.8054 37.2006 29.8054L36.0098 28.1072L34.6216 26.1271L34.6498 26.1059L34.3256 25.6761L34.2058 25.4154C33.8324 25.5845 33.4448 25.6761 33.0643 25.6761C31.5986 25.6691 29.3719 25.3801 27.9273 25.1758L28.2233 27.0784L32.1553 29.89L27.9273 33.2442L26.0529 28.389L25.8133 28.4806C25.1087 28.4806 20.8807 30.5946 19.4714 30.5946C18.0621 30.5946 13.51 46.0972 13.51 46.0972L16.9276 48.5353L16.6528 48.9158C16.6528 48.9158 14.5388 56.6671 14.5388 58.781C14.5388 59.8662 17.5195 61.6631 20.4156 63.1499L20.2677 65.6515H20.3663C20.1901 67.392 20.2395 70.4784 20.5284 70.9224C20.627 71.0704 21.4303 71.021 22.5437 70.873C24.2772 70.6405 26.7646 70.1613 28.5474 69.8019L30.746 69.9569L34.5582 70.2107L34.5793 69.9429C34.7343 69.9429 34.8682 69.9288 34.9739 69.8865C36.3832 69.351 38.7861 67.237 38.7861 67.237L38.7227 66.5675Z" fill="#D28689"/>
<path d="M30.7463 73.9525C31.303 73.9173 31.8033 73.882 32.212 73.8397C33.4663 73.7199 35.9186 73.9807 38.2228 74.3048V70.9225L38.251 70.4574L34.5586 70.2107L30.7463 69.957V73.9525Z" fill="#D28689"/>
<path d="M18.4996 132.805L19.0281 137.322L23.3477 137.801L22.5866 133.756L18.4996 132.805Z" fill="#D28689"/>
<path d="M26.7361 13.7041C25.9539 13.7252 25.7214 13.2531 26.0949 12.7739C26.5177 12.2454 27.6592 12.1397 28.2018 12.4497L28.2652 12.5132C28.5471 13.2672 27.476 13.7252 26.7361 13.7041ZM30.3017 22.7448C29.1531 22.6462 28.6317 19.6796 28.6317 19.6796L33.2683 20.1094C33.2683 20.1094 31.4503 22.8435 30.3017 22.7448ZM35.4457 14.5637C34.7763 14.6483 33.8884 13.9225 33.7123 13.3165V13.2319C34.0434 12.492 35.1286 12.9148 35.636 13.4574C36.2138 13.9859 36.0447 14.4792 35.4457 14.5637ZM37.7429 10.8643H35.8192C33.8461 12.2736 29.3363 10.1596 27.927 9.45494C26.5177 8.75028 24.4037 5.93164 24.4037 5.93164C24.4037 5.93164 22.2897 12.9782 22.2897 14.3876C22.2897 15.7969 23.699 17.2062 23.699 17.2062C23.699 17.2062 21.585 17.2062 20.8804 17.9109C20.1757 18.6155 20.1757 21.4342 21.585 22.1388C22.9944 22.8435 23.699 21.4342 24.4037 22.1388C25.1083 22.8435 26.5177 24.9575 26.5177 24.9575C26.5177 24.9575 27.0884 25.0561 27.927 25.1759C29.3715 25.3803 31.5983 25.6692 33.064 25.6762C33.4445 25.6762 33.832 25.5846 34.2055 25.4155C35.2977 24.9434 36.3406 23.8723 37.151 22.8224C37.7641 22.0261 38.2432 21.2369 38.4969 20.7295C38.7576 20.2151 38.821 18.9397 38.7717 17.4669C38.7506 16.9314 38.7153 16.3677 38.666 15.811C38.4828 13.69 38.1234 11.5689 37.7429 10.8643Z" fill="#D28689"/>
<path d="M39.3289 22.4346C40.0688 21.9766 41.2879 21.1099 41.2103 20.3489C41.1046 19.2567 39.9067 17.9107 38.7863 17.4668H38.7722C38.8215 18.9395 38.7581 20.215 38.4974 20.7294C38.2437 21.2367 37.7646 22.026 37.1515 22.8222C37.5038 22.7095 39.2162 22.1669 39.3289 22.4346Z" fill="#D28689"/>
<path d="M39.829 38.2895C39.681 36.4151 40.5125 32.1943 41.957 29.8125C41.8936 29.8336 41.5906 29.9675 41.1537 30.1789L41.2171 30.3058L39.6246 31.6517V33.2442C39.6246 33.2442 37.7925 34.118 37.4472 35.2313C37.0949 36.3447 39.2018 37.6413 39.6246 38.3036L39.829 38.2895Z" fill="#F5CF24"/>
<path d="M28.2029 12.4504C27.6603 12.1403 26.5188 12.2461 26.096 12.7746C25.7225 13.2537 25.9551 13.7258 26.7372 13.7047C27.4771 13.7258 28.5482 13.2678 28.2663 12.5138L28.2029 12.4504Z" fill="#4F4131"/>
<path d="M19.0276 137.322L16.6529 145.926L30.7461 148.273C30.7461 148.273 30.0414 145.454 28.5053 145.059C26.9691 144.658 23.3472 137.801 23.3472 137.801L19.0276 137.322Z" fill="#D28689"/>
<path d="M52.7312 37.2897C52.4423 37.1699 52.1041 36.5709 51.7729 35.8381C51.1457 34.464 50.5256 32.6248 50.2297 32.6248H50.2156L48.9049 32.5332C49.1515 33.4986 49.7012 35.5633 50.2015 36.5216L48.6865 36.6484C48.3059 36.0213 47.4322 34.1539 46.9953 33.1956L46.2695 33.3224C46.2906 33.3999 46.3258 33.5409 46.3681 33.7241L45.6564 33.7805C45.6564 33.7805 45.5507 37.3108 45.6423 37.3108L45.5437 37.642C45.5437 37.642 43.9229 38.7201 43.0492 39.9321C42.9223 40.1083 42.8096 40.2845 42.725 40.4606C42.0204 41.87 42.725 46.0979 42.725 46.0979V47.9371C42.725 47.9371 45.5437 60.1911 46.7345 60.8958C47.9254 61.6004 49.067 58.0772 49.6236 56.8088C50.1874 55.5404 45.6564 46.0979 45.6564 46.0979C45.6564 46.0979 46.953 46.0979 47.7563 45.0409L47.6154 44.9L49.3841 43.1454C50.8004 41.2076 53.45 37.5927 52.7312 37.2897Z" fill="#D28689"/>
<path d="M46.7349 62.7978V60.8952C45.544 60.1906 42.7254 47.9365 42.7254 47.9365V46.0974C42.7254 46.0974 42.0207 41.8694 42.7254 40.4601C42.8099 40.2839 42.9227 40.1078 43.0495 39.9316L42.4153 39.7554C42.0207 39.7554 39.0752 41.1648 38.7863 40.4601C38.4974 39.7554 35.9043 33.949 37.2008 32.6243C38.0112 31.7928 39.6671 30.9049 40.8016 30.3482L39.9983 30.306L36.0099 28.1074L37.2008 29.8056C37.2008 29.8056 34.1074 31.3277 33.142 31.6096L33.6212 33.2444C33.6212 33.2444 35.0868 44.6881 35.0305 48.916C34.9741 53.144 34.3258 58.0766 34.3258 58.0766L36.1297 59.0349C37.1656 59.0349 38.1944 59.2393 38.7863 59.5705C39.8222 60.1483 41.1117 64.4256 41.2949 65.0457L42.7254 65.1232C42.7254 65.1232 40.7241 65.9477 38.7229 66.5678L38.7863 67.2372C38.7863 67.2372 36.3834 69.3512 34.9741 69.8867C34.8684 69.929 34.7345 69.9431 34.5795 69.9431L34.5583 70.2109L38.2508 70.4575L42.7254 70.7605H43.43C43.43 70.7605 46.2487 71.4652 46.9745 69.9431C47.5805 68.6747 46.6715 65.1867 46.3262 62.8613L46.7349 62.7978Z" fill="#D28689"/>
<path d="M33.2686 20.1095L28.6319 19.6797C28.6319 19.6797 29.1533 22.6463 30.3019 22.7449C31.4505 22.8436 33.2686 20.1095 33.2686 20.1095Z" fill="#D28689"/>
<path d="M33.5643 60.1916C34.1421 59.8392 35.0793 59.1346 35.9531 59.043C35.0864 59.0571 34.2408 59.2191 33.67 59.5715L33.522 60.1986C33.522 60.1986 33.5432 60.2057 33.5573 60.2057V60.1916H33.5643Z" fill="#D28689"/>
<path d="M42.542 110.743C43.148 103.415 43.5356 94.4867 43.5356 94.4867C43.5356 94.4867 44.1345 77.1028 43.5356 75.764V75.1579C43.5356 75.1579 40.9847 74.6858 38.2224 74.3053C35.9182 73.9812 33.466 73.7204 32.2117 73.8402C31.803 73.8825 31.3026 73.9177 30.746 73.953C27.575 74.1644 22.6283 74.3194 22.6283 74.3194C22.6283 74.3194 21.5854 75.6935 21.071 77.131C20.5495 78.5685 19.4714 102.471 20.1761 104.07C20.8807 105.663 16.6528 132.376 16.6528 132.376L18.499 132.806L22.586 133.758L24.404 134.18L25.5033 129.734C26.6026 125.287 30.0413 106.699 30.0413 104.585C30.0413 103.267 31.1476 93.1268 31.8241 85.6785L32.2117 85.7138L33.621 105.987C33.621 105.987 33.5646 110.222 34.3256 110.771C35.0867 111.321 34.9739 135.146 34.9739 135.146L37.1725 135.829L40.9283 136.992L43.5356 137.802V115.704L42.8661 110.771L42.542 110.743Z" fill="#D28689"/>
<path d="M35.6368 13.4585C35.1295 12.9159 34.0443 12.4931 33.7131 13.233V13.3176C33.8893 13.9236 34.7772 14.6494 35.4466 14.5648C36.0456 14.4803 36.2147 13.987 35.6368 13.4585Z" fill="#4F4131"/>
<path d="M37.7429 10.8643C38.1234 11.5689 38.4828 13.69 38.666 15.811C38.7153 16.3677 38.7506 16.9314 38.7717 17.4669C38.821 18.9397 38.7576 20.2151 38.4969 20.7295C38.2432 21.2369 37.7641 22.0261 37.151 22.8224C36.3406 23.8723 35.2977 24.9434 34.2055 25.4155C33.832 25.5846 33.4445 25.6762 33.064 25.6762C31.5983 25.6692 29.3715 25.3803 27.927 25.1759C27.0884 25.0561 26.5177 24.9575 26.5177 24.9575C26.5177 24.9575 25.1083 22.8435 24.4037 22.1388C23.699 21.4342 22.9944 22.8435 21.585 22.1388C20.1757 21.4342 20.1757 18.6155 20.8804 17.9109C21.585 17.2062 23.699 17.2062 23.699 17.2062C23.699 17.2062 22.2897 15.7969 22.2897 14.3876C22.2897 12.9782 24.4037 5.93164 24.4037 5.93164C24.4037 5.93164 26.5177 8.75028 27.927 9.45494C29.3363 10.1596 33.8461 12.2736 35.8192 10.8643" stroke="#4F4131" stroke-linecap="round" stroke-linejoin="round"/>
<path d="M27.2225 5.22852L38.4971 9.45648" stroke="#4F4131" stroke-linecap="round" stroke-linejoin="round"/>
<path d="M28.632 1.70508C28.8082 1.70508 29.1464 1.7051 29.6044 1.72624C30.9856 1.78966 33.3814 2.05036 34.974 3.1144C37.0879 4.52372 39.9066 6.6377 40.6112 8.75168C41.3159 10.8657 41.3441 14.389 40.9777 15.0936C40.6112 15.7983 38.7862 15.8053 38.7862 15.8053" stroke="#4F4131" stroke-linecap="round" stroke-linejoin="round"/>
<path d="M38.7863 17.4668C39.9067 17.9107 41.1046 19.2567 41.2103 20.3489C41.2879 21.1099 40.0688 21.9766 39.3289 22.4346C39.0118 22.6249 38.7863 22.7447 38.7863 22.7447" stroke="#4F4131" stroke-linecap="round" stroke-linejoin="round"/>
<path d="M27.9277 1C27.7586 1 27.519 1.04227 27.2231 1.11978C25.0739 1.67646 20.0919 4.15688 19.4718 6.63728C18.7671 9.45593 17.6256 13.6839 18.5487 15.0932C19.4718 16.5025 20.8811 17.9119 20.8811 17.9119" stroke="#4F4131" stroke-linecap="round" stroke-linejoin="round"/>
<path d="M32.8602 15.0938C33.5648 15.7984 34.2695 17.7292 32.8602 17.4685" stroke="#4F4131" stroke-linecap="round" stroke-linejoin="round"/>
<path d="M33.2686 20.1095L28.6319 19.6797C28.6319 19.6797 29.1533 22.6463 30.3019 22.7449C31.4505 22.8436 33.2686 20.1095 33.2686 20.1095Z" stroke="#4F4131" stroke-linecap="round" stroke-linejoin="round"/>
<path d="M28.2233 27.086L32.1553 29.8905L27.9273 33.2447L26.0529 28.3896L25.8133 27.7765L27.2227 26.3672L28.2233 27.0789" stroke="#4F4131" stroke-linecap="round" stroke-linejoin="round"/>
<path d="M27.9277 25.1777L28.2236 27.0803V27.0874" stroke="#4F4131" stroke-linecap="round" stroke-linejoin="round"/>
<path d="M33.2686 26.1289V27.0872" stroke="#4F4131" stroke-linecap="round" stroke-linejoin="round"/>
<path d="M34.6221 26.1289L36.0103 28.109L37.2012 29.8072C37.2012 29.8072 34.1077 31.3293 33.1423 31.6111C32.9662 31.6675 32.8605 31.6746 32.8605 31.6252C32.8605 31.3011 34.0795 27.0872 34.0795 27.0872" stroke="#4F4131" stroke-linecap="round" stroke-linejoin="round"/>
<path d="M25.8135 28.4824C25.1088 28.4824 20.8809 30.5964 19.4715 30.5964C18.0622 30.5964 13.5101 46.0989 13.5101 46.0989L16.9277 48.5371L22.3888 52.4409C22.3888 52.4409 25.8135 44.6896 25.8135 43.2803" stroke="#4F4131" stroke-linecap="round" stroke-linejoin="round"/>
<path d="M21.6701 32.625C22.2902 33.4142 25.8135 38.3468 25.8135 39.7562" stroke="#4F4131" stroke-linecap="round" stroke-linejoin="round"/>
<path d="M16.6529 48.918C16.6529 48.918 14.5389 56.6692 14.5389 58.7832C14.5389 59.8684 17.5196 61.6653 20.4158 63.1521C23.1569 64.5614 25.8135 65.6889 25.8135 65.6889" stroke="#4F4131" stroke-linecap="round" stroke-linejoin="round"/>
<path d="M16.653 55.2598C18.0624 55.2598 23.6996 58.7831 24.4043 60.897" stroke="#4F4131" stroke-linecap="round" stroke-linejoin="round"/>
<path d="M21.0713 52.4414L19.662 55.852" stroke="#4F4131" stroke-linecap="round" stroke-linejoin="round"/>
<path d="M24.4039 62.7977C25.0522 62.3396 27.6454 61.8111 28.0259 61.7336C28.0611 61.7266 28.0752 61.7266 28.0752 61.7266" stroke="#4F4131" stroke-linecap="round" stroke-linejoin="round"/>
<path d="M38.7231 66.5683C37.5252 66.9418 36.3343 67.2378 35.5803 67.2378C33.565 67.2378 27.2231 64.25 27.2231 64.25L28.5971 64.3275L37.1729 64.8137L41.2951 65.0463L42.7256 65.1238C42.7256 65.1238 40.7244 65.9482 38.7231 66.5683Z" stroke="#4F4131" stroke-linecap="round" stroke-linejoin="round"/>
<path d="M37.2012 64.2499C37.0884 62.3051 36.1865 61.6004 35.5805 60.8957C35.3972 60.6843 34.601 60.4448 33.5581 60.2052C33.544 60.2052 33.5369 60.1981 33.5228 60.1981C31.0354 59.6344 27.2232 59.0918 27.2232 59.0918L28.0265 61.7343L28.6325 63.7144" stroke="#4F4131" stroke-linecap="round" stroke-linejoin="round"/>
<path d="M33.5651 60.1908C34.143 59.8385 35.0802 59.1338 35.9539 59.0422C36.0103 59.0352 36.0737 59.0352 36.1301 59.0352C37.166 59.0352 38.1948 59.2395 38.7867 59.5707C39.8225 60.1485 41.1121 64.4258 41.2953 65.0459C41.3094 65.0953 41.3164 65.1234 41.3164 65.1234" stroke="#4F4131" stroke-linecap="round" stroke-linejoin="round"/>
<path d="M27.2227 66.5273C27.8709 67.1827 32.7331 69.945 34.5793 69.945C34.7343 69.945 34.8682 69.9309 34.9739 69.8886C36.3832 69.353 38.7861 67.2391 38.7861 67.2391" stroke="#4F4131" stroke-linecap="round" stroke-linejoin="round"/>
<path d="M32.2126 68.5354L35.0312 68.2324" stroke="#4F4131" stroke-linecap="round" stroke-linejoin="round"/>
<path d="M48.7781 43.9841C48.926 43.7727 49.1374 43.4838 49.3841 43.1456C50.8004 41.2078 53.45 37.5929 52.7312 37.2898C52.4423 37.1701 52.1041 36.5711 51.7729 35.8383C51.1457 34.4642 50.5256 32.625 50.2297 32.625H50.2156" stroke="#4F4131" stroke-linecap="round" stroke-linejoin="round"/>
<path d="M50.4766 36.9385C50.392 36.8539 50.2934 36.706 50.2017 36.5228C49.7014 35.5644 49.1518 33.4997 48.9052 32.5344C48.8277 32.2102 48.7783 32.0059 48.7783 32.0059" stroke="#4F4131" stroke-linecap="round" stroke-linejoin="round"/>
<path d="M48.7783 36.7825C48.7501 36.7473 48.7219 36.705 48.6867 36.6486C48.3062 36.0215 47.4324 34.1541 46.9955 33.1958C46.8405 32.8505 46.7348 32.625 46.7348 32.625" stroke="#4F4131" stroke-linecap="round" stroke-linejoin="round"/>
<path d="M47.2148 37.2204C47.0175 36.4805 46.5806 34.6131 46.3693 33.7253C46.327 33.542 46.2917 33.4011 46.2706 33.3236C46.2636 33.2743 46.2565 33.2461 46.2565 33.2461" stroke="#4F4131" stroke-linecap="round" stroke-linejoin="round"/>
<path d="M45.6562 37.2904C45.6562 37.2904 45.6492 37.3116 45.6422 37.3116C45.5506 37.3116 45.6562 33.7812 45.6562 33.7812" stroke="#4F4131" stroke-linecap="round" stroke-linejoin="round"/>
<path d="M45.5439 37.6426C45.5439 37.6426 43.9232 38.7207 43.0494 39.9327C42.9226 40.1089 42.8099 40.2851 42.7253 40.4612C42.0206 41.8705 42.7253 46.0985 42.7253 46.0985" stroke="#4F4131" stroke-linecap="round" stroke-linejoin="round"/>
<path d="M47.7569 45.041C46.9536 46.098 45.6571 46.098 45.6571 46.098C45.6571 46.098 50.188 55.5405 49.6243 56.8089C49.0676 58.0772 47.9261 61.6005 46.7352 60.8959C45.5443 60.1912 42.7257 47.9372 42.7257 47.9372" stroke="#4F4131" stroke-linecap="round" stroke-linejoin="round"/>
<path d="M36.0097 28.1094L39.998 30.3079" stroke="#4F4131" stroke-linecap="round" stroke-linejoin="round"/>
<path d="M41.9646 29.8071C42.5424 28.8488 43.2259 28.1935 43.9799 28.1089C46.9535 27.7777 50.956 29.8917 51.7734 31.301C52.5908 32.7103 51.7734 35.839 51.7734 35.839" stroke="#4F4131" stroke-linecap="round" stroke-linejoin="round"/>
<path d="M39.9981 39.0525C39.9065 38.8905 39.8501 38.6297 39.829 38.2915C39.681 36.4171 40.5125 32.1962 41.957 29.8145" stroke="#4F4131" stroke-linecap="round" stroke-linejoin="round"/>
<path d="M42.415 39.7572C42.0204 39.7572 39.0749 41.1665 38.786 40.4619C38.4971 39.7572 35.904 33.9508 37.2006 32.626C38.0109 31.7945 39.6669 30.9067 40.8014 30.35C40.9282 30.2866 41.048 30.2302 41.1537 30.1809C41.5906 29.9695 41.8936 29.8356 41.957 29.8145H41.9641" stroke="#4F4131" stroke-linecap="round" stroke-linejoin="round"/>
<path d="M39.6252 38.3045C39.2024 37.6421 37.0955 36.3456 37.4478 35.2322C37.7931 34.1188 39.6252 33.2451 39.6252 33.2451V31.6525L41.2178 30.3066" stroke="#4F4131" stroke-linecap="round" stroke-linejoin="round"/>
<path d="M33.6213 33.2461C33.6213 33.2461 35.087 44.6898 35.0306 48.9177C34.9743 53.1457 34.326 58.0783 34.326 58.0783" stroke="#4F4131" stroke-linecap="round" stroke-linejoin="round"/>
<path d="M31.6202 32.625C31.6202 32.625 32.8604 43.9841 32.8604 46.0981C32.8604 48.2121 32.2403 57.3022 32.2403 57.3022" stroke="#4F4131" stroke-linecap="round" stroke-linejoin="round"/>
<path d="M46.1993 61.6426C46.1993 61.9879 46.2557 62.4036 46.3262 62.8617C46.6715 65.187 47.5805 68.6751 46.9745 69.9435C46.2487 71.4656 43.43 70.7609 43.43 70.7609L39.8997 68.3862" stroke="#4F4131" stroke-linecap="round" stroke-linejoin="round"/>
<path d="M42.7256 67.7246L38.7865 68.387" stroke="#4F4131" stroke-linecap="round" stroke-linejoin="round"/>
<path d="M20.5285 64.7305C20.4651 64.9348 20.4087 65.266 20.3664 65.6606C20.1903 67.3941 20.2396 70.4805 20.5285 70.9245C20.6272 71.0724 21.4305 71.0231 22.5438 70.8751C24.2773 70.6426 26.7648 70.1634 28.5476 69.804C29.83 69.5504 30.7461 69.353 30.7461 69.353" stroke="#4F4131" stroke-linecap="round" stroke-linejoin="round"/>
<path d="M22.6279 71.4665C22.2896 72.8758 22.6279 74.3203 22.6279 74.3203C22.6279 74.3203 27.5746 74.1654 30.7456 73.954C31.3023 73.9187 31.8026 73.8835 32.2113 73.8412C33.4656 73.7214 35.9178 73.9821 38.222 74.3063C40.9843 74.6868 43.5352 75.1589 43.5352 75.1589L43.4295 70.7618H42.7248L38.2502 70.4588L34.5578 70.2122L30.7456 69.9585L28.547 69.8105H28.54" stroke="#4F4131" stroke-linecap="round" stroke-linejoin="round"/>
<path d="M38.2227 70.9238V74.3062" stroke="#4F4131" stroke-linecap="round" stroke-linejoin="round"/>
<path d="M30.7461 69.959V73.9544" stroke="#4F4131" stroke-linecap="round" stroke-linejoin="round"/>
<path d="M32.2402 70.9238V72.615" stroke="#4F4131" stroke-linecap="round" stroke-linejoin="round"/>
<path d="M38.7861 78.8789L34.9739 80.6194" stroke="#4F4131" stroke-linecap="round" stroke-linejoin="round"/>
<path d="M32.2402 77.6816C32.4728 77.7309 32.2191 81.2189 31.8245 85.6794C31.148 93.1277 30.0417 103.268 30.0417 104.585C30.0417 106.699 26.603 125.288 25.5037 129.735L24.4044 134.181L22.5864 133.758L18.4994 132.807L16.6532 132.377C16.6532 132.377 20.8811 105.664 20.1765 104.071C19.4718 102.472 20.5499 78.5695 21.0714 77.1319C21.5858 75.6944 22.6287 74.3203 22.6287 74.3203" stroke="#4F4131" stroke-linecap="round" stroke-linejoin="round"/>
<path d="M43.5356 75.7637C44.1345 77.1025 43.5356 94.4865 43.5356 94.4865C43.5356 94.4865 43.148 103.415 42.542 110.743C42.1685 115.274 41.7105 119.185 41.2172 120.016" stroke="#4F4131" stroke-linecap="round" stroke-linejoin="round"/>
<path d="M43.5352 114.5V137.803L40.9279 136.993L37.1721 135.83L34.9735 135.147C34.9735 135.147 35.0863 111.322 34.3252 110.773C33.5642 110.223 33.6206 105.988 33.6206 105.988L32.2113 85.7148" stroke="#4F4131" stroke-linecap="round" stroke-linejoin="round"/>
<path d="M37.1727 140.353L37.2573 139.508C37.2573 139.508 37.0881 141.932 39.9068 141.932C42.7254 141.932 42.507 141.248 42.507 141.248C42.507 141.248 42.6409 141.396 42.8664 141.643C43.8529 142.7 46.6433 145.589 48.3627 146.16C50.4767 146.864 54 146.864 54 148.274C54 149.683 52.8373 150.606 52.8373 150.606L36.3835 148.274L37.1727 140.353Z" stroke="#4F4131" stroke-linecap="round" stroke-linejoin="round"/>
<path d="M19.0276 137.324L23.3472 137.803C23.3472 137.803 26.9691 144.66 28.5053 145.061C30.0414 145.456 30.7461 148.275 30.7461 148.275L16.6529 145.928L19.0276 137.324Z" stroke="#4F4131" stroke-linecap="round" stroke-linejoin="round"/>
<path d="M18.4998 132.807L19.0283 137.324" stroke="#4F4131" stroke-linecap="round" stroke-linejoin="round"/>
<path d="M22.5866 133.758L23.3477 137.803" stroke="#4F4131" stroke-linecap="round" stroke-linejoin="round"/>
<path d="M37.1729 135.822V135.829V140.353V140.41" stroke="#4F4131" stroke-linecap="round" stroke-linejoin="round"/>
<path d="M40.9289 136.992L41.4714 138.831L41.9365 140.41" stroke="#4F4131" stroke-linecap="round" stroke-linejoin="round"/>
<path d="M28.2029 12.4504C27.6603 12.1403 26.5188 12.2461 26.096 12.7746C25.7225 13.2537 25.9551 13.7258 26.7372 13.7047C27.4771 13.7258 28.5482 13.2678 28.2663 12.5138L28.2029 12.4504Z" stroke="#4F4131" stroke-linecap="round" stroke-linejoin="round"/>
<path d="M33.7131 13.233V13.3176C33.8893 13.9236 34.7772 14.6494 35.4466 14.5648C36.0456 14.4803 36.2147 13.987 35.6368 13.4585C35.1295 12.9159 34.0443 12.4931 33.7131 13.233Z" stroke="#4F4131" stroke-linecap="round" stroke-linejoin="round"/>
</svg>
