<svg width="42" height="152" viewBox="0 0 42 152" fill="none" xmlns="http://www.w3.org/2000/svg">
<path d="M15.5476 69.8027C13.7648 70.1621 11.2773 70.6413 9.54385 70.8738L9.6284 71.4657C9.29017 72.875 9.6284 74.3196 9.6284 74.3196C9.6284 74.3196 14.5751 74.1646 17.7461 73.9532V69.9577L15.5476 69.8098V69.8027Z" fill="#D28689"/>
<path d="M14.2227 26.3672L12.8133 27.7765L13.0529 28.3896L14.9273 33.2447L19.1553 29.8905L15.2233 27.086V27.0789L14.2227 26.3672Z" fill="#D28689"/>
<path d="M24.1727 64.8134L28.2949 65.0459C28.1117 64.4258 26.8222 60.1485 25.7863 59.5707C25.1944 59.2395 24.1656 59.0352 23.1298 59.0352C23.0734 59.0352 23.01 59.0352 22.9536 59.0422C22.0798 59.1338 21.1426 59.8385 20.5648 60.1908V60.2049C21.6006 60.4445 22.3969 60.6841 22.5801 60.8955C23.1861 61.6001 24.0881 62.3048 24.2008 64.2497L24.1727 64.8134Z" fill="#F5CF24"/>
<path d="M15.5973 64.3274L24.173 64.8136L24.2012 64.2499C24.0884 62.3051 23.1865 61.6004 22.5805 60.8957C22.3972 60.6843 21.601 60.4448 20.5581 60.2052C20.544 60.2052 20.5369 60.1981 20.5228 60.1981C18.0354 59.6344 14.2232 59.0918 14.2232 59.0918L15.0265 61.7343L15.6325 63.7144L15.5973 64.3274Z" fill="#F5CF24"/>
<path d="M38.7734 35.839C38.7734 35.839 39.5908 32.7103 38.7734 31.301C37.956 29.8917 33.9535 27.7777 30.9799 28.1089C30.2259 28.1935 29.5424 28.8488 28.9646 29.8071H28.9575C27.513 32.1959 26.6815 36.4168 26.8294 38.2912L26.6251 38.3053C26.2023 37.6429 24.0954 36.3464 24.4477 35.233C24.793 34.1197 26.6251 33.2459 26.6251 33.2459V31.6533L28.2176 30.3074L28.1542 30.1806C28.0485 30.2299 27.9287 30.2863 27.8019 30.3497C26.6674 30.9064 25.0114 31.7943 24.201 32.6258C22.9045 33.9505 25.4976 39.7569 25.7865 40.4616C26.0754 41.1662 29.0209 39.7569 29.4155 39.7569L30.0497 39.9331C30.9235 38.7211 32.5442 37.6429 32.5442 37.6429L32.6429 37.3118C32.5513 37.3118 32.657 33.7814 32.657 33.7814L33.3687 33.725C33.3264 33.5418 33.2912 33.4009 33.27 33.3234L33.9958 33.1965C34.4327 34.1549 35.3065 36.0222 35.687 36.6494L37.202 36.5226C36.7017 35.5642 36.1521 33.4995 35.9055 32.5342L37.2161 32.6258H37.2302C37.5262 32.6258 38.1463 34.4649 38.7734 35.839Z" fill="#F5CF24"/>
<path d="M29.8672 141.642L28.937 138.696L28.472 138.83L27.9294 136.991L24.1735 135.828V140.352L24.2581 139.506C24.2581 139.506 24.089 141.93 26.9076 141.93C29.7263 141.93 29.5078 141.247 29.5078 141.247C29.5078 141.247 29.6417 141.395 29.8672 141.642Z" fill="#D28689"/>
<path d="M30.4295 70.76H29.7248L25.2502 70.457L25.222 70.9221V74.3045C27.9843 74.685 30.5352 75.1571 30.5352 75.1571L30.4295 70.76Z" fill="#D28689"/>
<path d="M29.8664 141.643C29.6409 141.396 29.507 141.248 29.507 141.248C29.507 141.248 29.7254 141.932 26.9068 141.932C24.0881 141.932 24.2573 139.508 24.2573 139.508L24.1727 140.353L23.3835 148.274L39.8373 150.606C39.8373 150.606 41 149.683 41 148.274C41 146.864 37.4767 146.864 35.3627 146.16C33.6433 145.589 30.8529 142.7 29.8664 141.643Z" fill="#D28689"/>
<path d="M29.7256 65.1238L28.2951 65.0463L24.1729 64.8137L15.5971 64.3275L14.2231 64.25C14.2231 64.25 20.565 67.2378 22.5803 67.2378C23.3343 67.2378 24.5252 66.9418 25.7231 66.5683C27.7243 65.9482 29.7256 65.1238 29.7256 65.1238Z" fill="#D28689"/>
<path d="M25.7862 15.8043C25.7862 15.8043 27.6112 15.7972 27.9777 15.0926C28.3441 14.3879 28.3159 10.8646 27.6112 8.75063C26.9066 6.63664 24.0879 4.52266 21.9739 3.11334C20.3814 2.0493 17.9856 1.7886 16.6044 1.72518V1.70402L14.2227 1.11914C12.0735 1.67582 7.09152 4.15624 6.47142 6.63664C5.76676 9.45529 4.62521 13.6832 5.54831 15.0926C6.47142 16.5019 7.88074 17.9112 7.88074 17.9112C8.5854 17.2066 10.6994 17.2066 10.6994 17.2066C10.6994 17.2066 9.29006 15.7972 9.29006 14.3879C9.29006 12.9786 11.404 5.93198 11.404 5.93198C11.404 5.93198 13.518 8.75063 14.9273 9.45529C16.3367 10.1599 20.8465 12.2739 22.8195 10.8646H24.7433C25.1238 11.5693 25.4832 13.6903 25.6664 15.8113H25.7862V15.8043Z" fill="#D28689"/>
<path d="M25.7227 66.5675C24.5248 66.941 23.3339 67.237 22.5799 67.237C20.5646 67.237 14.2227 64.2492 14.2227 64.2492L15.5967 64.3267L15.632 63.7137L15.026 61.7336L14.2227 59.0911C14.2227 59.0911 18.0349 59.6337 20.5223 60.1974L20.6703 59.5703C21.2411 59.2179 22.0867 59.0559 22.9534 59.0418C23.0098 59.0347 23.0732 59.0347 23.1296 59.0347L21.3256 58.0764C21.3256 58.0764 21.9739 53.1438 22.0303 48.9158C22.0867 44.6878 20.621 33.2442 20.621 33.2442L20.1418 31.6093C21.1072 31.3275 24.2006 29.8054 24.2006 29.8054L23.0098 28.1072L21.6216 26.1271L21.6498 26.1059L21.3256 25.6761L21.2058 25.4154C20.8324 25.5845 20.4448 25.6761 20.0643 25.6761C18.5986 25.6691 16.3719 25.3801 14.9273 25.1758L15.2233 27.0784L19.1553 29.89L14.9273 33.2442L13.0529 28.389L12.8133 28.4806C12.1087 28.4806 7.88071 30.5946 6.47139 30.5946C5.06207 30.5946 0.509964 46.0972 0.509964 46.0972L3.92757 48.5353L3.65275 48.9158C3.65275 48.9158 1.53877 56.6671 1.53877 58.781C1.53877 59.8662 4.51948 61.6631 7.41564 63.1499L7.26766 65.6515H7.36631C7.19015 67.392 7.23947 70.4784 7.52838 70.9224C7.62703 71.0704 8.43035 71.021 9.54371 70.873C11.2772 70.6405 13.7646 70.1613 15.5474 69.8019L17.746 69.9569L21.5582 70.2107L21.5793 69.9429C21.7343 69.9429 21.8682 69.9288 21.9739 69.8865C23.3832 69.351 25.7861 67.237 25.7861 67.237L25.7227 66.5675Z" fill="#D28689"/>
<path d="M17.7463 73.9525C18.303 73.9173 18.8033 73.882 19.212 73.8397C20.4663 73.7199 22.9186 73.9807 25.2228 74.3048V70.9225L25.251 70.4574L21.5586 70.2107L17.7463 69.957V73.9525Z" fill="#D28689"/>
<path d="M5.49959 132.805L6.02809 137.322L10.3477 137.801L9.58662 133.756L5.49959 132.805Z" fill="#D28689"/>
<path d="M13.7361 13.7041C12.9539 13.7252 12.7214 13.2531 13.0949 12.7739C13.5177 12.2454 14.6592 12.1397 15.2018 12.4497L15.2652 12.5132C15.5471 13.2672 14.476 13.7252 13.7361 13.7041ZM17.3017 22.7448C16.1531 22.6462 15.6317 19.6796 15.6317 19.6796L20.2683 20.1094C20.2683 20.1094 18.4503 22.8435 17.3017 22.7448ZM22.4457 14.5637C21.7763 14.6483 20.8884 13.9225 20.7123 13.3165V13.2319C21.0434 12.492 22.1286 12.9148 22.636 13.4574C23.2138 13.9859 23.0447 14.4792 22.4457 14.5637ZM24.7429 10.8643H22.8192C20.8461 12.2736 16.3363 10.1596 14.927 9.45494C13.5177 8.75028 11.4037 5.93164 11.4037 5.93164C11.4037 5.93164 9.28971 12.9782 9.28971 14.3876C9.28971 15.7969 10.699 17.2062 10.699 17.2062C10.699 17.2062 8.58505 17.2062 7.88039 17.9109C7.17573 18.6155 7.17573 21.4342 8.58505 22.1388C9.99437 22.8435 10.699 21.4342 11.4037 22.1388C12.1083 22.8435 13.5177 24.9575 13.5177 24.9575C13.5177 24.9575 14.0884 25.0561 14.927 25.1759C16.3715 25.3803 18.5983 25.6692 20.064 25.6762C20.4445 25.6762 20.832 25.5846 21.2055 25.4155C22.2977 24.9434 23.3406 23.8723 24.151 22.8224C24.7641 22.0261 25.2432 21.2369 25.4969 20.7295C25.7576 20.2151 25.821 18.9397 25.7717 17.4669C25.7506 16.9314 25.7153 16.3677 25.666 15.811C25.4828 13.69 25.1234 11.5689 24.7429 10.8643Z" fill="#D28689"/>
<path d="M26.3289 22.4346C27.0688 21.9766 28.2879 21.1099 28.2103 20.3489C28.1046 19.2567 26.9067 17.9107 25.7863 17.4668H25.7722C25.8215 18.9395 25.7581 20.215 25.4974 20.7294C25.2437 21.2367 24.7646 22.026 24.1515 22.8222C24.5038 22.7095 26.2162 22.1669 26.3289 22.4346Z" fill="#D28689"/>
<path d="M26.829 38.2895C26.681 36.4151 27.5125 32.1943 28.957 29.8125C28.8936 29.8336 28.5906 29.9675 28.1537 30.1789L28.2171 30.3058L26.6246 31.6517V33.2442C26.6246 33.2442 24.7925 34.118 24.4472 35.2313C24.0949 36.3447 26.2018 37.6413 26.6246 38.3036L26.829 38.2895Z" fill="#F5CF24"/>
<path d="M15.2029 12.4504C14.6603 12.1403 13.5188 12.2461 13.096 12.7746C12.7225 13.2537 12.9551 13.7258 13.7372 13.7047C14.4771 13.7258 15.5482 13.2678 15.2663 12.5138L15.2029 12.4504Z" fill="#4F4131"/>
<path d="M6.02759 137.322L3.65288 145.926L17.7461 148.273C17.7461 148.273 17.0414 145.454 15.5053 145.059C13.9691 144.658 10.3472 137.801 10.3472 137.801L6.02759 137.322Z" fill="#D28689"/>
<path d="M39.7312 37.2897C39.4423 37.1699 39.1041 36.5709 38.7729 35.8381C38.1457 34.464 37.5256 32.6248 37.2297 32.6248H37.2156L35.9049 32.5332C36.1515 33.4986 36.7012 35.5633 37.2015 36.5216L35.6865 36.6484C35.3059 36.0213 34.4322 34.1539 33.9953 33.1956L33.2695 33.3224C33.2906 33.3999 33.3258 33.5409 33.3681 33.7241L32.6564 33.7805C32.6564 33.7805 32.5507 37.3108 32.6423 37.3108L32.5437 37.642C32.5437 37.642 30.9229 38.7201 30.0492 39.9321C29.9223 40.1083 29.8096 40.2845 29.725 40.4606C29.0204 41.87 29.725 46.0979 29.725 46.0979V47.9371C29.725 47.9371 32.5437 60.1911 33.7345 60.8958C34.9254 61.6004 36.067 58.0772 36.6236 56.8088C37.1874 55.5404 32.6564 46.0979 32.6564 46.0979C32.6564 46.0979 33.953 46.0979 34.7563 45.0409L34.6154 44.9L36.3841 43.1454C37.8004 41.2076 40.45 37.5927 39.7312 37.2897Z" fill="#D28689"/>
<path d="M33.7349 62.7978V60.8952C32.544 60.1906 29.7254 47.9365 29.7254 47.9365V46.0974C29.7254 46.0974 29.0207 41.8694 29.7254 40.4601C29.8099 40.2839 29.9227 40.1078 30.0495 39.9316L29.4153 39.7554C29.0207 39.7554 26.0752 41.1648 25.7863 40.4601C25.4974 39.7554 22.9043 33.949 24.2008 32.6243C25.0112 31.7928 26.6671 30.9049 27.8016 30.3482L26.9983 30.306L23.0099 28.1074L24.2008 29.8056C24.2008 29.8056 21.1074 31.3277 20.142 31.6096L20.6212 33.2444C20.6212 33.2444 22.0868 44.6881 22.0305 48.916C21.9741 53.144 21.3258 58.0766 21.3258 58.0766L23.1297 59.0349C24.1656 59.0349 25.1944 59.2393 25.7863 59.5705C26.8222 60.1483 28.1117 64.4256 28.2949 65.0457L29.7254 65.1232C29.7254 65.1232 27.7241 65.9477 25.7229 66.5678L25.7863 67.2372C25.7863 67.2372 23.3834 69.3512 21.9741 69.8867C21.8684 69.929 21.7345 69.9431 21.5795 69.9431L21.5583 70.2109L25.2508 70.4575L29.7254 70.7605H30.43C30.43 70.7605 33.2487 71.4652 33.9745 69.9431C34.5805 68.6747 33.6715 65.1867 33.3262 62.8613L33.7349 62.7978Z" fill="#D28689"/>
<path d="M20.2686 20.1095L15.6319 19.6797C15.6319 19.6797 16.1533 22.6463 17.3019 22.7449C18.4505 22.8436 20.2686 20.1095 20.2686 20.1095Z" fill="#D28689"/>
<path d="M20.5643 60.1916C21.1421 59.8392 22.0793 59.1346 22.9531 59.043C22.0864 59.0571 21.2408 59.2191 20.67 59.5715L20.522 60.1986C20.522 60.1986 20.5432 60.2057 20.5573 60.2057V60.1916H20.5643Z" fill="#D28689"/>
<path d="M29.542 110.743C30.148 103.415 30.5356 94.4867 30.5356 94.4867C30.5356 94.4867 31.1345 77.1028 30.5356 75.764V75.1579C30.5356 75.1579 27.9847 74.6858 25.2224 74.3053C22.9182 73.9812 20.466 73.7204 19.2117 73.8402C18.803 73.8825 18.3026 73.9177 17.746 73.953C14.575 74.1644 9.62828 74.3194 9.62828 74.3194C9.62828 74.3194 8.58538 75.6935 8.07098 77.131C7.54953 78.5685 6.4714 102.471 7.17606 104.07C7.88072 105.663 3.65276 132.376 3.65276 132.376L5.49896 132.806L9.586 133.758L11.404 134.18L12.5033 129.734C13.6026 125.287 17.0413 106.699 17.0413 104.585C17.0413 103.267 18.1476 93.1268 18.8241 85.6785L19.2117 85.7138L20.621 105.987C20.621 105.987 20.5646 110.222 21.3256 110.771C22.0867 111.321 21.9739 135.146 21.9739 135.146L24.1725 135.829L27.9283 136.992L30.5356 137.802V115.704L29.8661 110.771L29.542 110.743Z" fill="#D28689"/>
<path d="M22.6368 13.4585C22.1295 12.9159 21.0443 12.4931 20.7131 13.233V13.3176C20.8893 13.9236 21.7772 14.6494 22.4466 14.5648C23.0456 14.4803 23.2147 13.987 22.6368 13.4585Z" fill="#4F4131"/>
<path d="M24.7429 10.8643C25.1234 11.5689 25.4828 13.69 25.666 15.811C25.7153 16.3677 25.7506 16.9314 25.7717 17.4669C25.821 18.9397 25.7576 20.2151 25.4969 20.7295C25.2432 21.2369 24.7641 22.0261 24.151 22.8224C23.3406 23.8723 22.2977 24.9434 21.2055 25.4155C20.832 25.5846 20.4445 25.6762 20.064 25.6762C18.5983 25.6692 16.3715 25.3803 14.927 25.1759C14.0884 25.0561 13.5177 24.9575 13.5177 24.9575C13.5177 24.9575 12.1083 22.8435 11.4037 22.1388C10.699 21.4342 9.99437 22.8435 8.58505 22.1388C7.17573 21.4342 7.17573 18.6155 7.88039 17.9109C8.58505 17.2062 10.699 17.2062 10.699 17.2062C10.699 17.2062 9.28971 15.7969 9.28971 14.3876C9.28971 12.9782 11.4037 5.93164 11.4037 5.93164C11.4037 5.93164 13.5177 8.75028 14.927 9.45494C16.3363 10.1596 20.8461 12.2736 22.8192 10.8643" stroke="#4F4131" stroke-linecap="round" stroke-linejoin="round"/>
<path d="M14.2225 5.22852L25.4971 9.45648" stroke="#4F4131" stroke-linecap="round" stroke-linejoin="round"/>
<path d="M15.632 1.70508C15.8082 1.70508 16.1464 1.7051 16.6044 1.72624C17.9856 1.78966 20.3814 2.05036 21.974 3.1144C24.0879 4.52372 26.9066 6.6377 27.6112 8.75168C28.3159 10.8657 28.3441 14.389 27.9777 15.0936C27.6112 15.7983 25.7862 15.8053 25.7862 15.8053" stroke="#4F4131" stroke-linecap="round" stroke-linejoin="round"/>
<path d="M25.7863 17.4668C26.9067 17.9107 28.1046 19.2567 28.2103 20.3489C28.2879 21.1099 27.0688 21.9766 26.3289 22.4346C26.0118 22.6249 25.7863 22.7447 25.7863 22.7447" stroke="#4F4131" stroke-linecap="round" stroke-linejoin="round"/>
<path d="M14.9277 1C14.7586 1 14.519 1.04227 14.2231 1.11978C12.0739 1.67646 7.09191 4.15688 6.47181 6.63728C5.76715 9.45593 4.6256 13.6839 5.5487 15.0932C6.47181 16.5025 7.88113 17.9119 7.88113 17.9119" stroke="#4F4131" stroke-linecap="round" stroke-linejoin="round"/>
<path d="M19.8602 15.0938C20.5648 15.7984 21.2695 17.7292 19.8602 17.4685" stroke="#4F4131" stroke-linecap="round" stroke-linejoin="round"/>
<path d="M20.2686 20.1095L15.6319 19.6797C15.6319 19.6797 16.1533 22.6463 17.3019 22.7449C18.4505 22.8436 20.2686 20.1095 20.2686 20.1095Z" stroke="#4F4131" stroke-linecap="round" stroke-linejoin="round"/>
<path d="M15.2233 27.086L19.1553 29.8905L14.9273 33.2447L13.0529 28.3896L12.8133 27.7765L14.2227 26.3672L15.2233 27.0789" stroke="#4F4131" stroke-linecap="round" stroke-linejoin="round"/>
<path d="M14.9277 25.1777L15.2236 27.0803V27.0874" stroke="#4F4131" stroke-linecap="round" stroke-linejoin="round"/>
<path d="M20.2686 26.1289V27.0872" stroke="#4F4131" stroke-linecap="round" stroke-linejoin="round"/>
<path d="M21.6221 26.1289L23.0103 28.109L24.2012 29.8072C24.2012 29.8072 21.1077 31.3293 20.1423 31.6111C19.9662 31.6675 19.8605 31.6746 19.8605 31.6252C19.8605 31.3011 21.0795 27.0872 21.0795 27.0872" stroke="#4F4131" stroke-linecap="round" stroke-linejoin="round"/>
<path d="M12.8135 28.4824C12.1088 28.4824 7.88085 30.5964 6.47153 30.5964C5.06221 30.5964 0.510106 46.0989 0.510106 46.0989L3.92771 48.5371L9.38883 52.4409C9.38883 52.4409 12.8135 44.6896 12.8135 43.2803" stroke="#4F4131" stroke-linecap="round" stroke-linejoin="round"/>
<path d="M8.67007 32.625C9.29017 33.4142 12.8135 38.3468 12.8135 39.7562" stroke="#4F4131" stroke-linecap="round" stroke-linejoin="round"/>
<path d="M3.65289 48.918C3.65289 48.918 1.53891 56.6692 1.53891 58.7832C1.53891 59.8684 4.51962 61.6653 7.41578 63.1521C10.1569 64.5614 12.8135 65.6889 12.8135 65.6889" stroke="#4F4131" stroke-linecap="round" stroke-linejoin="round"/>
<path d="M3.65303 55.2598C5.06235 55.2598 10.6996 58.7831 11.4043 60.897" stroke="#4F4131" stroke-linecap="round" stroke-linejoin="round"/>
<path d="M8.07129 52.4414L6.66197 55.852" stroke="#4F4131" stroke-linecap="round" stroke-linejoin="round"/>
<path d="M11.4039 62.7977C12.0522 62.3396 14.6454 61.8111 15.0259 61.7336C15.0611 61.7266 15.0752 61.7266 15.0752 61.7266" stroke="#4F4131" stroke-linecap="round" stroke-linejoin="round"/>
<path d="M25.7231 66.5683C24.5252 66.9418 23.3343 67.2378 22.5803 67.2378C20.565 67.2378 14.2231 64.25 14.2231 64.25L15.5971 64.3275L24.1729 64.8137L28.2951 65.0463L29.7256 65.1238C29.7256 65.1238 27.7244 65.9482 25.7231 66.5683Z" stroke="#4F4131" stroke-linecap="round" stroke-linejoin="round"/>
<path d="M24.2012 64.2499C24.0884 62.3051 23.1865 61.6004 22.5805 60.8957C22.3972 60.6843 21.601 60.4448 20.5581 60.2052C20.544 60.2052 20.5369 60.1981 20.5228 60.1981C18.0354 59.6344 14.2232 59.0918 14.2232 59.0918L15.0265 61.7343L15.6325 63.7144" stroke="#4F4131" stroke-linecap="round" stroke-linejoin="round"/>
<path d="M20.5651 60.1908C21.143 59.8385 22.0802 59.1338 22.9539 59.0422C23.0103 59.0352 23.0737 59.0352 23.1301 59.0352C24.166 59.0352 25.1948 59.2395 25.7867 59.5707C26.8225 60.1485 28.1121 64.4258 28.2953 65.0459C28.3094 65.0953 28.3164 65.1234 28.3164 65.1234" stroke="#4F4131" stroke-linecap="round" stroke-linejoin="round"/>
<path d="M14.2227 66.5273C14.8709 67.1827 19.7331 69.945 21.5793 69.945C21.7343 69.945 21.8682 69.9309 21.9739 69.8886C23.3832 69.353 25.7861 67.2391 25.7861 67.2391" stroke="#4F4131" stroke-linecap="round" stroke-linejoin="round"/>
<path d="M19.2126 68.5354L22.0312 68.2324" stroke="#4F4131" stroke-linecap="round" stroke-linejoin="round"/>
<path d="M35.7781 43.9841C35.926 43.7727 36.1374 43.4838 36.3841 43.1456C37.8004 41.2078 40.45 37.5929 39.7312 37.2898C39.4423 37.1701 39.1041 36.5711 38.7729 35.8383C38.1457 34.4642 37.5256 32.625 37.2297 32.625H37.2156" stroke="#4F4131" stroke-linecap="round" stroke-linejoin="round"/>
<path d="M37.4766 36.9385C37.392 36.8539 37.2934 36.706 37.2017 36.5228C36.7014 35.5644 36.1518 33.4997 35.9052 32.5344C35.8277 32.2102 35.7783 32.0059 35.7783 32.0059" stroke="#4F4131" stroke-linecap="round" stroke-linejoin="round"/>
<path d="M35.7783 36.7825C35.7501 36.7473 35.7219 36.705 35.6867 36.6486C35.3062 36.0215 34.4324 34.1541 33.9955 33.1958C33.8405 32.8505 33.7348 32.625 33.7348 32.625" stroke="#4F4131" stroke-linecap="round" stroke-linejoin="round"/>
<path d="M34.2148 37.2204C34.0175 36.4805 33.5806 34.6131 33.3693 33.7253C33.327 33.542 33.2917 33.4011 33.2706 33.3236C33.2636 33.2743 33.2565 33.2461 33.2565 33.2461" stroke="#4F4131" stroke-linecap="round" stroke-linejoin="round"/>
<path d="M32.6562 37.2904C32.6562 37.2904 32.6492 37.3116 32.6422 37.3116C32.5506 37.3116 32.6562 33.7812 32.6562 33.7812" stroke="#4F4131" stroke-linecap="round" stroke-linejoin="round"/>
<path d="M32.5439 37.6426C32.5439 37.6426 30.9232 38.7207 30.0494 39.9327C29.9226 40.1089 29.8099 40.2851 29.7253 40.4612C29.0206 41.8705 29.7253 46.0985 29.7253 46.0985" stroke="#4F4131" stroke-linecap="round" stroke-linejoin="round"/>
<path d="M34.7569 45.041C33.9536 46.098 32.6571 46.098 32.6571 46.098C32.6571 46.098 37.188 55.5405 36.6243 56.8089C36.0676 58.0772 34.9261 61.6005 33.7352 60.8959C32.5443 60.1912 29.7257 47.9372 29.7257 47.9372" stroke="#4F4131" stroke-linecap="round" stroke-linejoin="round"/>
<path d="M23.0097 28.1094L26.998 30.3079" stroke="#4F4131" stroke-linecap="round" stroke-linejoin="round"/>
<path d="M28.9646 29.8071C29.5424 28.8488 30.2259 28.1935 30.9799 28.1089C33.9535 27.7777 37.956 29.8917 38.7734 31.301C39.5908 32.7103 38.7734 35.839 38.7734 35.839" stroke="#4F4131" stroke-linecap="round" stroke-linejoin="round"/>
<path d="M26.9981 39.0525C26.9065 38.8905 26.8501 38.6297 26.829 38.2915C26.681 36.4171 27.5125 32.1962 28.957 29.8145" stroke="#4F4131" stroke-linecap="round" stroke-linejoin="round"/>
<path d="M29.415 39.7572C29.0204 39.7572 26.0749 41.1665 25.786 40.4619C25.4971 39.7572 22.904 33.9508 24.2006 32.626C25.0109 31.7945 26.6669 30.9067 27.8014 30.35C27.9282 30.2866 28.048 30.2302 28.1537 30.1809C28.5906 29.9695 28.8936 29.8356 28.957 29.8145H28.9641" stroke="#4F4131" stroke-linecap="round" stroke-linejoin="round"/>
<path d="M26.6252 38.3045C26.2024 37.6421 24.0955 36.3456 24.4478 35.2322C24.7931 34.1188 26.6252 33.2451 26.6252 33.2451V31.6525L28.2178 30.3066" stroke="#4F4131" stroke-linecap="round" stroke-linejoin="round"/>
<path d="M20.6213 33.2461C20.6213 33.2461 22.087 44.6898 22.0306 48.9177C21.9743 53.1457 21.326 58.0783 21.326 58.0783" stroke="#4F4131" stroke-linecap="round" stroke-linejoin="round"/>
<path d="M18.6202 32.625C18.6202 32.625 19.8604 43.9841 19.8604 46.0981C19.8604 48.2121 19.2403 57.3022 19.2403 57.3022" stroke="#4F4131" stroke-linecap="round" stroke-linejoin="round"/>
<path d="M33.1993 61.6426C33.1993 61.9879 33.2557 62.4036 33.3262 62.8617C33.6715 65.187 34.5805 68.6751 33.9745 69.9435C33.2487 71.4656 30.43 70.7609 30.43 70.7609L26.8997 68.3862" stroke="#4F4131" stroke-linecap="round" stroke-linejoin="round"/>
<path d="M29.7256 67.7246L25.7865 68.387" stroke="#4F4131" stroke-linecap="round" stroke-linejoin="round"/>
<path d="M7.52852 64.7305C7.4651 64.9348 7.40873 65.266 7.36645 65.6606C7.19028 67.3941 7.23961 70.4805 7.52852 70.9245C7.62717 71.0724 8.43048 71.0231 9.54385 70.8751C11.2773 70.6426 13.7648 70.1634 15.5476 69.804C16.83 69.5504 17.7461 69.353 17.7461 69.353" stroke="#4F4131" stroke-linecap="round" stroke-linejoin="round"/>
<path d="M9.62788 71.4665C9.28964 72.8758 9.62788 74.3203 9.62788 74.3203C9.62788 74.3203 14.5746 74.1654 17.7456 73.954C18.3023 73.9187 18.8026 73.8835 19.2113 73.8412C20.4656 73.7214 22.9178 73.9821 25.222 74.3063C27.9843 74.6868 30.5352 75.1589 30.5352 75.1589L30.4295 70.7618H29.7248L25.2502 70.4588L21.5578 70.2122L17.7456 69.9585L15.547 69.8105H15.54" stroke="#4F4131" stroke-linecap="round" stroke-linejoin="round"/>
<path d="M25.2227 70.9238V74.3062" stroke="#4F4131" stroke-linecap="round" stroke-linejoin="round"/>
<path d="M17.7461 69.959V73.9544" stroke="#4F4131" stroke-linecap="round" stroke-linejoin="round"/>
<path d="M19.2402 70.9238V72.615" stroke="#4F4131" stroke-linecap="round" stroke-linejoin="round"/>
<path d="M25.7861 78.8789L21.9739 80.6194" stroke="#4F4131" stroke-linecap="round" stroke-linejoin="round"/>
<path d="M19.2402 77.6816C19.4728 77.7309 19.2191 81.2189 18.8245 85.6794C18.148 93.1277 17.0417 103.268 17.0417 104.585C17.0417 106.699 13.603 125.288 12.5037 129.735L11.4044 134.181L9.58639 133.758L5.49936 132.807L3.65315 132.377C3.65315 132.377 7.88111 105.664 7.17645 104.071C6.47179 102.472 7.54992 78.5695 8.07137 77.1319C8.58577 75.6944 9.62867 74.3203 9.62867 74.3203" stroke="#4F4131" stroke-linecap="round" stroke-linejoin="round"/>
<path d="M30.5356 75.7637C31.1345 77.1025 30.5356 94.4865 30.5356 94.4865C30.5356 94.4865 30.148 103.415 29.542 110.743C29.1685 115.274 28.7105 119.185 28.2172 120.016" stroke="#4F4131" stroke-linecap="round" stroke-linejoin="round"/>
<path d="M30.5352 114.5V137.803L27.9279 136.993L24.1721 135.83L21.9735 135.147C21.9735 135.147 22.0863 111.322 21.3252 110.773C20.5642 110.223 20.6206 105.988 20.6206 105.988L19.2113 85.7148" stroke="#4F4131" stroke-linecap="round" stroke-linejoin="round"/>
<path d="M24.1727 140.353L24.2573 139.508C24.2573 139.508 24.0881 141.932 26.9068 141.932C29.7254 141.932 29.507 141.248 29.507 141.248C29.507 141.248 29.6409 141.396 29.8664 141.643C30.8529 142.7 33.6433 145.589 35.3627 146.16C37.4767 146.864 41 146.864 41 148.274C41 149.683 39.8373 150.606 39.8373 150.606L23.3835 148.274L24.1727 140.353Z" stroke="#4F4131" stroke-linecap="round" stroke-linejoin="round"/>
<path d="M6.02759 137.324L10.3472 137.803C10.3472 137.803 13.9691 144.66 15.5053 145.061C17.0414 145.456 17.7461 148.275 17.7461 148.275L3.65288 145.928L6.02759 137.324Z" stroke="#4F4131" stroke-linecap="round" stroke-linejoin="round"/>
<path d="M5.49982 132.807L6.02832 137.324" stroke="#4F4131" stroke-linecap="round" stroke-linejoin="round"/>
<path d="M9.58662 133.758L10.3477 137.803" stroke="#4F4131" stroke-linecap="round" stroke-linejoin="round"/>
<path d="M24.1729 135.822V135.829V140.353V140.41" stroke="#4F4131" stroke-linecap="round" stroke-linejoin="round"/>
<path d="M27.9289 136.992L28.4714 138.831L28.9365 140.41" stroke="#4F4131" stroke-linecap="round" stroke-linejoin="round"/>
<path d="M15.2029 12.4504C14.6603 12.1403 13.5188 12.2461 13.096 12.7746C12.7225 13.2537 12.9551 13.7258 13.7372 13.7047C14.4771 13.7258 15.5482 13.2678 15.2663 12.5138L15.2029 12.4504Z" stroke="#4F4131" stroke-linecap="round" stroke-linejoin="round"/>
<path d="M20.7131 13.233V13.3176C20.8893 13.9236 21.7772 14.6494 22.4466 14.5648C23.0456 14.4803 23.2147 13.987 22.6368 13.4585C22.1295 12.9159 21.0443 12.4931 20.7131 13.233Z" stroke="#4F4131" stroke-linecap="round" stroke-linejoin="round"/>
</svg>
