<svg width="38" height="146" viewBox="0 0 38 146" fill="none" xmlns="http://www.w3.org/2000/svg">
<path d="M36.0631 134.273C37.7056 135.766 37.2747 138.633 35.7321 140.225C34.1896 141.818 31.9163 142.436 29.743 142.873C25.5337 143.722 21.2433 144.153 16.9466 144.16C14.1301 144.16 10.7889 143.66 9.53985 141.137C8.60932 139.245 9.33376 136.853 10.8076 135.341C12.2815 133.83 14.3486 133.062 16.3971 132.556C23.3042 130.851 30.8297 131.788 37.1123 135.129" fill="#D3B25B"/>
<path d="M37.3073 134.767C37.3135 134.83 37.2385 134.93 37.1634 134.861L37.1947 134.648L37.3073 134.767Z" fill="#C6B08D"/>
<path d="M36.5268 134.804C36.4706 134.66 36.4207 134.442 36.5767 134.305C36.5954 134.536 36.6578 134.473 36.6641 134.742C36.7452 134.81 36.8513 134.76 36.87 134.685C36.8763 134.748 37.0323 134.717 37.0198 134.854C36.8263 134.935 36.6828 134.873 36.5892 134.673C36.533 134.698 36.5455 134.76 36.533 134.798L36.5268 134.804Z" fill="#C6B08D"/>
<path d="M27.2268 132.282L27.2891 132.27C27.2891 132.27 27.2455 132.282 27.2268 132.282Z" fill="#C6B08D"/>
<path d="M21.2879 132.207C21.3315 132.207 21.3564 132.226 21.3564 132.244C21.3129 132.232 21.2817 132.226 21.2879 132.207Z" fill="#C6B08D"/>
<path d="M20.3014 132.519C20.3014 132.519 20.3387 132.506 20.3574 132.5C20.3387 132.519 20.3138 132.537 20.3014 132.519Z" fill="#C6B08D"/>
<path d="M27.2275 132.281L27.0587 132.325C27.0587 132.256 27.1462 132.287 27.2275 132.281Z" fill="#C6B08D"/>
<path d="M35.5211 133.773C35.5211 133.773 35.5647 133.823 35.5771 133.861C35.5522 133.842 35.5336 133.823 35.5086 133.805V133.773H35.5211Z" fill="#C6B08D"/>
<path d="M29.7756 132.912L29.8192 132.925C29.8192 132.925 29.8317 132.981 29.8379 133.018L29.7694 132.918L29.7756 132.912Z" fill="#C6B08D"/>
<path d="M31.7041 133.45C31.6603 133.45 31.6916 133.275 31.7041 133.193C31.7041 133.268 31.7291 133.312 31.7666 133.337C31.7603 133.368 31.7416 133.406 31.7103 133.45H31.7041Z" fill="#C6B08D"/>
<path d="M34.8161 134.242L34.8594 134.285C34.8594 134.285 34.8285 134.255 34.8161 134.242Z" fill="#C6B08D"/>
<path d="M28.3633 132.662C28.3633 132.662 28.3446 132.706 28.3321 132.718C28.3321 132.699 28.3446 132.675 28.3633 132.662Z" fill="#C6B08D"/>
<path d="M37.9004 136.252C37.9004 136.252 37.8821 136.252 37.8699 136.252C37.8821 136.234 37.8943 136.228 37.9004 136.252Z" fill="#C6B08D"/>
<path d="M36.0331 134.311L36.0518 134.342C36.0518 134.342 36.0144 134.398 35.9895 134.416L36.0331 134.311Z" fill="#C6B08D"/>
<path d="M18.5218 133H18.5279C18.5767 133.006 18.5523 133.006 18.5218 133Z" fill="#C6B08D"/>
<path d="M11.6953 142.385C11.4577 142.435 11.8454 142.698 11.5265 142.723C11.5827 142.673 11.4577 142.373 11.6953 142.385Z" fill="#C6B08D"/>
<path d="M35.458 133.774C35.458 133.774 35.4082 133.749 35.3833 133.736C35.4206 133.749 35.4456 133.761 35.458 133.774Z" fill="#C6B08D"/>
<path d="M14.4553 133.943C14.4553 133.912 14.4553 133.88 14.4678 133.855C14.4678 133.874 14.4678 133.899 14.4553 133.943Z" fill="#C6B08D"/>
<path d="M17.3916 132.85L17.3231 132.887C17.3231 132.887 17.3729 132.856 17.3916 132.85Z" fill="#C6B08D"/>
<path d="M12.9131 134.387C12.882 134.418 12.882 134.449 12.8259 134.455C12.8259 134.443 12.8259 134.437 12.8259 134.43C12.857 134.443 12.882 134.437 12.9131 134.387Z" fill="#C6B08D"/>
<path d="M11.5707 135.322C11.5707 135.322 11.5707 135.291 11.5707 135.279L11.6143 135.254L11.5707 135.329V135.322Z" fill="#C6B08D"/>
<path d="M35.3643 141.523C35.3643 141.461 35.3581 141.398 35.3393 141.342C35.3894 141.461 35.6458 141.323 35.3643 141.523Z" fill="#C6B08D"/>
<path d="M35.4767 133.867C35.4829 133.823 35.4767 133.798 35.458 133.773L35.5078 133.805C35.5078 133.805 35.4954 133.854 35.4767 133.861V133.867Z" fill="#C6B08D"/>
<path d="M12.1631 133.217L11.9129 133.392C11.9755 133.336 12.0693 133.273 12.1631 133.217Z" fill="#C6B08D"/>
<path d="M22.9491 144.596L23.0176 144.608C23.0176 144.608 22.9678 144.608 22.9491 144.596Z" fill="#C6B08D"/>
<path d="M11.1514 133.879C11.1514 133.96 11.1201 134.029 11.0888 134.079C11.0701 134.079 11.0513 134.079 11.0325 134.067L11.1514 133.879Z" fill="#C6B08D"/>
<path d="M37.0882 140.132C36.9071 140.394 36.8134 140.119 36.6698 140.101C36.4075 140.35 36.7072 140.338 36.7197 140.513C36.5136 140.65 36.2451 140.65 36.1389 140.763C36.1577 140.8 36.1389 140.831 36.2014 140.837C35.9141 140.869 35.6893 141.306 35.3333 141.281C35.3333 141.306 35.3333 141.331 35.3396 141.35C35.3021 141.231 35.2396 141.137 35.1772 141.075C35.0773 141.143 34.9086 141.094 34.9586 141.243C35.0148 141.193 35.0585 141.243 35.1147 141.256L34.9711 141.281C35.0023 141.524 35.1584 141.237 35.2521 141.362C35.0023 141.468 34.6526 141.474 34.5214 141.624C34.5964 141.83 34.9461 141.437 34.8274 141.743L35.0398 141.506C35.0273 141.912 35.1834 141.381 35.2022 141.799C34.8837 142.087 34.7525 141.962 34.4215 142.224C34.2841 142.161 34.3653 142.055 34.2279 141.993C33.6346 142.062 34.0593 142.674 33.5534 142.592C33.3973 142.505 33.2599 142.274 33.0413 142.511L33.2224 142.699C32.8665 142.855 32.8977 142.461 32.5729 142.736C32.6729 142.805 32.8852 142.711 32.8352 142.761C32.6541 143.023 32.6167 142.692 32.4293 142.761L32.4543 142.973C32.0546 143.067 31.5862 143.042 31.149 143.111C31.1865 143.167 31.2802 143.211 31.1928 143.298C30.6244 143.329 30.0374 143.585 29.5378 143.81L29.3067 143.667C29.263 143.679 29.238 143.766 29.2942 143.791C29.1069 143.898 29.263 143.679 29.1506 143.629C29.0319 143.642 29.0194 143.76 29.1006 143.804C28.7134 143.717 28.0202 143.66 27.6767 143.916L27.7579 143.96C27.4769 144.085 27.3645 143.648 27.1209 143.854L27.1771 143.879C26.5463 144.06 25.8157 143.991 25.366 144.335C25.2411 144.085 24.7415 144.535 24.6541 144.172C24.3106 144.397 24.423 144.453 23.9171 144.628C23.7797 144.66 23.6861 144.422 23.5112 144.403L23.5237 144.597L23.2739 144.422L23.1739 144.666L23.0053 144.635C23.0678 144.616 23.1365 144.535 23.1177 144.478C22.8617 144.416 22.5182 144.672 22.5182 144.766L21.9062 144.653C21.9249 144.728 22.0248 144.747 22.1123 144.791C21.7813 144.622 22.0685 144.997 21.7625 144.841C21.8 144.797 21.7313 144.728 21.7251 144.691C21.5877 144.816 21.2567 144.841 21.0069 144.809L21.0631 144.941C20.6197 145.003 20.1263 144.934 19.6267 144.953C19.8015 144.884 19.7516 144.653 19.6079 144.641L19.558 144.847C19.4581 144.728 19.7079 144.766 19.508 144.616C19.3269 144.647 19.3894 144.853 19.508 144.916L19.277 144.853C19.2645 144.916 19.3207 144.947 19.3394 145.022C19.2395 144.897 18.9585 145.24 18.8148 145.022L18.8023 145.084C18.3027 145.103 18.0779 145.034 17.6719 145.028C17.6595 144.853 17.5033 144.891 17.3847 144.753C17.0911 144.816 16.7539 144.953 16.3854 144.928C16.1294 144.834 16.3167 144.778 16.2043 144.666C16.1793 144.822 15.8171 144.797 15.9982 144.916C15.5548 144.866 15.4299 144.859 14.8866 144.672C14.9553 144.616 15.024 144.591 14.9928 144.535C14.8928 144.497 14.7554 144.578 14.7617 144.653L14.7867 144.672C14.2121 144.372 13.2441 144.903 12.8132 144.435L12.8382 144.46C12.682 144.354 12.5259 144.254 12.376 144.135C12.1325 144.079 12.476 144.297 12.2699 144.329C11.814 143.885 11.3768 144.016 11.0208 143.61C10.7335 143.723 10.4275 143.517 10.159 143.254C9.87796 142.998 9.65314 142.674 9.35337 142.561L9.45953 142.517C9.45953 142.336 9.3034 142.418 9.22222 142.349C9.3034 142.311 9.39708 142.411 9.39084 142.305C9.07858 141.799 8.76007 141.275 8.52276 140.688C8.28544 140.101 8.13556 139.457 8.13556 138.827C8.16678 138.364 8.71636 138.645 8.56647 138.071L8.3354 138.183C8.73509 137.371 8.87249 136.441 9.52198 135.835C9.45329 135.848 9.39708 135.816 9.35961 135.885C9.32838 135.648 9.73432 135.329 9.83424 135.41C9.90294 135.298 9.76555 135.317 9.77179 135.217C9.81551 135.011 10.2152 134.998 10.1652 134.83C10.159 134.798 10.0965 134.83 10.0653 134.848C10.1965 134.805 10.44 134.449 10.4775 134.649C10.6461 134.374 10.9646 134.311 11.0958 134.08C11.3331 134.13 11.4642 133.693 11.6641 133.887C11.483 133.662 11.9888 133.399 12.2199 133.424C12.12 133.381 12.3198 133.262 12.1949 133.2C12.3885 133.093 12.5946 133.05 12.6258 133.2C12.8382 132.706 13.4564 133.1 13.4877 132.619C14.1309 132.513 14.7117 132.419 15.2738 132.332C15.1739 132.063 14.6743 132.488 14.6056 132.2C15.1614 132.144 15.5174 132.294 16.0045 132.094C16.1294 132.026 15.8983 131.994 15.8421 131.957C16.3854 131.932 16.8351 131.701 17.3222 131.744C17.316 131.72 17.2598 131.701 17.2098 131.688C17.3035 131.676 17.4096 131.601 17.4284 131.732L17.3347 131.72C17.2285 131.932 17.7656 132.019 17.8031 132.119C17.5783 131.788 18.2403 131.951 17.9093 131.538C17.9717 131.551 18.0591 131.601 18.0591 131.688C18.1403 131.651 18.1653 131.595 18.0591 131.513C18.3964 131.526 18.3027 131.682 18.5962 131.626C18.5837 131.563 18.5213 131.551 18.4776 131.482C18.6462 131.576 18.8148 131.663 19.0584 131.582C19.0396 131.545 19.0584 131.495 18.9834 131.507C19.4206 131.47 19.7578 131.732 20.2075 131.557C20.0389 131.307 20.3574 131.451 20.3636 131.22L20.6259 131.27L20.5322 131.389C20.7571 131.37 20.9632 131.52 21.1505 131.432L20.9756 131.351L21.3941 131.364L21.163 131.47C21.3941 131.57 21.163 131.763 21.4503 131.676C21.3878 131.657 21.6689 131.651 21.7813 131.513C21.8937 131.582 22.0123 131.657 22.1685 131.595C22.2059 131.52 22.1248 131.339 22.1497 131.289C22.2684 131.482 22.6743 131.326 22.818 131.526C22.7743 131.476 22.768 131.357 22.7805 131.332L22.8742 131.488C22.9741 131.432 22.9928 131.407 22.9741 131.314C23.2864 131.289 22.8804 131.607 23.2426 131.482C23.2114 131.47 23.2302 131.445 23.1677 131.42C23.5362 131.357 23.8797 131.526 24.2169 131.457C24.3231 131.226 23.9234 131.395 24.042 131.201C24.5354 131.245 25.0475 131.532 25.5221 131.495L25.4347 131.513C25.4784 131.844 25.7969 131.37 26.0217 131.557C25.9655 131.526 25.9593 131.364 25.9718 131.407C26.3028 131.389 26.6275 131.551 27.1022 131.713L27.0522 131.62C27.252 131.57 27.5581 131.651 27.7642 131.638C27.8141 131.732 27.9328 131.732 27.8391 131.844C28.551 131.445 28.982 132.313 29.6127 132.019C29.544 132.007 29.4691 131.913 29.5253 131.926C29.6814 131.982 29.8313 132.044 29.9812 132.107C29.9125 132.238 29.9 132.175 29.7751 132.263C29.8126 132.363 29.9312 132.456 30.0436 132.481C29.8563 132.338 30.0998 132.257 30.206 132.2C30.181 132.238 30.206 132.294 30.181 132.338C30.4871 132.144 30.1561 132.631 30.5245 132.544V132.469C30.6432 132.538 30.7306 132.663 30.868 132.669C30.9679 132.519 30.7556 132.563 30.7806 132.425C30.9679 132.475 31.0679 132.831 31.2802 132.719C31.2115 132.65 31.0991 132.619 31.0304 132.55C31.2677 132.413 31.2739 132.469 31.4176 132.475H31.4051L31.7486 132.481L31.6549 132.506C31.7673 132.994 32.1108 132.712 32.3356 133.087C32.117 132.731 32.3356 132.919 32.3668 132.731C32.4605 132.706 32.6042 132.694 32.5854 132.631C32.6854 132.825 32.8727 132.6 33.0101 132.881C33.0413 132.825 33.1725 132.931 33.185 132.775C33.3598 132.887 33.1038 132.862 33.0975 132.937C33.3224 133.225 33.8782 132.937 34.1967 133.374C34.5152 133.624 34.5027 133.837 34.79 134.068C34.9399 134.024 34.79 133.824 34.79 133.824C35.0023 133.824 35.1272 133.893 35.2709 134.03C35.2584 133.968 35.3083 133.943 35.3895 133.899C35.5207 133.974 35.3895 134.143 35.6019 134.136C35.6019 134.061 35.6019 133.943 35.5706 133.855C35.708 133.98 35.8142 134.149 35.9578 134.274C36.0453 134.199 35.9266 134.086 35.8954 133.993C36.064 134.111 36.3263 134.305 36.3076 134.486H36.1639C36.2264 134.524 36.2576 134.367 36.2264 134.318C36.1264 134.118 35.9766 134.261 35.9453 134.318L36.0453 134.405C35.7767 134.667 35.6019 134.143 35.3583 134.055V134.336L35.1959 134.03C35.1147 134.068 35.0273 134.186 35.1272 134.274C34.9086 134.318 35.0148 134.124 34.815 134.193C34.79 134.205 34.79 134.224 34.8025 134.236L34.6713 134.093C34.6838 134.155 34.5714 134.249 34.6901 134.261C34.3403 134.274 34.2841 133.893 34.103 134.03L34.1217 134.055C33.7408 133.812 34.153 133.862 33.9219 133.531L33.5472 133.887L33.5722 133.693C33.5285 133.681 33.441 133.662 33.4285 133.743C33.3161 133.562 33.4847 133.674 33.4285 133.524C33.16 133.618 32.879 133.256 32.7353 133.524C32.7041 133.362 32.9726 133.487 32.779 133.312C32.6104 133.599 32.5417 133.175 32.3044 133.25C32.3106 133.431 32.5167 133.406 32.2794 133.487C32.2544 133.175 31.8922 133.424 31.7486 133.331C31.8048 133.112 31.4238 133.137 31.174 132.987C31.174 133.062 30.6307 132.962 30.3559 132.987V133.025C30.3559 132.787 30.0874 132.769 29.9062 132.675C29.8813 132.812 29.9062 132.875 29.9937 132.956L29.8126 132.912C29.7876 132.831 29.7376 132.781 29.6252 132.725V132.906C29.4004 132.837 29.1881 132.613 28.8571 132.663C28.8695 132.5 29.1943 132.275 28.8758 132.107C28.8446 132.188 28.8071 132.332 28.8883 132.382C28.8633 132.363 28.8009 132.294 28.7384 132.319L28.8446 132.488C28.6884 132.525 28.7946 132.357 28.6759 132.344C28.6572 132.463 28.576 132.413 28.576 132.513C28.601 132.531 28.6822 132.481 28.7197 132.538C28.5885 132.538 28.4199 132.575 28.3512 132.656C28.3762 132.588 28.3824 132.494 28.2887 132.456C28.0452 132.406 28.1826 132.588 28.0264 132.631C27.9827 132.538 27.8141 132.6 27.8391 132.419C27.7704 132.406 27.7392 132.494 27.7079 132.538C27.5955 132.438 27.1271 132.425 27.2895 132.257H27.3207L27.302 132.238C26.9086 131.988 26.4214 132.238 26.0217 132.119V132.182C25.7782 132.082 25.4722 132.088 25.3036 131.951C25.2286 131.951 25.1224 132.051 25.1474 132.125C24.9601 132.069 24.9413 132.001 24.6665 132.082C24.8539 132.2 24.5978 132.175 24.8601 132.169C24.6103 132.207 24.5541 132.307 24.2981 132.119C24.3793 132.275 24.1107 132.313 23.9921 132.269L24.1669 132.157C24.0358 132.132 23.9234 132.144 23.8047 132.157L23.8609 132.363C23.3675 132.613 22.9554 131.913 22.5807 132.363C22.4433 132.219 22.8492 132.25 22.7305 132.088C22.4995 132.125 22.2684 132.431 22.1997 132.431C21.8937 132.556 21.8937 132.132 21.5689 132.232C21.6064 132.157 21.6376 131.951 21.3816 131.901C21.1505 131.944 21.1193 132.232 21.2692 132.282C21.3254 132.282 21.3504 132.257 21.3441 132.232C21.4191 132.25 21.519 132.275 21.4315 132.363L21.3941 132.294C21.2879 132.382 20.9694 132.394 21.0506 132.513C20.8695 132.456 20.9694 132.4 21.0943 132.35C20.807 132.481 20.6322 132.388 20.3386 132.488C20.3824 132.438 20.4198 132.35 20.3699 132.357C19.9389 132.5 20.1575 132.244 19.8515 132.244C19.6954 132.375 19.9452 132.506 19.6329 132.45C19.4581 132.55 19.6204 132.65 19.7016 132.7C19.4081 132.594 19.202 132.856 19.0521 132.906L19.202 132.944C19.1083 132.919 19.0396 132.931 18.9709 132.944L19.0271 132.781C18.946 132.819 18.8773 132.831 18.8898 132.894C18.7898 132.812 18.921 132.638 18.7274 132.538C18.6275 132.631 18.3714 132.519 18.3652 132.719C18.7086 132.594 18.3652 132.919 18.6649 132.9C18.6025 132.887 18.5338 132.9 18.4526 132.937C18.4463 132.962 18.4713 132.975 18.4963 132.981C18.1903 133.212 18.3027 132.787 17.953 132.856C18.0154 132.956 17.9093 133.075 17.8531 133.062C17.9904 133.037 17.8843 132.869 17.7406 132.812C17.5345 132.944 17.4846 132.806 17.3722 132.837L17.4971 132.769C17.4284 132.669 17.3222 132.706 17.1536 132.713C17.1536 132.8 17.3097 132.737 17.2598 132.787C17.0412 132.638 16.9163 133.068 16.6415 132.994C16.5478 133.093 16.679 133.2 16.5915 133.268C16.2918 133.193 16.3417 133.487 16.0357 133.443C16.0732 133.281 16.0982 133.306 15.8671 133.225L16.3542 133.206L16.0045 133.075C16.1419 133.031 16.323 133.087 16.3979 133.043C16.2293 132.962 16.248 132.994 16.2855 132.856C16.1481 133.118 15.8733 132.831 15.6922 133.037L15.7984 133.393C15.5236 133.643 15.1676 133.381 14.7804 133.612L14.8928 133.506C14.7929 133.387 14.6305 133.574 14.4744 133.568C14.5306 133.681 14.4619 133.749 14.4369 133.843C14.412 133.755 14.1497 133.968 14.0185 133.755L13.8999 133.98C13.6126 134.18 13.3878 133.824 13.1005 134.018C13.2504 134.093 13.1567 134.236 13.4002 134.224C13.3003 134.274 13.2254 134.336 13.1817 134.268C13.1629 134.367 12.8257 134.268 12.8007 134.424C12.732 134.399 12.6571 134.299 12.5509 134.367C12.5509 134.399 12.5821 134.417 12.5821 134.417C12.5509 134.361 12.3698 134.449 12.3948 134.274C12.3011 134.773 11.5579 134.811 11.5454 135.267C11.3393 135.392 11.0958 135.567 10.9459 135.723C10.9834 135.735 10.9896 135.766 11.0083 135.723C10.8959 136.016 10.6149 135.623 10.49 135.985C10.5399 136.247 10.6898 135.91 10.6773 136.041C10.9646 136.322 10.3838 136.335 10.4588 136.659L10.5087 136.628C10.5399 136.841 10.159 136.903 10.0591 137.178C10.0591 137.178 10.0965 137.178 10.1153 137.203C9.84673 137.29 9.6344 137.615 9.50325 137.877C9.67811 137.84 9.61566 137.777 9.7593 137.877C9.70309 137.99 9.52198 137.765 9.40957 137.996C9.46578 138.096 9.50325 138.296 9.67187 138.352C9.69061 138.277 9.70309 138.202 9.73432 138.133C9.91543 138.296 9.66562 138.414 9.67811 138.545H9.77804C9.69685 138.87 9.45329 138.858 9.45329 139.239L9.38459 139.195C9.14103 139.407 9.52198 139.37 9.34712 139.582L9.59693 139.626C9.54697 139.757 9.41582 140.126 9.44704 140.388C9.58444 140.2 9.61566 139.913 9.71559 139.732C9.72183 139.863 9.77179 140.157 9.66562 140.257C9.67812 140.2 9.72183 140.119 9.67187 140.082C9.50949 140.275 9.47827 140.525 9.58444 140.788C9.80302 140.675 9.8842 140.825 9.99037 140.987C10.1028 141.15 10.2152 141.35 10.4275 141.312C10.5399 141.787 11.0458 141.918 11.4455 142.224C11.0833 142.424 11.5642 142.318 11.3331 142.624C11.4268 142.724 11.483 142.73 11.5017 142.717C11.6578 142.717 11.8077 142.717 11.9514 142.705C12.0825 142.642 11.8827 142.58 11.9326 142.505C12.1824 142.599 12.1075 142.411 12.3073 142.393C12.2199 142.499 12.3073 142.611 12.4697 142.624L12.2012 142.699C12.476 143.048 12.6258 142.524 12.9194 142.848C12.8881 142.798 12.8694 142.749 12.8444 142.692C13.0068 142.83 13.5439 142.898 13.675 143.236C13.7187 143.198 13.7874 143.111 13.7063 143.061C14.1871 143.117 14.7492 143.579 15.1676 143.423L15.1364 143.329C15.2301 143.367 15.2863 143.523 15.4112 143.435C15.4112 143.398 15.38 143.342 15.4237 143.336C15.4674 143.373 15.661 143.517 15.7921 143.467L15.6922 143.354C16.1918 143.261 16.4416 143.642 16.8726 143.71C16.8726 143.435 17.2723 143.342 17.4721 143.298V143.261C18.0591 143.223 18.4776 143.473 19.0334 143.56C19.3644 143.254 20.1888 143.386 20.7258 143.186C20.6446 143.242 20.7508 143.398 20.8507 143.423C20.9756 143.361 21.2192 143.592 21.1817 143.342H21.138C21.2192 143.098 21.4877 143.142 21.6938 143.123L21.75 143.448C22.2497 142.93 23.1864 143.504 23.4362 143.042C23.5736 143.111 23.736 143.092 23.8734 143.161L23.8484 142.986C24.2044 142.905 24.3793 142.855 24.8289 142.848L24.7228 142.736C24.9726 142.692 25.1037 143.198 25.3348 143.179L25.3722 142.911C25.8094 142.855 26.2153 142.561 26.6837 142.736C26.6712 142.699 26.6463 142.624 26.5713 142.624C26.7774 142.586 27.3332 142.324 27.3207 142.692C27.2895 142.461 27.7642 142.592 28.0202 142.655L27.9515 142.492C28.1888 142.674 28.2076 142.736 28.4948 142.742C28.5573 142.711 28.5261 142.592 28.4511 142.655C28.651 142.524 28.651 142.786 28.9008 142.642L28.7821 142.555C29.0069 142.499 28.9945 142.555 29.1443 142.661C29.3005 142.705 29.5628 142.536 29.5628 142.374C29.6127 142.461 29.7626 142.561 29.8813 142.492C29.8813 142.43 29.8313 142.405 29.8063 142.393C30.1561 142.199 30.4059 142.474 30.6182 142.243C30.612 142.186 30.6182 142.155 30.6369 142.13C30.3497 142.205 30.1123 142.261 30.1373 142.274C30.1061 142.118 30.3309 142.037 30.0998 141.862C30.3122 141.937 30.6994 142.118 30.9055 141.987C30.9117 141.968 30.918 141.949 30.9242 141.924L30.8992 141.912C30.9492 141.88 30.9992 141.887 31.0491 141.899C31.1116 141.855 31.1553 141.824 31.224 141.805C31.2177 141.668 31.4675 141.662 31.58 141.624C31.6174 141.793 31.7611 141.724 31.6611 141.905C31.6736 141.887 31.6362 141.893 31.555 141.905C31.5362 141.905 31.5175 141.905 31.4988 141.905L31.5113 141.918C31.4363 141.937 31.3364 141.962 31.224 141.987C31.3364 142.049 31.4551 142.093 31.555 141.962C31.6487 142.055 31.7423 142.143 31.7985 142.186C31.8922 141.905 32.1483 141.681 32.1358 141.524C32.5105 141.506 32.9414 141.293 33.2786 141.499C33.3911 141.499 33.3473 141.362 33.3598 141.3C33.2911 141.3 33.2287 141.331 33.185 141.3C33.4098 141.3 33.7345 141.069 33.8907 141.243C34.0655 141.025 33.6658 141.131 33.9844 140.987L33.9094 140.95C34.1093 140.625 34.409 140.6 34.715 140.531C35.021 140.469 35.352 140.344 35.4395 139.907C35.427 139.963 35.4207 139.994 35.4395 140.026C35.6581 139.645 35.9453 139.332 36.1827 138.951C36.42 138.583 36.5886 138.146 36.5136 137.702C36.5012 137.459 36.6323 137.465 36.7697 137.328L36.5886 137.253C36.676 137.178 36.7447 137.103 36.8259 137.022C36.9196 136.841 36.7947 136.678 36.6885 136.528C36.5823 136.372 36.4762 136.229 36.5761 135.991L36.7135 136.016C36.6573 135.866 36.6386 135.504 36.5074 135.585C36.5261 135.56 36.6136 135.485 36.5261 135.454L36.4325 135.492C36.445 135.348 36.4137 135.217 36.4075 135.067C36.1827 134.855 36.1015 135.304 35.8579 134.998C35.8017 134.873 35.7705 134.492 35.8579 134.48C35.9079 134.524 36.0203 134.561 36.0952 134.492L36.0203 134.342C36.2076 134.118 36.2826 133.768 36.7759 133.987C36.8134 134.105 36.8384 134.236 36.8571 134.361H37.0382L36.8696 134.124C37.0757 134.174 37.0445 134.336 37.0445 134.474C37.1194 134.455 37.2006 134.461 37.2568 134.511C37.2318 134.661 37.2069 134.805 37.1756 134.942C37.3005 134.93 37.3068 134.705 37.4692 134.88C37.4192 135.073 37.1819 134.855 37.2006 135.123C37.3817 135.211 37.4629 135.136 37.4254 135.348C37.5066 135.348 37.5379 135.292 37.5379 135.211C37.5254 135.398 37.6378 135.654 37.5129 135.773C37.7252 135.898 37.5628 136.316 37.8376 136.266C37.7877 136.328 37.644 136.572 37.6378 136.722C37.9688 136.441 37.6565 137.271 38 137.222C37.7002 137.403 37.7814 137.946 37.5254 138.246C37.5566 138.233 37.6128 138.208 37.6003 138.171C37.5753 138.371 37.6378 138.446 37.6565 138.589C37.4192 138.546 37.2631 138.808 37.0632 138.895C37.1944 139.207 37.3817 138.876 37.5628 139.026C37.388 138.945 37.2131 139.339 37.0944 139.195C37.1444 139.42 37.0944 139.364 37.2256 139.545C36.9446 139.432 37.0944 139.676 36.8509 139.713C36.8384 140.019 37.0632 139.932 36.8134 140.126C36.8009 140.3 37.057 140.138 37.057 140.138L37.0882 140.132ZM31.1428 143.048C31.199 143.048 31.2427 143.036 31.2739 143.03C31.249 143.03 31.2115 143.042 31.1428 143.048ZM30.6307 143.167C30.6931 143.148 30.7681 143.123 30.8493 143.111C30.8493 143.048 30.818 142.992 30.7681 143.005C30.8056 143.036 30.6931 143.098 30.6244 143.167H30.6307ZM31.3926 141.724C31.3114 141.724 31.2927 141.762 31.2927 141.799C31.3301 141.793 31.3739 141.787 31.4301 141.78L31.4426 141.799C31.4426 141.799 31.4113 141.743 31.3864 141.724H31.3926Z" fill="#C6B08D"/>
<path d="M31.5925 141.906C31.5925 141.906 31.6112 141.906 31.6299 141.906C31.6174 141.925 31.605 141.944 31.5925 141.956L31.5489 141.912H31.5925V141.906Z" fill="#C6B08D"/>
<path d="M27.3022 132.263H27.2899C27.2899 132.263 27.3083 132.256 27.3145 132.244C27.3083 132.25 27.3083 132.256 27.3022 132.263Z" fill="#C6B08D"/>
<path d="M23.5427 144.627L23.5365 144.584L23.5859 144.615L23.5427 144.627Z" fill="#C6B08D"/>
<path d="M30.225 132.193C30.225 132.193 30.2497 132.169 30.2744 132.156C30.2744 132.169 30.2497 132.181 30.225 132.193Z" fill="#C6B08D"/>
<path d="M31.4423 132.468L31.6299 132.455C31.5486 132.468 31.486 132.468 31.4423 132.468Z" fill="#C6B08D"/>
<path d="M32.3912 132.656C32.3912 132.687 32.3912 132.712 32.3912 132.731L32.3975 132.656H32.3912Z" fill="#C6B08D"/>
<path d="M17.2158 131.689C17.2158 131.689 17.1909 131.689 17.1785 131.689C17.0851 131.677 17.1473 131.677 17.2158 131.689Z" fill="#C6B08D"/>
<path d="M21.7881 131.506C21.7381 131.475 21.688 131.444 21.638 131.431C21.7193 131.412 21.7818 131.406 21.7881 131.506Z" fill="#C6B08D"/>
<path d="M12.1943 133.199L12.1638 133.218L12.1943 133.199Z" fill="#C6B08D"/>
<path d="M21.4241 131.451C21.5054 131.407 21.5679 131.414 21.6367 131.432C21.5742 131.451 21.4929 131.476 21.4241 131.451Z" fill="#C6B08D"/>
<path d="M36.3083 134.118L36.3516 134.13C36.3516 134.13 36.3454 134.148 36.3454 134.155L36.3083 134.111V134.118Z" fill="#C6B08D"/>
<path d="M36.3457 134.162L36.3828 134.205C36.3828 134.205 36.3457 134.187 36.3457 134.162Z" fill="#C6B08D"/>
<path d="M36.4639 134.292L36.3891 134.205C36.4203 134.224 36.4639 134.236 36.4639 134.292Z" fill="#C6B08D"/>
<path d="M35.1086 133.668L35.1211 133.605C35.1211 133.605 35.1211 133.643 35.1086 133.668Z" fill="#C6B08D"/>
<path d="M34.758 133.5C34.8518 133.519 35.0269 133.463 35.127 133.55V133.6C35.1019 133.488 34.7955 133.625 34.758 133.494V133.5Z" fill="#C6B08D"/>
<path d="M32.9848 133.668L33.3037 133.724C33.2287 133.768 33.1286 133.831 33.2599 133.893C32.8159 133.956 33.3913 133.774 32.9848 133.668Z" fill="#C6B08D"/>
<path d="M32.0294 133.449C32.1795 133.531 31.9981 133.543 31.9981 133.581C31.9106 133.493 31.8918 133.468 32.0294 133.449Z" fill="#C6B08D"/>
<path d="M25.0909 132.188V132.35C24.9721 132.319 25.1035 132.288 25.0909 132.188Z" fill="#C6B08D"/>
<path d="M23.7548 131.313L23.8861 131.213L23.9424 131.363L23.7548 131.313Z" fill="#C6B08D"/>
<path d="M22.9486 132.443L23.0049 132.462L22.786 132.412L22.9486 132.443Z" fill="#C6B08D"/>
<path d="M11.8885 135.26L11.7947 135.085C11.8823 135.06 12.0324 135.222 11.8885 135.26Z" fill="#C6B08D"/>
<path d="M9.58474 139.207C9.67855 139.263 9.74734 139.382 9.65354 139.47C9.63477 139.37 9.55347 139.263 9.58474 139.207Z" fill="#C6B08D"/>
<path d="M22.0248 143.179L21.9184 143.123L22.1123 143.167L22.0248 143.179Z" fill="#C6B08D"/>
<path d="M27.7386 1.01874C27.6324 2.86106 28.0071 129.395 28.0071 129.395C28.0071 129.395 31.9915 132.698 35.4014 135.246C37.9057 137.114 29.787 138.381 25.4154 138.388C20.8751 138.4 15.4668 136.652 17.2904 135.284C19.7822 133.404 22.9048 131.524 24.1476 129.026C25.4653 126.378 23.8791 1 23.8791 1L27.7386 1.02498V1.01874Z" fill="#E0CDAF" stroke="#603813" stroke-linecap="round" stroke-linejoin="round"/>
<path d="M22.1934 1.4375C22.1934 1.4375 20.9006 5.98399 18.4025 7.23303C15.9045 8.48206 9.09098 7.98245 6.24942 9.48129C3.40787 10.9801 0.984735 13.9341 0.984735 13.9341C0.984735 13.9341 3.25798 44.8415 3.40787 54.0719C3.55775 63.3022 1.60925 77.6474 2.78335 84.6732C3.95744 91.6991 7.04256 112.552 7.04256 112.552C7.04256 112.552 13.3002 109.435 16.785 108.611C20.2698 107.78 22.1934 103.346 22.1934 103.346V1.4375Z" fill="#E5C36A" stroke="#603813" stroke-linecap="round" stroke-linejoin="round"/>
<path d="M20.9997 4.32309L25.3838 2.85547V7.40196L20.9997 8.31375V4.32309Z" fill="#E0CDAF" stroke="#603813" stroke-linecap="round" stroke-linejoin="round"/>
<path d="M20.9997 24.9325L25.3838 23.4648V28.0113L20.9997 28.9231V24.9325Z" fill="#E0CDAF" stroke="#603813" stroke-linecap="round" stroke-linejoin="round"/>
<path d="M20.9997 48.6629L25.3838 47.1953V51.7418L20.9997 52.6536V48.6629Z" fill="#E0CDAF" stroke="#603813" stroke-linecap="round" stroke-linejoin="round"/>
<path d="M20.9997 73.0204L25.3838 71.5527V76.0992L20.9997 77.011V73.0204Z" fill="#E0CDAF" stroke="#603813" stroke-linecap="round" stroke-linejoin="round"/>
<path d="M20.9997 98.6239L25.3838 97.1562V101.703L20.9997 102.615V98.6239Z" fill="#E0CDAF" stroke="#603813" stroke-linecap="round" stroke-linejoin="round"/>
</svg>
