<svg width="67" height="140" viewBox="0 0 67 140" fill="none" xmlns="http://www.w3.org/2000/svg">
<path d="M51.8811 114.408C55.7316 115.482 59.7234 116.626 62.6921 119.182C65.6607 121.737 67.2561 126.136 65.2434 129.417C63.9105 131.584 61.3727 132.792 58.9156 133.727C46.3072 138.526 32.2247 139.257 18.8018 137.217C13.8136 136.46 8.65044 135.214 4.93457 131.991C1.2187 128.768 -0.491112 123.021 2.39003 119.105C4.33548 116.455 7.79552 115.24 11.0806 114.363C24.8064 110.721 39.5352 110.473 53.389 113.657" fill="#D3B25B"/>
<path d="M53.4965 113.244C53.5638 113.314 53.4897 113.422 53.2743 113.352L53.1666 113.117L53.4965 113.244Z" fill="#C6B08D"/>
<path d="M51.914 113.306C51.6784 113.154 51.4158 112.912 51.6312 112.76C51.8466 113.014 51.9274 112.944 52.1496 113.237C52.365 113.306 52.5535 113.256 52.5333 113.173C52.6006 113.243 52.89 113.198 52.9775 113.357C52.6477 113.453 52.2842 113.383 51.9341 113.173C51.8399 113.198 51.9072 113.268 51.9207 113.313L51.914 113.306Z" fill="#C6B08D"/>
<path d="M29.9495 111.813L30.0908 111.781C30.0504 111.794 30.0033 111.807 29.9495 111.813Z" fill="#C6B08D"/>
<path d="M16.4459 113.542C16.5468 113.53 16.594 113.542 16.6074 113.561C16.5132 113.561 16.4324 113.561 16.4459 113.542Z" fill="#C6B08D"/>
<path d="M14.2315 114.255C14.2786 114.243 14.319 114.224 14.3594 114.211C14.3123 114.243 14.2651 114.262 14.2315 114.255Z" fill="#C6B08D"/>
<path d="M29.9492 111.814L29.5857 111.891C29.5588 111.821 29.7675 111.834 29.9492 111.814Z" fill="#C6B08D"/>
<path d="M49.0263 112.227C49.1004 112.252 49.161 112.284 49.2148 112.316L49.0331 112.258C49.0331 112.258 49.0331 112.239 49.0331 112.227H49.0263Z" fill="#C6B08D"/>
<path d="M35.9601 111.941H36.0678C36.0678 111.941 36.1283 111.999 36.1553 112.03L35.9533 111.941H35.9601Z" fill="#C6B08D"/>
<path d="M40.5653 112.208C40.4576 112.208 40.4374 112.024 40.4037 111.941C40.4576 112.018 40.5316 112.062 40.6191 112.081C40.6191 112.113 40.599 112.158 40.5586 112.202L40.5653 112.208Z" fill="#C6B08D"/>
<path d="M47.8622 112.768L47.9834 112.812C47.9834 112.812 47.8959 112.78 47.8622 112.768Z" fill="#C6B08D"/>
<path d="M32.6621 111.953C32.6621 111.953 32.6352 112.004 32.6217 112.017C32.6217 111.991 32.6352 111.972 32.6621 111.953Z" fill="#C6B08D"/>
<path d="M57.3125 115.215C57.3125 115.215 57.3058 115.234 57.2991 115.247C57.2789 115.221 57.2788 115.202 57.3125 115.215Z" fill="#C6B08D"/>
<path d="M51.8663 114.451L51.9336 114.483C51.9336 114.515 51.9336 114.553 51.9202 114.585L51.8663 114.458V114.451Z" fill="#C6B08D"/>
<path d="M10.2125 115.514C10.2125 115.514 10.2192 115.514 10.2259 115.508C10.3404 115.494 10.2798 115.508 10.2125 115.514Z" fill="#C6B08D"/>
<path d="M18.9833 136.498C18.5188 136.593 19.6632 136.803 18.9698 136.886C19.0439 136.829 18.4178 136.517 18.9833 136.498Z" fill="#C6B08D"/>
<path d="M48.8984 112.233L48.71 112.195C48.7975 112.208 48.8513 112.214 48.8984 112.233Z" fill="#C6B08D"/>
<path d="M18.9697 136.881L18.8957 136.888C18.9226 136.888 18.9428 136.888 18.9697 136.881Z" fill="#C6B08D"/>
<path d="M2.67188 120.13C2.67188 120.13 2.65169 120.06 2.64496 120.021C2.65843 120.034 2.67188 120.06 2.67188 120.13Z" fill="#C6B08D"/>
<path d="M7.77441 115.953L7.6196 116.036C7.68018 115.998 7.72729 115.972 7.77441 115.953Z" fill="#C6B08D"/>
<path d="M1.49356 123.23C1.50702 123.319 1.53396 123.351 1.50704 123.472C1.5003 123.459 1.49355 123.447 1.48682 123.434C1.51375 123.389 1.52722 123.332 1.49356 123.23Z" fill="#C6B08D"/>
<path d="M2.02637 126.747C2.02637 126.747 1.98596 126.715 1.96576 126.696C1.95903 126.664 1.94558 126.62 1.93885 126.588L2.02637 126.753V126.747Z" fill="#C6B08D"/>
<path d="M66.3877 123.161C66.3136 123.091 66.2328 123.06 66.1588 123.041C66.3069 123.06 66.1319 122.488 66.3877 123.161Z" fill="#C6B08D"/>
<path d="M49.0063 112.33C48.9928 112.279 48.9659 112.253 48.9053 112.234C48.9524 112.247 48.9928 112.26 49.0332 112.266C49.0332 112.292 49.0332 112.317 49.0063 112.33Z" fill="#C6B08D"/>
<path d="M0.00619363 123.326L0.0263672 123.981C0.00617227 123.797 -0.00053801 123.561 0.00619363 123.326Z" fill="#C6B08D"/>
<path d="M45.6204 137.992H45.7686C45.7147 138.006 45.6608 138.006 45.6204 137.992Z" fill="#C6B08D"/>
<path d="M0.24259 125.889C0.32337 125.99 0.404155 126.098 0.458008 126.213C0.451276 126.245 0.444518 126.276 0.431055 126.295C0.37047 126.162 0.296443 126.029 0.24259 125.889Z" fill="#C6B08D"/>
<path d="M64.24 119.22C64.6843 119.684 64.2602 119.589 64.24 119.773C64.6574 120.383 64.6035 119.932 64.8661 120.053C65.1084 120.46 65.1152 120.873 65.3037 121.153C65.3508 121.153 65.3979 121.203 65.4046 121.114C65.4988 121.61 66.1114 122.379 66.071 122.99C66.1047 123.021 66.1384 123.034 66.1585 123.034C66.0037 122.99 65.8826 123.021 65.8085 123.066C65.9162 123.308 65.822 123.575 66.0105 123.619C65.9566 123.466 66.0105 123.435 66.0374 123.346L66.0576 123.632C66.3605 123.81 66.0172 123.25 66.1788 123.193C66.2932 123.746 66.2662 124.395 66.4009 124.789C66.6634 124.84 66.2595 123.816 66.5894 124.325C66.5086 124.115 66.4413 123.905 66.3403 123.708C66.8452 124.096 66.1922 123.327 66.7038 123.676C67 124.528 66.8452 124.668 67 125.545C66.8856 125.755 66.8115 125.494 66.6904 125.698C66.4884 126.906 67.2693 126.715 66.8317 127.624C66.6096 127.834 66.3403 127.859 66.273 128.514L66.6029 128.38C66.2932 129.22 66.1047 128.73 65.8287 129.601C65.997 129.506 66.2326 129.029 66.1922 129.162C66.0845 129.779 65.8758 129.487 65.6335 129.862L65.7748 130.059C65.2161 130.841 64.341 131.464 63.4995 132.023C63.587 132.042 63.7756 131.991 63.6207 132.182C62.5033 132.862 61.2714 133.606 60.1943 134.191H59.6827C59.5817 134.235 59.5346 134.343 59.6558 134.337C59.2452 134.572 59.5885 134.235 59.3461 134.248C59.0903 134.331 59.0567 134.47 59.2384 134.464C58.3903 134.585 56.9093 134.96 56.1419 135.399H56.3236C55.7043 135.678 55.4687 135.265 54.9234 135.621H55.0513C54.3714 135.888 53.6108 136.06 52.9107 136.257C52.2106 136.46 51.5509 136.657 51.0393 136.912C50.7633 136.702 49.6458 137.363 49.4641 137.02C48.6832 137.376 48.939 137.382 47.8014 137.738C47.4917 137.814 47.2898 137.598 46.8993 137.636L46.9262 137.833L46.3608 137.719L46.1252 137.992H45.7549C45.8963 137.967 46.0444 137.865 46.0107 137.814C45.4318 137.814 44.6577 138.17 44.6577 138.272C44.1999 138.297 43.7422 138.285 43.2844 138.291C43.3248 138.367 43.5537 138.361 43.7422 138.393C42.995 138.285 43.6412 138.615 42.9546 138.514C43.0354 138.456 42.8873 138.405 42.8671 138.367C42.5574 138.52 41.8035 138.634 41.2447 138.628L41.3659 138.755C40.3629 138.882 39.2387 138.908 38.1078 138.965C38.5117 138.876 38.3973 138.647 38.0674 138.647L37.953 138.863C37.7309 138.749 38.2896 138.761 37.8453 138.634C37.4279 138.685 37.576 138.889 37.8251 138.939L37.3067 138.901C37.2798 138.965 37.401 138.99 37.4414 139.067C37.226 138.952 36.5663 139.334 36.2499 139.111L36.223 139.175C35.092 139.206 34.5737 139.175 33.6515 139.162C33.6313 138.984 33.2745 139.022 32.9985 138.882C32.3253 138.933 31.5714 139.092 30.7569 139.048C30.1847 138.946 30.5953 138.889 30.3395 138.781C30.2924 138.939 29.4778 138.901 29.8952 139.035C28.9191 138.984 28.6431 138.959 27.4247 138.761C27.5661 138.704 27.7142 138.679 27.6401 138.622C27.418 138.583 27.1285 138.66 27.1554 138.742L27.216 138.761C26.5294 138.609 25.7283 138.66 24.9542 138.698C24.1801 138.742 23.4396 138.768 22.9145 138.533L22.9751 138.558L21.8576 138.253C21.3326 138.221 22.1538 138.412 21.7567 138.469C20.5652 138.062 19.8179 138.247 18.8351 137.935C17.9735 138.297 16.0751 137.458 14.9644 137.515L15.0519 137.42C14.8096 137.255 14.7086 137.407 14.4999 137.388C14.5471 137.312 14.8163 137.357 14.6682 137.261C12.4199 136.619 9.91571 136.161 7.65387 135.1C6.83934 134.693 7.51249 134.369 6.4085 134.013L6.55661 134.362C5.85652 133.784 5.11604 133.244 4.40922 132.659C3.71586 132.048 3.04942 131.394 2.63206 130.618C2.65225 130.726 2.60512 130.771 2.70609 130.904C2.32239 130.713 1.89832 129.785 2.01949 129.722C1.85793 129.499 1.87814 129.722 1.73004 129.614C1.46751 129.328 1.45401 128.717 1.23186 128.603C1.19147 128.584 1.23187 128.717 1.24534 128.787C1.21168 128.539 0.760658 127.77 1.02992 127.916C0.700073 127.338 0.679886 126.728 0.451012 126.251C0.551987 125.888 0.14135 125.17 0.403885 125.03C0.107689 125.119 0.0403595 123.905 0.222115 123.498C0.127876 123.638 0.127899 123.136 0 123.295C0.0336609 122.812 0.154831 122.379 0.296196 122.487C0.16156 122.03 0.356789 121.597 0.511612 121.235C0.706833 120.873 0.841431 120.568 0.733727 120.256C1.47421 118.978 2.43009 117.993 3.46003 117.237C3.1975 117.027 2.40318 118.184 2.2147 117.961C3.17732 117.122 3.89761 116.887 4.8737 116.2C5.12277 116.01 4.65155 116.181 4.53038 116.2C5.62764 115.647 6.60371 115.062 7.66731 114.827C7.65385 114.802 7.53268 114.821 7.42498 114.84C7.62693 114.77 7.86928 114.624 7.8962 114.757L7.68752 114.795C7.45192 115.082 8.61648 114.878 8.68379 114.973C8.21931 114.732 9.6397 114.567 8.94634 114.287C9.0877 114.268 9.26944 114.281 9.26944 114.37C9.45793 114.287 9.49832 114.217 9.26944 114.185C10.0099 114.033 9.79451 114.249 10.4475 114.058C10.4273 114.001 10.2859 114.007 10.1984 113.956C10.5619 113.982 10.9322 114.007 11.464 113.823C11.4236 113.797 11.464 113.734 11.3092 113.772C12.2583 113.562 12.9988 113.677 14.0085 113.333C13.6316 113.136 14.3384 113.168 14.3384 112.927L14.9173 112.876L14.7221 113.035C15.2135 112.926 15.6847 112.996 16.0886 112.831L15.7049 112.812C16.0145 112.755 16.3242 112.71 16.6406 112.672L16.1357 112.857C16.6608 112.882 16.1492 113.162 16.7887 112.971C16.6474 112.971 17.2801 112.876 17.509 112.691C17.7715 112.723 18.0341 112.755 18.3841 112.628C18.4649 112.539 18.2562 112.386 18.31 112.323C18.586 112.462 19.4813 112.183 19.8246 112.342C19.7169 112.31 19.6833 112.189 19.717 112.157L19.9459 112.284C20.168 112.195 20.1949 112.17 20.1411 112.075C20.8277 111.941 19.9728 112.405 20.7738 112.151C20.7065 112.151 20.7334 112.119 20.5988 112.113C21.4133 111.909 22.2077 111.992 22.9616 111.82C23.1568 111.553 22.2884 111.846 22.5173 111.611C23.0693 111.566 23.6482 111.566 24.2204 111.56C24.7926 111.566 25.3581 111.56 25.8899 111.483L25.6947 111.528C25.8764 111.852 26.4688 111.286 27.0275 111.401C26.8929 111.382 26.839 111.223 26.8794 111.261C27.6065 111.159 28.3873 111.248 29.4981 111.286L29.3567 111.21C29.7875 111.108 30.4943 111.127 30.9588 111.07C31.1002 111.153 31.3694 111.127 31.2079 111.261C31.9214 110.981 32.6081 111.045 33.2745 111.121C33.9409 111.204 34.5804 111.274 35.2266 111.083C35.0718 111.083 34.8631 110.994 34.9843 111L36.0681 111.108C35.9806 111.255 35.92 111.191 35.6911 111.299C35.8258 111.388 36.1287 111.464 36.398 111.471C35.9133 111.363 36.4114 111.236 36.6268 111.159C36.5865 111.204 36.6605 111.255 36.6403 111.299C37.2192 111.051 36.7211 111.598 37.5019 111.445L37.4616 111.369C37.751 111.42 38.0068 111.541 38.3232 111.534C38.4646 111.369 38.0203 111.439 38.0068 111.299C38.4444 111.337 38.8483 111.668 39.2589 111.528C39.0772 111.471 38.8079 111.452 38.6262 111.394C39.0704 111.223 39.1175 111.274 39.4407 111.261H39.407L40.161 111.216L39.9657 111.261C40.4774 111.731 41.0765 111.439 41.7833 111.789C41.0967 111.452 41.6823 111.617 41.6487 111.426C41.8439 111.388 42.1333 111.356 42.0593 111.293C42.3891 111.483 42.6584 111.216 43.1229 111.496C43.1498 111.439 43.4931 111.534 43.4393 111.369C43.8835 111.471 43.3181 111.464 43.345 111.547C44.0114 111.846 45.0212 111.477 45.9838 111.909C46.8253 112.157 46.9532 112.386 47.7273 112.609C48.0168 112.551 47.5456 112.354 47.5456 112.354C47.9966 112.329 48.3197 112.393 48.7101 112.539C48.6361 112.469 48.7303 112.443 48.8717 112.393C49.1948 112.469 49.0467 112.653 49.4977 112.64C49.4371 112.558 49.3631 112.431 49.2218 112.335C49.5987 112.462 49.9555 112.647 50.3392 112.774C50.4671 112.685 50.1305 112.57 50.0093 112.475C50.4469 112.602 51.1537 112.787 51.248 112.984H50.9518C51.1134 113.028 51.0662 112.857 50.9518 112.799C50.595 112.596 50.3863 112.755 50.3527 112.812L50.6286 112.901C50.2584 113.206 49.5045 112.64 48.9256 112.551L49.114 112.857L48.5688 112.532C48.4341 112.577 48.3197 112.71 48.5957 112.799C48.1649 112.857 48.2524 112.64 47.8754 112.729C47.835 112.749 47.8485 112.761 47.8754 112.774L47.4917 112.634C47.559 112.698 47.3907 112.806 47.6465 112.806C46.9061 112.85 46.5224 112.437 46.2194 112.596L46.28 112.621C45.2972 112.386 46.2127 112.412 45.4991 112.081L44.927 112.494L44.8529 112.291C44.7452 112.291 44.5432 112.278 44.5702 112.354C44.2067 112.176 44.6442 112.278 44.4423 112.126C43.9239 112.24 43.0825 111.878 42.9276 112.176C42.7661 112.011 43.4191 112.119 42.9007 111.954C42.7122 112.272 42.2882 111.839 41.8169 111.954C41.9381 112.138 42.3824 112.087 41.9112 112.195C41.6689 111.884 41.0159 112.183 40.6389 112.094C40.6389 111.859 39.8109 111.928 39.1714 111.82C39.2051 111.903 37.9462 111.871 37.3471 111.928L37.3606 111.967C37.2529 111.731 36.6336 111.757 36.1826 111.693C36.196 111.833 36.2768 111.89 36.5192 111.96L36.0951 111.948C35.9941 111.871 35.8662 111.827 35.5902 111.795L35.6911 111.973C35.1257 111.941 34.5603 111.738 33.8332 111.865C33.7928 111.7 34.4121 111.414 33.6447 111.305C33.6178 111.394 33.5909 111.547 33.7928 111.579C33.7255 111.566 33.5572 111.509 33.4226 111.547L33.7322 111.693C33.4024 111.757 33.5572 111.572 33.2947 111.585C33.2947 111.712 33.0995 111.674 33.1399 111.776C33.2072 111.789 33.3687 111.725 33.4697 111.776C33.1735 111.801 32.81 111.871 32.6956 111.967C32.7225 111.897 32.6956 111.795 32.4734 111.782C31.908 111.782 32.2849 111.935 31.9551 112.005C31.8137 111.922 31.4569 112.024 31.4435 111.839C31.2752 111.839 31.2482 111.935 31.1877 111.986C30.8915 111.909 29.8211 112.005 30.1443 111.795L30.2183 111.782C30.2183 111.782 30.1847 111.782 30.1712 111.776C29.2019 111.611 28.1853 111.992 27.2295 111.967V112.03C26.664 111.992 25.9774 112.1 25.5533 111.998C25.385 112.011 25.1696 112.151 25.2504 112.215C24.8128 112.215 24.759 112.138 24.1464 112.304C24.5907 112.367 24.005 112.412 24.5974 112.342C24.0454 112.443 23.931 112.57 23.3117 112.475C23.5338 112.609 22.9212 112.729 22.6452 112.71L23.0222 112.551C22.7193 112.564 22.4635 112.609 22.2009 112.66L22.376 112.85C21.2787 113.238 20.2555 112.717 19.4612 113.27C19.1313 113.168 20.0603 113.073 19.7574 112.946C19.239 113.047 18.7543 113.441 18.5928 113.473C17.9062 113.721 17.8657 113.289 17.1387 113.505C17.2195 113.416 17.2667 113.2 16.6945 113.232C16.1761 113.352 16.1223 113.67 16.4656 113.658C16.5935 113.638 16.6473 113.607 16.6339 113.581C16.8089 113.581 17.0378 113.569 16.8493 113.689L16.7685 113.626C16.5262 113.74 15.8126 113.893 16.0078 113.975C15.6039 113.988 15.8126 113.893 16.0953 113.791C15.4558 114.039 15.0587 114.02 14.3989 114.236C14.4999 114.172 14.574 114.064 14.4663 114.09C13.4902 114.395 13.9883 114.045 13.3084 114.179C12.9584 114.389 13.5171 114.408 12.817 114.484C12.4266 114.662 12.7834 114.7 12.9651 114.719C12.3122 114.732 11.8409 115.094 11.4976 115.209L11.8409 115.19C11.639 115.202 11.4775 115.24 11.3226 115.285L11.464 115.094C11.2822 115.164 11.1274 115.215 11.1476 115.272C10.9255 115.228 11.2216 114.993 10.7975 114.967C10.5687 115.107 10.0099 115.107 9.98973 115.323C10.7504 115.031 9.96955 115.539 10.636 115.38C10.5014 115.393 10.3465 115.438 10.1715 115.52C10.1513 115.552 10.2119 115.552 10.2658 115.546C9.58586 115.94 9.84839 115.425 9.08772 115.679C9.22235 115.755 8.98672 115.933 8.85882 115.959C9.16175 115.851 8.93289 115.73 8.62323 115.749C8.17221 115.997 8.07797 115.883 7.8289 115.984L8.09814 115.838C7.95678 115.774 7.72117 115.87 7.37785 115.984C7.38459 116.08 7.70098 115.914 7.60001 115.997C7.14226 115.972 6.86625 116.531 6.32772 116.658C6.14597 116.842 6.41523 116.855 6.24694 117.001C5.64783 117.167 5.76899 117.44 5.19007 117.675C5.25066 117.459 5.29107 117.459 4.84005 117.593C5.14297 117.421 5.45264 117.262 5.76902 117.122C5.53342 117.167 5.30452 117.224 5.07565 117.287C5.33818 117.109 5.69497 117.014 5.84306 116.9C5.49975 116.951 5.54684 116.97 5.60743 116.785C5.35836 117.192 4.78617 117.129 4.47652 117.554L4.73906 117.84C4.28804 118.4 3.60141 118.508 3.0898 119.296L3.2177 119.023C3.01575 119.029 2.83401 119.455 2.63206 119.684C2.75996 119.729 2.69936 119.907 2.70609 120.053C2.60512 119.983 2.40991 120.631 2.12718 120.606C2.12718 120.752 2.10699 120.892 2.12718 121.038C1.95216 121.737 1.50113 121.737 1.40015 122.468C1.57517 122.271 1.60886 122.602 1.81081 122.157C1.75023 122.386 1.75694 122.596 1.6627 122.589C1.73675 122.735 1.39343 123.225 1.5348 123.46C1.47421 123.562 1.3396 123.594 1.34633 123.867C1.37325 123.899 1.41363 123.867 1.41363 123.867C1.33958 123.867 1.33286 124.299 1.17804 124.064C1.42038 124.439 1.44055 124.954 1.5348 125.463C1.56172 125.717 1.62904 125.965 1.70309 126.187C1.78387 126.41 1.86466 126.6 2.01276 126.728C2.13393 127.243 2.35608 127.853 2.5715 128.298C2.59169 128.253 2.63208 128.272 2.5715 128.196C3.01578 128.724 2.41663 128.736 2.95516 129.34C3.35906 129.569 2.82729 128.94 3.03598 129.105C3.4668 128.978 3.48698 129.919 4.03225 130.179L3.97838 130.065C4.1534 130.179 4.26786 130.389 4.41595 130.618C4.55059 130.853 4.70541 131.127 4.96122 131.336C4.96122 131.336 4.96122 131.292 5.00834 131.292C5.16317 131.75 5.78245 132.366 6.28059 132.78C6.22001 132.532 6.09886 132.538 6.30081 132.481C6.51622 132.665 6.05846 132.64 6.50275 133.015C6.71816 133.046 7.11533 133.212 7.26343 133.091L6.81242 132.792C7.18266 132.754 7.39131 133.18 7.66731 133.288L7.69426 133.186C8.38762 133.625 8.27319 133.848 9.09446 134.235L8.97325 134.261C9.30983 134.687 9.41755 134.305 9.78779 134.68L10.0369 134.509C10.3061 134.693 11.0062 135.157 11.5515 135.392C11.3024 135.106 10.6831 134.788 10.3465 134.521C10.6427 134.648 11.363 134.928 11.4774 135.1C11.363 135.03 11.2284 134.922 11.0937 134.909C11.3899 135.233 11.8612 135.494 12.4939 135.685C12.5343 135.195 14.1768 136.041 14.7423 135.761C15.8193 136.2 16.9974 136.168 18.3235 136.409C17.7782 136.708 18.714 136.479 18.5591 136.854C18.8688 136.931 18.99 136.943 19.0236 136.918L20.0132 136.823C20.2555 136.74 19.7304 136.695 19.7708 136.613C20.4642 136.676 20.0872 136.492 20.5517 136.448C20.4372 136.575 20.7604 136.676 21.1575 136.676L20.5786 136.778C21.5076 137.115 21.4537 136.575 22.3961 136.88L22.1067 136.727C22.5981 136.848 23.9377 136.937 24.3955 137.28C24.4897 137.242 24.6176 137.147 24.3955 137.102C25.587 137.159 27.0208 137.655 27.97 137.503L27.8824 137.401C28.1046 137.439 28.2594 137.598 28.5421 137.522C28.5287 137.484 28.4546 137.42 28.5623 137.42C28.6768 137.458 29.148 137.624 29.4442 137.573L29.1951 137.458C30.3664 137.363 30.979 137.782 31.9618 137.852C31.9618 137.573 32.8773 137.477 33.3351 137.433L33.3216 137.395C34.6747 137.363 35.6306 137.573 36.8961 137.643C37.6568 137.293 39.5282 137.363 40.7601 137.051C40.5783 137.121 40.8139 137.268 41.0428 137.274C41.3323 137.191 41.8775 137.388 41.7967 137.134L41.6958 137.153C41.8843 136.873 42.4901 136.867 42.9546 136.797L43.0825 137.121C44.2336 136.505 46.3204 136.816 46.8993 136.27C47.209 136.295 47.5658 136.225 47.8754 136.25L47.8216 136.079C48.6159 135.875 49.0198 135.786 50.0161 135.583L49.7805 135.507C50.3324 135.367 50.6152 135.844 51.1403 135.736L51.221 135.437C52.1971 135.195 53.0924 134.699 54.1156 134.661C54.0887 134.629 54.0349 134.566 53.88 134.598C54.3243 134.451 55.5495 133.879 55.5091 134.28C55.435 134.045 56.4852 133.956 57.0304 133.86L56.8891 133.72C57.4007 133.778 57.4344 133.835 58.0604 133.676C58.195 133.606 58.1277 133.498 57.9594 133.606C58.397 133.352 58.397 133.631 58.9288 133.333L58.673 133.307C59.1509 133.11 59.1375 133.18 59.4539 133.199C59.7837 133.148 60.3357 132.779 60.329 132.608C60.4367 132.671 60.7531 132.671 61.0021 132.5C61.0089 132.43 60.8944 132.443 60.8338 132.449C61.5272 131.979 62.059 132.048 62.4427 131.597C62.4158 131.54 62.4292 131.495 62.4629 131.457C61.9176 131.82 61.4464 132.068 61.5003 132.061C61.4195 131.915 61.857 131.642 61.3724 131.648C61.8032 131.565 62.5773 131.406 62.9341 131.038C62.9408 131.012 62.9543 130.987 62.9476 130.955L62.8937 130.974C62.9745 130.891 63.062 130.841 63.1563 130.802C63.264 130.688 63.3178 130.605 63.4322 130.504C63.3784 130.37 63.7958 130.071 63.9438 129.874C64.0718 130.008 64.267 129.741 64.1862 130.065C64.1996 130.027 64.1391 130.084 64.0179 130.205C63.9842 130.23 63.9506 130.256 63.9236 130.268H63.9506C63.8294 130.383 63.6746 130.535 63.4794 130.694C63.7015 130.631 63.9102 130.535 64.0381 130.262C64.2199 130.243 64.4083 130.211 64.5093 130.179C64.5497 129.747 64.7987 129.143 64.6776 128.984C65.169 128.406 65.4046 127.452 65.7883 127.014C65.8691 126.804 65.7277 126.753 65.6671 126.67C65.6335 126.791 65.5998 126.937 65.546 126.995C65.6402 126.791 65.6469 126.473 65.6873 126.2C65.7142 125.92 65.7412 125.679 65.8624 125.621C65.7008 125.081 65.6806 125.946 65.6268 125.196L65.5662 125.304C65.2834 124.604 65.2565 124.02 65.1758 123.371C65.0882 122.735 64.8795 122.055 64.1929 121.47C64.2872 121.553 64.3343 121.591 64.3814 121.591C63.7553 120.828 63.136 120.046 62.3754 119.366C61.6147 118.686 60.7463 118.095 59.7837 117.764C59.2519 117.548 59.2653 117.408 59.0095 117.148L58.8076 117.262L58.3633 116.817C57.643 116.328 56.8083 116.684 55.9063 116.048L56.088 115.972C55.7111 115.863 54.9369 115.514 54.9504 115.673C54.9235 115.641 54.8763 115.507 54.7013 115.527L54.6542 115.616L53.7858 115.177C53.0453 115.037 53.7724 115.59 52.7222 115.31C52.3452 115.164 51.6923 114.719 51.8605 114.694C52.0221 114.732 52.2846 114.745 52.325 114.656L51.9817 114.503C52.0086 114.198 51.8202 113.836 52.7626 113.88L53.3213 114.23L53.5637 114.147L53.0453 113.988C53.3819 113.944 53.53 114.109 53.7185 114.249C53.7925 114.192 53.8935 114.166 54.0282 114.172L54.5465 114.624C54.6542 114.535 54.3513 114.325 54.7754 114.382C55.0177 114.592 54.4186 114.548 54.8629 114.77C55.1995 114.732 55.1523 114.605 55.462 114.821C55.536 114.764 55.4822 114.694 55.3543 114.617C55.6303 114.802 56.1554 114.916 56.2563 115.12C56.6266 115.062 57.2728 115.527 57.3469 115.253C57.4142 115.355 57.7979 115.66 58.0671 115.787C57.7036 115.266 59.1105 116.2 59.1374 115.832C59.3731 116.258 60.4097 116.588 60.9415 117.103C60.9213 117.065 60.8809 116.982 60.8136 116.963C61.1771 117.154 61.332 117.128 61.5878 117.23C61.4868 117.465 61.985 117.853 62.1465 118.184C62.7052 118.285 62.0926 117.777 62.3686 117.682C62.2205 117.828 62.9408 118.362 62.685 118.394C63.0822 118.521 62.988 118.546 63.2842 118.514C63.1159 118.781 63.513 118.8 63.6073 119.15C64.1256 119.43 63.9371 119.048 64.2872 119.563C64.5632 119.716 64.2737 119.239 64.2737 119.239L64.24 119.22ZM63.4659 131.966C63.5669 131.902 63.6611 131.839 63.715 131.801C63.6678 131.839 63.5938 131.89 63.4659 131.966ZM62.4494 132.621C62.5706 132.544 62.7254 132.443 62.8937 132.341C62.8937 132.265 62.8197 132.239 62.7187 132.309C62.7995 132.309 62.5773 132.487 62.4494 132.621ZM63.5669 130.23C63.4322 130.326 63.412 130.389 63.4255 130.427C63.4861 130.377 63.5602 130.319 63.6544 130.243C63.6611 130.243 63.6746 130.243 63.688 130.243C63.6477 130.23 63.614 130.224 63.5736 130.224L63.5669 130.23Z" fill="#C6B08D"/>
<path d="M63.9579 130.187C63.9579 130.187 63.9915 130.168 64.0117 130.143C63.9983 130.181 63.9915 130.212 63.9781 130.244C63.9511 130.244 63.9175 130.244 63.8906 130.244C63.9107 130.225 63.9377 130.2 63.9579 130.181V130.187Z" fill="#C6B08D"/>
<path d="M30.1176 111.783H30.0907C30.0907 111.783 30.1311 111.77 30.1445 111.764C30.1311 111.77 30.1311 111.776 30.1176 111.783Z" fill="#C6B08D"/>
<path d="M46.9459 137.865L46.9392 137.82L47.0469 137.839L46.9459 137.865Z" fill="#C6B08D"/>
<path d="M36.6137 111.146C36.6137 111.146 36.6541 111.114 36.7012 111.102C36.7012 111.114 36.6608 111.127 36.6137 111.146Z" fill="#C6B08D"/>
<path d="M39.434 111.241L39.8379 111.203C39.6629 111.229 39.5349 111.241 39.434 111.241Z" fill="#C6B08D"/>
<path d="M41.608 111.324C41.6349 111.356 41.6349 111.381 41.6416 111.407L41.608 111.324Z" fill="#C6B08D"/>
<path d="M7.43164 114.795C7.43164 114.795 7.37779 114.814 7.35086 114.82C7.14891 114.858 7.28354 114.82 7.43164 114.795Z" fill="#C6B08D"/>
<path d="M17.5029 112.653C17.3885 112.641 17.2808 112.628 17.1596 112.628C17.3346 112.584 17.476 112.552 17.5029 112.653Z" fill="#C6B08D"/>
<path d="M9.77227e-05 123.258H0.00683594V123.328L9.77227e-05 123.258Z" fill="#C6B08D"/>
<path d="M16.6947 112.724C16.8697 112.654 17.0178 112.635 17.1592 112.635C17.0178 112.673 16.8428 112.724 16.6947 112.724Z" fill="#C6B08D"/>
<path d="M50.9312 112.559L51.0322 112.571C51.0322 112.571 51.0322 112.59 51.0322 112.603L50.9245 112.559H50.9312Z" fill="#C6B08D"/>
<path d="M51.0388 112.602L51.1465 112.646C51.0926 112.633 51.0523 112.627 51.0388 112.602Z" fill="#C6B08D"/>
<path d="M51.375 112.742L51.1461 112.646C51.2269 112.666 51.3346 112.678 51.375 112.742Z" fill="#C6B08D"/>
<path d="M48.0908 112.132L48.0706 112.062C48.0706 112.062 48.0908 112.101 48.0908 112.132Z" fill="#C6B08D"/>
<path d="M47.2298 111.987C47.4385 112.006 47.7684 111.929 48.0511 112.012L48.0713 112.069C47.9501 111.955 47.4116 112.126 47.2298 111.993V111.987Z" fill="#C6B08D"/>
<path d="M43.5202 112.297L44.2473 112.329C44.1126 112.38 43.9376 112.456 44.2607 112.513C43.3318 112.608 44.4694 112.38 43.5202 112.297Z" fill="#C6B08D"/>
<path d="M41.2719 112.184C41.6556 112.247 41.2584 112.285 41.2719 112.323C41.0295 112.241 40.9757 112.215 41.2719 112.184Z" fill="#C6B08D"/>
<path d="M25.0682 112.271L25.1221 112.43C24.8191 112.43 25.1153 112.367 25.0682 112.271Z" fill="#C6B08D"/>
<path d="M21.8643 111.79L22.147 111.656L22.3086 111.79H21.8643Z" fill="#C6B08D"/>
<path d="M20.2355 113.199L20.3701 113.206L19.8652 113.225L20.2355 113.199Z" fill="#C6B08D"/>
<path d="M1.99902 126.091L1.77017 126.059C1.75671 125.869 1.97883 125.786 1.99902 126.091Z" fill="#C6B08D"/>
<path d="M8.99984 134.058C9.1614 134.02 9.47778 134.097 9.61914 134.262C9.38353 134.167 9.10755 134.135 8.99984 134.058Z" fill="#C6B08D"/>
<path d="M43.5667 136.765L43.3244 136.727H43.7754L43.5667 136.765Z" fill="#C6B08D"/>
<path d="M51.9871 104.994L46.4739 108.789L46.9384 109.393L49.0992 112.292L49.2406 112.483C50.4792 109.641 54.6191 109.393 54.6191 109.393L54.4307 108.669L51.9871 104.994Z" fill="#D0AB6F"/>
<path d="M13.6836 37.0643C13.5288 36.0726 13.4076 35.3225 13.4076 35.3225H13.4211C13.4211 35.3225 13.172 35.278 12.8691 35.1699L12.5123 35.3225C11.7382 36.1362 12.8893 36.7528 13.6836 37.0643Z" fill="#D0AB6F"/>
<path d="M13.421 35.3217H18.7457L19.4324 35.2709C18.9342 34.8195 18.5101 34.3745 18.9006 34.3745C19.3247 34.3745 19.9844 34.3745 20.6239 34.6288L20.7787 34.2537C20.7787 34.2537 19.742 33.6625 20.4556 33.1794C21.1624 32.6963 21.6606 31.2214 21.1557 30.1153C21.0211 29.8165 20.597 29.505 20.018 29.219C18.8871 28.6786 17.184 28.2591 15.8983 28.2718C15.2386 28.2781 14.6866 28.4116 14.3904 28.6913C13.8878 29.166 13.605 29.5093 13.5422 29.7212C13.4614 29.9818 13.3672 30.2297 13.2729 30.4713C12.9296 31.374 12.62 32.175 13.421 33.2493C13.7778 33.7198 11.6035 33.6625 11.866 34.3745C12.0141 34.775 12.4853 35.0229 12.869 35.1691C13.172 35.2772 13.421 35.3217 13.421 35.3217Z" fill="#F5CF24"/>
<path d="M30.2973 27.5147C30.2973 27.5147 27.5844 28.5192 25.4976 30.0258C24.6763 30.617 23.7676 33.0898 22.9732 35.8742C22.2799 38.2708 21.674 40.9026 21.2634 42.7589C20.947 44.2274 20.7585 45.2127 20.7585 45.2127C20.7585 45.2127 22.0442 46.0073 23.5791 46.6621C24.2657 46.9545 24.9994 47.2215 25.6928 47.3741C26.6554 47.5839 28.197 47.7365 29.6375 47.8382L29.5299 49.0206C30.6002 51.3918 31.0445 60.0945 31.1993 64.0677H31.2599L43.8615 65.5171V61.1307L43.5317 60.5777C44.05 60.3361 44.4539 59.9992 44.6962 59.5415C46.433 56.2994 45.2146 37.9276 44.6962 34.7872C44.1779 31.6532 41.4314 28.5382 41.4314 28.5382V26.0081C41.4314 26.0081 39.5735 25.6966 37.9511 25.4741C37.3049 25.3851 36.6923 25.3088 36.248 25.2707C35.3662 25.2008 33.5688 25.2071 32.1821 25.2326C31.1185 25.2453 30.2973 25.2707 30.2973 25.2707V27.5147Z" fill="#D0AB6F"/>
<path d="M14.3365 38.5512C14.3365 38.5512 14.1682 38.5512 13.9259 38.5449C13.9932 38.9772 14.0605 39.4094 14.1211 39.8163L14.3634 39.7782H16.2617V38.2016C16.2617 38.2016 15.2654 37.3307 14.2287 37.248C14.2961 37.2671 14.3365 37.2798 14.3365 37.2798C14.3365 37.2798 14.0605 37.248 13.7104 37.248C13.7778 37.6485 13.8451 38.0808 13.9191 38.5131C14.1615 38.5322 14.3365 38.5512 14.3365 38.5512Z" fill="#D0AB6F"/>
<path d="M4.44744 114.88C3.86179 116.031 5.47067 117.455 5.47067 117.455C5.47067 117.455 15.1373 121.002 16.6452 121.962C18.1463 122.922 21.9565 122.808 21.9565 122.808L22.6565 118.701L22.8854 118.726L23.0537 117.499L22.6565 117.455C22.6565 117.455 20.4014 115.319 17.3991 115.319C14.3968 115.319 17.628 114.88 17.628 114.88L16.1201 114.69C12.8822 113.901 10.2097 114.766 8.54029 114.69C6.87085 114.613 5.02637 113.723 4.44744 114.88Z" fill="#D0AB6F"/>
<path d="M10.5878 26.5994C9.88095 27.2732 13.0381 30.3882 13.0381 30.3882L13.2737 30.4708C13.3679 30.2293 13.4622 29.9813 13.543 29.7207H13.5228C13.5228 29.7207 12.136 27.2732 11.8466 26.5994C11.8466 26.5994 11.3013 25.9319 10.5878 26.5994Z" fill="#D0AB6F"/>
<path d="M12.1687 37.8393C12.1552 38.2334 12.687 38.4114 13.2323 38.4877C13.4544 38.4813 13.7103 38.5004 13.9189 38.5131C13.8449 38.0808 13.7776 37.6485 13.7103 37.248C13.0775 37.248 12.1889 37.3307 12.1687 37.8393Z" fill="#D0AB6F"/>
<path d="M19.4328 35.2718L18.7461 35.3227H13.408C13.408 35.3227 13.5291 36.0728 13.6839 37.0645C13.9061 37.1472 14.1013 37.2107 14.2158 37.2425C14.2225 37.2425 14.2292 37.2425 14.2292 37.2425C15.2659 37.3252 16.2622 38.1961 16.2622 38.1961V39.7726H14.3638L14.1215 39.8108C14.2898 40.8342 14.4177 41.6607 14.4312 41.7624C14.4716 42.0612 18.7461 42.3091 18.7461 42.3091C18.7461 42.3091 18.975 41.8069 19.2578 41.114L20.355 41.9467L21.2638 42.7541C21.6744 40.8978 22.2803 38.266 22.9736 35.8694L22.0783 35.1956L21.7956 35.5325C21.4657 35.0684 21.0483 34.7887 20.6243 34.6234C19.9847 34.3691 19.3251 34.3691 18.901 34.3691C18.5105 34.3691 18.9346 34.8141 19.4328 35.2655V35.2718Z" fill="#D0AB6F"/>
<path d="M14.2157 37.2424C14.1013 37.2107 13.9061 37.1471 13.6839 37.0645C13.6974 37.128 13.7041 37.1852 13.7109 37.2488C14.0609 37.2488 14.3369 37.2806 14.3369 37.2806C14.3369 37.2806 14.2965 37.2679 14.2292 37.2488C14.2292 37.2488 14.2225 37.2488 14.2157 37.2488V37.2424Z" fill="#D0AB6F"/>
<path d="M13.9196 38.5117C13.9196 38.5117 13.9196 38.5308 13.9263 38.5435C14.1686 38.5562 14.3369 38.5499 14.3369 38.5499C14.3369 38.5499 14.1619 38.5308 13.9196 38.5117Z" fill="#D0AB6F"/>
<path d="M15.8916 25.8567C15.1377 26.5623 15.7435 27.0836 15.8916 27.9863V28.2723C17.1841 28.2596 18.8872 28.6792 20.0181 29.2195L20.4018 28.6919C20.4018 28.6919 21.1558 28.6919 21.6606 28.2723C22.1655 27.8528 21.9097 26.5623 20.7586 25.2718C19.6142 23.9813 16.6455 25.1447 15.8916 25.8567Z" fill="#F5CF24"/>
<path d="M22.7656 116.583L23.5801 113.093V113.068C22.0318 112.966 20.2143 112.419 18.8275 111.93L17.6293 114.879C17.6293 114.879 14.3914 115.318 17.4004 115.318C20.4095 115.318 22.6578 117.454 22.6578 117.454L23.055 117.498L23.1627 116.666L22.7656 116.583Z" fill="#D0AB6F"/>
<path d="M33.0578 77.8313L33.1789 77.8631C33.9396 79.8211 35.9254 93.9146 37.5612 96.0951C39.2038 98.2819 42.96 106.088 42.96 106.088L43.862 107.334L45.5988 109.394L46.4739 108.79L51.9871 104.995L53.4883 103.959L52.3506 100.996L51.9871 101.124C51.9871 101.124 42.96 84.7923 43.862 82.4402C44.6631 80.3741 44.5217 72.2371 44.064 68.8107H44.0707L43.862 65.5178L31.2604 64.0684H31.1998C31.2402 65.2889 31.2604 66.0645 31.2604 66.0645L31.6845 67.0371C32.4317 68.4547 29.4294 78.3971 29.4294 78.3971L28.5408 78.3717L28.6755 74.1379L27.834 74.068L27.4166 78.4416H25.0269L24.2595 75.6318C24.2595 75.6318 23.7479 77.4881 23.3709 78.7213H23.3642C23.3238 78.8739 23.2767 79.0074 23.2363 79.1282C23.2228 79.179 23.2161 79.1917 23.2228 79.1854C22.2468 82.6309 20.3349 95.6374 19.655 97.5699C18.9011 99.6995 16.646 111.06 16.646 111.06C16.646 111.06 17.5548 111.473 18.8271 111.93C20.2138 112.42 22.0313 112.967 23.5796 113.068C24.1047 113.107 24.5961 113.1 25.0269 113.018L25.6664 112.484L27.834 95.4912L33.0578 77.8313Z" fill="#D0AB6F"/>
<path d="M21.9365 14.4267C21.0344 14.8335 20.3209 16.8996 21.0816 18.4761C21.9096 20.1734 24.5416 18.6859 24.5416 18.6859L27.1737 23.727H32.182L32.3975 22.1505L31.2598 22.0106L29.5298 17.3318L29.247 16.6071L27.1737 17.3318C27.1737 17.3318 24.5484 15.4692 22.9664 13.4922L21.9028 14.3568L21.9365 14.4267Z" fill="#D0AB6F"/>
<path d="M23.7476 47.336L23.5793 47.3741L26.1643 65.5171L24.616 67.6912L24.6631 67.812C21.8897 68.9244 21.6743 74.3343 22.159 74.5822C22.6571 74.8492 23.5793 73.1328 23.5793 73.1328L24.2592 75.6311L25.0266 78.4409H27.4164L27.8337 74.0673L28.6752 74.1372L28.5405 78.371L29.4291 78.3964C29.4291 78.3964 32.4315 68.454 31.6842 67.0364L31.2602 66.0638C31.2602 66.0638 31.2399 65.2882 31.1995 64.0677C31.0447 60.0945 30.6004 51.3918 29.5301 49.0206L29.6378 47.8382C28.1972 47.7365 26.6557 47.5839 25.6931 47.3741C24.9997 47.2215 24.266 46.9545 23.5793 46.6621L23.7476 47.336Z" fill="#D0AB6F"/>
<path d="M43.4237 6.42255L41.8754 4.24209C39.7213 2.28412 37.4729 1 33.1849 1C28.6747 1 25.2819 3.12961 24.3462 5.25922C23.4105 7.39518 21.1554 10.9424 22.6566 13.072C22.7575 13.2119 22.8585 13.3517 22.9662 13.4916C24.5482 15.4686 27.1735 17.3312 27.1735 17.3312L29.2468 16.6065L30.6807 16.1107L31.2596 17.3312C31.2596 17.3312 33.2185 18.0432 34.3293 17.3312C35.44 16.6256 35.2919 18.6853 35.2919 18.6853L41.4311 17.3312V20.9229C41.4311 20.9229 45.7259 17.4647 45.8471 15.2652C45.9682 13.072 46.4799 9.96341 45.8471 8.32329C45.4836 7.38245 44.3325 6.77218 43.4237 6.42255Z" fill="#D0AB6F"/>
<path d="M29.2473 16.6072L29.5301 17.3319L31.2601 22.0107L32.3978 22.1505L38.7053 22.9134L41.4316 18.4761V17.3319L35.2924 18.6859C35.2924 18.6859 35.4405 16.6263 34.3298 17.3319C33.219 18.0439 31.2601 17.3319 31.2601 17.3319L30.6812 16.1113L29.2473 16.6072Z" fill="#D0AB6F"/>
<path d="M32.1821 25.2145V25.2336C33.5688 25.2081 35.3662 25.2018 36.248 25.2717C36.6923 25.3098 37.3049 25.3861 37.9511 25.4751L37.978 25.2717L38.7051 22.9132L32.3975 22.1504L32.1821 23.7269V25.2145Z" fill="#D0AB6F"/>
<path d="M42.9595 119.305C41.4584 120.443 38.4493 123.132 41.4583 123.844C44.4674 124.556 48.2236 121.002 49.2401 120.513C50.2566 120.023 59.5059 113.902 59.5059 113.902L54.6187 109.395C54.6187 109.395 50.4787 109.642 49.2401 112.484L49.0988 112.293L47.8938 113.094C47.8938 113.094 44.4674 118.161 42.9595 119.305Z" fill="#D0AB6F"/>
<path d="M42.2129 4.55358C42.0985 4.44551 41.9907 4.3438 41.8763 4.24209C39.7222 2.28412 37.4738 1 33.1858 1C28.6756 1 25.2828 3.12961 24.3471 5.25922C23.4114 7.39518 21.1563 10.9424 22.6575 13.072C22.7585 13.2119 22.8594 13.3517 22.9672 13.4916C24.5491 15.4686 27.1744 17.3312 27.1744 17.3312L29.2477 16.6065L30.6816 16.1107" stroke="#4F4131" stroke-linecap="round" stroke-linejoin="round"/>
<path d="M31.2596 17.3301C31.2596 17.3301 33.2185 18.0421 34.3293 17.3301C35.44 16.6245 35.2919 18.6842 35.2919 18.6842L41.4311 17.3301V20.9218C41.4311 20.9218 45.7259 17.4636 45.8471 15.2641C45.9682 13.0709 46.4799 9.96229 45.8471 8.32218C45.4836 7.38134 44.3325 6.77107 43.4237 6.42143C42.7505 6.16715 42.212 6.05273 42.212 6.05273" stroke="#4F4131" stroke-linecap="round" stroke-linejoin="round"/>
<path d="M22.1592 14.3555C22.0851 14.3682 22.0111 14.3872 21.937 14.4254C21.035 14.8322 20.3215 16.8983 21.0821 18.4748C21.9101 20.1721 24.5422 18.6846 24.5422 18.6846L27.1743 23.7257H32.1826V25.2133" stroke="#4F4131" stroke-linecap="round" stroke-linejoin="round"/>
<path d="M41.4316 18.4743L38.7053 22.9116L32.3978 22.1487L31.2601 22.0088L29.5301 17.3301" stroke="#4F4131" stroke-linecap="round" stroke-linejoin="round"/>
<path d="M37.978 25.2725L38.7051 22.9141" stroke="#4F4131" stroke-linecap="round" stroke-linejoin="round"/>
<path d="M32.1821 37.597L33.1784 48.0162C33.1784 48.0162 31.5022 47.9653 29.6375 47.8382C28.197 47.7365 26.6554 47.5839 25.6928 47.3741C24.9994 47.2215 24.2657 46.9545 23.5791 46.6621C22.0442 46.0073 20.7585 45.2127 20.7585 45.2127C20.7585 45.2127 20.947 44.2274 21.2634 42.7589C21.674 40.9026 22.2799 38.2708 22.9732 35.8742C23.7676 33.0898 24.6763 30.617 25.4976 30.0258C27.5844 28.5192 30.2973 27.5147 30.2973 27.5147V25.2707C30.2973 25.2707 31.1185 25.2453 32.1821 25.2326C33.5688 25.2071 35.3662 25.2008 36.248 25.2707C36.6923 25.3088 37.3049 25.3851 37.9511 25.4741C39.5735 25.6966 41.4314 26.0081 41.4314 26.0081V28.5382C41.4314 28.5382 44.1779 31.6532 44.6962 34.7872C45.2146 37.9276 46.433 56.2994 44.6962 59.5415C44.4539 59.9992 44.05 60.3361 43.5317 60.5777C40.4014 62.0716 33.1784 60.0818 33.1784 60.0818" stroke="#4F4131" stroke-linecap="round" stroke-linejoin="round"/>
<path d="M38.7051 28.5377L32.1821 27.8066" stroke="#4F4131" stroke-linecap="round" stroke-linejoin="round"/>
<path d="M29.5307 49.0195C30.601 51.3907 31.0453 60.0935 31.2001 64.0666C31.2405 65.2872 31.2607 66.0627 31.2607 66.0627" stroke="#4F4131" stroke-linecap="round" stroke-linejoin="round"/>
<path d="M23.579 47.375L26.164 65.518L26.4736 67.6921" stroke="#4F4131" stroke-linecap="round" stroke-linejoin="round"/>
<path d="M25.0264 67.6914C24.8985 67.7232 24.7773 67.7613 24.6628 67.8122C21.8894 68.9247 21.674 74.3345 22.1587 74.5824C22.6568 74.8494 23.579 73.133 23.579 73.133L24.259 75.6313L25.0264 78.4411" stroke="#4F4131" stroke-linecap="round" stroke-linejoin="round"/>
<path d="M26.4736 74.043V78.442" stroke="#4F4131" stroke-linecap="round" stroke-linejoin="round"/>
<path d="M27.833 74.043V74.0684L27.4156 78.442" stroke="#4F4131" stroke-linecap="round" stroke-linejoin="round"/>
<path d="M28.6748 74.1387L28.5402 78.3725V78.4424" stroke="#4F4131" stroke-linecap="round" stroke-linejoin="round"/>
<path d="M31.6842 67.0371C32.4315 68.4547 29.4291 78.3971 29.4291 78.3971" stroke="#4F4131" stroke-linecap="round" stroke-linejoin="round"/>
<path d="M43.8613 61.1309V65.5172L31.2597 64.0678" stroke="#4F4131" stroke-linecap="round" stroke-linejoin="round"/>
<path d="M43.8612 67.6914C43.9353 67.9584 44.0026 68.3398 44.0632 68.8102C44.5209 72.2367 44.6623 80.3737 43.8612 82.4397C42.9592 84.7918 51.9863 101.123 51.9863 101.123" stroke="#4F4131" stroke-linecap="round" stroke-linejoin="round"/>
<path d="M53.4883 103.959L51.9871 104.995L46.4739 108.79L45.5988 109.394L43.862 107.335" stroke="#4F4131" stroke-linecap="round" stroke-linejoin="round"/>
<path d="M33.1779 77.8633C33.9386 79.8212 35.9244 93.9148 37.5602 96.0952C39.2027 98.2821 42.959 106.088 42.959 106.088" stroke="#4F4131" stroke-linecap="round" stroke-linejoin="round"/>
<path d="M33.9385 74.8496L33.0566 77.8311L27.8329 95.4909L25.6653 112.483" stroke="#4F4131" stroke-linecap="round" stroke-linejoin="round"/>
<path d="M23.2223 79.1855C22.2462 82.6311 20.3344 95.6376 19.6545 97.5701C18.9005 99.6997 16.6455 111.06 16.6455 111.06C16.6455 111.06 17.5542 111.473 18.8265 111.931C20.2132 112.42 22.0308 112.967 23.579 113.069C24.1041 113.107 24.5955 113.1 25.0264 113.018" stroke="#4F4131" stroke-linecap="round" stroke-linejoin="round"/>
<path d="M23.3643 78.7266C23.3239 78.8346 23.2835 78.9745 23.2364 79.1271" stroke="#4F4131" stroke-linecap="round" stroke-linejoin="round"/>
<path d="M23.4912 78.4414C23.4508 78.505 23.4104 78.6003 23.37 78.7211" stroke="#4F4131" stroke-linecap="round" stroke-linejoin="round"/>
<path d="M46.9379 109.395L49.0988 112.293L49.2401 112.484C50.4787 109.642 54.6187 109.395 54.6187 109.395L59.5059 113.902C59.5059 113.902 50.2566 120.023 49.2401 120.513C48.2236 121.002 44.4674 124.556 41.4583 123.844C38.4493 123.132 41.4584 120.443 42.9595 119.305C44.4674 118.161 47.8938 113.094 47.8938 113.094" stroke="#4F4131" stroke-linecap="round" stroke-linejoin="round"/>
<path d="M51.9871 106.088L53.4883 108.669" stroke="#4F4131" stroke-linecap="round" stroke-linejoin="round"/>
<path d="M23.5801 113.094L22.7656 116.584L22.7454 116.666" stroke="#4F4131" stroke-linecap="round" stroke-linejoin="round"/>
<path d="M18.8259 111.93L17.6277 114.879C17.6277 114.879 14.3898 115.318 17.3988 115.318C20.4079 115.318 22.6562 117.454 22.6562 117.454" stroke="#4F4131" stroke-linecap="round" stroke-linejoin="round"/>
<path d="M16.1198 114.69C12.8819 113.901 10.2095 114.766 8.54002 114.69C6.87057 114.613 5.02609 113.723 4.44717 114.88C3.86152 116.031 5.47039 117.455 5.47039 117.455C5.47039 117.455 15.137 121.002 16.6449 121.962C18.1461 122.922 21.9562 122.808 21.9562 122.808L22.6562 118.701" stroke="#4F4131" stroke-linecap="round" stroke-linejoin="round"/>
<path d="M21.957 35.7863C21.9032 35.6973 21.8561 35.6146 21.7955 35.5383C21.4656 35.0743 21.0482 34.7946 20.6241 34.6293C19.9846 34.375 19.3249 34.375 18.9008 34.375C18.5104 34.375 18.9345 34.82 19.4327 35.2713C19.8971 35.7036 20.4289 36.1486 20.4289 36.2694" stroke="#4F4131" stroke-linecap="round" stroke-linejoin="round"/>
<path d="M20.3547 37.4773C20.3816 38.2084 19.7353 39.9375 19.2574 41.1199C18.9747 41.8128 18.7458 42.315 18.7458 42.315C18.7458 42.315 14.4712 42.0671 14.4308 41.7683C14.4174 41.6666 14.2894 40.8402 14.1211 39.8167C14.0606 39.4098 13.9933 38.9776 13.9259 38.5453C13.9192 38.5326 13.9192 38.5262 13.9192 38.5135C13.8452 38.0812 13.7778 37.6489 13.7105 37.2484C13.7038 37.1849 13.697 37.1277 13.6836 37.0641C13.5287 36.0724 13.4076 35.3223 13.4076 35.3223H18.7458" stroke="#4F4131" stroke-linecap="round" stroke-linejoin="round"/>
<path d="M13.421 35.3217C13.421 35.3217 13.172 35.2772 12.869 35.1691C12.4853 35.0229 12.0141 34.775 11.866 34.3745C11.6035 33.6625 13.7778 33.7198 13.421 33.2493C12.62 32.175 12.9296 31.374 13.2729 30.4713C13.3672 30.2297 13.4614 29.9818 13.5422 29.7212C13.605 29.5093 13.8878 29.166 14.3904 28.6913C14.6866 28.4116 15.2386 28.2781 15.8983 28.2718C17.184 28.2591 18.8871 28.6786 20.018 29.219C20.597 29.505 21.0211 29.8165 21.1557 30.1153C21.6606 31.2214 21.1624 32.6963 20.4556 33.1794C19.742 33.6625 20.7787 34.2537 20.7787 34.2537" stroke="#4F4131" stroke-linecap="round" stroke-linejoin="round"/>
<path d="M14.6865 34.2539C13.6364 34.3747 14.1749 34.7879 14.1749 34.7879" stroke="#4F4131" stroke-linecap="round" stroke-linejoin="round"/>
<path d="M13.5215 29.7207C13.5215 29.7207 12.1348 27.2732 11.8453 26.5994C11.8453 26.5994 11.3001 25.9319 10.5865 26.5994C9.87968 27.2732 13.0368 30.3882 13.0368 30.3882" stroke="#4F4131" stroke-linecap="round" stroke-linejoin="round"/>
<path d="M14.2287 37.248C15.2654 37.3307 16.2617 38.2016 16.2617 38.2016V39.7782H14.3634" stroke="#4F4131" stroke-linecap="round" stroke-linejoin="round"/>
<path d="M14.0341 37.2344C14.0946 37.2344 14.1552 37.2344 14.2158 37.2411" stroke="#4F4131" stroke-linecap="round" stroke-linejoin="round"/>
<path d="M13.6637 39.1858C13.2868 38.9315 12.7886 38.4928 13.2329 38.4865M13.2329 38.4865C13.4551 38.4801 13.7109 38.4992 13.9196 38.5119C14.1619 38.531 14.3369 38.5501 14.3369 38.5501C14.3369 38.5501 14.1686 38.5501 13.9263 38.5437C13.7311 38.5437 13.482 38.5246 13.2329 38.4865ZM13.2329 38.4865C12.6877 38.4102 12.1558 38.2322 12.1693 37.8381C12.1895 37.3295 13.0781 37.2469 13.7109 37.2469C14.0609 37.2469 14.3369 37.2787 14.3369 37.2787C14.3369 37.2787 13.7311 37.2977 13.6637 37.2787C13.6637 37.2787 14.3369 37.2787 14.2157 37.2405C14.1013 37.2087 13.9061 37.1452 13.6839 37.0625C12.8896 36.751 11.7385 36.1344 12.5126 35.3207L12.8694 35.1681L13.0983 35.0664" stroke="#4F4131" stroke-linecap="round" stroke-linejoin="round"/>
<path d="M19.2578 41.1191L20.3551 41.9519L20.833 42.3143" stroke="#4F4131" stroke-linecap="round" stroke-linejoin="round"/>
<path d="M15.8916 27.9863C15.7435 27.0836 15.1377 26.5623 15.8916 25.8567C16.6455 25.1447 19.6142 23.9813 20.7586 25.2718C21.9097 26.5623 22.1655 27.8528 21.6606 28.2723C21.1558 28.6919 20.4018 28.6919 20.4018 28.6919" stroke="#4F4131" stroke-linecap="round" stroke-linejoin="round"/>
<path d="M23.3635 78.7266H23.3711" stroke="#4F4131" stroke-linecap="round" stroke-linejoin="round"/>
</svg>
