<svg width="40" height="129" viewBox="0 0 40 129" fill="none" xmlns="http://www.w3.org/2000/svg">
<path d="M28.1926 108.158C31.5052 109.508 34.2114 112.123 36.0822 115.172C37.4496 117.403 38.4051 120.235 37.2951 122.61C35.9449 125.505 32.3062 126.346 29.1481 126.843C27.5976 127.089 26.0414 127.33 24.4795 127.478C18.0832 128.085 11.5438 127.067 5.63369 124.543C4.15188 123.908 2.60142 123.079 1.92059 121.614C1.34847 120.39 1.50294 118.948 1.90915 117.655C3.44245 112.741 8.27119 109.399 13.3002 108.307C18.3349 107.22 23.5698 108.015 28.6103 109.079" fill="#D3B25B"/>
<path d="M28.6901 108.721C28.7245 108.778 28.6787 108.881 28.5526 108.835L28.5011 108.629L28.6959 108.721H28.6901Z" fill="#C6B08D"/>
<path d="M27.7413 108.879C27.6041 108.759 27.4612 108.565 27.5927 108.416C27.707 108.622 27.7642 108.559 27.8843 108.805C28.0101 108.856 28.1244 108.793 28.1187 108.719C28.153 108.776 28.3302 108.719 28.376 108.851C28.1759 108.959 27.9586 108.919 27.7585 108.753C27.7013 108.782 27.7413 108.845 27.7413 108.879Z" fill="#C6B08D"/>
<path d="M14.8397 108.32L14.9199 108.285C14.9199 108.285 14.8741 108.314 14.8397 108.32Z" fill="#C6B08D"/>
<path d="M7.4983 111.15C7.54987 111.121 7.58424 111.121 7.5957 111.139C7.54414 111.156 7.4983 111.173 7.4983 111.15Z" fill="#C6B08D"/>
<path d="M6.54316 112.106C6.54316 112.106 6.57754 112.066 6.59473 112.043C6.58327 112.077 6.56608 112.1 6.54316 112.106Z" fill="#C6B08D"/>
<path d="M14.8389 108.318L14.6383 108.41C14.6154 108.353 14.7415 108.347 14.8389 108.318Z" fill="#C6B08D"/>
<path d="M26.0581 108.09C26.104 108.107 26.1326 108.13 26.167 108.159L26.0639 108.118C26.0639 108.118 26.0639 108.101 26.0639 108.09H26.0581Z" fill="#C6B08D"/>
<path d="M18.3464 108.221H18.4094C18.4094 108.221 18.4437 108.267 18.4609 108.301L18.3406 108.221H18.3464Z" fill="#C6B08D"/>
<path d="M21.0409 108.354C20.9779 108.354 20.9722 108.194 20.955 108.119C20.9837 108.188 21.0295 108.222 21.0811 108.239C21.0811 108.268 21.0696 108.308 21.0467 108.348L21.0409 108.354Z" fill="#C6B08D"/>
<path d="M25.3386 108.629L25.4131 108.663C25.4131 108.663 25.3615 108.64 25.3386 108.629Z" fill="#C6B08D"/>
<path d="M16.4297 108.33C16.4297 108.33 16.4183 108.376 16.4126 108.387C16.4126 108.364 16.4183 108.347 16.4297 108.33Z" fill="#C6B08D"/>
<path d="M31.3965 109.051C31.3965 109.051 31.3851 109.068 31.3795 109.074C31.3795 109.051 31.3795 109.04 31.3965 109.051Z" fill="#C6B08D"/>
<path d="M28.1756 108.199L28.21 108.222C28.2042 108.251 28.1928 108.279 28.187 108.308L28.1756 108.193V108.199Z" fill="#C6B08D"/>
<path d="M4.94799 113.903C4.94799 113.903 4.94799 113.898 4.94799 113.892C5.00424 113.858 4.97612 113.881 4.94799 113.903Z" fill="#C6B08D"/>
<path d="M14.6616 126.484C14.3809 126.582 15.0455 126.736 14.6387 126.828C14.6845 126.771 14.3293 126.519 14.6616 126.484Z" fill="#C6B08D"/>
<path d="M25.9844 108.095C25.95 108.089 25.9099 108.078 25.8755 108.072C25.9271 108.072 25.9615 108.084 25.9844 108.095Z" fill="#C6B08D"/>
<path d="M14.6387 126.826L14.5993 126.837C14.6162 126.837 14.6274 126.832 14.6387 126.826Z" fill="#C6B08D"/>
<path d="M2.37305 118.629C2.37305 118.629 2.33294 118.589 2.31575 118.561C2.33294 118.561 2.35013 118.583 2.37305 118.629Z" fill="#C6B08D"/>
<path d="M3.8252 114.818L3.78509 114.916C3.79655 114.876 3.80801 114.841 3.8252 114.818Z" fill="#C6B08D"/>
<path d="M2.08693 120.631C2.10985 120.677 2.13277 120.694 2.12704 120.763C2.11558 120.763 2.10985 120.751 2.10412 120.745C2.12131 120.717 2.12131 120.682 2.08693 120.625V120.631Z" fill="#C6B08D"/>
<path d="M3.04785 122.426C3.04785 122.426 3.01348 122.426 2.99629 122.421C2.98483 122.403 2.96764 122.386 2.95618 122.363L3.04785 122.426Z" fill="#C6B08D"/>
<path d="M36.4082 114.423C36.3395 114.4 36.2822 114.4 36.2249 114.406C36.3395 114.377 36.1848 114.051 36.4082 114.423Z" fill="#C6B08D"/>
<path d="M26.0414 108.182C26.0357 108.142 26.0185 108.113 25.9841 108.102L26.0586 108.124C26.0586 108.124 26.0586 108.17 26.0414 108.182Z" fill="#C6B08D"/>
<path d="M0.868358 120.986C0.902734 121.13 0.954296 121.273 1.00586 121.41C0.960025 121.296 0.897004 121.141 0.868358 120.986Z" fill="#C6B08D"/>
<path d="M30.338 127.312H30.4297C30.3953 127.324 30.3667 127.324 30.338 127.312Z" fill="#C6B08D"/>
<path d="M1.5649 122.615C1.65657 122.65 1.73105 122.695 1.7998 122.753C1.7998 122.776 1.7998 122.799 1.7998 122.821L1.5649 122.621V122.615Z" fill="#C6B08D"/>
<path d="M35.0123 112.147C35.2583 112.427 34.9665 112.41 34.9207 112.547C35.1496 112.925 35.1668 112.604 35.3441 112.656C35.47 112.907 35.4471 113.188 35.573 113.348C35.6073 113.342 35.6416 113.365 35.6531 113.302C35.6931 113.628 36.1451 114.006 36.1508 114.401C36.1794 114.412 36.2023 114.412 36.2195 114.406C36.0993 114.418 36.0078 114.469 35.9506 114.521C36.0364 114.658 35.9963 114.841 36.1451 114.818C36.0879 114.738 36.1336 114.698 36.1451 114.641L36.1851 114.818C36.4369 114.841 36.1222 114.59 36.2424 114.509C36.3682 114.824 36.4312 115.236 36.6028 115.431C36.7973 115.379 36.3568 114.881 36.6772 115.087C36.5856 114.984 36.4998 114.881 36.4083 114.79C36.8316 114.881 36.2595 114.595 36.6886 114.658C37.0147 115.082 36.9117 115.219 37.215 115.654C37.1749 115.808 37.0548 115.694 37.0147 115.848C37.1692 116.592 37.7184 116.169 37.707 116.786C37.6383 116.975 37.4381 117.107 37.6956 117.427L37.8557 117.227C38.0503 117.713 37.6612 117.605 37.9587 118.079C38.0159 117.965 37.913 117.668 37.9587 117.736C38.2276 118.028 37.913 118.011 37.9873 118.268H38.1876C38.302 118.823 38.2677 119.464 38.2562 120.082C38.3134 120.048 38.3707 119.933 38.4336 120.082C38.3764 120.877 38.3707 121.804 38.1647 122.611L37.8958 122.828C37.8729 122.897 37.9072 122.977 37.9759 122.925C37.8901 123.229 37.8729 122.897 37.747 122.994C37.6555 123.143 37.7242 123.24 37.8214 123.166C37.6383 123.383 37.358 123.663 37.1063 123.949C36.969 124.081 36.8374 124.218 36.7229 124.361C36.6085 124.493 36.4998 124.619 36.4254 124.75L36.5399 124.71C36.2652 125.071 35.9448 124.762 35.7389 125.128L35.819 125.105C35.1095 125.729 34.1312 125.992 33.5762 126.467C33.376 126.284 32.7638 126.856 32.6094 126.541C32.1688 126.844 32.3233 126.862 31.6539 127.148C31.4708 127.205 31.3278 127.005 31.0932 127.022L31.1218 127.193L30.7728 127.073L30.647 127.314H30.4238C30.5096 127.285 30.5897 127.199 30.5669 127.153C30.2179 127.142 29.7716 127.422 29.7773 127.514C29.5027 127.508 29.2338 127.502 28.9592 127.491C28.9878 127.56 29.1251 127.565 29.2338 127.594C28.7818 127.474 29.1823 127.788 28.7704 127.68C28.8162 127.634 28.7246 127.582 28.7132 127.548C28.5358 127.68 28.0953 127.743 27.7634 127.743L27.8435 127.857C27.26 127.966 26.5963 127.966 25.9384 128.063C26.1672 127.977 26.0871 127.771 25.8926 127.777L25.8354 127.972C25.6981 127.874 26.0299 127.874 25.7553 127.771C25.515 127.829 25.6122 128.006 25.761 128.046L25.4521 128.023C25.4406 128.08 25.515 128.103 25.5379 128.166C25.4006 128.069 25.0401 128.424 24.8399 128.246L24.8284 128.303C24.1648 128.389 23.8501 128.326 23.3066 128.366C23.2837 128.206 23.072 128.252 22.9061 128.132C22.5113 128.2 22.0708 128.355 21.5845 128.343C21.2412 128.269 21.4815 128.206 21.327 128.115C21.3041 128.263 20.8236 128.258 21.0696 128.355C20.4917 128.338 20.3258 128.321 19.5992 128.189C19.6793 128.132 19.7708 128.109 19.7251 128.057C19.5935 128.034 19.4218 128.109 19.439 128.178L19.4733 128.195C18.6666 127.949 17.5453 128.515 16.9159 128.143L16.9503 128.16L16.2923 127.926C15.9776 127.914 16.464 128.057 16.2237 128.12C15.5257 127.788 15.068 128.006 14.4958 127.748C13.958 128.103 12.8653 127.428 12.1959 127.554L12.2531 127.462C12.1158 127.325 12.0471 127.474 11.927 127.468C11.9613 127.394 12.1215 127.422 12.0357 127.342C10.7198 126.919 9.23228 126.782 7.84773 126.392C7.34426 126.249 7.74475 125.797 7.04676 125.803L7.15546 126.043C6.69776 125.757 6.20001 125.563 5.70798 125.363C5.21595 125.174 4.71248 124.956 4.28339 124.63C4.31771 124.699 4.29483 124.75 4.38637 124.796C4.12319 124.825 3.63689 124.401 3.69982 124.304C3.55107 124.23 3.614 124.373 3.49385 124.367C3.24784 124.31 3.09909 123.904 2.92173 123.932C2.89312 123.932 2.95034 124.007 2.97894 124.041C2.8874 123.904 2.39537 123.601 2.61278 123.572C2.23518 123.349 2.07498 122.96 1.78892 122.742C1.78892 122.468 1.29689 122.147 1.49141 121.958C1.38271 122.033 1.2454 121.884 1.15385 121.661C1.06232 121.438 1.02799 121.163 1.05659 121.014C0.999382 121.123 0.925003 120.797 0.844906 120.923C0.781975 120.603 0.804863 120.305 0.942173 120.351C0.75909 120.082 0.816303 119.779 0.879238 119.533C0.942173 119.281 1.0051 119.081 0.827744 118.898C1.07376 118.017 1.43992 117.307 1.76031 116.621C1.50858 116.552 1.45136 117.404 1.20535 117.29C1.38271 116.958 1.54863 116.712 1.71454 116.472C1.8919 116.237 2.04066 115.997 2.16652 115.659C2.22374 115.482 2.01777 115.699 1.95483 115.745C2.15508 115.436 2.33816 115.139 2.50407 114.836C2.67571 114.544 2.87596 114.275 3.11053 114.046C3.08765 114.035 3.03043 114.075 2.97894 114.12C3.05904 114.017 3.11625 113.851 3.20207 113.937C3.16774 113.96 3.13913 113.994 3.10481 114.017C3.12197 114.275 3.68838 113.829 3.7742 113.874C3.37943 113.834 4.09459 113.337 3.55679 113.331C3.62544 113.279 3.73415 113.234 3.77991 113.297C3.83713 113.188 3.83141 113.125 3.68266 113.165C4.03165 112.867 4.02021 113.073 4.28911 112.77C4.24906 112.73 4.17469 112.776 4.09459 112.764C4.31772 112.69 4.52368 112.604 4.74681 112.341C4.70676 112.33 4.70676 112.272 4.63239 112.341C4.84979 112.141 5.08437 112.021 5.3075 111.889C5.54206 111.769 5.77092 111.632 5.9826 111.386C5.6851 111.317 6.09703 111.18 5.99977 110.997L6.32016 110.842L6.26867 111.008C6.51468 110.831 6.81219 110.785 6.98954 110.59C6.90945 110.608 6.82935 110.619 6.75497 110.642C6.91517 110.545 7.08681 110.459 7.25272 110.367L7.02959 110.608C7.34426 110.533 7.14974 110.848 7.45297 110.585C7.37287 110.608 7.69898 110.419 7.76764 110.23C7.93355 110.213 8.09947 110.201 8.26538 110.047C8.28255 109.961 8.11091 109.864 8.12235 109.807C8.33404 109.887 8.76313 109.509 9.02059 109.601C8.94621 109.589 8.89472 109.492 8.90045 109.458L9.0778 109.532C9.18079 109.429 9.19223 109.4 9.1293 109.332C9.49546 109.12 9.1293 109.635 9.52406 109.309C9.48401 109.309 9.48973 109.286 9.40964 109.303C9.84445 109.051 10.3193 108.994 10.7255 108.777C10.777 108.531 10.3308 108.863 10.4109 108.645C11.0516 108.439 11.7897 108.433 12.3904 108.216L12.2817 108.268C12.4419 108.536 12.7051 108.01 13.0541 108.073C12.974 108.073 12.9168 107.936 12.9454 107.959C13.363 107.804 13.8379 107.838 14.5016 107.833L14.41 107.77C14.656 107.667 15.0737 107.621 15.3483 107.564C15.4398 107.632 15.5943 107.604 15.5142 107.724C16.3266 107.18 17.1505 107.827 17.8828 107.438C17.7913 107.438 17.6654 107.375 17.7398 107.375C17.9572 107.392 18.1746 107.409 18.3863 107.438C18.3348 107.57 18.3005 107.518 18.1689 107.621C18.249 107.701 18.4321 107.758 18.5923 107.764C18.3062 107.678 18.5923 107.552 18.7239 107.478C18.701 107.518 18.7467 107.564 18.7353 107.604C19.0728 107.375 18.7868 107.861 19.2445 107.718L19.2216 107.65C19.3932 107.69 19.5477 107.787 19.7308 107.775C19.8109 107.627 19.5534 107.695 19.542 107.57C19.8052 107.587 20.0397 107.873 20.28 107.741C20.1713 107.695 20.0169 107.678 19.9082 107.632C20.1713 107.467 20.1999 107.512 20.3945 107.495H20.3773L20.8236 107.444L20.7091 107.484C21.0066 107.896 21.3671 107.61 21.7733 107.907C21.3728 107.621 21.7161 107.758 21.6989 107.581C21.8133 107.541 21.9907 107.507 21.9449 107.449C22.1394 107.61 22.2996 107.381 22.5685 107.615C22.5857 107.564 22.7917 107.632 22.7573 107.489C23.0205 107.564 22.683 107.581 22.6944 107.65C23.0835 107.89 23.6956 107.541 24.2506 107.89C24.7426 108.073 24.8055 108.273 25.2575 108.445C25.4292 108.382 25.1603 108.222 25.1603 108.222C25.4292 108.182 25.618 108.233 25.8468 108.336C25.8068 108.279 25.864 108.25 25.9498 108.199C26.1386 108.25 26.0413 108.422 26.3102 108.388C26.2759 108.319 26.2416 108.21 26.1558 108.13C26.3732 108.222 26.5791 108.365 26.8023 108.462C26.8824 108.376 26.6878 108.29 26.6192 108.21C26.8766 108.302 27.2886 108.428 27.3401 108.594L27.1627 108.617C27.2542 108.645 27.2371 108.496 27.1742 108.456C26.9739 108.296 26.8366 108.445 26.8137 108.496L26.9739 108.565C26.7393 108.851 26.316 108.388 25.9727 108.342L26.0699 108.599L25.761 108.342C25.6752 108.388 25.6008 108.514 25.761 108.576C25.4978 108.651 25.5608 108.456 25.3319 108.548C25.3033 108.565 25.3147 108.576 25.3319 108.588L25.1088 108.479C25.1488 108.536 25.0401 108.639 25.1946 108.628C24.7541 108.691 24.5424 108.342 24.3536 108.496L24.3879 108.514C23.8158 108.342 24.3593 108.33 23.9474 108.062L23.5869 108.445L23.5526 108.262C23.4897 108.262 23.3695 108.262 23.381 108.33C23.1693 108.182 23.4324 108.262 23.3123 108.13C22.9976 108.245 22.5113 107.953 22.4141 108.227C22.3225 108.084 22.7058 108.159 22.4026 108.033C22.2825 108.319 22.0479 107.936 21.7618 108.05C21.8305 108.21 22.088 108.153 21.8076 108.268C21.6703 107.993 21.2813 108.279 21.0638 108.21C21.0696 107.999 20.5775 108.09 20.2057 107.999C20.2228 108.062 19.4848 108.079 19.1358 108.147L19.1472 108.182C19.0843 107.964 18.7181 108.004 18.455 107.964C18.4664 108.09 18.5122 108.142 18.6552 108.199H18.4092C18.352 108.13 18.2719 108.096 18.1117 108.067L18.1746 108.222C17.8485 108.222 17.5052 108.056 17.0876 108.17C17.0532 108.027 17.408 107.747 16.9503 107.673C16.9388 107.753 16.9274 107.89 17.0475 107.913C17.0075 107.907 16.9045 107.856 16.8301 107.896L17.0189 108.016C16.8301 108.084 16.9102 107.913 16.7557 107.936C16.7672 108.05 16.647 108.022 16.6756 108.113C16.7157 108.119 16.8072 108.056 16.8702 108.096C16.6985 108.13 16.4926 108.21 16.4296 108.296C16.4411 108.233 16.4182 108.142 16.2866 108.136C15.9548 108.153 16.1836 108.279 16.0005 108.359C15.9147 108.29 15.7145 108.393 15.6916 108.227C15.5943 108.239 15.5886 108.319 15.5543 108.371C15.3769 108.308 14.7647 108.451 14.9307 108.245L14.9707 108.227C14.9707 108.227 14.9535 108.227 14.9421 108.227C14.3585 108.136 13.8036 108.508 13.2543 108.554L13.2658 108.611C12.9282 108.628 12.5392 108.742 12.2817 108.697C12.1845 108.725 12.0872 108.863 12.1501 108.914C11.8984 108.948 11.8469 108.897 11.5265 109.091C11.8011 109.114 11.4693 109.2 11.7954 109.086C11.4979 109.223 11.4636 109.343 11.0802 109.315C11.2404 109.412 10.9143 109.566 10.7541 109.583L10.9315 109.406C10.7599 109.446 10.6225 109.509 10.4852 109.583L10.634 109.726C10.3765 109.967 10.0619 109.984 9.7758 110.03C9.49546 110.081 9.22656 110.144 9.09497 110.43C8.87756 110.39 9.37531 110.19 9.16362 110.115C8.89472 110.27 8.75169 110.676 8.6716 110.716C8.36837 111.014 8.18529 110.659 7.85918 110.962C7.87062 110.876 7.81913 110.693 7.50446 110.819C7.25272 111.008 7.34426 111.26 7.53306 111.203C7.596 111.168 7.61316 111.128 7.60172 111.111C7.69898 111.077 7.82485 111.031 7.76192 111.162L7.69326 111.128C7.60172 111.265 7.25272 111.489 7.39575 111.529C7.17262 111.609 7.25272 111.494 7.37287 111.368C7.11541 111.677 6.88084 111.729 6.6005 112.021C6.62338 111.952 6.62338 111.855 6.57189 111.889C6.17141 112.335 6.29155 111.958 5.95972 112.192C5.85101 112.421 6.18285 112.324 5.82241 112.524C5.69082 112.747 5.90823 112.69 6.01121 112.667C5.66221 112.822 5.58212 113.194 5.45625 113.348L5.63361 113.256C5.53062 113.314 5.46197 113.371 5.39904 113.445L5.37615 113.274C5.31321 113.371 5.256 113.44 5.29605 113.48C5.15302 113.502 5.19307 113.256 4.94706 113.342C4.89556 113.502 4.58089 113.634 4.68388 113.789C4.9585 113.399 4.78686 113.943 5.07292 113.674C5.00427 113.714 4.94133 113.783 4.88412 113.88C4.88412 113.903 4.92417 113.892 4.95278 113.88C4.78114 114.315 4.66671 113.903 4.37493 114.263C4.48935 114.281 4.46075 114.464 4.39782 114.509C4.51224 114.366 4.31771 114.338 4.1518 114.424C4.02593 114.704 3.91723 114.652 3.83141 114.79L3.90007 114.618C3.78564 114.612 3.71126 114.744 3.56251 114.904C3.61972 114.961 3.71698 114.773 3.69982 114.858C3.41948 114.956 3.55679 115.39 3.30505 115.614C3.29361 115.78 3.46525 115.722 3.44236 115.854C3.15058 116.1 3.37371 116.249 3.12769 116.54C3.0476 116.386 3.08765 116.38 2.85307 116.569C2.97322 116.397 3.0762 116.214 3.20779 116.048C3.0762 116.129 2.97322 116.226 2.85307 116.317C2.92745 116.14 3.09909 115.991 3.13914 115.888C2.94461 116.003 2.98466 116.003 2.93317 115.871C2.98466 116.191 2.60134 116.289 2.59562 116.626L2.91029 116.752C2.88168 116.981 2.7787 117.147 2.65855 117.33C2.54413 117.513 2.38965 117.713 2.35532 117.999V117.805C2.20085 117.839 2.22945 118.142 2.13792 118.308C2.25234 118.32 2.26378 118.44 2.31527 118.531C2.22945 118.509 2.24662 118.932 2.01777 118.949L2.13219 119.218C2.1608 119.659 1.76603 119.716 1.83469 120.168C1.94912 120.03 2.04065 120.214 2.11503 119.927C2.11503 120.07 2.14936 120.191 2.07498 120.202C2.14936 120.271 1.972 120.614 2.10931 120.723C2.06926 120.791 1.96628 120.837 2.01777 120.997C2.04638 121.009 2.06926 120.98 2.06926 120.98C2.01205 120.997 2.0807 121.249 1.91479 121.152C2.14936 121.318 2.2695 121.592 2.42398 121.856C2.57273 122.119 2.76153 122.37 3.00755 122.399C3.19635 122.651 3.47097 122.931 3.71126 123.108C3.71126 123.068 3.73987 123.063 3.68838 123.04C4.08315 123.183 3.71126 123.457 4.18613 123.606C4.48935 123.572 4.02021 123.395 4.18613 123.412C4.42642 123.126 4.64955 123.738 5.04432 123.686L4.9871 123.635C5.256 123.629 5.46197 124.018 5.84529 124.155C5.84529 124.155 5.84529 124.115 5.86246 124.104C6.04554 124.384 6.50896 124.642 6.85796 124.836C6.79502 124.659 6.72065 124.699 6.84079 124.59C6.99527 124.676 6.70348 124.796 7.01815 124.956C7.15546 124.922 7.41864 124.945 7.50446 124.808L7.19551 124.682C7.42436 124.55 7.59028 124.836 7.76764 124.865L7.77908 124.773C8.2425 124.979 8.17957 125.18 8.7002 125.345L8.62583 125.391C8.83751 125.7 8.90045 125.351 9.13502 125.603L9.28949 125.414C9.46113 125.523 9.8845 125.82 10.2106 125.963C10.0619 125.746 9.6957 125.54 9.48401 125.374C9.67282 125.431 10.1076 125.58 10.1763 125.717C10.1076 125.672 10.0275 125.591 9.94744 125.603C10.1248 125.843 10.4051 126.015 10.7827 126.112C10.8285 125.677 11.7897 126.267 12.1444 125.992C12.7737 126.312 13.4832 126.215 14.2555 126.381C13.918 126.667 14.4844 126.433 14.3757 126.764C14.5531 126.816 14.6274 126.822 14.6446 126.804C14.8391 126.77 15.0394 126.73 15.2339 126.684C15.3826 126.604 15.068 126.581 15.1023 126.507C15.5085 126.536 15.2911 126.381 15.5714 126.33C15.4971 126.444 15.6859 126.524 15.9204 126.513L15.5772 126.627C16.115 126.89 16.0978 126.41 16.6413 126.65L16.4754 126.518C16.7557 126.616 17.5395 126.633 17.8084 126.93C17.8657 126.896 17.94 126.804 17.8084 126.77C18.5007 126.793 19.3475 127.165 19.8967 127.01L19.8452 126.925C19.9768 126.953 20.0683 127.09 20.2343 127.005C20.2285 126.97 20.1828 126.919 20.2457 126.913C20.3144 126.942 20.589 127.068 20.7663 127.022L20.6176 126.925C21.2984 126.816 21.6646 127.153 22.2424 127.193C22.231 126.942 22.7631 126.833 23.0262 126.782L23.0148 126.747C23.7986 126.661 24.3707 126.873 25.1202 126.856C25.5493 126.524 26.6535 126.53 27.3687 126.278C27.26 126.341 27.4144 126.473 27.546 126.478C27.712 126.404 28.0495 126.587 27.9866 126.364L27.9236 126.375C28.0209 126.135 28.3813 126.146 28.656 126.101L28.7475 126.392C29.3997 125.866 30.6584 126.238 30.9616 125.763C31.1447 125.797 31.3564 125.752 31.5395 125.786L31.4937 125.632C31.94 125.471 32.1631 125.397 32.7238 125.254L32.575 125.18C32.8725 125.059 33.1185 125.494 33.4046 125.386V125.128C33.9367 124.922 34.3314 124.493 34.8864 124.379C34.8578 124.356 34.8063 124.304 34.7319 124.344C34.9608 124.213 35.407 123.652 35.5501 123.955C35.4128 123.784 35.9448 123.578 36.1966 123.4L36.0478 123.332C36.3682 123.28 36.4083 123.303 36.66 123.04C36.6886 122.96 36.5971 122.908 36.5685 123.023C36.66 122.754 36.8088 122.92 36.906 122.582L36.7573 122.645C36.8774 122.393 36.9232 122.439 37.0891 122.342C37.2264 122.199 37.2493 121.81 37.112 121.73C37.2092 121.718 37.3694 121.598 37.358 121.415C37.3065 121.381 37.2665 121.432 37.2436 121.461C37.2436 121.22 37.3179 121.055 37.3694 120.9C37.4324 120.746 37.4724 120.603 37.398 120.431C37.3466 120.425 37.3179 120.402 37.3065 120.374C37.3065 120.751 37.2665 121.049 37.2836 121.026C37.1406 121.003 37.1463 120.711 36.9175 120.917C37.0605 120.717 37.3237 120.305 37.2264 120.002C37.2092 119.99 37.1978 119.973 37.1749 119.967L37.1578 119.996C37.1406 119.927 37.1578 119.87 37.1749 119.807C37.1406 119.716 37.1177 119.659 37.1005 119.567C36.9804 119.544 36.9918 119.235 36.9518 119.086C37.112 119.069 37.049 118.875 37.215 119.035C37.1978 119.012 37.2035 119.069 37.215 119.172C37.215 119.195 37.215 119.224 37.215 119.241L37.2264 119.229C37.2436 119.332 37.255 119.464 37.2665 119.613C37.3351 119.481 37.3923 119.344 37.2665 119.184C37.3523 119.086 37.4438 118.978 37.4839 118.915C37.2207 118.737 37.0033 118.371 36.8488 118.36C36.8145 117.879 36.5456 117.284 36.6943 116.884C36.6714 116.741 36.5513 116.775 36.4826 116.746C36.4826 116.832 36.5341 116.918 36.5113 116.975C36.4712 116.689 36.1851 116.226 36.3396 116.066C36.0879 115.802 36.2652 116.329 36.0593 115.888L36.0364 115.974C35.2926 115.339 35.6874 114.343 34.6976 113.731C34.7605 113.777 34.7949 113.8 34.8292 113.789C33.9596 112.942 33.3588 111.723 32.2432 111.151C31.9457 110.974 32.0143 110.848 31.9114 110.636L31.7454 110.722L31.591 110.344C31.2706 109.915 30.647 110.167 30.2694 109.595L30.4009 109.538C30.195 109.435 29.8174 109.097 29.7773 109.234C29.7659 109.206 29.7716 109.091 29.6629 109.103L29.6114 109.177C29.4741 109.046 29.3368 108.903 29.188 108.777C28.7647 108.645 29.0851 109.126 28.5186 108.868C28.3241 108.748 28.0152 108.359 28.1182 108.342C28.2097 108.376 28.3642 108.388 28.4042 108.308L28.2211 108.176C28.2898 107.913 28.2211 107.587 28.8162 107.644C28.9134 107.747 29.0164 107.844 29.1079 107.953L29.2796 107.89C29.1823 107.838 29.0851 107.787 28.9821 107.741C29.2052 107.707 29.2681 107.861 29.354 107.987C29.4112 107.941 29.4855 107.919 29.5656 107.936C29.6457 108.067 29.7201 108.199 29.7888 108.342C29.8803 108.273 29.7373 108.073 29.989 108.153C30.092 108.342 29.7258 108.273 29.949 108.485C30.1721 108.468 30.1721 108.359 30.3151 108.554C30.3781 108.514 30.3609 108.445 30.298 108.376C30.4295 108.548 30.7271 108.679 30.7385 108.851C30.9902 108.822 31.2649 109.252 31.3907 109.028C31.4079 109.109 31.5624 109.389 31.6939 109.503C31.6139 109.063 32.2432 109.892 32.3691 109.589C32.3919 109.95 32.9755 110.241 33.1929 110.648C33.1929 110.613 33.1872 110.55 33.1471 110.533C33.336 110.682 33.4447 110.67 33.5934 110.745C33.4618 110.928 33.6964 111.225 33.7307 111.466C34.0912 111.523 33.7937 111.157 34.0053 111.077C33.868 111.191 34.2342 111.574 34.0568 111.603C34.3086 111.677 34.2342 111.7 34.4516 111.666C34.2685 111.883 34.5603 111.855 34.5546 112.106C34.8692 112.267 34.8063 111.998 34.978 112.33C35.1553 112.404 35.0237 112.095 35.0237 112.095L35.0123 112.147ZM38.199 120.082C38.199 120.008 38.199 119.939 38.199 119.899C38.199 119.939 38.199 119.99 38.199 120.082ZM38.1876 120.826C38.1876 120.734 38.1876 120.62 38.1933 120.505C38.1361 120.477 38.0789 120.505 38.0789 120.58C38.1189 120.54 38.1475 120.717 38.1876 120.831V120.826ZM37.0262 119.424C37.0147 119.527 37.049 119.556 37.0834 119.567C37.0834 119.521 37.0834 119.464 37.0834 119.39L37.1005 119.372C37.0719 119.384 37.0433 119.401 37.0262 119.424Z" fill="#C6B08D"/>
<path d="M37.1973 119.212C37.1973 119.212 37.2031 119.189 37.1973 119.166C37.2145 119.183 37.2317 119.2 37.2432 119.223L37.1973 119.269C37.1973 119.269 37.1973 119.229 37.1916 119.212H37.1973Z" fill="#C6B08D"/>
<path d="M14.9312 108.279H14.9199C14.9199 108.279 14.9426 108.267 14.9482 108.256C14.9426 108.267 14.9426 108.267 14.9369 108.279H14.9312Z" fill="#C6B08D"/>
<path d="M31.1331 127.239L31.1217 127.199L31.1904 127.216L31.1331 127.239Z" fill="#C6B08D"/>
<path d="M18.7184 107.489C18.7184 107.489 18.7411 107.461 18.7695 107.449C18.7695 107.461 18.7468 107.472 18.7184 107.489Z" fill="#C6B08D"/>
<path d="M20.3883 107.513L20.6289 107.473C20.5258 107.501 20.4513 107.507 20.3883 107.513Z" fill="#C6B08D"/>
<path d="M21.6762 107.529C21.6876 107.558 21.6934 107.581 21.6934 107.598L21.6762 107.529Z" fill="#C6B08D"/>
<path d="M2.99121 114.133C2.99121 114.133 2.96829 114.161 2.95683 114.173C2.86517 114.253 2.92246 114.196 2.99121 114.133Z" fill="#C6B08D"/>
<path d="M7.77832 110.248C7.70957 110.253 7.64082 110.265 7.57207 110.288C7.65801 110.219 7.72676 110.168 7.77832 110.248Z" fill="#C6B08D"/>
<path d="M0.851106 120.934H0.856794L0.868164 120.985L0.851106 120.934Z" fill="#C6B08D"/>
<path d="M7.33847 110.442C7.41295 110.356 7.49316 110.31 7.5791 110.287C7.51035 110.344 7.43014 110.413 7.33847 110.442Z" fill="#C6B08D"/>
<path d="M27.1801 108.289H27.2432C27.2432 108.289 27.2432 108.312 27.2432 108.323L27.1801 108.289Z" fill="#C6B08D"/>
<path d="M27.2426 108.318L27.3057 108.353C27.277 108.347 27.2484 108.341 27.2426 108.318Z" fill="#C6B08D"/>
<path d="M27.4434 108.416L27.3116 108.348C27.3631 108.359 27.4204 108.365 27.4434 108.416Z" fill="#C6B08D"/>
<path d="M25.5039 108.055L25.4924 107.992C25.4924 107.992 25.5039 108.027 25.5039 108.055Z" fill="#C6B08D"/>
<path d="M24.9945 107.953C25.1203 107.959 25.3204 107.884 25.4805 107.947V107.993C25.4233 107.896 25.0917 108.067 24.9945 107.953Z" fill="#C6B08D"/>
<path d="M22.7793 108.359L23.209 108.371C23.1288 108.422 23.0199 108.491 23.209 108.531C22.6532 108.646 23.335 108.405 22.7793 108.359Z" fill="#C6B08D"/>
<path d="M21.4589 108.312C21.6823 108.364 21.4474 108.404 21.4589 108.439C21.3214 108.37 21.287 108.353 21.4589 108.312Z" fill="#C6B08D"/>
<path d="M12.0756 109.023L12.1387 109.155C11.9668 109.184 12.1215 109.104 12.0756 109.023Z" fill="#C6B08D"/>
<path d="M10.0908 108.924L10.2169 108.77L10.3486 108.861L10.0908 108.924Z" fill="#C6B08D"/>
<path d="M9.53587 110.316L9.61035 110.305L9.33535 110.379L9.53587 110.316Z" fill="#C6B08D"/>
<path d="M2.91016 122.061L2.73828 122.136C2.69817 122.027 2.84713 121.895 2.91016 122.061Z" fill="#C6B08D"/>
<path d="M8.67096 125.248C8.76836 125.185 8.97461 125.191 9.06055 125.317C8.91159 125.277 8.73971 125.294 8.67096 125.248Z" fill="#C6B08D"/>
<path d="M29.0506 126.146L28.9016 126.105L29.1709 126.117L29.0506 126.146Z" fill="#C6B08D"/>
<path d="M28.7704 21.5054C28.9592 21.6199 29.1594 21.6942 29.3711 21.6942C29.3711 21.6942 29.9204 21.5627 30.5497 21.3739C30.8758 21.2365 31.1962 21.1278 31.4765 21.0706C31.4765 21.0649 31.488 21.0649 31.4937 21.0649C31.8255 20.939 32.1059 20.8075 32.2375 20.6873C32.6036 20.3612 32.1345 19.1311 31.6425 18.3073C31.4823 18.0498 31.3221 17.8267 31.1848 17.6894C30.6126 17.1172 27.1799 18.8336 27.3687 19.4057C27.4602 19.6746 27.6776 20.2067 27.998 20.6873C28.2097 21.0134 28.4672 21.3166 28.7647 21.5054H28.7704Z" fill="#F5CF24"/>
<path d="M30.5493 21.3755C29.4966 21.8046 28.4096 22.514 28.5183 22.8401C28.5755 23.006 28.6785 23.2749 28.8272 23.5724C29.182 24.2761 29.7827 25.1286 30.515 25.1286C30.515 25.1286 30.7725 25.0657 31.1444 24.9627C31.1501 24.9627 31.1558 24.9627 31.1558 24.957C31.7279 24.6881 32.3458 24.4764 32.7692 24.4478C33.0438 24.3391 33.2669 24.2246 33.3814 24.1217C33.862 23.6926 32.9008 21.6958 32.3287 21.1237C32.1913 20.9864 31.8824 20.9807 31.4934 21.0665C31.4876 21.0665 31.4819 21.0665 31.4762 21.0722C31.1901 21.1809 30.8583 21.2839 30.5493 21.3697V21.3755Z" fill="#F5CF24"/>
<path d="M31.1451 24.9626C30.3155 25.3631 29.5775 25.8837 29.6633 26.1469C29.8406 26.6789 30.5558 28.2752 31.5284 28.2752C31.5284 28.2752 32.1062 28.1379 32.7299 27.9548C32.8042 27.9319 32.8729 27.909 32.9473 27.8861C33.4908 27.7145 34.0229 27.5142 34.2174 27.3369C34.6637 26.9364 33.7654 25.0827 33.2333 24.5506C33.1475 24.4648 32.9873 24.4305 32.7756 24.4477C32.2893 24.6422 31.6371 24.8367 31.1622 24.9568C31.1622 24.9626 31.1622 24.9626 31.1508 24.9626H31.1451Z" fill="#F5CF24"/>
<path d="M36.3394 43.9913H37.6953L35.7672 35.7812C35.2809 36.1302 34.7317 36.4106 34.3541 36.2847C34.3541 36.2847 34.6974 39.0023 33.7991 39.7919C32.9066 40.5757 31.5106 40.5585 31.5106 40.5585L31.0129 41.3194C30.6181 41.1478 20.4285 47.4412 18.6607 46.8691C16.8871 46.2969 15.7428 46.2969 15.7428 46.2969L15.5483 43.6709L15.0563 37.0685L14.4212 36.9541L13.8605 40.0264C12.6877 43.2017 10.0845 50.6737 9.9758 52.7162L11.9153 53.7403C11.9153 53.7403 16.315 56.0231 16.3207 56.6696C16.3264 57.3161 18.0313 57.1673 18.6035 56.0231C18.7408 55.7484 19.2786 55.3365 20.0281 54.8788L21.2753 54.9246L26.1212 55.0962C26.7906 55.8228 27.8033 56.7783 28.9246 57.1273L28.8846 57.2646C28.9017 57.7394 27.809 60.4628 27.809 60.4628C27.9234 60.8404 28.0378 61.3324 28.1523 61.916H28.158L31.7338 58.1056L31.7452 58.0942L36.5282 51.6806L36.3394 44.0084V43.9913Z" fill="#91A676"/>
<path d="M28.163 38.1211L28.9582 38.2069C29.1871 36.7881 29.9194 32.211 31.0122 31.8563C31.7731 31.6046 33.2435 31.5016 34.3477 31.4558L34.3362 31.267L32.8258 28.2748L32.7285 27.9544C32.1049 28.1375 31.5271 28.2748 31.5271 28.2748C30.5545 28.2748 29.8393 26.6786 29.6619 26.1465C29.5761 25.8833 30.3142 25.3627 31.1438 24.9622C30.7719 25.0652 30.5144 25.1281 30.5144 25.1281C29.7821 25.1281 29.1814 24.2757 28.8266 23.5719C28.8266 23.5719 28.901 27.4166 28.8839 27.4224C28.8552 27.4224 26.1319 25.6716 26.1319 25.6716L26.3894 22.0329L26.2349 22.01C26.3093 21.7297 26.4123 21.3521 26.4981 21.0775C26.561 20.8601 26.6182 20.6999 26.6354 20.6999C25.5426 20.7342 24.0952 20.7571 23.0367 20.3223L22.6763 21.4722L25.4683 25.7002L22.8422 27.7656L20.2619 21.6954C20.3191 21.6954 18.0421 21.4036 16.32 22.4048C14.5979 23.4117 10.5987 33.71 10.5987 33.71C10.5987 33.71 11.5656 35.209 13.0817 35.6038C13.4078 35.6896 13.9514 35.7811 14.615 35.8841L14.5979 35.9985L14.4205 36.954L15.0556 37.0684L15.5476 43.6707L16.32 43.6135C16.32 43.6135 16.8864 41.1477 18.2652 40.5584C18.494 40.4611 18.906 40.3638 19.4381 40.278C21.7838 39.8661 26.4866 39.5228 28.0485 39.4256L28.0028 38.6189C28.0714 38.5044 28.1229 38.3328 28.163 38.1211Z" fill="#91A676"/>
<path d="M11.9153 53.7402L11.1829 57.0528L12.0125 57.2245L20.2626 58.9123L21.1894 55.0962C21.1894 55.0962 21.2295 55.079 21.2695 55.079V54.9245L20.028 54.8788C19.2785 55.3365 18.7407 55.7484 18.6034 56.023C18.0313 57.1673 16.3264 57.316 16.3206 56.6695C16.3149 56.023 11.9153 53.7402 11.9153 53.7402Z" fill="#91A676"/>
<path d="M21.9619 113.065C21.7444 112.927 21.5385 112.767 21.3497 112.584C19.9308 111.194 19.4045 109.952 19.0268 108.837L18.6435 106.342C17.957 106.611 17.1102 106.834 16.3207 106.737C15.2508 106.605 13.9006 105.478 13.0424 104.654H12.8822L12.3387 107.927L11.183 112.876C11.183 112.876 24.8969 118.385 25.9267 116.137C26.1613 115.628 26.1498 115.256 25.9667 114.97C25.4232 114.123 23.4093 113.991 21.9619 113.065Z" fill="#91A676"/>
<path d="M12.0123 57.2246C10.5934 59.4559 11.7205 66.5388 12.0123 69.0047C12.3098 71.4706 14.398 80.985 14.398 80.985L12.1839 103.773C12.1839 103.773 12.5272 104.162 13.0421 104.654C13.9003 105.478 15.2505 106.605 16.3204 106.736C17.1099 106.834 17.9567 106.611 18.6432 106.342C18.9636 106.221 19.2497 106.084 19.4785 105.97L20.5999 101.45C21.1434 98.2689 22.0016 92.1186 22.3105 88.9318V82.4497C22.1675 80.4815 21.8929 76.7742 21.5782 72.9924C21.5725 72.9638 21.5668 72.9409 21.5668 72.918C21.5496 72.7864 21.5382 72.672 21.5382 72.569C21.0919 67.151 20.5713 61.7044 20.2623 61.1151L20.6972 59.0039L20.2623 58.9124L12.0123 57.2246Z" fill="#91A676"/>
<path d="M36.339 33.7104L36.2646 32.5718L35.847 32.6005L35.7669 31.4219C35.7669 31.4219 35.1547 31.4219 34.348 31.4562C33.2438 31.502 31.7735 31.605 31.0125 31.8567C29.9198 32.2114 29.1874 36.7884 28.9586 38.2073L28.1633 38.1215C28.1233 38.3332 28.0718 38.5048 28.0031 38.6192L28.0489 39.4259C26.487 39.5232 21.7841 39.8665 19.4384 40.2784C18.9063 40.3642 18.4944 40.4615 18.2656 40.5587C16.8867 41.148 16.3203 43.6139 16.3203 43.6139L15.548 43.6711L15.7425 46.2972C15.7425 46.2972 16.8867 46.2972 18.6603 46.8693C20.4282 47.4414 30.6178 41.148 31.0125 41.3197L31.5103 40.5587C31.5103 40.5587 32.9063 40.5759 33.7988 39.7921C34.697 39.0025 34.3537 36.2849 34.3537 36.2849C34.7313 36.4108 35.2806 36.1305 35.7669 35.7815C36.3619 35.3581 36.8711 34.826 36.8711 34.826L36.442 34.0422L36.5049 34.0079L36.339 33.7104Z" fill="#91A676"/>
<path d="M20.5142 17.6904C20.949 18.4285 21.6013 19.3668 22.4137 19.9789C22.5968 20.1162 22.8084 20.2307 23.0373 20.3222C24.0957 20.757 25.5432 20.7341 26.636 20.6941C27.2481 20.6712 27.7459 20.6426 28.0033 20.6884C27.683 20.2078 27.4655 19.6757 27.374 19.4068C27.1852 18.8347 30.618 17.1183 31.1901 17.6904C31.3274 17.8277 31.4876 18.0509 31.6478 18.3083L31.705 18.274L32.5861 16.5691C32.5861 16.5691 32.5918 16.5576 32.5918 16.5519C32.8035 15.934 32.9122 15.0586 32.9637 14.1146C33.1181 11.5401 32.8264 8.43343 32.8264 8.43343L32.5918 8.41054C31.8538 9.9324 29.6568 12.0893 29.6568 12.0893C29.6568 12.0893 30.618 7.39216 29.8685 5.67578L28.4782 5.77304C27.1452 7.40932 25.4116 8.94834 23.9641 9.26301C22.0361 9.68066 19.9249 10.31 19.9249 10.31V12.4898H19.4386C19.4386 12.4898 19.3757 12.4898 19.267 12.4955C18.6891 12.5299 16.7954 12.7187 16.3148 13.6855C15.777 14.7611 16.7553 15.3275 18.6662 15.688L20.5142 17.6904ZM23.7524 13.1134C23.7067 12.6557 23.9298 12.0664 24.3246 11.9692C24.7994 11.8547 25.4059 12.4784 25.4688 13.1134C25.5146 13.5711 25.2915 14.1604 24.8967 14.2577C24.4218 14.3721 23.8154 13.7485 23.7524 13.1134ZM30.618 14.2577C30.2804 14.2577 29.9085 13.6226 30.0458 13.1134C30.1088 12.8788 30.3147 12.5413 30.618 12.5413C30.9212 12.5413 31.1272 12.8788 31.1901 13.1134C31.3274 13.6226 30.9555 14.2577 30.618 14.2577Z" fill="#91A676"/>
<path d="M32.5918 8.41071L32.8264 8.4336C32.8264 8.4336 33.1182 11.5402 32.9637 14.1148H33.0095L33.8906 12.49C34.0737 11.7233 34.3368 10.6191 34.6229 9.26318C35.195 6.55131 34.6229 5.10383 32.323 3.38745C30.0287 1.67107 27.1853 1.09894 25.4746 1.0074C23.7639 0.915864 19.7476 1.67107 18.3688 3.38745C17.1788 4.85781 16.9385 8.43932 17.4763 10.9452L17.8024 12.49H19.925V10.3102C19.925 10.3102 22.0361 9.68083 23.9642 9.26318C25.4117 8.94851 27.1452 7.40949 28.4783 5.77321L29.8685 5.67595C30.618 7.39233 29.6568 12.0895 29.6568 12.0895C29.6568 12.0895 31.8538 9.93257 32.5918 8.41071Z" fill="#91A676"/>
<path d="M22.6768 21.4722L23.0372 20.3223L20.2624 21.6954L22.8427 27.7656L25.4688 25.7002L22.6768 21.4722Z" fill="#91A676"/>
<path d="M21.1892 55.0953L20.2624 58.9114L24.3245 59.4549L25.0625 56.6686C25.0625 56.6686 21.8643 55.0781 21.2693 55.0781C21.2293 55.0781 21.2064 55.0838 21.1892 55.0953Z" fill="#91A676"/>
<path d="M20.2618 58.9115L20.6967 59.0031L27.8082 60.462C27.8082 60.462 28.9009 57.7387 28.8838 57.2638L28.9238 57.1265C27.8025 56.7775 26.7898 55.8221 26.1204 55.0955L21.2745 54.9238V55.0783C21.8638 55.0783 25.062 56.6688 25.062 56.6688L24.3239 59.4551L20.2618 58.9115Z" fill="#91A676"/>
<path d="M28.6156 108.064C28.8158 108.064 28.9303 108.058 28.9303 108.058C28.9303 108.058 30.0459 82.3409 30.0459 80.0524C30.0459 78.0042 29.1305 66.8134 28.1522 61.916C28.0377 61.3325 27.9233 60.8404 27.8089 60.4628L20.6974 59.0039L20.2625 61.1151C20.5715 61.7043 21.0921 67.151 21.5384 72.569C21.5498 72.6834 21.5613 72.8036 21.567 72.918C21.567 72.9409 21.567 72.9638 21.5784 72.9924C21.8588 74.7145 23.5294 78.6049 24.4562 80.6589V80.6703L24.9654 84.8011L22.9801 103.189H22.9859L23.6724 106.736C25.0169 107.972 27.6945 108.069 28.6156 108.064Z" fill="#91A676"/>
<path d="M25.989 114.586C26.9216 114.609 37.5345 114.929 38.6273 114.38C39.7716 113.808 38.0552 112.664 36.5276 111.17C35.206 109.883 30.8864 109.797 28.9126 109.174L28.6151 108.064C27.694 108.064 25.0164 107.972 23.6719 106.736L23.3058 109.465V109.494L22.4133 112.875C22.4133 112.875 22.2359 112.955 21.9613 113.064C23.4088 113.991 25.4226 114.122 25.9662 114.969L25.989 114.586Z" fill="#91A676"/>
<path d="M24.3245 11.9687C23.9297 12.066 23.7066 12.6553 23.7523 13.113C23.8153 13.7481 24.4217 14.3717 24.8966 14.2572C25.2913 14.16 25.5145 13.5707 25.4687 13.113C25.4058 12.4779 24.7993 11.8543 24.3245 11.9687Z" fill="#4F4131"/>
<path d="M26.3897 22.0336L26.1322 25.6723C26.1322 25.6723 28.8555 27.423 28.8841 27.423C28.9013 27.4173 28.8269 23.5726 28.8269 23.5726L26.4984 21.0781C26.4126 21.3527 26.3096 21.7303 26.2352 22.0107L26.3897 22.0336Z" fill="#91A676"/>
<path d="M30.0462 13.1131C29.9089 13.6223 30.2808 14.2574 30.6183 14.2574C30.9559 14.2574 31.3278 13.6223 31.1905 13.1131C31.1275 12.8786 30.9216 12.541 30.6183 12.541C30.3151 12.541 30.1091 12.8786 30.0462 13.1131Z" fill="#4F4131"/>
<path d="M31.4814 21.0723C31.1956 21.1809 30.864 21.2838 30.5552 21.3696" stroke="#4F4131" stroke-linecap="round" stroke-linejoin="round"/>
<path d="M30.5489 21.3739C29.9195 21.5627 29.3703 21.6942 29.3703 21.6942C29.1586 21.6942 28.9583 21.6199 28.7695 21.5054C28.472 21.3166 28.2146 21.0134 28.0029 20.6873C27.6825 20.2067 27.4651 19.6746 27.3736 19.4057C27.1848 18.8336 30.6175 17.1172 31.1896 17.6894C31.327 17.8267 31.4871 18.0498 31.6473 18.3073C32.1394 19.1311 32.6085 20.3612 32.2424 20.6873C32.1108 20.8075 31.8304 20.939 31.4986 21.0649" stroke="#4F4131" stroke-linecap="round" stroke-linejoin="round"/>
<path d="M32.7686 24.4473C32.2822 24.6418 31.63 24.8363 31.1552 24.9565" stroke="#4F4131" stroke-linecap="round" stroke-linejoin="round"/>
<path d="M31.1444 24.9627C30.7725 25.0657 30.515 25.1286 30.515 25.1286C29.7827 25.1286 29.182 24.2761 28.8272 23.5724C28.6785 23.2749 28.5755 23.006 28.5183 22.8401C28.4096 22.514 29.4966 21.8046 30.5493 21.3755C30.8755 21.2381 31.1958 21.1294 31.4762 21.0722C31.4762 21.0665 31.4876 21.0665 31.4934 21.0665C31.8824 20.9807 32.1913 20.9864 32.3287 21.1237C32.9008 21.6958 33.862 23.6926 33.3814 24.1217C33.2669 24.2246 33.0438 24.3391 32.7692 24.4478" stroke="#4F4131" stroke-linecap="round" stroke-linejoin="round"/>
<path d="M32.7288 27.9548C32.1051 28.1379 31.5273 28.2752 31.5273 28.2752C30.5547 28.2752 29.8395 26.6789 29.6622 26.1469C29.5763 25.8837 30.3144 25.3631 31.144 24.9626C31.1497 24.9626 31.1554 24.9626 31.1554 24.9568C31.7275 24.6879 32.3454 24.4763 32.7688 24.4477C32.9805 24.4305 33.1407 24.4648 33.2265 24.5506C33.7586 25.0827 34.6568 26.9364 34.2106 27.3369C34.016 27.5142 33.484 27.7145 32.9404 27.8861C32.8661 27.909 32.7974 27.9319 32.723 27.9548H32.7288Z" stroke="#4F4131" stroke-linecap="round" stroke-linejoin="round"/>
<path d="M34.3359 31.2676L32.8255 28.2754" stroke="#4F4131" stroke-linecap="round" stroke-linejoin="round"/>
<path d="M28.8839 38.6192C28.8954 38.5849 28.924 38.4361 28.9583 38.2073C29.1872 36.7884 29.9195 32.2114 31.0122 31.8567C31.7732 31.605 33.2435 31.502 34.3477 31.4562C35.1544 31.4219 35.7666 31.4219 35.7666 31.4219" stroke="#4F4131" stroke-linecap="round" stroke-linejoin="round"/>
<path d="M32.374 32.8276L35.8468 32.5988L36.2645 32.5702L36.3389 32.5645" stroke="#4F4131" stroke-linecap="round" stroke-linejoin="round"/>
<path d="M32.9061 34.2831L36.3389 33.7109" stroke="#4F4131" stroke-linecap="round" stroke-linejoin="round"/>
<path d="M33.5819 35.6038L36.4425 34.0419L36.5054 34.0075L36.5283 33.9961" stroke="#4F4131" stroke-linecap="round" stroke-linejoin="round"/>
<path d="M36.8711 34.8262C36.8711 34.8262 36.3619 35.3583 35.7669 35.7816C35.2806 36.1306 34.7313 36.411 34.3537 36.2851C34.3537 36.2851 34.697 39.0027 33.7988 39.7922C32.9063 40.576 31.5103 40.5589 31.5103 40.5589" stroke="#4F4131" stroke-linecap="round" stroke-linejoin="round"/>
<path d="M31.0127 41.3193C30.6179 41.1476 20.4284 47.441 18.6605 46.8689C16.8869 46.2968 15.7426 46.2968 15.7426 46.2968L15.5481 43.6707L15.0561 37.0684" stroke="#4F4131" stroke-linecap="round" stroke-linejoin="round"/>
<path d="M19.4375 37.6348V40.278" stroke="#4F4131" stroke-linecap="round" stroke-linejoin="round"/>
<path d="M28.5127 39.3965C28.4326 39.4022 28.2724 39.4079 28.0493 39.4251C26.4874 39.5224 21.7845 39.8656 19.4388 40.2776C18.9067 40.3634 18.4948 40.4606 18.2659 40.5579C16.8871 41.1472 16.3207 43.6131 16.3207 43.6131" stroke="#4F4131" stroke-linecap="round" stroke-linejoin="round"/>
<path d="M32.8264 8.43359C32.8264 8.43359 33.1181 11.5402 32.9637 14.1148C32.9122 15.0588 32.8035 15.9342 32.5918 16.5521C32.5918 16.5578 32.5918 16.5635 32.5861 16.5692C32.5174 16.7866 32.4316 16.9697 32.3343 17.1185" stroke="#4F4131" stroke-linecap="round" stroke-linejoin="round"/>
<path d="M28.0029 20.6891C27.7455 20.6433 27.2477 20.6719 26.6355 20.6948C25.5428 20.7348 24.0953 20.7577 23.0369 20.3229C22.808 20.2314 22.5963 20.1169 22.4133 19.9796C21.6008 19.3675 20.9486 18.4292 20.5138 17.6911C20.1305 17.0446 19.9245 16.5469 19.9245 16.5469" stroke="#4F4131" stroke-linecap="round" stroke-linejoin="round"/>
<path d="M19.0485 15.7571C18.9169 15.7342 18.7853 15.7113 18.6651 15.6884C16.7542 15.328 15.7759 14.7616 16.3137 13.686C16.7943 12.7191 18.688 12.5303 19.2659 12.496C19.3746 12.4902 19.4375 12.4902 19.4375 12.4902" stroke="#4F4131" stroke-linecap="round" stroke-linejoin="round"/>
<path d="M29.6572 4.14844C29.3254 4.66907 28.9249 5.22976 28.4786 5.77328C27.1456 7.40956 25.4121 8.94858 23.9646 9.26324C22.0365 9.6809 19.9254 10.3102 19.9254 10.3102V12.7818" stroke="#4F4131" stroke-linecap="round" stroke-linejoin="round"/>
<path d="M29.8683 5.67578C30.6178 7.39216 29.6566 12.0893 29.6566 12.0893C29.6566 12.0893 31.8536 9.9324 32.5916 8.41054C32.7289 8.1302 32.8147 7.87275 32.8262 7.65534" stroke="#4F4131" stroke-linecap="round" stroke-linejoin="round"/>
<path d="M17.8024 12.0895C17.6708 11.7462 17.5621 11.3629 17.4763 10.9452C16.9385 8.43932 17.1788 4.85781 18.3688 3.38745C19.7476 1.67107 23.7639 0.915864 25.4746 1.0074C27.1853 1.09894 30.0287 1.67107 32.323 3.38745C34.6229 5.10383 35.195 6.55131 34.6229 9.26318C34.3368 10.6191 34.0737 11.7233 33.8906 12.49C33.6961 13.2623 33.5816 13.6914 33.5816 13.6914" stroke="#4F4131" stroke-linecap="round" stroke-linejoin="round"/>
<path d="M29.6572 14.8301C29.4741 15.4022 28.0038 16.5465 28.0038 16.5465" stroke="#4F4131" stroke-linecap="round" stroke-linejoin="round"/>
<path d="M24.8966 17.6895L27.3682 18.8509" stroke="#4F4131" stroke-linecap="round" stroke-linejoin="round"/>
<path d="M26.6416 20.7107V20.6992C26.6244 20.6992 26.5672 20.8594 26.5043 21.0768C26.4185 21.3514 26.3155 21.729 26.2411 22.0094C26.1839 22.2382 26.1381 22.4042 26.1381 22.4042" stroke="#4F4131" stroke-linecap="round" stroke-linejoin="round"/>
<path d="M22.4136 21.0775L22.6768 21.4722L25.4688 25.7002L22.8427 27.7656L20.2624 21.6954L23.0372 20.3223L22.6768 21.4722L22.6482 21.5581" stroke="#4F4131" stroke-linecap="round" stroke-linejoin="round"/>
<path d="M20.263 21.6958C20.3202 21.6958 18.0431 21.404 16.321 22.4053C14.5989 23.4122 10.5998 33.7105 10.5998 33.7105C10.5998 33.7105 11.5667 35.2094 13.0828 35.6042C13.4089 35.69 13.9524 35.7816 14.6161 35.8845C17.0533 36.2335 21.0468 36.6111 21.0468 36.6111L21.4072 29.7742" stroke="#4F4131" stroke-linecap="round" stroke-linejoin="round"/>
<path d="M26.3897 22.0336L26.1322 25.6723C26.1322 25.6723 28.8555 27.423 28.8841 27.423C28.9013 27.4173 28.8269 23.5726 28.8269 23.5726L26.4984 21.0781" stroke="#4F4131" stroke-linecap="round" stroke-linejoin="round"/>
<path d="M26.1328 27.7656L26.0184 39.1738" stroke="#4F4131" stroke-linecap="round" stroke-linejoin="round"/>
<path d="M27.3675 27.5195C27.3675 27.5195 28.5918 35.7067 28.1627 38.121C28.1227 38.3327 28.0712 38.5044 28.0025 38.6188" stroke="#4F4131" stroke-linecap="round" stroke-linejoin="round"/>
<path d="M26.3896 44.5801C26.3896 44.5801 26.0407 48.5907 25.4685 50.5931" stroke="#4F4131" stroke-linecap="round" stroke-linejoin="round"/>
<path d="M28.0024 45.7246C28.0024 45.7246 28.689 48.5852 27.3673 50.0156" stroke="#4F4131" stroke-linecap="round" stroke-linejoin="round"/>
<path d="M14.3975 38.625C14.3345 38.768 14.1343 39.2772 13.8597 40.0267C12.6868 43.202 10.0836 50.674 9.97493 52.7165C9.96348 52.9224 9.97493 53.0769 10.0207 53.1627" stroke="#4F4131" stroke-linecap="round" stroke-linejoin="round"/>
<path d="M32.8262 42.0742C32.8262 42.0742 32.7346 44.6316 32.5401 47.5781C32.357 50.2728 32.0939 53.2936 31.7449 54.9871C31.6705 55.3418 31.5904 55.6336 31.5103 55.8567" stroke="#4F4131" stroke-linecap="round" stroke-linejoin="round"/>
<path d="M29.6572 57.2641C29.5428 57.2584 29.4341 57.2469 29.3254 57.224C29.1881 57.2012 29.0565 57.1668 28.9249 57.1268C27.8035 56.7778 26.7909 55.8223 26.1215 55.0957C25.8411 54.7925 25.618 54.5293 25.4693 54.3691" stroke="#4F4131" stroke-linecap="round" stroke-linejoin="round"/>
<path d="M20.027 54.8789L21.2742 54.9247L26.1201 55.0963" stroke="#4F4131" stroke-linecap="round" stroke-linejoin="round"/>
<path d="M28.8846 57.2652C28.9017 57.7401 27.809 60.4634 27.809 60.4634L20.6974 59.0045L20.2626 58.913L12.0126 57.2252L11.183 57.0536L11.9153 53.7409C11.9153 53.7409 16.315 56.0237 16.3207 56.6702C16.3264 57.3167 18.0313 57.168 18.6035 56.0237C18.7408 55.7491 19.2786 55.3372 20.0281 54.8795C22.3795 53.432 26.7963 51.5097 27.3684 51.6985" stroke="#4F4131" stroke-linecap="round" stroke-linejoin="round"/>
<path d="M20.2624 58.9114L21.1892 55.0953C21.1892 55.0953 21.2293 55.0781 21.2693 55.0781C21.8643 55.0781 25.0625 56.6686 25.0625 56.6686L24.3245 59.4549L20.2624 58.9114Z" stroke="#4F4131" stroke-linecap="round" stroke-linejoin="round"/>
<path d="M35.7672 35.7812L37.6953 43.9913H36.3394H34.1882" stroke="#4F4131" stroke-linecap="round" stroke-linejoin="round"/>
<path d="M36.3395 44.0078L36.5283 51.68L31.7453 58.0936L31.7339 58.105L31.013 59.0719" stroke="#4F4131" stroke-linecap="round" stroke-linejoin="round"/>
<path d="M33.7695 46.582L32.5395 47.5775L32.5337 47.5833" stroke="#4F4131" stroke-linecap="round" stroke-linejoin="round"/>
<path d="M21.5788 72.9922C21.8934 76.7739 22.168 80.4813 22.3111 82.4494V82.4838C22.3797 83.3763 22.4141 83.9026 22.4141 83.9026" stroke="#4F4131" stroke-linecap="round" stroke-linejoin="round"/>
<path d="M20.262 61.1152C20.5709 61.7045 21.0915 67.1512 21.5378 72.5692C21.5492 72.6836 21.5607 72.8038 21.5664 72.9182" stroke="#4F4131" stroke-linecap="round" stroke-linejoin="round"/>
<path d="M22.4142 86.9746C22.4543 87.1977 22.4085 87.9129 22.3112 88.9313C22.0023 92.118 21.1441 98.2684 20.6006 101.444C20.4633 102.25 20.3488 102.863 20.263 103.189" stroke="#4F4131" stroke-linecap="round" stroke-linejoin="round"/>
<path d="M12.0119 57.2246C10.593 59.4559 11.7201 66.5388 12.0119 69.0047C12.3094 71.4706 14.3976 80.985 14.3976 80.985L12.1835 103.773C12.1835 103.773 12.5268 104.162 13.0417 104.654C13.8999 105.478 15.2501 106.605 16.32 106.736C17.1095 106.834 17.9562 106.611 18.6428 106.342C18.9632 106.221 19.2493 106.084 19.4781 105.97C19.8214 105.792 20.0273 105.661 20.0273 105.661" stroke="#4F4131" stroke-linecap="round" stroke-linejoin="round"/>
<path d="M18.7065 107.88C18.8152 108.189 18.9124 108.504 19.0268 108.835C19.4045 109.951 19.9308 111.193 21.3497 112.583C21.5385 112.766 21.7444 112.926 21.9619 113.063C23.4093 113.99 25.4232 114.122 25.9667 114.969C26.1498 115.255 26.1613 115.627 25.9267 116.136C24.8969 118.384 11.183 112.875 11.183 112.875L12.3387 107.926L12.865 105.66" stroke="#4F4131" stroke-linecap="round" stroke-linejoin="round"/>
<path d="M22.9859 103.189L23.6724 106.736C25.0169 107.972 27.6945 108.07 28.6156 108.064C28.8158 108.064 28.9303 108.058 28.9303 108.058C28.9303 108.058 30.0459 82.341 30.0459 80.0525C30.0459 78.0043 29.1305 66.8135 28.1522 61.9161C28.0377 61.3325 27.9233 60.8405 27.8089 60.4629" stroke="#4F4131" stroke-linecap="round" stroke-linejoin="round"/>
<path d="M21.5382 72.5117V72.5689C21.5382 72.6719 21.5496 72.7863 21.5668 72.9179C21.5668 72.9408 21.5668 72.9637 21.5783 72.9923C21.8586 74.7144 23.5292 78.6049 24.456 80.6588V80.6702C24.8165 81.4712 25.0625 81.9918 25.0625 81.9918" stroke="#4F4131" stroke-linecap="round" stroke-linejoin="round"/>
<path d="M25.0625 83.9023L24.9652 84.8006L22.98 103.189L22.8655 104.264" stroke="#4F4131" stroke-linecap="round" stroke-linejoin="round"/>
<path d="M28.1803 108.836C28.3519 108.968 28.6037 109.076 28.9126 109.173C30.8864 109.797 35.206 109.883 36.5276 111.17C38.0552 112.663 39.7716 113.808 38.6273 114.38C37.5345 114.929 26.9216 114.609 25.989 114.586C25.949 114.58 25.9261 114.58 25.9261 114.58" stroke="#4F4131" stroke-linecap="round" stroke-linejoin="round"/>
<path d="M23.2998 109.494L22.413 112.876C22.413 112.876 22.2357 112.956 21.961 113.064C21.2974 113.316 20.0616 113.734 19.438 113.545C18.5512 113.287 16.3141 108.659 16.3199 107.881" stroke="#4F4131" stroke-linecap="round" stroke-linejoin="round"/>
<path d="M23.6729 108.059L23.3067 109.466" stroke="#4F4131" stroke-linecap="round" stroke-linejoin="round"/>
<path d="M26.1324 108.068C26.1324 108.068 26.8876 111.152 28.1806 111.621C29.4736 112.09 32.5344 111.764 32.5344 111.764L33.1523 110.734" stroke="#4F4131" stroke-linecap="round" stroke-linejoin="round"/>
<path d="M24.3245 11.9687C24.7993 11.8543 25.4058 12.4779 25.4687 13.113C25.5145 13.5707 25.2913 14.16 24.8966 14.2572C24.4217 14.3717 23.8153 13.7481 23.7523 13.113C23.7066 12.6553 23.9297 12.066 24.3245 11.9687Z" stroke="#4F4131" stroke-linecap="round" stroke-linejoin="round"/>
<path d="M30.6183 12.541C30.9216 12.541 31.1275 12.8786 31.1905 13.1131C31.3278 13.6223 30.9559 14.2574 30.6183 14.2574C30.2808 14.2574 29.9089 13.6223 30.0462 13.1131C30.1091 12.8786 30.3151 12.541 30.6183 12.541Z" stroke="#4F4131" stroke-linecap="round" stroke-linejoin="round"/>
</svg>
