<svg width="55" height="135" viewBox="0 0 55 135" fill="none" xmlns="http://www.w3.org/2000/svg">
<path d="M29.1428 30.1839C29.1428 30.1839 26.6836 27.3441 26.6836 26.724H26.2114C26.2396 30.1346 26.1057 33.8411 25.4363 34.8488C24.1891 36.7232 24.1891 38.5976 24.1891 38.5976L28.5932 35.9833L27.5292 38.5976C27.5292 38.5976 30.2069 37.907 32.3138 37.2305C32.3279 37.8506 32.3913 39.2529 32.6732 39.3586C33.1383 39.4995 33.9698 39.6616 34.8013 39.2811C36.0485 38.7103 37.3028 35.4689 37.3028 35.4689L39.1772 39.8448C39.1772 39.8448 41.0516 35.4689 41.6787 37.3433C42.3059 39.2177 46.0547 40.4649 46.0547 40.4649C46.0547 40.4649 44.8074 36.7161 44.1803 34.8065C43.8139 33.672 43.2149 29.4934 42.933 26.1603L40.4315 31.0929L37.93 26.0898L34.8083 31.0929L33.3285 26.717L29.1499 30.1769L29.1428 30.1839Z" fill="#F5CF24"/>
<path d="M32.9619 124.327L29.8685 111.882L29.3188 111.572L29.1427 111.882C29.1427 111.882 28.6635 111.093 27.8813 109.811V112.58C27.3458 115.497 27.9306 126.236 27.9306 126.236L31.6794 126.652L32.9619 124.327Z" fill="#82AB7E"/>
<path d="M16.6772 132.339C18.5516 133.586 30.4251 133.586 32.2995 133.741C33.9766 133.882 33.1592 132.155 32.518 129.252L32.2995 129.295L31.6724 126.652L27.9236 126.236C27.9236 126.236 24.8019 126.708 22.6809 128.153C20.5528 129.598 14.8028 131.084 16.6772 132.332V132.339Z" fill="#82AB7E"/>
<path d="M31.2777 108.113L29.3187 111.573L29.8684 111.883L32.9618 124.328L33.5537 126.716C33.5537 126.716 34.1809 129.838 36.0553 129.218C37.9297 128.591 37.3025 119.219 37.3025 116.717C37.3025 114.216 36.6754 110.467 35.4281 109.22C34.1809 107.972 33.5537 109.22 32.3065 108.698L31.2847 108.12L31.2777 108.113Z" fill="#82AB7E"/>
<path d="M24.8018 87.3453C24.8018 87.3453 30.425 103.341 32.2994 105.342L34.808 105.201C34.4416 101.699 33.0886 95.3221 33.6312 94.8147C34.2513 94.2369 38.5497 85.034 39.6561 79.8477L40.6426 76.5781C35.9143 77.769 29.516 79.277 27.7191 79.277L26.6762 79.8477C26.0491 83.5965 24.8018 87.3453 24.8018 87.3453Z" fill="#82AB7E"/>
<path d="M29.3185 111.572L31.2775 108.112L32.2993 108.69C33.5465 109.212 34.1736 107.964 35.4209 109.212L34.8713 105.977C34.8572 105.738 34.836 105.477 34.8008 105.195L32.2922 105.336C30.4178 103.335 24.7946 87.3391 24.7946 87.3391C24.7946 87.3391 26.0419 83.5903 26.669 79.8415L27.7119 79.2707C27.5146 79.2707 27.3737 79.2496 27.2962 79.2143C26.4506 78.7986 21.37 75.2612 18.1356 72.9922L16.6699 77.051C15.9088 81.1662 14.9576 88.0015 15.4297 89.0655C15.937 90.2 24.5762 104.399 27.881 109.811C28.6632 111.1 29.1424 111.882 29.1424 111.882L29.3185 111.572Z" fill="#82AB7E"/>
<path d="M6.65681 80.9253C7.29101 80.0797 8.29867 78.769 8.96105 77.9728C8.96105 77.9728 11.0539 76.0984 11.0539 74.8511V73.6039C11.0539 73.6039 12.6676 70.6725 14.3658 67.4381L15.4298 68.0159V71.1094C15.4298 71.1094 16.5643 71.9127 18.1428 73.012C21.3772 75.288 26.4578 78.8184 27.3034 79.2341C27.3879 79.2693 27.5218 79.2905 27.7191 79.2905C29.516 79.2905 35.9143 77.7755 40.6426 76.5916C43.6938 75.8236 46.0473 75.1964 46.0473 75.1964C46.0473 75.1964 47.9217 73.6109 47.9217 71.7365C47.9217 71.1023 47.7033 67.7693 47.4003 63.5625C47.4003 63.5625 47.9217 62.9846 48.8589 61.3992C49.7961 59.8066 50.4233 54.2398 50.4233 52.9855V52.0413C52.0017 51.0195 53.5449 49.8568 53.5449 49.8568C53.5449 49.8568 49.7961 36.736 49.169 35.4817C48.6334 34.4036 46.2235 29.5978 44.7789 27.4979L44.3773 26.9554L42.82 24.8555C42.8482 25.2712 42.8834 25.7152 42.9186 26.1732C43.2076 29.5133 43.7995 33.6849 44.1659 34.8194C44.793 36.722 46.0403 40.4778 46.0403 40.4778C46.0403 40.4778 42.2915 39.2305 41.6643 37.3561C41.0372 35.4817 39.1628 39.8577 39.1628 39.8577L37.2884 35.4817C37.2884 35.4817 36.0412 38.7232 34.7869 39.294C33.9554 39.6674 33.1168 39.5124 32.6588 39.3785C32.3699 39.2658 32.3065 37.8565 32.2994 37.2434C30.1854 37.9269 27.5148 38.6104 27.5148 38.6104L28.5788 35.9962L24.1747 38.6104C24.1747 38.6104 24.1747 36.736 25.4219 34.8616C26.0914 33.854 26.2252 30.1475 26.197 26.7369C26.197 26.3071 26.197 25.8772 26.183 25.4685L25.4219 25.4897C23.5475 26.1168 14.1755 39.8647 12.9212 41.112C11.667 42.3592 7.36147 50.7729 7.36147 50.7729C7.36147 50.7729 9.72913 52.5416 12.7874 54.571L12.4491 58.2705C11.4415 62.2236 8.55235 70.4822 8.55235 70.4822C8.55235 70.4822 6.09309 69.235 5.4448 70.4822C4.9304 71.4829 2.03424 75.2739 1.21684 77.0779L2.99258 78.4872L4.34553 79.5583L5.01496 80.0868L6.08604 80.9394H6.65681V80.9253Z" fill="#82AB7E"/>
<path d="M26.6763 26.7237C26.6763 27.3508 29.1356 30.1836 29.1356 30.1836L33.3142 26.7237L34.794 31.0996L37.9157 26.0965L40.4172 31.0996L42.9188 26.167C42.8835 25.709 42.8413 25.265 42.8201 24.8493C42.7144 23.1793 42.7144 21.932 42.9188 21.7277C43.5459 21.1005 44.166 11.7285 44.166 9.85412C44.166 7.97973 39.1629 2.35654 39.1629 2.35654C39.1629 2.35654 37.7536 1.65892 36.5557 1.56027V1.48276L31.6653 1.01063L31.6442 1.12338C30.3406 0.897888 28.8044 0.954261 27.5078 1.72939C25.415 2.97664 23.3926 9.17765 23.4631 11.3903C23.5406 13.6029 26.0351 19.2261 26.0351 20.4804C26.0351 20.9737 26.1338 23.0383 26.176 25.4624C26.176 25.8781 26.1901 26.3009 26.1901 26.7307H26.6622L26.6763 26.7237Z" fill="#82AB7E"/>
<path d="M33.6874 1.72158C33.166 1.48199 32.4472 1.24945 31.658 1.11557C30.3544 0.890076 28.8182 0.946449 27.5216 1.72158C25.4288 2.96882 23.4064 9.16984 23.4769 11.3825C23.5544 13.5951 26.0489 19.2183 26.0489 20.4726C26.0489 20.9659 26.1475 23.0305 26.1898 25.4545C26.1898 25.8703 26.2039 26.2931 26.2039 26.7229C26.2321 30.1335 26.0982 33.84 25.4288 34.8477C24.1815 36.7221 24.1815 38.5965 24.1815 38.5965L28.5857 35.9822L27.5216 38.5965C27.5216 38.5965 30.1993 37.9059 32.3063 37.2294C33.6663 36.7855 34.8008 36.3415 34.8008 36.0949" stroke="#4F4131" stroke-linecap="round" stroke-linejoin="round"/>
<path d="M35.5057 1.72158C35.8017 1.56655 36.1751 1.53132 36.5768 1.55246C37.7747 1.64406 39.184 2.34872 39.184 2.34872C39.184 2.34872 44.1871 7.97191 44.1871 9.84631C44.1871 11.7207 43.56 21.0927 42.9399 21.7198C42.7355 21.9242 42.7355 23.1785 42.8412 24.8415C42.8694 25.2572 42.9046 25.7012 42.9399 26.1592C43.2288 29.4993 43.8207 33.6709 44.1871 34.8054C44.8143 36.708 46.0615 40.4638 46.0615 40.4638C46.0615 40.4638 42.3127 39.2166 41.6856 37.3422C41.0584 35.4678 39.184 39.8437 39.184 39.8437L37.3096 35.4678C37.3096 35.4678 36.0624 38.7092 34.8081 39.28C33.9766 39.6534 33.1381 39.4984 32.68 39.3645C32.4475 39.287 32.3136 39.2236 32.3136 39.2236" stroke="#4F4131" stroke-linecap="round" stroke-linejoin="round"/>
<path d="M44.1798 26.7227C44.2432 26.7861 44.3137 26.8636 44.3841 26.9481C44.5039 27.0961 44.6378 27.2793 44.7858 27.4907C46.2374 29.5906 48.6403 34.3894 49.1758 35.4745C49.803 36.7218 53.5518 49.8496 53.5518 49.8496C53.5518 49.8496 52.0086 51.0053 50.4301 52.0341C49.1617 52.8585 47.8581 53.6055 47.3085 53.6055" stroke="#4F4131" stroke-linecap="round" stroke-linejoin="round"/>
<path d="M25.429 25.4766C23.5546 26.1037 14.1826 39.8516 12.9283 41.0989C11.674 42.3461 7.36856 50.7598 7.36856 50.7598C7.36856 50.7598 9.73622 52.5285 12.7944 54.5579C17.262 57.5104 23.2093 61.0126 25.429 60.3432C29.1778 59.2157 29.1426 47.7368 29.1426 47.7368" stroke="#4F4131" stroke-linecap="round" stroke-linejoin="round"/>
<path d="M45.7372 42.3457C45.9416 43.9946 46.8224 55.4101 47.4073 63.5419C47.7103 67.7487 47.9287 71.0818 47.9287 71.716C47.9287 73.5903 46.0543 75.1758 46.0543 75.1758C46.0543 75.1758 43.7007 75.803 40.6496 76.5711C35.9213 77.7619 29.523 79.2699 27.7261 79.2699C27.5288 79.2699 27.3879 79.2488 27.3103 79.2135C26.4648 78.7978 21.3841 75.2604 18.1498 72.9914C16.5784 71.8992 15.4368 71.0888 15.4368 71.0888V67.9953" stroke="#4F4131" stroke-linecap="round" stroke-linejoin="round"/>
<path d="M12.7941 56.3672C12.8223 56.6702 12.6884 57.3467 12.4559 58.2557C11.4482 62.2088 8.55912 70.4674 8.55912 70.4674C8.55912 70.4674 6.09986 69.2202 5.45157 70.4674C4.93717 71.4681 2.04101 75.2591 1.22361 77.0631C1.01221 77.5211 0.934698 77.8452 1.06154 77.9721" stroke="#4F4131" stroke-linecap="round" stroke-linejoin="round"/>
<path d="M5.43066 74.8438C4.98673 75.2877 3.70425 77.3242 2.99254 78.4728C2.69658 78.9449 2.50632 79.2761 2.50632 79.2761" stroke="#4F4131" stroke-linecap="round" stroke-linejoin="round"/>
<path d="M6.89648 76.1348C5.59991 76.4941 4.7825 78.2628 4.35266 79.5383C4.09194 80.3204 3.97214 80.9194 3.97214 80.9194" stroke="#4F4131" stroke-linecap="round" stroke-linejoin="round"/>
<path d="M7.36816 77.0645C6.81853 77.7903 5.51491 78.9248 5.02164 80.0734C4.88776 80.3552 4.81729 80.6441 4.81729 80.926" stroke="#4F4131" stroke-linecap="round" stroke-linejoin="round"/>
<path d="M18.2559 59.2285C18.0867 60.1939 16.1842 63.985 14.3661 67.4308C12.6679 70.6652 11.0542 73.5965 11.0542 73.5965V74.8438C11.0542 76.091 8.96139 77.9654 8.96139 77.9654C8.29901 78.7688 7.29134 80.0794 6.65715 80.918C6.29777 81.3901 6.05819 81.7142 6.05819 81.7142" stroke="#4F4131" stroke-linecap="round" stroke-linejoin="round"/>
<path d="M26.6756 79.8398C26.0485 83.5886 24.8012 87.3374 24.8012 87.3374C24.8012 87.3374 30.4244 103.333 32.2988 105.334" stroke="#4F4131" stroke-linecap="round" stroke-linejoin="round"/>
<path d="M27.8806 109.818C28.6628 111.1 29.1419 111.89 29.1419 111.89L29.3181 111.579L31.2771 108.12L32.2988 106.309" stroke="#4F4131" stroke-linecap="round" stroke-linejoin="round"/>
<path d="M16.6765 77.0645C15.9155 81.1726 14.9642 88.0078 15.4363 89.0719C15.9437 90.2064 24.5828 104.405 27.8877 109.817" stroke="#4F4131" stroke-linecap="round" stroke-linejoin="round"/>
<path d="M17.3037 74.2168C17.1487 74.6819 16.9232 75.7248 16.6695 77.0566" stroke="#4F4131" stroke-linecap="round" stroke-linejoin="round"/>
<path d="M32.3065 108.689C33.5537 109.211 34.1809 107.964 35.4281 109.211C36.6754 110.458 37.3025 114.214 37.3025 116.708C37.3025 119.203 37.9297 128.582 36.0553 129.209C34.1809 129.836 33.5537 126.708 33.5537 126.708L32.9618 124.319L29.8684 111.874" stroke="#4F4131" stroke-linecap="round" stroke-linejoin="round"/>
<path d="M39.917 77.9668C39.9029 78.4882 39.8113 79.1295 39.6633 79.8412C38.557 85.0275 34.2586 94.2304 33.6385 94.8082C33.0959 95.3155 34.4418 101.693 34.8153 105.195C34.8434 105.477 34.8716 105.737 34.8857 105.977C34.935 106.639 34.9139 107.126 34.8082 107.337" stroke="#4F4131" stroke-linecap="round" stroke-linejoin="round"/>
<path d="M27.9307 112.34C27.9096 112.417 27.8955 112.495 27.8814 112.586C27.3458 115.504 27.9307 126.243 27.9307 126.243L31.6795 126.659L32.3066 126.729" stroke="#4F4131" stroke-linecap="round" stroke-linejoin="round"/>
<path d="M32.3067 128.159C32.3772 128.539 32.4476 128.906 32.5252 129.251C33.1593 132.154 33.9838 133.874 32.3067 133.74C30.4323 133.592 18.5588 133.592 16.6844 132.338C14.81 131.09 20.5671 129.603 22.6881 128.159C24.8091 126.714 27.9308 126.242 27.9308 126.242" stroke="#4F4131" stroke-linecap="round" stroke-linejoin="round"/>
<path d="M50.4297 52.9727C50.4297 54.2199 49.8025 59.7938 48.8653 61.3863C47.9281 62.9718 47.4067 63.5496 47.4067 63.5496" stroke="#4F4131" stroke-linecap="round" stroke-linejoin="round"/>
</svg>
