<svg width="31" height="118" viewBox="0 0 31 118" fill="none" xmlns="http://www.w3.org/2000/svg">
<path d="M19.7704 21.5054C19.9592 21.6199 20.1594 21.6942 20.3711 21.6942C20.3711 21.6942 20.9204 21.5627 21.5497 21.3739C21.8758 21.2365 22.1962 21.1278 22.4765 21.0706C22.4765 21.0649 22.488 21.0649 22.4937 21.0649C22.8255 20.939 23.1059 20.8075 23.2375 20.6873C23.6036 20.3612 23.1345 19.1311 22.6425 18.3073C22.4823 18.0498 22.3221 17.8267 22.1848 17.6894C21.6126 17.1172 18.1799 18.8336 18.3687 19.4057C18.4602 19.6746 18.6776 20.2067 18.998 20.6873C19.2097 21.0134 19.4672 21.3166 19.7647 21.5054H19.7704Z" fill="#F5CF24"/>
<path d="M21.5493 21.3755C20.4966 21.8046 19.4096 22.514 19.5183 22.8401C19.5755 23.006 19.6785 23.2749 19.8272 23.5724C20.182 24.2761 20.7827 25.1286 21.515 25.1286C21.515 25.1286 21.7725 25.0657 22.1444 24.9627C22.1501 24.9627 22.1558 24.9627 22.1558 24.957C22.7279 24.6881 23.3458 24.4764 23.7692 24.4478C24.0438 24.3391 24.2669 24.2246 24.3814 24.1217C24.862 23.6926 23.9008 21.6958 23.3287 21.1237C23.1913 20.9864 22.8824 20.9807 22.4934 21.0665C22.4876 21.0665 22.4819 21.0665 22.4762 21.0722C22.1901 21.1809 21.8583 21.2839 21.5493 21.3697V21.3755Z" fill="#F5CF24"/>
<path d="M22.1451 24.9626C21.3155 25.3631 20.5775 25.8837 20.6633 26.1469C20.8406 26.6789 21.5558 28.2752 22.5284 28.2752C22.5284 28.2752 23.1062 28.1379 23.7299 27.9548C23.8042 27.9319 23.8729 27.909 23.9473 27.8861C24.4908 27.7145 25.0229 27.5142 25.2174 27.3369C25.6637 26.9364 24.7654 25.0827 24.2333 24.5506C24.1475 24.4648 23.9873 24.4305 23.7756 24.4477C23.2893 24.6422 22.6371 24.8367 22.1622 24.9568C22.1622 24.9626 22.1622 24.9626 22.1508 24.9626H22.1451Z" fill="#F5CF24"/>
<path d="M27.3394 43.9913H28.6953L26.7672 35.7812C26.2809 36.1302 25.7317 36.4106 25.3541 36.2847C25.3541 36.2847 25.6974 39.0023 24.7991 39.7919C23.9066 40.5757 22.5106 40.5585 22.5106 40.5585L22.0129 41.3194C21.6181 41.1478 11.4285 47.4412 9.66068 46.8691C7.88709 46.2969 6.74283 46.2969 6.74283 46.2969L6.54831 43.6709L6.05628 37.0685L5.42122 36.9541L4.86054 40.0264C3.68768 43.2017 1.08451 50.6737 0.975803 52.7162L2.91531 53.7403C2.91531 53.7403 7.31496 56.0231 7.32068 56.6696C7.3264 57.3161 9.03134 57.1673 9.60346 56.0231C9.74077 55.7484 10.2786 55.3365 11.0281 54.8788L12.2753 54.9246L17.1212 55.0962C17.7906 55.8228 18.8033 56.7783 19.9246 57.1273L19.8846 57.2646C19.9017 57.7394 18.809 60.4628 18.809 60.4628C18.9234 60.8404 19.0378 61.3324 19.1523 61.916H19.158L22.7338 58.1056L22.7452 58.0942L27.5282 51.6806L27.3394 44.0084V43.9913Z" fill="#91A676"/>
<path d="M19.163 38.1211L19.9582 38.2069C20.1871 36.7881 20.9194 32.211 22.0122 31.8563C22.7731 31.6046 24.2435 31.5016 25.3477 31.4558L25.3362 31.267L23.8258 28.2748L23.7285 27.9544C23.1049 28.1375 22.5271 28.2748 22.5271 28.2748C21.5545 28.2748 20.8393 26.6786 20.6619 26.1465C20.5761 25.8833 21.3142 25.3627 22.1438 24.9622C21.7719 25.0652 21.5144 25.1281 21.5144 25.1281C20.7821 25.1281 20.1814 24.2757 19.8266 23.5719C19.8266 23.5719 19.901 27.4166 19.8839 27.4224C19.8552 27.4224 17.1319 25.6716 17.1319 25.6716L17.3894 22.0329L17.2349 22.01C17.3093 21.7297 17.4123 21.3521 17.4981 21.0775C17.561 20.8601 17.6182 20.6999 17.6354 20.6999C16.5426 20.7342 15.0952 20.7571 14.0367 20.3223L13.6763 21.4722L16.4683 25.7002L13.8422 27.7656L11.2619 21.6954C11.3191 21.6954 9.04206 21.4036 7.31996 22.4048C5.59786 23.4117 1.5987 33.71 1.5987 33.71C1.5987 33.71 2.5656 35.209 4.08173 35.6038C4.40784 35.6896 4.95136 35.7811 5.61503 35.8841L5.59786 35.9985L5.42051 36.954L6.05557 37.0684L6.54759 43.6707L7.31996 43.6135C7.31996 43.6135 7.88637 41.1477 9.26519 40.5584C9.49404 40.4611 9.90597 40.3638 10.4381 40.278C12.7838 39.8661 17.4866 39.5228 19.0485 39.4256L19.0028 38.6189C19.0714 38.5044 19.1229 38.3328 19.163 38.1211Z" fill="#91A676"/>
<path d="M2.91527 53.7402L2.18295 57.0528L3.01253 57.2245L11.2626 58.9123L12.1894 55.0962C12.1894 55.0962 12.2295 55.079 12.2695 55.079V54.9245L11.028 54.8788C10.2785 55.3365 9.74073 55.7484 9.60342 56.023C9.0313 57.1673 7.32636 57.316 7.32064 56.6695C7.31492 56.023 2.91527 53.7402 2.91527 53.7402Z" fill="#91A676"/>
<path d="M12.9619 113.065C12.7444 112.927 12.5385 112.767 12.3497 112.584C10.9308 111.194 10.4045 109.952 10.0268 108.837L9.64352 106.342C8.95697 106.611 8.11022 106.834 7.32069 106.737C6.25081 106.605 4.9006 105.478 4.04241 104.654H3.88221L3.33869 107.927L2.183 112.876C2.183 112.876 15.8969 118.385 16.9267 116.137C17.1613 115.628 17.1498 115.256 16.9667 114.97C16.4232 114.123 14.4093 113.991 12.9619 113.065Z" fill="#91A676"/>
<path d="M3.01228 57.2246C1.59341 59.4559 2.72049 66.5388 3.01228 69.0047C3.30978 71.4706 5.39804 80.985 5.39804 80.985L3.18392 103.773C3.18392 103.773 3.52719 104.162 4.0421 104.654C4.90029 105.478 6.25051 106.605 7.32039 106.736C8.10992 106.834 8.95667 106.611 9.64322 106.342C9.96361 106.221 10.2497 106.084 10.4785 105.97L11.5999 101.45C12.1434 98.2689 13.0016 92.1186 13.3105 88.9318V82.4497C13.1675 80.4815 12.8929 76.7742 12.5782 72.9924C12.5725 72.9638 12.5668 72.9409 12.5668 72.918C12.5496 72.7864 12.5382 72.672 12.5382 72.569C12.0919 67.151 11.5713 61.7044 11.2623 61.1151L11.6972 59.0039L11.2623 58.9124L3.01228 57.2246Z" fill="#91A676"/>
<path d="M27.339 33.7104L27.2646 32.5718L26.847 32.6005L26.7669 31.4219C26.7669 31.4219 26.1547 31.4219 25.348 31.4562C24.2438 31.502 22.7735 31.605 22.0125 31.8567C20.9198 32.2114 20.1874 36.7884 19.9586 38.2073L19.1633 38.1215C19.1233 38.3332 19.0718 38.5048 19.0031 38.6192L19.0489 39.4259C17.487 39.5232 12.7841 39.8665 10.4384 40.2784C9.90634 40.3642 9.4944 40.4615 9.26555 40.5587C7.88673 41.148 7.32033 43.6139 7.32033 43.6139L6.54795 43.6711L6.74248 46.2972C6.74248 46.2972 7.88673 46.2972 9.66032 46.8693C11.4282 47.4414 21.6178 41.148 22.0125 41.3197L22.5103 40.5587C22.5103 40.5587 23.9063 40.5759 24.7988 39.7921C25.697 39.0025 25.3537 36.2849 25.3537 36.2849C25.7313 36.4108 26.2806 36.1305 26.7669 35.7815C27.3619 35.3581 27.8711 34.826 27.8711 34.826L27.442 34.0422L27.5049 34.0079L27.339 33.7104Z" fill="#91A676"/>
<path d="M11.5142 17.6904C11.949 18.4285 12.6013 19.3668 13.4137 19.9789C13.5968 20.1162 13.8084 20.2307 14.0373 20.3222C15.0957 20.757 16.5432 20.7341 17.636 20.6941C18.2481 20.6712 18.7459 20.6426 19.0033 20.6884C18.683 20.2078 18.4655 19.6757 18.374 19.4068C18.1852 18.8347 21.618 17.1183 22.1901 17.6904C22.3274 17.8277 22.4876 18.0509 22.6478 18.3083L22.705 18.274L23.5861 16.5691C23.5861 16.5691 23.5918 16.5576 23.5918 16.5519C23.8035 15.934 23.9122 15.0586 23.9637 14.1146C24.1181 11.5401 23.8264 8.43343 23.8264 8.43343L23.5918 8.41054C22.8538 9.9324 20.6568 12.0893 20.6568 12.0893C20.6568 12.0893 21.618 7.39216 20.8685 5.67578L19.4782 5.77304C18.1452 7.40932 16.4116 8.94834 14.9641 9.26301C13.0361 9.68066 10.9249 10.31 10.9249 10.31V12.4898H10.4386C10.4386 12.4898 10.3757 12.4898 10.267 12.4955C9.68913 12.5299 7.79539 12.7187 7.31481 13.6855C6.77701 14.7611 7.75534 15.3275 9.66624 15.688L11.5142 17.6904ZM14.7524 13.1134C14.7067 12.6557 14.9298 12.0664 15.3246 11.9692C15.7994 11.8547 16.4059 12.4784 16.4688 13.1134C16.5146 13.5711 16.2915 14.1604 15.8967 14.2577C15.4218 14.3721 14.8154 13.7485 14.7524 13.1134ZM21.618 14.2577C21.2804 14.2577 20.9085 13.6226 21.0458 13.1134C21.1088 12.8788 21.3147 12.5413 21.618 12.5413C21.9212 12.5413 22.1272 12.8788 22.1901 13.1134C22.3274 13.6226 21.9555 14.2577 21.618 14.2577Z" fill="#91A676"/>
<path d="M23.5918 8.41071L23.8264 8.4336C23.8264 8.4336 24.1182 11.5402 23.9637 14.1148H24.0095L24.8906 12.49C25.0737 11.7233 25.3368 10.6191 25.6229 9.26318C26.195 6.55131 25.6229 5.10383 23.323 3.38745C21.0287 1.67107 18.1853 1.09894 16.4746 1.0074C14.7639 0.915864 10.7476 1.67107 9.3688 3.38745C8.17877 4.85781 7.93848 8.43932 8.47628 10.9452L8.80239 12.49H10.925V10.3102C10.925 10.3102 13.0361 9.68083 14.9642 9.26318C16.4117 8.94851 18.1452 7.40949 19.4783 5.77321L20.8685 5.67595C21.618 7.39233 20.6568 12.0895 20.6568 12.0895C20.6568 12.0895 22.8538 9.93257 23.5918 8.41071Z" fill="#91A676"/>
<path d="M13.6768 21.4722L14.0372 20.3223L11.2624 21.6954L13.8427 27.7656L16.4688 25.7002L13.6768 21.4722Z" fill="#91A676"/>
<path d="M12.1892 55.0953L11.2624 58.9114L15.3245 59.4549L16.0625 56.6686C16.0625 56.6686 12.8643 55.0781 12.2693 55.0781C12.2293 55.0781 12.2064 55.0838 12.1892 55.0953Z" fill="#91A676"/>
<path d="M11.2618 58.9115L11.6967 59.0031L18.8082 60.462C18.8082 60.462 19.9009 57.7387 19.8838 57.2638L19.9238 57.1265C18.8025 56.7775 17.7898 55.8221 17.1204 55.0955L12.2745 54.9238V55.0783C12.8638 55.0783 16.062 56.6688 16.062 56.6688L15.3239 59.4551L11.2618 58.9115Z" fill="#91A676"/>
<path d="M19.6156 108.064C19.8158 108.064 19.9303 108.058 19.9303 108.058C19.9303 108.058 21.0459 82.3409 21.0459 80.0524C21.0459 78.0042 20.1305 66.8134 19.1522 61.916C19.0377 61.3325 18.9233 60.8404 18.8089 60.4628L11.6974 59.0039L11.2625 61.1151C11.5715 61.7043 12.0921 67.151 12.5384 72.569C12.5498 72.6834 12.5613 72.8036 12.567 72.918C12.567 72.9409 12.567 72.9638 12.5784 72.9924C12.8588 74.7145 14.5294 78.6049 15.4562 80.6589V80.6703L15.9654 84.8011L13.9801 103.189H13.9859L14.6724 106.736C16.0169 107.972 18.6945 108.069 19.6156 108.064Z" fill="#91A676"/>
<path d="M16.989 114.586C17.9216 114.609 28.5345 114.929 29.6273 114.38C30.7716 113.808 29.0552 112.664 27.5276 111.17C26.206 109.883 21.8864 109.797 19.9126 109.174L19.6151 108.064C18.694 108.064 16.0164 107.972 14.6719 106.736L14.3058 109.465V109.494L13.4133 112.875C13.4133 112.875 13.2359 112.955 12.9613 113.064C14.4088 113.991 16.4226 114.122 16.9662 114.969L16.989 114.586Z" fill="#91A676"/>
<path d="M15.3245 11.9687C14.9297 12.066 14.7066 12.6553 14.7523 13.113C14.8153 13.7481 15.4217 14.3717 15.8966 14.2572C16.2913 14.16 16.5145 13.5707 16.4687 13.113C16.4058 12.4779 15.7993 11.8543 15.3245 11.9687Z" fill="#4F4131"/>
<path d="M17.3897 22.0336L17.1322 25.6723C17.1322 25.6723 19.8555 27.423 19.8841 27.423C19.9013 27.4173 19.8269 23.5726 19.8269 23.5726L17.4984 21.0781C17.4126 21.3527 17.3096 21.7303 17.2352 22.0107L17.3897 22.0336Z" fill="#91A676"/>
<path d="M21.0462 13.1131C20.9089 13.6223 21.2808 14.2574 21.6183 14.2574C21.9559 14.2574 22.3278 13.6223 22.1905 13.1131C22.1275 12.8786 21.9216 12.541 21.6183 12.541C21.3151 12.541 21.1091 12.8786 21.0462 13.1131Z" fill="#4F4131"/>
<path d="M22.4814 21.0723C22.1956 21.1809 21.864 21.2838 21.5552 21.3696" stroke="#4F4131" stroke-linecap="round" stroke-linejoin="round"/>
<path d="M21.5489 21.3739C20.9195 21.5627 20.3703 21.6942 20.3703 21.6942C20.1586 21.6942 19.9583 21.6199 19.7695 21.5054C19.472 21.3166 19.2146 21.0134 19.0029 20.6873C18.6825 20.2067 18.4651 19.6746 18.3736 19.4057C18.1848 18.8336 21.6175 17.1172 22.1896 17.6894C22.327 17.8267 22.4871 18.0498 22.6473 18.3073C23.1394 19.1311 23.6085 20.3612 23.2424 20.6873C23.1108 20.8075 22.8304 20.939 22.4986 21.0649" stroke="#4F4131" stroke-linecap="round" stroke-linejoin="round"/>
<path d="M23.7686 24.4473C23.2822 24.6418 22.63 24.8363 22.1552 24.9565" stroke="#4F4131" stroke-linecap="round" stroke-linejoin="round"/>
<path d="M22.1444 24.9627C21.7725 25.0657 21.515 25.1286 21.515 25.1286C20.7827 25.1286 20.182 24.2761 19.8272 23.5724C19.6785 23.2749 19.5755 23.006 19.5183 22.8401C19.4096 22.514 20.4966 21.8046 21.5493 21.3755C21.8755 21.2381 22.1958 21.1294 22.4762 21.0722C22.4762 21.0665 22.4876 21.0665 22.4934 21.0665C22.8824 20.9807 23.1913 20.9864 23.3287 21.1237C23.9008 21.6958 24.862 23.6926 24.3814 24.1217C24.2669 24.2246 24.0438 24.3391 23.7692 24.4478" stroke="#4F4131" stroke-linecap="round" stroke-linejoin="round"/>
<path d="M23.7288 27.9548C23.1051 28.1379 22.5273 28.2752 22.5273 28.2752C21.5547 28.2752 20.8395 26.6789 20.6622 26.1469C20.5763 25.8837 21.3144 25.3631 22.144 24.9626C22.1497 24.9626 22.1554 24.9626 22.1554 24.9568C22.7275 24.6879 23.3454 24.4763 23.7688 24.4477C23.9805 24.4305 24.1407 24.4648 24.2265 24.5506C24.7586 25.0827 25.6568 26.9364 25.2106 27.3369C25.016 27.5142 24.484 27.7145 23.9404 27.8861C23.8661 27.909 23.7974 27.9319 23.723 27.9548H23.7288Z" stroke="#4F4131" stroke-linecap="round" stroke-linejoin="round"/>
<path d="M25.3359 31.2676L23.8255 28.2754" stroke="#4F4131" stroke-linecap="round" stroke-linejoin="round"/>
<path d="M19.8839 38.6192C19.8954 38.5849 19.924 38.4361 19.9583 38.2073C20.1872 36.7884 20.9195 32.2114 22.0122 31.8567C22.7732 31.605 24.2435 31.502 25.3477 31.4562C26.1544 31.4219 26.7666 31.4219 26.7666 31.4219" stroke="#4F4131" stroke-linecap="round" stroke-linejoin="round"/>
<path d="M23.374 32.8276L26.8468 32.5988L27.2645 32.5702L27.3389 32.5645" stroke="#4F4131" stroke-linecap="round" stroke-linejoin="round"/>
<path d="M23.9061 34.2831L27.3389 33.7109" stroke="#4F4131" stroke-linecap="round" stroke-linejoin="round"/>
<path d="M24.5819 35.6038L27.4425 34.0419L27.5054 34.0075L27.5283 33.9961" stroke="#4F4131" stroke-linecap="round" stroke-linejoin="round"/>
<path d="M27.8711 34.8262C27.8711 34.8262 27.3619 35.3583 26.7669 35.7816C26.2806 36.1306 25.7313 36.411 25.3537 36.2851C25.3537 36.2851 25.697 39.0027 24.7988 39.7922C23.9063 40.576 22.5103 40.5589 22.5103 40.5589" stroke="#4F4131" stroke-linecap="round" stroke-linejoin="round"/>
<path d="M22.0127 41.3193C21.6179 41.1476 11.4284 47.441 9.66049 46.8689C7.8869 46.2968 6.74265 46.2968 6.74265 46.2968L6.54813 43.6707L6.0561 37.0684" stroke="#4F4131" stroke-linecap="round" stroke-linejoin="round"/>
<path d="M10.4375 37.6348V40.278" stroke="#4F4131" stroke-linecap="round" stroke-linejoin="round"/>
<path d="M19.5127 39.3965C19.4326 39.4022 19.2724 39.4079 19.0493 39.4251C17.4874 39.5224 12.7845 39.8656 10.4388 40.2776C9.9067 40.3634 9.49477 40.4606 9.26592 40.5579C7.88709 41.1472 7.32069 43.6131 7.32069 43.6131" stroke="#4F4131" stroke-linecap="round" stroke-linejoin="round"/>
<path d="M23.8264 8.43359C23.8264 8.43359 24.1181 11.5402 23.9637 14.1148C23.9122 15.0588 23.8035 15.9342 23.5918 16.5521C23.5918 16.5578 23.5918 16.5635 23.5861 16.5692C23.5174 16.7866 23.4316 16.9697 23.3343 17.1185" stroke="#4F4131" stroke-linecap="round" stroke-linejoin="round"/>
<path d="M19.0029 20.6891C18.7455 20.6433 18.2477 20.6719 17.6355 20.6948C16.5428 20.7348 15.0953 20.7577 14.0369 20.3229C13.808 20.2314 13.5963 20.1169 13.4133 19.9796C12.6008 19.3675 11.9486 18.4292 11.5138 17.6911C11.1305 17.0446 10.9245 16.5469 10.9245 16.5469" stroke="#4F4131" stroke-linecap="round" stroke-linejoin="round"/>
<path d="M10.0485 15.7571C9.91687 15.7342 9.78527 15.7113 9.66513 15.6884C7.75423 15.328 6.77589 14.7616 7.31369 13.686C7.79428 12.7191 9.68801 12.5303 10.2659 12.496C10.3746 12.4902 10.4375 12.4902 10.4375 12.4902" stroke="#4F4131" stroke-linecap="round" stroke-linejoin="round"/>
<path d="M20.6572 4.14844C20.3254 4.66907 19.9249 5.22976 19.4786 5.77328C18.1456 7.40956 16.4121 8.94858 14.9646 9.26324C13.0365 9.6809 10.9254 10.3102 10.9254 10.3102V12.7818" stroke="#4F4131" stroke-linecap="round" stroke-linejoin="round"/>
<path d="M20.8683 5.67578C21.6178 7.39216 20.6566 12.0893 20.6566 12.0893C20.6566 12.0893 22.8536 9.9324 23.5916 8.41054C23.7289 8.1302 23.8147 7.87275 23.8262 7.65534" stroke="#4F4131" stroke-linecap="round" stroke-linejoin="round"/>
<path d="M8.80239 12.0895C8.6708 11.7462 8.5621 11.3629 8.47628 10.9452C7.93848 8.43932 8.17877 4.85781 9.36879 3.38745C10.7476 1.67107 14.7639 0.915864 16.4746 1.0074C18.1853 1.09894 21.0287 1.67107 23.323 3.38745C25.6229 5.10383 26.195 6.55131 25.6229 9.26318C25.3368 10.6191 25.0737 11.7233 24.8906 12.49C24.6961 13.2623 24.5816 13.6914 24.5816 13.6914" stroke="#4F4131" stroke-linecap="round" stroke-linejoin="round"/>
<path d="M20.6572 14.8301C20.4741 15.4022 19.0038 16.5465 19.0038 16.5465" stroke="#4F4131" stroke-linecap="round" stroke-linejoin="round"/>
<path d="M15.8966 17.6895L18.3682 18.8509" stroke="#4F4131" stroke-linecap="round" stroke-linejoin="round"/>
<path d="M17.6416 20.7107V20.6992C17.6244 20.6992 17.5672 20.8594 17.5043 21.0768C17.4185 21.3514 17.3155 21.729 17.2411 22.0094C17.1839 22.2382 17.1381 22.4042 17.1381 22.4042" stroke="#4F4131" stroke-linecap="round" stroke-linejoin="round"/>
<path d="M13.4136 21.0775L13.6768 21.4722L16.4688 25.7002L13.8427 27.7656L11.2624 21.6954L14.0372 20.3223L13.6768 21.4722L13.6482 21.5581" stroke="#4F4131" stroke-linecap="round" stroke-linejoin="round"/>
<path d="M11.263 21.6958C11.3202 21.6958 9.04313 21.404 7.32103 22.4053C5.59893 23.4122 1.59977 33.7105 1.59977 33.7105C1.59977 33.7105 2.56666 35.2094 4.08279 35.6042C4.40891 35.69 4.95243 35.7816 5.61609 35.8845C8.05335 36.2335 12.0468 36.6111 12.0468 36.6111L12.4072 29.7742" stroke="#4F4131" stroke-linecap="round" stroke-linejoin="round"/>
<path d="M17.3897 22.0336L17.1322 25.6723C17.1322 25.6723 19.8555 27.423 19.8841 27.423C19.9013 27.4173 19.8269 23.5726 19.8269 23.5726L17.4984 21.0781" stroke="#4F4131" stroke-linecap="round" stroke-linejoin="round"/>
<path d="M17.1328 27.7656L17.0184 39.1738" stroke="#4F4131" stroke-linecap="round" stroke-linejoin="round"/>
<path d="M18.3675 27.5195C18.3675 27.5195 19.5918 35.7067 19.1627 38.121C19.1227 38.3327 19.0712 38.5044 19.0025 38.6188" stroke="#4F4131" stroke-linecap="round" stroke-linejoin="round"/>
<path d="M17.3896 44.5801C17.3896 44.5801 17.0407 48.5907 16.4685 50.5931" stroke="#4F4131" stroke-linecap="round" stroke-linejoin="round"/>
<path d="M19.0024 45.7246C19.0024 45.7246 19.689 48.5852 18.3673 50.0156" stroke="#4F4131" stroke-linecap="round" stroke-linejoin="round"/>
<path d="M5.39746 38.625C5.33453 38.768 5.13428 39.2772 4.85966 40.0267C3.6868 43.202 1.08363 50.674 0.974927 52.7165C0.963484 52.9224 0.974926 53.0769 1.0207 53.1627" stroke="#4F4131" stroke-linecap="round" stroke-linejoin="round"/>
<path d="M23.8262 42.0742C23.8262 42.0742 23.7346 44.6316 23.5401 47.5781C23.357 50.2728 23.0939 53.2936 22.7449 54.9871C22.6705 55.3418 22.5904 55.6336 22.5103 55.8567" stroke="#4F4131" stroke-linecap="round" stroke-linejoin="round"/>
<path d="M20.6572 57.2641C20.5428 57.2584 20.4341 57.2469 20.3254 57.224C20.1881 57.2012 20.0565 57.1668 19.9249 57.1268C18.8035 56.7778 17.7909 55.8223 17.1215 55.0957C16.8411 54.7925 16.618 54.5293 16.4693 54.3691" stroke="#4F4131" stroke-linecap="round" stroke-linejoin="round"/>
<path d="M11.027 54.8789L12.2742 54.9247L17.1201 55.0963" stroke="#4F4131" stroke-linecap="round" stroke-linejoin="round"/>
<path d="M19.8846 57.2652C19.9017 57.7401 18.809 60.4634 18.809 60.4634L11.6974 59.0045L11.2626 58.913L3.01257 57.2252L2.18299 57.0536L2.91531 53.7409C2.91531 53.7409 7.31496 56.0237 7.32068 56.6702C7.3264 57.3167 9.03133 57.168 9.60346 56.0237C9.74077 55.7491 10.2786 55.3372 11.0281 54.8795C13.3795 53.432 17.7963 51.5097 18.3684 51.6985" stroke="#4F4131" stroke-linecap="round" stroke-linejoin="round"/>
<path d="M11.2624 58.9114L12.1892 55.0953C12.1892 55.0953 12.2293 55.0781 12.2693 55.0781C12.8643 55.0781 16.0625 56.6686 16.0625 56.6686L15.3245 59.4549L11.2624 58.9114Z" stroke="#4F4131" stroke-linecap="round" stroke-linejoin="round"/>
<path d="M26.7672 35.7812L28.6953 43.9913H27.3394H25.1882" stroke="#4F4131" stroke-linecap="round" stroke-linejoin="round"/>
<path d="M27.3395 44.0078L27.5283 51.68L22.7453 58.0936L22.7339 58.105L22.013 59.0719" stroke="#4F4131" stroke-linecap="round" stroke-linejoin="round"/>
<path d="M24.7695 46.582L23.5395 47.5775L23.5337 47.5833" stroke="#4F4131" stroke-linecap="round" stroke-linejoin="round"/>
<path d="M12.5788 72.9922C12.8934 76.7739 13.168 80.4813 13.3111 82.4494V82.4838C13.3797 83.3763 13.4141 83.9026 13.4141 83.9026" stroke="#4F4131" stroke-linecap="round" stroke-linejoin="round"/>
<path d="M11.262 61.1152C11.5709 61.7045 12.0915 67.1512 12.5378 72.5692C12.5492 72.6836 12.5607 72.8038 12.5664 72.9182" stroke="#4F4131" stroke-linecap="round" stroke-linejoin="round"/>
<path d="M13.4142 86.9746C13.4543 87.1977 13.4085 87.9129 13.3112 88.9313C13.0023 92.118 12.1441 98.2684 11.6006 101.444C11.4633 102.25 11.3488 102.863 11.263 103.189" stroke="#4F4131" stroke-linecap="round" stroke-linejoin="round"/>
<path d="M3.01186 57.2246C1.59299 59.4559 2.72007 66.5388 3.01186 69.0047C3.30936 71.4706 5.39762 80.985 5.39762 80.985L3.1835 103.773C3.1835 103.773 3.52677 104.162 4.04169 104.654C4.89987 105.478 6.25009 106.605 7.31997 106.736C8.1095 106.834 8.95625 106.611 9.6428 106.342C9.96319 106.221 10.2493 106.084 10.4781 105.97C10.8214 105.792 11.0273 105.661 11.0273 105.661" stroke="#4F4131" stroke-linecap="round" stroke-linejoin="round"/>
<path d="M9.70646 107.88C9.81516 108.189 9.91242 108.504 10.0268 108.835C10.4045 109.951 10.9308 111.193 12.3497 112.583C12.5385 112.766 12.7444 112.926 12.9619 113.063C14.4093 113.99 16.4232 114.122 16.9667 114.969C17.1498 115.255 17.1613 115.627 16.9267 116.136C15.8969 118.384 2.183 112.875 2.183 112.875L3.33869 107.926L3.86505 105.66" stroke="#4F4131" stroke-linecap="round" stroke-linejoin="round"/>
<path d="M13.9859 103.189L14.6724 106.736C16.0169 107.972 18.6945 108.07 19.6156 108.064C19.8158 108.064 19.9303 108.058 19.9303 108.058C19.9303 108.058 21.0459 82.341 21.0459 80.0525C21.0459 78.0043 20.1305 66.8135 19.1522 61.9161C19.0377 61.3325 18.9233 60.8405 18.8089 60.4629" stroke="#4F4131" stroke-linecap="round" stroke-linejoin="round"/>
<path d="M12.5382 72.5117V72.5689C12.5382 72.6719 12.5496 72.7863 12.5668 72.9179C12.5668 72.9408 12.5668 72.9637 12.5783 72.9923C12.8586 74.7144 14.5292 78.6049 15.456 80.6588V80.6702C15.8165 81.4712 16.0625 81.9918 16.0625 81.9918" stroke="#4F4131" stroke-linecap="round" stroke-linejoin="round"/>
<path d="M16.0625 83.9023L15.9652 84.8006L13.98 103.189L13.8655 104.264" stroke="#4F4131" stroke-linecap="round" stroke-linejoin="round"/>
<path d="M19.1803 108.836C19.3519 108.968 19.6037 109.076 19.9126 109.173C21.8864 109.797 26.206 109.883 27.5276 111.17C29.0552 112.663 30.7716 113.808 29.6273 114.38C28.5345 114.929 17.9216 114.609 16.989 114.586C16.949 114.58 16.9261 114.58 16.9261 114.58" stroke="#4F4131" stroke-linecap="round" stroke-linejoin="round"/>
<path d="M14.2998 109.494L13.413 112.876C13.413 112.876 13.2357 112.956 12.961 113.064C12.2974 113.316 11.0616 113.734 10.438 113.545C9.55116 113.287 7.31415 108.659 7.31987 107.881" stroke="#4F4131" stroke-linecap="round" stroke-linejoin="round"/>
<path d="M14.6729 108.059L14.3067 109.466" stroke="#4F4131" stroke-linecap="round" stroke-linejoin="round"/>
<path d="M17.1324 108.068C17.1324 108.068 17.8876 111.152 19.1806 111.621C20.4736 112.09 23.5344 111.764 23.5344 111.764L24.1523 110.734" stroke="#4F4131" stroke-linecap="round" stroke-linejoin="round"/>
<path d="M15.3245 11.9687C15.7993 11.8543 16.4058 12.4779 16.4687 13.113C16.5145 13.5707 16.2913 14.16 15.8966 14.2572C15.4217 14.3717 14.8153 13.7481 14.7523 13.113C14.7066 12.6553 14.9297 12.066 15.3245 11.9687Z" stroke="#4F4131" stroke-linecap="round" stroke-linejoin="round"/>
<path d="M21.6183 12.541C21.9216 12.541 22.1275 12.8786 22.1905 13.1131C22.3278 13.6223 21.9559 14.2574 21.6183 14.2574C21.2808 14.2574 20.9089 13.6223 21.0462 13.1131C21.1091 12.8786 21.3151 12.541 21.6183 12.541Z" stroke="#4F4131" stroke-linecap="round" stroke-linejoin="round"/>
</svg>
