<svg width="69" height="171" viewBox="0 0 69 171" fill="none" xmlns="http://www.w3.org/2000/svg">
<path d="M51.3761 148.963C48.7984 145.89 44.6935 144.434 40.693 144.212C36.6926 143.991 32.7117 144.865 28.7961 145.726C23.4904 146.901 18.1913 148.069 12.8857 149.244C9.09405 150.079 4.90434 151.189 2.83559 154.471C0.0163496 158.948 2.97264 165.246 7.58654 167.85C12.2004 170.454 17.7867 170.395 23.0793 170.264C31.1912 170.062 39.3095 169.866 47.4214 169.664C50.6583 169.586 54.1497 169.422 56.7014 167.426C60.4473 164.495 60.6235 158.863 59.5337 154.23C59.1552 152.611 58.6135 150.954 57.4323 149.786C56.61 148.976 55.5463 148.474 54.5021 147.991C51.7351 146.699 48.968 145.413 46.2075 144.121" fill="#D3B25B"/>
<path d="M46.011 144.518C45.9652 144.433 46.0567 144.335 46.2462 144.453L46.292 144.714L46.011 144.518Z" fill="#C6B08D"/>
<path d="M47.506 144.773C47.6952 144.975 47.8845 145.269 47.6495 145.38C47.506 145.086 47.4146 145.138 47.2776 144.799C47.0883 144.681 46.9056 144.701 46.9056 144.792C46.8599 144.707 46.5793 144.694 46.5336 144.518C46.8599 144.486 47.1862 144.629 47.4668 144.916C47.5582 144.91 47.5125 144.825 47.5125 144.779L47.506 144.773Z" fill="#C6B08D"/>
<path d="M60.4082 159.254L60.3821 159.117C60.3951 159.156 60.4017 159.202 60.4082 159.254Z" fill="#C6B08D"/>
<path d="M53.2221 169.492C53.3266 169.473 53.3724 169.479 53.3789 169.499C53.2809 169.512 53.2025 169.518 53.2221 169.492Z" fill="#C6B08D"/>
<path d="M50.9904 170.128C51.0361 170.115 51.0819 170.108 51.1211 170.102C51.0688 170.128 51.0231 170.141 50.9904 170.128Z" fill="#C6B08D"/>
<path d="M60.4083 159.254L60.4736 159.613C60.4017 159.633 60.4214 159.43 60.4083 159.254Z" fill="#C6B08D"/>
<path d="M49.9336 146.476C49.8682 146.437 49.8225 146.391 49.7833 146.346L49.9336 146.444C49.9336 146.444 49.9336 146.463 49.9336 146.476Z" fill="#C6B08D"/>
<path d="M59.814 153.407L59.7879 153.303C59.8009 153.263 59.8205 153.231 59.8467 153.191L59.814 153.407Z" fill="#C6B08D"/>
<path d="M57.634 149.283C57.719 149.355 57.6209 149.512 57.5948 149.597C57.6013 149.505 57.5687 149.42 57.5098 149.349C57.5294 149.322 57.5687 149.296 57.634 149.283Z" fill="#C6B08D"/>
<path d="M51.1543 146.23L51.0488 146.15C51.0488 146.15 51.1213 146.203 51.1543 146.23Z" fill="#C6B08D"/>
<path d="M60.473 156.586C60.473 156.586 60.5253 156.606 60.5449 156.619C60.5188 156.619 60.4992 156.606 60.473 156.586Z" fill="#C6B08D"/>
<path d="M46.9316 146.631C46.9316 146.631 46.9446 146.612 46.9446 146.605C46.9576 146.631 46.9576 146.651 46.9316 146.631Z" fill="#C6B08D"/>
<path d="M51.4084 148.93L51.3692 148.871C51.3692 148.871 51.4084 148.813 51.4346 148.793L51.4084 148.93Z" fill="#C6B08D"/>
<path d="M46.8397 170.576C46.8397 170.576 46.8528 170.576 46.8594 170.576C46.9715 170.596 46.9056 170.589 46.8397 170.576Z" fill="#C6B08D"/>
<path d="M9.05443 169.402C9.52496 169.422 8.47933 168.919 9.15245 169.017C9.06096 169.069 9.60992 169.5 9.05443 169.402Z" fill="#C6B08D"/>
<path d="M50.0515 146.502L50.2148 146.58C50.1364 146.548 50.0841 146.528 50.0515 146.502Z" fill="#C6B08D"/>
<path d="M9.15272 169.018L9.22461 169.031C9.19847 169.031 9.17886 169.024 9.15272 169.018Z" fill="#C6B08D"/>
<path d="M37.3833 170.701C37.403 170.668 37.4426 170.642 37.4756 170.615C37.4756 170.635 37.4492 170.655 37.3833 170.701Z" fill="#C6B08D"/>
<path d="M44.4189 170.264L44.2425 170.29C44.3144 170.27 44.3667 170.264 44.4189 170.264Z" fill="#C6B08D"/>
<path d="M33.7227 170.53C33.6312 170.55 33.5985 170.576 33.4678 170.55C33.4809 170.543 33.4939 170.53 33.507 170.523C33.5527 170.55 33.6181 170.556 33.7227 170.523V170.53Z" fill="#C6B08D"/>
<path d="M29.9114 170.621C29.9114 170.621 29.9571 170.595 29.9833 170.582C30.0225 170.582 30.0682 170.582 30.1074 170.589L29.9179 170.621H29.9114Z" fill="#C6B08D"/>
<path d="M36.0848 145.16C36.1567 145.101 36.2024 145.035 36.2351 144.977C36.1959 145.114 36.7448 145.101 36.0848 145.16Z" fill="#C6B08D"/>
<path d="M49.9789 146.383C49.9789 146.436 49.9985 146.468 50.0508 146.501C50.0116 146.482 49.9789 146.462 49.9397 146.436C49.9397 146.403 49.9528 146.383 49.9789 146.377V146.383Z" fill="#C6B08D"/>
<path d="M33.5332 169.09L32.9267 169.129C33.0962 169.109 33.3115 169.09 33.5332 169.09Z" fill="#C6B08D"/>
<path d="M9.53171 150.869L9.66895 150.85C9.6232 150.869 9.57092 150.876 9.53171 150.869Z" fill="#C6B08D"/>
<path d="M31.1318 169.146C31.0273 169.212 30.9096 169.258 30.792 169.284C30.7659 169.271 30.7397 169.258 30.7201 169.238L31.1318 169.146Z" fill="#C6B08D"/>
<path d="M40.1186 145.229C39.5704 145.216 39.8641 144.988 39.7466 144.844C39.081 144.773 39.4399 145.021 39.2115 145.145C38.8003 145.092 38.474 144.87 38.1608 144.903C38.1412 144.942 38.0825 144.962 38.1543 145.008C37.704 144.831 36.8425 145.086 36.3009 144.903C36.2617 144.929 36.2487 144.949 36.2421 144.968C36.3139 144.838 36.3139 144.714 36.2878 144.629C36.0333 144.655 35.7984 144.538 35.7201 144.701C35.8767 144.675 35.8963 144.74 35.9746 144.779L35.7005 144.746C35.4916 145.001 36.0725 144.779 36.092 144.949C35.57 144.936 34.9369 144.831 34.5519 144.962C34.5062 145.19 35.4851 144.903 34.9891 145.171L35.5895 145.001C35.1719 145.406 35.955 144.929 35.5765 145.353C34.7868 145.53 34.6694 145.366 33.8797 145.562C33.6774 145.471 33.9058 145.373 33.71 145.282C32.5288 145.269 32.9204 145.993 32.0263 145.862C31.7783 145.758 31.6413 145.503 31.0735 145.771L31.328 145.973C30.558 146.163 30.8125 145.712 30.0294 146.052C30.1925 146.117 30.6559 145.999 30.5449 146.052C30.062 146.358 30.1403 145.993 29.7357 146.084L29.6965 146.319C28.8612 146.469 27.9149 146.515 26.9882 146.678C27.0535 146.73 27.2232 146.763 27.0274 146.88C25.8462 147.031 24.5606 147.455 23.4707 147.827L23.0008 147.735C22.9029 147.762 22.8377 147.859 22.9486 147.872C22.531 148.042 22.9029 147.761 22.6745 147.729C22.4265 147.768 22.3743 147.912 22.5375 147.931C21.7348 147.944 20.273 148.075 19.5094 148.453L19.6791 148.473C19.0656 148.688 18.8829 148.244 18.3347 148.551H18.4522C17.1013 148.943 15.5546 149.106 14.5692 149.621C14.3082 149.393 13.2444 150.039 13.0682 149.687C12.3308 150.046 12.5657 150.059 11.515 150.444C11.2344 150.535 11.0256 150.313 10.6667 150.372L10.7123 150.568L10.1772 150.496L9.99448 150.803L9.65512 150.848C9.77912 150.796 9.90311 150.679 9.87048 150.633C9.32883 150.692 8.68274 151.162 8.70885 151.266C8.30424 151.351 7.89962 151.455 7.50154 151.56C7.56027 151.625 7.76258 151.566 7.93226 151.56C7.24702 151.625 7.89963 151.788 7.28618 151.873C7.33839 151.795 7.19482 151.782 7.16871 151.755C6.94683 151.99 6.35948 152.297 5.92224 152.525L6.07886 152.591C5.361 153.08 4.55177 153.615 3.95791 154.372C4.12758 154.072 3.89917 153.974 3.69034 154.183L3.78823 154.405C3.5794 154.477 3.89917 154.105 3.54677 154.327C3.35099 154.646 3.6055 154.666 3.77518 154.542L3.46193 154.862C3.50109 154.914 3.58593 154.849 3.67076 154.875C3.44888 154.953 3.50761 155.612 3.18131 155.73L3.23352 155.775C3.08342 156.213 2.92027 156.513 2.85501 156.826C2.80933 156.983 2.76365 157.126 2.71797 157.283C2.69186 157.446 2.67228 157.616 2.64618 157.805C2.46998 157.805 2.45692 158.112 2.3264 158.353C2.38513 158.954 2.58091 159.587 2.74407 160.278C2.77017 160.787 2.6266 160.461 2.57439 160.709C2.73102 160.709 2.95942 161.388 2.9529 160.996C3.07689 161.407 3.15521 161.675 3.27268 161.956C3.32488 162.099 3.37709 162.256 3.43583 162.439C3.50761 162.615 3.59245 162.824 3.69687 163.085C3.5794 163.013 3.48803 162.908 3.46845 162.993C3.54677 163.189 3.7556 163.365 3.80781 163.3L3.79475 163.241C3.89917 163.541 4.10148 163.822 4.31031 164.096C4.53872 164.357 4.81282 164.592 5.0608 164.827C5.3349 165.042 5.59594 165.251 5.82435 165.46C6.06581 165.656 6.25507 165.858 6.38559 166.087L6.35296 166.034C6.56832 166.302 6.81631 166.543 7.05124 166.804C7.46238 167.039 6.88809 166.543 7.23397 166.654C7.61248 167.059 7.99099 167.294 8.37603 167.451C8.74801 167.633 9.12652 167.751 9.51155 168.031C9.94227 167.933 10.51 168.175 11.1431 168.39C11.763 168.619 12.4417 168.827 12.9508 168.769L12.8725 168.873C13.0943 169.036 13.1792 168.873 13.3684 168.873C13.3228 168.958 13.0813 168.925 13.2249 169.017C15.3197 169.552 17.6626 169.363 19.8879 169.252C20.7037 169.219 20.3578 169.852 21.3954 169.565L21.0952 169.356C22.7594 169.591 24.5084 169.271 26.1529 169.447C26.055 169.402 26.0485 169.337 25.8919 169.343C26.2312 169.18 27.171 169.304 27.1775 169.434C27.432 169.415 27.2362 169.317 27.3863 169.252C27.7322 169.154 28.2608 169.428 28.4435 169.271C28.4762 169.245 28.3457 169.226 28.2804 169.213C28.5088 169.284 29.3311 169.167 29.1222 169.356C29.7357 169.252 30.3035 169.408 30.7864 169.291C31.1127 169.487 31.8371 169.167 31.948 169.454C31.8958 169.16 33.0183 169.186 33.4098 169.317C33.2793 169.232 33.7427 169.219 33.5926 169.095C34.0363 169.089 34.4475 169.134 34.3692 169.284C35.1784 168.912 36.0203 169.526 36.4706 169.062C37.7953 169.186 39.0157 169.265 40.2034 169.304C40.1512 169.01 38.8917 169.304 38.9374 168.997C40.0664 169.089 40.719 169.33 41.8349 169.226C42.1221 169.18 41.6653 169.102 41.5674 169.056C42.6964 169.147 43.7405 168.978 44.7455 169.108C44.7455 169.082 44.6346 169.056 44.5302 169.036C44.726 169.036 44.987 168.984 44.9674 169.115L44.7716 169.082C44.4649 169.284 45.5613 169.467 45.6005 169.571C45.2546 169.199 46.5859 169.454 46.0442 168.978C46.1747 168.997 46.3379 169.056 46.3118 169.147C46.501 169.115 46.5663 169.062 46.364 168.965C47.0688 169.017 46.8273 169.167 47.4669 169.147C47.4669 169.082 47.3364 169.062 47.2646 168.984C47.5909 169.102 47.9172 169.219 48.4523 169.147C48.4197 169.108 48.4784 169.056 48.3218 169.062C49.2354 169.049 49.9076 169.337 50.8996 169.108C50.5733 168.86 51.2259 168.978 51.2455 168.73C51.4217 168.73 51.6044 168.73 51.7806 168.73L51.5913 168.88C52.0482 168.808 52.4919 168.899 52.8639 168.736L52.505 168.71C52.7921 168.671 53.0727 168.606 53.3599 168.553L52.9031 168.762C53.3925 168.762 52.9292 169.075 53.523 168.847C53.3925 168.86 53.9799 168.71 54.1626 168.488C54.4041 168.488 54.6651 168.475 54.9588 168.273C55.011 168.168 54.7826 168.057 54.8152 167.986C55.1154 168.09 55.7876 167.548 56.1335 167.561C56.029 167.574 55.9507 167.464 55.9638 167.431L56.2118 167.457C56.3553 167.287 56.3619 167.248 56.277 167.189C56.76 166.778 56.3162 167.575 56.8122 166.974C56.76 167.007 56.7665 166.968 56.6555 167.026C57.1972 166.498 57.7911 166.06 58.1304 165.434C58.0456 165.134 57.7193 165.891 57.6932 165.578C58.3131 164.834 59.0114 163.94 59.2464 162.961C59.2398 163.026 59.2333 163.085 59.2203 163.143C59.5857 163.111 59.279 162.386 59.5205 161.936C59.4748 162.053 59.2986 162.053 59.3443 162.027C59.4291 161.362 59.6706 160.69 59.8337 159.645L59.7358 159.769C59.6706 159.365 59.7162 158.706 59.651 158.275C59.7358 158.144 59.7097 157.89 59.8468 158.04C59.5596 157.381 59.5531 156.748 59.5466 156.115C59.527 155.488 59.4944 154.862 59.1615 154.327C59.1876 154.47 59.1615 154.679 59.1354 154.568C59.0963 154.229 59.031 153.896 58.9723 153.563C59.1419 153.602 59.0963 153.668 59.2659 153.85C59.3182 153.7 59.3116 153.4 59.2398 153.152C59.2725 153.628 59.0049 153.211 58.8679 153.054C58.9201 153.074 58.9527 152.995 58.9984 152.995C58.5742 152.571 59.2659 152.813 58.8418 152.18L58.783 152.245C58.7243 151.977 58.7178 151.703 58.5611 151.442C58.3523 151.41 58.6199 151.736 58.4893 151.814C58.3392 151.449 58.4176 150.933 58.0586 150.711C58.1174 150.881 58.2479 151.096 58.287 151.273C57.9151 151.025 57.9346 150.972 57.7454 150.75L57.765 150.77C57.6149 150.607 57.4517 150.457 57.282 150.313L57.4321 150.405C57.4517 150.072 57.2755 149.863 57.0667 149.68C56.8513 149.497 56.6033 149.334 56.388 149.014C56.7926 149.628 56.388 149.21 56.3292 149.406C56.1596 149.354 55.905 149.276 55.9377 149.36C55.7419 149.06 55.4221 149.21 55.1219 148.799C55.0762 148.845 54.8021 148.649 54.8021 148.825C54.4367 148.597 54.9392 148.767 54.9457 148.682C54.4432 148.199 53.4121 148.257 52.6681 147.579C51.9633 147.115 51.9176 146.854 51.265 146.437C50.9844 146.417 51.3629 146.737 51.3629 146.737C50.9453 146.646 50.6646 146.495 50.3383 146.261C50.3906 146.345 50.2927 146.352 50.1556 146.365C49.875 146.215 50.0577 146.065 49.6401 145.973C49.6727 146.065 49.7118 146.208 49.8228 146.339C49.5095 146.13 49.2224 145.862 48.8961 145.647C48.759 145.706 49.0397 145.902 49.131 146.019C48.759 145.791 48.1521 145.451 48.0999 145.236L48.3805 145.295C48.2435 145.223 48.2435 145.399 48.3349 145.477C48.6155 145.758 48.8504 145.647 48.8961 145.601L48.6612 145.445C49.0788 145.229 49.6401 145.967 50.1556 146.182L50.0577 145.836L50.4819 146.28C50.619 146.267 50.7625 146.163 50.5276 146.013C50.9453 146.058 50.8082 146.247 51.1802 146.261C51.2259 146.261 51.2128 146.234 51.1867 146.215L51.5065 146.45C51.4608 146.365 51.6436 146.306 51.4151 146.241C52.1134 146.391 52.3484 146.9 52.6747 146.828L52.629 146.789C53.4708 147.279 52.629 147.011 53.1902 147.527L53.8428 147.285V147.507C53.9407 147.54 54.1234 147.611 54.1234 147.527C54.4041 147.807 54.0321 147.579 54.1691 147.788C54.6847 147.827 55.3308 148.427 55.5722 148.199C55.6571 148.414 55.1089 148.094 55.52 148.421C55.8072 148.186 56.0225 148.74 56.4728 148.845C56.4532 148.623 56.029 148.479 56.5054 148.577C56.5772 148.962 57.2886 149.014 57.5496 149.341C57.406 149.524 58.1108 150 58.3849 150.6C58.4045 150.561 58.6003 150.796 58.8156 151.122C59.0245 151.449 59.2398 151.86 59.3834 152.127L59.416 152.095C59.2398 152.291 59.4813 152.845 59.5466 153.289C59.6836 153.23 59.7097 153.139 59.7032 152.891L59.8207 153.296C59.775 153.413 59.7684 153.55 59.8076 153.818L59.9577 153.674C60.0817 154.216 60.0099 154.803 60.2514 155.482C60.0947 155.547 59.6967 155.018 59.7162 155.762C59.8076 155.775 59.9642 155.775 59.9708 155.58C59.9708 155.645 59.9381 155.815 59.9969 155.939L60.0947 155.619C60.2122 155.926 60.0034 155.802 60.0556 156.056C60.1796 156.03 60.1731 156.232 60.271 156.18C60.271 156.115 60.1926 155.965 60.2187 155.86C60.2905 156.141 60.4015 156.487 60.5189 156.591C60.4406 156.572 60.3493 156.611 60.3558 156.826C60.4015 157.374 60.5255 156.996 60.6234 157.316C60.545 157.459 60.669 157.805 60.4798 157.825C60.4863 157.988 60.5777 158.014 60.6299 158.073C60.5711 158.366 60.6299 159.423 60.4211 159.097L60.408 159.025C60.408 159.025 60.408 159.058 60.4015 159.071C60.2187 159.998 60.4276 161.022 60.16 161.936L60.2253 161.949C60.1404 162.217 60.0621 162.517 59.9642 162.797C59.8729 163.072 59.775 163.326 59.6314 163.489C59.5792 163.646 59.6118 163.894 59.7032 163.855C59.5205 164.246 59.4095 164.246 59.2529 164.866C59.54 164.52 59.279 165.049 59.5139 164.494C59.3377 165.036 59.3443 165.199 58.8874 165.636C59.0114 165.591 59.0049 165.715 58.9331 165.871C58.8548 166.021 58.7178 166.211 58.6133 166.308L58.7569 165.91C58.5546 166.139 58.4241 166.374 58.2544 166.589L58.522 166.615C58.3784 166.883 58.1826 167.098 57.9803 167.287C57.7715 167.47 57.53 167.594 57.3147 167.731C56.8774 167.999 56.4598 168.181 56.1857 168.606C55.8398 168.638 56.6816 168.175 56.3423 168.175C55.9181 168.488 55.5461 169.017 55.383 169.089C54.7369 169.506 54.6259 169.075 53.9277 169.389C53.9994 169.284 54.019 169.069 53.4708 169.154C52.9814 169.31 52.9227 169.63 53.262 169.604C53.386 169.578 53.4382 169.539 53.4317 169.513C53.6014 169.5 53.8298 169.474 53.6536 169.604L53.5687 169.545C53.3338 169.695 52.6159 169.846 52.8117 169.93C52.4006 169.943 52.6159 169.839 52.9031 169.741C52.257 169.996 51.8589 169.937 51.1802 170.107C51.2846 170.054 51.376 169.943 51.265 169.963C50.2666 170.165 50.8082 169.865 50.1295 169.891C49.751 170.041 50.2861 170.165 49.5944 170.113C49.1832 170.218 49.5161 170.322 49.6857 170.374C49.0527 170.263 48.5241 170.531 48.1652 170.57L48.498 170.622C48.3022 170.59 48.1391 170.596 47.9759 170.603L48.1587 170.439C47.9694 170.472 47.8063 170.479 47.8128 170.544C47.6105 170.446 47.9563 170.283 47.5648 170.152C47.3103 170.237 46.7882 170.087 46.7099 170.296C47.5061 170.204 46.625 170.505 47.3037 170.518C47.1732 170.498 47.0166 170.498 46.8208 170.531C46.7947 170.557 46.8469 170.57 46.8991 170.583C46.1421 170.785 46.5402 170.361 45.7506 170.381C45.855 170.492 45.5744 170.603 45.4438 170.583C45.7636 170.57 45.5939 170.387 45.2937 170.302C44.7912 170.407 44.739 170.25 44.478 170.263L44.7782 170.211C44.6738 170.1 44.4192 170.12 44.0668 170.094C44.0407 170.185 44.3866 170.146 44.2626 170.191C43.8645 169.996 43.3816 170.426 42.8269 170.302C42.5724 170.387 42.8073 170.518 42.5854 170.576C41.9655 170.439 41.9263 170.753 41.2802 170.642C41.463 170.479 41.4956 170.518 41.0388 170.381L42.1025 170.466L41.4173 170.257C41.737 170.244 42.096 170.335 42.2852 170.309C41.9589 170.191 41.9916 170.231 42.1417 170.094C41.7109 170.335 41.2737 169.976 40.7712 170.152L40.7973 170.537C40.0403 170.727 39.4399 170.374 38.4545 170.492L38.7677 170.42C38.6307 170.27 38.1543 170.42 37.8345 170.361C37.8671 170.492 37.6713 170.544 37.5343 170.622C37.5473 170.524 36.8099 170.648 36.7185 170.394L36.2813 170.576C35.4851 170.668 35.3611 170.231 34.5976 170.296C34.8325 170.433 34.4866 170.531 35.0022 170.616C34.7477 170.622 34.5193 170.655 34.5127 170.563C34.3626 170.648 33.8014 170.407 33.5665 170.537C33.4555 170.485 33.4164 170.348 33.1292 170.368C33.0966 170.394 33.1292 170.433 33.1292 170.433C33.1292 170.368 32.6789 170.355 32.9269 170.211C32.1503 170.635 30.7211 170.237 30.0424 170.596C29.4812 170.563 28.809 170.544 28.3 170.544C28.3326 170.583 28.3 170.609 28.3979 170.59C27.6996 170.727 27.9606 170.231 27.1644 170.381C26.7598 170.596 27.5886 170.485 27.3406 170.57C27.2428 170.994 26.3813 170.537 25.8462 170.798L25.9767 170.818C25.5721 170.975 24.9717 170.681 24.306 170.727C24.306 170.727 24.3387 170.766 24.306 170.792C23.8427 170.59 22.9747 170.537 22.3287 170.492C22.531 170.655 22.6223 170.57 22.5049 170.746C22.2177 170.727 22.5832 170.472 22.0089 170.439C21.8262 170.531 21.4085 170.622 21.3563 170.798H21.9045C21.6304 171.033 21.1997 170.805 20.9125 170.844L20.9517 170.948C20.1098 170.922 20.1033 170.668 19.2027 170.681L19.2941 170.603C18.8046 170.342 18.8764 170.74 18.3935 170.537L18.2368 170.792C17.9105 170.72 17.1078 170.505 16.527 170.413C16.8403 170.629 17.519 170.759 17.9432 170.89C17.6169 170.877 16.8403 170.824 16.6836 170.681C16.8142 170.714 16.9708 170.792 17.1013 170.759C16.7163 170.524 16.2072 170.407 15.5677 170.342C15.633 170.864 13.884 170.283 13.3619 170.563C12.259 170.178 11.0843 170.172 9.79217 169.682C10.3795 169.487 9.42019 169.532 9.64207 169.186C9.36145 169.056 9.24399 169.017 9.21136 169.03L8.23898 168.86C7.98446 168.86 8.47391 169.069 8.41518 169.134C7.76258 168.867 8.07583 169.16 7.60595 169.043C7.75605 168.958 7.48196 168.756 7.10345 168.599C7.29923 168.651 7.49501 168.671 7.69079 168.71C7.30576 168.397 7.0904 168.345 6.85546 168.305C6.63358 168.253 6.37254 168.234 6.03971 167.829L6.22244 168.123C6.03971 167.927 5.64162 167.653 5.29574 167.313C4.96291 166.968 4.64314 166.609 4.59746 166.308C4.50609 166.276 4.34294 166.263 4.47346 166.446C3.54677 165.584 3.00511 164.135 2.41776 163.391L2.37861 163.522C2.29377 163.306 2.33945 163.091 2.14367 162.869C2.11104 162.902 2.09146 162.993 2.04578 162.902C2.03273 162.771 1.94136 162.282 1.79127 162.014C1.78474 162.112 1.77822 162.204 1.78474 162.295C1.63465 162.027 1.56286 161.766 1.4976 161.525C1.43234 161.283 1.40623 161.055 1.40623 160.827C1.40623 160.605 1.3997 160.383 1.39318 160.161C1.39318 159.939 1.41276 159.704 1.39318 159.456C1.25613 159.476 1.11256 159.254 1.04077 158.954C0.968987 158.653 0.923305 158.288 0.903727 158.04L0.864573 158.053C0.903729 156.572 1.4976 155.599 2.21546 154.509C2.25462 154.059 2.63965 153.459 3.13563 152.871C3.64466 152.297 4.27116 151.762 4.76714 151.325C4.63662 151.488 4.91723 151.481 5.12606 151.383C5.35447 151.168 5.93529 151.116 5.76562 150.92L5.67425 150.979C5.74604 150.646 6.33338 150.398 6.77062 150.196L6.98598 150.476C7.44933 150 8.23898 149.732 8.95684 149.563C9.6747 149.386 10.3208 149.276 10.5883 148.969C10.8951 148.982 11.2475 148.891 11.5477 148.904L11.4889 148.727C12.2655 148.492 12.6571 148.388 13.6295 148.218L13.4011 148.133C13.9427 148.003 14.2038 148.499 14.7063 148.401L14.7976 148.101C15.7504 147.892 16.6575 147.448 17.6495 147.481C17.6234 147.442 17.5777 147.37 17.4211 147.396C17.8649 147.292 19.1113 146.828 19.033 147.239C18.9939 146.998 20.0054 146.998 20.5471 146.991L20.4296 146.835C20.9125 146.965 20.9386 147.024 21.5586 146.952C21.6956 146.9 21.65 146.783 21.4738 146.867C21.9306 146.672 21.8849 146.952 22.4396 146.73L22.1981 146.665C22.6876 146.541 22.6615 146.613 22.9617 146.685C23.288 146.685 23.8819 146.437 23.921 146.254C24.0058 146.339 24.306 146.411 24.5867 146.3C24.6128 146.228 24.4953 146.215 24.4431 146.208C25.2393 145.908 25.7091 146.143 26.2377 145.843C26.2377 145.784 26.2639 145.745 26.3095 145.719C25.6569 145.869 25.1348 145.993 25.1871 145.993C25.1479 145.83 25.67 145.686 25.2001 145.549C25.6504 145.582 26.4335 145.686 26.9295 145.497C26.9491 145.477 26.9687 145.458 26.9817 145.425H26.923C27.0404 145.373 27.1449 145.366 27.2558 145.373C27.4124 145.308 27.5168 145.269 27.6735 145.229C27.7061 145.079 28.2608 145.021 28.5219 144.955C28.5414 145.138 28.8808 145.034 28.5871 145.256C28.6263 145.236 28.5349 145.242 28.3587 145.275C28.3196 145.275 28.2739 145.288 28.2412 145.275L28.2608 145.288C28.0846 145.321 27.8627 145.366 27.6017 145.419C27.8301 145.464 28.065 145.49 28.3326 145.327C28.4958 145.412 28.6654 145.497 28.7633 145.536C29.07 145.21 29.7357 144.916 29.7944 144.746C30.6232 144.668 31.7131 144.407 32.2939 144.649C32.5354 144.649 32.5419 144.498 32.6137 144.433C32.4766 144.427 32.3135 144.459 32.2352 144.427C32.7116 144.427 33.6122 144.205 33.7688 144.427C34.3365 144.218 33.4033 144.264 34.2125 144.166L34.0886 144.113C35.6417 143.48 36.7446 144.342 38.4871 143.768C38.3631 143.8 38.3044 143.82 38.2783 143.865C39.2898 143.709 40.3535 143.774 41.3977 143.898C42.4484 144.022 43.4664 144.218 44.4976 144.303C45.0784 144.388 45.098 144.557 45.3916 144.773L45.5678 144.622C45.7375 144.76 45.9007 144.89 46.0638 145.034C46.7817 145.484 47.6366 145.145 48.4523 145.967L48.2631 146.013C48.622 146.176 49.2616 146.73 49.2942 146.567C49.3138 146.613 49.3268 146.743 49.4834 146.783L49.5552 146.704C49.7771 146.946 49.999 147.174 50.2013 147.435C50.8082 147.872 50.3971 147.024 51.2128 147.781C51.4869 148.101 51.7806 148.851 51.6305 148.773C51.5196 148.656 51.3042 148.505 51.2194 148.571L51.4217 148.877C51.2389 149.125 51.1606 149.51 50.4558 149.041C50.3775 148.851 50.2731 148.682 50.1817 148.499L49.9468 148.479L50.2861 148.825C49.9925 148.734 49.9598 148.525 49.8685 148.329C49.7836 148.355 49.6857 148.349 49.5813 148.297C49.503 148.101 49.4247 147.899 49.3268 147.709C49.2028 147.761 49.3855 148.049 49.0397 147.872C48.9091 147.605 49.4051 147.814 49.1049 147.474C48.7982 147.416 48.7982 147.566 48.5959 147.285C48.5176 147.324 48.5437 147.403 48.6351 147.507C48.4523 147.266 48.0151 147.057 47.9629 146.848C47.6366 146.835 47.108 146.345 47.0101 146.613C46.9644 146.509 46.6381 146.195 46.3966 146.071C46.7164 146.574 45.4504 145.712 45.4438 146.123C45.2089 145.706 44.243 145.595 43.6557 145.295C43.6883 145.327 43.7471 145.393 43.8058 145.393C43.4469 145.327 43.3229 145.412 43.0814 145.425C43.0814 145.158 42.5332 145.008 42.2461 144.812C41.7697 144.994 42.4745 145.145 42.2983 145.366C42.3505 145.158 41.5543 145.066 41.724 144.91C41.3651 145.021 41.4238 144.949 41.228 145.151C41.1954 144.831 40.9148 145.073 40.6407 144.857C40.1316 144.994 40.4971 145.151 39.9554 145.034C39.6944 145.125 40.1773 145.256 40.1773 145.256L40.1186 145.229ZM26.9752 146.626C27.0861 146.606 27.184 146.593 27.2493 146.58C27.1905 146.587 27.1122 146.606 26.9752 146.626ZM25.8658 146.867C25.9963 146.828 26.166 146.796 26.3422 146.756C26.3683 146.685 26.3095 146.632 26.1986 146.659C26.2704 146.685 26.0159 146.783 25.8592 146.867H25.8658ZM27.928 145.112C27.7453 145.125 27.6996 145.171 27.68 145.216C27.7648 145.203 27.8627 145.184 27.9932 145.171C27.9998 145.171 28.0128 145.184 28.0194 145.19C27.9932 145.158 27.9671 145.132 27.928 145.118V145.112Z" fill="#C6B08D"/>
<path d="M28.3002 145.273C28.3002 145.273 28.3394 145.273 28.3721 145.273C28.3394 145.3 28.3067 145.319 28.274 145.339C28.2479 145.326 28.2218 145.313 28.2022 145.293C28.2348 145.293 28.2675 145.28 28.3002 145.273Z" fill="#C6B08D"/>
<path d="M60.3818 159.091V159.117C60.3818 159.117 60.3687 159.078 60.3622 159.064C60.3687 159.078 60.3753 159.078 60.3818 159.091Z" fill="#C6B08D"/>
<path d="M10.7378 150.62L10.7246 150.574L10.8301 150.587L10.7378 150.62Z" fill="#C6B08D"/>
<path d="M58.8418 153.061C58.8418 153.061 58.8026 153.035 58.7699 153.002C58.783 153.002 58.8091 153.028 58.8418 153.061Z" fill="#C6B08D"/>
<path d="M57.7256 150.755L57.4576 150.514C57.5818 150.612 57.6602 150.69 57.7256 150.755Z" fill="#C6B08D"/>
<path d="M56.2964 149.498C56.2964 149.458 56.2964 149.432 56.3096 149.412L56.2964 149.498Z" fill="#C6B08D"/>
<path d="M44.5303 169.036C44.5303 169.036 44.478 169.036 44.4519 169.036C44.2623 169.003 44.393 169.016 44.5303 169.036Z" fill="#C6B08D"/>
<path d="M54.1562 168.488C54.0517 168.488 53.9471 168.501 53.836 168.508C53.9929 168.449 54.1105 168.39 54.1562 168.488Z" fill="#C6B08D"/>
<path d="M33.5996 169.082L33.5334 169.089L33.5996 169.082Z" fill="#C6B08D"/>
<path d="M53.4177 168.639C53.568 168.554 53.7052 168.521 53.8359 168.508C53.7052 168.56 53.5549 168.625 53.4177 168.639Z" fill="#C6B08D"/>
<path d="M48.2568 145.712L48.1645 145.679C48.1645 145.679 48.1645 145.66 48.1645 145.646L48.2568 145.712Z" fill="#C6B08D"/>
<path d="M48.165 145.648L48.0727 145.582C48.1189 145.602 48.1584 145.622 48.165 145.648Z" fill="#C6B08D"/>
<path d="M47.8779 145.438L48.0674 145.575C47.9955 145.542 47.904 145.503 47.8779 145.438Z" fill="#C6B08D"/>
<path d="M50.7754 146.795V146.867C50.7754 146.867 50.7623 146.821 50.7754 146.795Z" fill="#C6B08D"/>
<path d="M51.5195 147.161C51.3304 147.089 51.0108 147.076 50.7761 146.926V146.867C50.8543 147.011 51.3956 146.978 51.5195 147.161Z" fill="#C6B08D"/>
<path d="M55.0176 147.884L54.3589 147.636C54.5024 147.623 54.685 147.603 54.4045 147.453C55.2915 147.636 54.1698 147.518 55.0176 147.884Z" fill="#C6B08D"/>
<path d="M57.007 148.896C56.6999 148.641 57.0724 148.811 57.0789 148.772C57.2488 148.981 57.2815 149.026 57.007 148.896Z" fill="#C6B08D"/>
<path d="M59.6709 164.025L59.8408 164.052C59.7167 164.333 59.782 164.032 59.6709 164.025Z" fill="#C6B08D"/>
<path d="M57.412 166.127L57.51 165.865H57.7061C57.6211 165.963 57.51 166.042 57.412 166.127Z" fill="#C6B08D"/>
<path d="M56.8839 168.207L57.0078 168.148C56.8513 168.233 56.7013 168.325 56.5448 168.403C56.6622 168.344 56.7665 168.272 56.8839 168.207Z" fill="#C6B08D"/>
<path d="M30.5971 170.766L30.6821 170.557C30.8781 170.589 30.9239 170.818 30.5971 170.766Z" fill="#C6B08D"/>
<path d="M19.2422 170.787C19.1183 170.891 18.7922 170.95 18.5965 170.845C18.8574 170.839 19.1118 170.76 19.2422 170.787Z" fill="#C6B08D"/>
<path d="M7.35735 150L7.10902 150.026L7.54688 149.908L7.35735 150Z" fill="#C6B08D"/>
<path d="M22.8952 67.8259L24.5267 69.0398L24.6899 69.1703C25.0684 68.7135 25.4338 68.3284 25.7471 68.0674L25.7667 67.095C24.9183 67.0624 24.4223 67.0559 24.4223 67.0559L24.6573 64.8631C24.0569 64.9806 23.6914 65.0654 23.6914 65.0654C23.6914 65.0654 22.4319 64.3998 21.7662 63.0685C21.1071 61.7437 23.0975 57.0971 22.8887 56.7186C22.719 56.3858 24.9705 49.6966 25.5905 47.8889L25.1467 47.8106L25.7471 41.3433L26.9609 40.9518C24.8335 35.5613 22.8952 30.6146 22.8952 30.6146L22.2818 30.3535L21.8772 31.2933C21.8772 31.2933 17.7919 32.5528 17.1262 34.5497C16.4671 36.5402 11.8206 51.1324 11.8206 51.798C11.8206 52.4637 9.16448 53.1228 9.16448 53.1228L11.0374 56.4445C11.0374 56.4445 9.83013 57.9521 9.16448 59.1855C8.49882 60.4189 9.16448 63.0685 9.16448 63.0685L15.325 65.209L21.3225 67.2908L22.8887 67.839L22.8952 67.8259Z" fill="#C7B96A"/>
<path d="M22.4457 88.1448L21.8714 92.1779L21.643 92.1452L19.6721 94.5207L19.1761 93.1437L18.7781 93.2155L18.0276 88.941L17.8775 88.0861H17.6752L16.5788 87.6097L15.7174 85.9912C15.6586 86.2588 13.8183 94.9253 13.9749 95.8781C14.1381 96.844 9.17176 112.161 11.1622 113.485C12.4413 114.34 18.7389 113.453 23.0852 112.702C25.5064 112.285 27.3271 111.913 27.3271 111.913C27.3271 111.913 26.4266 99.5588 25.7609 97.464C25.1018 95.3691 25.1018 95.5779 25.1018 95.5779C25.1018 95.5779 24.4361 86.2914 23.1113 84.3597L22.4196 84.2227C22.2499 85.0776 21.9889 85.9194 21.8192 86.435L21.9823 88.0861L22.4457 88.1513V88.1448Z" fill="#F5CF24"/>
<path d="M21.8122 86.431C21.9819 85.9154 22.2429 85.0736 22.4126 84.2187C22.6214 83.2202 22.7128 82.2021 22.4387 81.6474C22.2299 81.2363 21.9231 80.7599 21.5968 80.303C20.8855 79.298 20.0828 78.3713 20.0828 78.3713L20.3895 75.6108L21.3293 67.2771L15.3319 65.1953L16.4935 75.4085L16.2129 78.9978C15.6582 81.3603 15.3253 85.2563 15.3253 85.2563L15.7104 85.9742L16.5718 87.5991L17.6682 88.0755H17.8705L18.0206 88.9305L20.4156 87.5078L21.3423 86.9465H21.636C21.636 86.9465 21.7078 86.7508 21.8122 86.4245V86.431Z" fill="#C7B96A"/>
<path d="M22.3801 153.797C20.4223 152.831 18.8365 151.996 18.8365 151.996L18.4449 152.753C18.4449 152.753 19.7893 153.947 22.4454 155.168C25.1015 156.388 29.0823 159.253 32.2997 159.103C35.517 158.953 35.4648 157.746 35.4648 157.746V155.168L35.0798 154.985C33.7354 156.76 30.7726 157.4 28.0839 156.395C26.6025 155.833 24.3118 154.75 22.3866 153.791L22.3801 153.797Z" fill="#C7B96A"/>
<path d="M20.1085 147.846L18.8294 151.996C18.8294 151.996 20.4152 152.825 22.373 153.797C22.1707 153.562 21.9489 153.223 21.7661 152.76C21.5899 152.336 21.4398 151.807 21.3354 151.148C21.2179 150.384 21.244 149.445 21.368 148.453L20.102 147.846H20.1085Z" fill="#C7B96A"/>
<path d="M38.5068 84.3557C41.5218 84.9039 43.7668 85.2563 43.7668 85.2563L44.0213 83.2202C44.452 83.2398 47.4083 83.3312 49.9208 83.044C51.9047 82.8156 53.6146 82.3457 53.6211 81.419C53.6211 79.2459 49.7577 69.3524 49.6402 69.0392C47.9369 67.8971 30.7474 67.251 25.768 67.0879L25.7485 68.0603C25.4352 68.3213 25.0697 68.7063 24.6912 69.1632C23.0989 71.0818 21.1411 74.3318 20.3841 75.6044L20.0773 78.3649C20.0773 78.3649 20.88 79.2916 21.5914 80.2966L23.0989 80.3096C24.3193 81.53 31.8764 83.1223 37.5018 84.173C37.8477 84.2383 38.1805 84.297 38.5068 84.3557Z" fill="#C7B96A"/>
<path d="M31.1969 3.10068C29.598 2.36977 26.9158 1.29297 25.7477 1.01888C24.5665 0.738262 26.9028 3.66845 27.4249 4.308L26.2828 5.437C25.7542 5.60015 25.6824 5.97866 25.1473 6.55295C24.4229 7.33607 25.0885 9.00021 22.4324 9.82248C19.7764 10.6448 19.7764 11.9761 20.442 12.6417C21.1077 13.3009 23.7572 14.6322 23.7572 14.6322H25.1473C25.1473 14.6322 25.1277 14.1297 25.206 13.3857L25.7477 13.4379H29.7807L31.8103 7.91036C30.838 7.60364 30.1919 6.566 29.0694 6.01129C27.2552 5.10417 31.1512 4.46462 34.2119 4.43852L31.1969 3.09416V3.10068Z" fill="#C7B96A"/>
<path d="M21.3753 148.445C21.2578 149.437 21.2252 150.377 21.3426 151.141C21.4405 151.8 21.5906 152.328 21.7734 152.752C21.7734 152.752 23.1047 151.291 25.1538 150.299C25.1734 150.299 25.1865 150.279 25.2061 150.273L21.3753 148.445Z" fill="#C7B96A"/>
<path d="M21.3745 148.447L25.2053 150.274C27.2349 149.361 29.0687 152.61 28.7946 151.142C28.6576 150.411 29.5125 149.915 30.4131 149.589C29.9171 149.034 29.3102 148.414 28.6119 147.84C26.8238 146.378 26.4192 143.99 27.3263 142.332V141.229L22.993 140.707L22.8037 141.203L23.1105 141.32C22.621 142.782 21.6878 145.823 21.3811 148.447H21.3745Z" fill="#C7B96A"/>
<path d="M22.9796 140.713L27.3129 141.236L28.0699 141.327C28.0699 141.327 31.7245 128.079 32.997 123.374C34.2761 118.669 37.6893 88.9425 37.4674 84.3613L37.5 84.1851C31.8746 83.1409 24.3174 81.5485 23.0971 80.3216L21.5896 80.3086C21.9159 80.7654 22.2226 81.2418 22.4314 81.653C22.712 82.2077 22.6141 83.2257 22.4053 84.2242L23.0971 84.3613C24.4219 86.293 25.0875 95.5795 25.0875 95.5795C25.0875 95.5795 25.0875 95.3641 25.7466 97.4655C26.4123 99.5604 27.3129 111.914 27.3129 111.914C27.3129 111.914 25.4986 112.286 23.071 112.704L23.0971 112.847C24.4219 115.523 22.4314 140.655 22.4314 140.655L22.9796 140.72V140.713Z" fill="#C7B96A"/>
<path d="M32.9581 63.2911C35.4836 64.0285 38.6096 65.0531 39.0991 65.0531L39.1904 64.9944C37.4806 62.384 32.9385 55.5186 32.3903 54.4353C32.0379 53.737 29.3818 47.0543 26.9672 40.9395L25.7534 41.331L25.153 47.7983L25.5967 47.8766C24.9768 49.6908 22.7253 56.3735 22.895 56.7063C23.1038 57.0848 21.1134 61.7314 21.7725 63.0561C22.4381 64.3874 23.6977 65.0531 23.6977 65.0531C23.6977 65.0531 24.0631 64.9683 24.6635 64.8508C26.8106 64.4135 31.8748 63.4281 32.8406 63.6761L32.9516 63.2911H32.9581Z" fill="#C7B96A"/>
<path d="M27.3792 28.2002V28.1871C25.6303 28.4677 22.8959 28.9115 22.8959 28.9115L22.2824 30.3472L22.8959 30.6083C22.8959 30.6083 24.8406 35.5485 26.9616 40.9455C29.3762 47.0538 32.0323 53.7365 32.3847 54.4413C32.9329 55.5311 37.475 62.3965 39.1848 65.0004C39.5633 65.5747 39.8113 65.9467 39.8309 65.9924C39.981 66.2664 44.993 65.7183 45.7043 65.0591L46.9051 65.3659L46.9834 65.0591C46.9834 65.0591 38.3625 56.4383 37.0312 53.867C36.1959 52.2486 33.1221 42.701 30.9751 35.9009C29.7221 31.9396 28.7889 28.9115 28.7889 28.9115L28.7105 28.0762L27.3792 28.2002Z" fill="#C7B96A"/>
<path d="M21.7732 152.753C21.9559 153.216 22.1778 153.555 22.3801 153.79C24.3053 154.75 26.5959 155.833 28.0773 156.394C30.7661 157.406 33.7289 156.76 35.0732 154.985L31.6536 153.353V154.365L30.7856 152.942L25.2059 150.279C25.2059 150.279 25.1733 150.299 25.1537 150.305C23.1045 151.297 21.7732 152.759 21.7732 152.759V152.753Z" fill="#C7B96A"/>
<path d="M36.6717 27.2423H38.3554C38.3554 27.2423 39.0146 27.2423 40.3459 25.911C41.6772 24.5797 44.3267 13.9749 43.6611 10.6532C43.002 7.33798 39.0146 5.34755 37.0241 4.68189C36.4629 4.49916 35.4057 4.42085 34.2114 4.44043C31.1507 4.47306 27.2547 5.10608 29.0689 6.0132C30.1914 6.57444 30.8375 7.60555 31.8098 7.91227L29.7802 13.4398H25.7472L25.2055 13.3876C25.1272 14.1316 25.1468 14.6341 25.1468 14.6341H23.7567C23.7567 14.6341 22.4319 17.2836 22.4319 18.6149C22.4319 19.9463 23.7567 19.9397 25.7472 20.5597V23.2615C26.4128 25.2519 27.7441 25.911 30.3937 26.5767L30.2958 27.8819V27.9211H30.2828L28.71 28.0712L28.7883 28.9065C28.7883 28.9065 29.7215 31.9346 30.9745 35.8959C32.2079 37.2598 40.3524 36.5224 41.6446 35.8959H42.0948V31.282H41.6446C41.6446 31.282 41.0181 31.2167 39.8368 31.282C38.6622 31.3407 37.0307 29.2263 36.5673 27.9667L36.6783 27.2358L36.6717 27.2423Z" fill="#C7B96A"/>
<path d="M32.8411 63.6773C31.8752 63.4359 26.811 64.4148 24.664 64.852L24.429 67.0448C24.429 67.0448 24.925 67.0578 25.7734 67.0839C30.7527 67.2471 47.9423 67.8997 49.6456 69.0352C51.623 70.3469 49.6456 66.0593 49.6456 66.0593L48.8951 65.8701L46.9177 65.3676L45.7169 65.0609C45.0056 65.72 39.9936 66.2682 39.8435 65.9941C39.8174 65.9484 39.5759 65.5764 39.1974 65.0021L39.1061 65.0609C38.6166 65.0609 35.4906 64.0363 32.9651 63.2988L32.8541 63.6839L32.8411 63.6773Z" fill="#C7B96A"/>
<path d="M30.7785 152.936L31.6465 153.353V151.141C31.6465 151.141 31.1766 150.449 30.4065 149.588C29.5125 149.914 28.6576 150.417 28.7881 151.141C29.0687 152.609 27.2349 149.359 25.1988 150.273L30.7785 152.936Z" fill="#C7B96A"/>
<path d="M30.7785 152.938L31.6465 154.367V153.355L30.7785 152.938Z" fill="#C7B96A"/>
<path d="M31.6462 151.149V153.361L35.0658 154.993C35.105 154.947 35.1441 154.895 35.1768 154.836L33.493 152.754L31.6397 151.143L31.6462 151.149Z" fill="#C7B96A"/>
<path d="M30.9751 35.9011C33.1221 42.7012 36.1959 52.2553 37.0312 53.8672L42.0889 47.426V35.8945H41.6386C40.3529 36.521 32.2085 37.2585 30.9685 35.8945L30.9751 35.9011Z" fill="#C7B96A"/>
<path d="M52.4524 63.8436L55.611 66.8521C55.611 66.8521 58.9262 69.0318 61.641 67.5308C63.5923 66.4475 64.0752 64.2678 64.1992 62.558L63.638 58.7598H63.6249C63.3247 60.1955 62.9593 61.2984 62.5416 61.6574C60.9232 63.0605 58.9327 63.0605 58.9327 63.0605L56.9423 61.7357L56.2701 62.3817C55.3304 61.2527 54.5407 60.1433 54.2536 59.5103C54.0317 59.0209 54.3776 57.6504 54.9518 55.9993L56.2766 56.43L60.1596 47.8026L60.9166 47.4306C60.9166 47.4306 60.5773 45.5707 60.6295 43.7239L59.7093 43.7043C59.5462 43.5933 59.3439 43.3388 59.1416 43.0256H56.2766C56.2766 43.0256 51.6301 35.86 50.5207 34.3329C49.4178 32.7993 48.0799 33.739 48.0799 33.739L47.7406 32.2446L45.5935 29.6342C45.5935 29.6342 42.9962 28.4921 40.6403 28.8576V28.838L37.4752 29.3731L36.5615 27.9766C37.0314 29.2361 38.6564 31.3505 39.8311 31.2918C41.0123 31.2265 41.6388 31.2918 41.6388 31.2918H42.0891V47.4372L37.0314 53.8783C38.3627 56.4431 46.9836 65.0705 46.9836 65.0705L46.9053 65.3772L48.8826 65.8797C49.0197 65.8666 50.9579 65.6578 50.9579 63.8175C50.9579 63.6021 50.9383 63.2562 50.9188 62.8125L52.4459 63.8501L52.4524 63.8436Z" fill="#C7B96A"/>
<path d="M57.2804 149.302C56.8497 149.021 54.1022 147.357 52.1379 147.925C50.6304 148.355 50.663 149.856 50.6565 151.214C50.6565 151.781 50.6434 152.323 50.5129 152.754L50.4542 152.995C50.0365 152.93 49.5144 152.845 48.8814 152.754C45.4814 152.225 43.6606 151.958 42.0878 149.621C41.3112 149.125 41.1938 147.735 41.3373 145.967L39.5557 147.918C39.6797 148.629 41.6375 153.504 41.6375 153.504C41.6375 153.504 46.2318 154.797 49.9256 155.031C53.6193 155.266 59.5906 155.26 60.9154 154.274C61.816 153.596 61.5615 152.003 61.3004 151.057L60.2758 149.047L60.1584 149.106C60.1584 149.106 58.2658 147.97 57.3457 147.918C56.4255 147.872 59.1403 150.294 59.1403 150.294L57.3457 149.334C57.3457 149.334 57.313 149.308 57.2934 149.302H57.2804Z" fill="#C7B96A"/>
<path d="M41.9771 138.846C43.1648 139.075 45.1161 139.362 46.3038 138.983L47.72 136.458L47.9941 136.471C49.2471 127.856 51.5051 86.6642 49.9258 83.0488C47.4133 83.3425 44.4635 83.2446 44.0262 83.225L43.7717 85.2611C43.7717 85.2611 41.5268 84.9022 38.5118 84.3606C39.6864 88.981 40.9655 138.618 40.9655 138.618C40.9655 138.618 41.3702 138.722 41.9836 138.846H41.9771Z" fill="#C7B96A"/>
<path d="M41.3436 145.967C41.2 147.735 41.311 149.125 42.0941 149.628C43.0665 150.248 47.2301 150.764 50.6627 151.22C50.6627 149.863 50.6301 148.362 52.1442 147.931C54.1085 147.37 56.8559 149.028 57.2867 149.308C57.3128 149.321 57.3258 149.334 57.3389 149.341L55.6943 146.789C54.2521 146.306 52.7119 145.712 51.6286 145.06C48.9725 143.454 48.3069 142.678 46.9821 139.976L46.3034 138.991C45.1156 139.369 43.1643 139.088 41.9766 138.854L41.8265 139.943L42.0876 139.976C41.8787 142.006 41.4806 144.179 41.3371 145.973L41.3436 145.967Z" fill="#C7B96A"/>
<path d="M42.0886 149.629C43.6613 151.965 45.4821 152.233 48.8821 152.761C49.5152 152.859 50.0373 152.938 50.4549 153.003L50.5137 152.761C50.6442 152.331 50.6507 151.796 50.6572 151.221C47.2245 150.764 43.0609 150.249 42.0886 149.629Z" fill="#C7B96A"/>
<path d="M51.5969 16.6875L50.5592 18.7693L55.6104 19.2718V23.9183L55.5777 24.2577L57.4311 24.4143L57.4703 23.9183C57.5943 22.5935 57.4703 18.071 57.4703 18.071C57.4703 18.071 53.4698 16.9551 51.5969 16.6875Z" fill="#C7B96A"/>
<path d="M51.6296 23.9199L52.2887 25.9104L53.6266 25.9952L62.5346 26.5303L63.3242 26.576V24.9184L57.4312 24.4159L55.5778 24.2593L51.6296 23.9199Z" fill="#C7B96A"/>
<path d="M62.4692 29.7662L62.5344 29.3681V26.5293L53.6264 25.9941L54.9447 37.8519C54.9447 37.8519 55.3623 38.994 57.4768 39.751C57.4768 39.751 58.3708 41.8589 59.1409 43.0205C59.3497 43.3338 59.5455 43.5818 59.7087 43.6992L60.6288 43.7188C60.6484 43.001 60.7267 42.2766 60.916 41.6696C61.5816 39.5161 63.5721 39.8424 63.5721 38.5176C63.5721 38.3087 63.4742 38.0869 63.3176 37.8584L64.2377 37.1863C63.6308 35.9855 60.407 34.1256 59.8066 33.7862L61.3924 33.225C62.6062 33.9363 64.1529 34.8369 64.9034 35.2285L65.5625 33.871L66.9199 33.6948C66.6001 32.1482 66.1433 30.843 65.5625 30.5558C64.9556 30.2556 63.6765 29.9881 62.4757 29.7662H62.4692Z" fill="#C7B96A"/>
<path d="M54.9513 56.0082C54.377 57.6593 54.0311 59.0298 54.253 59.5192C54.5402 60.1457 55.3298 61.2617 56.2696 62.3907L56.9417 61.7446L58.9322 63.0694C58.9322 63.0694 60.9226 63.0694 62.5411 61.6663C62.9587 61.3008 63.3177 60.2045 63.6244 58.7687C64.4989 54.6573 64.91 47.8116 64.91 47.8116L65.5691 46.4868C65.5691 46.4868 67.5596 41.1746 67.5596 39.1842C67.5596 38.0682 67.3507 35.6862 66.9331 33.7023L65.5757 33.8785L64.9165 35.2359C64.166 34.8443 62.6194 33.9503 61.4055 33.2324L59.8197 33.7937C60.4201 34.133 63.644 35.9929 64.2509 37.1937L63.3307 37.8659C63.4939 38.0943 63.5852 38.3162 63.5852 38.525C63.5852 39.8498 61.5948 39.5235 60.9291 41.6771C60.7464 42.284 60.6616 43.0084 60.642 43.7263C60.5898 45.5731 60.9291 47.433 60.9291 47.433L60.1721 47.805L56.2891 56.4324L54.9643 56.0017L54.9513 56.0082Z" fill="#C7B96A"/>
<path d="M55.688 146.782L57.3325 149.334L59.1272 150.299C59.1272 150.299 56.4123 147.878 57.3325 147.924C58.2527 147.976 60.1452 149.112 60.1452 149.112L60.2627 149.053L59.6949 147.924C59.6949 147.924 57.7893 147.474 55.6814 146.775L55.688 146.782Z" fill="#C7B96A"/>
<path d="M34.2956 27.2423H38.3613C38.3613 27.2423 39.0204 27.2423 40.3517 25.911C41.683 24.5797 44.3326 13.9749 43.667 10.6532C43.0078 7.33798 39.0204 5.34755 37.03 4.68189C36.4688 4.49916 35.4115 4.42085 34.2173 4.44043C31.1566 4.47306 27.2605 5.10608 29.0748 6.0132C30.1972 6.57444 30.8433 7.60555 31.8157 7.91227C31.9919 7.97101 32.1812 8.00364 32.3835 8.00364" stroke="#4F4131" stroke-linecap="round" stroke-linejoin="round"/>
<path d="M30.3936 26.575C27.744 25.9093 26.4127 25.2502 25.747 23.2598" stroke="#4F4131" stroke-linecap="round" stroke-linejoin="round"/>
<path d="M25.7539 20.5565C23.7635 19.9365 22.4387 19.9365 22.4387 18.6117C22.4387 17.287 23.7635 14.6309 23.7635 14.6309H26.2891" stroke="#4F4131" stroke-linecap="round" stroke-linejoin="round"/>
<path d="M28.0703 6.55273C27.744 6.6702 26.4127 8.81726 25.747 10.7294C25.4207 11.6887 25.2707 12.6546 25.2054 13.392C25.1271 14.136 25.1467 14.6385 25.1467 14.6385" stroke="#4F4131" stroke-linecap="round" stroke-linejoin="round"/>
<path d="M25.7537 13.4442H29.7868L31.8164 7.91016" stroke="#4F4131" stroke-linecap="round" stroke-linejoin="round"/>
<path d="M31.8164 3.39435C31.6402 3.30299 31.4314 3.21162 31.1964 3.10068C29.5976 2.36977 26.9154 1.29297 25.7472 1.01888C24.566 0.738262 26.9023 3.66845 27.4244 4.308C27.4897 4.39283 27.5223 4.43199 27.5223 4.43199" stroke="#4F4131" stroke-linecap="round" stroke-linejoin="round"/>
<path d="M27.0791 5.3457C26.7267 5.3457 26.4722 5.37833 26.2829 5.43707C25.7543 5.60022 25.6825 5.97873 25.1474 6.55302C24.423 7.33614 25.0887 9.00028 22.4326 9.82255C19.7765 10.6448 19.7765 11.9761 20.4421 12.6418C21.1078 13.3009 23.7574 14.6322 23.7574 14.6322" stroke="#4F4131" stroke-linecap="round" stroke-linejoin="round"/>
<path d="M38.5714 15.1162C39.0739 14.9205 41.1035 14.1504 41.1035 14.1504" stroke="#4F4131" stroke-linecap="round" stroke-linejoin="round"/>
<path d="M34.2109 14.5879C33.7345 14.6075 31.7898 13.498 31.7898 13.498" stroke="#4F4131" stroke-linecap="round" stroke-linejoin="round"/>
<path d="M37.9121 17.5938C37.6902 17.9527 38.3559 19.9366 37.0246 19.9366" stroke="#4F4131" stroke-linecap="round" stroke-linejoin="round"/>
<path d="M37.9121 22.4766C37.0246 23.2597 33.6115 23.0182 32.998 22.4766" stroke="#4F4131" stroke-linecap="round" stroke-linejoin="round"/>
<path d="M53.6266 25.9952L52.2887 25.9104L51.6296 23.9199L55.5778 24.2593L57.4312 24.4159L63.3242 24.9184V26.576L62.5346 26.5303L53.6266 25.9952Z" stroke="#4F4131" stroke-linecap="round" stroke-linejoin="round"/>
<path d="M53.6267 25.9941L54.945 37.8519C54.945 37.8519 55.3627 38.994 57.4771 39.751C59.5915 40.508 61.0664 39.751 61.0664 39.751" stroke="#4F4131" stroke-linecap="round" stroke-linejoin="round"/>
<path d="M62.5352 26.5742V29.3674" stroke="#4F4131" stroke-linecap="round" stroke-linejoin="round"/>
<path d="M57.4703 23.9185C57.5943 22.5937 57.4703 18.0712 57.4703 18.0712C57.4703 18.0712 53.4698 16.9552 51.5969 16.6876C51.3423 16.655 51.1205 16.6289 50.9638 16.6289" stroke="#4F4131" stroke-linecap="round" stroke-linejoin="round"/>
<path d="M50.9638 17.5938L50.5592 18.7684L55.6104 19.2775V23.9175" stroke="#4F4131" stroke-linecap="round" stroke-linejoin="round"/>
<path d="M59.7088 29.3672C59.7088 29.3672 61.0401 29.5238 62.4693 29.7653C63.6766 29.9872 64.9492 30.2613 65.5561 30.5549C66.1369 30.8486 66.5938 32.1538 66.9135 33.6939C67.3377 35.6778 67.54 38.0598 67.54 39.1758C67.54 41.1662 65.5496 46.4784 65.5496 46.4784" stroke="#4F4131" stroke-linecap="round" stroke-linejoin="round"/>
<path d="M64.8975 47.8027C64.8975 47.8027 64.4863 54.6485 63.6118 58.7599C63.3116 60.1957 62.9462 61.2985 62.5285 61.6575C60.9101 63.0606 58.9196 63.0606 58.9196 63.0606L56.9292 61.7358" stroke="#4F4131" stroke-linecap="round" stroke-linejoin="round"/>
<path d="M65.5557 33.877C64.2309 32.5457 60.4915 30.6596 59.7083 30.6074" stroke="#4F4131" stroke-linecap="round" stroke-linejoin="round"/>
<path d="M64.8975 35.2357C64.147 34.8441 62.6003 33.9501 61.3865 33.2322C60.4402 32.6775 59.7027 32.2402 59.7027 32.2402" stroke="#4F4131" stroke-linecap="round" stroke-linejoin="round"/>
<path d="M64.2314 37.1866C63.6245 35.9859 60.4007 34.1259 59.8003 33.7866C59.7415 33.754 59.7024 33.7344 59.7024 33.7344" stroke="#4F4131" stroke-linecap="round" stroke-linejoin="round"/>
<path d="M59.7095 35.2344C59.7095 35.2344 62.457 36.6244 63.3119 37.8578C63.475 38.0862 63.5664 38.3081 63.5664 38.517C63.5664 39.8417 61.576 39.5154 60.9103 41.669C60.7276 42.276 60.6427 43.0003 60.6232 43.7182C60.571 45.5651 60.9103 47.425 60.9103 47.425" stroke="#4F4131" stroke-linecap="round" stroke-linejoin="round"/>
<path d="M59.709 43.7061C59.5458 43.5951 59.3435 43.3406 59.1412 43.0274C58.3777 41.8657 57.4771 39.7578 57.4771 39.7578" stroke="#4F4131" stroke-linecap="round" stroke-linejoin="round"/>
<path d="M60.1592 47.8027L56.2762 56.4301" stroke="#4F4131" stroke-linecap="round" stroke-linejoin="round"/>
<path d="M58.5928 47.4258C58.5928 47.4258 56.2173 52.3856 54.9513 56.001C54.377 57.6521 54.0311 59.0225 54.253 59.512C54.5401 60.1385 55.3298 61.2544 56.2695 62.3834C57.64 64.0215 59.3237 65.6921 60.1655 65.9466C61.5882 66.3773 62.541 63.0621 62.541 63.0621" stroke="#4F4131" stroke-linecap="round" stroke-linejoin="round"/>
<path d="M64.2317 60.8691C64.2317 61.2999 64.2447 61.8937 64.199 62.5594C64.075 64.2692 63.5921 66.4489 61.6408 67.5322C58.926 69.0332 55.6108 66.8535 55.6108 66.8535L52.4522 63.845L51.6299 63.0619" stroke="#4F4131" stroke-linecap="round" stroke-linejoin="round"/>
<path d="M36.5614 27.9707C37.0313 29.2302 38.6563 31.3447 39.831 31.2859C41.0122 31.2207 41.6387 31.2859 41.6387 31.2859" stroke="#4F4131" stroke-linecap="round" stroke-linejoin="round"/>
<path d="M30.3936 27.2402L30.2957 27.8798L30.2826 27.9255L30.0085 29.6288" stroke="#4F4131" stroke-linecap="round" stroke-linejoin="round"/>
<path d="M28.7888 28.9102C28.7888 28.9102 29.7221 31.9382 30.9751 35.8995C33.1221 42.6996 36.1959 52.2537 37.0312 53.8657C38.3625 56.4304 46.9834 65.0578 46.9834 65.0578" stroke="#4F4131" stroke-linecap="round" stroke-linejoin="round"/>
<path d="M28.7888 27.9728C28.8866 27.9467 28.2601 28.0511 27.3791 28.1881C25.6302 28.4687 22.8958 28.9125 22.8958 28.9125L22.2823 30.3482L21.8777 31.288C21.8777 31.288 17.7924 32.5475 17.1268 34.5445C16.4676 36.5349 11.8211 51.1271 11.8211 51.7927C11.8211 52.4584 9.16501 53.1175 9.16501 53.1175L11.038 56.4393C11.038 56.4393 9.83066 57.9468 9.16501 59.1802C8.49935 60.4136 9.16501 63.0632 9.16501 63.0632L15.3256 65.2037L21.323 67.2855L22.8892 67.8337L23.5745 68.0686" stroke="#4F4131" stroke-linecap="round" stroke-linejoin="round"/>
<path d="M16.5712 52.1172L21.7725 57.7557" stroke="#4F4131" stroke-linecap="round" stroke-linejoin="round"/>
<path d="M13.9739 55.4336L21.7725 60.8698" stroke="#4F4131" stroke-linecap="round" stroke-linejoin="round"/>
<path d="M25.7539 41.3379L25.1535 47.8052" stroke="#4F4131" stroke-linecap="round" stroke-linejoin="round"/>
<path d="M39.0996 65.0594C38.6102 65.0594 35.4842 64.0348 32.9586 63.2973C31.673 62.9253 30.5505 62.6186 30.0154 62.5664" stroke="#4F4131" stroke-linecap="round" stroke-linejoin="round"/>
<path d="M33.0039 63.8139C33.0039 63.7552 32.9517 63.716 32.8408 63.6834C31.8749 63.4419 26.8107 64.4208 24.6637 64.8581C24.0633 64.9755 23.6978 65.0604 23.6978 65.0604C23.6978 65.0604 22.4383 64.3947 21.7726 63.0634C21.1135 61.7386 23.1039 57.0921 22.8951 56.7136C22.7254 56.3808 24.9769 49.6916 25.5969 47.8839C25.6948 47.5967 25.7535 47.4336 25.7535 47.4336" stroke="#4F4131" stroke-linecap="round" stroke-linejoin="round"/>
<path d="M48.8828 65.8675L46.9054 65.365L45.7046 65.0583C44.9933 65.7174 39.9813 66.2656 39.8312 65.9915C39.8051 65.9458 39.5637 65.5738 39.1851 64.9996C37.4753 62.3891 32.9332 55.5238 32.385 54.4405C32.0326 53.7422 29.3765 47.0595 26.9619 40.9446C24.8344 35.5541 22.8962 30.6074 22.8962 30.6074" stroke="#4F4131" stroke-linecap="round" stroke-linejoin="round"/>
<path d="M49.6456 69.0408C51.623 70.346 49.6456 66.0584 49.6456 66.0584L48.8951 65.8691" stroke="#4F4131" stroke-linecap="round" stroke-linejoin="round"/>
<path d="M24.6649 64.8574L24.4299 67.0502C24.4299 67.0502 24.9259 67.0632 25.7743 67.0893C30.7537 67.2525 47.9432 67.9051 49.6465 69.0406" stroke="#4F4131" stroke-linecap="round" stroke-linejoin="round"/>
<path d="M49.7696 49.9453C49.7696 49.9453 50.7094 59.3428 50.9247 62.8016C50.9508 63.2388 50.9639 63.5912 50.9639 63.8066C50.9639 65.6469 49.0256 65.8558 48.8886 65.8688" stroke="#4F4131" stroke-linecap="round" stroke-linejoin="round"/>
<path d="M42.0889 29.6289V31.2865V35.9004V47.4254L37.0312 53.8666" stroke="#4F4131" stroke-linecap="round" stroke-linejoin="round"/>
<path d="M39.1005 29.367C39.5834 29.0929 40.1055 28.9363 40.6472 28.8514C43.0031 28.486 45.6004 29.628 45.6004 29.628L47.7475 32.2384L48.0868 33.7329C48.0868 33.7329 49.4247 32.7931 50.5276 34.3268C51.637 35.8604 56.2835 43.0194 56.2835 43.0194H59.1484" stroke="#4F4131" stroke-linecap="round" stroke-linejoin="round"/>
<path d="M56.9355 45.0566C54.9451 45.1545 53.6334 48.1108 53.6269 49.9446" stroke="#4F4131" stroke-linecap="round" stroke-linejoin="round"/>
<path d="M46.9834 33.877C46.9834 33.877 46.3177 50.4596 44.3273 53.1157C42.3369 55.7718 40.9599 55.4389 40.9599 55.4389" stroke="#4F4131" stroke-linecap="round" stroke-linejoin="round"/>
<path d="M41.6387 35.9004C40.353 36.5269 32.2086 37.2643 30.9686 35.9004" stroke="#4F4131" stroke-linecap="round" stroke-linejoin="round"/>
<path d="M49.6392 69.0332C49.7567 69.3465 53.6266 79.2399 53.6201 81.4196C53.6201 82.3463 51.9038 82.8162 49.9199 83.0446C47.4073 83.3382 44.4576 83.2404 44.0203 83.2208H43.9681" stroke="#4F4131" stroke-linecap="round" stroke-linejoin="round"/>
<path d="M45.6523 70.3574L44.0274 83.2202L43.7728 85.2563C43.7728 85.2563 41.5279 84.8974 38.5129 84.3557C38.1866 84.297 37.8537 84.2383 37.5079 84.173C31.8824 83.1288 24.3253 81.5365 23.1049 80.3096" stroke="#4F4131" stroke-linecap="round" stroke-linejoin="round"/>
<path d="M25.7539 68.0605C25.4407 68.3216 25.0752 68.7066 24.6967 69.1634C23.1043 71.0821 21.1465 74.3321 20.3895 75.6046C20.1937 75.944 20.0828 76.1398 20.0828 76.1398" stroke="#4F4131" stroke-linecap="round" stroke-linejoin="round"/>
<path d="M21.3295 67.2773L20.3898 75.6111L20.083 78.3716C20.083 78.3716 20.8857 79.2983 21.5971 80.3033C21.9234 80.7601 22.2301 81.2365 22.4389 81.6476C22.7196 82.2024 22.6217 83.2204 22.4128 84.2189C22.2432 85.0738 21.9821 85.9157 21.8124 86.4312C21.708 86.7575 21.6362 86.9533 21.6362 86.9533" stroke="#4F4131" stroke-linecap="round" stroke-linejoin="round"/>
<path d="M20.4143 87.5137C20.4341 87.573 20.4473 87.6126 20.4473 87.6126" stroke="#4F4131" stroke-linecap="round" stroke-linejoin="round"/>
<path d="M19.1676 83.252C19.1284 83.5913 20.2052 86.8869 20.4141 87.5069" stroke="#4F4131" stroke-linecap="round" stroke-linejoin="round"/>
<path d="M17.8748 84.3555L19.167 87.6054" stroke="#4F4131" stroke-linecap="round" stroke-linejoin="round"/>
<path d="M16.5698 84.3555L17.875 87.6054" stroke="#4F4131" stroke-linecap="round" stroke-linejoin="round"/>
<path d="M15.3248 65.1953L16.493 75.4151L16.5713 76.146" stroke="#4F4131" stroke-linecap="round" stroke-linejoin="round"/>
<path d="M23.1025 84.3555C24.4273 86.2872 25.093 95.5737 25.093 95.5737C25.093 95.5737 25.093 95.3583 25.7521 97.4597C26.4178 99.5546 27.3184 111.908 27.3184 111.908C27.3184 111.908 25.5041 112.28 23.0764 112.698C18.7366 113.448 12.4325 114.336 11.1534 113.481C9.16296 112.156 14.1358 96.8463 13.9661 95.8739C13.803 94.9146 15.6498 86.2545 15.7086 85.987" stroke="#4F4131" stroke-linecap="round" stroke-linejoin="round"/>
<path d="M17.8759 88.0801L18.026 88.935L18.7699 93.2095L19.0049 94.5213" stroke="#4F4131" stroke-linecap="round" stroke-linejoin="round"/>
<path d="M22.6064 86.9531L22.4433 88.1474L21.8625 92.1805L21.7059 93.329L21.3404 95.8742" stroke="#4F4131" stroke-linecap="round" stroke-linejoin="round"/>
<path d="M17.2232 97.4502L19.6639 94.52L21.6348 92.1445" stroke="#4F4131" stroke-linecap="round" stroke-linejoin="round"/>
<path d="M37.4731 84.3555C37.695 88.9433 34.2753 118.669 33.0028 123.368C31.7237 128.08 28.0756 141.321 28.0756 141.321L27.3186 141.23L22.9853 140.708L22.4371 140.642C22.4371 140.642 24.4276 115.511 23.1028 112.835" stroke="#4F4131" stroke-linecap="round" stroke-linejoin="round"/>
<path d="M38.5041 84.3555C39.6788 88.9824 40.9579 138.619 40.9579 138.619C40.9579 138.619 41.3625 138.724 41.976 138.848C43.1637 139.076 45.115 139.363 46.3027 138.985C46.5768 138.9 46.8052 138.776 46.9814 138.619" stroke="#4F4131" stroke-linecap="round" stroke-linejoin="round"/>
<path d="M49.9248 83.043C51.5041 86.6584 49.2461 127.857 47.9931 136.465C47.8952 137.137 47.8038 137.614 47.719 137.855" stroke="#4F4131" stroke-linecap="round" stroke-linejoin="round"/>
<path d="M41.3433 145.973C41.1997 147.735 41.3107 149.125 42.0938 149.627C43.0662 150.247 47.2298 150.763 50.6625 151.22C52.7965 151.5 54.6499 151.755 55.2764 151.996" stroke="#4F4131" stroke-linecap="round" stroke-linejoin="round"/>
<path d="M42.0869 139.969C41.8781 141.998 41.48 144.172 41.3364 145.966" stroke="#4F4131" stroke-linecap="round" stroke-linejoin="round"/>
<path d="M55.2765 150.299C56.275 150.625 57.9326 151.989 57.9326 151.989" stroke="#4F4131" stroke-linecap="round" stroke-linejoin="round"/>
<path d="M57.3396 149.341L59.1343 150.3C59.1343 150.3 56.4195 147.879 57.3396 147.924C58.2598 147.977 60.1523 149.112 60.1523 149.112" stroke="#4F4131" stroke-linecap="round" stroke-linejoin="round"/>
<path d="M56.6076 148.943L57.2793 149.302" stroke="#4F4131" stroke-linecap="round" stroke-linejoin="round"/>
<path d="M46.9813 139.969C48.3061 142.671 48.9717 143.447 51.6278 145.053C52.7111 145.705 54.2448 146.299 55.6935 146.782C57.8014 147.474 59.707 147.93 59.707 147.93" stroke="#4F4131" stroke-linecap="round" stroke-linejoin="round"/>
<path d="M23.1035 141.32C22.6141 142.782 21.6808 145.823 21.3741 148.447C21.2567 149.439 21.224 150.378 21.3415 151.142C21.4394 151.801 21.5895 152.33 21.7722 152.754C21.9549 153.217 22.1768 153.557 22.3791 153.792C22.7642 154.255 23.1035 154.359 23.1035 154.359" stroke="#4F4131" stroke-linecap="round" stroke-linejoin="round"/>
<path d="M23.1028 153.518L25.4521 155.045" stroke="#4F4131" stroke-linecap="round" stroke-linejoin="round"/>
<path d="M27.3188 153.518L28.0693 155.045" stroke="#4F4131" stroke-linecap="round" stroke-linejoin="round"/>
<path d="M28.0691 151.996L30.2031 155.044" stroke="#4F4131" stroke-linecap="round" stroke-linejoin="round"/>
<path d="M30.2042 151.999L30.7785 152.939L31.6465 154.368V153.356V151.15L33.4998 152.756L34.3809 153.519" stroke="#4F4131" stroke-linecap="round" stroke-linejoin="round"/>
<path d="M27.3188 142.338C26.4182 143.995 26.8228 146.384 28.6044 147.846C29.2961 148.414 29.9096 149.04 30.4056 149.595C31.1756 150.463 31.6455 151.148 31.6455 151.148" stroke="#4F4131" stroke-linecap="round" stroke-linejoin="round"/>
<path d="M50.5182 152.753C50.6487 152.322 50.6552 151.787 50.6618 151.213C50.6618 149.855 50.6291 148.354 52.1432 147.923C54.1075 147.362 56.855 149.02 57.2857 149.3C57.3118 149.313 57.3248 149.327 57.3379 149.333L55.6933 146.781L54.2511 144.543" stroke="#4F4131" stroke-linecap="round" stroke-linejoin="round"/>
<path d="M32.292 149.111C32.292 149.111 31.3327 149.255 30.406 149.588C29.5119 149.914 28.657 150.417 28.7875 151.141C29.0681 152.609 27.2343 149.359 25.1982 150.273C25.1786 150.273 25.1656 150.293 25.146 150.299C23.0968 151.291 21.7655 152.753 21.7655 152.753" stroke="#4F4131" stroke-linecap="round" stroke-linejoin="round"/>
<path d="M61.2998 151.055C61.1824 150.605 61.065 150.299 61.065 150.299" stroke="#4F4131" stroke-linecap="round" stroke-linejoin="round"/>
<path d="M39.5616 147.924C39.6856 148.635 41.6434 153.51 41.6434 153.51C41.6434 153.51 46.2377 154.802 49.9314 155.037C53.6252 155.272 59.5965 155.266 60.9213 154.28C61.8218 153.601 61.5673 152.009 61.3063 151.063" stroke="#4F4131" stroke-linecap="round" stroke-linejoin="round"/>
<path d="M35.457 154.364C35.3787 154.527 35.2939 154.684 35.1829 154.834C35.1503 154.886 35.1112 154.938 35.072 154.99C33.7276 156.765 30.7648 157.405 28.0761 156.4C26.5947 155.839 24.3041 154.755 22.3789 153.796C20.4211 152.83 18.8353 151.995 18.8353 151.995L20.1144 147.844L20.4537 146.748" stroke="#4F4131" stroke-linecap="round" stroke-linejoin="round"/>
<path d="M35.457 155.176V157.753C35.457 157.753 35.5092 158.967 32.2919 159.111C29.0745 159.254 25.0937 156.389 22.4376 155.176C19.7815 153.955 18.4371 152.761 18.4371 152.761L18.8287 152.004" stroke="#4F4131" stroke-linecap="round" stroke-linejoin="round"/>
<path d="M42.0874 149.629C43.6602 151.965 45.481 152.233 48.881 152.761C49.5141 152.859 50.0361 152.938 50.4538 153.003L52.2811 153.29C52.2811 153.29 57.8282 154.223 59.7012 152.761" stroke="#4F4131" stroke-linecap="round" stroke-linejoin="round"/>
<path d="M42.7422 70.3574L39.564 81.419" stroke="#4F4131" stroke-linecap="round" stroke-linejoin="round"/>
<path d="M41.3438 145.974V145.967" stroke="#4F4131" stroke-linecap="round" stroke-linejoin="round"/>
</svg>
