<svg width="179" height="107" viewBox="0 0 179 107" fill="none" xmlns="http://www.w3.org/2000/svg">
<g filter="url(#filter0_d_1010_230383)">
<rect width="175" height="103" rx="3" fill="#AB1B1B" shape-rendering="crispEdges"/>
<rect x="0.5" y="0.5" width="174" height="102" rx="2.5" stroke="#563E3E" shape-rendering="crispEdges"/>
<g filter="url(#filter1_d_1010_230383)">
<path d="M44.8762 41.2C43.9376 42.0107 42.9029 42.288 41.7722 42.032C40.7056 41.7973 39.7029 41.232 38.7642 40.336C38.5082 39.824 38.5082 39.44 38.7642 39.184C38.9989 39.0133 39.2976 38.928 39.6602 38.928C40.1082 39.3333 40.7162 39.7067 41.4842 40.048H41.5162C42.3056 40.5173 42.9669 40.4747 43.5002 39.92L43.6602 39.76C45.6229 37.8613 46.7216 35.984 46.9562 34.128C46.9989 33.5093 47.1056 33.1253 47.2762 32.976C47.2762 32.976 47.2549 32.944 47.2122 32.88C47.1696 32.816 47.0949 32.7093 46.9882 32.56C46.9669 32.496 46.9562 32.432 46.9562 32.368C46.6362 32.5813 45.9002 32.9333 44.7483 33.424C44.6629 33.4453 44.5989 33.4773 44.5562 33.52C43.2976 34.1387 42.0709 34.1387 40.8762 33.52C38.2736 32.4107 36.9509 30.5227 36.9082 27.856C36.9296 24.656 38.2522 22.1173 40.8762 20.24C42.8389 18.64 44.6842 18.48 46.4122 19.76C46.5189 19.8453 46.6149 19.9307 46.7002 20.016C46.7856 20.08 46.8709 20.1547 46.9562 20.24C49.3669 22.4587 50.3909 25.104 50.0282 28.176C49.8789 29.84 49.3669 32.1973 48.4922 35.248C48.1936 37.232 46.9882 39.216 44.8762 41.2ZM40.6842 32.08C41.7082 32.8053 42.8496 32.848 44.1082 32.208C44.1936 32.1653 44.2469 32.1333 44.2682 32.112C46.2096 31.344 47.3722 30.064 47.7562 28.272C47.8416 27.9093 47.8842 27.504 47.8842 27.056C48.1616 25.2427 47.6603 23.44 46.3802 21.648C46.3376 21.6053 46.2842 21.552 46.2202 21.488C46.1776 21.424 46.1136 21.3493 46.0282 21.264C45.7722 20.944 45.5802 20.784 45.4522 20.784C43.9802 20.08 42.7642 20.2613 41.8042 21.328C41.5909 21.584 41.3989 21.872 41.2282 22.192C40.7589 23.3653 40.3642 24.528 40.0442 25.68C39.7456 26.8107 39.5216 27.9093 39.3722 28.976C39.2016 30.3627 39.6389 31.3973 40.6842 32.08ZM51.9162 44.176C51.5109 44.6453 50.9669 44.8373 50.2842 44.752C49.7509 44.6453 49.5269 44.3573 49.6122 43.888C49.6336 43.8453 49.6442 43.8027 49.6442 43.76C49.6656 43.7173 49.6869 43.6747 49.7082 43.632V43.056C51.3509 39.1947 53.0576 35.3653 54.8282 31.568C56.5989 27.7493 58.4229 23.9627 60.3003 20.208C60.3429 19.7813 60.7163 19.2373 61.4202 18.576C61.7616 18.4267 62.2523 18.5013 62.8923 18.8C63.3403 19.0347 63.5856 19.3227 63.6283 19.664C63.6283 19.8347 63.5109 20.0373 63.2762 20.272C63.1269 20.4213 63.0522 20.592 63.0522 20.784C62.1349 22.1067 61.1749 23.7387 60.1722 25.68C59.1696 27.6213 58.1243 29.872 57.0363 32.432C56.2469 34.3093 55.6069 35.8133 55.1163 36.944C54.6469 38.0747 54.3269 38.8213 54.1562 39.184C54.0709 39.3973 53.9002 39.792 53.6442 40.368C53.3882 40.9227 53.0362 41.6587 52.5882 42.576C52.4389 42.896 52.3109 43.184 52.2042 43.44C52.0976 43.7173 52.0016 43.9627 51.9162 44.176ZM70.3483 42.032C69.7296 42.0533 69.1856 42.096 68.7163 42.16C68.2469 42.2453 67.8629 42.3413 67.5643 42.448C66.9669 42.4267 66.6469 42.128 66.6043 41.552C66.6043 41.232 66.8176 41.0187 67.2443 40.912C67.3083 40.8907 67.4043 40.88 67.5323 40.88C67.7456 40.6667 68.2469 40.5493 69.0363 40.528C69.5909 40.5067 69.8896 40.1867 69.9323 39.568C69.8683 38.288 69.8683 35.184 69.9323 30.256C69.9536 29.2107 69.9536 28.2507 69.9323 27.376C69.9323 26.5013 69.9109 25.712 69.8683 25.008C69.8683 24.944 69.8683 24.8693 69.8683 24.784C69.8683 24.6773 69.8789 24.5493 69.9003 24.4C69.9429 23.8453 69.9003 23.4293 69.7723 23.152C69.7296 22.4053 69.5163 22.0747 69.1323 22.16C69.0896 22.1813 69.0363 22.2027 68.9723 22.224C68.9083 22.224 68.8549 22.2453 68.8123 22.288C68.5989 22.3947 68.3323 22.4907 68.0123 22.576C67.5643 22.6827 67.2229 22.8107 66.9883 22.96C66.5829 22.9173 66.2629 22.7253 66.0283 22.384C66.0283 22.128 66.2096 21.7973 66.5723 21.392C66.7216 21.3493 66.9029 21.2853 67.1163 21.2C67.3296 21.1147 67.5749 21.0187 67.8523 20.912C69.4949 20.336 70.6789 19.728 71.4043 19.088C71.6176 18.8747 71.9269 18.9173 72.3323 19.216C72.6736 19.4293 72.7909 19.6853 72.6843 19.984C72.6416 20.3253 72.5776 21.008 72.4923 22.032C72.4283 23.056 72.3429 24.4107 72.2363 26.096C72.1936 26.8 72.1403 27.4507 72.0763 28.048C72.0336 28.624 71.9696 29.1467 71.8843 29.616C71.8629 30.0853 71.8416 30.6613 71.8203 31.344C71.8203 32.0267 71.8203 32.8267 71.8203 33.744C71.8203 35.9627 71.7883 37.584 71.7243 38.608C71.7669 39.3973 71.9909 39.8987 72.3963 40.112C72.6096 40.1973 72.9189 40.2933 73.3243 40.4C73.8149 40.3787 74.2736 40.3893 74.7003 40.432C75.1269 40.4747 75.5109 40.5387 75.8523 40.624C76.1296 40.6027 76.3323 40.7413 76.4603 41.04C76.4816 41.104 76.4923 41.168 76.4923 41.232C76.1296 41.616 75.8309 41.8293 75.5963 41.872C75.3829 41.68 74.7643 41.6053 73.7403 41.648C72.2896 41.712 71.1589 41.84 70.3483 42.032ZM85.6442 41.776C85.0896 42.1387 84.1722 42.32 82.8922 42.32H82.5082C81.0362 42.32 79.7882 41.7013 78.7642 40.464C78.6576 40.3147 78.5509 40.176 78.4442 40.048C78.3589 39.92 78.2736 39.7813 78.1882 39.632C77.3989 38.2667 77.6976 37.2 79.0842 36.432C79.6816 36.4747 80.0442 36.56 80.1722 36.688C80.1722 36.688 80.1936 36.72 80.2362 36.784C80.3002 36.848 80.3749 36.9333 80.4602 37.04C80.4816 37.104 80.4922 37.168 80.4922 37.232C80.4496 37.616 80.3429 37.8827 80.1722 38.032C79.8522 38.7787 79.7669 39.312 79.9162 39.632C80.8762 40.4853 81.6336 40.9973 82.1882 41.168C82.4229 41.232 82.6256 41.264 82.7962 41.264C84.3962 41.264 85.8042 40.656 87.0202 39.44C87.9802 38.48 88.4816 37.3813 88.5242 36.144C88.5242 34.8213 88.2256 33.488 87.6282 32.144C87.3722 31.312 87.0202 30.8 86.5722 30.608C86.3589 30.544 86.1349 30.512 85.9002 30.512C84.5776 30.2133 83.5856 30.224 82.9242 30.544C82.8389 30.5867 82.7642 30.6293 82.7002 30.672C82.6362 30.7147 82.5722 30.7573 82.5082 30.8C82.2522 30.864 81.8256 31.0987 81.2282 31.504C80.9936 31.6533 80.7482 31.7813 80.4922 31.888C80.4922 32.016 80.3749 32.0267 80.1402 31.92C80.0762 31.8987 80.0016 31.888 79.9162 31.888C79.6602 31.5893 79.6602 31.3013 79.9162 31.024C80.2789 30.4693 81.1216 29.4667 82.4442 28.016C82.5509 27.8667 82.6576 27.7387 82.7642 27.632C82.8709 27.504 82.9669 27.3973 83.0522 27.312L83.2442 27.12H83.2762L83.6602 26.736H83.6922L83.9162 26.512C84.3216 26.1493 84.6629 25.84 84.9402 25.584C85.2389 25.3067 85.4736 25.0827 85.6442 24.912C86.1349 24.4 86.5189 23.76 86.7962 22.992C86.9882 21.9893 86.7002 21.2213 85.9322 20.688C85.3989 20.368 84.8229 20.2507 84.2042 20.336C83.6709 20.4427 83.1376 20.592 82.6042 20.784C82.0922 20.976 81.5802 21.1893 81.0682 21.424C80.5776 21.6587 80.4816 22.1813 80.7802 22.992C80.7802 23.0347 80.7802 23.088 80.7802 23.152C80.7802 23.216 80.7909 23.2907 80.8122 23.376C80.8549 23.7813 80.7482 24.112 80.4922 24.368C80.0442 24.56 79.6602 24.5387 79.3402 24.304C79.2336 24.1973 79.1482 24.1227 79.0842 24.08C78.1882 23.504 77.9962 22.8853 78.5082 22.224C79.1269 20.7733 80.2896 19.824 81.9962 19.376C83.7882 18.928 85.3669 19.1627 86.7322 20.08C86.8389 20.1653 86.9456 20.2507 87.0522 20.336C87.1802 20.4213 87.2869 20.5067 87.3722 20.592C88.5882 21.744 88.7696 23.0027 87.9162 24.368C87.2976 25.5627 86.4442 26.544 85.3562 27.312C84.8656 27.9307 84.7056 28.3573 84.8762 28.592C84.9616 28.6773 85.0789 28.7733 85.2282 28.88C85.3989 28.9867 85.6229 29.0933 85.9002 29.2C87.8202 29.8613 89.1642 31.1307 89.9322 33.008C90.6149 34.6933 90.6149 36.4533 89.9322 38.288C89.5696 39.248 88.9936 39.9627 88.2042 40.432C88.1189 40.4533 87.9376 40.5387 87.6602 40.688C87.3829 40.8373 87.0309 41.0507 86.6042 41.328C86.1989 41.5627 85.8789 41.712 85.6442 41.776ZM109.408 41.392C106.634 42.288 103.413 42.512 99.7438 42.064C99.0824 42.0213 98.7304 41.7973 98.6878 41.392C98.6878 41.2213 98.6984 40.9973 98.7198 40.72C98.7624 40.4427 98.8051 40.1227 98.8478 39.76C98.8904 39.3973 98.9224 39.0773 98.9438 38.8C98.9864 38.5227 99.0078 38.2987 99.0078 38.128C99.4984 37.9573 99.9464 38.1493 100.352 38.704C100.736 39.216 100.981 39.5253 101.088 39.632C102.282 40.5707 103.829 40.9547 105.728 40.784C105.877 40.7627 106.016 40.7413 106.144 40.72C106.272 40.6987 106.4 40.6773 106.528 40.656C107.424 40.6133 108.01 40.1333 108.288 39.216C108.629 38.2133 108.554 37.4133 108.064 36.816L107.968 36.72C107.925 36.6773 107.669 36.5067 107.2 36.208C107.072 36.144 106.965 36.0693 106.88 35.984C106.069 35.984 104.864 35.728 103.264 35.216C103.05 35.152 102.858 35.0987 102.688 35.056C102.517 34.992 102.368 34.9493 102.24 34.928C101.536 34.8853 100.928 34.64 100.416 34.192C99.4771 33.808 98.9651 33.1253 98.8798 32.144C98.8158 31.312 99.1038 30.5653 99.7438 29.904C100.469 28.816 101.792 28.0587 103.712 27.632C105.61 27.2693 107.253 27.4293 108.64 28.112C109.386 28.304 109.909 28.8693 110.208 29.808C110.442 30.64 110.389 31.312 110.048 31.824C110.026 32.0373 109.802 32.0267 109.376 31.792C108.842 31.4933 108.597 31.0987 108.64 30.608C107.786 29.3707 106.88 28.6987 105.92 28.592C105.706 28.5707 105.386 28.5813 104.96 28.624C104.533 28.6453 103.978 28.7093 103.296 28.816C102.144 29.1147 101.461 29.7653 101.248 30.768C101.226 30.8533 101.205 30.9493 101.184 31.056C101.184 31.1413 101.184 31.2373 101.184 31.344C101.184 32.1547 101.504 32.8053 102.144 33.296C102.208 33.3387 102.304 33.4133 102.432 33.52C102.56 33.6053 102.73 33.712 102.944 33.84C103.221 34.0747 103.69 34.192 104.352 34.192C105.354 34.4053 106.272 34.6613 107.104 34.96C107.957 35.2373 108.725 35.5787 109.408 35.984C110.282 36.4747 110.858 37.1893 111.136 38.128C111.434 39.216 111.21 40.112 110.464 40.816C110.144 41.0933 109.792 41.2853 109.408 41.392ZM125.983 42.864C125.257 43.0987 124.692 42.9813 124.286 42.512L124.19 42.416C123.209 41.6907 122.1 41.456 120.862 41.712C120.692 41.7333 120.286 41.8293 119.646 42C118.814 42.2773 117.438 42.416 115.518 42.416C114.238 42.416 113.054 41.84 111.966 40.688C111.86 40.56 111.753 40.432 111.646 40.304C111.561 40.176 111.476 40.0587 111.39 39.952C110.708 38.5653 110.633 37.3813 111.166 36.4C111.401 35.952 111.742 35.6107 112.19 35.376C114.409 33.7333 116.478 32.912 118.398 32.912H121.278C121.833 32.5493 122.11 32.1333 122.11 31.664C122.068 30.2133 121.385 29.2533 120.062 28.784C118.761 28.784 117.865 28.9227 117.374 29.2C116.99 29.4133 116.638 29.68 116.318 30C115.998 30.3627 115.582 30.448 115.07 30.256C114.921 30.192 114.793 30.1067 114.686 30C114.153 29.4667 114.014 29.0613 114.27 28.784L115.102 27.952C117.385 27.184 119.518 27.2267 121.502 28.08C121.609 28.1227 121.716 28.176 121.822 28.24C121.929 28.2827 122.025 28.3253 122.11 28.368C123.369 29.392 124.062 30.4907 124.19 31.664C124.34 32.2187 124.446 32.848 124.51 33.552C124.574 34.256 124.606 35.0133 124.606 35.824C124.564 36.0373 124.521 36.3253 124.478 36.688C124.436 37.0507 124.404 37.4987 124.382 38.032C124.361 38.352 124.297 38.576 124.19 38.704C124.212 40.5813 124.894 41.5413 126.238 41.584C126.43 41.584 126.548 41.6373 126.59 41.744C126.612 41.8293 126.622 41.8933 126.622 41.936C126.644 41.9573 126.654 41.9787 126.654 42C126.761 42.384 126.537 42.672 125.983 42.864ZM113.438 39.952C113.716 40.8267 114.356 41.2853 115.358 41.328C115.636 41.328 115.956 41.2747 116.318 41.168C117.129 41.168 118.398 40.848 120.126 40.208C120.297 40.1653 120.446 40.1227 120.574 40.08C120.702 40.016 120.809 39.9733 120.894 39.952C121.662 39.9307 122.068 39.5147 122.11 38.704V37.04C122.324 35.696 122.121 34.8213 121.502 34.416C121.097 34.1387 120.34 33.9147 119.23 33.744C119.081 33.744 118.825 33.776 118.462 33.84C118.1 33.8827 117.62 33.9573 117.022 34.064C116.873 34.0853 116.745 34.1067 116.638 34.128C116.532 34.128 116.425 34.128 116.318 34.128C115.23 34.5333 114.27 35.3653 113.438 36.624C113.012 37.52 113.012 38.6293 113.438 39.952ZM135.153 42.192C134.875 42.2347 134.619 42.2773 134.385 42.32C134.171 42.3627 133.979 42.4053 133.809 42.448C132.507 42.448 131.419 42.1387 130.545 41.52C129.798 40.9653 129.478 40.2507 129.585 39.376C129.457 38.864 129.457 36.6347 129.585 32.688V32.08C129.585 31.2907 129.403 30.8107 129.041 30.64C128.827 30.576 128.369 30.544 127.665 30.544C126.747 30.9493 126.107 30.8213 125.745 30.16C125.638 30.16 125.563 30 125.521 29.68C125.499 29.2747 125.702 29.0507 126.129 29.008C126.171 29.008 126.246 29.008 126.353 29.008C126.459 29.008 126.587 29.0187 126.737 29.04C127.995 29.1467 128.806 28.9973 129.169 28.592C129.446 28.1013 129.585 27.088 129.585 25.552C129.585 25.232 129.766 24.9867 130.129 24.816C130.193 24.7947 130.267 24.784 130.353 24.784C131.035 24.8693 131.419 25.1253 131.505 25.552C131.761 26.0853 131.889 26.8533 131.889 27.856C131.931 28.5813 132.315 28.9653 133.041 29.008H138.417C138.651 28.9653 138.79 29.1253 138.833 29.488C138.875 29.8507 138.737 30.0747 138.417 30.16C138.267 30.1813 137.915 30.2027 137.361 30.224C136.827 30.2453 136.081 30.2773 135.121 30.32C134.715 30.3413 134.342 30.3733 134.001 30.416C133.659 30.4587 133.339 30.5013 133.041 30.544C132.443 30.544 132.081 30.6293 131.953 30.8C131.825 30.9707 131.675 31.3973 131.505 32.08C131.505 32.336 131.505 32.656 131.505 33.04C131.526 33.424 131.547 33.8827 131.569 34.416C131.611 35.5253 131.622 36.5387 131.601 37.456C131.601 38.3733 131.579 39.184 131.537 39.888C131.537 40.272 131.686 40.5813 131.985 40.816C132.091 40.88 132.187 40.912 132.273 40.912C132.529 40.912 133.094 40.8587 133.969 40.752C134.865 40.624 136.059 40.4427 137.553 40.208C137.659 40.1867 137.755 40.176 137.841 40.176C137.926 40.1547 137.979 40.144 138.001 40.144C138.491 39.8667 138.886 39.8773 139.185 40.176C139.441 40.4747 139.313 40.848 138.801 41.296C138.182 41.5947 136.966 41.8933 135.153 42.192ZM42.7044 87.2C41.7657 88.0107 40.731 88.288 39.6004 88.032C38.5337 87.7973 37.531 87.232 36.5924 86.336C36.3364 85.824 36.3364 85.44 36.5924 85.184C36.827 85.0133 37.1257 84.928 37.4884 84.928C37.9364 85.3333 38.5444 85.7067 39.3124 86.048H39.3444C40.1337 86.5173 40.795 86.4747 41.3284 85.92L41.4884 85.76C43.451 83.8613 44.5497 81.984 44.7844 80.128C44.827 79.5093 44.9337 79.1253 45.1044 78.976C45.1044 78.976 45.083 78.944 45.0404 78.88C44.9977 78.816 44.923 78.7093 44.8164 78.56C44.795 78.496 44.7844 78.432 44.7844 78.368C44.4644 78.5813 43.7284 78.9333 42.5764 79.424C42.491 79.4453 42.427 79.4773 42.3844 79.52C41.1257 80.1387 39.899 80.1387 38.7044 79.52C36.1017 78.4107 34.779 76.5227 34.7364 73.856C34.7577 70.656 36.0804 68.1173 38.7044 66.24C40.667 64.64 42.5124 64.48 44.2404 65.76C44.347 65.8453 44.443 65.9307 44.5284 66.016C44.6137 66.08 44.699 66.1547 44.7844 66.24C47.195 68.4587 48.219 71.104 47.8564 74.176C47.707 75.84 47.195 78.1973 46.3204 81.248C46.0217 83.232 44.8164 85.216 42.7044 87.2ZM38.5124 78.08C39.5364 78.8053 40.6777 78.848 41.9364 78.208C42.0217 78.1653 42.075 78.1333 42.0964 78.112C44.0377 77.344 45.2004 76.064 45.5844 74.272C45.6697 73.9093 45.7124 73.504 45.7124 73.056C45.9897 71.2427 45.4884 69.44 44.2084 67.648C44.1657 67.6053 44.1124 67.552 44.0484 67.488C44.0057 67.424 43.9417 67.3493 43.8564 67.264C43.6004 66.944 43.4084 66.784 43.2804 66.784C41.8084 66.08 40.5924 66.2613 39.6324 67.328C39.419 67.584 39.227 67.872 39.0564 68.192C38.587 69.3653 38.1924 70.528 37.8724 71.68C37.5737 72.8107 37.3497 73.9093 37.2004 74.976C37.0297 76.3627 37.467 77.3973 38.5124 78.08ZM49.7444 90.176C49.339 90.6453 48.795 90.8373 48.1124 90.752C47.579 90.6453 47.355 90.3573 47.4404 89.888C47.4617 89.8453 47.4724 89.8027 47.4724 89.76C47.4937 89.7173 47.515 89.6747 47.5364 89.632V89.056C49.179 85.1947 50.8857 81.3653 52.6564 77.568C54.427 73.7493 56.251 69.9627 58.1284 66.208C58.171 65.7813 58.5444 65.2373 59.2484 64.576C59.5897 64.4267 60.0804 64.5013 60.7204 64.8C61.1684 65.0347 61.4137 65.3227 61.4564 65.664C61.4564 65.8347 61.339 66.0373 61.1044 66.272C60.955 66.4213 60.8804 66.592 60.8804 66.784C59.963 68.1067 59.003 69.7387 58.0004 71.68C56.9977 73.6213 55.9524 75.872 54.8644 78.432C54.075 80.3093 53.435 81.8133 52.9444 82.944C52.475 84.0747 52.155 84.8213 51.9844 85.184C51.899 85.3973 51.7284 85.792 51.4724 86.368C51.2164 86.9227 50.8644 87.6587 50.4164 88.576C50.267 88.896 50.139 89.184 50.0324 89.44C49.9257 89.7173 49.8297 89.9627 49.7444 90.176ZM68.1764 88.032C67.5577 88.0533 67.0137 88.096 66.5444 88.16C66.075 88.2453 65.691 88.3413 65.3924 88.448C64.795 88.4267 64.475 88.128 64.4324 87.552C64.4324 87.232 64.6457 87.0187 65.0724 86.912C65.1364 86.8907 65.2324 86.88 65.3604 86.88C65.5737 86.6667 66.075 86.5493 66.8644 86.528C67.419 86.5067 67.7177 86.1867 67.7604 85.568C67.6964 84.288 67.6964 81.184 67.7604 76.256C67.7817 75.2107 67.7817 74.2507 67.7604 73.376C67.7604 72.5013 67.739 71.712 67.6964 71.008C67.6964 70.944 67.6964 70.8693 67.6964 70.784C67.6964 70.6773 67.707 70.5493 67.7284 70.4C67.771 69.8453 67.7284 69.4293 67.6004 69.152C67.5577 68.4053 67.3444 68.0747 66.9604 68.16C66.9177 68.1813 66.8644 68.2027 66.8004 68.224C66.7364 68.224 66.683 68.2453 66.6404 68.288C66.427 68.3947 66.1604 68.4907 65.8404 68.576C65.3924 68.6827 65.051 68.8107 64.8164 68.96C64.411 68.9173 64.091 68.7253 63.8564 68.384C63.8564 68.128 64.0377 67.7973 64.4004 67.392C64.5497 67.3493 64.731 67.2853 64.9444 67.2C65.1577 67.1147 65.403 67.0187 65.6804 66.912C67.323 66.336 68.507 65.728 69.2324 65.088C69.4457 64.8747 69.755 64.9173 70.1604 65.216C70.5017 65.4293 70.619 65.6853 70.5124 65.984C70.4697 66.3253 70.4057 67.008 70.3204 68.032C70.2564 69.056 70.171 70.4107 70.0644 72.096C70.0217 72.8 69.9684 73.4507 69.9044 74.048C69.8617 74.624 69.7977 75.1467 69.7124 75.616C69.691 76.0853 69.6697 76.6613 69.6484 77.344C69.6484 78.0267 69.6484 78.8267 69.6484 79.744C69.6484 81.9627 69.6164 83.584 69.5524 84.608C69.595 85.3973 69.819 85.8987 70.2244 86.112C70.4377 86.1973 70.747 86.2933 71.1524 86.4C71.643 86.3787 72.1017 86.3893 72.5284 86.432C72.955 86.4747 73.339 86.5387 73.6804 86.624C73.9577 86.6027 74.1604 86.7413 74.2884 87.04C74.3097 87.104 74.3204 87.168 74.3204 87.232C73.9577 87.616 73.659 87.8293 73.4244 87.872C73.211 87.68 72.5924 87.6053 71.5684 87.648C70.1177 87.712 68.987 87.84 68.1764 88.032ZM85.9684 87.584C83.9204 87.9893 82.2777 87.9893 81.0404 87.584L80.7524 87.296C80.7524 87.232 80.8164 87.1253 80.9444 86.976C81.0084 86.8693 81.0404 86.7733 81.0404 86.688H81.9364C82.4484 86.4107 82.7257 86.016 82.7684 85.504V83.744C82.7684 83.0827 82.5444 82.7093 82.0964 82.624C82.0537 82.6027 82.0004 82.592 81.9364 82.592C80.0377 82.336 79.0564 82.1973 78.9924 82.176C77.7337 82.1333 76.6777 82.368 75.8244 82.88C75.3977 82.88 75.099 82.688 74.9284 82.304C74.8644 82.0693 74.875 81.8667 74.9604 81.696C75.067 81.3333 75.4297 80.352 76.0484 78.752C76.091 78.624 76.123 78.5387 76.1444 78.496C76.6137 77.4293 77.0084 76.48 77.3284 75.648C77.6697 74.816 77.9364 74.0907 78.1284 73.472C78.2564 73.152 78.4484 72.704 78.7044 72.128C78.939 71.5733 79.131 71.0933 79.2804 70.688C79.4297 70.2613 79.5364 69.9093 79.6004 69.632C80.3684 67.6693 80.7524 66.208 80.7524 65.248C80.7524 65.0347 80.891 64.896 81.1684 64.832C81.339 64.7893 81.4777 64.8213 81.5844 64.928C82.4377 65.5253 82.8324 66.1333 82.7684 66.752C82.7257 67.0293 82.6297 67.3067 82.4804 67.584C82.4804 67.712 82.4377 67.904 82.3524 68.16C82.2457 68.48 82.1924 68.672 82.1924 68.736C81.8084 69.3547 81.3817 70.208 80.9124 71.296C80.443 72.384 79.931 73.696 79.3764 75.232C79.0137 76.2133 78.683 77.0773 78.3844 77.824C78.0857 78.5493 77.819 79.1573 77.5844 79.648C77.2857 80.288 77.4884 80.7467 78.1924 81.024C78.235 81.0453 78.2777 81.056 78.3204 81.056C78.363 81.056 78.395 81.0667 78.4164 81.088H79.8884C81.4244 81.216 82.2884 81.216 82.4804 81.088C82.6937 81.0027 82.8217 80.5973 82.8644 79.872C82.907 79.0827 82.971 78.4213 83.0564 77.888C83.291 77.1413 83.355 75.6373 83.2484 73.376C83.227 72.6293 83.163 72.0853 83.0564 71.744C83.0564 71.3387 83.1204 71.072 83.2484 70.944C83.2697 70.9227 83.2804 70.9013 83.2804 70.88C83.3017 70.8587 83.323 70.8373 83.3444 70.816C84.155 70.816 84.8057 71.1573 85.2964 71.84C85.531 72.2027 85.6484 72.5547 85.6484 72.896C85.5417 73.344 85.4564 73.9733 85.3924 74.784C85.3284 75.5733 85.275 76.544 85.2324 77.696C85.211 78.1653 85.1897 78.5813 85.1684 78.944C85.147 79.3067 85.115 79.6373 85.0724 79.936C84.8804 80.3627 84.987 80.6507 85.3924 80.8C85.691 80.9067 85.9684 80.9173 86.2244 80.832C86.331 80.832 86.4377 80.832 86.5444 80.832C86.651 80.832 86.7577 80.8213 86.8644 80.8C87.3124 80.7573 87.7604 80.8 88.2084 80.928C88.571 81.0133 88.763 81.2053 88.7844 81.504C88.763 81.7173 88.667 81.92 88.4964 82.112C87.9204 82.2613 87.2804 82.3253 86.5764 82.304H86.2244C85.5204 82.0907 85.083 82.208 84.9124 82.656C84.827 82.8907 84.7844 83.2533 84.7844 83.744C84.5924 84 84.4964 84.4053 84.4964 84.96C84.5177 85.6213 84.8057 86.112 85.3604 86.432C85.659 86.4747 85.947 86.6773 86.2244 87.04C86.459 87.2107 86.4484 87.3707 86.1924 87.52C86.0644 87.5627 85.9897 87.584 85.9684 87.584ZM107.236 87.392C104.463 88.288 101.241 88.512 97.5719 88.064C96.9105 88.0213 96.5585 87.7973 96.5159 87.392C96.5159 87.2213 96.5265 86.9973 96.5479 86.72C96.5905 86.4427 96.6332 86.1227 96.6759 85.76C96.7185 85.3973 96.7505 85.0773 96.7719 84.8C96.8145 84.5227 96.8359 84.2987 96.8359 84.128C97.3265 83.9573 97.7745 84.1493 98.1799 84.704C98.5639 85.216 98.8092 85.5253 98.9159 85.632C100.111 86.5707 101.657 86.9547 103.556 86.784C103.705 86.7627 103.844 86.7413 103.972 86.72C104.1 86.6987 104.228 86.6773 104.356 86.656C105.252 86.6133 105.839 86.1333 106.116 85.216C106.457 84.2133 106.383 83.4133 105.892 82.816L105.796 82.72C105.753 82.6773 105.497 82.5067 105.028 82.208C104.9 82.144 104.793 82.0693 104.708 81.984C103.897 81.984 102.692 81.728 101.092 81.216C100.879 81.152 100.687 81.0987 100.516 81.056C100.345 80.992 100.196 80.9493 100.068 80.928C99.3639 80.8853 98.7559 80.64 98.2439 80.192C97.3052 79.808 96.7932 79.1253 96.7079 78.144C96.6439 77.312 96.9319 76.5653 97.5719 75.904C98.2972 74.816 99.6199 74.0587 101.54 73.632C103.439 73.2693 105.081 73.4293 106.468 74.112C107.215 74.304 107.737 74.8693 108.036 75.808C108.271 76.64 108.217 77.312 107.876 77.824C107.855 78.0373 107.631 78.0267 107.204 77.792C106.671 77.4933 106.425 77.0987 106.468 76.608C105.615 75.3707 104.708 74.6987 103.748 74.592C103.535 74.5707 103.215 74.5813 102.788 74.624C102.361 74.6453 101.807 74.7093 101.124 74.816C99.9719 75.1147 99.2892 75.7653 99.0759 76.768C99.0545 76.8533 99.0332 76.9493 99.0119 77.056C99.0119 77.1413 99.0119 77.2373 99.0119 77.344C99.0119 78.1547 99.3319 78.8053 99.9719 79.296C100.036 79.3387 100.132 79.4133 100.26 79.52C100.388 79.6053 100.559 79.712 100.772 79.84C101.049 80.0747 101.519 80.192 102.18 80.192C103.183 80.4053 104.1 80.6613 104.932 80.96C105.785 81.2373 106.553 81.5787 107.236 81.984C108.111 82.4747 108.687 83.1893 108.964 84.128C109.263 85.216 109.039 86.112 108.292 86.816C107.972 87.0933 107.62 87.2853 107.236 87.392ZM124.931 88.704C124.227 89.0453 123.576 89.1093 122.979 88.896C122.829 88.832 122.723 88.768 122.659 88.704C121.763 87.8293 120.643 87.616 119.299 88.064C119.192 88.0853 119.021 88.1493 118.787 88.256C118.659 88.2773 118.563 88.3093 118.499 88.352C117.283 88.8427 115.928 88.8 114.435 88.224C112.771 87.584 111.768 86.5173 111.427 85.024C111.363 84.7253 111.331 84.4373 111.331 84.16V78.112C111.331 77.408 111.256 76.992 111.107 76.864C111.064 76.8213 110.627 76.608 109.795 76.224C109.667 76.224 109.507 76.1813 109.315 76.096C108.867 75.9253 108.525 75.84 108.291 75.84V75.072C108.781 74.7733 109.677 74.4747 110.979 74.176C111.213 74.1333 111.416 74.0907 111.587 74.048C111.757 74.0053 111.917 73.9627 112.067 73.92C112.963 73.3013 113.464 73.5467 113.571 74.656C113.592 74.7413 113.603 74.816 113.603 74.88C113.603 74.944 113.603 75.008 113.603 75.072V84.544C113.603 86.4 114.275 87.36 115.619 87.424C115.832 87.424 116.056 87.4133 116.291 87.392C116.525 87.3493 116.76 87.2853 116.995 87.2C117.976 87.2 118.979 86.944 120.003 86.432C121.816 85.5147 122.573 84.256 122.275 82.656C122.168 82.1013 122.104 80.8107 122.083 78.784C122.061 77.8027 121.997 77.024 121.891 76.448C121.869 75.744 121.496 75.3707 120.771 75.328C120.237 75.328 119.885 75.1147 119.715 74.688C119.565 74.2827 119.747 74.016 120.259 73.888C120.344 73.8667 120.429 73.856 120.515 73.856C120.6 73.8347 120.685 73.824 120.771 73.824C122.307 73.376 123.277 73.3867 123.683 73.856C124.003 74.24 124.163 74.9867 124.163 76.096V86.432C124.291 86.5387 124.397 86.6773 124.483 86.848C124.632 87.04 124.781 87.1573 124.931 87.2C125.4 87.2 125.688 87.4133 125.795 87.84C125.923 88.2667 125.752 88.544 125.283 88.672C125.219 88.6933 125.155 88.704 125.091 88.704C125.027 88.704 124.973 88.704 124.931 88.704ZM128.91 87.872C127.609 88 126.585 87.9787 125.838 87.808C125.646 87.424 125.667 87.1147 125.902 86.88C126.009 86.7947 126.083 86.7307 126.126 86.688C126.19 86.6453 126.222 86.624 126.222 86.624C127.118 86.2187 127.63 85.8133 127.758 85.408C127.779 85.3227 127.79 85.216 127.79 85.088C127.79 84.704 127.694 82.6773 127.502 79.008C127.438 78.0053 127.406 77.1733 127.406 76.512C127.406 76.0213 127.193 75.7227 126.766 75.616C126.233 75.488 125.923 75.4027 125.838 75.36C125.539 75.36 125.369 75.2107 125.326 74.912C125.369 74.6133 125.539 74.368 125.838 74.176C126.03 74.176 126.457 74.08 127.118 73.888C127.374 73.824 127.598 73.792 127.79 73.792H128.942C129.326 74.56 129.817 74.848 130.414 74.656C130.478 74.6347 130.563 74.6133 130.67 74.592C130.777 74.5493 130.905 74.496 131.054 74.432C131.203 74.368 131.321 74.3147 131.406 74.272C131.513 74.2293 131.598 74.1973 131.662 74.176C133.198 73.664 134.361 73.408 135.15 73.408C136.387 73.408 137.379 74.0053 138.126 75.2C138.211 75.3493 138.297 75.4987 138.382 75.648C138.467 75.7973 138.553 75.9573 138.638 76.128C139.193 79.3707 139.321 81.9733 139.022 83.936C139.022 85.024 139.203 85.7493 139.566 86.112C139.843 86.368 140.185 86.5387 140.59 86.624C141.102 86.688 141.347 86.8907 141.326 87.232C141.326 87.5093 141.145 87.7013 140.782 87.808H140.59C140.59 87.7653 140.003 87.7547 138.83 87.776L137.07 87.808C136.409 87.808 136.057 87.6267 136.014 87.264C136.014 87.0507 136.121 86.8373 136.334 86.624C136.825 85.152 137.07 83.2107 137.07 80.8C136.814 79.7333 136.686 78.304 136.686 76.512C136.622 75.5093 136.11 74.9973 135.15 74.976C133.763 74.976 132.761 75.136 132.142 75.456C131.822 75.648 131.534 75.872 131.278 76.128C130.339 76.7893 129.817 77.5893 129.71 78.528V85.088C129.603 85.408 129.881 85.8987 130.542 86.56C131.033 87.0507 131.214 87.3813 131.086 87.552C130.915 87.7013 130.595 87.7867 130.126 87.808C129.998 87.808 129.827 87.8187 129.614 87.84C129.422 87.84 129.187 87.8507 128.91 87.872Z" fill="#FFF9E5"/>
</g>
</g>
<defs>
<filter id="filter0_d_1010_230383" x="0" y="0" width="179" height="107" filterUnits="userSpaceOnUse" color-interpolation-filters="sRGB">
<feFlood flood-opacity="0" result="BackgroundImageFix"/>
<feColorMatrix in="SourceAlpha" type="matrix" values="0 0 0 0 0 0 0 0 0 0 0 0 0 0 0 0 0 0 127 0" result="hardAlpha"/>
<feOffset dx="2" dy="2"/>
<feGaussianBlur stdDeviation="1"/>
<feComposite in2="hardAlpha" operator="out"/>
<feColorMatrix type="matrix" values="0 0 0 0 0.345098 0 0 0 0 0.235294 0 0 0 0 0.137255 0 0 0 0.25 0"/>
<feBlend mode="normal" in2="BackgroundImageFix" result="effect1_dropShadow_1010_230383"/>
<feBlend mode="normal" in="SourceGraphic" in2="effect1_dropShadow_1010_230383" result="shape"/>
</filter>
<filter id="filter1_d_1010_230383" x="34.7363" y="17.84" width="110.622" height="77.04" filterUnits="userSpaceOnUse" color-interpolation-filters="sRGB">
<feFlood flood-opacity="0" result="BackgroundImageFix"/>
<feColorMatrix in="SourceAlpha" type="matrix" values="0 0 0 0 0 0 0 0 0 0 0 0 0 0 0 0 0 0 127 0" result="hardAlpha"/>
<feOffset dx="2" dy="2"/>
<feGaussianBlur stdDeviation="1"/>
<feComposite in2="hardAlpha" operator="out"/>
<feColorMatrix type="matrix" values="0 0 0 0 0.345098 0 0 0 0 0.235294 0 0 0 0 0.137255 0 0 0 0.25 0"/>
<feBlend mode="normal" in2="BackgroundImageFix" result="effect1_dropShadow_1010_230383"/>
<feBlend mode="normal" in="SourceGraphic" in2="effect1_dropShadow_1010_230383" result="shape"/>
</filter>
</defs>
</svg>
