<svg width="364" height="357" viewBox="0 0 364 357" fill="none" xmlns="http://www.w3.org/2000/svg">
<path d="M326.485 207.81C326.263 210.685 326.257 213.679 325.86 216.535C322.611 216.504 312.221 217.175 310.067 216.435C307.563 215.577 306.58 208.59 310.604 207.822C314.36 207.104 322.164 207.844 326.485 207.81Z" fill="#FED709"/>
<path d="M327.109 196.59C311.048 196.415 294.945 196.387 278.924 197.333C275.768 199.006 275.74 204.872 278.506 206.857C281.69 209.146 293.119 207.138 297.452 207.766C299.768 210.963 299.562 213.382 296.75 216.545L270.832 216.666C266.843 217.556 266.24 223.328 268.485 226.063C270.039 227.955 279.608 226.975 282.567 227.106C293.849 227.596 309.705 226.353 319.973 227.721C321.805 227.964 321.98 228.695 323.363 229.622C324.131 225.279 325.258 220.903 325.864 216.532C335.42 216.623 348.313 215.446 357.354 216.516C362.798 217.163 363.797 223.484 360.129 226.8L339.391 227.877C334.596 229.438 335.641 237.086 339.381 238.229C344.429 239.771 357.079 236.552 361.365 239.306C364.1 241.06 364.896 244.803 362.345 247.092C361.893 247.497 358.924 248.943 358.587 248.943H317.135C315.78 253.004 314.013 256.941 312.15 260.787C318.187 260.825 337.031 259.735 341.267 261.898C345.878 264.252 344.411 270.78 339.222 271.342L306.543 272.001C306.034 271.507 311.41 262.307 312.15 260.784C290.862 260.647 269.552 260.884 248.258 260.784C243.167 257.453 244.256 250.666 250.097 248.905L316.723 248.837C318.309 248.297 320.494 239.755 320.872 237.72C297.505 237.97 274.095 237.389 250.721 237.686C238.587 237.842 222.466 237.227 210.834 238.316C207.693 238.61 204.29 239.936 204.281 243.636C204.256 252.514 224.954 247.207 229.855 249.261C233.935 250.972 234.166 257.428 231.638 260.675C219.36 261.761 205.505 259.576 193.414 260.787C189.568 261.171 184.913 262.997 186.359 267.814C187.982 273.224 201.802 271.186 206.523 271.351C207.999 271.401 209.36 271.988 210.834 272.026C227.099 272.428 243.426 271.582 259.684 272.107C261.333 274.07 261.407 279.065 259.172 280.42C258.732 280.689 250.525 281.26 248.908 281.376C244.721 281.672 239.461 279.615 238.231 285.053C237.426 288.615 239.074 291.359 242.708 291.887C254.34 293.569 269.783 290.95 281.949 291.909C283.279 292.015 284.2 293.139 284.934 293.086C286.947 292.942 295.794 282.755 297.811 280.726H274.126C272.459 277.323 271.613 275.616 273.501 272.001H305.912L298.432 280.72C305.741 281.063 313.302 280.289 320.585 280.701C322.498 280.81 326.338 281.06 328.024 281.363C332.413 282.15 332.498 291.003 326.757 291.912C321.197 292.792 305.272 290.591 301.557 292.268C297.842 293.944 298.083 300.156 300.917 302.863L355.911 303.344C365.452 303.316 366.797 313.933 357.332 315.01C351.02 315.728 341.03 315.513 334.296 315.659C311.457 316.156 288.555 315.232 265.709 315.638C265.943 314.061 269.468 314.408 268.204 311.898L262.906 315.325L264.145 316.249C259.347 318.684 254.989 321.947 250.234 324.469C215.026 343.138 170.531 346.547 133.103 332.308C131.558 331.721 127.475 330.376 126.451 329.611C125.505 328.902 125.04 327.054 123.903 326.548C122.417 325.89 120.579 326.661 119.227 325.624C120.869 329.015 126.772 327.463 125.642 332.008C124.134 338.08 116.783 331.843 112.69 337.765C110.445 341.012 111.747 342.707 113.286 345.891L157.151 346.903C159.47 347.68 159.705 355.041 156.63 355.528H84.9461C81.996 355.154 82.174 348.186 84.0033 347.106C85.7797 346.057 96.7685 347.127 99.7904 346.063C104.052 342.588 104.948 338.839 99.7779 335.708C78.1468 335.218 56.4751 336.317 34.9095 334.506C32.4713 333.341 32.5712 329.177 34.1134 327.301C35.6338 325.449 44.6309 326.361 47.5404 326.227C54.2898 325.915 63.93 326.448 70.0176 325.64C73.308 325.203 75.9178 320.626 74.5036 317.351C71.7439 310.967 60.8207 314.826 55.0265 313.768C51.9578 313.206 52.1513 306 54.5239 305.161C54.7674 305.073 57.9579 304.418 58.1421 304.418H86.5039C61.4481 281.507 43.532 249.414 39.7546 215.283C42.6547 215.311 45.5799 215.268 48.4801 215.283C52.9568 236.964 64.0705 259.413 77.794 276.662C80.944 280.623 85.583 284.582 88.3802 288.515C91.6706 293.142 91.1461 295.939 98.5604 297.659L107.074 304.418H87.1283L97.7238 313.761C95.2856 313.971 87.8619 313.468 86.0076 314.523C85.7204 314.689 83.3415 318.828 83.3821 319.63C83.4289 320.561 85.8265 324.884 86.5071 325.293L118.29 326.227C112.593 322.209 105.887 319.518 100.38 315.194C99.8716 314.795 99.241 315.219 99.5906 313.768H115.484C115.902 313.768 117.107 311.991 117.06 311.283L117.897 311.342C159.211 336.679 212.335 338.88 256.263 318.663L261.651 315.634H249.185L271.625 303.169H175.947C173.628 303.169 169.179 305.154 168.836 307.877C167.518 318.26 185.197 314.773 192.181 314.985C193.658 315.029 195.019 315.625 196.492 315.659C213.412 316.04 230.395 315.316 247.316 315.641L235.474 320.308C197.71 331.525 157.001 327.076 122.861 307.639C116.252 303.878 110.383 299.073 103.961 295.058L119.218 290.079C121.862 291.437 123.242 294.212 126.626 294.322C130.288 293.076 126.86 285.581 127.65 284.472C134.106 289.149 140.021 282.284 146.967 283.224C146.833 289.864 146.072 296.142 147.036 302.788C147.164 303.662 148.644 312.85 150.695 311.273C153.901 302.061 153.614 292.199 154.091 282.565C154.519 281.956 155.321 281.944 155.996 281.925C161.272 281.772 167.971 283.885 173.466 283.239C183.846 282.012 167.809 275.641 163.925 275.257C160.663 274.935 156.91 277.323 153.192 276.374V270.137H166.598C167.047 270.137 169.722 268.972 169.395 267.97C168.605 264.424 156.211 263.328 153.202 265.151L153.174 259.969C153.299 259.557 154.582 258.917 154.753 258.917H170.337C170.469 258.917 171.046 259.851 171.265 259.541C171.889 256.111 169.626 256.726 167.487 255.424L170.278 247.641C174.539 246.189 178.779 248.059 183.115 246.111C183.655 245.868 184.813 246.021 184.354 244.9C183.149 241.962 174.202 240.92 171.268 240.839C171.068 240.648 171.848 235.572 171.998 235.341C172.498 234.57 174.671 235.341 174.408 233.665C174.065 231.47 166.32 227.624 164.141 227.767C162.917 227.849 161.465 229.019 160.079 229.338C147.957 232.119 157.516 224.827 154.931 220.394C154.731 220.053 149.044 216.582 148.232 216.195C146.774 215.496 142.007 213.195 141.973 216.186C141.944 217.809 144.114 219.588 144.345 220.728C144.529 221.646 143.855 222.595 143.977 223.556C144.261 225.816 146.552 228.089 145.709 230.861C143.686 231.13 128.227 232.076 128.246 233.69C128.187 235.781 133.456 239.265 134.945 239.499C137.59 239.918 142.834 234.985 146.265 236.549C147.214 238.928 146.677 240.889 146.306 243.295L122.027 245.824C121.019 249.986 127.662 253.357 130.903 252.552C132.286 252.208 135.286 249.561 137.299 249.561H146.961L146.381 254.899L130.75 256.735C130.793 258.877 136.285 261.568 138.086 261.908C142.104 262.666 148.004 255.24 146.961 265.766H135.429C134.536 265.766 129.251 267.062 130.428 268.898C132.663 272.382 143.274 272.644 146.955 271.379L146.927 276.955C139.803 278.166 132.229 277.689 125.446 280.548C121.937 277.561 118.899 273.106 113.923 272.628C114.741 274.579 118.709 282.796 117.591 284.394L102.085 288.827C101.123 287.635 111.085 274.835 109.896 272.013C109.562 271.22 107.942 270.864 108.316 269.506C111.463 268.61 128.187 267.677 128.88 264.82C127.943 262.317 123.404 262.339 121.109 261.989L103.621 264.552L104.011 258.349C107.355 258.767 110.117 257.234 113.161 256.588C114.825 256.232 122.623 255.798 122.636 254.234C116.651 250.17 109.843 253.004 103.327 253.295L103.955 245.197C108.469 245.181 114.472 244.117 118.943 243.049C120.894 242.584 122.62 242.231 123.894 240.52C117.216 237.298 110.27 240.355 103.327 240.205L104.676 232.831C106.078 232.244 107.473 231.632 108.934 231.167C114.944 229.263 120.828 230.309 126.672 228.336C131.365 226.753 124.25 224.924 122.274 224.692C112.15 223.506 101.089 227.568 91.4864 230.243C90.7434 233.115 94.7799 233.568 95.6696 234.779C97.3523 237.067 97.9298 250.295 97.7456 253.638C97.499 258.134 95.5479 262.691 96.4751 267.012L80.6099 269.528C79.1333 269.338 76.4298 264.958 75.3965 263.469C65.75 249.558 58.3981 231.792 54.7112 215.28C65.8062 215.318 83.3259 216.701 93.6092 215.221C99.9028 214.316 98.907 206.589 95.2856 205.574C89.4759 203.948 79.2145 206.436 73.1175 205.29C69.3963 204.591 68.7907 198.866 71.31 196.658L93.3595 195.647C95.8975 194.439 96.2378 186.278 93.347 185.061C92.3199 184.627 88.2428 184.187 86.8411 184.087C75.4495 183.285 62.5845 184.277 50.9744 184.112C50.9338 180.625 51.3584 177.562 51.5988 174.138C61.445 173.925 71.335 174.309 81.1906 174.122C85.5237 173.104 85.9482 164.975 81.8181 164.179C71.9562 164.123 62.0788 164.207 52.2231 164.167C56.756 130.223 75.59 94.0846 104.632 75.3973C200.719 13.5696 326.875 83.0084 327.103 196.577L327.109 196.59ZM241.403 114.314C244.281 113.868 248.062 114.639 251.065 114.314L250.481 119.652L234.85 121.488C235.993 124.575 241.34 127.26 244.362 126.667C246.214 126.305 248.099 123.87 250.481 125.178L251.062 130.519H239.53C239.089 130.519 235.271 131.709 234.859 132.083C233.789 132.876 234.157 133.136 234.828 133.972C237.672 137.503 247.069 137.194 251.055 136.132L251.027 141.708L229.568 144.858C225.666 142.51 223.096 137.715 218.027 137.381C218.844 139.332 222.812 147.549 221.695 149.147L206.189 153.58C205.227 152.388 215.189 139.588 213.999 136.766C213.665 135.973 212.045 135.617 212.42 134.259C219.378 132.539 227.938 133.947 233.608 128.955C225.506 124.61 216.35 127.935 208.062 129.898L208.084 123.071C211.589 123.779 214.202 121.953 217.249 121.326C218.707 121.026 226.727 120.658 226.74 118.984C220.755 114.92 213.946 117.754 207.431 118.045L208.059 109.947C208.777 110.196 209.207 110.49 210.05 110.427C212.136 110.271 224.895 107.527 226.356 106.744C227.002 106.397 227.483 105.776 227.995 105.267C221.617 102.498 214.552 104.171 208.059 105.582C207.425 102.592 209.794 100.294 208.677 97.5061C213.775 96.0919 219.032 93.6038 224.408 94.8432C225.719 93.4228 236.217 93.0201 230.854 90.5725C221.676 86.3862 204.921 92.3988 195.587 94.9899C194.822 97.9026 199.183 98.3834 199.942 99.8256C201.478 102.738 202.046 114.739 201.846 118.385C201.599 122.88 199.645 127.438 200.576 131.759L183.124 134.259C184.866 138.711 190.539 142.841 195.309 141.14C197.585 140.328 203.029 135.383 204.631 138.624C205.823 141.037 203.919 142.37 203.376 144.227C201.609 150.265 200.975 154.149 193.096 153.584C193.464 159.874 202.127 164.398 206.788 159.484C211.571 159.393 219.022 154.617 223.371 154.879C225.004 154.976 227.885 159.783 230.676 159.109C234.407 157.864 230.951 150.331 231.744 149.216C238.265 153.911 244.225 147.265 251.062 147.967C250.924 154.607 250.166 160.885 251.13 167.532C251.258 168.406 252.738 177.593 254.789 176.017C258.011 166.801 257.761 156.949 258.186 147.309C261.37 145.745 280.117 150.302 280.975 146.391C281.587 143.619 270.23 140.219 268.019 140C264.757 139.679 261.005 142.067 257.287 141.118L257.874 135.155C262.884 133.966 269.121 136.482 273.495 133.317C274.376 129.527 259.912 127.816 257.296 129.898L257.324 124.319C258.179 123.442 273.164 123.246 275.362 124.288C275.986 120.857 273.723 121.472 271.585 120.171C271.447 119.346 273.764 113.022 274.425 112.438C275.862 111.177 282.267 112.057 284.88 111.676C285.536 111.579 288.898 110.774 288.452 109.65C285.392 105.907 279.832 106.15 275.365 105.589C275.165 105.398 275.946 100.322 276.096 100.091C276.595 99.3199 278.768 100.091 278.506 98.4146C278.162 96.2199 270.417 92.3738 268.238 92.5174C265.728 92.686 261.239 96.0857 257.955 94.3219C257.193 93.2604 260.387 87.4663 259.032 85.1437C258.832 84.8034 253.144 81.3319 252.332 80.9448C250.831 80.2237 246.117 77.9572 246.073 80.9355C246.045 82.5588 248.218 84.3414 248.446 85.4777C248.636 86.4299 247.881 87.382 248.08 88.3061C248.599 90.7162 250.259 92.9514 249.819 95.6174C245.04 96.6414 237.372 95.7298 233.161 97.965C232.612 98.2554 232.134 97.8214 232.346 99.0452C232.627 100.743 237.519 104.018 239.061 104.24C241.768 104.627 246.919 99.8007 250.431 101.237L250.144 107.477L226.128 110.58C225.275 114.451 229.527 116.877 232.843 117.311C235.902 117.714 238.537 114.76 241.403 114.317V114.314ZM134.508 93.7412C136.968 87.7254 132.679 81.2133 127.025 86.5829C127.044 89.099 129.938 87.2135 130.472 88.0969C131.696 93.9067 130.931 96.7975 124.531 96.8693C125.074 99.1701 126.707 99.4011 128.895 99.3605C129.482 102.13 124.927 102.919 124.581 104.128L125.814 108.052C126.997 108.879 132.645 104.024 134.82 103.715C135.866 103.566 135.816 103.697 135.766 104.658C135.651 106.884 132.794 113.184 130.746 114.036L123.913 111.826C122.839 112.869 127.821 115.734 128.261 116.499C128.261 117.748 116.545 122.665 115.268 118.909C114.925 117.901 115 111.064 115.169 109.631C115.581 106.144 118.347 105.526 119.545 102.482L115.187 104.97C114.248 98.6862 116.37 100 119.986 97.6185C123.972 94.9899 118.974 93.9316 116.689 93.1668C115.365 91.3936 120.541 84.2321 110.82 85.6494C110.152 87.8472 111.962 87.4382 112.399 88.1282C112.68 88.5715 112.037 96.0076 111.46 96.5727C108.194 97.9369 104.404 99.6571 100.849 98.7424C102.378 103.562 107.639 103.381 111.438 101.23C111.138 103.331 112.034 106.89 111.138 108.717C110.317 110.393 104.735 112.482 104.526 115.878C104.348 118.756 105.753 118.101 106.712 119.368C109.721 123.352 114.975 131.159 115.19 120.558C119.648 123.308 122.986 123.498 127.831 121.675C129.248 121.141 130.977 119.346 132.217 119.449C133.984 119.593 138.52 123.352 140.112 124.616L136.375 126.789C141.086 125.834 144.498 128.493 148.837 128.662C149.877 124.279 134.611 118.366 134.518 117.139C138.876 111.23 146.368 98.4302 132.632 101.234C132.426 97.5592 139.182 97.3625 140.062 95.2678C141.176 92.6205 135.885 93.0669 134.505 93.7568L134.508 93.7412ZM126.404 136.747C128.383 130.913 126.56 127.232 120.17 127.404C121.718 130.932 121.784 134.831 121.128 138.646C116.742 140.578 111.834 141.33 107.08 141.118C105.244 142.757 114.447 145.979 115.568 146.079C117.042 146.213 120.491 144.664 120.107 146.347C119.673 148.258 117.288 152.535 116.071 154.164C113.021 158.251 106.2 163.633 100.842 162.315C105.528 167.363 115.412 163.261 119.243 158.585C122.464 154.648 123.697 148.492 125.293 143.753C131.199 141.205 146.58 137.462 131.745 133.613C130.737 135.505 128.502 136.451 126.398 136.751L126.404 136.747ZM134.511 164.794C136.962 166.311 149.384 171.749 145.135 164.454C142.229 159.468 131.102 153.765 125.162 154.835L137.324 163.545L137.618 164.803L134.511 164.797V164.794ZM183.124 171.347C183.889 175.955 182.563 182.407 183.124 187.24L156.015 189.157C153.511 189.047 153.127 187.118 149.699 188.423C149.056 188.667 148.591 188.114 148.906 189.35C149.493 191.539 154.382 197.042 156.605 197.155C158.765 197.264 167.088 194.623 170.434 194.186C174.642 193.637 178.873 193.287 183.128 193.471C184.305 202.624 181.139 216.507 184.957 224.986C186.849 229.188 188.544 225.813 189.2 222.922C189.574 221.271 190.604 215.118 190.604 213.732V192.85C194.741 192.897 198.606 192.157 202.786 192.201C208.133 192.257 214.955 193.771 220.24 193.502C223.168 193.356 225.026 192.806 222.403 190.034C220.611 188.139 212.748 185.579 210.288 185.994C206.526 186.631 206.494 186.41 202.758 186.575C198.646 186.756 194.791 188.055 190.67 186.55C190.711 182.976 190.355 179.289 190.611 175.717C190.77 173.504 192.428 169.595 191.759 167.71C190.72 164.778 181.379 161.547 178.136 161.685C178.476 165.178 182.525 167.76 183.118 171.344L183.124 171.347ZM117.519 169.321C117.216 169.065 115.512 168.637 115.159 168.84C113.87 172.789 105.051 174.016 111.107 177.893L122.361 172.917L116.445 181.627C115.88 178.646 111.404 178.674 108.953 178.518C110.373 181.63 112.584 182.236 115.805 182.56C114.644 183.69 112.072 184.814 110.483 184.789C108.369 184.755 107.695 182.201 105.213 182.882C105.778 186.556 104.308 187.861 108.947 188.795C105.747 192.085 101.698 194.573 97.1088 195.35C97.7675 196.905 99.3627 197.23 100.977 197.089C107.273 196.543 115.184 190.04 119.243 185.376C122.536 181.589 124.665 176.779 128.608 173.541C129.626 172.012 125.823 170.501 124.812 170.435C123.192 170.329 118.05 172.561 117.678 172.274C118.087 171.406 118.343 170.014 117.519 169.318V169.321ZM134.505 184.115C134.102 183.587 144.614 177.728 142.335 174.141C139.584 169.808 131.368 175.034 128.274 176.651C128.146 177.824 129.582 177.153 130.269 177.088C131.82 176.938 133.422 176.295 135.123 176.644C136.032 177.425 130.896 181.393 130.325 181.527C129.538 181.708 127.409 181.027 126.111 180.974C125.43 180.946 123.741 180.594 123.913 181.621L127.643 182.882L125.78 184.736C127.078 184.858 128.561 184.518 129.816 184.755C130.406 184.867 136.644 189.99 137.068 190.655C137.846 191.876 136.912 192.756 136.99 192.834C137.09 192.934 138.86 193.096 139.734 193.534C142.385 194.857 144.442 197.545 147.589 197.205C147.867 190.512 140.006 186.194 134.505 184.112V184.115ZM128.892 190.352C126.9 184.833 120.563 189.538 116.43 189.116C117.126 190.805 119.199 191.005 120.791 190.986L119.552 192.219L128.895 190.352H128.892ZM124.55 197.236L132.645 195.666C133.631 194.873 133.05 195.038 132.638 194.405C129.357 189.335 118.531 198.02 113.939 195.338L113.277 197.448C116.355 200.517 119.171 198.329 122.658 197.842C121.172 202.727 125.393 214.94 116.43 207.81C115.662 208.768 120.195 214.593 120.597 214.69C127.656 216.41 125.711 200.938 124.543 197.236H124.55ZM140.059 207.747C140.624 202.334 134.396 200.967 130.144 200.336C131.252 201.697 130.999 204.079 133.26 203.448C133.918 206.433 132.117 204.422 131.396 205.93C134.39 206.595 136.909 209.414 140.062 207.744L140.059 207.747ZM110.186 202.2C108.535 202.053 109.165 202.15 108.972 203.143C108.488 205.618 108.038 207.65 110.167 209.417C113.601 212.268 114.781 206.327 115.787 204.485C116.096 203.917 117.295 204.419 117.051 203.455L111.213 204.744L110.189 202.203L110.186 202.2ZM323.981 230.249C322.377 230.068 322.992 230.246 322.726 231.155C322.28 232.681 322.33 234.408 321.5 235.85C324.571 235.304 325.165 232.794 323.984 230.249H323.981ZM272.256 303.175H284.721C286.073 299.61 287.806 297.39 285.021 293.813L272.256 303.175Z" fill="#FED709"/>
<path d="M52.8504 205.315C53.3374 208.665 53.9837 211.987 54.7204 215.29C52.6475 215.283 50.559 215.302 48.4861 215.29C48.1927 213.869 46.7223 205.834 47.2374 205.315C49.098 205.256 50.9898 205.403 52.8504 205.315Z" fill="#FED709"/>
<path d="M326.485 207.81C326.785 203.889 327.116 200.651 327.109 196.59C332.485 196.649 338.37 196.215 343.652 196.565C345.101 196.662 349.284 197.018 350.364 197.333C353.455 198.232 353.757 206.645 349.1 207.679C344.092 208.787 332.345 207.766 326.482 207.813L326.485 207.81Z" fill="#FED709"/>
<path d="M50.9805 184.124C51.0211 187.846 51.2677 192.909 51.6049 196.59C49.7412 196.555 47.8618 196.599 45.995 196.59C45.6828 192.254 45.3768 188.579 45.3706 184.124C47.2281 184.209 49.1199 184.099 50.9805 184.124Z" fill="#FED709"/>
<path d="M52.2293 164.176C51.8359 167.123 51.8234 171.063 51.6049 174.15C49.5913 174.194 47.3093 173.95 45.3706 174.15C45.5517 171.116 46.1979 167.282 46.6162 164.176C48.4831 164.176 50.3593 164.17 52.2261 164.176H52.2293Z" fill="#FED709"/>
<path d="M42.2549 164.176C44.6493 153.374 48.3799 142.957 53.1688 133.008L54.0929 133.317C52.3509 135.555 51.9575 138.43 51.2863 141.106C49.3945 148.648 47.6619 156.465 46.6192 164.176C45.1676 164.176 43.7097 164.173 42.2549 164.176Z" fill="#FED709"/>
<path d="M45.3706 174.15C45.1771 177.359 45.3675 180.868 45.3706 184.124C44.6838 184.093 43.4289 184.352 42.9793 184.037C41.1624 182.766 41.8679 176.61 43.1916 174.765C43.7598 173.947 44.5871 174.231 45.3706 174.15Z" fill="#FED709"/>
<path d="M45.9947 196.59L46.6222 205.318L39.1361 205.312C38.8333 208.706 39.3952 211.959 39.7636 215.29C35.7052 215.252 28.6967 215.939 25.1316 215.274C21.095 214.522 21.2667 206.414 24.6227 205.45C26.8735 204.803 38.0278 205.812 38.518 205.322C38.5492 202.421 38.4649 199.493 38.5148 196.593C41.0029 196.599 43.5066 196.577 45.9947 196.593V196.59Z" fill="#FED709"/>
<path d="M42.2552 164.176C39.817 175.18 38.7057 185.298 38.5152 196.587C27.3828 196.562 16.2847 196.762 5.18035 195.95C1.11885 195.176 1.18753 185.576 5.44571 184.399C10.0535 182.926 28.8001 185.551 31.6628 183.815C34.5255 182.08 33.2019 176.619 32.2809 174.147H12.0234C8.95776 174.147 7.25636 165.347 12.4698 163.942C22.366 164.304 32.3371 164.201 42.2521 164.173L42.2552 164.176Z" fill="#FED709"/>
<path d="M51.605 196.59C53.6779 196.627 55.7695 196.562 57.8424 196.587C57.4178 198.603 58.5979 200.629 57.9954 202.615C56.9901 205.927 55.4948 205.197 52.8537 205.315C52.4354 202.446 51.8703 199.471 51.6081 196.59H51.605Z" fill="#FED709"/>
<path d="M37.2414 160.408L27.0705 160.976C25.4627 160.439 26.0247 157.183 26.1339 155.841C27.4389 139.776 40.7972 123.239 46.0075 107.78C48.0429 101.742 50.1595 97.2533 43.5943 93.3416C32.6929 86.8482 21.5605 94.35 18.8694 105.573L16.3907 118.038C11.3739 106.95 12.7132 93.5789 22.6375 85.6526C31.9936 78.182 47.8181 77.8043 55.9848 87.1822C66.5959 99.3636 55.4323 113.387 50.2501 125.109C45.2645 136.388 39.4392 148.308 37.2414 160.405V160.408Z" fill="#FED709"/>
<path d="M290.022 318.759C290.172 318.747 291.096 317.42 291.577 318.444C284.518 324.585 276.736 330.123 268.531 334.665C251.533 344.077 242.399 346.038 222.79 342.982C221.966 342.854 219.406 342.76 219.278 341.83C228.126 339.114 237.351 336.863 245.873 333.204C250.1 331.39 271.647 318.759 273.189 318.759C278.584 318.759 284.746 319.165 290.019 318.759H290.022Z" fill="#FED709"/>
<path d="M73.42 302.545C67.8476 301.299 59.1096 300.519 54.7827 296.566C50.9429 293.064 43.8001 275.613 43.0259 270.299C42.2892 265.239 43.3537 260.144 44.1311 255.18L54.8421 277.804L73.4169 302.542L73.42 302.545Z" fill="#FED709"/>
<path d="M291.58 323.751L288.458 335.589C288.015 335.967 280.297 332.598 281.996 331.194C283.382 330.41 285.414 329.408 286.56 328.387C287.406 327.635 290.468 322.824 291.58 323.751Z" fill="#FED709"/>
<path d="M260.411 343.072L254.471 353.043C254.105 353.131 248.723 348.707 248.577 348.361C248.04 347.096 249.444 347.518 250.041 347.358C251.676 346.921 253.387 346.709 254.954 346.029C255.95 345.598 259.765 342.438 260.408 343.075L260.411 343.072Z" fill="#FED709"/>
<path d="M243.585 348.061L237.663 356.146L233.617 346.809C236.685 348.573 240.201 347.992 243.585 348.061Z" fill="#FED709"/>
<path d="M272.268 345.557L268.56 339.701L276.614 334.34C276.932 334.756 274.45 343.497 273.979 344.477C273.573 345.323 273.305 345.757 272.268 345.554V345.557Z" fill="#FED709"/>
<path d="M41.6277 272.631C41.0501 273.259 33.5577 266.8 32.9053 265.785C35.4464 265.994 37.922 264.468 40.4258 265.429L41.6277 272.631Z" fill="#FED709"/>
<path d="M29.1622 103.715L25.3848 100.319C22.7562 98.1555 30.72 93.3666 31.0291 93.7443L29.1622 103.715Z" fill="#FED709"/>
<path d="M24.8009 113.059C17.2461 113.306 19.7311 107.287 22.6219 103.094L24.8009 113.059Z" fill="#FED709"/>
<path d="M51.5987 298.811C48.6642 296.975 44.6464 295.798 41.8118 293.975C41.1999 293.582 40.6973 294.038 41.0095 292.58C42.9669 293.151 46.251 291.228 47.8713 292.246C48.1897 292.446 51.8547 298.533 51.5956 298.808L51.5987 298.811Z" fill="#FED709"/>
<path d="M44.7461 285.097L36.0269 280.43C41.7617 276.368 43.2914 279.574 44.7461 285.097Z" fill="#FED709"/>
<path d="M41.6305 95.6049L35.4056 98.1055C35.9894 96.3823 33.8697 93.3166 36.0674 93.3572C37.6159 93.3853 40.9593 93.9285 41.6305 95.6018V95.6049Z" fill="#FED709"/>
<path d="M85.2646 276.381C87.1783 276.577 88.2241 277.211 90.2845 276.746C92.7508 276.19 100.112 269.441 100.864 274.854C100.942 275.422 98.779 282.556 98.3857 283.573C98.1203 284.263 96.6437 286.848 96.1473 286.97L85.2646 276.381Z" fill="#FED709"/>
<path d="M163.129 235.915L161.974 241.822L153.208 242.712L153.917 235.947C157.076 235.65 160.045 234.498 163.129 235.915Z" fill="#FED709"/>
<path d="M161.309 247.703L160.597 253.223L153.202 253.938V247.697L161.309 247.703Z" fill="#FED709"/>
<path d="M107.704 304.427C112.649 304.299 117.226 303.322 117.65 309.662L116.189 310.599L107.704 304.424V304.427Z" fill="#FED709"/>
<path d="M267.195 100.675L266.059 106.556L257.299 107.455L258.007 100.687C261.145 100.413 264.148 99.2013 267.195 100.675Z" fill="#FED709"/>
<path d="M265.4 112.444L264.67 117.942C262.385 119.097 259.747 118.597 257.293 118.678V112.438L265.4 112.444Z" fill="#FED709"/>
<path d="M112.065 112.447C111.076 116.315 112.018 124.285 107.133 117.208C107.976 116.459 110.888 111.523 112.065 112.447Z" fill="#FED709"/>
<path d="M318.999 134.881C318.062 134.737 317.838 133.704 317.432 133.023C313.483 126.408 310.582 118.151 306.427 111.617C294.895 93.4852 279.442 78.3912 261.37 66.9185L230.017 53.0825C228.831 51.9056 229.643 47.8566 228.282 45.7806C227.38 44.4038 224.657 43.2956 223.387 41.947C221.105 39.5213 219.472 35.157 217.106 32.647C214.096 29.4565 207.122 26.1162 203.257 23.4533C202.708 23.0724 202.108 23.5532 202.445 22.0672C207.621 21.7581 213.653 17.1503 218.386 16.4853C220.802 16.1451 231.16 17.2127 233.754 17.8683C238.562 19.0827 269.637 33.7553 272.911 36.6804C276.52 39.9053 290.831 57.5686 293.272 61.8236C298.148 70.3275 304.095 85.1562 307.898 94.5716C313.008 107.237 318.125 121.235 319.002 134.884L318.999 134.881Z" fill="#FED709"/>
<path d="M1.11863 125.528C0.091549 114.504 1.38086 102.426 4.40904 91.737C11.1709 67.8644 24.3762 57.2876 49.7411 64.7519C54.0086 66.0069 62.9214 71.0049 66.7113 70.5648C75.9832 69.4877 82.8262 50.0263 93.3312 47.894C102.163 46.099 108.89 52.2084 117.029 48.2499C118.643 56.7319 131.371 57.8183 133.019 48.8275C138.56 47.9908 151.469 50.3821 155.927 48.1594C157.956 47.1479 163.816 41.8002 165.464 41.538C166.351 41.3975 168.28 42.512 169.725 42.6431C172.566 42.8991 175.807 42.3122 177.043 39.359C178.691 35.4223 175.267 33.7178 181.847 32.3036C187.613 31.0643 190.639 38.0259 190.542 42.8398L185.768 46.8389C170.075 49.9264 153.08 50.3697 137.774 54.9431C133.956 56.0826 118.943 62.807 116.451 61.6644C115.337 61.1556 114.644 59.2138 112.755 58.5894C111.375 58.1336 101.86 57.0753 99.9026 56.9817C95.4884 56.7694 94.6205 57.6185 91.8046 60.7091C84.7243 68.4856 80.232 80.3049 67.9601 81.7534C54.555 83.3361 36.9635 64.3398 22.3065 75.9811C11.5268 84.5412 6.23843 102.997 3.79716 116.062C3.65668 116.808 3.0167 127.785 1.12487 125.54L1.11863 125.528Z" fill="#FED709"/>
<path d="M168.695 33.8052C164.084 35.6908 157.859 43.2425 153.467 44.4538C149.721 45.4871 144.904 44.8752 141.058 45.1343C138.697 45.2936 135.092 46.4299 132.928 46.3924C129.925 46.3425 127.596 43.561 122.327 43.8575C117.544 44.126 110.489 47.3321 105.531 46.3581C104.079 46.074 95.5662 39.2497 95.8566 37.9698C99.3905 35.5753 104.229 35.6908 108.319 35.1507L106.383 30.237C101.679 29.2193 97.3707 31.5326 92.9751 31.9602C81.5274 33.0747 69.2461 25.7946 60.3801 19.2045C58.3135 17.6685 45.6638 7.12298 45.9916 5.55583C46.1009 5.03448 47.2341 4.279 47.899 4.86902C58.2136 11.1314 70.3825 19.5447 82.2516 22.2638C92.3788 24.5834 100.783 19.9256 111.772 20.7935C123.291 21.7019 128.48 26.4689 133.628 36.3527C141.182 33.8052 152.583 28.8634 160.466 28.5262C164.271 28.3639 168.864 29.1256 168.689 33.8052H168.695ZM125.155 38.2632C122.614 32.3099 117.566 30.4992 111.444 30.1683C111.15 30.4337 113.532 34.5357 113.954 34.8198C114.441 35.1476 124.693 38.6253 125.152 38.2632H125.155Z" fill="#FED709"/>
<path d="M155.515 6.04283C156.564 6.80768 157.057 10.1512 159.355 10.2979L159.47 11.1408C159.352 11.9649 154.847 17.8808 154.007 18.1867C151.607 19.0609 146.683 19.167 143.836 19.86C140.733 20.6124 131.443 24.0558 129.251 23.9184C127.575 23.8123 125.084 21.7113 123.285 21.1337C120.878 20.3595 110.726 19.6602 110.286 17.3033C109.524 13.2137 121.934 8.97735 124.996 8.49971C129.114 7.85661 133.946 8.93052 137.899 8.3124C140.836 7.85349 143.106 4.88151 146.031 4.58806C147.586 4.43197 154.469 5.27798 155.518 6.04283H155.515Z" fill="#FED709"/>
<path d="M210.546 0.248718C212.042 1.66915 201.861 7.74423 200.75 8.20938C191.712 12.0086 183.421 7.87847 175.21 13.2105C170.784 16.0857 165.733 24.9205 162.455 26.01C157.878 27.5304 151.032 27.4117 145.834 28.7135C141.916 29.6938 138.57 31.2953 134.83 32.6689C134.068 30.0934 132.928 27.8082 130.768 26.1099L156.177 20.6717C161.346 10.7131 172.985 2.28103 184.676 3.36742C187.32 3.61405 190.189 4.93146 192.858 5.15311C199.308 5.69006 204.874 2.84608 210.546 0.248718Z" fill="#FED709"/>
<path d="M192.474 48.2406C192.674 45.946 195.702 45.0875 196.114 42.7961C196.483 40.7544 194.407 37.6919 195.237 36.3964L205.199 30.7771C206.301 30.8364 212.794 35.0633 213.675 36.0779C215.279 37.9229 216.313 41.282 217.755 43.2176C220.502 46.9044 225.456 47.7036 224.255 53.8536L202.133 48.2437H192.471L192.474 48.2406Z" fill="#FED709"/>
<path d="M171.989 28.2078L170.921 20.7903L186.674 14.6997C192.305 18.1649 196.404 23.5095 201.187 27.983L192.774 33.2933L185.181 27.1464L171.989 28.2078Z" fill="#FED709"/>
<path d="M288.461 25.8071C288.67 27.2432 287.34 27.7489 286.425 28.4388C285.302 29.2848 277.116 33.9051 276.301 33.877C275.156 33.8396 272.043 31.0487 270.535 30.3306C267.354 28.8166 263.483 28.5668 260.417 26.7343C264.972 26.2598 269.905 23.3502 274.444 23.2597C278.852 23.1723 283.987 25.6198 288.461 25.8071Z" fill="#FED709"/>
<path d="M307.158 42.6369L290.962 52.6049C290.259 46.6453 284.659 43.5516 280.984 39.5213L307.161 42.6369H307.158Z" fill="#FED709"/>
<path d="M323.176 101.418L332.716 114.308L318.708 109.934L312.156 96.2355L323.176 101.418Z" fill="#FED709"/>
<path d="M315.262 68.8228C315.434 70.4805 315.278 69.8218 314.335 70.0465C310.342 70.9956 305.665 71.3796 301.563 71.9196C301.41 66.5345 297.514 62.4386 294.695 58.2211C302.715 59.4823 308.31 65.3076 315.259 68.8228H315.262Z" fill="#FED709"/>
<path d="M264.155 14.5904L254.405 23.8685C249.832 20.6655 245.758 17.8902 239.848 17.6935C239.695 16.8412 240.963 16.7476 241.565 16.6196C248.761 15.0805 256.812 14.4437 264.155 14.5904Z" fill="#FED709"/>
<path d="M322.121 89.9981L310.942 91.2063C310.439 86.3518 307.754 82.2279 305.291 78.1664C312.989 79.2029 317.316 84.5256 322.121 89.9981Z" fill="#FED709"/>
<path d="M335.835 135.499L324.265 132.427L320.875 117.436C322.099 117.152 322.352 118.066 322.998 118.735C327.884 123.792 331.842 129.733 335.835 135.499Z" fill="#FED709"/>
<path d="M168.262 40.0427C165.483 38.2819 170.887 32.4067 174.106 35.1476C176.534 38.257 170.703 41.588 168.262 40.0427Z" fill="#FED709"/>
<path d="M123.75 47.7317C125.04 47.4726 126.151 47.5912 127.272 48.3061C131.624 51.0752 124.094 54.7964 121.712 51.3655C120.763 49.4862 121.83 48.1157 123.747 47.7348L123.75 47.7317Z" fill="#FED709"/>
</svg>
