<svg width="376" height="368" viewBox="0 0 376 368" fill="none" xmlns="http://www.w3.org/2000/svg">
<circle cx="182.5" cy="190.5" r="169.5" fill="#211C1A"/>
<g filter="url(#filter0_d_1343_305848)">
<path d="M325.714 207.561C325.493 210.436 325.486 213.43 325.09 216.286C321.84 216.255 311.451 216.926 309.297 216.187C306.793 215.328 305.809 208.341 309.833 207.573C313.589 206.855 321.394 207.595 325.714 207.561Z" fill="#FED709"/>
<path d="M326.339 196.341C310.277 196.166 294.175 196.138 278.154 197.084C274.997 198.757 274.969 204.623 277.735 206.609C280.919 208.897 292.348 206.89 296.682 207.517C298.998 210.714 298.792 213.133 295.979 216.296L270.062 216.418C266.072 217.307 265.47 223.08 267.714 225.814C269.269 227.706 278.837 226.726 281.797 226.857C293.079 227.347 308.935 226.105 319.202 227.472C321.035 227.715 321.21 228.446 322.593 229.373C323.361 225.031 324.488 220.654 325.093 216.283C334.649 216.374 347.542 215.197 356.583 216.268C362.028 216.914 363.027 223.236 359.358 226.551L338.62 227.628C333.825 229.189 334.871 236.837 338.611 237.98C343.659 239.522 356.308 236.304 360.595 239.057C363.329 240.812 364.126 244.555 361.575 246.843C361.122 247.249 358.154 248.694 357.816 248.694H316.365C315.01 252.756 313.243 256.692 311.379 260.538C317.417 260.576 336.26 259.486 340.496 261.65C345.107 264.004 343.64 270.531 338.452 271.093L305.772 271.752C305.263 271.259 310.639 262.059 311.379 260.535C290.091 260.398 268.782 260.635 247.488 260.535C242.396 257.204 243.486 250.417 249.327 248.657L315.953 248.588C317.538 248.048 319.724 239.507 320.102 237.471C296.735 237.721 273.324 237.14 249.951 237.437C237.816 237.593 221.695 236.978 210.063 238.067C206.923 238.361 203.52 239.688 203.511 243.387C203.486 252.266 224.183 246.958 229.085 249.013C233.165 250.723 233.396 257.179 230.867 260.426C218.589 261.512 204.734 259.327 192.644 260.538C188.797 260.922 184.143 262.749 185.588 267.566C187.212 272.976 201.032 270.937 205.752 271.103C207.229 271.153 208.59 271.739 210.063 271.777C226.328 272.18 242.655 271.334 258.914 271.858C260.562 273.822 260.637 278.817 258.402 280.172C257.962 280.44 249.754 281.011 248.137 281.127C243.951 281.423 238.69 279.366 237.46 284.804C236.655 288.366 238.303 291.11 241.937 291.638C253.569 293.321 269.013 290.701 281.179 291.66C282.508 291.766 283.429 292.89 284.163 292.837C286.177 292.693 295.024 282.507 297.041 280.477H273.355C271.688 277.075 270.842 275.367 272.731 271.752H305.142L297.662 280.471C304.97 280.815 312.531 280.04 319.814 280.452C321.728 280.562 325.568 280.812 327.254 281.114C331.643 281.901 331.727 290.755 325.986 291.663C320.426 292.543 304.502 290.342 300.787 292.019C297.072 293.695 297.312 299.908 300.147 302.614L355.141 303.095C364.681 303.067 366.027 313.684 356.561 314.761C350.249 315.479 340.259 315.264 333.525 315.411C310.686 315.907 287.784 314.983 264.939 315.389C265.173 313.812 268.697 314.159 267.433 311.649L262.135 315.077L263.375 316.001C258.577 318.436 254.218 321.698 249.464 324.221C214.256 342.889 169.761 346.298 132.333 332.059C130.788 331.473 126.704 330.127 125.68 329.362C124.734 328.654 124.269 326.805 123.133 326.3C121.647 325.641 119.808 326.412 118.456 325.376C120.099 328.766 126.002 327.214 124.872 331.76C123.364 337.832 116.012 331.594 111.919 337.516C109.675 340.763 110.977 342.458 112.516 345.643L156.38 346.654C158.7 347.431 158.934 354.793 155.859 355.28H84.1756C81.2255 354.905 81.4034 347.937 83.2328 346.857C85.0092 345.808 95.998 346.879 99.0199 345.814C103.281 342.34 104.177 338.59 99.0074 335.459C77.3763 334.969 55.7046 336.068 34.139 334.257C31.7008 333.093 31.8007 328.928 33.3429 327.052C34.8632 325.201 43.8604 326.112 46.7699 325.978C53.5193 325.666 63.1595 326.2 69.2471 325.391C72.5375 324.954 75.1473 320.378 73.7331 317.103C70.9734 310.719 60.0501 314.577 54.256 313.519C51.1873 312.957 51.3808 305.752 53.7534 304.912C53.9969 304.825 57.1874 304.169 57.3716 304.169H85.7334C60.6776 281.258 42.7615 249.166 38.9841 215.035C41.8842 215.063 44.8094 215.019 47.7096 215.035C52.1863 236.716 63.3 259.165 77.0235 276.413C80.1735 280.374 84.8125 284.333 87.6096 288.266C90.9001 292.893 90.3756 295.69 97.7899 297.41L106.303 304.169H86.3578L96.9533 313.513C94.5151 313.722 87.0914 313.219 85.2371 314.274C84.9498 314.44 82.571 318.579 82.6116 319.382C82.6584 320.312 85.056 324.636 85.7365 325.045L117.52 325.978C111.823 321.96 105.117 319.269 99.61 314.946C99.1011 314.546 98.4705 314.971 98.8201 313.519H114.713C115.132 313.519 116.337 311.743 116.29 311.034L117.127 311.093C158.441 336.43 211.565 338.631 255.492 318.414L260.88 315.386H248.415L270.855 302.92H175.177C172.857 302.92 168.409 304.906 168.065 307.628C166.748 318.011 184.427 314.524 191.41 314.736C192.887 314.78 194.248 315.376 195.722 315.411C212.642 315.792 229.625 315.067 246.545 315.392L234.704 320.059C196.939 331.276 156.231 326.827 122.09 307.391C115.481 303.629 109.612 298.824 103.191 294.81L118.447 289.83C121.091 291.188 122.471 293.964 125.855 294.073C129.517 292.827 126.089 285.332 126.879 284.224C133.335 288.9 139.251 282.035 146.197 282.975C146.063 289.615 145.301 295.893 146.266 302.539C146.394 303.414 147.873 312.601 149.924 311.025C153.131 301.812 152.843 291.95 153.321 282.316C153.749 281.707 154.551 281.695 155.225 281.676C160.501 281.523 167.201 283.637 172.695 282.991C183.075 281.764 167.038 275.392 163.155 275.008C159.892 274.686 156.14 277.075 152.422 276.126V269.888H165.827C166.277 269.888 168.952 268.724 168.624 267.722C167.834 264.175 155.441 263.08 152.431 264.903L152.403 259.72C152.528 259.308 153.811 258.668 153.983 258.668H169.567C169.698 258.668 170.276 259.602 170.494 259.293C171.119 255.862 168.855 256.477 166.717 255.175L169.508 247.392C173.769 245.941 178.008 247.811 182.345 245.863C182.885 245.619 184.043 245.772 183.584 244.651C182.379 241.714 173.432 240.671 170.497 240.59C170.297 240.399 171.078 235.323 171.228 235.092C171.727 234.321 173.9 235.092 173.638 233.416C173.294 231.221 165.549 227.375 163.37 227.519C162.146 227.6 160.695 228.771 159.309 229.089C147.187 231.871 156.746 224.578 154.161 220.145C153.961 219.805 148.273 216.333 147.461 215.946C146.003 215.247 141.236 212.946 141.202 215.937C141.174 217.56 143.344 219.34 143.575 220.479C143.759 221.397 143.085 222.346 143.206 223.307C143.49 225.568 145.782 227.84 144.939 230.613C142.916 230.881 127.457 231.827 127.475 233.441C127.416 235.533 132.686 239.016 134.175 239.251C136.819 239.669 142.064 234.736 145.495 236.301C146.444 238.679 145.907 240.64 145.535 243.047L121.257 245.575C120.248 249.737 126.892 253.108 130.132 252.303C131.515 251.96 134.515 249.312 136.529 249.312H146.191L145.61 254.651L129.979 256.486C130.023 258.628 135.514 261.319 137.315 261.659C141.333 262.418 147.233 254.991 146.191 265.518H134.659C133.766 265.518 128.481 266.813 129.658 268.649C131.893 272.133 142.504 272.395 146.184 271.131L146.156 276.706C139.032 277.918 131.459 277.44 124.675 280.3C121.166 277.312 118.129 272.857 113.152 272.379C113.97 274.331 117.938 282.547 116.821 284.146L101.314 288.579C100.353 287.386 110.315 274.587 109.125 271.764C108.791 270.972 107.171 270.616 107.546 269.258C110.692 268.362 127.416 267.428 128.109 264.572C127.173 262.068 122.633 262.09 120.339 261.74L102.85 264.303L103.241 258.1C106.584 258.519 109.347 256.986 112.391 256.34C114.055 255.984 121.853 255.55 121.865 253.986C115.881 249.921 109.072 252.756 102.557 253.046L103.184 244.948C107.699 244.932 113.702 243.868 118.172 242.8C120.123 242.335 121.85 241.982 123.124 240.271C116.446 237.05 109.5 240.106 102.557 239.956L103.906 232.582C105.307 231.996 106.703 231.384 108.164 230.918C114.173 229.014 120.058 230.06 125.902 228.087C130.594 226.504 123.479 224.675 121.503 224.444C111.379 223.258 100.319 227.319 90.7159 229.994C89.9729 232.866 94.0094 233.319 94.8991 234.53C96.5818 236.819 97.1593 250.046 96.9751 253.389C96.7285 257.885 94.7774 262.443 95.7045 266.763L79.8394 269.279C78.3628 269.089 75.6593 264.709 74.626 263.22C64.9795 249.309 57.6276 231.543 53.9407 215.031C65.0357 215.069 82.5554 216.452 92.8387 214.972C99.1323 214.067 98.1364 206.34 94.5151 205.326C88.7054 203.699 78.444 206.187 72.347 205.042C68.6258 204.342 68.0202 198.617 70.5395 196.41L92.589 195.398C95.127 194.19 95.4673 186.03 92.5765 184.812C91.5494 184.378 87.4723 183.938 86.0706 183.838C74.679 183.036 61.814 184.029 50.2039 183.863C50.1633 180.376 50.5879 177.314 50.8283 173.889C60.6745 173.677 70.5645 174.061 80.4201 173.873C84.7532 172.856 85.1777 164.726 81.0476 163.93C71.1857 163.874 61.3082 163.958 51.4526 163.918C55.9855 129.974 74.8195 93.8359 103.862 75.1487C199.949 13.3209 326.105 82.7597 326.333 196.329L326.339 196.341ZM240.632 114.065C243.511 113.619 247.291 114.39 250.294 114.065L249.711 119.404L234.08 121.239C235.222 124.327 240.57 127.012 243.592 126.418C245.443 126.056 247.329 123.621 249.711 124.929L250.291 130.271H238.759C238.319 130.271 234.501 131.46 234.089 131.835C233.018 132.628 233.386 132.887 234.058 133.723C236.902 137.254 246.298 136.945 250.285 135.884L250.257 141.459L228.797 144.609C224.895 142.262 222.326 137.467 217.256 137.133C218.074 139.084 222.042 147.3 220.924 148.899L205.418 153.332C204.457 152.139 214.418 139.34 213.229 136.518C212.895 135.725 211.275 135.369 211.649 134.011C218.608 132.291 227.168 133.699 232.837 128.707C224.736 124.361 215.58 127.686 207.291 129.65L207.313 122.822C210.819 123.531 213.432 121.704 216.479 121.077C217.937 120.777 225.957 120.409 225.969 118.736C219.984 114.671 213.176 117.506 206.661 117.796L207.288 109.698C208.006 109.948 208.437 110.241 209.28 110.179C211.365 110.023 224.124 107.278 225.585 106.495C226.231 106.148 226.712 105.527 227.224 105.018C220.846 102.249 213.781 103.923 207.288 105.334C206.654 102.343 209.024 100.045 207.906 97.2574C213.004 95.8432 218.261 93.3551 223.637 94.5945C224.948 93.1741 235.447 92.7714 230.084 90.3238C220.905 86.1375 204.151 92.1501 194.816 94.7412C194.051 97.6539 198.413 98.1347 199.171 99.5769C200.707 102.49 201.275 114.49 201.076 118.136C200.829 122.632 198.875 127.19 199.805 131.51L182.354 134.011C184.096 138.462 189.768 142.593 194.538 140.891C196.814 140.08 202.259 135.135 203.86 138.375C205.053 140.788 203.148 142.121 202.605 143.979C200.838 150.016 200.205 153.9 192.325 153.335C192.693 159.625 201.357 164.149 206.017 159.235C210.8 159.145 218.252 154.368 222.601 154.63C224.233 154.727 227.115 159.535 229.906 158.86C233.636 157.615 230.18 150.082 230.973 148.967C237.495 153.663 243.454 147.016 250.291 147.719C250.154 154.359 249.395 160.637 250.36 167.283C250.488 168.157 251.968 177.345 254.019 175.768C257.24 166.553 256.991 156.7 257.415 147.06C260.599 145.496 279.346 150.054 280.205 146.142C280.816 143.37 269.459 139.97 267.249 139.752C263.987 139.43 260.234 141.818 256.516 140.869L257.103 134.907C262.114 133.717 268.351 136.233 272.725 133.068C273.605 129.278 259.142 127.567 256.525 129.65L256.554 124.071C257.409 123.194 272.394 122.997 274.592 124.04C275.216 120.609 272.953 121.224 270.814 119.922C270.677 119.098 272.993 112.773 273.655 112.189C275.091 110.928 281.497 111.808 284.11 111.427C284.766 111.331 288.128 110.525 287.681 109.401C284.622 105.658 279.062 105.902 274.595 105.34C274.395 105.149 275.175 100.073 275.325 99.8423C275.825 99.0712 277.997 99.8423 277.735 98.1659C277.392 95.9712 269.647 92.1251 267.467 92.2687C264.958 92.4373 260.468 95.837 257.184 94.0732C256.422 93.0117 259.616 87.2176 258.261 84.895C258.061 84.5547 252.373 81.0832 251.562 80.6961C250.06 79.975 245.346 77.7085 245.303 80.6868C245.274 82.3101 247.447 84.0927 247.675 85.229C247.866 86.1812 247.11 87.1333 247.31 88.0574C247.828 90.4675 249.489 92.7027 249.049 95.3687C244.269 96.3927 236.602 95.4811 232.391 97.7163C231.841 98.0067 231.364 97.5727 231.576 98.7965C231.857 100.495 236.749 103.77 238.291 103.991C240.998 104.378 246.149 99.552 249.661 100.988L249.373 107.229L225.357 110.332C224.505 114.203 228.757 116.628 232.072 117.062C235.132 117.465 237.766 114.512 240.632 114.068V114.065ZM133.738 93.4925C136.198 87.4767 131.908 80.9646 126.255 86.3342C126.273 88.8503 129.167 86.9648 129.701 87.8482C130.925 93.658 130.16 96.5488 123.76 96.6206C124.304 98.9214 125.936 99.1524 128.125 99.1118C128.712 101.881 124.157 102.671 123.81 103.879L125.043 107.803C126.227 108.63 131.874 103.776 134.05 103.467C135.096 103.317 135.046 103.448 134.996 104.41C134.88 106.635 132.024 112.935 129.976 113.788L123.142 111.577C122.068 112.62 127.051 115.486 127.491 116.251C127.491 117.499 115.775 122.416 114.498 118.661C114.155 117.652 114.229 110.816 114.398 109.383C114.81 105.896 117.576 105.277 118.775 102.234L114.417 104.722C113.477 98.4375 115.6 99.7518 119.215 97.3698C123.202 94.7412 118.204 93.6829 115.918 92.9181C114.595 91.1449 119.771 83.9834 110.049 85.4007C109.381 87.5985 111.192 87.1895 111.629 87.8795C111.91 88.3228 111.267 95.7589 110.689 96.324C107.424 97.6882 103.634 99.4084 100.078 98.4937C101.608 103.314 106.868 103.133 110.667 100.982C110.368 103.083 111.264 106.642 110.368 108.468C109.547 110.144 103.965 112.233 103.756 115.629C103.578 118.508 104.983 117.852 105.941 119.12C108.95 123.103 114.204 130.911 114.42 120.309C118.878 123.059 122.215 123.25 127.06 121.427C128.477 120.893 130.207 119.098 131.446 119.201C133.213 119.344 137.749 123.103 139.341 124.367L135.605 126.54C140.315 125.585 143.728 128.245 148.067 128.413C149.107 124.03 133.841 118.117 133.747 116.891C138.105 110.981 145.598 98.1815 131.862 100.985C131.656 97.3105 138.411 97.1138 139.291 95.0191C140.406 92.3718 135.114 92.8182 133.735 93.5081L133.738 93.4925ZM125.633 136.499C127.613 130.664 125.79 126.983 119.399 127.155C120.948 130.683 121.013 134.582 120.358 138.397C115.971 140.329 111.064 141.082 106.309 140.869C104.474 142.508 113.677 145.73 114.798 145.83C116.271 145.964 119.721 144.416 119.337 146.098C118.903 148.009 116.518 152.286 115.3 153.915C112.25 158.002 105.429 163.384 100.072 162.067C104.758 167.115 114.642 163.012 118.472 158.336C121.694 154.399 122.927 148.243 124.522 143.504C130.429 140.957 145.81 137.214 130.975 133.364C129.967 135.256 127.731 136.202 125.627 136.502L125.633 136.499ZM133.741 164.545C136.192 166.063 148.613 171.501 144.364 164.205C141.458 159.219 130.332 153.516 124.391 154.587L136.554 163.297L136.847 164.555L133.741 164.548V164.545ZM182.354 171.098C183.119 175.706 181.792 182.159 182.354 186.991L155.244 188.908C152.74 188.799 152.356 186.869 148.929 188.174C148.285 188.418 147.82 187.865 148.136 189.102C148.723 191.29 153.611 196.794 155.834 196.906C157.994 197.015 166.317 194.374 169.664 193.937C173.872 193.388 178.102 193.038 182.357 193.222C183.534 202.376 180.368 216.258 184.186 224.737C186.078 228.939 187.773 225.565 188.429 222.674C188.804 221.022 189.834 214.869 189.834 213.483V192.601C193.97 192.648 197.835 191.908 202.015 191.952C207.363 192.008 214.184 193.522 219.469 193.254C222.398 193.107 224.255 192.557 221.633 189.785C219.841 187.89 211.977 185.33 209.517 185.746C205.755 186.382 205.724 186.161 201.987 186.326C197.876 186.507 194.02 187.806 189.899 186.301C189.94 182.727 189.584 179.04 189.84 175.469C189.999 173.255 191.657 169.347 190.989 167.461C189.949 164.53 180.609 161.299 177.365 161.436C177.706 164.929 181.755 167.511 182.348 171.095L182.354 171.098ZM116.749 169.072C116.446 168.816 114.741 168.388 114.389 168.591C113.099 172.54 104.28 173.767 110.337 177.644L121.591 172.668L115.675 181.378C115.11 178.397 110.633 178.425 108.182 178.269C109.603 181.381 111.813 181.987 115.035 182.312C113.874 183.442 111.301 184.566 109.712 184.541C107.599 184.506 106.924 181.953 104.443 182.633C105.008 186.308 103.537 187.612 108.176 188.546C104.976 191.836 100.927 194.324 96.3383 195.102C96.997 196.656 98.5922 196.981 100.206 196.841C106.503 196.294 114.414 189.792 118.472 185.128C121.766 181.341 123.895 176.53 127.838 173.293C128.855 171.763 125.053 170.252 124.041 170.186C122.421 170.08 117.279 172.312 116.908 172.025C117.317 171.157 117.573 169.765 116.749 169.069V169.072ZM133.735 183.866C133.332 183.339 143.843 177.479 141.564 173.892C138.814 169.559 130.597 174.785 127.503 176.402C127.375 177.576 128.812 176.905 129.498 176.839C131.05 176.689 132.651 176.046 134.353 176.396C135.261 177.176 130.126 181.144 129.555 181.278C128.768 181.459 126.639 180.779 125.34 180.726C124.659 180.698 122.971 180.345 123.142 181.372L126.873 182.633L125.009 184.488C126.308 184.609 127.791 184.269 129.046 184.506C129.636 184.619 135.873 189.742 136.298 190.407C137.075 191.627 136.142 192.508 136.22 192.586C136.32 192.685 138.09 192.848 138.964 193.285C141.614 194.608 143.671 197.296 146.818 196.956C147.096 190.263 139.235 185.945 133.735 183.863V183.866ZM128.122 190.104C126.13 184.584 119.793 189.289 115.659 188.867C116.355 190.556 118.428 190.756 120.02 190.737L118.781 191.971L128.125 190.104H128.122ZM123.779 196.987L131.874 195.417C132.861 194.624 132.28 194.79 131.868 194.156C128.587 189.086 117.76 197.771 113.168 195.089L112.506 197.2C115.584 200.268 118.4 198.08 121.887 197.593C120.401 202.479 124.622 214.691 115.659 207.561C114.891 208.519 119.424 214.345 119.827 214.441C126.885 216.162 124.94 200.69 123.773 196.987H123.779ZM139.288 207.499C139.853 202.085 133.625 200.718 129.373 200.087C130.482 201.448 130.229 203.83 132.489 203.2C133.148 206.184 131.346 204.174 130.625 205.682C133.619 206.347 136.138 209.166 139.291 207.495L139.288 207.499ZM109.416 201.951C107.764 201.804 108.395 201.901 108.201 202.894C107.717 205.369 107.268 207.402 109.397 209.169C112.831 212.019 114.011 206.078 115.016 204.236C115.325 203.668 116.524 204.171 116.281 203.206L110.443 204.495L109.419 201.954L109.416 201.951ZM323.211 230.001C321.606 229.82 322.221 229.998 321.956 230.906C321.509 232.433 321.559 234.159 320.729 235.601C323.801 235.055 324.394 232.545 323.214 230.001H323.211ZM271.485 302.927H283.951C285.302 299.361 287.035 297.142 284.25 293.564L271.485 302.927Z" fill="#FED709"/>
<path d="M52.0799 205.067C52.5669 208.416 53.2132 211.738 53.9499 215.041C51.877 215.035 49.7885 215.053 47.7156 215.041C47.4222 213.62 45.9518 205.585 46.4669 205.067C48.3275 205.007 50.2193 205.154 52.0799 205.067Z" fill="#FED709"/>
<path d="M325.715 207.561C326.014 203.64 326.345 200.403 326.339 196.341C331.715 196.4 337.599 195.966 342.881 196.316C344.33 196.413 348.513 196.769 349.593 197.084C352.684 197.983 352.987 206.397 348.329 207.43C343.322 208.538 331.574 207.517 325.711 207.564L325.715 207.561Z" fill="#FED709"/>
<path d="M50.21 183.876C50.2506 187.597 50.4972 192.66 50.8344 196.341C48.9707 196.307 47.0913 196.35 45.2245 196.341C44.9123 192.005 44.6063 188.33 44.6001 183.876C46.4576 183.96 48.3494 183.851 50.21 183.876Z" fill="#FED709"/>
<path d="M51.4588 163.927C51.0654 166.874 51.0529 170.814 50.8344 173.901C48.8208 173.945 46.5388 173.702 44.6001 173.901C44.7812 170.867 45.4274 167.033 45.8457 163.927C47.7126 163.927 49.5888 163.921 51.4556 163.927H51.4588Z" fill="#FED709"/>
<path d="M41.4844 163.927C43.8788 153.126 47.6094 142.708 52.3983 132.759L53.3223 133.068C51.5804 135.306 51.187 138.181 50.5158 140.857C48.624 148.399 46.8914 156.216 45.8487 163.927C44.397 163.927 42.9391 163.924 41.4844 163.927Z" fill="#FED709"/>
<path d="M44.6001 173.901C44.4066 177.111 44.597 180.62 44.6001 183.876C43.9133 183.844 42.6584 184.103 42.2088 183.788C40.3919 182.518 41.0974 176.361 42.4211 174.516C42.9893 173.698 43.8166 173.983 44.6001 173.901Z" fill="#FED709"/>
<path d="M45.2242 196.341L45.8517 205.07L38.3656 205.064C38.0628 208.457 38.6247 211.71 38.9931 215.041C34.9347 215.003 27.9262 215.69 24.3611 215.025C20.3245 214.273 20.4962 206.166 23.8522 205.201C26.103 204.555 37.2573 205.563 37.7475 205.073C37.7787 202.173 37.6944 199.244 37.7443 196.344C40.2324 196.35 42.7361 196.329 45.2242 196.344V196.341Z" fill="#FED709"/>
<path d="M41.4847 163.927C39.0465 174.932 37.9351 185.049 37.7447 196.338C26.6123 196.313 15.5142 196.513 4.40984 195.701C0.348345 194.927 0.417026 185.327 4.6752 184.15C9.28302 182.677 28.0296 185.302 30.8923 183.567C33.755 181.831 32.4314 176.371 31.5104 173.898H11.2529C8.18725 173.898 6.48586 165.098 11.6993 163.693C21.5955 164.055 31.5666 163.952 41.4815 163.924L41.4847 163.927Z" fill="#FED709"/>
<path d="M50.8345 196.341C52.9074 196.379 54.999 196.313 57.0719 196.338C56.6473 198.355 57.8274 200.381 57.2248 202.366C56.2196 205.678 54.7243 204.948 52.0832 205.067C51.6649 202.198 51.0998 199.223 50.8376 196.341H50.8345Z" fill="#FED709"/>
<path d="M36.4709 160.159L26.3 160.727C24.6922 160.19 25.2542 156.934 25.3634 155.592C26.6683 139.527 40.0266 122.991 45.237 107.531C47.2724 101.494 49.389 97.0045 42.8238 93.0929C31.9224 86.5995 20.7899 94.1012 18.0989 105.324L15.6202 117.79C10.6034 106.701 11.9427 93.3301 21.867 85.4038C31.2231 77.9333 47.0476 77.5555 55.2143 86.9335C65.8254 99.1149 54.6618 113.138 49.4795 124.861C44.494 136.14 38.6687 148.059 36.4709 160.156V160.159Z" fill="#FED709"/>
<path d="M289.252 318.511C289.401 318.498 290.325 317.171 290.806 318.195C283.748 324.336 275.965 329.874 267.761 334.416C250.763 343.829 241.628 345.789 222.02 342.733C221.196 342.605 218.636 342.511 218.508 341.581C227.355 338.865 236.58 336.614 245.103 332.955C249.33 331.142 270.876 318.511 272.419 318.511C277.813 318.511 283.976 318.917 289.248 318.511H289.252Z" fill="#FED709"/>
<path d="M72.6495 302.296C67.0771 301.05 58.3391 300.27 54.0122 296.318C50.1724 292.815 43.0296 275.364 42.2554 270.051C41.5187 264.99 42.5832 259.895 43.3606 254.932L54.0715 277.555L72.6464 302.293L72.6495 302.296Z" fill="#FED709"/>
<path d="M290.809 323.502L287.687 335.34C287.244 335.718 279.527 332.35 281.225 330.945C282.611 330.161 284.644 329.159 285.789 328.138C286.635 327.386 289.698 322.575 290.809 323.502Z" fill="#FED709"/>
<path d="M259.641 342.823L253.7 352.795C253.335 352.882 247.953 348.458 247.806 348.112C247.269 346.847 248.674 347.269 249.27 347.11C250.906 346.673 252.617 346.46 254.184 345.78C255.18 345.349 258.995 342.19 259.638 342.827L259.641 342.823Z" fill="#FED709"/>
<path d="M242.814 347.812L236.892 355.898L232.846 346.56C235.915 348.324 239.43 347.743 242.814 347.812Z" fill="#FED709"/>
<path d="M271.498 345.309L267.789 339.452L275.843 334.092C276.162 334.507 273.68 343.248 273.209 344.228C272.803 345.074 272.534 345.508 271.498 345.305V345.309Z" fill="#FED709"/>
<path d="M40.8572 272.383C40.2796 273.01 32.7872 266.551 32.1348 265.536C34.6759 265.746 37.1515 264.219 39.6552 265.181L40.8572 272.383Z" fill="#FED709"/>
<path d="M28.3917 103.467L24.6143 100.07C21.9857 97.9067 29.9495 93.1179 30.2586 93.4956L28.3917 103.467Z" fill="#FED709"/>
<path d="M24.0304 112.81C16.4756 113.057 18.9606 107.038 21.8514 102.845L24.0304 112.81Z" fill="#FED709"/>
<path d="M50.8282 298.562C47.8937 296.727 43.8759 295.55 41.0413 293.727C40.4294 293.333 39.9268 293.789 40.239 292.331C42.1964 292.902 45.4805 290.979 47.1007 291.997C47.4192 292.197 51.0842 298.284 50.8251 298.559L50.8282 298.562Z" fill="#FED709"/>
<path d="M43.9756 284.848L35.2563 280.181C40.9911 276.119 42.5208 279.326 43.9756 284.848Z" fill="#FED709"/>
<path d="M40.86 95.3562L34.6351 97.8568C35.2189 96.1335 33.0992 93.0679 35.2969 93.1085C36.8454 93.1366 40.1888 93.6798 40.86 95.3531V95.3562Z" fill="#FED709"/>
<path d="M84.4941 276.132C86.4078 276.329 87.4536 276.962 89.514 276.497C91.9803 275.942 99.3416 269.192 100.094 274.605C100.172 275.174 98.0085 282.307 97.6152 283.325C97.3498 284.015 95.8732 286.599 95.3768 286.721L84.4941 276.132Z" fill="#FED709"/>
<path d="M162.359 235.667L161.204 241.573L152.438 242.463L153.146 235.698C156.305 235.401 159.274 234.249 162.359 235.667Z" fill="#FED709"/>
<path d="M160.539 247.455L159.827 252.974L152.431 253.689V247.449L160.539 247.455Z" fill="#FED709"/>
<path d="M106.934 304.178C111.879 304.05 116.455 303.073 116.88 309.414L115.419 310.35L106.934 304.175V304.178Z" fill="#FED709"/>
<path d="M266.425 100.426L265.288 106.308L256.528 107.207L257.237 100.439C260.374 100.164 263.378 98.9526 266.425 100.426Z" fill="#FED709"/>
<path d="M264.63 112.195L263.899 117.693C261.614 118.848 258.976 118.348 256.522 118.43V112.189L264.63 112.195Z" fill="#FED709"/>
<path d="M111.295 112.198C110.305 116.066 111.248 124.036 106.362 116.959C107.205 116.21 110.118 111.274 111.295 112.198Z" fill="#FED709"/>
<path d="M318.228 134.632C317.292 134.488 317.067 133.455 316.661 132.774C312.712 126.159 309.812 117.902 305.657 111.368C294.125 93.2365 278.672 78.1424 260.599 66.6697L229.247 52.8338C228.061 51.6569 228.872 47.6079 227.511 45.5318C226.609 44.1551 223.887 43.0469 222.616 41.6982C220.334 39.2726 218.701 34.9083 216.335 32.3983C213.326 29.2078 206.351 25.8674 202.487 23.2045C201.937 22.8237 201.338 23.3044 201.675 21.8184C206.851 21.5094 212.882 16.9016 217.615 16.2366C220.031 15.8963 230.39 16.964 232.984 17.6196C237.791 18.834 268.866 33.5066 272.141 36.4317C275.75 39.6566 290.06 57.3199 292.501 61.5749C297.378 70.0788 303.325 84.9075 307.127 94.3229C312.238 106.988 317.354 120.986 318.231 134.635L318.228 134.632Z" fill="#FED709"/>
<path d="M0.348122 125.279C-0.678959 114.256 0.610356 102.177 3.63853 91.4883C10.4004 67.6156 23.6057 57.0389 48.9706 64.5032C53.2381 65.7581 62.1509 70.7562 65.9408 70.316C75.2127 69.239 82.0557 49.7775 92.5607 47.6453C101.392 45.8503 108.12 51.9597 116.258 48.0012C117.872 56.4832 130.6 57.5696 132.248 48.5787C137.79 47.7421 150.698 50.1334 155.156 47.9107C157.186 46.8992 163.045 41.5515 164.694 41.2893C165.58 41.1488 167.509 42.2633 168.955 42.3944C171.796 42.6504 175.036 42.0635 176.272 39.1102C177.921 35.1736 174.496 33.4691 181.077 32.0549C186.843 30.8155 189.868 37.7772 189.771 42.5911L184.998 46.5901C169.305 49.6776 152.309 50.1209 137.003 54.6944C133.185 55.8339 118.172 62.5583 115.681 61.4157C114.566 60.9068 113.873 58.9651 111.985 58.3407C110.605 57.8849 101.089 56.8266 99.1321 56.7329C94.7178 56.5207 93.85 57.3698 91.0341 60.4604C83.9538 68.2369 79.4615 80.0561 67.1896 81.5046C53.7844 83.0874 36.1929 64.0911 21.536 75.7324C10.7563 84.2924 5.46792 102.749 3.02665 115.814C2.88617 116.56 2.24619 127.536 0.354366 125.291L0.348122 125.279Z" fill="#FED709"/>
<path d="M167.925 33.5566C163.314 35.4421 157.089 42.9938 152.696 44.2051C148.95 45.2384 144.133 44.6265 140.287 44.8857C137.927 45.0449 134.321 46.1812 132.158 46.1438C129.155 46.0938 126.826 43.3123 121.556 43.6088C116.773 43.8773 109.718 47.0834 104.761 46.1094C103.309 45.8253 94.7957 39.001 95.0861 37.7211C98.62 35.3266 103.459 35.4421 107.548 34.9021L105.613 29.9883C100.908 28.9706 96.6001 31.2839 92.2046 31.7116C80.7569 32.826 68.4756 25.5459 59.6096 18.9558C57.543 17.4198 44.8933 6.87429 45.2211 5.30714C45.3304 4.78579 46.4636 4.03031 47.1285 4.62033C57.4431 10.8827 69.6119 19.296 81.4811 22.0152C91.6083 24.3347 100.012 19.6769 111.001 20.5448C122.521 21.4532 127.709 26.2203 132.857 36.104C140.412 33.5566 151.813 28.6147 159.695 28.2775C163.501 28.1152 168.093 28.8769 167.918 33.5566H167.925ZM124.384 38.0145C121.843 32.0612 116.795 30.2505 110.673 29.9196C110.38 30.185 112.762 34.2871 113.183 34.5711C113.67 34.8989 123.922 38.3767 124.381 38.0145H124.384Z" fill="#FED709"/>
<path d="M154.745 5.79411C155.794 6.55896 156.287 9.90243 158.584 10.0492L158.7 10.8921C158.581 11.7162 154.077 17.6321 153.237 17.938C150.836 18.8121 145.913 18.9183 143.066 19.6113C139.963 20.3637 130.672 23.8071 128.481 23.6697C126.804 23.5636 124.313 21.4626 122.515 20.885C120.108 20.1108 109.956 19.4115 109.516 17.0545C108.754 12.9649 121.163 8.72863 124.226 8.25099C128.343 7.60789 133.176 8.6818 137.128 8.06368C140.066 7.60477 142.335 4.63279 145.26 4.33934C146.815 4.18325 153.699 5.02926 154.748 5.79411H154.745Z" fill="#FED709"/>
<path d="M209.776 0C211.271 1.42043 201.091 7.49551 199.98 7.96066C190.942 11.7599 182.65 7.62975 174.44 12.9618C170.013 15.837 164.962 24.6718 161.684 25.7613C157.107 27.2817 150.261 27.163 145.063 28.4648C141.146 29.4451 137.799 31.0466 134.059 32.4202C133.297 29.8447 132.158 27.5595 129.998 25.8612L155.406 20.423C160.576 10.4644 172.214 2.03231 183.905 3.11871C186.549 3.36533 189.418 4.68274 192.088 4.90439C198.537 5.44135 204.104 2.59736 209.776 0Z" fill="#FED709"/>
<path d="M191.704 47.9918C191.904 45.6973 194.932 44.8388 195.344 42.5474C195.712 40.5057 193.636 37.4432 194.467 36.1476L204.428 30.5283C205.53 30.5876 212.024 34.8146 212.904 35.8292C214.509 37.6742 215.542 41.0333 216.984 42.9688C219.732 46.6557 224.686 47.4549 223.484 53.6049L201.363 47.9949H191.701L191.704 47.9918Z" fill="#FED709"/>
<path d="M171.218 27.9591L170.15 20.5416L185.903 14.4509C191.535 17.9162 195.634 23.2607 200.417 27.7343L192.003 33.0445L184.411 26.8977L171.218 27.9591Z" fill="#FED709"/>
<path d="M287.69 25.5584C287.899 26.9945 286.57 27.5002 285.655 28.1901C284.531 29.0361 276.346 33.6564 275.531 33.6284C274.385 33.5909 271.273 30.8 269.765 30.082C266.584 28.5679 262.713 28.3181 259.647 26.4856C264.202 26.0111 269.134 23.1015 273.673 23.011C278.081 22.9236 283.217 25.3711 287.69 25.5584Z" fill="#FED709"/>
<path d="M306.387 42.3882L290.191 52.3562C289.489 46.3966 283.888 43.3029 280.214 39.2726L306.39 42.3882H306.387Z" fill="#FED709"/>
<path d="M322.405 101.169L331.946 114.059L317.938 109.685L311.385 95.9868L322.405 101.169Z" fill="#FED709"/>
<path d="M314.491 68.5741C314.663 70.2318 314.507 69.5731 313.564 69.7978C309.571 70.7469 304.895 71.1309 300.793 71.6709C300.64 66.2858 296.744 62.1899 293.925 57.9724C301.945 59.2336 307.539 65.0589 314.488 68.5741H314.491Z" fill="#FED709"/>
<path d="M263.384 14.3417L253.635 23.6197C249.061 20.4168 244.987 17.6414 239.078 17.4448C238.925 16.5925 240.192 16.4989 240.795 16.3709C247.99 14.8318 256.042 14.195 263.384 14.3417Z" fill="#FED709"/>
<path d="M321.35 89.7494L310.171 90.9575C309.668 86.1031 306.984 81.9792 304.521 77.9177C312.219 78.9541 316.546 84.2768 321.35 89.7494Z" fill="#FED709"/>
<path d="M335.064 135.25L323.495 132.178L320.104 117.187C321.328 116.903 321.581 117.818 322.227 118.486C327.113 123.543 331.071 129.484 335.064 135.25Z" fill="#FED709"/>
<path d="M167.491 39.7939C164.713 38.0332 170.117 32.1579 173.335 34.8989C175.764 38.0082 169.932 41.3392 167.491 39.7939Z" fill="#FED709"/>
<path d="M122.98 47.483C124.269 47.2239 125.381 47.3425 126.501 48.0574C130.853 50.8265 123.323 54.5477 120.941 51.1168C119.992 49.2375 121.06 47.867 122.977 47.4861L122.98 47.483Z" fill="#FED709"/>
</g>
<defs>
<filter id="filter0_d_1343_305848" x="0" y="0" width="375.122" height="367.898" filterUnits="userSpaceOnUse" color-interpolation-filters="sRGB">
<feFlood flood-opacity="0" result="BackgroundImageFix"/>
<feColorMatrix in="SourceAlpha" type="matrix" values="0 0 0 0 0 0 0 0 0 0 0 0 0 0 0 0 0 0 127 0" result="hardAlpha"/>
<feOffset dx="12" dy="12"/>
<feComposite in2="hardAlpha" operator="out"/>
<feColorMatrix type="matrix" values="0 0 0 0 0.129412 0 0 0 0 0.109804 0 0 0 0 0.101961 0 0 0 1 0"/>
<feBlend mode="normal" in2="BackgroundImageFix" result="effect1_dropShadow_1343_305848"/>
<feBlend mode="normal" in="SourceGraphic" in2="effect1_dropShadow_1343_305848" result="shape"/>
</filter>
</defs>
</svg>
