<svg width="226" height="226" viewBox="0 0 226 226" fill="none" xmlns="http://www.w3.org/2000/svg">
<path d="M193.714 112.999C193.714 68.4226 157.577 32.2852 113 32.2852C68.423 32.2852 32.2856 68.4226 32.2856 112.999C32.2856 150.851 58.3467 182.614 93.5026 191.338V137.666H76.8593V112.999H93.5026V102.371C93.5026 74.8991 105.936 62.1656 132.907 62.1656C138.021 62.1656 146.845 63.1697 150.455 64.1705V86.5284C148.55 86.3282 145.24 86.2281 141.13 86.2281C127.897 86.2281 122.782 91.2421 122.782 104.276V112.999H149.147L144.617 137.666H122.782V193.123C162.749 188.296 193.717 154.267 193.717 112.999H193.714Z" fill="white"/>
</svg>
