<svg width="50" height="50" viewBox="0 0 50 50" fill="none" xmlns="http://www.w3.org/2000/svg">
<path d="M49.999 25.0002C49.999 11.1931 38.8062 0 24.9995 0C11.1928 0 0 11.1931 0 25.0002C0 36.7243 8.07184 46.5624 18.9606 49.2644V32.6403H13.8057V25.0002H18.9606V21.7082C18.9606 13.1991 22.8115 9.25508 31.1654 9.25508C32.7493 9.25508 35.4823 9.56608 36.6003 9.87608V16.8011C36.0103 16.7391 34.9853 16.7081 33.7123 16.7081C29.6134 16.7081 28.0294 18.2612 28.0294 22.2982V25.0002H36.1953L34.7923 32.6403H28.0294V49.8174C40.4082 48.3224 50 37.7823 50 25.0002H49.999Z" fill="white"/>
</svg>
