<svg width="64" height="64" viewBox="0 0 64 64" fill="none" xmlns="http://www.w3.org/2000/svg">
<g filter="url(#filter0_d_531_157719)">
<rect x="4" width="56" height="56" rx="2" fill="black"/>
<rect x="4.5" y="0.5" width="55" height="55" rx="1.5" stroke="#6C5C07"/>
<path d="M26.293 13.2929L27.707 14.7069L32 10.4139L36.293 14.7069L37.707 13.2929L32 7.58594L26.293 13.2929Z" fill="#FFF9E5"/>
<path d="M14.5113 23.986C14.2219 24.0233 14.0399 24.0093 13.9653 23.944C13.8719 23.6827 13.9559 23.4913 14.2173 23.37C14.4039 23.2673 14.5066 23.2067 14.5253 23.188C14.7679 22.9453 14.8893 22.6933 14.8893 22.432C14.8893 22.2733 14.9033 21.9047 14.9313 21.326C14.9593 20.738 14.9966 19.9493 15.0433 18.96C15.0619 18.6147 15.0759 18.2927 15.0853 17.994C15.0946 17.686 15.0993 17.4013 15.0993 17.14C15.0993 16.636 15.0199 16.2907 14.8613 16.104C14.7306 15.964 14.5579 15.866 14.3433 15.81C14.1006 15.5673 14.0353 15.3807 14.1473 15.25C14.1473 15.25 14.1659 15.236 14.2033 15.208C14.2406 15.18 14.2966 15.1427 14.3713 15.096C14.4273 15.068 14.4786 15.054 14.5253 15.054C15.4679 15.054 16.2846 15.0727 16.9753 15.11C17.6753 15.138 18.2446 15.1847 18.6833 15.25C19.8593 15.4833 20.6106 15.9827 20.9373 16.748C21.4786 17.6533 21.3619 18.4793 20.5873 19.226C20.5499 19.2633 20.5173 19.296 20.4893 19.324C20.4613 19.352 20.4286 19.3753 20.3913 19.394C19.4206 19.8887 18.6599 20.1453 18.1093 20.164C18.0159 20.2387 17.8806 20.248 17.7033 20.192C17.6659 20.1827 17.6333 20.178 17.6053 20.178C17.5866 20.1687 17.5679 20.164 17.5493 20.164C16.7373 20.164 16.2519 20.262 16.0933 20.458C16.0559 20.514 16.0373 20.542 16.0373 20.542C15.7386 20.9993 15.6499 21.5687 15.7713 22.25C15.7899 22.39 15.8179 22.516 15.8553 22.628C15.8553 22.768 15.9533 22.8893 16.1493 22.992C16.3919 23.104 16.5506 23.2393 16.6253 23.398C16.6906 23.538 16.7233 23.72 16.7233 23.944H14.8893C14.8053 23.944 14.6793 23.958 14.5113 23.986ZM15.8553 19.016C15.8646 19.38 16.0513 19.5713 16.4153 19.59C17.5446 19.59 18.3799 19.5013 18.9213 19.324C18.9773 19.3053 19.0333 19.2867 19.0893 19.268C19.1453 19.2493 19.1966 19.2307 19.2433 19.212C19.6259 19.016 19.8733 18.8387 19.9853 18.68C20.0319 18.6147 20.0693 18.5493 20.0973 18.484C20.1346 18.4187 20.1626 18.3487 20.1813 18.274C20.5173 16.846 19.8873 16.0247 18.2913 15.81H17.5493C16.8773 15.81 16.4666 15.8567 16.3173 15.95C16.1399 16.062 16.0139 16.384 15.9393 16.916C15.9299 17.0653 15.9019 17.3313 15.8553 17.714V19.016ZM28.8998 24.378C28.5824 24.4807 28.3351 24.4293 28.1578 24.224L28.1158 24.182C27.6864 23.8647 27.2011 23.762 26.6598 23.874C26.5851 23.8833 26.4078 23.9253 26.1278 24C25.7638 24.1213 25.1618 24.182 24.3218 24.182C23.7618 24.182 23.2438 23.93 22.7678 23.426C22.7211 23.37 22.6744 23.314 22.6278 23.258C22.5904 23.202 22.5531 23.1507 22.5158 23.104C22.2171 22.4973 22.1844 21.9793 22.4178 21.55C22.5204 21.354 22.6698 21.2047 22.8658 21.102C23.8364 20.3833 24.7418 20.024 25.5818 20.024H26.8418C27.0844 19.8653 27.2058 19.6833 27.2058 19.478C27.1871 18.8433 26.8884 18.4233 26.3098 18.218C25.7404 18.218 25.3484 18.2787 25.1338 18.4C24.9658 18.4933 24.8118 18.61 24.6718 18.75C24.5318 18.9087 24.3498 18.946 24.1258 18.862C24.0604 18.834 24.0044 18.7967 23.9578 18.75C23.7244 18.5167 23.6638 18.3393 23.7758 18.218L24.1398 17.854C25.1384 17.518 26.0718 17.5367 26.9398 17.91C26.9864 17.9287 27.0331 17.952 27.0798 17.98C27.1264 17.9987 27.1684 18.0173 27.2058 18.036C27.7564 18.484 28.0598 18.9647 28.1158 19.478C28.1811 19.7207 28.2278 19.996 28.2558 20.304C28.2838 20.612 28.2978 20.9433 28.2978 21.298C28.2791 21.3913 28.2604 21.5173 28.2418 21.676C28.2231 21.8347 28.2091 22.0307 28.1998 22.264C28.1904 22.404 28.1624 22.502 28.1158 22.558C28.1251 23.3793 28.4238 23.7993 29.0118 23.818C29.0958 23.818 29.1471 23.8413 29.1658 23.888C29.1751 23.9253 29.1798 23.9533 29.1798 23.972C29.1891 23.9813 29.1938 23.9907 29.1938 24C29.2404 24.168 29.1424 24.294 28.8998 24.378ZM23.4118 23.104C23.5331 23.4867 23.8131 23.6873 24.2518 23.706C24.3731 23.706 24.5131 23.6827 24.6718 23.636C25.0264 23.636 25.5818 23.496 26.3378 23.216C26.4124 23.1973 26.4778 23.1787 26.5338 23.16C26.5898 23.132 26.6364 23.1133 26.6738 23.104C27.0098 23.0947 27.1871 22.9127 27.2058 22.558V21.83C27.2991 21.242 27.2104 20.8593 26.9398 20.682C26.7624 20.5607 26.4311 20.4627 25.9458 20.388C25.8804 20.388 25.7684 20.402 25.6098 20.43C25.4511 20.4487 25.2411 20.4813 24.9798 20.528C24.9144 20.5373 24.8584 20.5467 24.8118 20.556C24.7651 20.556 24.7184 20.556 24.6718 20.556C24.1958 20.7333 23.7758 21.0973 23.4118 21.648C23.2251 22.04 23.2251 22.5253 23.4118 23.104ZM36.2438 26.73C35.5344 27.2527 34.5731 27.4533 33.3598 27.332C32.2771 27.22 31.4231 26.9027 30.7978 26.38C30.2564 25.8293 30.1211 25.2227 30.3918 24.56C30.4011 24.5413 30.4104 24.518 30.4198 24.49C30.4291 24.4713 30.4384 24.4573 30.4478 24.448C30.4758 24.392 30.5084 24.322 30.5458 24.238C30.5924 24.154 30.6484 24.0607 30.7138 23.958C31.0218 23.4447 31.1804 23.0293 31.1898 22.712C31.1898 22.572 31.1758 22.4413 31.1478 22.32C31.0918 22.152 31.1758 21.956 31.3998 21.732C31.6144 21.508 31.7124 21.326 31.6938 21.186C31.6938 21.1393 31.6891 21.1067 31.6798 21.088C31.6424 21.004 31.4931 20.8313 31.2318 20.57C31.1758 20.5047 31.1244 20.444 31.0778 20.388C31.0404 20.3227 31.0078 20.2667 30.9798 20.22C30.7744 19.5107 30.9331 18.8947 31.4558 18.372C31.8104 18.0267 32.2351 17.8213 32.7298 17.756C33.7751 17.756 34.5218 17.854 34.9698 18.05C35.0444 18.0873 35.1144 18.1247 35.1798 18.162C35.2451 18.1993 35.3058 18.2413 35.3618 18.288C35.4924 18.4 35.6698 18.456 35.8938 18.456C35.9218 18.456 35.9544 18.456 35.9918 18.456C36.0384 18.4467 36.0944 18.4373 36.1598 18.428C36.4491 18.4 36.6404 18.4467 36.7338 18.568C36.7524 18.6053 36.7664 18.6287 36.7758 18.638C36.7758 18.806 36.6638 18.932 36.4398 19.016C36.3184 19.0627 36.2251 19.1 36.1598 19.128C36.0944 19.1467 36.0618 19.156 36.0618 19.156C35.8564 19.38 35.7444 19.576 35.7258 19.744C35.7164 19.772 35.7118 19.814 35.7118 19.87C35.7118 20.6353 35.2124 21.1393 34.2138 21.382C34.1764 21.3913 34.1344 21.4007 34.0878 21.41C34.0504 21.4193 34.0084 21.4287 33.9618 21.438C33.4858 21.4567 33.1358 21.5173 32.9118 21.62C32.6038 21.6387 32.3704 21.816 32.2118 22.152C32.0718 22.2827 32.0998 22.4833 32.2958 22.754C32.3424 22.8007 32.3704 22.8333 32.3798 22.852C32.6131 22.9267 33.0051 22.936 33.5558 22.88C33.6771 22.8707 33.7844 22.866 33.8778 22.866C33.9804 22.8567 34.0691 22.852 34.1438 22.852H35.5438C35.7584 22.852 36.0104 22.9593 36.2998 23.174C36.4304 23.2673 36.5284 23.3373 36.5938 23.384C37.3778 24.0653 37.5784 24.8213 37.1958 25.652C36.9904 26.0813 36.6731 26.4407 36.2438 26.73ZM33.0798 20.92H34.1438C34.8251 20.724 35.1751 20.2527 35.1938 19.506C35.1938 19.1793 35.0771 18.9133 34.8438 18.708C34.7971 18.6707 34.7458 18.6333 34.6898 18.596C34.6338 18.5493 34.5684 18.5027 34.4938 18.456C33.8124 18.2973 33.2244 18.2973 32.7298 18.456C32.2444 18.5773 31.9598 18.9227 31.8758 19.492C31.8664 19.5667 31.8571 19.6507 31.8478 19.744C31.8478 19.8373 31.8478 19.9353 31.8478 20.038C31.9598 20.458 32.1138 20.7147 32.3098 20.808C32.4871 20.8827 32.7438 20.92 33.0798 20.92ZM33.2058 26.744C34.0644 26.7813 34.7084 26.7253 35.1378 26.576C35.1471 26.5667 35.1564 26.562 35.1658 26.562C35.1751 26.562 35.1844 26.5573 35.1938 26.548C36.0151 26.4173 36.4584 26.0113 36.5238 25.33C36.5518 25.05 36.5191 24.756 36.4258 24.448C36.4258 24.0187 36.2391 23.7433 35.8658 23.622C35.7818 23.5847 35.6744 23.566 35.5438 23.566C35.5158 23.566 35.4644 23.566 35.3898 23.566C35.3151 23.5567 35.2124 23.5473 35.0818 23.538C34.4378 23.5007 33.9058 23.4867 33.4858 23.496C33.0658 23.496 32.7578 23.5193 32.5618 23.566C32.1604 23.6687 31.7964 23.944 31.4698 24.392C31.1804 24.8027 31.0731 25.1713 31.1478 25.498C31.1478 25.5447 31.1944 25.666 31.2878 25.862C31.3158 25.9273 31.3298 25.9833 31.3298 26.03C31.6378 26.3193 32.0484 26.5527 32.5618 26.73C32.6364 26.73 32.7251 26.73 32.8278 26.73C32.9304 26.73 33.0564 26.7347 33.2058 26.744ZM43.6202 23.79C42.7989 24.1913 41.9029 24.2333 40.9322 23.916C40.7082 23.8507 40.2976 23.6827 39.7002 23.412C38.9256 22.8893 38.5056 22.194 38.4402 21.326C38.4216 20.934 38.4682 20.57 38.5802 20.234C38.8789 19.0113 39.6209 18.204 40.8062 17.812C40.9556 17.7653 41.1096 17.728 41.2682 17.7C41.4269 17.6627 41.5856 17.6347 41.7442 17.616H42.6962C43.5549 17.616 44.1476 17.8073 44.4742 18.19C44.7076 18.498 44.9176 19.0533 45.1042 19.856C45.2442 20.1173 45.1602 20.3273 44.8522 20.486C44.7682 20.5233 44.6702 20.5653 44.5582 20.612C44.3716 20.612 43.7789 20.668 42.7802 20.78C42.1362 20.8453 41.6042 20.8453 41.1842 20.78C40.5682 20.78 40.0736 20.8453 39.7002 20.976C39.5322 21.6293 39.6256 22.1753 39.9802 22.614C40.0549 22.698 40.1436 22.7773 40.2462 22.852C40.7969 23.272 41.2496 23.5053 41.6042 23.552C41.8936 23.58 42.1922 23.5333 42.5002 23.412C42.9762 23.2533 43.3636 23.132 43.6622 23.048C43.9702 22.9547 44.1896 22.8893 44.3202 22.852C44.4136 22.7493 44.5256 22.7447 44.6562 22.838C44.8336 22.95 44.8242 23.1133 44.6282 23.328C44.6096 23.356 44.5862 23.384 44.5582 23.412C44.4836 23.4867 44.2829 23.5707 43.9562 23.664C43.8349 23.7013 43.7229 23.7433 43.6202 23.79ZM40.1902 20.122C40.3209 20.1967 40.4656 20.234 40.6242 20.234C40.9416 20.234 41.9309 20.178 43.5922 20.066C43.6669 20.0567 43.7369 20.052 43.8022 20.052C43.8676 20.052 43.9282 20.0473 43.9842 20.038C44.2829 20.0193 44.3762 19.7953 44.2642 19.366C44.1522 18.974 43.9609 18.6707 43.6902 18.456C43.5969 18.3907 43.5129 18.358 43.4382 18.358H42.6962C41.5389 18.1713 40.7176 18.4467 40.2322 19.184C40.1669 19.2773 40.1109 19.3753 40.0642 19.478C39.9242 19.758 39.9662 19.9727 40.1902 20.122ZM22.8003 43.972C22.4736 43.9907 22.245 43.8507 22.1143 43.552C22.0023 43.3093 22.035 43.1413 22.2123 43.048C22.287 43.02 22.3523 43.006 22.4083 43.006H23.9623C24.1956 42.6327 24.3216 42.194 24.3403 41.69V41.452C24.3403 40.4253 24.3216 39.5247 24.2843 38.75C24.2563 37.9753 24.2096 37.3313 24.1443 36.818C24.1443 36.4073 24.0183 36.1693 23.7663 36.104C23.673 36.076 23.5423 36.062 23.3743 36.062H22.9963C22.343 35.9407 21.9416 35.9827 21.7923 36.188C21.6896 36.3467 21.6383 36.622 21.6383 37.014C21.6196 37.686 21.5543 38.1387 21.4423 38.372C21.321 38.5773 21.1483 38.6333 20.9243 38.54C20.7563 38.4653 20.6723 38.344 20.6723 38.176C20.6816 37.9333 20.6956 37.56 20.7143 37.056C20.7236 36.6547 20.7376 36.3093 20.7563 36.02C20.7843 35.7213 20.817 35.474 20.8543 35.278C21.0223 35.0167 21.2183 34.886 21.4423 34.886C22.5623 35.2127 23.995 35.32 25.7403 35.208C25.9083 35.1893 26.1603 35.1753 26.4963 35.166C26.795 35.1473 27.0516 35.1333 27.2663 35.124C27.4903 35.1053 27.677 35.0913 27.8263 35.082C28.2556 35.082 28.503 35.1147 28.5683 35.18C28.6056 35.2173 28.643 35.278 28.6803 35.362C28.7176 35.4367 28.755 35.5347 28.7923 35.656C28.7923 35.6933 28.8063 35.7913 28.8343 35.95C28.8623 36.1087 28.8996 36.3327 28.9463 36.622C28.9743 36.79 28.9883 36.9207 28.9883 37.014C28.9883 37.2847 28.8623 37.5133 28.6103 37.7C28.5263 37.756 28.4563 37.784 28.4003 37.784C28.0176 37.6533 27.8263 37.2053 27.8263 36.44C27.8263 36.2813 27.7236 36.146 27.5183 36.034C27.453 35.9967 27.397 35.964 27.3503 35.936C27.3036 35.8987 27.271 35.8707 27.2523 35.852H26.2863C25.8943 36.0573 25.6563 36.2253 25.5723 36.356C25.5256 36.4493 25.5023 36.538 25.5023 36.622C25.381 36.7527 25.3203 36.944 25.3203 37.196V42.81C25.5256 42.95 25.8756 43.0433 26.3703 43.09C26.585 43.118 26.7483 43.1553 26.8603 43.202C26.9723 43.202 27.0656 43.2813 27.1403 43.44C27.215 43.6267 27.1543 43.734 26.9583 43.762C26.9303 43.7713 26.8976 43.776 26.8603 43.776C26.5056 43.776 25.367 43.832 23.4443 43.944C23.323 43.9533 23.2063 43.958 23.0943 43.958C22.9916 43.958 22.8936 43.9627 22.8003 43.972ZM33.8524 43.944C33.2364 44.2427 32.5178 44.2753 31.6964 44.042C30.9498 43.818 30.3711 43.4307 29.9604 42.88C29.7178 42.18 29.6524 41.5873 29.7644 41.102V40.038C29.9231 39.086 30.4178 38.358 31.2484 37.854C31.3511 37.7887 31.4584 37.7327 31.5704 37.686C31.6824 37.63 31.7944 37.5833 31.9064 37.546C33.0358 37.406 34.0998 37.8213 35.0984 38.792C35.7331 39.5107 35.9851 40.3553 35.8544 41.326C35.7238 42.278 35.2804 43.0247 34.5244 43.566C34.3191 43.7153 34.0951 43.8413 33.8524 43.944ZM32.0744 43.412C32.9611 43.664 33.6704 43.51 34.2024 42.95C34.3238 42.8193 34.4264 42.6747 34.5104 42.516C34.6038 42.3573 34.6784 42.1847 34.7344 41.998C34.8558 41.7553 34.9164 41.396 34.9164 40.92C34.9164 40.3133 34.8558 39.842 34.7344 39.506C34.6411 39.086 34.3704 38.7407 33.9224 38.47C33.5771 38.2553 33.2551 38.1853 32.9564 38.26C32.0978 38.5027 31.5098 38.8573 31.1924 39.324C30.6511 40.2387 30.4738 41.2467 30.6604 42.348C30.6791 42.7773 30.9171 43.0713 31.3744 43.23C31.4398 43.23 31.5564 43.2627 31.7244 43.328C31.9111 43.384 32.0278 43.412 32.0744 43.412ZM39.2111 46.59C39.3418 46.618 39.4491 46.674 39.5331 46.758C39.6265 46.8513 39.6731 47.0053 39.6731 47.22H37.6851C37.2185 47.22 36.9758 47.1407 36.9571 46.982C36.9571 46.842 37.0831 46.562 37.3351 46.142C37.4565 46.0113 37.5171 45.708 37.5171 45.232V39.086C37.5171 38.806 37.3958 38.6147 37.1531 38.512C37.1345 38.5027 37.1111 38.4933 37.0831 38.484C37.0645 38.4747 37.0365 38.4653 36.9991 38.456C36.9058 38.4093 36.8358 38.3813 36.7891 38.372C36.6398 38.372 36.5745 38.2927 36.5931 38.134C36.6025 38.0127 36.6678 37.91 36.7891 37.826C37.3491 37.6393 37.7691 37.5833 38.0491 37.658C38.1891 37.7047 38.3105 37.7607 38.4131 37.826C38.8425 37.966 39.3045 37.9847 39.7991 37.882C39.8458 37.8727 39.8878 37.8633 39.9251 37.854C39.9625 37.8447 39.9998 37.8353 40.0371 37.826C41.0358 37.6673 41.9365 38.0873 42.7391 39.086C43.2245 39.7393 43.4671 40.5233 43.4671 41.438C43.4671 41.4847 43.4531 41.5687 43.4251 41.69C43.3971 41.8113 43.3598 41.97 43.3131 42.166C43.3038 42.2033 43.2945 42.236 43.2851 42.264C43.2851 42.292 43.2851 42.3153 43.2851 42.334C42.5665 42.9313 42.1511 43.2627 42.0391 43.328C41.4138 43.7573 40.8071 43.972 40.2191 43.972C39.9765 43.8507 39.6125 43.79 39.1271 43.79C38.8285 43.79 38.6511 43.8273 38.5951 43.902C38.5765 43.9393 38.5485 43.9907 38.5111 44.056C38.4831 44.1307 38.4505 44.224 38.4131 44.336V45.05C38.4038 45.442 38.4411 45.764 38.5251 46.016C38.6091 46.24 38.7118 46.3847 38.8331 46.45C38.8985 46.478 38.9591 46.5013 39.0151 46.52C39.0805 46.548 39.1458 46.5713 39.2111 46.59ZM38.7771 42.53C39.2905 43.1833 39.9671 43.398 40.8071 43.174C40.9285 43.1367 41.0451 43.0993 41.1571 43.062C41.2691 43.0153 41.3765 42.9593 41.4791 42.894C41.7311 42.726 41.9318 42.4833 42.0811 42.166C42.2398 41.8393 42.3425 41.4847 42.3891 41.102C42.4358 40.7193 42.4265 40.346 42.3611 39.982C42.2958 39.618 42.1698 39.31 41.9831 39.058C41.9645 39.03 41.9411 39.002 41.9131 38.974C41.8851 38.946 41.8618 38.9227 41.8431 38.904L41.6611 38.736C41.0358 38.372 40.3918 38.3393 39.7291 38.638C39.1318 38.918 38.7631 39.3753 38.6231 40.01C38.6138 40.038 38.6091 40.066 38.6091 40.094C38.6091 40.122 38.6045 40.15 38.5951 40.178C38.5951 40.2153 38.5905 40.2713 38.5811 40.346C38.5811 40.4207 38.5765 40.5187 38.5671 40.64C38.5018 41.4613 38.5111 41.9653 38.5951 42.152C38.6138 42.3947 38.6745 42.5207 38.7771 42.53Z" fill="#FFF9E5"/>
</g>
<defs>
<filter id="filter0_d_531_157719" x="0" y="0" width="64" height="64" filterUnits="userSpaceOnUse" color-interpolation-filters="sRGB">
<feFlood flood-opacity="0" result="BackgroundImageFix"/>
<feColorMatrix in="SourceAlpha" type="matrix" values="0 0 0 0 0 0 0 0 0 0 0 0 0 0 0 0 0 0 127 0" result="hardAlpha"/>
<feOffset dy="4"/>
<feGaussianBlur stdDeviation="2"/>
<feComposite in2="hardAlpha" operator="out"/>
<feColorMatrix type="matrix" values="0 0 0 0 0 0 0 0 0 0 0 0 0 0 0 0 0 0 0.25 0"/>
<feBlend mode="normal" in2="BackgroundImageFix" result="effect1_dropShadow_531_157719"/>
<feBlend mode="normal" in="SourceGraphic" in2="effect1_dropShadow_531_157719" result="shape"/>
</filter>
</defs>
</svg>
