<svg width="2023" height="654" viewBox="0 0 2023 654" fill="none" xmlns="http://www.w3.org/2000/svg">
<path d="M1529.5 488C1536.4 488 1542 493.596 1542 500.5C1542 507.404 1536.4 513 1529.5 513H1485.3C1484.65 514.165 1484.32 515.564 1485 517C1485.68 518.437 1487.01 519.835 1488.36 521H1565.5C1572.4 521 1578 526.596 1578 533.5C1578 540.404 1572.4 546 1565.5 546H1413.5C1406.6 546 1401 540.404 1401 533.5C1401 526.596 1406.6 521 1413.5 521H1466.22C1466.36 520.021 1466.19 518.722 1465.5 517C1464.75 515.136 1463.8 513.898 1462.74 513H1357.5C1350.6 513 1345 507.404 1345 500.5C1345 493.596 1350.6 488 1357.5 488H1529.5Z" fill="#D3B25B"/>
<path d="M231.5 194C238.404 194 244 199.596 244 206.5C244 213.404 238.404 219 231.5 219H187.299C186.65 220.165 186.317 221.564 187 223C187.683 224.437 189.009 225.835 190.356 227H267.5C274.404 227 280 232.596 280 239.5C280 246.404 274.404 252 267.5 252H115.5C108.596 252 103 246.404 103 239.5C103 232.596 108.596 227 115.5 227H168.22C168.357 226.021 168.189 224.722 167.5 223C166.754 221.136 165.8 219.898 164.741 219H59.5C52.5964 219 47 213.404 47 206.5C47 199.596 52.5964 194 59.5 194H231.5Z" fill="#D3B25B"/>
<path d="M1404.5 464C1411.4 464 1417 458.404 1417 451.5C1417 444.596 1411.4 439 1404.5 439H1360.3C1359.65 437.835 1359.32 436.436 1360 435C1360.68 433.563 1362.01 432.165 1363.36 431H1440.5C1447.4 431 1453 425.404 1453 418.5C1453 411.596 1447.4 406 1440.5 406H1288.5C1281.6 406 1276 411.596 1276 418.5C1276 425.404 1281.6 431 1288.5 431H1341.22C1341.36 431.979 1341.19 433.278 1340.5 435C1339.75 436.864 1338.8 438.102 1337.74 439H1232.5C1225.6 439 1220 444.596 1220 451.5C1220 458.404 1225.6 464 1232.5 464H1404.5Z" fill="#F3DA96"/>
<path d="M1949.5 310C1956.4 310 1962 304.404 1962 297.5C1962 290.596 1956.4 285 1949.5 285H1892.36C1891.01 283.835 1889.68 282.437 1889 281C1888.32 279.564 1888.65 278.165 1889.3 277H1936.5C1943.4 277 1949 271.404 1949 264.5C1949 257.596 1943.4 252 1936.5 252H1712.5C1705.6 252 1700 257.596 1700 264.5C1700 271.404 1705.6 277 1712.5 277H1866.74C1867.8 277.898 1868.75 279.136 1869.5 281C1870.19 282.722 1870.36 284.021 1870.22 285H1777.5C1770.6 285 1765 290.596 1765 297.5C1765 304.404 1770.6 310 1777.5 310H1949.5Z" fill="#F3DA96"/>
<path d="M255.644 368.004C265.209 368.004 272.963 360.25 272.963 350.685C272.963 345.481 270.668 340.815 267.036 337.64H305.525C315.091 337.639 322.845 329.885 322.845 320.319C322.845 310.754 315.091 302.999 305.525 302.999H94.9141C85.3485 302.999 77.5938 310.754 77.5938 320.319C77.5938 325.522 79.8884 330.189 83.5205 333.364H17.3203C7.75474 333.364 0 341.119 0 350.685C0.000169061 360.25 7.75484 368.004 17.3203 368.004H255.644Z" fill="#F3DA96"/>
<path d="M1955.64 653.641C1965.21 653.64 1972.96 645.887 1972.96 636.321C1972.96 631.118 1970.67 626.451 1967.04 623.276H2005.53C2015.09 623.276 2022.84 615.521 2022.84 605.956C2022.84 596.391 2015.09 588.636 2005.53 588.636H1794.91C1785.35 588.636 1777.59 596.39 1777.59 605.956C1777.59 611.159 1779.89 615.826 1783.52 619.001H1717.32C1707.75 619.001 1700 626.756 1700 636.321C1700 645.887 1707.75 653.641 1717.32 653.641H1955.64Z" fill="#F3DA96"/>
<path d="M729 317C740.046 317 749 308.046 749 297V291C749 279.954 740.046 271 729 271H644.463C643.222 268.827 642.561 266.199 643.845 263.5C645.128 260.801 647.637 258.173 650.169 256H774.414C785.46 256 794.414 247.046 794.414 236V230C794.414 218.954 785.46 210 774.414 210H580.414C569.368 210 560.414 218.954 560.414 230V236C560.414 247.046 569.368 256 580.414 256H609.183C609.467 257.82 609.171 260.251 607.871 263.5C606.462 267.023 604.648 269.334 602.637 271H490C478.954 271 470 279.954 470 291V297C470 308.046 478.954 317 490 317H729Z" fill="#D3B25B"/>
<path d="M1924.43 194C1935.48 194 1944.43 185.046 1944.43 174V167.879C1944.43 156.833 1935.48 147.879 1924.43 147.879H1839.83C1838.63 145.73 1838.02 143.15 1839.28 140.5C1840.54 137.85 1842.98 135.27 1845.46 133.121H1990.84C2001.89 133.121 2010.84 124.167 2010.84 113.121V107C2010.84 95.9543 2001.89 87 1990.84 87H1704.31C1693.26 87 1684.31 95.9543 1684.31 107V113.121C1684.31 124.167 1693.26 133.121 1704.31 133.121H1804.63C1804.88 134.927 1804.57 137.323 1803.3 140.5C1801.93 143.938 1800.17 146.222 1798.21 147.879H1601C1589.95 147.879 1581 156.833 1581 167.879V174C1581 185.046 1589.95 194 1601 194H1924.43Z" fill="#F3DA96"/>
<path d="M616.431 116C627.476 116 636.431 124.954 636.431 136V142.121C636.43 153.167 627.476 162.121 616.431 162.121H531.828C530.631 164.27 530.015 166.85 531.275 169.5C532.535 172.15 534.976 174.73 537.461 176.879H682.845C693.89 176.879 702.845 185.833 702.845 196.879V203C702.845 214.046 693.89 223 682.845 223H396.311C385.265 223 376.311 214.046 376.311 203V196.879C376.311 185.833 385.265 176.879 396.311 176.879H496.631C496.883 175.073 496.573 172.677 495.302 169.5C493.927 166.062 492.166 163.778 490.213 162.121H293C281.954 162.121 273 153.167 273 142.121V136C273 124.954 281.954 116 293 116H616.431Z" fill="#F3DA96"/>
<path d="M859.644 471.004C869.209 471.004 876.963 463.25 876.963 453.685C876.963 448.481 874.668 443.815 871.036 440.64H909.525C919.091 440.639 926.845 432.885 926.845 423.319C926.845 413.754 919.091 405.999 909.525 405.999H698.914C689.348 405.999 681.594 413.754 681.594 423.319C681.594 428.522 683.888 433.189 687.521 436.364H621.32C611.755 436.364 604 444.119 604 453.685C604 463.25 611.755 471.004 621.32 471.004H859.644Z" fill="white"/>
<path d="M1898.53 435C1909.58 435 1918.53 443.954 1918.53 455V463.643C1918.53 474.688 1909.58 483.642 1898.53 483.643H1834.88C1833.37 486.179 1832.16 489.637 1833.5 493.215C1834.54 496.009 1836.57 498.729 1838.63 500.996H1955.84C1966.89 500.996 1975.84 509.95 1975.84 520.995V529.638C1975.84 540.683 1966.89 549.638 1955.84 549.638H1724.92C1713.88 549.638 1704.92 540.683 1704.92 529.638V520.995C1704.93 509.95 1713.88 500.996 1724.92 500.996H1804.75C1804.96 499.091 1804.7 496.565 1803.65 493.215C1802.06 488.16 1799.85 485.471 1797.45 483.643H1637C1625.95 483.643 1617 474.688 1617 463.643V455C1617 443.954 1625.95 435 1637 435H1898.53Z" fill="white"/>
<path d="M258.644 65.0039C268.209 65.0037 275.963 57.2499 275.963 47.6846C275.963 42.4814 273.668 37.8145 270.036 34.6396H308.525C318.091 34.6394 325.845 26.8848 325.845 17.3193C325.845 7.75391 318.091 -0.000738303 308.525 -0.000976562H97.9141C88.3485 -0.000976562 80.5938 7.75376 80.5938 17.3193C80.5938 22.5225 82.8884 27.1894 86.5205 30.3643H20.3203C10.7547 30.3643 3 38.119 3 47.6846C3.00017 57.25 10.7548 65.0039 20.3203 65.0039H258.644Z" fill="white"/>
</svg>
